<svg xmlns="http://www.w3.org/2000/svg" width="9.375in" height="10.312500000000002in" viewBox="0 0 675 742.5000000000001"><g transform="translate(-33750 -1500)"><g transform="translate(27001.297750620695 118.76469363410092) rotate(0)"><polygon fill="none" stroke="#231F20" stroke-width="1" points="6750 1500 6860.72 1500.04 6853.15 1381.55 6748.7 1381.24 6750 1500"/></g><g transform="translate(43499.9998115 3200.752469799999) rotate(180)"><polygon fill="none" stroke="#231F20" stroke-width="1" points="9750 1500 9697.88 1462.41 9640.47 1462.39 9646.05 1581.68 9746.29 1581.99 9750 1500"/></g><g transform="translate(24755.580193200003 357.4813729) rotate(0)"><polygon fill="none" stroke="#231F20" stroke-width="1" points="9000 1500 9091.98 1500.03 9082.71 1380.97 8994.42 1380.7 9000 1500"/></g><g transform="translate(66749.9999432 3447.676292799996) rotate(180)"><polygon fill="none" stroke="#231F20" stroke-width="1" points="33000 1500 32998.4 1467.12 32904.2 1470.15 32909.7 1585.9 32988.5 1590.19 33000 1500"/></g><g transform="translate(3092.3166311000023 477.63802950000013) rotate(0)"><polygon fill="none" stroke="#231F20" stroke-width="1" points="30750 1500 30657.7 1502.97 30658.7 1599.06 30756.7 1604.4 30750 1500"/></g><g transform="translate(9930.277124799999 1113.522394) rotate(0)"><polygon fill="none" stroke="#231F20" stroke-width="1" points="24000 750 23913.6 743.99 23914.8 847.641 24006.2 846.895 24000 750"/></g><g transform="translate(55597.5825107 2607.7688047999973) rotate(180)"><polygon fill="none" stroke="#231F20" stroke-width="1" points="21750 750 21672.6 744.613 21678.2 864.684 21758.9 864.026 21750 750"/></g><g transform="translate(11432.0329842 1217.2169741) rotate(0)"><polygon fill="none" stroke="#231F20" stroke-width="1" points="22500 750 22413 743.946 22421.9 857.972 22495.4 857.372 22500 750"/></g><g transform="translate(43700.1053949 2402.2659028999988) rotate(180)"><polygon fill="none" stroke="#231F20" stroke-width="1" points="9750 750 9845.09 760.585 9838.94 664.203 9750.18 656.547 9750 750"/></g><g transform="translate(54863.128062 2392.5842628999976) rotate(180)"><polygon fill="none" stroke="#231F20" stroke-width="1" points="21000 750 20933.3 745.358 20927.6 870.707 21005.6 870.07 21000 750"/></g><g transform="translate(12853.498271700002 583.506926) rotate(0)"><polygon fill="none" stroke="#231F20" stroke-width="1" points="21000 1500 20897.6 1493.19 20903 1578.07 21000.9 1583.41 21000 1500"/></g><g transform="translate(2424.6207330000034 354.9935188000002) rotate(0)"><polygon fill="none" stroke="#231F20" stroke-width="1" points="31500 1500 31576.4 1497.55 31569.7 1393.15 31500.2 1389.36 31500 1500"/></g><g transform="translate(41435.9155543 3473.406298699999) rotate(180)"><polygon fill="none" stroke="#231F20" stroke-width="1" points="7500 1500 7427.63 1499.97 7428.93 1618.74 7494.94 1618.94 7500 1500"/></g><g transform="translate(53424.949405 2853.8988801999976) rotate(180)"><polygon fill="none" stroke="#231F20" stroke-width="1" points="19500 750 19449.5 746.487 19409.3 880.527 19488.9 879.878 19500 750"/></g><g transform="translate(26429.944741500003 900.0217758) rotate(0)"><polygon fill="none" stroke="#231F20" stroke-width="1" points="7500 750 7605.25 746.359 7599.83 676.778 7503.47 668.467 7500 750"/></g><g transform="translate(13745.920493999998 1022.8927948) rotate(0)"><polygon fill="none" stroke="#231F20" stroke-width="1" points="20250 750 20307.7 754.013 20318.8 624.135 20255.7 624.65 20250 750"/></g><g transform="translate(9335.646106300002 1029.1355361) rotate(0)"><polygon fill="none" stroke="#231F20" stroke-width="1" points="24750 750 24666.1 744.165 24672.3 841.06 24749.8 840.428 24750 750"/></g><g transform="translate(43013.3109761 2716.507387199999) rotate(180)"><polygon fill="none" stroke="#231F20" stroke-width="1" points="9000 750 8922.77 752.672 8923.71 839.272 9006.16 846.383 9000 750"/></g><g transform="translate(10012.328570600002 546.051473) rotate(0)"><polygon fill="none" stroke="#231F20" stroke-width="1" points="24000 1500 24094.6 1506.28 24090.8 1425.12 24003.6 1420.37 24000 1500"/></g><g transform="translate(7841.842967299999 1380.5050457000002) rotate(0)"><polygon fill="none" stroke="#231F20" stroke-width="1" points="26250 750 26231.1 669.766 26152.4 664.286 26156.5 750.763 26250 750"/></g><g transform="translate(49056.9132472 2526.6573240999983) rotate(180)"><polygon fill="none" stroke="#231F20" stroke-width="1" points="15000 750 14903.6 741.689 14909.8 820.101 14996.8 826.154 15000 750"/></g><g transform="translate(5644.8845095 120.0142492) rotate(0)"><polygon fill="none" stroke="#231F20" stroke-width="1" points="28500 1500 28418.7 1502.61 28422.4 1580.98 28506.7 1585.58 28500 1500"/></g><g transform="translate(36391.5504677 2302.3100123) rotate(180)"><polygon fill="none" stroke="#231F20" stroke-width="1" points="2250 750 2362.73 737.719 2358.13 678.64 2252.88 682.281 2250 750"/></g><g transform="translate(66395.35869220001 3284.285752699996) rotate(180)"><polygon fill="none" stroke="#231F20" stroke-width="1" points="32250 1500 32305.3 1498.22 32305.5 1387.58 32244.5 1384.25 32250 1500"/></g><g transform="translate(10853.473994400003 478.4107133) rotate(0)"><polygon fill="none" stroke="#231F20" stroke-width="1" points="23250 1500 23336.9 1505.77 23330.5 1423.43 23246.2 1418.83 23250 1500"/></g><g transform="translate(17688.570800399997 1235.6977426) rotate(0)"><polygon fill="none" stroke="#231F20" stroke-width="1" points="16500 750 16417.6 742.889 16418.4 818.606 16504.8 824.616 16500 750"/></g><g transform="translate(6341.9452267000015 632.6923130000002) rotate(0)"><polygon fill="none" stroke="#231F20" stroke-width="1" points="27750 1500 27830.3 1497.42 27833.5 1426.38 27746.3 1421.63 27750 1500"/></g><g transform="translate(16900.810469199998 1148.9768834000001) rotate(0)"><polygon fill="none" stroke="#231F20" stroke-width="1" points="17250 750 17338.8 757.656 17334 683.039 17250.1 677.205 17250 750"/></g><g transform="translate(19976.5225605 1003.4535983999999) rotate(0)"><polygon fill="none" stroke="#231F20" stroke-width="1" points="14250 750 14175 743.529 14178.7 823.025 14256.1 828.411 14250 750"/></g><g transform="translate(28205.264329800004 128.6788176) rotate(0)"><polygon fill="none" stroke="#231F20" stroke-width="1" points="6000 1500 5946.39 1520.5 5946.21 1618.3 6007.57 1618.49 6000 1500"/></g><g transform="translate(4673.934574500003 574.6175291000002) rotate(0)"><polygon fill="none" stroke="#231F20" stroke-width="1" points="29250 1500 29179 1502.28 29185.7 1587.86 29246.1 1591.15 29250 1500"/></g><g transform="translate(17645.545232099998 128.49890400000004) rotate(0)"><polygon fill="none" stroke="#231F20" stroke-width="1" points="16500 1500 16600.2 1500.3 16597.5 1441.97 16502.9 1435.68 16500 1500"/></g><g transform="translate(54524.8026935 3132.9420584999975) rotate(180)"><polygon fill="none" stroke="#231F20" stroke-width="1" points="20250 1500 20313.9 1504.25 20314.1 1418.91 20244.6 1415.12 20250 1500"/></g><g transform="translate(64288.8902729 3217.5387636999967) rotate(180)"><polygon fill="none" stroke="#231F20" stroke-width="1" points="30000 1500 30054 1498.26 30057.9 1407.12 29999 1403.9 30000 1500"/></g><g transform="translate(53690.366746 3489.2941619999974) rotate(180)"><polygon fill="none" stroke="#231F20" stroke-width="1" points="19500 1500 19434.7 1495.66 19438.8 1582.01 19499.8 1585.33 19500 1500"/></g><g transform="translate(59062.0212836 3315.673791199997) rotate(180)"><polygon fill="none" stroke="#231F20" stroke-width="1" points="24750 1500 24819.9 1504.64 24823.5 1425.01 24756.7 1421.37 24750 1500"/></g><g transform="translate(10943.737854799998 1347.0446199999997) rotate(0)"><polygon fill="none" stroke="#231F20" stroke-width="1" points="23250 750 23297.3 753.288 23301.8 645.917 23248.9 646.349 23250 750"/></g><g transform="translate(47754.5972575 2720.835365299998) rotate(180)"><polygon fill="none" stroke="#231F20" stroke-width="1" points="13500 750 13440.6 744.878 13437 824.854 13503.7 829.496 13500 750"/></g><g transform="translate(12558.966370200003 497.1723113999999) rotate(0)"><polygon fill="none" stroke="#231F20" stroke-width="1" points="21750 1500 21686.6 1495.79 21687.5 1579.2 21746.5 1582.41 21750 1500"/></g><g transform="translate(53030.1697792 3216.959497099998) rotate(180)"><polygon fill="none" stroke="#231F20" stroke-width="1" points="18750 1500 18707.3 1497.16 18675.3 1582.05 18754.1 1586.35 18750 1500"/></g><g transform="translate(18187.722058599997 68.86014060000002) rotate(0)"><polygon fill="none" stroke="#231F20" stroke-width="1" points="15750 1500 15838.3 1500.27 15834.2 1447.44 15747.3 1441.66 15750 1500"/></g><g transform="translate(51615.373718 3219.925379399998) rotate(180)"><polygon fill="none" stroke="#231F20" stroke-width="1" points="17250 1500 17322.8 1500.22 17325.8 1435.9 17255.9 1431.26 17250 1500"/></g><g transform="translate(8814.8660933 1125.5395261) rotate(0)"><polygon fill="none" stroke="#231F20" stroke-width="1" points="25500 750 25550.4 753.505 25550.5 663.077 25495.9 663.523 25500 750"/></g><g transform="translate(27497.7876284 881.1476089000001) rotate(0)"><polygon fill="none" stroke="#231F20" stroke-width="1" points="6750 750 6822.45 747.494 6819.61 686.89 6744.58 680.419 6750 750"/></g><g transform="translate(56868.9392564 3379.2900132999976) rotate(180)"><polygon fill="none" stroke="#231F20" stroke-width="1" points="22500 1500 22550.5 1503.35 22554 1420.94 22493.6 1417.65 22500 1500"/></g><g transform="translate(60169.6912032 3670.0161143999967) rotate(180)"><polygon fill="none" stroke="#231F20" stroke-width="1" points="26250 1500 26171.2 1502.53 26174.6 1561.53 26244.4 1565.34 26250 1500"/></g><g transform="translate(21619.87739 1213.0661393) rotate(0)"><polygon fill="none" stroke="#231F20" stroke-width="1" points="12750 750 12695.6 745.309 12688.7 825.962 12746.4 829.976 12750 750"/></g><g transform="translate(61372.7699561 3542.8326235999966) rotate(180)"><polygon fill="none" stroke="#231F20" stroke-width="1" points="27000 1500 27064.3 1497.93 27069.9 1432.6 27003.2 1428.96 27000 1500"/></g><g transform="translate(8806.140304599998 658.5751848) rotate(0)"><polygon fill="none" stroke="#231F20" stroke-width="1" points="25500 1500 25480.2 1420.44 25436.9 1417.57 25430.2 1496.2 25500 1500"/></g><g transform="translate(39604.7387644 3219.8933373999994) rotate(180)"><polygon fill="none" stroke="#231F20" stroke-width="1" points="5250 1500 5181.44 1565.44 5182.97 1597.6 5249.82 1597.8 5250 1500"/></g><g transform="translate(20922.237505600002 76.75864890000003) rotate(0)"><polygon fill="none" stroke="#231F20" stroke-width="1" points="13500 1500 13395.6 1499.69 13398.1 1538.79 13500.5 1545.6 13500 1500"/></g><g transform="translate(37966.2337803 2269.7354008999996) rotate(180)"><polygon fill="none" stroke="#231F20" stroke-width="1" points="3750 750 3825.24 768.521 3824.55 705.32 3747.32 707.992 3750 750"/></g><g transform="translate(26123.9089028 329.50826240000015) rotate(0)"><polygon fill="none" stroke="#231F20" stroke-width="1" points="8250 1500 8279.92 1500.01 8284.98 1381.07 8240.73 1380.94 8250 1500"/></g><g transform="translate(52177.2631507 2917.922880599998) rotate(180)"><polygon fill="none" stroke="#231F20" stroke-width="1" points="18000 750 17953.2 745.964 17953.1 818.759 18003.4 822.263 18000 750"/></g><g transform="translate(42201.019553 2485.9252825999993) rotate(180)"><polygon fill="none" stroke="#231F20" stroke-width="1" points="8250 750 8211.22 751.341 8207.75 832.875 8250.95 836.6 8250 750"/></g><g transform="translate(50167.4270157 2583.233717199998) rotate(180)"><polygon fill="none" stroke="#231F20" stroke-width="1" points="15750 750 15793.2 753.725 15796.4 677.571 15749.2 674.283 15750 750"/></g><g transform="translate(44875.5232622 2715.2121213999985) rotate(180)"><polygon fill="none" stroke="#231F20" stroke-width="1" points="10500 750 10456.2 711.941 10456 805.394 10502.8 809.431 10500 750"/></g><g transform="translate(32874.68306539999 1361.9426194) rotate(0)"><polygon fill="none" stroke="#231F20" stroke-width="1" points="1500 750 1430.5 776.152 1432.16 811.585 1504.6 809.078 1500 750"/></g><g transform="translate(19840.335193600004 8.51041609999993) rotate(0)"><polygon fill="none" stroke="#231F20" stroke-width="1" points="14250 1500 14184 1499.8 14184.5 1545.4 14247.9 1549.61 14250 1500"/></g><g transform="translate(28275.3288204 754.0499271000001) rotate(0)"><polygon fill="none" stroke="#231F20" stroke-width="1" points="6000 750 5945.87 751.873 5943.45 805.482 6002.83 810.604 6000 750"/></g><g transform="translate(34748.4554261 3667.39189) rotate(180)"><polygon fill="none" stroke="#231F20" stroke-width="1" points="750 1500 694.25 1499.31 639.662 1534.69 750.38 1534.73 750 1500"/></g><g transform="translate(49373.5453065 3552.786188999998) rotate(180)"><polygon fill="none" stroke="#231F20" stroke-width="1" points="15000 1500 14955.7 1499.87 14953.6 1549.48 15004.1 1552.83 15000 1500"/></g><g transform="translate(32675.852149 638.2437906999999) rotate(0)"><polygon fill="none" stroke="#231F20" stroke-width="1" points="1500 1500 1425.81 1499.08 1426.19 1533.81 1498.56 1533.83 1500 1500"/></g><g transform="translate(37369.8511269 3036.073822799999) rotate(180)"><polygon fill="none" stroke="#231F20" stroke-width="1" points="3000 1500 3093.25 1504.85 3090.64 1471.33 2998.66 1471.3 3000 1500"/></g><g transform="translate(31375.1118943 1367.4479656) rotate(0)"><polygon fill="none" stroke="#231F20" stroke-width="1" points="3000 750 3035.2 753.177 3038.08 685.458 2999.31 686.799 3000 750"/></g><g transform="translate(21665.791015299998 0.18488920000004327) rotate(0)"><polygon fill="none" stroke="#231F20" stroke-width="1" points="12750 1500 12688.6 1499.82 12688.6 1534.86 12752.5 1539.11 12750 1500"/></g><g transform="translate(22354.017191 0.20141289999992296) rotate(0)"><polygon fill="none" stroke="#231F20" stroke-width="1" points="12000 1500 11933.2 1499.8 11934.6 1530.71 11999.9 1535.05 12000 1500"/></g><g transform="translate(66182.282295 2254.9437422999963) rotate(180)"><polygon fill="none" stroke="#231F20" stroke-width="1" points="32250 750 32327.5 749.368 32326.4 732.377 32250 734.831 32250 750"/></g><g transform="translate(39674.9860526 2408.150223399999) rotate(180)"><polygon fill="none" stroke="#231F20" stroke-width="1" points="5250 750 5306.81 701.082 5252.43 696.391 5250 750"/></g><g transform="translate(45379.7963089 3022.5225982999987) rotate(180)"><polygon fill="none" stroke="#231F20" stroke-width="1" points="11250 1500 11274.6 1500.07 11291.3 1471.93 11248.5 1469.09 11250 1500"/></g><g transform="translate(33621.7470223 826.6065208) rotate(0)"><polygon fill="none" stroke="#231F20" stroke-width="1" points="750 750 802.469 712.695 748.343 714.567 750 750"/></g><g transform="translate(36655.24233179999 3620.1668454) rotate(180)"><polygon fill="none" stroke="#231F20" stroke-width="1" points="2250 1500 2275.87 1500.32 2277.31 1466.49 2247.39 1466.48 2250 1500"/></g><g transform="translate(34057.2224787 2250.9649699) rotate(180)"><polygon fill="none" stroke="#231F20" stroke-width="1" points="0 750 -83.976 730.864 -82.5655 748.972 0 750"/></g><g transform="translate(67278.7433791 2907.082292999996) rotate(180)"><polygon fill="none" stroke="#231F20" stroke-width="1" points="33000 750 33054.7 749.554 33054.7 734.385 32999.3 736.163 33000 750"/></g><g transform="translate(-398.1236226000037 1406.7786910999998) rotate(0)"><polygon fill="none" stroke="#231F20" stroke-width="1" points="34500 750 34444.4 763.189 34500.2 763.883 34500 750"/></g><g transform="translate(70034.8322587 2391.7773480999954) rotate(180)"><polygon fill="none" stroke="#231F20" stroke-width="1" points="36000 750 35976.4 748.581 35975.5 767.786 36001.4 768.108 36000 750"/></g><g transform="translate(38845.9618116 3187.711587399999) rotate(180)"><polygon fill="none" stroke="#231F20" stroke-width="1" points="4500 1500 4523.07 1467.91 4498.47 1467.84 4500 1500"/></g></g></svg>