<svg xmlns="http://www.w3.org/2000/svg" width="10.417697483333338in" height="11.459478421111111in" viewBox="0 0 750.0742188000004 825.08244632"><g transform="translate(-8250 -750)"><g transform="translate(5250.000021680944 0) rotate(0)"><polygon fill="none" stroke="#231F20" stroke-width="1" points="3000 750 3022.5 832.5 3052.5 997.5 3060 1035 3000 1020"/></g><g transform="translate(3026.3889106000006 0) rotate(0)"><polygon fill="none" stroke="#231F20" stroke-width="1" points="5250 750 5640 802.5 5550 900 5602.5 1042.5 5272.5 975 5257.5 787.5"/></g><g transform="translate(6777.2222439 285) rotate(0)"><polygon fill="none" stroke="#231F20" stroke-width="1" points="1500 750 1815 750 1777.5 975 1500 892.5"/></g><g transform="translate(1500.0000381999998 447.6704579) rotate(0)"><polygon fill="none" stroke="#231F20" stroke-width="1" points="6750 750 7080 817.5 6870 1027.5 6765 1027.5"/></g><g transform="translate(845.0955322000009 540.0749639000001) rotate(0)"><polygon fill="none" stroke="#231F20" stroke-width="1" points="7500 960 7710 750 7800 960"/></g><g transform="translate(4073.459745599999 225.07498970000006) rotate(0)"><polygon fill="none" stroke="#231F20" stroke-width="1" points="4672.5 750 4897.5 907.5 4897.5 1275 4642.5 1275 4552.5 1065 4500 922.5 4590 825"/></g><g transform="translate(6495.8526174 0) rotate(0)"><polygon fill="none" stroke="#231F20" stroke-width="1" points="2287.5 750 2475 750 2475 1132.5 2250 975"/></g></g></svg>