<svg xmlns="http://www.w3.org/2000/svg" width="5.991667005555556in" height="6.875000000000001in" viewBox="0 0 431.4000244 495.00000000000006"><g transform="translate(0 -750)"><g transform="translate(-2247.8373129589236 63.57464692833298) rotate(0)"><polygon fill="none" stroke="#231F20" stroke-width="1" points="2250 750 2249.63 725.925 2250.08 701.85 2261.33 700.5 2269.42 698.175 2281.73 694.65 2291.02 692.25 2301 689.925 2314.35 687.225 2324.1 698.85 2330.63 703.5 2340.83 708.525 2348.92 710.475 2361.08 710.55 2369.77 709.5 2380.27 707.7 2378.92 717 2378.1 726.225 2378.85 735.45 2380.2 744.75 2369.7 742.875 2361 741.825 2348.85 741.825 2340.75 743.775 2330.55 748.725 2323.95 753.375 2314.2 764.925 2300.85 762.15 2290.88 759.825 2281.58 757.35 2269.27 753.75 2261.17 751.425"/></g><g transform="translate(35274.1483751 1570.4631020999957) rotate(180)"><polygon fill="none" stroke="#231F20" stroke-width="1" points="35236.8 744.564 35227.2 738.675 35219.5 735.525 35211.8 734.4 35199.5 735.6 35190.8 737.325 35175.8 740.7 35172.8 728.1 35193 723.525 35210.2 719.7 35219 717.75 35228.4 711.75 35231.1 697.5 35231.1 685.35 35229.5 673.875 35210 663.225 35192.9 659.475 35172.7 654.975 35175.5 642.375 35190.5 645.675 35199.4 647.4 35211.6 648.525 35219.3 647.4 35227 644.175 35236.5 638.379 35250.5 632.331 35273.9 637.575 35270.3 653.25 35268.6 664.275 35268.1 680.85 35268.1 691.35 35268.1 701.85 35268.5 712.95 35269.3 723.15 35274.1 745.125 35251.2 750.603"/></g><g transform="translate(925.9498888 1603.4631021) rotate(180)"><polygon fill="none" stroke="#231F20" stroke-width="1" points="750 750 749.625 725.925 750.075 701.85 761.325 700.5 769.425 698.175 781.725 694.65 791.025 692.25 801 689.925 814.35 687.225 824.1 698.85 830.625 703.5 840.825 708.525 848.925 710.475 861.075 710.55 869.775 709.5 880.275 707.7 878.925 717 878.1 726.225 878.85 735.45 880.2 744.75 869.7 742.875 861 741.825 848.85 741.825 840.75 743.775 830.55 748.725 823.95 753.375 814.2 764.925 800.85 762.15 790.875 759.825 781.575 757.35 769.275 753.75 761.175 751.425"/></g><g transform="translate(-1367.0007286 90.62263670000004) rotate(0)"><polygon fill="none" stroke="#231F20" stroke-width="1" points="1500 750 1499.63 725.925 1500.07 701.85 1511.32 700.5 1519.43 698.175 1531.73 694.65 1541.02 692.25 1551 689.925 1564.35 687.225 1574.1 698.85 1580.63 703.5 1590.83 708.525 1598.92 710.475 1611.08 710.55 1619.77 709.5 1630.27 707.7 1628.92 717 1628.1 726.225 1628.85 735.45 1630.2 744.75 1619.7 742.875 1611 741.825 1598.85 741.825 1590.75 743.775 1580.55 748.725 1573.95 753.375 1564.2 764.925 1550.85 762.15 1540.88 759.825 1531.57 757.35 1519.27 753.75 1511.18 751.425"/></g><g transform="translate(24257.0126752 1633.570564299997) rotate(180)"><polygon fill="none" stroke="#231F20" stroke-width="1" points="24000 750 23999.7 740.775 23999.4 728.175 23998.7 715.95 23997 703.5 24008.9 703.575 24018.4 709.65 24026.4 712.425 24036.9 715.65 24048.5 718.8 24057.4 722.325 24068.5 727.35 24079.6 733.2 24078.4 742.5 24077.8 750.15 24079.6 766.8 24068.5 772.65 24057.4 777.675 24048.5 781.2 24036.9 784.35 24026.4 787.575 24018.4 790.35 24008.9 796.425 23997 796.5 23998.7 784.05 23999.4 771.825 23999.7 759.225"/></g><g transform="translate(-22240.5330244 96.07059479999998) rotate(0)"><polygon fill="none" stroke="#231F20" stroke-width="1" points="22500 749.458 22509.7 747.295 22523 751.722 22537.1 758.25 22546.2 762.9 22555.3 767.85 22564.1 771.75 22571.9 773.475 22580.3 772.95 22595.6 769.125 22594.5 779.55 22593.8 787.425 22594.5 795.45 22595.6 805.875 22580.3 802.05 22571.9 801.525 22564.1 803.25 22555.3 807.15 22546.2 812.1 22537.1 816.75 22523 823.278 22509.7 827.705 22500 825.542"/></g><g transform="translate(25092.8424371 1569.038353099997) rotate(180)"><polygon fill="none" stroke="#231F20" stroke-width="1" points="24750 750 24749.7 740.775 24749.4 728.175 24748.7 715.95 24747 703.5 24758.9 703.575 24768.5 709.65 24776.4 712.425 24786.9 715.65 24798.5 718.8 24807.5 722.325 24818.5 727.35 24829.6 733.2 24828.5 742.5 24827.8 750.15 24829.6 766.8 24818.5 772.65 24807.5 777.675 24798.5 781.2 24786.9 784.35 24776.4 787.575 24768.5 790.35 24758.9 796.425 24747 796.5 24748.7 784.05 24749.4 771.825 24749.7 759.225"/></g><g transform="translate(-20852.2784413 158.8828489) rotate(0)"><polygon fill="none" stroke="#231F20" stroke-width="1" points="21000 749.458 21009.7 747.295 21023 751.722 21037.1 758.25 21046.2 762.9 21055.3 767.85 21064.1 771.75 21071.9 773.475 21080.3 772.95 21095.6 769.125 21094.5 779.55 21093.8 787.425 21094.5 795.45 21095.6 805.875 21080.3 802.05 21071.9 801.525 21064.1 803.25 21055.3 807.15 21046.2 812.1 21037.1 816.75 21023 823.278 21009.7 827.705 21000 825.542"/></g><g transform="translate(-34376.2003163 285.0710531) rotate(0)"><polygon fill="none" stroke="#231F20" stroke-width="1" points="34486.8 744.564 34477.2 738.675 34469.5 735.525 34461.8 734.4 34449.5 735.6 34440.8 737.325 34425.8 740.7 34422.8 728.1 34443 723.525 34460.2 719.7 34469 717.75 34478.4 711.75 34481.1 697.5 34481.1 685.35 34479.5 673.875 34460 663.225 34442.9 659.475 34422.7 654.975 34425.5 642.375 34440.5 645.675 34449.4 647.4 34461.6 648.525 34469.3 647.4 34477 644.175 34486.5 638.379 34500.5 632.331 34523.9 637.575 34520.3 653.25 34518.6 664.275 34518.1 680.85 34518.1 691.35 34518.1 701.85 34518.5 712.95 34519.3 723.15 34524.1 745.125 34501.2 750.603"/></g><g transform="translate(22088.9715587 1735.0005155999975) rotate(180)"><polygon fill="none" stroke="#231F20" stroke-width="1" points="21750 749.458 21759.7 747.295 21773 751.722 21787.1 758.25 21796.2 762.9 21805.3 767.85 21814.1 771.75 21821.9 773.475 21830.3 772.95 21845.6 769.125 21844.5 779.55 21843.8 787.425 21844.5 795.45 21845.6 805.875 21830.3 802.05 21821.9 801.525 21814.1 803.25 21805.3 807.15 21796.2 812.1 21787.1 816.75 21773 823.278 21759.7 827.705 21750 825.542"/></g><g transform="translate(36024.1484329 1696.9851677999955) rotate(180)"><polygon fill="none" stroke="#231F20" stroke-width="1" points="35986.8 744.564 35977.2 738.675 35969.5 735.525 35961.8 734.4 35949.5 735.6 35940.8 737.325 35925.8 740.7 35922.8 728.1 35943 723.525 35960.2 719.7 35969 717.75 35978.4 711.75 35981.1 697.5 35981.1 685.35 35979.5 673.875 35960 663.225 35942.9 659.475 35922.7 654.975 35925.5 642.375 35940.5 645.675 35949.4 647.4 35961.6 648.525 35969.3 647.4 35977 644.175 35986.5 638.379 36000.5 632.331 36023.9 637.575 36020.3 653.25 36018.6 664.275 36018.1 680.85 36018.1 691.35 36018.1 701.85 36018.5 712.95 36019.3 723.15 36024.1 745.125 36001.2 750.603"/></g><g transform="translate(23479.4755249 1759.262449999997) rotate(180)"><polygon fill="none" stroke="#231F20" stroke-width="1" points="23250 750 23249.7 740.775 23249.4 728.175 23248.7 715.95 23247 703.5 23258.9 703.575 23268.4 709.65 23276.4 712.425 23286.9 715.65 23298.5 718.8 23307.4 722.325 23318.5 727.35 23329.6 733.2 23328.4 742.5 23327.8 750.15 23329.6 766.8 23318.5 772.65 23307.4 777.675 23298.5 781.2 23286.9 784.35 23276.4 787.575 23268.4 790.35 23258.9 796.425 23247 796.5 23248.7 784.05 23249.4 771.825 23249.7 759.225"/></g><g transform="translate(-8135.2500046000005 337.8351434000001) rotate(0)"><polygon fill="none" stroke="#231F20" stroke-width="1" points="8238.07 736.125 8225.4 732.9 8214.45 730.35 8197.89 726.932 8189.5 723.039 8210.1 721.2 8219.4 720 8233.88 716.775 8244.22 712.425 8259.75 703.5 8269.8 705.825 8285.84 709.211 8298.94 713.622 8307.45 717.675 8316.97 722.85 8333.63 730.65 8334.38 740.175 8334.97 749.475 8320.5 751.725 8309.4 753.375 8301 754.425 8289.3 755.25 8276.81 755.25 8263.57 753.3 8250.07 750.314"/></g><g transform="translate(9835.7415136 1821.8256229999988) rotate(180)"><polygon fill="none" stroke="#231F20" stroke-width="1" points="9738.07 736.125 9725.4 732.9 9714.45 730.35 9697.89 726.932 9689.5 723.039 9710.1 721.2 9719.4 720 9733.88 716.775 9744.22 712.425 9759.75 703.5 9769.8 705.825 9785.84 709.211 9798.94 713.622 9807.45 717.675 9816.97 722.85 9833.63 730.65 9834.38 740.175 9834.97 749.475 9820.5 751.725 9809.4 753.375 9801 754.425 9789.3 755.25 9776.81 755.25 9763.57 753.3 9750.07 750.314"/></g><g transform="translate(9316.861975400001 1733.8699962999988) rotate(180)"><polygon fill="none" stroke="#231F20" stroke-width="1" points="8988.07 736.125 8975.4 732.9 8964.45 730.35 8947.89 726.932 8939.5 723.039 8960.1 721.2 8969.4 720 8983.88 716.775 8994.22 712.425 9009.75 703.5 9019.8 705.825 9035.84 709.211 9048.94 713.622 9057.45 717.675 9066.97 722.85 9083.63 730.65 9084.38 740.175 9084.97 749.475 9070.5 751.725 9059.4 753.375 9051 754.425 9039.3 755.25 9026.81 755.25 9013.57 753.3 9000.07 750.314"/></g><g transform="translate(11566.8226784 1784.2532767999987) rotate(180)"><polygon fill="none" stroke="#231F20" stroke-width="1" points="11238.1 736.125 11225.4 732.9 11214.4 730.35 11197.9 726.932 11189.5 723.039 11210.1 721.2 11219.4 720 11233.9 716.775 11244.2 712.425 11259.8 703.5 11269.8 705.825 11285.8 709.211 11298.9 713.622 11307.4 717.675 11317 722.85 11333.6 730.65 11334.4 740.175 11335 749.475 11320.5 751.725 11309.4 753.375 11301 754.425 11289.3 755.25 11276.8 755.25 11263.6 753.3 11250.1 750.314"/></g><g transform="translate(-10283.3834697 371.1638567) rotate(0)"><polygon fill="none" stroke="#231F20" stroke-width="1" points="10488.1 736.125 10475.4 732.9 10464.4 730.35 10447.9 726.932 10439.5 723.039 10460.1 721.2 10469.4 720 10483.9 716.775 10494.2 712.425 10509.8 703.5 10519.8 705.825 10535.8 709.211 10548.9 713.622 10557.4 717.675 10567 722.85 10583.6 730.65 10584.4 740.175 10585 749.475 10570.5 751.725 10559.4 753.375 10551 754.425 10539.3 755.25 10526.8 755.25 10513.6 753.3 10500.1 750.314"/></g><g transform="translate(-7361.1527567 394.07690350000007) rotate(0)"><polygon fill="none" stroke="#231F20" stroke-width="1" points="7488.07 736.125 7475.4 732.9 7464.45 730.35 7447.89 726.932 7439.5 723.039 7460.1 721.2 7469.4 720 7483.88 716.775 7494.22 712.425 7509.75 703.5 7519.8 705.825 7535.84 709.211 7548.94 713.622 7557.45 717.675 7566.97 722.85 7583.63 730.65 7584.38 740.175 7584.97 749.475 7570.5 751.725 7559.4 753.375 7551 754.425 7539.3 755.25 7526.81 755.25 7513.57 753.3 7500.07 750.314"/></g><g transform="translate(18794.6699659 1861.8995649999977) rotate(180)"><polygon fill="none" stroke="#231F20" stroke-width="1" points="18750 750 18752.5 739.281 18755.8 729.9 18756.7 720.9 18688.1 717.075 18688.2 705.15 18752.9 704.475 18762.7 701.25 18765.7 690 18768.8 679.5 18777.8 680.7 18776.6 695.55 18776.1 704.25 18776.3 719.1 18777 730.2 18778.6 742.95 18786.7 767.408 18776.4 754.05 18766.3 750"/></g><g transform="translate(16830.6774864 1845.2589840999979) rotate(180)"><polygon fill="none" stroke="#231F20" stroke-width="1" points="16500 750 16502.5 739.281 16505.8 729.9 16506.7 720.9 16438.1 717.075 16438.2 705.15 16502.9 704.475 16512.7 701.25 16515.7 690 16518.8 679.5 16527.8 680.7 16526.6 695.55 16526.1 704.25 16526.3 719.1 16527 730.2 16528.6 742.95 16536.7 767.408 16526.4 754.05 16516.3 750"/></g><g transform="translate(-27369.634682 370.5835996999999) rotate(0)"><polygon fill="none" stroke="#231F20" stroke-width="1" points="27744.3 743.625 27736.6 735 27729.8 727.05 27719.1 721.95 27678.1 721.275 27678.5 709.275 27722.5 708 27729.8 700.575 27743.3 696.9 27749.7 709.575 27753 716.775 27757 726.6 27760.5 735.726 27764.2 746.85 27750.3 750.38"/></g><g transform="translate(-28109.4340786 314.9871175999999) rotate(0)"><polygon fill="none" stroke="#231F20" stroke-width="1" points="28494.3 743.625 28486.6 735 28479.8 727.05 28469.1 721.95 28428.1 721.275 28428.5 709.275 28472.5 708 28479.8 700.575 28493.3 696.9 28499.7 709.575 28503 716.775 28507 726.6 28510.5 735.726 28514.2 746.85 28500.3 750.38"/></g><g transform="translate(25617.5208302 1878.385767299997) rotate(180)"><polygon fill="none" stroke="#231F20" stroke-width="1" points="25494.3 743.625 25486.6 735 25479.8 727.05 25469.1 721.95 25428.1 721.275 25428.5 709.275 25472.5 708 25479.8 700.575 25493.3 696.9 25499.7 709.575 25503 716.775 25507 726.6 25510.5 735.726 25514.2 746.85 25500.3 750.38"/></g><g transform="translate(-28956.0920015 435.18752760000007) rotate(0)"><polygon fill="none" stroke="#231F20" stroke-width="1" points="29244.3 743.625 29236.6 735 29229.8 727.05 29219.1 721.95 29178.1 721.275 29178.5 709.275 29222.5 708 29229.8 700.575 29243.3 696.9 29249.7 709.575 29253 716.775 29257 726.6 29260.5 735.726 29264.2 746.85 29250.3 750.38"/></g><g transform="translate(6381.2449932 1892.4637104999993) rotate(180)"><polygon fill="none" stroke="#231F20" stroke-width="1" points="6000 750 6000.6 738.9 6002.02 727.523 6005.13 715.318 6013.42 716.325 6021.6 716.55 6030.08 715.275 6041.1 712.725 6057.3 709.083 6060.38 723.75 6066.53 735.3 6056.63 736.8 6049.13 738.375 6039.22 740.925 6020.4 746.1 6008.81 749.109"/></g><g transform="translate(4783.8106606 1507.6450743999994) rotate(180)"><polygon fill="none" stroke="#231F20" stroke-width="1" points="4500 750 4500.6 738.9 4502.02 727.523 4505.13 715.318 4513.42 716.325 4521.6 716.55 4530.08 715.275 4541.1 712.725 4557.3 709.083 4560.38 723.75 4566.53 735.3 4556.63 736.8 4549.13 738.375 4539.22 740.925 4520.4 746.1 4508.81 749.109"/></g><g transform="translate(-26594.9081615 277.47359789999996) rotate(0)"><polygon fill="none" stroke="#231F20" stroke-width="1" points="26994.3 743.625 26986.6 735 26979.8 727.05 26969.1 721.95 26928.1 721.275 26928.5 709.275 26972.5 708 26979.8 700.575 26993.3 696.9 26999.7 709.575 27003 716.775 27007 726.6 27010.5 735.726 27014.2 746.85 27000.3 750.38"/></g><g transform="translate(-4909.453879 234.73904000000005) rotate(0)"><polygon fill="none" stroke="#231F20" stroke-width="1" points="5250 750 5250.6 738.9 5252.02 727.523 5255.13 715.318 5263.42 716.325 5271.6 716.55 5280.08 715.275 5291.1 712.725 5307.3 709.083 5310.38 723.75 5316.53 735.3 5306.63 736.8 5299.13 738.375 5289.22 740.925 5270.4 746.1 5258.81 749.109"/></g><g transform="translate(26463.0676767 1896.7548231999967) rotate(180)"><polygon fill="none" stroke="#231F20" stroke-width="1" points="26244.3 743.625 26236.6 735 26229.8 727.05 26219.1 721.95 26178.1 721.275 26178.5 709.275 26222.5 708 26229.8 700.575 26243.3 696.9 26249.7 709.575 26253 716.775 26257 726.6 26260.5 735.726 26264.2 746.85 26250.3 750.38"/></g><g transform="translate(3859.8753601 1907.3610145999996) rotate(180)"><polygon fill="none" stroke="#231F20" stroke-width="1" points="3750 750 3750.6 738.9 3752.02 727.523 3755.13 715.318 3763.42 716.325 3771.6 716.55 3780.08 715.275 3791.1 712.725 3807.3 709.083 3810.38 723.75 3816.53 735.3 3806.63 736.8 3799.13 738.375 3789.22 740.925 3770.4 746.1 3758.81 749.109"/></g><g transform="translate(-2659.2978816 197.99269460000005) rotate(0)"><polygon fill="none" stroke="#231F20" stroke-width="1" points="3000 750 3000.6 738.9 3002.02 727.523 3005.13 715.318 3013.42 716.325 3021.6 716.55 3030.08 715.275 3041.1 712.725 3057.3 709.083 3060.38 723.75 3066.52 735.3 3056.63 736.8 3049.13 738.375 3039.23 740.925 3020.4 746.1 3008.81 749.109"/></g><g transform="translate(12181.749749600001 1505.1541728999987) rotate(180)"><polygon fill="none" stroke="#231F20" stroke-width="1" points="12000 750 12000.6 737.1 12023.2 737.55 12036.3 737.625 12046.2 737.475 12053.8 737.1 12065.7 735.45 12077.3 731.4 12101.4 741.668 12090.7 745.725 12078.7 749.488 12068.2 751.2 12058.9 751.95 12050.1 752.175 12038.3 751.95 12016 751.05"/></g><g transform="translate(-6394.8366953 161.2979484) rotate(0)"><polygon fill="none" stroke="#231F20" stroke-width="1" points="6750 750 6750.6 738.9 6752.02 727.523 6755.13 715.318 6763.43 716.325 6771.6 716.55 6780.07 715.275 6791.1 712.725 6807.3 709.083 6810.38 723.75 6816.53 735.3 6806.63 736.8 6799.13 738.375 6789.22 740.925 6770.4 746.1 6758.81 749.109"/></g><g transform="translate(-13392.8402074 444.3857673) rotate(0)"><polygon fill="none" stroke="#231F20" stroke-width="1" points="13500 750 13500.6 737.1 13523.2 737.55 13536.3 737.625 13546.2 737.475 13553.9 737.1 13565.7 735.45 13577.3 731.4 13601.4 741.668 13590.7 745.725 13578.7 749.488 13568.2 751.2 13558.9 751.95 13550.1 752.175 13538.3 751.95 13516 751.05"/></g><g transform="translate(14637.5776728 1507.4954219999981) rotate(180)"><polygon fill="none" stroke="#231F20" stroke-width="1" points="14250 750 14250.6 737.1 14273.2 737.55 14286.3 737.625 14296.2 737.475 14303.9 737.1 14315.7 735.45 14327.3 731.4 14351.4 741.668 14340.7 745.725 14328.7 749.488 14318.2 751.2 14308.9 751.95 14300.1 752.175 14288.3 751.95 14266 751.05"/></g><g transform="translate(30354.6312735 1545.4169468999964) rotate(180)"><polygon fill="none" stroke="#231F20" stroke-width="1" points="29989.8 743.966 29982.1 734.77 29981.9 722.48 29985.2 713.559 29991.4 703.079 29997.5 708.372 30004.4 716.625 30008.9 727.1 30008.2 738.669 30000.5 751.004"/></g><g transform="translate(-14688.593658900001 446.2808491999999) rotate(0)"><polygon fill="none" stroke="#231F20" stroke-width="1" points="15000 750 15000.6 737.1 15023.2 737.55 15036.3 737.625 15046.2 737.475 15053.9 737.1 15065.7 735.45 15077.3 731.4 15101.4 741.668 15090.7 745.725 15078.7 749.488 15068.2 751.2 15058.9 751.95 15050.1 752.175 15038.3 751.95 15016 751.05"/></g><g transform="translate(-32617.337316799996 123.22035000000005) rotate(0)"><polygon fill="none" stroke="#231F20" stroke-width="1" points="32989.8 743.966 32982.1 734.77 32981.9 722.48 32985.2 713.559 32991.4 703.079 32997.5 708.372 33004.4 716.625 33008.9 727.1 33008.2 738.669 33000.5 751.004"/></g><g transform="translate(-30344.396093 431.5125823999999) rotate(0)"><polygon fill="none" stroke="#231F20" stroke-width="1" points="30739.8 743.966 30732.1 734.77 30731.9 722.48 30735.2 713.559 30741.4 703.079 30747.5 708.372 30754.4 716.625 30758.9 727.1 30758.2 738.669 30750.5 751.004"/></g><g transform="translate(-33339.821072499995 366.06642109999996) rotate(0)"><polygon fill="none" stroke="#231F20" stroke-width="1" points="33739.8 743.966 33732.1 734.77 33731.9 722.48 33735.2 713.559 33741.4 703.079 33747.5 708.372 33754.4 716.625 33758.9 727.1 33758.2 738.669 33750.5 751.004"/></g><g transform="translate(32627.2036062 1523.609535099996) rotate(180)"><polygon fill="none" stroke="#231F20" stroke-width="1" points="32239.8 743.966 32232.1 734.77 32231.9 722.48 32235.2 713.559 32241.4 703.079 32247.5 708.372 32254.4 716.625 32258.9 727.1 32258.2 738.669 32250.5 751.004"/></g><g transform="translate(31895.637589500002 1561.6767220999961) rotate(180)"><polygon fill="none" stroke="#231F20" stroke-width="1" points="31489.8 743.966 31482.1 734.77 31481.9 722.48 31485.2 713.559 31491.4 703.079 31497.5 708.372 31504.4 716.625 31508.9 727.1 31508.2 738.669 31500.5 751.004"/></g></g></svg>