<svg xmlns="http://www.w3.org/2000/svg" width="5.104166666666667in" height="11.458333333333336in" viewBox="0 0 367.5 825.0000000000001"><g transform="translate(-18750 -750)"><g transform="translate(22663.72481569917 1624.4998585138258) rotate(180)"><polygon fill="none" stroke="#231F20" stroke-width="1" points="3750 762.975 3882.08 750 3913.72 798.75 3913.72 825.75 3882.08 874.5 3750 861.525"/></g><g transform="translate(18000.0000411 1846.9578787) rotate(270)"><polygon fill="none" stroke="#231F20" stroke-width="1" points="750 756.45 822.45 760.65 898.725 750 913.875 767.85 955.05 766.275 975 807.525 961.425 817.5 961.425 852 975 861.975 955.05 903.225 913.875 901.65 898.725 919.5 822.45 908.85 750 913.05"/></g><g transform="translate(35450.6991727 1949.407829899998) rotate(180)"><polygon fill="none" stroke="#231F20" stroke-width="1" points="16504.2 755.475 16579.9 760.725 16641.8 750 16663.9 771.6 16693 768.075 16700.7 819.45 16694.6 852.45 16500 852.45"/></g><g transform="translate(3000.0000519999994 440.1434505000001) rotate(0)"><polygon fill="none" stroke="#231F20" stroke-width="1" points="15754.2 755.475 15829.9 760.725 15891.8 750 15913.9 771.6 15943 768.075 15950.7 819.45 15944.6 852.45 15750 852.45"/></g><g transform="translate(17999.9999582 7456.3180111) rotate(270)"><polygon fill="none" stroke="#231F20" stroke-width="1" points="6000 762.975 6132.08 750 6163.72 798.75 6163.72 825.75 6132.08 874.5 6000 861.525"/></g><g transform="translate(17374.4999582 536.1434505000001) rotate(0)"><polygon fill="none" stroke="#231F20" stroke-width="1" points="1500 756.45 1572.45 760.65 1648.73 750 1663.88 767.85 1705.05 766.275 1725 807.525 1711.42 817.5 1711.42 852 1725 861.975 1705.05 903.225 1663.88 901.65 1648.73 919.5 1572.45 908.85 1500 913.05"/></g><g transform="translate(14450.6992708 417.49357080000004) rotate(0)"><polygon fill="none" stroke="#231F20" stroke-width="1" points="4500 762.975 4632.08 750 4663.72 798.75 4663.72 825.75 4632.08 874.5 4500 861.525"/></g><g transform="translate(18200.699172700006 18422.1796145) rotate(270)"><polygon fill="none" stroke="#231F20" stroke-width="1" points="17250 750 17437.4 750 17452.9 779.025 17446.6 820.05 17411.1 822.525 17394 836.4 17329.6 829.425 17250 834.375"/></g><g transform="translate(18163.7248157 6219.3046145) rotate(270)"><polygon fill="none" stroke="#231F20" stroke-width="1" points="5250 762.975 5382.08 750 5413.72 798.75 5413.72 825.75 5382.08 874.5 5250 861.525"/></g><g transform="translate(19867.499945699998 -17035.7085093) rotate(90)"><polygon fill="none" stroke="#231F20" stroke-width="1" points="18000 750 18187.4 750 18202.9 779.025 18196.6 820.05 18161.1 822.525 18144 836.4 18079.6 829.425 18000 834.375"/></g><g transform="translate(4780.597772599998 164.86644190000004) rotate(0)"><polygon fill="none" stroke="#231F20" stroke-width="1" points="14250 750 14320.2 750 14320.2 799.425 14250 799.425"/></g><g transform="translate(16499.9999877 706.3180110999999) rotate(0)"><polygon fill="none" stroke="#231F20" stroke-width="1" points="2250 750 2477.55 750 2477.55 769.575 2250 769.575"/></g><g transform="translate(21977.5497167 2245.4679134999997) rotate(180)"><polygon fill="none" stroke="#231F20" stroke-width="1" points="3000 750 3227.55 750 3227.55 769.575 3000 769.575"/></g><g transform="translate(19836.9191764 -12655.3327769) rotate(90)"><polygon fill="none" stroke="#231F20" stroke-width="1" points="13500 750 13570.2 750 13570.2 799.425 13500 799.425"/></g><g transform="translate(18165.489287300003 13096.9578787) rotate(270)"><polygon fill="none" stroke="#231F20" stroke-width="1" points="12000 750 12030.8 754.875 12060 750 12089.2 754.875 12120 750 12112.5 777.6 12060 771.45 12007.5 777.6"/></g><g transform="translate(19864.519213 -8951.4046985) rotate(90)"><polygon fill="none" stroke="#231F20" stroke-width="1" points="9750 750 9780.82 754.875 9810 750 9839.18 754.875 9870 750 9862.5 777.6 9810 771.45 9757.5 777.6"/></g><g transform="translate(4016.7199575999985 23.84301329999994) rotate(0)"><polygon fill="none" stroke="#231F20" stroke-width="1" points="15000 750 15070.2 750 15070.2 799.425 15000 799.425"/></g><g transform="translate(31733.9240345 1555.5800050999983) rotate(180)"><polygon fill="none" stroke="#231F20" stroke-width="1" points="12750 750 12820.2 750 12820.2 799.425 12750 799.425"/></g><g transform="translate(7726.752284300001 703.3831772) rotate(0)"><polygon fill="none" stroke="#231F20" stroke-width="1" points="11250 750 11280.8 754.875 11310 750 11339.2 754.875 11370 750 11362.5 777.6 11310 771.45 11257.5 777.6"/></g><g transform="translate(11483.9240345 0.9680133000000524) rotate(0)"><polygon fill="none" stroke="#231F20" stroke-width="1" points="7505.55 750 7565.25 758.925 7624.95 750 7630.5 759.375 7565.25 772.875 7500 759.375"/></g><g transform="translate(19867.2002816 -5496.5925229) rotate(90)"><polygon fill="none" stroke="#231F20" stroke-width="1" points="6755.55 750 6815.25 758.925 6874.95 750 6880.5 759.375 6815.25 772.875 6750 759.375"/></g></g></svg>