<svg xmlns="http://www.w3.org/2000/svg" width="9.375in" height="10.312500000000002in" viewBox="0 0 675 742.5000000000001"><g transform="translate(-27750 -750)"><g transform="translate(5999.999980709672 0) rotate(0)"><polygon fill="none" stroke="#231F20" stroke-width="1" points="21853 853.02 21853 750 21750 750 21750 853.02"/></g><g transform="translate(9853.021465099999 0) rotate(0)"><polygon fill="none" stroke="#231F20" stroke-width="1" points="18103 853.02 18103 750 18000 750 18000 853.02"/></g><g transform="translate(3956.042949499999 0) rotate(0)"><polygon fill="none" stroke="#231F20" stroke-width="1" points="24103 853.02 24103 750 24000 750 24000 853.02"/></g><g transform="translate(7809.064433899999 0) rotate(0)"><polygon fill="none" stroke="#231F20" stroke-width="1" points="20353 853.02 20353 750 20250 750 20250 853.02"/></g><g transform="translate(12412.0859183 0) rotate(0)"><polygon fill="none" stroke="#231F20" stroke-width="1" points="15853 853.02 15853 750 15750 750 15750 853.02"/></g><g transform="translate(11015.1074027 0) rotate(0)"><polygon fill="none" stroke="#231F20" stroke-width="1" points="17353 853.02 17353 750 17250 750 17250 853.02"/></g><g transform="translate(13500.000003599998 103.02044680000006) rotate(0)"><polygon fill="none" stroke="#231F20" stroke-width="1" points="14353 853.02 14353 750 14250 750 14250 853.02"/></g><g transform="translate(6853.0214879999985 103.02044680000006) rotate(0)"><polygon fill="none" stroke="#231F20" stroke-width="1" points="21103 853.02 21103 750 21000 750 21000 853.02"/></g><g transform="translate(12956.042972399999 103.02044680000006) rotate(0)"><polygon fill="none" stroke="#231F20" stroke-width="1" points="15103 853.02 15103 750 15000 750 15000 853.02"/></g><g transform="translate(15309.064456799999 103.02044680000006) rotate(0)"><polygon fill="none" stroke="#231F20" stroke-width="1" points="12853 853.02 12853 750 12750 750 12750 853.02"/></g><g transform="translate(8662.085941199999 103.02044680000006) rotate(0)"><polygon fill="none" stroke="#231F20" stroke-width="1" points="19603 853.02 19603 750 19500 750 19500 853.02"/></g><g transform="translate(14765.1074256 103.02044680000006) rotate(0)"><polygon fill="none" stroke="#231F20" stroke-width="1" points="13603 853.02 13603 750 13500 750 13500 853.02"/></g><g transform="translate(5250.000101500002 206.04089360000012) rotate(0)"><polygon fill="none" stroke="#231F20" stroke-width="1" points="22603 853.02 22603 750 22500 750 22500 853.02"/></g><g transform="translate(11353.021585899998 206.04089360000012) rotate(0)"><polygon fill="none" stroke="#231F20" stroke-width="1" points="16603 853.02 16603 750 16500 750 16500 853.02"/></g><g transform="translate(15956.043070299998 206.04089360000012) rotate(0)"><polygon fill="none" stroke="#231F20" stroke-width="1" points="12103 853.02 12103 750 12000 750 12000 853.02"/></g><g transform="translate(4809.063578099998 206.04089360000012) rotate(0)"><polygon fill="none" stroke="#231F20" stroke-width="1" points="23353 853.02 23353 750 23250 750 23250 853.02"/></g><g transform="translate(22912.0850625 206.04089360000012) rotate(0)"><polygon fill="none" stroke="#231F20" stroke-width="1" points="5353.02 853.02 5353.02 750 5250 750 5250 853.02"/></g><g transform="translate(17765.1055703 206.04089360000012) rotate(0)"><polygon fill="none" stroke="#231F20" stroke-width="1" points="10603 853.02 10603 750 10500 750 10500 853.02"/></g><g transform="translate(9000.0001963 309.06134040000006) rotate(0)"><polygon fill="none" stroke="#231F20" stroke-width="1" points="18853 853.02 18853 750 18750 750 18750 853.02"/></g><g transform="translate(21853.0216807 309.06134040000006) rotate(0)"><polygon fill="none" stroke="#231F20" stroke-width="1" points="6103.02 853.02 6103.02 750 6000 750 6000 853.02"/></g><g transform="translate(18956.0421885 309.06134040000006) rotate(0)"><polygon fill="none" stroke="#231F20" stroke-width="1" points="9103.02 853.02 9103.02 750 9000 750 9000 853.02"/></g><g transform="translate(20559.0626963 309.06134040000006) rotate(0)"><polygon fill="none" stroke="#231F20" stroke-width="1" points="7603.02 853.02 7603.02 750 7500 750 7500 853.02"/></g><g transform="translate(25912.0832041 309.06134040000006) rotate(0)"><polygon fill="none" stroke="#231F20" stroke-width="1" points="2353.02 853.02 2353.02 750 2250 750 2250 853.02"/></g><g transform="translate(23765.1037119 309.06134040000006) rotate(0)"><polygon fill="none" stroke="#231F20" stroke-width="1" points="4603.02 853.02 4603.02 750 4500 750 4500 853.02"/></g><g transform="translate(17999.9999254 412.0817872) rotate(0)"><polygon fill="none" stroke="#231F20" stroke-width="1" points="9853.02 853.02 9853.02 750 9750 750 9750 853.02"/></g><g transform="translate(26353.0204332 412.0817872) rotate(0)"><polygon fill="none" stroke="#231F20" stroke-width="1" points="1603.02 853.02 1603.02 750 1500 750 1500 853.02"/></g><g transform="translate(21206.040941 412.0817872) rotate(0)"><polygon fill="none" stroke="#231F20" stroke-width="1" points="6853.02 853.02 6853.02 750 6750 750 6750 853.02"/></g><g transform="translate(16809.0614488 412.0817872) rotate(0)"><polygon fill="none" stroke="#231F20" stroke-width="1" points="11353 853.02 11353 750 11250 750 11250 853.02"/></g><g transform="translate(1912.081956599999 412.0817872) rotate(0)"><polygon fill="none" stroke="#231F20" stroke-width="1" points="26353 853.02 26353 750 26250 750 26250 853.02"/></g><g transform="translate(20015.1014879 412.0817872) rotate(0)"><polygon fill="none" stroke="#231F20" stroke-width="1" points="8353.02 853.02 8353.02 750 8250 750 8250 853.02"/></g><g transform="translate(23999.9999069 515.102234) rotate(0)"><polygon fill="none" stroke="#231F20" stroke-width="1" points="3853.02 853.02 3853.02 750 3750 750 3750 853.02"/></g><g transform="translate(24853.0201706 515.102234) rotate(0)"><polygon fill="none" stroke="#231F20" stroke-width="1" points="3103.02 853.02 3103.02 750 3000 750 3000 853.02"/></g><g transform="translate(27206.040434299997 515.102234) rotate(0)"><polygon fill="none" stroke="#231F20" stroke-width="1" points="853.02 853.02 853.02 750 750 750 750 853.02"/></g><g transform="translate(2559.0608810999984 515.102234) rotate(0)"><polygon fill="none" stroke="#231F20" stroke-width="1" points="25603 853.02 25603 750 25500 750 25500 853.02"/></g><g transform="translate(1162.0804123999987 515.102234) rotate(0)"><polygon fill="none" stroke="#231F20" stroke-width="1" points="27103 853.02 27103 750 27000 750 27000 853.02"/></g><g transform="translate(3515.099943699999 515.102234) rotate(0)"><polygon fill="none" stroke="#231F20" stroke-width="1" points="24853 853.02 24853 750 24750 750 24750 853.02"/></g></g></svg>