<svg xmlns="http://www.w3.org/2000/svg" width="9.375in" height="10.312500000000002in" viewBox="0 0 675 742.5000000000001"><g transform="translate(-27750 -5250)"><g transform="translate(-7468.234437272353 1536.6670653973833) rotate(0)"><polygon fill="none" stroke="#231F20" stroke-width="1" points="35278.3 3766.83 35269.1 3784.2 35229.3 3757.41 35218.2 3736.61 35237 3713.33 35273.2 3717.51"/></g><g transform="translate(47283.4296234 10595.974919099997) rotate(180)"><polygon fill="none" stroke="#231F20" stroke-width="1" points="19527.2 5252.97 19502.2 5288.36 19479.6 5263.26 19475.3 5238.25 19489 5211.01 19533.4 5232.07"/></g><g transform="translate(14264.297002300002 913.8344964999997) rotate(0)"><polygon fill="none" stroke="#231F20" stroke-width="1" points="13536 4513.83 13517.5 4535.42 13485.7 4522.05 13493.7 4496.85 13499.6 4458.95 13526.8 4469.53"/></g><g transform="translate(30779.9153846 6974.403876599999) rotate(180)"><polygon fill="none" stroke="#231F20" stroke-width="1" points="3025.86 1521.09 3004.22 1527.72 2968.35 1507.12 2973.87 1487.8 2988.68 1470.08 3029.92 1478.18"/></g><g transform="translate(28536.1077784 1022.6193705999995) rotate(90)"><polygon fill="none" stroke="#231F20" stroke-width="1" points="4525.1 781.083 4487.86 786.108 4479.44 774.745 4483.32 723.667 4494.79 711.043 4523.25 739.476"/></g><g transform="translate(38290.5897575 8572.779883399999) rotate(180)"><polygon fill="none" stroke="#231F20" stroke-width="1" points="10531.9 3022.47 10492.5 3026.55 10481.9 3026.9 10464.6 2993.75 10488.3 2977.4 10540.6 2998.44"/></g><g transform="translate(63039.2654167 10112.649202199995) rotate(180)"><polygon fill="none" stroke="#231F20" stroke-width="1" points="35276.4 4527.79 35247.2 4521.4 35213.3 4503.67 35223.9 4487.08 35244.4 4475.74 35289.3 4487.43"/></g><g transform="translate(4544.8137069 400.0713201999997) rotate(0)"><polygon fill="none" stroke="#231F20" stroke-width="1" points="23284.8 5261.27 23260 5289.4 23223.6 5273.01 23225.7 5230.49 23254.3 5241.74 23266.1 5227.94"/></g><g transform="translate(41276.822154199996 8710.205454799998) rotate(180)"><polygon fill="none" stroke="#231F20" stroke-width="1" points="13525.3 3022.05 13493.2 3030.25 13467.8 3016.16 13471.3 2991.7 13495.2 2978.65 13526.8 2976.32"/></g><g transform="translate(12781.769448 2747.2298666999995) rotate(0)"><polygon fill="none" stroke="#231F20" stroke-width="1" points="15032.4 3013.25 15011 3035.26 14970.1 3016.14 14968.2 2986.66 15004.1 2989.66 15040.9 2994.77"/></g><g transform="translate(32286.6727374 5055.3623993) rotate(90)"><polygon fill="none" stroke="#231F20" stroke-width="1" points="770.129 4501.81 751.404 4536.67 725.416 4523.29 727.445 4488.36 735.382 4461.72 780.941 4497.31"/></g><g transform="translate(30078.6374728 9949.4337299) rotate(180)"><polygon fill="none" stroke="#231F20" stroke-width="1" points="2277.17 4524.53 2230.86 4535.27 2245.77 4502.25 2231.45 4470.3 2241.36 4463.18 2288.63 4498.06"/></g><g transform="translate(54823.0936803 9879.401624499997) rotate(180)"><polygon fill="none" stroke="#231F20" stroke-width="1" points="27013.9 4500.68 27015.4 4530.13 26980.3 4519.84 26975.9 4475.26 26981.8 4463.74 27027.8 4478.31"/></g><g transform="translate(47334.8304181 6036.034371599998) rotate(180)"><polygon fill="none" stroke="#231F20" stroke-width="1" points="19523.6 782.578 19514.3 783.702 19465.5 771.766 19498 746.802 19497.4 737.256 19524.5 721.815"/></g><g transform="translate(33084.999908499994 -20489.722847) rotate(90)"><polygon fill="none" stroke="#231F20" stroke-width="1" points="26272 5284.62 26246.2 5268.26 26243.4 5256.61 26225.5 5243.06 26257.9 5213.16 26284.8 5247.66"/></g><g transform="translate(50345.201497300004 6454.4806390999975) rotate(180)"><polygon fill="none" stroke="#231F20" stroke-width="1" points="22536.7 756.311 22501.1 783.245 22477.6 750.531 22488.1 746.152 22494.5 713.203 22527.4 734.015"/></g><g transform="translate(38343.824353 10133.6985155) rotate(180)"><polygon fill="none" stroke="#231F20" stroke-width="1" points="10532.7 4505.23 10485.5 4538.07 10477.2 4501.9 10470.4 4488.85 10485.9 4467.57 10511.2 4492.82"/></g><g transform="translate(18845.3639004 1784.9563242) rotate(0)"><polygon fill="none" stroke="#231F20" stroke-width="1" points="9027.03 3751.84 9008.53 3772.59 8973.73 3779.63 8976.85 3735.3 8995.18 3719.89 9011.92 3729.82"/></g><g transform="translate(-2163.8989922 3075.7139704000006) rotate(0)"><polygon fill="none" stroke="#231F20" stroke-width="1" points="30018.1 2267.52 30009.8 2285.16 29979 2272.23 29989.8 2240.12 30009.8 2210.63 30026.9 2223.33"/></g><g transform="translate(45840.7663401 9557.033826699997) rotate(180)"><polygon fill="none" stroke="#231F20" stroke-width="1" points="18026.8 3752.25 17990.3 3767.46 17963.7 3765.61 17975.2 3717.74 18003.2 3727.56 18019.5 3734.22"/></g><g transform="translate(22576.0480702 14844.1950517) rotate(270)"><polygon fill="none" stroke="#231F20" stroke-width="1" points="9013.14 5255.63 8999.2 5276.02 8986.15 5270.24 8976.01 5234.21 8999.45 5210.74 9031.25 5231.56"/></g><g transform="translate(24121.8396294 200.69352570000046) rotate(0)"><polygon fill="none" stroke="#231F20" stroke-width="1" points="3761.89 5254.21 3753.16 5281.35 3717.43 5260.77 3723.2 5219.53 3738.73 5227.59 3776.37 5233.31"/></g><g transform="translate(28618.481459000002 -12635.5369389) rotate(90)"><polygon fill="none" stroke="#231F20" stroke-width="1" points="18020.7 764.402 18001.2 775.117 17964.3 755.935 17964.6 736.305 18007.7 729.316 18018.6 720.306"/></g><g transform="translate(24114.359020900003 26584.4289842) rotate(270)"><polygon fill="none" stroke="#231F20" stroke-width="1" points="21019.6 3751.15 21016.7 3782.63 20960.1 3760.28 20988.8 3743.93 20995 3711.49 21026.8 3747.17"/></g><g transform="translate(55626.019138 7223.006725399997) rotate(180)"><polygon fill="none" stroke="#231F20" stroke-width="1" points="27766.5 1508.23 27732.9 1536.29 27736.5 1521.05 27719.3 1489.26 27763.6 1465.04 27774 1488.29"/></g><g transform="translate(31636.9949619 -13241.6015089) rotate(90)"><polygon fill="none" stroke="#231F20" stroke-width="1" points="18768 3771.77 18748.2 3780.52 18723.5 3773.91 18723.8 3747.81 18745.6 3735.36 18777.9 3725.77"/></g><g transform="translate(48122.860178400006 9043.436011899998) rotate(180)"><polygon fill="none" stroke="#231F20" stroke-width="1" points="20262.3 3766.58 20256.2 3764.57 20219.1 3769.75 20216.5 3728.12 20239.6 3713.14 20258.9 3735.34"/></g><g transform="translate(22642.6847971 11838.844861900001) rotate(270)"><polygon fill="none" stroke="#231F20" stroke-width="1" points="6021.58 5259.39 6005.65 5271.79 5981.67 5261.53 5971.38 5227.42 5999.55 5222.84 6029.52 5231.52"/></g><g transform="translate(4638.267419899999 4273.6110455) rotate(0)"><polygon fill="none" stroke="#231F20" stroke-width="1" points="23274 1533.27 23242.3 1537.53 23242.8 1504.59 23232.2 1489.8 23249.6 1470.43 23269.8 1478.4"/></g><g transform="translate(33140.5969981 -12333.925939) rotate(90)"><polygon fill="none" stroke="#231F20" stroke-width="1" points="18022.5 5265.96 18000.6 5272.39 17968.7 5264.75 17977.5 5228.4 17990.9 5232.89 18018.2 5223.86"/></g><g transform="translate(63904.1898784 6841.449359599996) rotate(180)"><polygon fill="none" stroke="#231F20" stroke-width="1" points="36021.6 1510.03 35985.4 1534.54 35968.7 1513.75 35972.1 1499.07 36006.4 1462.58 36009 1489.82"/></g><g transform="translate(32396.8251836 10882.370636399999) rotate(180)"><polygon fill="none" stroke="#231F20" stroke-width="1" points="4519.7 5254.8 4509.71 5289.62 4464.67 5266.14 4461.46 5242.45 4498.88 5245.27 4513.92 5249.28"/></g><g transform="translate(24912.631222700005 27232.4416178) rotate(270)"><polygon fill="none" stroke="#231F20" stroke-width="1" points="21764.7 3022.62 21740.2 3020.39 21727.3 3021.77 21725.8 2993.21 21752 2987.45 21788 2985.84"/></g><g transform="translate(-4338.170407500002 4662.137913) rotate(0)"><polygon fill="none" stroke="#231F20" stroke-width="1" points="32269.3 775.179 32240.2 781.739 32230.9 751.655 32231.9 744.777 32240.9 732.579 32272.8 725.86"/></g><g transform="translate(58676.7016437 9304.427870099997) rotate(180)"><polygon fill="none" stroke="#231F20" stroke-width="1" points="30784.8 3758.14 30752.7 3774.65 30726 3759.39 30730.6 3729.96 30751.6 3738.7 30776.9 3724.85"/></g><g transform="translate(30175.3547313 -20542.6309587) rotate(90)"><polygon fill="none" stroke="#231F20" stroke-width="1" points="26273.2 2263.39 26258.3 2278.39 26228.1 2270.06 26244.3 2246.46 26238.6 2213.8 26282.6 2238.16"/></g><g transform="translate(-1315.2271402000006 4308.2263902) rotate(0)"><polygon fill="none" stroke="#231F20" stroke-width="1" points="29266.6 1514.31 29263 1528.71 29218.6 1510.69 29235.5 1488.28 29246.5 1474.34 29274.8 1479.93"/></g><g transform="translate(36185.0454005 9016.848499199998) rotate(180)"><polygon fill="none" stroke="#231F20" stroke-width="1" points="8278.69 3766.85 8251.92 3756.17 8240.88 3760.48 8217.79 3744.28 8235.98 3716.32 8280.9 3737.15"/></g><g transform="translate(29437.5273007 -2134.4971058) rotate(90)"><polygon fill="none" stroke="#231F20" stroke-width="1" points="7525.86 1530.12 7496.97 1518.71 7489.27 1513.83 7480.43 1470.64 7486.28 1469.25 7513.01 1478.45"/></g><g transform="translate(27191.5600606 16854.8097801) rotate(270)"><polygon fill="none" stroke="#231F20" stroke-width="1" points="11283.6 763.756 11255.6 764.362 11228.2 782.601 11237.7 744.65 11252.3 714.176 11269.5 723.673"/></g><g transform="translate(9188.5757471 2674.3355713000005) rotate(0)"><polygon fill="none" stroke="#231F20" stroke-width="1" points="18762.6 3006.55 18752.9 3025.13 18733.2 3014.16 18721.8 2990.83 18764.2 2967.55 18783.5 2990.93"/></g><g transform="translate(62436.3174314 7997.768897299997) rotate(180)"><polygon fill="none" stroke="#231F20" stroke-width="1" points="34515.1 2263.78 34499.9 2255.6 34471.7 2275.31 34466.7 2233.55 34501.7 2215.19 34512.9 2231.52"/></g><g transform="translate(27956.0353907 9214.8877464) rotate(180)"><polygon fill="none" stroke="#231F20" stroke-width="1" points="30.8048 3776.25 4.90228 3762.6 -22.3192 3784.65 -14.7895 3739.58 9.34749 3709.88 20.3403 3745.82"/></g><g transform="translate(60207.666134700004 10015.448703699996) rotate(180)"><polygon fill="none" stroke="#231F20" stroke-width="1" points="32275.2 4503.3 32250.3 4514.84 32229.9 4521.26 32223.7 4487.28 32253.7 4463.06 32265.2 4488.82"/></g><g transform="translate(36208.058519900005 7561.817713099999) rotate(180)"><polygon fill="none" stroke="#231F20" stroke-width="1" points="8257.94 2261.34 8254 2268.96 8218.46 2273.83 8234.11 2227.01 8236.89 2221.52 8284.71 2249.27"/></g><g transform="translate(9200.503486599999 4661.403655) rotate(0)"><polygon fill="none" stroke="#231F20" stroke-width="1" points="18778.2 762.115 18747.8 789.366 18738.3 752.418 18734.4 735.562 18752.5 732.012 18789.6 741.447"/></g><g transform="translate(27191.0709633 11856.7646331) rotate(270)"><polygon fill="none" stroke="#231F20" stroke-width="1" points="6023.81 780.83 6011.25 771.793 5977.48 771.576 5974.86 741.316 6014.28 719.427 6014.39 735.993"/></g><g transform="translate(57781.7302154 6626.965750599996) rotate(180)"><polygon fill="none" stroke="#231F20" stroke-width="1" points="30009.9 759.288 30003.9 776.855 29961.7 753.359 29980.7 730.247 29992.4 733.28 30031.7 724.838"/></g><g transform="translate(22603.945425600003 30632.5138166) rotate(270)"><polygon fill="none" stroke="#231F20" stroke-width="1" points="24776.2 5259.66 24737.7 5282.08 24738.1 5267.06 24718.8 5230.56 24740.6 5227.88 24779.1 5244.41"/></g><g transform="translate(29403.128864 -25620.8456014) rotate(90)"><polygon fill="none" stroke="#231F20" stroke-width="1" points="31519.1 1516.56 31490.7 1521 31488.7 1512.36 31472.5 1489.3 31508.1 1471.47 31527 1485.49"/></g><g transform="translate(30987.851910600002 -8441.3770232) rotate(90)"><polygon fill="none" stroke="#231F20" stroke-width="1" points="14283.5 3005.63 14259 3033.24 14223.2 3027.16 14241.6 2992.49 14248.6 2996.02 14280.7 2985.06"/></g><g transform="translate(-3516.270685299998 2575.1220561000005) rotate(0)"><polygon fill="none" stroke="#231F20" stroke-width="1" points="31519.4 3018.43 31501.8 3028.99 31481.1 3013 31468.9 2991.38 31483.5 2966.55 31514.5 2995.88"/></g><g transform="translate(-5776.253583099999 1203.7920761000005) rotate(0)"><polygon fill="none" stroke="#231F20" stroke-width="1" points="33764.2 4512.01 33763.6 4536.55 33734.3 4513.43 33737.7 4493.53 33741.4 4470.67 33778 4472.04"/></g><g transform="translate(23486.893024100005 36123.7854814) rotate(270)"><polygon fill="none" stroke="#231F20" stroke-width="1" points="30767.8 4527.06 30758.9 4519.76 30709.9 4507.36 30742.6 4495.08 30750.1 4476.31 30787.1 4488.08"/></g><g transform="translate(28742.932952199997 -29622.4257783) rotate(90)"><polygon fill="none" stroke="#231F20" stroke-width="1" points="35271.5 768.62 35242.3 768.818 35227.1 780.585 35226 734.98 35249.9 739.175 35288.8 740.211"/></g><g transform="translate(54222.5204965 9647.924188199997) rotate(180)"><polygon fill="none" stroke="#231F20" stroke-width="1" points="26288.9 3752.89 26254.5 3771.54 26220.6 3770.94 26234.6 3741.6 26255.4 3722.92 26278.7 3749.4"/></g><g transform="translate(28745.8276194 -18985.0620432) rotate(90)"><polygon fill="none" stroke="#231F20" stroke-width="1" points="24778.2 752.432 24766.2 786.988 24736 767.742 24738.4 738.687 24749.9 735.198 24772.2 729.86"/></g><g transform="translate(11492.5333817 219.42051059999994) rotate(0)"><polygon fill="none" stroke="#231F20" stroke-width="1" points="16516.6 5276.12 16504.1 5270.85 16486.8 5270.79 16482.5 5230.63 16502.1 5227.26 16529.8 5230.53"/></g><g transform="translate(31745.873081499998 -4969.5705706) rotate(90)"><polygon fill="none" stroke="#231F20" stroke-width="1" points="10504.2 3756.29 10499.9 3760.68 10462.4 3764.19 10470.2 3747.49 10492 3712.15 10519.6 3739.65"/></g><g transform="translate(54998.4055027 6020.525526999996) rotate(180)"><polygon fill="none" stroke="#231F20" stroke-width="1" points="27014.6 766.644 26998.5 770.526 26963.1 760.867 26964.2 749.779 26999.8 719.43 27012.8 738.301"/></g><g transform="translate(13002.0568192 3925.0308621000004) rotate(0)"><polygon fill="none" stroke="#231F20" stroke-width="1" points="15023.9 1521.74 14998.3 1512.18 14973 1525.02 14991.2 1494.7 15001.4 1473.31 15031.6 1479.04"/></g><g transform="translate(49753.8661105 7568.334397999997) rotate(180)"><polygon fill="none" stroke="#231F20" stroke-width="1" points="21765.8 2273.78 21750.5 2254.58 21719.5 2268.78 21736.1 2228.97 21733 2220.3 21780 2231.9"/></g><g transform="translate(40770.1726373 8734.015942699998) rotate(180)"><polygon fill="none" stroke="#231F20" stroke-width="1" points="12782.1 3018.59 12747.9 3029.39 12745.4 3006.18 12723 2986.75 12739.2 2977.55 12767 2981.18"/></g><g transform="translate(1010.9032736000008 2106.1282921999996) rotate(0)"><polygon fill="none" stroke="#231F20" stroke-width="1" points="27030.7 3759.87 27006.3 3778.09 26969 3758.18 26988.8 3736.21 27013.7 3715.3 27003.7 3746.9"/></g><g transform="translate(15269.005589600001 1811.5454062) rotate(0)"><polygon fill="none" stroke="#231F20" stroke-width="1" points="12770.6 3752.3 12748.3 3777.77 12724.6 3755.01 12723.9 3748.76 12766.2 3716 12772.3 3715.87"/></g><g transform="translate(36280.3352612 8683.4467984) rotate(180)"><polygon fill="none" stroke="#231F20" stroke-width="1" points="8277.54 3019.97 8255.55 3024.96 8242.26 3002.95 8225.17 2984.9 8243.93 2966.17 8268.37 2988.08"/></g><g transform="translate(27283.879068 383.6265441000005) rotate(0)"><polygon fill="none" stroke="#231F20" stroke-width="1" points="759.897 5254.45 740.759 5274.89 719.675 5251.51 727.535 5249.29 736.185 5211.85 774.816 5238.53"/></g><g transform="translate(61027.7889958 7308.680913899996) rotate(180)"><polygon fill="none" stroke="#231F20" stroke-width="1" points="33034.9 1515.49 33005.3 1513.49 32967 1517.34 32976.6 1471.96 33001.7 1488.56 33010.6 1499.38"/></g><g transform="translate(33293.3327202 11155.8914612) rotate(180)"><polygon fill="none" stroke="#231F20" stroke-width="1" points="5287.98 5263.4 5259.63 5283.19 5236.05 5251.85 5240.49 5241.05 5253.74 5242.09 5281.94 5230.89"/></g><g transform="translate(-7220.451493199998 2370.8379178999994) rotate(0)"><polygon fill="none" stroke="#231F20" stroke-width="1" points="35268.2 3016.89 35259.6 3034.41 35219.1 3025.82 35246.7 2996.35 35246.3 2962.35 35263.2 2983.79"/></g><g transform="translate(27286.8001239 18237.3402612) rotate(270)"><polygon fill="none" stroke="#231F20" stroke-width="1" points="12767.5 767.508 12745.4 762.726 12738.8 760.1 12720.1 742.002 12736.5 719.69 12774.9 739.189"/></g><g transform="translate(-4194.042342100001 2433.7916084) rotate(0)"><polygon fill="none" stroke="#231F20" stroke-width="1" points="32264.5 3008.29 32247.8 3012.26 32224.9 3029.88 32225.2 2984.2 32248.8 2977.52 32273.9 2980.6"/></g><g transform="translate(21305.1926013 3326.3638768000005) rotate(0)"><polygon fill="none" stroke="#231F20" stroke-width="1" points="6757.13 2252.52 6752.35 2277.05 6713.81 2268.88 6737.71 2243.37 6735.59 2212.11 6764.6 2230.6"/></g><g transform="translate(26551.031816600003 11856.512069) rotate(270)"><polygon fill="none" stroke="#231F20" stroke-width="1" points="6013.02 1520.94 5988.61 1527.9 5972.16 1509.29 5987.35 1493.89 5993.85 1487.17 6028.47 1473.5"/></g><g transform="translate(30307.4334819 9074.5209592) rotate(180)"><polygon fill="none" stroke="#231F20" stroke-width="1" points="2278.38 3762.2 2232.76 3784.91 2244.85 3757.43 2246.01 3748 2257.11 3727 2281.4 3741.05"/></g><g transform="translate(44566.6794532 6773.070577699998) rotate(180)"><polygon fill="none" stroke="#231F20" stroke-width="1" points="16532.7 1520.03 16499.4 1523.07 16486.4 1510.52 16496 1498.41 16493.9 1488.31 16522.8 1469.47"/></g><g transform="translate(31803.4878732 -9224.040420500001) rotate(90)"><polygon fill="none" stroke="#231F20" stroke-width="1" points="15015.8 3756.44 14997.4 3774.33 14977.9 3767.91 14974.8 3743.29 15001.4 3714.88 15013.5 3741.11"/></g><g transform="translate(23553.8403282 7174.186249) rotate(270)"><polygon fill="none" stroke="#231F20" stroke-width="1" points="1520.12 4531.88 1515.7 4534.52 1486.38 4511.52 1495.93 4496.69 1505.72 4478.52 1534.37 4488.31"/></g><g transform="translate(25811.312027700005 34767.3712128) rotate(270)"><polygon fill="none" stroke="#231F20" stroke-width="1" points="29267.7 2252.6 29248.9 2281.95 29236.1 2272.65 29232.3 2241.08 29243.3 2225.13 29289.9 2247.22"/></g><g transform="translate(50563.8278418 10224.995984999998) rotate(180)"><polygon fill="none" stroke="#231F20" stroke-width="1" points="22540.2 4508.03 22496.3 4506.97 22488.8 4515.27 22467.7 4477.44 22493.4 4474.96 22511.6 4480.01"/></g><g transform="translate(12321.4735372 2469.94978) rotate(0)"><polygon fill="none" stroke="#231F20" stroke-width="1" points="15775.3 3026.2 15752.1 3023.19 15746.3 3005.17 15713.8 2992.45 15752.2 2970.28 15765.7 2989.79"/></g><g transform="translate(43816.6669252 10636.3012011) rotate(180)"><polygon fill="none" stroke="#231F20" stroke-width="1" points="15772.6 5273.14 15765 5284.66 15721.4 5263.59 15729.8 5237.27 15753.2 5243.89 15765.2 5241.32"/></g><g transform="translate(27320.369754800002 14605.7043093) rotate(270)"><polygon fill="none" stroke="#231F20" stroke-width="1" points="9029.91 768.536 8999.83 767.951 8969.83 763.153 8960.49 740.69 9001.94 736.44 9005.83 744.554"/></g><g transform="translate(41581.4755615 11134.416476799997) rotate(180)"><polygon fill="none" stroke="#231F20" stroke-width="1" points="13502.6 5253.06 13496.9 5282.7 13488.2 5264.67 13471.6 5245.83 13488 5218.65 13537.1 5247.5"/></g><g transform="translate(32581.3869931 -14700.573928099999) rotate(90)"><polygon fill="none" stroke="#231F20" stroke-width="1" points="20263 4502.96 20242.4 4529.75 20239.1 4513.09 20225.8 4472.65 20247 4476.83 20271.2 4484.99"/></g><g transform="translate(331.13307930000155 2076.1132606) rotate(0)"><polygon fill="none" stroke="#231F20" stroke-width="1" points="27773.8 3780.84 27752.8 3775.43 27742.1 3761.97 27727.4 3725.99 27757 3718.18 27760.4 3733.68"/></g><g transform="translate(29584.335143899996 -20168.1704636) rotate(90)"><polygon fill="none" stroke="#231F20" stroke-width="1" points="25524.4 1523.24 25514.5 1530.53 25485.5 1511.88 25476.3 1467.73 25502.2 1486.37 25520.1 1495.74"/></g><g transform="translate(23592.892034000008 40196.2689832) rotate(270)"><polygon fill="none" stroke="#231F20" stroke-width="1" points="34507.8 4502.78 34500.1 4511.84 34475.8 4530.95 34466.1 4498.15 34489.6 4479.8 34522.7 4483.67"/></g><g transform="translate(353.80237940000006 3192.5977889) rotate(0)"><polygon fill="none" stroke="#231F20" stroke-width="1" points="27755.6 2255.14 27752.5 2285.03 27729.2 2255.18 27718 2245.51 27740.7 2229.91 27777.2 2221.36"/></g><g transform="translate(29598.651410899998 -11971.7186512) rotate(90)"><polygon fill="none" stroke="#231F20" stroke-width="1" points="17281.5 1517.13 17241.9 1523.98 17221.7 1504.58 17235.8 1487.48 17247.8 1488.06 17270 1490.13"/></g><g transform="translate(-7147.011754999996 3148.7661432) rotate(0)"><polygon fill="none" stroke="#231F20" stroke-width="1" points="35265.8 2258.89 35257.4 2265.01 35224.2 2280.8 35242.2 2237.1 35242.5 2232.09 35273.7 2223.93"/></g><g transform="translate(27364.943030900005 34900.621155) rotate(270)"><polygon fill="none" stroke="#231F20" stroke-width="1" points="29261.5 753.341 29242 774.27 29228.8 756.378 29234.9 744.44 29254.3 709.747 29276.4 746.76"/></g><g transform="translate(31108.1115737 -960.8746633999999) rotate(90)"><polygon fill="none" stroke="#231F20" stroke-width="1" points="6757.68 3001.49 6754.13 3027.63 6712.71 3006.45 6733.32 2991.9 6748.44 2978.87 6785.14 2985.43"/></g><g transform="translate(30371.3014429 -6487.5694916) rotate(90)"><polygon fill="none" stroke="#231F20" stroke-width="1" points="12012.1 2264.15 11992.1 2282.83 11972 2262.87 11986.6 2239.49 12002.8 2237.83 12026.8 2229.79"/></g><g transform="translate(27364.441748400004 22850.2977158) rotate(270)"><polygon fill="none" stroke="#231F20" stroke-width="1" points="17288.6 756.356 17247.2 756.371 17218.5 762.179 17234.3 731.202 17252.9 729.632 17264.8 725.34"/></g><g transform="translate(28870.2910951 7340.6403722) rotate(180)"><polygon fill="none" stroke="#231F20" stroke-width="1" points="777.947 1528.11 757.725 1533.67 743.793 1503.1 727.931 1473.77 740.935 1474.68 764.777 1485.51"/></g><g transform="translate(4114.058463199999 3091.8823730999998) rotate(0)"><polygon fill="none" stroke="#231F20" stroke-width="1" points="24017.9 2271.19 24011.6 2281.09 23977.2 2254.88 23984.3 2245.95 23996.1 2231.74 24025.9 2234.17"/></g><g transform="translate(33380.5256719 7395.569085499999) rotate(180)"><polygon fill="none" stroke="#231F20" stroke-width="1" points="5261.24 1514.73 5252.69 1506.22 5228.65 1506.2 5230.29 1484.82 5243.07 1470.57 5284.36 1484.29"/></g><g transform="translate(33391.400746 -8777.2046677) rotate(90)"><polygon fill="none" stroke="#231F20" stroke-width="1" points="14266 5255.7 14260.9 5287.5 14228.3 5274.69 14233.9 5245.45 14244.4 5232.19 14271.2 5249.08"/></g><g transform="translate(26627.536978 2735.9810704) rotate(0)"><polygon fill="none" stroke="#231F20" stroke-width="1" points="1512.08 3000.07 1508.08 3036.88 1477.23 3019.87 1487.56 2996.42 1510.77 2964.75 1511.98 2990.52"/></g><g transform="translate(5633.256314300001 2287.0198394) rotate(0)"><polygon fill="none" stroke="#231F20" stroke-width="1" points="22520.6 3027.99 22504.9 3020.22 22474.7 3021.4 22476.4 2998.83 22498.5 2966.6 22509.6 2997.35"/></g><g transform="translate(-7862.827147 4656.1309169999995) rotate(0)"><polygon fill="none" stroke="#231F20" stroke-width="1" points="36015.3 763.174 36014.4 775.773 35994 757.424 35985.2 748.403 35993.8 715.212 36024.2 729.412"/></g><g transform="translate(7881.4626718 4938.0844359) rotate(0)"><polygon fill="none" stroke="#231F20" stroke-width="1" points="20256.5 760.341 20239.7 778.847 20237.2 754.667 20230.6 749.315 20262.9 715.126 20281.9 737.684"/></g><g transform="translate(13893.284930900001 4057.0336235000004) rotate(0)"><polygon fill="none" stroke="#231F20" stroke-width="1" points="14285 1505.39 14249.9 1504.71 14224 1503.87 14241 1498.2 14257.7 1461.33 14285.6 1481.13"/></g><g transform="translate(64157.438363199995 9323.092654999997) rotate(180)"><polygon fill="none" stroke="#231F20" stroke-width="1" points="36018.6 3756.15 35994.4 3760.87 35984.8 3750.29 35987.9 3737.68 36016.7 3713.31 36036.6 3740.17"/></g><g transform="translate(25143.862164100006 41796.5828606) rotate(270)"><polygon fill="none" stroke="#231F20" stroke-width="1" points="36019.7 3005.02 35998.3 3031.46 35971.4 3019.14 35985.9 2992.58 35996.6 2993.07 36021 2977.95"/></g><g transform="translate(21861.4611893 1656.4635189999995) rotate(0)"><polygon fill="none" stroke="#231F20" stroke-width="1" points="6016.75 3774.5 5998.1 3767.18 5987.42 3755.39 5988.6 3735.43 5996.14 3728.57 6035.79 3741.42"/></g><g transform="translate(54046.5745432 7409.168959499996) rotate(180)"><polygon fill="none" stroke="#231F20" stroke-width="1" points="26271.5 1507.91 26244.9 1512.56 26229.1 1521.3 26214.8 1484.17 26253.7 1488.07 26288.9 1498.09"/></g><g transform="translate(31910.2062888 368.02266430000054) rotate(90)"><polygon fill="none" stroke="#231F20" stroke-width="1" points="5260.85 3757.13 5269.21 3783.43 5235.74 3762.37 5227.82 3719.94 5251.11 3719.84 5253.18 3745.57"/></g><g transform="translate(25912.551302500004 13342.9435928) rotate(270)"><polygon fill="none" stroke="#231F20" stroke-width="1" points="7525.61 2270.84 7490.1 2268.02 7487.02 2257.22 7488.95 2234.81 7503.26 2216.28 7511.15 2233.05"/></g><g transform="translate(49909.4674038 9027.838762199997) rotate(180)"><polygon fill="none" stroke="#231F20" stroke-width="1" points="21773.1 3772.37 21745.6 3770.09 21726.8 3777.84 21737 3735.41 21759.3 3731.38 21765.3 3739.99"/></g><g transform="translate(31900.5943852 -1409.6848940999998) rotate(90)"><polygon fill="none" stroke="#231F20" stroke-width="1" points="6769.3 3762.68 6746.57 3759.21 6718.08 3763 6732.08 3728.69 6754.66 3727.19 6772.82 3746.96"/></g><g transform="translate(-7840.502569 3469.6521383000004) rotate(0)"><polygon fill="none" stroke="#231F20" stroke-width="1" points="36010.6 2262.08 35995.3 2270.7 35983.6 2268.77 35978.8 2230.64 35994 2226.28 36029.2 2249.3"/></g><g transform="translate(58163.751969100005 7145.9488085999965) rotate(180)"><polygon fill="none" stroke="#231F20" stroke-width="1" points="30030.3 1508.99 29990.8 1522.38 29988.4 1504.43 29973.9 1480.9 29988.6 1476.29 30014.4 1486.83"/></g><g transform="translate(10909.215026999998 190.79536170000029) rotate(0)"><polygon fill="none" stroke="#231F20" stroke-width="1" points="17262.5 5265.23 17259.4 5284.03 17218.4 5250.99 17222.5 5243 17251.9 5240.66 17269.8 5242.24"/></g><g transform="translate(31924.0873594 8121.3754301) rotate(180)"><polygon fill="none" stroke="#231F20" stroke-width="1" points="3787.49 2266.09 3751.44 2260.14 3721.87 2269.96 3745.08 2242.02 3750.63 2229.65 3766.34 2225.41"/></g><g transform="translate(22929.835115800004 18511.8964681) rotate(270)"><polygon fill="none" stroke="#231F20" stroke-width="1" points="12765.2 5253.63 12751.9 5257.74 12745.1 5254.46 12726.4 5233.17 12765 5215.07 12778.6 5247.94"/></g><g transform="translate(2683.0992219 1751.5878880999999) rotate(0)"><polygon fill="none" stroke="#231F20" stroke-width="1" points="25503.5 3752.57 25506.6 3772.81 25472.6 3770.14 25469.2 3726.61 25499.8 3742.71 25532.2 3728.54"/></g><g transform="translate(29684.9095606 -1326.0201889999998) rotate(90)"><polygon fill="none" stroke="#231F20" stroke-width="1" points="6756.48 1500.11 6750.85 1531.82 6719.05 1520.52 6736.81 1489.89 6748.37 1484.4 6773.99 1474.06"/></g><g transform="translate(25186.890039500002 10592.769207500001) rotate(270)"><polygon fill="none" stroke="#231F20" stroke-width="1" points="5265.38 3001.47 5256.13 3029.74 5232.05 3013 5225.98 2979.02 5247.79 2986.51 5277.06 2984.93"/></g><g transform="translate(33420.90709 -18308.6147403) rotate(90)"><polygon fill="none" stroke="#231F20" stroke-width="1" points="24013.8 5251.67 23999 5268.42 23985.9 5255.42 23980.8 5227.75 24010.9 5224.03 24027.7 5229.38"/></g><g transform="translate(14686.390828700001 3877.9649446000003) rotate(0)"><polygon fill="none" stroke="#231F20" stroke-width="1" points="13520.4 1518.74 13510.8 1533.12 13492.1 1511.16 13477 1497.61 13494.7 1486.11 13531.8 1499.44"/></g><g transform="translate(31199.3962387 -18702.0380275) rotate(90)"><polygon fill="none" stroke="#231F20" stroke-width="1" points="24030.9 3006.39 24013 3025.52 23964.2 3019.68 23994.3 2999.96 23994.3 2987.4 24024.1 2995.97"/></g><g transform="translate(26701.9680708 17045.2637628) rotate(270)"><polygon fill="none" stroke="#231F20" stroke-width="1" points="11259 1505.12 11249.7 1526.72 11245.9 1505.6 11215.8 1493.51 11237.8 1471.57 11267.4 1478.05"/></g><g transform="translate(31955.6260743 -5779.6205477) rotate(90)"><polygon fill="none" stroke="#231F20" stroke-width="1" points="11273.8 3772.37 11243.2 3780.92 11218.5 3775.64 11237.6 3748.29 11245.9 3741.1 11256.6 3740.35"/></g><g transform="translate(23699.9467343 1378.5475492999994) rotate(0)"><polygon fill="none" stroke="#231F20" stroke-width="1" points="4531.42 4508.39 4500.7 4512.91 4481.17 4507.47 4493.94 4493.47 4502.27 4472.86 4526.04 4475.45"/></g><g transform="translate(37949.900640299995 7043.603003199999) rotate(180)"><polygon fill="none" stroke="#231F20" stroke-width="1" points="9776.23 1513.01 9749.15 1523.48 9741.01 1507.09 9714.78 1498.85 9762.18 1472.29 9759.07 1488.01"/></g><g transform="translate(46948.617061 7124.255917899997) rotate(180)"><polygon fill="none" stroke="#231F20" stroke-width="1" points="18757.9 1505.4 18750.1 1534.18 18735.2 1524.88 18709.9 1497.97 18751.1 1490.72 18774.6 1493.17"/></g><g transform="translate(33461.813999699996 4237.9639799999995) rotate(90)"><polygon fill="none" stroke="#231F20" stroke-width="1" points="1516 5266 1491.24 5287.61 1492.51 5254.19 1482.52 5247.45 1504.47 5228.13 1523.42 5228.49"/></g><g transform="translate(26710.9828462 7142.464558600001) rotate(270)"><polygon fill="none" stroke="#231F20" stroke-width="1" points="1513.61 1513.15 1502.15 1509 1493.37 1509.53 1462.36 1486.39 1507.37 1463.87 1509.09 1498.22"/></g><g transform="translate(25967.7791001 6771.594145000001) rotate(270)"><polygon fill="none" stroke="#231F20" stroke-width="1" points="1521.59 2277.79 1496.64 2258.98 1478.7 2272.73 1494.45 2249.34 1506.99 2213.54 1520.89 2216.3"/></g><g transform="translate(25218.047870100007 40067.1318813) rotate(270)"><polygon fill="none" stroke="#231F20" stroke-width="1" points="34516.3 3013.57 34494.1 3011.41 34471.4 3021.28 34473.9 2985.56 34493.9 2962.36 34502.8 2995.78"/></g><g transform="translate(31961.2968035 1952.1266296) rotate(90)"><polygon fill="none" stroke="#231F20" stroke-width="1" points="3760.58 3760.08 3753.91 3761.08 3727.95 3759.49 3719.37 3732.89 3746.86 3730.94 3772.96 3738.28"/></g><g transform="translate(30469.9122102 5499.8200906) rotate(90)"><polygon fill="none" stroke="#231F20" stroke-width="1" points="16.6119 2259.27 4.33957 2283.36 -10.4699 2254.39 -14.2869 2231.67 3.29924 2231.18 34.3691 2241.15"/></g><g transform="translate(55227.343645500005 8412.922361899997) rotate(180)"><polygon fill="none" stroke="#231F20" stroke-width="1" points="27013.7 3007.5 27002.9 3011.18 26987.9 3010.33 26988.8 2983.15 26998.4 2960.67 27030.8 2999.04"/></g><g transform="translate(23720.8349992 15569.7178635) rotate(270)"><polygon fill="none" stroke="#231F20" stroke-width="1" points="9768.38 4511.4 9755.12 4513.12 9729.93 4500.74 9716.32 4499.62 9735.79 4472.96 9770.6 4488.93"/></g><g transform="translate(1961.6623795000014 1407.8226746999999) rotate(0)"><polygon fill="none" stroke="#231F20" stroke-width="1" points="26280 4504.69 26253.2 4514.68 26237.3 4502.66 26224.2 4486.47 26251.1 4489.65 26277 4474.99"/></g><g transform="translate(2728.8015054999996 2342.9326387) rotate(0)"><polygon fill="none" stroke="#231F20" stroke-width="1" points="25524.8 3017.53 25491.7 3038.18 25475.4 3011.61 25494.4 2997.13 25506.7 2986.82 25506.5 2992.76"/></g><g transform="translate(5733.723815400001 1571.879864) rotate(0)"><polygon fill="none" stroke="#231F20" stroke-width="1" points="22525.3 3762.02 22497.2 3755.77 22471.5 3761.02 22471.4 3744.35 22487.1 3726.06 22516.3 3736.7"/></g><g transform="translate(34229.1273336 10146.932179899999) rotate(180)"><polygon fill="none" stroke="#231F20" stroke-width="1" points="6003.97 4503.36 6003.12 4512.69 5975.13 4505.15 5973.02 4483.76 5989.99 4460.22 6011.33 4490.5"/></g><g transform="translate(33497.4291507 -2032.6515025999997) rotate(90)"><polygon fill="none" stroke="#231F20" stroke-width="1" points="7518.24 5260.59 7512.28 5283.96 7478.05 5260.11 7490.1 5248.35 7498.44 5243.62 7514.52 5229.41"/></g><g transform="translate(31244.4567296 9535.5257166) rotate(180)"><polygon fill="none" stroke="#231F20" stroke-width="1" points="3025.42 3756.16 3003.68 3783.52 2990.07 3761.71 2972.69 3745.27 3000.61 3737.76 3023.95 3744.76"/></g><g transform="translate(32001.8282144 -11416.785713500001) rotate(90)"><polygon fill="none" stroke="#231F20" stroke-width="1" points="17284.8 3771.64 17256.4 3780.17 17240.3 3761.04 17239.9 3745.34 17255.3 3716.45 17260.4 3746.49"/></g><g transform="translate(26745.951539700007 39473.9971718) rotate(270)"><polygon fill="none" stroke="#231F20" stroke-width="1" points="33786.9 1510.97 33750.2 1507.24 33736 1501.75 33728.8 1489.27 33750.1 1477.41 33788.5 1495.96"/></g><g transform="translate(23000.323139300002 17535.135591600003) rotate(270)"><polygon fill="none" stroke="#231F20" stroke-width="1" points="12022.8 5260.28 12003.1 5259.55 11970.2 5270.41 11985.4 5249.21 11995.2 5226.26 12021.8 5236.36"/></g><g transform="translate(27493.451308300006 39340.0568494) rotate(270)"><polygon fill="none" stroke="#231F20" stroke-width="1" points="33787.9 754.652 33759.9 773.169 33734.7 766.086 33727.5 746.901 33750.8 745.647 33784.8 746.189"/></g><g transform="translate(52249.614398599995 9143.689397399998) rotate(180)"><polygon fill="none" stroke="#231F20" stroke-width="1" points="24018.5 3761.29 24004.5 3777.93 23993.1 3761.15 23980.9 3739.93 24007.5 3713.93 24010.8 3747.59"/></g><g transform="translate(31248.038667599998 2120.0614293) rotate(90)"><polygon fill="none" stroke="#231F20" stroke-width="1" points="3762.15 3017.33 3752.35 3010.85 3740.59 3009.19 3722.81 2988.45 3765.69 2965.07 3763.59 2998.02"/></g><g transform="translate(25248.0000993 9792.034317200001) rotate(270)"><polygon fill="none" stroke="#231F20" stroke-width="1" points="4515.32 3013.54 4485.85 3036.95 4478.5 3005.99 4496.01 2995.73 4500.11 2991.87 4524.05 2984.01"/></g><g transform="translate(32015.686476199997 -27551.020341) rotate(90)"><polygon fill="none" stroke="#231F20" stroke-width="1" points="33010 3760.33 33001.5 3772.72 32977.6 3769.86 32973.5 3745.43 33001.8 3738.09 33026 3745.87"/></g><g transform="translate(32025.0377698 -17501.8407007) rotate(90)"><polygon fill="none" stroke="#231F20" stroke-width="1" points="23269.8 3774.32 23255.5 3774.16 23233.4 3771.34 23222.4 3743.8 23250.5 3735.01 23256 3746.69"/></g><g transform="translate(23005.698319600004 26631.2046874) rotate(270)"><polygon fill="none" stroke="#231F20" stroke-width="1" points="21024.2 5275.51 21007 5267.24 20961.9 5256.66 20994.7 5246.7 20998.8 5243.54 21017.1 5223.51"/></g><g transform="translate(-1730.0488313999995 2348.2736849) rotate(0)"><polygon fill="none" stroke="#231F20" stroke-width="1" points="30016.7 3004.03 29995.9 3033.49 29987.4 3016.42 29965.5 2980.38 29997 2993.09 30009.1 2984.57"/></g><g transform="translate(29777.436410100003 3545.3264759) rotate(90)"><polygon fill="none" stroke="#231F20" stroke-width="1" points="2284.01 1509.28 2256.6 1536.19 2243.73 1500.39 2236.74 1484.24 2259.33 1467.17 2254.84 1498.85"/></g><g transform="translate(34271.034821199995 7766.070428799999) rotate(180)"><polygon fill="none" stroke="#231F20" stroke-width="1" points="6021.21 2267.21 6011.63 2281.4 5986.59 2268.51 5984.45 2246.34 6003.66 2211.31 6005.24 2248.33"/></g><g transform="translate(23786.377425100003 31162.8595824) rotate(270)"><polygon fill="none" stroke="#231F20" stroke-width="1" points="25514.3 4510.41 25502 4510.61 25493.6 4506.82 25468.3 4480.73 25480.9 4465.83 25512.6 4491.34"/></g><g transform="translate(26035.6380059 6341.029059400001) rotate(270)"><polygon fill="none" stroke="#231F20" stroke-width="1" points="780.656 2254.81 757.079 2268 744.95 2253.96 733.704 2243.02 736.725 2224.19 771.34 2236.14"/></g><g transform="translate(31292.9077707 -3589.9122304) rotate(90)"><polygon fill="none" stroke="#231F20" stroke-width="1" points="9018.04 3016.32 8997.95 3017.66 8970.71 3026.41 8984.98 2984.36 8991.84 2983.67 9010.74 2997.81"/></g><g transform="translate(25292.660927400004 16952.6520246) rotate(270)"><polygon fill="none" stroke="#231F20" stroke-width="1" points="11264.5 3008.31 11243.7 3013.02 11244.2 3002.66 11230.4 2999.7 11235.7 2965.24 11276.9 2995"/></g><g transform="translate(44031.9790948 9018.708039199999) rotate(180)"><polygon fill="none" stroke="#231F20" stroke-width="1" points="15761.2 3764.83 15753.8 3763.88 15737 3751.92 15723.3 3749.6 15751.9 3720.9 15772.5 3744.35"/></g><g transform="translate(25999.2509964 3662.1555009) rotate(0)"><polygon fill="none" stroke="#231F20" stroke-width="1" points="2283.49 2259.37 2251.85 2254.01 2241.53 2255.06 2243.6 2246.56 2248 2221.29 2288.89 2240.12"/></g><g transform="translate(25513.487716300006 29101.3038776) rotate(270)"><polygon fill="none" stroke="#231F20" stroke-width="1" points="23268.8 2266.78 23257.4 2268.22 23242.2 2257.78 23226 2246.07 23247.9 2240.98 23285.2 2239.16"/></g><g transform="translate(30538.7512736 -9894.2541839) rotate(90)"><polygon fill="none" stroke="#231F20" stroke-width="1" points="15766.7 2258.59 15746.6 2273.97 15737.3 2271.56 15727.8 2233.24 15752.7 2233.54 15770.3 2246.16"/></g><g transform="translate(30543.1146443 -20042.003454) rotate(90)"><polygon fill="none" stroke="#231F20" stroke-width="1" points="25515.3 2272.75 25505.5 2263.91 25479.9 2267.16 25494.1 2247.28 25503.3 2222.3 25523 2218.92"/></g><g transform="translate(26787.400115400007 40870.1584887) rotate(270)"><polygon fill="none" stroke="#231F20" stroke-width="1" points="35272.9 1505.35 35249.6 1520.67 35225.2 1509.09 35217.5 1481.42 35252.4 1488.64 35253.8 1495.58"/></g><g transform="translate(46297.4513532 7260.3271154999975) rotate(180)"><polygon fill="none" stroke="#231F20" stroke-width="1" points="18020.3 1505.6 18000 1512.02 17994.6 1508.45 17979.2 1487.62 18003.2 1477.97 18033.3 1486.37"/></g><g transform="translate(26789.697472000003 33834.687522399996) rotate(270)"><polygon fill="none" stroke="#231F20" stroke-width="1" points="28524.5 1511.13 28491.1 1533.17 28493.6 1501.26 28473.8 1497.91 28501.6 1494.82 28523.4 1473.72"/></g><g transform="translate(38799.6476142 7805.703241299998) rotate(180)"><polygon fill="none" stroke="#231F20" stroke-width="1" points="10532.3 2250.94 10491.2 2269.53 10472.6 2256.31 10481 2227.48 10500.2 2233.04 10504.3 2248.88"/></g><g transform="translate(30556.6117009 -16619.5858211) rotate(90)"><polygon fill="none" stroke="#231F20" stroke-width="1" points="22528.6 2257.96 22512.5 2281.84 22492 2255.78 22481.7 2237.69 22488.5 2215.89 22502.8 2246.37"/></g><g transform="translate(52312.995750400005 6163.206626099997) rotate(180)"><polygon fill="none" stroke="#231F20" stroke-width="1" points="24003 752.324 24005.9 787.661 23997 752.827 23974.7 726.611 23993 720.693 24035.3 730.729"/></g><g transform="translate(23791.5631116 4001.4492032999997) rotate(0)"><polygon fill="none" stroke="#231F20" stroke-width="1" points="4540.63 1502.41 4494.89 1530.28 4497.05 1504.8 4490.37 1490.87 4504.06 1475.43 4519.26 1497.51"/></g><g transform="translate(44819.425726400004 7976.803362499998) rotate(180)"><polygon fill="none" stroke="#231F20" stroke-width="1" points="16537.2 2253.97 16500.2 2256.19 16481.4 2263.53 16485.6 2246.01 16509.7 2216.21 16517.5 2233.77"/></g><g transform="translate(24564.179423300004 22173.1473577) rotate(270)"><polygon fill="none" stroke="#231F20" stroke-width="1" points="16518.5 3763.22 16503.8 3763.4 16488.5 3761.59 16491.2 3739.72 16491.2 3730.14 16535.3 3742.42"/></g><g transform="translate(32818.573117399996 1562.8738400999996) rotate(90)"><polygon fill="none" stroke="#231F20" stroke-width="1" points="3755.97 4509.91 3735.14 4528.15 3719.62 4523.23 3732.65 4484.51 3750.95 4492.17 3770.64 4497.73"/></g><g transform="translate(-3179.687946599999 2055.153783) rotate(0)"><polygon fill="none" stroke="#231F20" stroke-width="1" points="31504.4 3752.1 31497.6 3783.42 31469.3 3771.91 31494.3 3744.84 31500.3 3721.97 31519.8 3736.88"/></g><g transform="translate(30579.4076224 6104.6168809) rotate(180)"><polygon fill="none" stroke="#231F20" stroke-width="1" points="2289.36 758.161 2246.27 757.118 2223.86 758.381 2239.98 746.916 2245.56 737.211 2272.84 728.925"/></g><g transform="translate(31320.0434421 -19156.9942144) rotate(90)"><polygon fill="none" stroke="#231F20" stroke-width="1" points="24773.5 3011.08 24753.3 3025.54 24738.4 3000.35 24730.1 2978.46 24751.1 2990.33 24770.7 2992.66"/></g><g transform="translate(27583.0696729 6214.067992) rotate(270)"><polygon fill="none" stroke="#231F20" stroke-width="1" points="771.889 753.687 742.535 769.849 724.039 750.757 742.271 739.549 749.232 744.122 771.178 718.121"/></g><g transform="translate(5063.367856000001 1401.1791083999997) rotate(0)"><polygon fill="none" stroke="#231F20" stroke-width="1" points="23277.4 4509.92 23255.6 4521.18 23225.2 4519.08 23245.9 4495.88 23246.7 4482.37 23262.6 4484.72"/></g><g transform="translate(23821.8255519 13784.4005277) rotate(270)"><polygon fill="none" stroke="#231F20" stroke-width="1" points="8279.59 4508.8 8253.34 4516.22 8217.39 4518.61 8245.7 4497.1 8254.1 4470.03 8264.61 4488.91"/></g><g transform="translate(19321.8065112 765.9726436999999) rotate(0)"><polygon fill="none" stroke="#231F20" stroke-width="1" points="9025.19 4524.31 9012.94 4527.03 8994.39 4504.1 8987.99 4490.03 9001.58 4484.03 9027.18 4499.05"/></g><g transform="translate(-1668.7428627000008 1942.5437667) rotate(0)"><polygon fill="none" stroke="#231F20" stroke-width="1" points="30021.1 3752.83 29997.3 3772.76 29981.2 3765.24 29966.4 3739.95 30000 3745.98 30022.4 3733.55"/></g><g transform="translate(-170.6339885999987 3586.9378661) rotate(0)"><polygon fill="none" stroke="#231F20" stroke-width="1" points="28512.2 2262.15 28496.8 2273.37 28482.9 2270.87 28489.4 2248.97 28508.3 2229.98 28531 2229.67"/></g><g transform="translate(32833.4020087 -13376.616666999998) rotate(90)"><polygon fill="none" stroke="#231F20" stroke-width="1" points="18775 4515.66 18757.7 4514.7 18746.9 4503.26 18722.9 4469.27 18740 4471.69 18758.7 4490.83"/></g><g transform="translate(29832.1391299 -16864.5045466) rotate(90)"><polygon fill="none" stroke="#231F20" stroke-width="1" points="22516.9 1507.58 22501.4 1513.34 22478.8 1508.58 22477.1 1498.23 22515 1464.19 22512.8 1486.36"/></g><g transform="translate(57595.093695100004 9528.059710199996) rotate(180)"><polygon fill="none" stroke="#231F20" stroke-width="1" points="29285.4 3767.47 29251.7 3769.13 29243.7 3756.24 29230.6 3741.55 29238.2 3713.51 29254.2 3743.93"/></g><g transform="translate(26848.8031664 9136.8145043) rotate(270)"><polygon fill="none" stroke="#231F20" stroke-width="1" points="3767.44 1511.69 3750.01 1519.61 3733.16 1510.1 3723.39 1488.15 3732.17 1465.71 3755.42 1499.32"/></g><g transform="translate(56851.6338085 9625.953327899995) rotate(180)"><polygon fill="none" stroke="#231F20" stroke-width="1" points="28504.5 3751.64 28495.6 3782.8 28475.6 3766.58 28496.7 3745.49 28497 3724.63 28535.7 3745.44"/></g><g transform="translate(-2390.236050700001 2427.6090424999998) rotate(0)"><polygon fill="none" stroke="#231F20" stroke-width="1" points="30758.1 3008.45 30744.5 3022.78 30734.5 3017.86 30713.5 2986.94 30758.2 2983.26 30752.9 2997.52"/></g><g transform="translate(26837.853179499998 1752.1778696000001) rotate(0)"><polygon fill="none" stroke="#231F20" stroke-width="1" points="1527.11 3773.34 1509.74 3767.28 1495.41 3750.53 1477.71 3747.87 1495.14 3740.71 1520.08 3724.63"/></g><g transform="translate(44105.6758999 6826.712825599998) rotate(180)"><polygon fill="none" stroke="#231F20" stroke-width="1" points="15774.8 1523.61 15756.6 1512.08 15730.7 1519.43 15729.2 1493.92 15747.6 1492.72 15763.1 1480.43"/></g><g transform="translate(25351.256941100004 31855.856258300002) rotate(270)"><polygon fill="none" stroke="#231F20" stroke-width="1" points="26276 3026.29 26255.8 3014.9 26229.9 3004.85 26228.1 2996.28 26258.8 2978.11 26264.9 2997.65"/></g><g transform="translate(62108.0083695 7982.953197999996) rotate(180)"><polygon fill="none" stroke="#231F20" stroke-width="1" points="33773.4 2255.35 33753.1 2259.24 33742.1 2260.76 33731.5 2245.06 33755.1 2211.54 33761.2 2233.56"/></g><g transform="translate(25362.567127200004 8657.2470876) rotate(270)"><polygon fill="none" stroke="#231F20" stroke-width="1" points="3006.77 3001.52 3004.46 3037.75 2986.47 3011.14 2977.86 2996.12 3002.92 2970.49 3005.83 2998.06"/></g><g transform="translate(20876.525747 2706.1550738000005) rotate(0)"><polygon fill="none" stroke="#231F20" stroke-width="1" points="7514.66 3012.79 7504.94 3023.26 7462.07 3000.73 7488.3 2985.29 7490.97 2971.99 7502.36 2996.87"/></g><g transform="translate(7351.2814516 4790.613001299999) rotate(0)"><polygon fill="none" stroke="#231F20" stroke-width="1" points="21034.8 758.355 21006.8 768.272 20992.5 757.352 20987 744.471 20998.8 745.029 21024 727.903"/></g><g transform="translate(27617.3676827 21775.6482416) rotate(270)"><polygon fill="none" stroke="#231F20" stroke-width="1" points="16511.8 763.856 16508.7 777.62 16488.9 751.82 16484.4 740.162 16501.5 736.895 16525.6 722.899"/></g><g transform="translate(3620.5338787 4309.8207848) rotate(0)"><polygon fill="none" stroke="#231F20" stroke-width="1" points="24765.6 1502.59 24735.1 1531.98 24737.4 1516.53 24744.5 1493.45 24752.1 1469.2 24763.2 1478.03"/></g><g transform="translate(-7629.592397299999 1105.4825918999995) rotate(0)"><polygon fill="none" stroke="#231F20" stroke-width="1" points="36029.9 4505.45 35988.7 4535.15 35995.9 4501.46 35996.8 4497.25 36009.4 4469.38 36015.1 4493.11"/></g><g transform="translate(32118.4512487 -2017.3198089999996) rotate(90)"><polygon fill="none" stroke="#231F20" stroke-width="1" points="7525.52 3755.99 7501.08 3756.45 7464.96 3761.61 7492.05 3742.66 7490.8 3721.27 7528.91 3748.68"/></g><g transform="translate(10375.167201699998 1416.101522) rotate(0)"><polygon fill="none" stroke="#231F20" stroke-width="1" points="18028 4508.9 17999.7 4505.54 17966.7 4508.67 17983 4478.87 17999.2 4493.35 18011.6 4480.35"/></g><g transform="translate(26139.486369200007 37630.6893549) rotate(270)"><polygon fill="none" stroke="#231F20" stroke-width="1" points="32256.1 2254.54 32254.4 2264.84 32243.8 2258.6 32214.3 2246.96 32262.2 2220.5 32261.5 2241.28"/></g><g transform="translate(26133.117409500002 20134.962493) rotate(270)"><polygon fill="none" stroke="#231F20" stroke-width="1" points="14268.4 2278.63 14250.3 2258.03 14240.6 2253.15 14235.2 2230.36 14250.9 2221.78 14270 2249.34"/></g><g transform="translate(29135.662186200003 1701.8486479999997) rotate(90)"><polygon fill="none" stroke="#231F20" stroke-width="1" points="3770.69 751.528 3745.79 778.819 3738.9 753.824 3709.83 746.612 3746.31 739.934 3764.53 739.279"/></g><g transform="translate(7381.912489999999 3797.985423) rotate(0)"><polygon fill="none" stroke="#231F20" stroke-width="1" points="21017.5 1514.39 20997.5 1509.07 20960.3 1502.48 20990.4 1497.82 20992.2 1485.61 21024.4 1482.25"/></g><g transform="translate(25385.797073700003 23078.7204302) rotate(270)"><polygon fill="none" stroke="#231F20" stroke-width="1" points="17263.7 3008.45 17258 3015.92 17226.9 3008.59 17224.2 2984.25 17238.9 2973.53 17254.4 2993.63"/></g><g transform="translate(32880.7848057 -22741.2667756) rotate(90)"><polygon fill="none" stroke="#231F20" stroke-width="1" points="28520 4505.43 28500.1 4505.06 28481.4 4504.65 28483.2 4477.27 28503 4465.22 28510.2 4489.17"/></g><g transform="translate(32893.886463300005 -1392.6531945999996) rotate(90)"><polygon fill="none" stroke="#231F20" stroke-width="1" points="6763.05 4509.06 6740.1 4526.9 6717.05 4511.9 6738.77 4489.67 6747.23 4487.51 6755 4494.97"/></g><g transform="translate(47899.992750000005 9992.000435999997) rotate(180)"><polygon fill="none" stroke="#231F20" stroke-width="1" points="19512.9 4504.49 19485 4535.05 19495 4502.23 19490.6 4493.3 19493.6 4480.28 19524.5 4472.65"/></g><g transform="translate(31405.5639053 -10932.5636512) rotate(90)"><polygon fill="none" stroke="#231F20" stroke-width="1" points="16507.6 3004.7 16507.4 3032.34 16468 3012.69 16493.6 2991.81 16500.7 2995.89 16516.7 2985.19"/></g><g transform="translate(23892.258311800004 26681.3401188) rotate(270)"><polygon fill="none" stroke="#231F20" stroke-width="1" points="21009.6 4504.19 20999.2 4523.48 20978.5 4504.51 20987.2 4497.65 21003.9 4474.46 21013.2 4489.26"/></g><g transform="translate(50907.727215 11051.030496299998) rotate(180)"><polygon fill="none" stroke="#231F20" stroke-width="1" points="22531.8 5272.6 22499.6 5283.4 22491.4 5258.43 22493.1 5249.04 22501.5 5237.29 22508.4 5244.55"/></g><g transform="translate(32894.2118491 -9367.5064466) rotate(90)"><polygon fill="none" stroke="#231F20" stroke-width="1" points="15019.4 4506.49 14998.7 4506.26 14989.3 4508.94 14985.6 4495.68 14989.1 4478.56 15021 4480.14"/></g><g transform="translate(56161.970182699995 6175.707383599996) rotate(180)"><polygon fill="none" stroke="#231F20" stroke-width="1" points="27769.6 772.567 27744.5 771.653 27742.8 750.707 27747.5 746.791 27762.2 722.882 27767.6 735.527"/></g><g transform="translate(41896.0043552 6469.319946199998) rotate(180)"><polygon fill="none" stroke="#231F20" stroke-width="1" points="13504.4 751.009 13500.9 760.746 13480.8 766.117 13478.3 717.539 13496.5 730.263 13507.7 738.78"/></g><g transform="translate(29163.700278399996 -17930.1993846) rotate(90)"><polygon fill="none" stroke="#231F20" stroke-width="1" points="23282.7 754.537 23243.7 784.762 23243.6 753.457 23244.3 747.152 23252.2 745.763 23269.5 748.79"/></g><g transform="translate(43403.8615788 6012.796217599998) rotate(180)"><polygon fill="none" stroke="#231F20" stroke-width="1" points="15037.6 757.118 15006.1 762.796 14982.3 754.883 14979 735.862 14984.4 720.366 15004 747.725"/></g><g transform="translate(34588.1433773 10743.2718042) rotate(180)"><polygon fill="none" stroke="#231F20" stroke-width="1" points="6779.4 5266.11 6748.9 5255.37 6739.54 5250.96 6746.38 5246.79 6757.74 5229.9 6779.39 5242.56"/></g><g transform="translate(-3845.1231254000013 1782.8489801000005) rotate(0)"><polygon fill="none" stroke="#231F20" stroke-width="1" points="32257.2 3754.4 32252.1 3768.94 32245.3 3757.97 32226.2 3738.95 32260.8 3726.4 32267 3722.69"/></g><g transform="translate(26901.8213297 26140.877587) rotate(270)"><polygon fill="none" stroke="#231F20" stroke-width="1" points="20270.5 1508.33 20250.7 1511.31 20235.5 1522.96 20219.9 1499.05 20252.3 1492.7 20257.7 1491.01"/></g><g transform="translate(29374.0314113 -26341.873618999998) rotate(90)"><polygon fill="none" stroke="#231F20" stroke-width="1" points="32259 1511.83 32244.7 1518.85 32244.8 1507.65 32236.5 1494.64 32255.1 1460.08 32260.5 1482.7"/></g><g transform="translate(28511.5837694 -10098.6505181) rotate(90)"><polygon fill="none" stroke="#231F20" stroke-width="1" points="15783.9 761.584 15752.9 757.316 15729.4 760.352 15731 747.041 15750.6 744.869 15779 748.566"/></g><g transform="translate(31411.0387567 -27148.6921196) rotate(90)"><polygon fill="none" stroke="#231F20" stroke-width="1" points="33011.8 3005.99 33004.4 3015.2 32966.7 3003.85 32995.7 2998.74 32999.7 2986.14 33017.7 2989.29"/></g><g transform="translate(6420.967078099999 658.1696714999998) rotate(0)"><polygon fill="none" stroke="#231F20" stroke-width="1" points="21787.7 5263.44 21751.6 5254.26 21716.5 5266.83 21738 5243.88 21750.8 5237.32 21763.2 5241.57"/></g><g transform="translate(29149.7146677 -20660.5435372) rotate(90)"><polygon fill="none" stroke="#231F20" stroke-width="1" points="26266 753.222 26245 767.587 26237.6 755.509 26239.6 746.128 26245.4 733.293 26266.9 734.709"/></g><g transform="translate(40679.7759215 7420.204544899998) rotate(180)"><polygon fill="none" stroke="#231F20" stroke-width="1" points="12759.6 1504.65 12752.8 1526.56 12743.1 1508.96 12717.4 1498.12 12750.8 1495.97 12780 1499"/></g><g transform="translate(29853.1811972 5580.8273314) rotate(90)"><polygon fill="none" stroke="#231F20" stroke-width="1" points="11.4488 1515.63 -0.580826 1511.67 -6.42948 1508.68 -21.414 1498.42 -10.2513 1480.6 4.87176 1493.85"/></g><g transform="translate(31201.5643164 -14482.7408288) rotate(90)"><polygon fill="none" stroke="#231F20" stroke-width="1" points="20259.9 3008.18 20245.5 3012.76 20238.6 3004.71 20246.6 2996.63 20241.8 2984.48 20273.1 2982.22"/></g><g transform="translate(17383.0021184 4046.4827517000003) rotate(0)"><polygon fill="none" stroke="#231F20" stroke-width="1" points="10509.2 1503.08 10501.6 1520.14 10477.9 1509.46 10489.7 1489.81 10501 1488.12 10505 1497.89"/></g><g transform="translate(14615.192083400001 3297.1663089999997) rotate(0)"><polygon fill="none" stroke="#231F20" stroke-width="1" points="13514.7 2258.64 13493.5 2267.23 13489.7 2263.88 13489.5 2248.68 13499.3 2236.32 13516.4 2241.36"/></g><g transform="translate(24838.651218200008 33413.5787063) rotate(270)"><polygon fill="none" stroke="#231F20" stroke-width="1" points="27756.4 3002.42 27737.7 3031.65 27742.6 3003.81 27724.7 2978 27752 2990.92 27757.4 2991.63"/></g><g transform="translate(32453.5071184 -11619.2144457) rotate(90)"><polygon fill="none" stroke="#231F20" stroke-width="1" points="17254.9 4505.7 17252.1 4504.79 17238.7 4515.4 17241.2 4498.94 17245.6 4491.94 17277.2 4487.48"/></g><g transform="translate(28716.398565599997 -2236.6698722) rotate(90)"><polygon fill="none" stroke="#231F20" stroke-width="1" points="7503.58 755.577 7491.57 774.524 7486.67 766.452 7491.56 739.417 7506.78 735.544 7511.37 743.558"/></g><g transform="translate(32603.8494328 -18324.7886497) rotate(90)"><polygon fill="none" stroke="#231F20" stroke-width="1" points="24017.5 4501.03 23998 4504.65 23981.5 4512.79 23994.1 4490.59 23999.3 4494.25 24031.2 4490.01"/></g><g transform="translate(36769.4628465 6816.079002499999) rotate(180)"><polygon fill="none" stroke="#231F20" stroke-width="1" points="9019.46 1531.14 9010.05 1519.42 8990.51 1509.98 8996.45 1497.3 9000.92 1496.08 9008.45 1488.45"/></g><g transform="translate(29155.734610799995 -29134.9514395) rotate(90)"><polygon fill="none" stroke="#231F20" stroke-width="1" points="34507 752.556 34502.4 765.657 34496.1 752.368 34485 733.256 34499.5 736.822 34520.1 749.025"/></g><g transform="translate(28564.326262499995 -25021.1195963) rotate(90)"><polygon fill="none" stroke="#231F20" stroke-width="1" points="30754.9 750.334 30743.3 765.292 30735.6 751.516 30744.6 748.91 30754.1 727.301 30762.4 746.902"/></g><g transform="translate(48829.0262982 8133.078513199996) rotate(180)"><polygon fill="none" stroke="#231F20" stroke-width="1" points="21016.5 2250.4 20992.7 2267.28 20988.3 2263.24 20997.4 2247.27 21000.6 2216.66 21003.8 2247.87"/></g><g transform="translate(32413.858012200002 -1980.2956218999998) rotate(90)"><polygon fill="none" stroke="#231F20" stroke-width="1" points="7511.46 4500.21 7500.08 4504.1 7489.94 4510.56 7493.67 4499.02 7512.14 4474.98 7508.94 4498.04"/></g><g transform="translate(26331.922271700005 17605.254077999998) rotate(270)"><polygon fill="none" stroke="#231F20" stroke-width="1" points="12004 1503.72 11997.8 1507.55 11995.4 1503.45 11993 1496.51 11998.6 1495.57 12020.3 1490.18"/></g><g transform="translate(15115.447910199999 1188.2807298999996) rotate(0)"><polygon fill="none" stroke="#231F20" stroke-width="1" points="12757.7 4502.56 12754.9 4508.97 12743.9 4504.11 12735.8 4484.98 12750.8 4492.16 12755.3 4496.14"/></g></g></svg>