<svg xmlns="http://www.w3.org/2000/svg" width="9.375in" height="10.312500000000002in" viewBox="0 0 675 742.5000000000001"><g transform="translate(-5250 -5250)"><g transform="translate(25410.895829687546 -22062.455394978853) rotate(120)"><polygon fill="none" stroke="#231F20" stroke-width="1" points="33785.3 3773.85 33721.3 3782.16 33728.3 3713.13 33772.3 3720.88"/></g><g transform="translate(9984.69003697193 6282.535360792735) rotate(120)"><polygon fill="none" stroke="#231F20" stroke-width="1" points="1529.79 4527.27 1467.7 4526.14 1481.85 4467.97 1526.12 4472.83"/></g><g transform="translate(21318.85894244036 -19221.68530295102) rotate(120)"><polygon fill="none" stroke="#231F20" stroke-width="1" points="29285.9 1515.2 29236.2 1531.54 29220.1 1478.58 29281.4 1475.09"/></g><g transform="translate(17985.59282299164 -13349.902544817915) rotate(120)"><polygon fill="none" stroke="#231F20" stroke-width="1" points="22529.6 1524.29 22471.3 1525.08 22471.8 1466.72 22524.9 1486.43"/></g><g transform="translate(-6871.231394729677 -18739.67868013213) rotate(60)"><polygon fill="none" stroke="#231F20" stroke-width="1" points="27020.9 1526.38 26974.4 1510.3 26989.5 1464.86 27036.9 1466.82"/></g><g transform="translate(-10386.229442594235 -26286.08605416379) rotate(60)"><polygon fill="none" stroke="#231F20" stroke-width="1" points="35270.1 2283.76 35219.5 2274.12 35215.8 2240.14 35265.8 2216.34"/></g><g transform="translate(-8302.695310326097 -19632.71829775156) rotate(60)"><polygon fill="none" stroke="#231F20" stroke-width="1" points="28530.7 777.245 28475.8 780.392 28463.5 717.136 28537 749.998"/></g><g transform="translate(14235.557712345788 29759.362622032007) rotate(240)"><polygon fill="none" stroke="#231F20" stroke-width="1" points="25525 4520.72 25471.9 4533.19 25465.8 4488.28 25500.8 4462.93"/></g><g transform="translate(11920.892917650734 19858.988093850236) rotate(240)"><polygon fill="none" stroke="#231F20" stroke-width="1" points="15774.7 1516.6 15715.5 1524.55 15742.9 1463.77 15776 1466.71"/></g><g transform="translate(18193.4005857 9180.968189599998) rotate(180)"><polygon fill="none" stroke="#231F20" stroke-width="1" points="12756.2 3768.03 12714.5 3753.29 12715 3715.21 12783.5 3720.31"/></g><g transform="translate(8739.284517313445 3541.027401952152) rotate(60)"><polygon fill="none" stroke="#231F20" stroke-width="1" points="31.2204 3753.1 -31.8047 3784.69 -33.3494 3724.29 3.94497 3723.63"/></g><g transform="translate(8256.828446148545 11666.278134474476) rotate(240)"><polygon fill="none" stroke="#231F20" stroke-width="1" points="6785.55 771.767 6717.53 780.876 6743.82 713.363 6764.23 727.346"/></g><g transform="translate(4082.3224551825297 198.41366214374466) rotate(60)"><polygon fill="none" stroke="#231F20" stroke-width="1" points="5284.55 1532.86 5215.53 1513.1 5233.14 1463.62 5268.56 1489.85"/></g><g transform="translate(9796.97134105619 15995.592147742405) rotate(240)"><polygon fill="none" stroke="#231F20" stroke-width="1" points="11278 1529.48 11234.5 1515.12 11234.1 1470.51 11283.4 1469.99"/></g><g transform="translate(875.3432571000003 1020.3928957000007) rotate(0)"><polygon fill="none" stroke="#231F20" stroke-width="1" points="4520.13 4514.48 4467.08 4533.5 4467.31 4480.46 4502.63 4466.82"/></g><g transform="translate(19674.317434534158 31867.99028625302) rotate(240)"><polygon fill="none" stroke="#231F20" stroke-width="1" points="30008.5 776.871 29990.1 765.663 29966.6 719.516 30036.8 718.473"/></g><g transform="translate(21716.507212057022 -18063.462658652137) rotate(120)"><polygon fill="none" stroke="#231F20" stroke-width="1" points="28521.6 2269.23 28487 2275.75 28474.1 2223.11 28526 2215.71"/></g><g transform="translate(17474.7111592 8540.347761199999) rotate(180)"><polygon fill="none" stroke="#231F20" stroke-width="1" points="12010.1 3015.63 11964.2 3024.19 11972.4 2969.03 12035 2988.51"/></g><g transform="translate(-7063.8001360971875 -17548.504726852476) rotate(60)"><polygon fill="none" stroke="#231F20" stroke-width="1" points="26274.7 781.824 26225.8 750.664 26228.5 728.602 26282.4 715.802"/></g><g transform="translate(1585.7000236999997 1072.0567046999995) rotate(0)"><polygon fill="none" stroke="#231F20" stroke-width="1" points="3781.27 4533.19 3719.74 4530.71 3742.61 4462.56 3764.14 4491.97"/></g><g transform="translate(8595.416858095516 16736.436826573598) rotate(240)"><polygon fill="none" stroke="#231F20" stroke-width="1" points="11280.1 3016.54 11225.1 3037.36 11230.4 2965.71 11272.6 2997.88"/></g><g transform="translate(16885.417322350862 -8520.220819673934) rotate(120)"><polygon fill="none" stroke="#231F20" stroke-width="1" points="18008.7 3029.85 17968.5 3027.64 17977.6 2975.83 18027.4 2985.36"/></g><g transform="translate(17437.387553380293 -11118.650666494188) rotate(120)"><polygon fill="none" stroke="#231F20" stroke-width="1" points="20263.1 2284.1 20225.2 2280.51 20230.8 2240.18 20276.1 2215.18"/></g><g transform="translate(13668.7461812 9066.165496599999) rotate(180)"><polygon fill="none" stroke="#231F20" stroke-width="1" points="8286.82 3784.12 8222.01 3759.2 8241.47 3722.05 8277.97 3740.32"/></g><g transform="translate(-29787.8707155 1571.1213185000001) rotate(0)"><polygon fill="none" stroke="#231F20" stroke-width="1" points="35283.8 3773.65 35231.1 3785.41 35227.5 3749.44 35254.9 3718.54"/></g><g transform="translate(19303.28296726593 33763.0547635078) rotate(240)"><polygon fill="none" stroke="#231F20" stroke-width="1" points="31520.5 2281.88 31475.7 2286.01 31465.2 2246.5 31510.4 2229.99"/></g><g transform="translate(-2728.0687401782425 -14795.419704811606) rotate(60)"><polygon fill="none" stroke="#231F20" stroke-width="1" points="21776.3 3033.72 21729.7 3036.94 21745.3 2968.29 21770.2 2982.81"/></g><g transform="translate(14286.430689108123 22009.02205840348) rotate(240)"><polygon fill="none" stroke="#231F20" stroke-width="1" points="18771 759.774 18738.7 777.234 18720.6 726.56 18778.6 718.356"/></g><g transform="translate(-12548.3345012677 27871.255463893543) rotate(300)"><polygon fill="none" stroke="#231F20" stroke-width="1" points="28523 4525.29 28480.8 4528.52 28466.5 4488.65 28527.7 4483.14"/></g><g transform="translate(37521.0778145 7720.422494799996) rotate(180)"><polygon fill="none" stroke="#231F20" stroke-width="1" points="32268.8 2284.93 32239.5 2268.31 32216.4 2232.94 32269.3 2215.67"/></g><g transform="translate(9640.034253159083 2321.956924402072) rotate(60)"><polygon fill="none" stroke="#231F20" stroke-width="1" points="754.608 5280.7 721.338 5253.86 738.621 5214.09 777.678 5221.74"/></g><g transform="translate(-26852.0989101 2620.9914528000004) rotate(0)"><polygon fill="none" stroke="#231F20" stroke-width="1" points="32274.8 3000.86 32217.9 3021.48 32219.5 2968.74 32285.8 2985.24"/></g><g transform="translate(292.36214319225564 11391.227194263894) rotate(300)"><polygon fill="none" stroke="#231F20" stroke-width="1" points="7527.49 1512.82 7477.06 1533.69 7490.16 1476.62 7534.65 1476.11"/></g><g transform="translate(2414.6905003 3021.9130602000005) rotate(0)"><polygon fill="none" stroke="#231F20" stroke-width="1" points="3035.67 2286.53 2994.44 2269.81 2967.25 2242.83 3026.21 2229.63"/></g><g transform="translate(6382.797143691056 16360.989907451854) rotate(240)"><polygon fill="none" stroke="#231F20" stroke-width="1" points="9781.68 4530.91 9732.61 4514.92 9737.4 4488.53 9784.12 4471.5"/></g><g transform="translate(5511.81577946678 1278.3325840239659) rotate(60)"><polygon fill="none" stroke="#231F20" stroke-width="1" points="3778.56 2258.55 3716.93 2256.5 3727.02 2215.86 3776.88 2225.89"/></g><g transform="translate(17659.064962836474 -12460.890297990634) rotate(120)"><polygon fill="none" stroke="#231F20" stroke-width="1" points="21780.4 1501.22 21740.3 1512.5 21714.1 1468.28 21779.2 1470.39"/></g><g transform="translate(21394.44792059409 -16264.825963928026) rotate(120)"><polygon fill="none" stroke="#231F20" stroke-width="1" points="27006.1 3036.97 26984.4 3006.06 26974.8 2975.28 27030.6 2967.74"/></g><g transform="translate(-5536.926289186388 15384.949506555384) rotate(300)"><polygon fill="none" stroke="#231F20" stroke-width="1" points="14259 4536.79 14213.7 4535.44 14239.7 4490.04 14274.9 4474.86"/></g><g transform="translate(-20672.2202405 3861.5109773999993) rotate(0)"><polygon fill="none" stroke="#231F20" stroke-width="1" points="26276.5 1534.03 26216.5 1504.2 26222.2 1476.1 26260.6 1477.48"/></g><g transform="translate(135.33613758658248 7428.26891084578) rotate(300)"><polygon fill="none" stroke="#231F20" stroke-width="1" points="4503.87 3781.37 4482.34 3778.53 4481.63 3714.25 4526.93 3733.5"/></g><g transform="translate(18312.0875603 6057.119127999998) rotate(180)"><polygon fill="none" stroke="#231F20" stroke-width="1" points="12765.2 769.989 12720.5 755.944 12718.6 735.799 12779.2 713.154"/></g><g transform="translate(1996.922752091482 10182.283427719409) rotate(300)"><polygon fill="none" stroke="#231F20" stroke-width="1" points="6026.05 753.064 5993.73 764.981 5963.8 715.657 6028.42 722.577"/></g><g transform="translate(17252.3105739981 -7364.380430378945) rotate(120)"><polygon fill="none" stroke="#231F20" stroke-width="1" points="17270.7 3775.42 17219 3777.13 17242.9 3723.08 17260 3712.74"/></g><g transform="translate(-20073.5058149 1957.6426142999994) rotate(0)"><polygon fill="none" stroke="#231F20" stroke-width="1" points="25528.2 3779.81 25480.4 3766.76 25488.3 3723.39 25518.4 3721.86"/></g><g transform="translate(10597.73775819429 15422.29653346704) rotate(240)"><polygon fill="none" stroke="#231F20" stroke-width="1" points="11262.2 759.321 11213.6 781.12 11244.3 717.311 11285 730.632"/></g><g transform="translate(18718.73587200213 -16029.420725182463) rotate(120)"><polygon fill="none" stroke="#231F20" stroke-width="1" points="25535.4 753.227 25470 770.765 25483.2 724.967 25505.9 715.641"/></g><g transform="translate(-609.3692698080986 -10074.693257104505) rotate(60)"><polygon fill="none" stroke="#231F20" stroke-width="1" points="16525.8 2275.54 16465.6 2276.41 16482.5 2231.01 16518.6 2242.07"/></g><g transform="translate(-15105.549809602986 31999.00328711387) rotate(300)"><polygon fill="none" stroke="#231F20" stroke-width="1" points="33017.5 4509.11 32968.1 4526.1 32965.6 4498.66 33025.3 4463.46"/></g><g transform="translate(16517.18835475947 29594.257731538884) rotate(240)"><polygon fill="none" stroke="#231F20" stroke-width="1" points="26277.8 2270.45 26241.3 2278.59 26227.4 2234.22 26260.5 2216.72"/></g><g transform="translate(1643.379397369677 6188.792610163666) rotate(300)"><polygon fill="none" stroke="#231F20" stroke-width="1" points="2283.38 3035.9 2216.85 3032.12 2241.64 2995.71 2275.96 2998.86"/></g><g transform="translate(-8058.826842574892 24299.381358673607) rotate(300)"><polygon fill="none" stroke="#231F20" stroke-width="1" points="23283.8 2272.98 23233.2 2285.1 23248.3 2237.75 23282.6 2228.37"/></g><g transform="translate(8806.571028325387 13292.350258372524) rotate(240)"><polygon fill="none" stroke="#231F20" stroke-width="1" points="8255.65 759.289 8232.39 785.401 8214.79 729.227 8277.44 727.151"/></g><g transform="translate(14678.821095425108 26416.033212282255) rotate(240)"><polygon fill="none" stroke="#231F20" stroke-width="1" points="22515.3 2284.8 22487.1 2264.1 22485.3 2213.64 22521.3 2221.22"/></g><g transform="translate(20530.04065578656 -13166.603689074429) rotate(120)"><polygon fill="none" stroke="#231F20" stroke-width="1" points="24034.5 3759.99 23965.1 3761.31 23990 3735.37 24034.4 3717.14"/></g><g transform="translate(5862.661875404663 3763.4088019974333) rotate(60)"><polygon fill="none" stroke="#231F20" stroke-width="1" points="1532.77 1505.1 1464.7 1537.29 1471.74 1494.92 1511.87 1485.16"/></g><g transform="translate(-7686.149547901888 26908.102880145616) rotate(300)"><polygon fill="none" stroke="#231F20" stroke-width="1" points="24759.4 783.564 24718.5 757.965 24717.8 729.554 24773.3 741.468"/></g><g transform="translate(20219.150021031783 36206.617191983) rotate(240)"><polygon fill="none" stroke="#231F20" stroke-width="1" points="33770.2 2263.56 33742.1 2283.42 33730.3 2233.08 33772.7 2216.29"/></g><g transform="translate(18690.65611985523 -8232.763424150342) rotate(120)"><polygon fill="none" stroke="#231F20" stroke-width="1" points="18756 4518.19 18734 4514.35 18712.9 4469.99 18773.1 4474.29"/></g><g transform="translate(17024.976389039854 -9866.217431828107) rotate(120)"><polygon fill="none" stroke="#231F20" stroke-width="1" points="19529.9 2280.06 19485 2286.32 19489.9 2233.25 19527.7 2247.12"/></g><g transform="translate(5992.3826300038 -2401.6426977175815) rotate(60)"><polygon fill="none" stroke="#231F20" stroke-width="1" points="6774.37 4533.13 6725.08 4511.76 6737.7 4485.95 6770.92 4473.52"/></g><g transform="translate(-8422.08237578511 -20098.32920065769) rotate(60)"><polygon fill="none" stroke="#231F20" stroke-width="1" points="29259.3 783.587 29215.6 754.447 29232.4 712.851 29261.7 743.018"/></g><g transform="translate(33357.1769181 9287.928431599998) rotate(180)"><polygon fill="none" stroke="#231F20" stroke-width="1" points="27774.7 3776.52 27743.3 3786.94 27745.9 3725.81 27784.1 3735.21"/></g><g transform="translate(13327.454361527063 -4827.223403510398) rotate(120)"><polygon fill="none" stroke="#231F20" stroke-width="1" points="12776 1515.8 12727.5 1536.77 12732.5 1494.92 12770.9 1476.73"/></g><g transform="translate(13174.1452771 7651.358604599999) rotate(180)"><polygon fill="none" stroke="#231F20" stroke-width="1" points="7508.38 2268.53 7481.85 2280.9 7467.71 2223.71 7512.56 2228.58"/></g><g transform="translate(-1974.266104639547 -15423.915709696834) rotate(60)"><polygon fill="none" stroke="#231F20" stroke-width="1" points="21787.4 3750.79 21720.9 3784.46 21730.4 3747.84 21766.5 3725.44"/></g><g transform="translate(366.3533690355216 -5405.996986608929) rotate(60)"><polygon fill="none" stroke="#231F20" stroke-width="1" points="12002.4 777.781 11995 775.059 11977.2 721.552 12035.2 726.026"/></g><g transform="translate(-1109.1001703000002 2510.1914716999995) rotate(0)"><polygon fill="none" stroke="#231F20" stroke-width="1" points="6758.37 3001.39 6724.4 3019.11 6724.25 2964.19 6777.89 2988.07"/></g><g transform="translate(-19044.659004200003 1550.5382443999997) rotate(0)"><polygon fill="none" stroke="#231F20" stroke-width="1" points="24766.7 3785.82 24731.4 3752.09 24745.6 3724.87 24776.4 3717.61"/></g><g transform="translate(-30252.3537164 4561.0484422) rotate(0)"><polygon fill="none" stroke="#231F20" stroke-width="1" points="36026.4 786.494 35976.1 763.363 35989.4 722.795 36010.5 730.049"/></g><g transform="translate(5087.779732233021 -4588.506571047984) rotate(60)"><polygon fill="none" stroke="#231F20" stroke-width="1" points="9004.31 4532.55 8962.52 4501.07 8989.51 4478.45 9018.19 4474.13"/></g><g transform="translate(26590.6798417 7843.414439499997) rotate(180)"><polygon fill="none" stroke="#231F20" stroke-width="1" points="21008.7 2285.15 20987.2 2283.2 20990.8 2234.6 21029.9 2213.66"/></g><g transform="translate(7247.76382392802 14040.339770787847) rotate(240)"><polygon fill="none" stroke="#231F20" stroke-width="1" points="8255.21 3023.97 8218.8 3012.17 8226.43 2970.27 8269.11 2987.78"/></g><g transform="translate(1930.6034133165276 -3516.7366257679396) rotate(60)"><polygon fill="none" stroke="#231F20" stroke-width="1" points="9784.33 1507.3 9724.47 1529.22 9738.78 1492.26 9756.8 1465.22"/></g><g transform="translate(14014.3504092 6786.745913399999) rotate(180)"><polygon fill="none" stroke="#231F20" stroke-width="1" points="8264.61 1536.75 8222.6 1513.87 8215.05 1471.01 8253.54 1486.28"/></g><g transform="translate(-9979.8258859 2377.2969072000005) rotate(0)"><polygon fill="none" stroke="#231F20" stroke-width="1" points="15763.2 3000.69 15748.9 3034.42 15720.1 2968.28 15769.6 2971.16"/></g><g transform="translate(-21204.6920728 4572.3253576) rotate(0)"><polygon fill="none" stroke="#231F20" stroke-width="1" points="27018.3 781.266 26977.9 767.277 26967.9 736.554 27032 748.726"/></g><g transform="translate(23177.430194419314 -23321.87990063425) rotate(120)"><polygon fill="none" stroke="#231F20" stroke-width="1" points="33783.5 778.015 33743.8 767.843 33712.7 738.58 33763.6 731.068"/></g><g transform="translate(13776.242007818224 22464.207929332788) rotate(240)"><polygon fill="none" stroke="#231F20" stroke-width="1" points="18757.7 1513.8 18736.4 1529.09 18714.1 1469.2 18753.2 1469.47"/></g><g transform="translate(-10016.1498969 4692.1272687) rotate(0)"><polygon fill="none" stroke="#231F20" stroke-width="1" points="15773.5 752.745 15747.3 779.717 15725.2 746.896 15780.1 714.396"/></g><g transform="translate(4323.973622 1515.6394075000003) rotate(0)"><polygon fill="none" stroke="#231F20" stroke-width="1" points="1524.15 3784.89 1464.33 3755.36 1487.56 3734.36 1523.45 3745.91"/></g><g transform="translate(9099.851282129963 2489.9984705750157) rotate(120)"><polygon fill="none" stroke="#231F20" stroke-width="1" points="4526.16 1518.58 4496.56 1500.34 4474.01 1480.94 4531.14 1471.92"/></g><g transform="translate(9577.444543303525 15423.928267226258) rotate(240)"><polygon fill="none" stroke="#231F20" stroke-width="1" points="10516.2 1519.93 10467.5 1522.32 10477.2 1485.97 10526.1 1488.24"/></g><g transform="translate(9086.23161525986 20994.139463492334) rotate(240)"><polygon fill="none" stroke="#231F20" stroke-width="1" points="15031 4517.05 14970.6 4519.85 14970.3 4493.75 15034.1 4489.56"/></g><g transform="translate(-13334.040664600001 2042.5260144) rotate(0)"><polygon fill="none" stroke="#231F20" stroke-width="1" points="18773.7 3783.09 18724.6 3778.95 18738.2 3749.24 18783.7 3742.56"/></g><g transform="translate(-859.9344579069239 6314.447520900646) rotate(300)"><polygon fill="none" stroke="#231F20" stroke-width="1" points="3753.01 5266.91 3720.02 5278.03 3727.6 5220.03 3761.6 5226.03"/></g><g transform="translate(-9132.209655290195 29499.506660152496) rotate(300)"><polygon fill="none" stroke="#231F20" stroke-width="1" points="27777 785.68 27741.8 767.473 27735.6 713.222 27764.8 728.858"/></g><g transform="translate(11596.5691438 9417.6369003) rotate(180)"><polygon fill="none" stroke="#231F20" stroke-width="1" points="6017.91 3783.3 5971.48 3774.05 5994.02 3746.48 6033.32 3733.02"/></g><g transform="translate(-4217.0206221 2728.9251532999997) rotate(0)"><polygon fill="none" stroke="#231F20" stroke-width="1" points="9753.81 3023.4 9712.93 3010.21 9713.21 2979.47 9762.38 2984.09"/></g><g transform="translate(40915.8833542 6325.283155699995) rotate(180)"><polygon fill="none" stroke="#231F20" stroke-width="1" points="35270.1 766.918 35213.5 785.875 35249.9 715.622 35250.4 719.328"/></g><g transform="translate(-388.0659277938548 -13355.58065732428) rotate(60)"><polygon fill="none" stroke="#231F20" stroke-width="1" points="19526.6 4535.32 19476.5 4502.52 19489 4494 19522.4 4473.15"/></g><g transform="translate(-1361.7762149 4075.1482298) rotate(0)"><polygon fill="none" stroke="#231F20" stroke-width="1" points="6758.24 1521.81 6731.61 1512.37 6713.27 1477.12 6760.28 1469.32"/></g><g transform="translate(3516.7228027488322 9457.272812388292) rotate(240)"><polygon fill="none" stroke="#231F20" stroke-width="1" points="2273 3775.83 2224.06 3752.99 2215.81 3719.08 2269.09 3741.3"/></g><g transform="translate(18888.165126431722 -14328.725323453911) rotate(120)"><polygon fill="none" stroke="#231F20" stroke-width="1" points="24034.9 1501.71 23978.5 1519.06 23981.5 1484.74 24001.6 1466.4"/></g><g transform="translate(10377.226037280385 3378.429955611291) rotate(120)"><polygon fill="none" stroke="#231F20" stroke-width="1" points="4520.42 3002.22 4481.65 3028.8 4468.01 2970.57 4516.16 2989.03"/></g><g transform="translate(-7931.7676154 771.6652020000001) rotate(0)"><polygon fill="none" stroke="#231F20" stroke-width="1" points="13532 4511.22 13488.4 4514.67 13476.8 4481.11 13527.7 4478.63"/></g><g transform="translate(-9640.1806694 2896.9815283) rotate(0)"><polygon fill="none" stroke="#231F20" stroke-width="1" points="15025.5 3022.87 14999 3013.51 14971.5 2982.35 15024.4 2974.3"/></g><g transform="translate(15310.724302241826 -2248.6188443653846) rotate(120)"><polygon fill="none" stroke="#231F20" stroke-width="1" points="12013.8 4525.41 11974.9 4531.53 11976.1 4471.62 12001.3 4485.75"/></g><g transform="translate(-2121.640667551568 14472.363315670715) rotate(300)"><polygon fill="none" stroke="#231F20" stroke-width="1" points="11283.2 2255.33 11219.7 2271.05 11231.6 2242.42 11273.4 2223.59"/></g><g transform="translate(3983.6988669 3585.0895861999998) rotate(0)"><polygon fill="none" stroke="#231F20" stroke-width="1" points="1523.99 2281.07 1490.1 2269.37 1488.88 2221.9 1527.02 2242.37"/></g><g transform="translate(-1476.3530443999998 2142.0190607) rotate(0)"><polygon fill="none" stroke="#231F20" stroke-width="1" points="6764.17 3778.22 6727.18 3766.1 6727.99 3713.71 6755.31 3729.69"/></g><g transform="translate(13847.854571514657 -4092.8301685995757) rotate(120)"><polygon fill="none" stroke="#231F20" stroke-width="1" points="12768.9 2255.67 12714 2256.07 12737.4 2223.56 12775 2221.02"/></g><g transform="translate(5272.372019273263 2532.4044617059517) rotate(60)"><polygon fill="none" stroke="#231F20" stroke-width="1" points="3022.94 1513.02 2990.67 1511.37 2981.64 1483.17 3034.67 1467.96"/></g><g transform="translate(-11689.768428915606 28180.103673840025) rotate(300)"><polygon fill="none" stroke="#231F20" stroke-width="1" points="28517.4 3784.29 28493 3763.67 28468.1 3733.53 28516.4 3726.18"/></g><g transform="translate(-13896.32827948488 32020.429170869473) rotate(300)"><polygon fill="none" stroke="#231F20" stroke-width="1" points="33012.3 3769.11 32985.2 3785.64 32981 3732.93 33011 3718.88"/></g><g transform="translate(2529.0628432702506 11008.374729588315) rotate(240)"><polygon fill="none" stroke="#231F20" stroke-width="1" points="3027.14 5285.19 2994.71 5250.71 2979.67 5221.1 3014.78 5214.22"/></g><g transform="translate(26035.3186346 9928.068450899998) rotate(180)"><polygon fill="none" stroke="#231F20" stroke-width="1" points="20272.1 4517.32 20213.8 4507.67 20216.8 4487.76 20266.9 4481.55"/></g><g transform="translate(13314.044135624063 20201.970938789025) rotate(240)"><polygon fill="none" stroke="#231F20" stroke-width="1" points="16532.5 761.673 16464.5 759.621 16467.8 720.962 16514.2 744.515"/></g><g transform="translate(18771.296148573674 -11061.632531784624) rotate(120)"><polygon fill="none" stroke="#231F20" stroke-width="1" points="21030.3 3004.28 20993.9 3020.83 20975.5 2983.7 21036.4 2982.21"/></g><g transform="translate(2736.733373 4757.267522) rotate(0)"><polygon fill="none" stroke="#231F20" stroke-width="1" points="3036.44 754.287 2976.3 756.733 2990.21 722.672 3007.45 713.344"/></g><g transform="translate(14976.837974075555 24389.944211558108) rotate(240)"><polygon fill="none" stroke="#231F20" stroke-width="1" points="21003.1 1512.63 20973.6 1531.08 20968.5 1466.97 21002.5 1483.16"/></g><g transform="translate(-4865.86693 1194.2940476000003) rotate(0)"><polygon fill="none" stroke="#231F20" stroke-width="1" points="10523.9 4508.94 10483 4528.61 10493.6 4485.71 10527.4 4464.57"/></g><g transform="translate(11812.506737936583 20037.17934878912) rotate(240)"><polygon fill="none" stroke="#231F20" stroke-width="1" points="15774.1 2252.81 15716.5 2258.41 15712.7 2215.44 15754.8 2233.28"/></g><g transform="translate(20233.220316167964 -10533.177614658061) rotate(120)"><polygon fill="none" stroke="#231F20" stroke-width="1" points="21019.9 4511.32 20971.2 4505.58 20970.5 4493.87 21033 4467.56"/></g><g transform="translate(-28608.1403135 3838.7086134) rotate(0)"><polygon fill="none" stroke="#231F20" stroke-width="1" points="34523.4 1528.39 34477.8 1523.55 34493.4 1477.03 34503.2 1468.95"/></g><g transform="translate(-5047.627741379066 -17661.61457020817) rotate(60)"><polygon fill="none" stroke="#231F20" stroke-width="1" points="25522.2 2278.18 25474.1 2253.55 25473.8 2225.3 25514.1 2236.62"/></g><g transform="translate(-563.882258519443 12066.268546787272) rotate(300)"><polygon fill="none" stroke="#231F20" stroke-width="1" points="9001.67 2269.58 8975.64 2274 8994.21 2219.57 9025.19 2213.55"/></g><g transform="translate(-4723.934208891803 -16952.183212865297) rotate(60)"><polygon fill="none" stroke="#231F20" stroke-width="1" points="24781.1 2252.9 24719.9 2257.42 24731.9 2222.23 24779.4 2235.07"/></g><g transform="translate(15552.411106399999 9250.911667599998) rotate(180)"><polygon fill="none" stroke="#231F20" stroke-width="1" points="9765.33 3770.27 9726.25 3774.76 9719.99 3742.47 9783.66 3745.61"/></g><g transform="translate(36589.9270713 9211.258649599997) rotate(180)"><polygon fill="none" stroke="#231F20" stroke-width="1" points="30780.6 3768.15 30727.2 3761.11 30725.1 3730.1 30762.6 3732.82"/></g><g transform="translate(-11169.671522878278 30386.53155148837) rotate(300)"><polygon fill="none" stroke="#231F20" stroke-width="1" points="30036.5 2266.47 29966.5 2279.12 29997.5 2236.22 30023.7 2249.24"/></g><g transform="translate(1876.0638417999999 1998.5001267999996) rotate(0)"><polygon fill="none" stroke="#231F20" stroke-width="1" points="3776.55 3758.76 3716.06 3750.28 3717.57 3735.67 3758.66 3718.23"/></g><g transform="translate(4284.700115508785 6197.708759769312) rotate(300)"><polygon fill="none" stroke="#231F20" stroke-width="1" points="1537.07 784.013 1485.67 752.286 1493.77 723.341 1507.82 717.265"/></g><g transform="translate(10330.284609547252 21156.51771015501) rotate(240)"><polygon fill="none" stroke="#231F20" stroke-width="1" points="15764.4 3762.99 15713.6 3761.34 15734.4 3718.51 15768.7 3747.64"/></g><g transform="translate(8007.4879072 10090.760301999999) rotate(180)"><polygon fill="none" stroke="#231F20" stroke-width="1" points="2271.21 4510.25 2239.07 4511.79 2219.78 4469.32 2284.44 4492.52"/></g><g transform="translate(-8111.594364143372 -27005.493155748693) rotate(60)"><polygon fill="none" stroke="#231F20" stroke-width="1" points="35266.6 4527.76 35219.4 4512.21 35246 4473.31 35259.1 4478.97"/></g><g transform="translate(11874.711100562286 19452.63020740438) rotate(240)"><polygon fill="none" stroke="#231F20" stroke-width="1" points="15009.4 1516.34 14987.3 1513.64 14981.6 1469.4 15017.7 1463.63"/></g><g transform="translate(5013.014976187327 10388.783950046613) rotate(240)"><polygon fill="none" stroke="#231F20" stroke-width="1" points="3768.54 3017.96 3733.47 3029.07 3725.46 2990.97 3765.04 2983.51"/></g><g transform="translate(6212.6148587655825 14058.81061819728) rotate(240)"><polygon fill="none" stroke="#231F20" stroke-width="1" points="7500.97 3766.98 7490.51 3785.6 7478.54 3717.26 7526.86 3739.51"/></g><g transform="translate(29075.2738847 8531.123458499997) rotate(180)"><polygon fill="none" stroke="#231F20" stroke-width="1" points="23265.1 3020.46 23228.7 3024.09 23237.1 2983.14 23267.3 2975.87"/></g><g transform="translate(24798.45528666366 -19822.971847453642) rotate(120)"><polygon fill="none" stroke="#231F20" stroke-width="1" points="31520.6 3764.03 31464.3 3767.94 31485.5 3742.79 31526.8 3726.73"/></g><g transform="translate(22721.86333974724 -22368.577329796237) rotate(120)"><polygon fill="none" stroke="#231F20" stroke-width="1" points="33018.4 758.902 32993.9 776.321 32966.5 720.486 33018.7 741.277"/></g><g transform="translate(-5808.658912754304 -15282.174794339546) rotate(60)"><polygon fill="none" stroke="#231F20" stroke-width="1" points="24021.2 755.619 23976.8 786.338 23985.6 724.795 24007.5 735.272"/></g><g transform="translate(26790.08025879299 -21843.044788177926) rotate(120)"><polygon fill="none" stroke="#231F20" stroke-width="1" points="34534.1 4517.16 34472.8 4509.12 34487.2 4469.43 34515.5 4494.18"/></g><g transform="translate(5574.614244794346 412.2200921936119) rotate(60)"><polygon fill="none" stroke="#231F20" stroke-width="1" points="4510.93 2269.78 4479.08 2266.79 4469.52 2239.98 4523.64 2232.04"/></g><g transform="translate(38104.7211319 7003.488067499997) rotate(180)"><polygon fill="none" stroke="#231F20" stroke-width="1" points="32258.6 1523.69 32222.6 1503.94 32224.5 1480.25 32257.7 1468.52"/></g><g transform="translate(4287.61710469643 1198.0349143902213) rotate(60)"><polygon fill="none" stroke="#231F20" stroke-width="1" points="4500.14 767.969 4473.26 763.53 4490.89 729.282 4535.9 732.13"/></g><g transform="translate(35086.5128021 8572.720087099995) rotate(180)"><polygon fill="none" stroke="#231F20" stroke-width="1" points="29256.2 3015.68 29244.5 3029.18 29217.4 2997.28 29276 2974.75"/></g><g transform="translate(-24217.7820025 1138.3739783) rotate(0)"><polygon fill="none" stroke="#231F20" stroke-width="1" points="30018.8 4527.06 29981.1 4525.42 29993.6 4479.37 30017 4486.67"/></g><g transform="translate(10634.424931034831 1664.022573683802) rotate(120)"><polygon fill="none" stroke="#231F20" stroke-width="1" points="6034.6 2269.33 5986.53 2250.55 5990.58 2215.62 6020.01 2229.92"/></g><g transform="translate(-12097.9530777 1014.8108647999998) rotate(0)"><polygon fill="none" stroke="#231F20" stroke-width="1" points="18019.8 4500.25 17996.4 4532.11 17977.8 4478 18007.9 4474.4"/></g><g transform="translate(17506.674241279525 33552.77928905312) rotate(240)"><polygon fill="none" stroke="#231F20" stroke-width="1" points="30037.4 3782.74 29992.3 3754.47 29969.7 3728.18 30004.5 3724.69"/></g><g transform="translate(21840.463536491465 -20617.274655417437) rotate(120)"><polygon fill="none" stroke="#231F20" stroke-width="1" points="30775.4 751.286 30718.1 774.734 30717.9 734.249 30756.8 739.655"/></g><g transform="translate(-4895.18091351538 16713.97508013867) rotate(300)"><polygon fill="none" stroke="#231F20" stroke-width="1" points="15031.1 3768.8 14973 3769.71 14988.4 3733.29 15020.9 3746.82"/></g><g transform="translate(13658.363302951584 -6412.191064792748) rotate(120)"><polygon fill="none" stroke="#231F20" stroke-width="1" points="14250.9 768.575 14229.4 771.742 14240.3 728.715 14283.2 721.943"/></g><g transform="translate(23047.7295496 7929.868413999997) rotate(180)"><polygon fill="none" stroke="#231F20" stroke-width="1" points="17284.8 2253.52 17243.6 2265.33 17238.4 2246.81 17278.1 2213.12"/></g><g transform="translate(-5614.0889081 1313.0741555000004) rotate(0)"><polygon fill="none" stroke="#231F20" stroke-width="1" points="11259.3 4537.26 11214.1 4529.35 11240.9 4490.2 11258.6 4498.96"/></g><g transform="translate(-14555.4661896 4270.6572532) rotate(0)"><polygon fill="none" stroke="#231F20" stroke-width="1" points="20265.2 1505.5 20242.1 1536.27 20216.9 1494.49 20278 1489.49"/></g><g transform="translate(-30410.2251936 2867.4067085999995) rotate(0)"><polygon fill="none" stroke="#231F20" stroke-width="1" points="36014.9 3026.59 35968.3 3006.09 35969.5 2990.79 36011.5 2981.86"/></g><g transform="translate(17925.641090873596 -7898.703823583777) rotate(120)"><polygon fill="none" stroke="#231F20" stroke-width="1" points="18015.3 3779.89 17992.4 3769.49 17984.6 3718.26 18018.5 3735.64"/></g><g transform="translate(-2710.4948583837377 -11871.38643379617) rotate(60)"><polygon fill="none" stroke="#231F20" stroke-width="1" points="19523.1 1516.95 19471.3 1510.85 19478.7 1468.27 19506.5 1490.11"/></g><g transform="translate(17488.07792967828 31855.796930782984) rotate(240)"><polygon fill="none" stroke="#231F20" stroke-width="1" points="28517.3 3026.84 28488.8 3011.43 28477.9 2996.43 28530.1 2976.47"/></g><g transform="translate(39541.313135899996 10229.301577899996) rotate(180)"><polygon fill="none" stroke="#231F20" stroke-width="1" points="33764.8 4518.38 33736.8 4502.49 33728.9 4468.01 33786.5 4498.84"/></g><g transform="translate(13193.953741899992 23137.570939735007) rotate(240)"><polygon fill="none" stroke="#231F20" stroke-width="1" points="18777.1 2271.89 18744 2284.98 18745.3 2218.14 18771.6 2249.33"/></g><g transform="translate(29623.730271 8880.594965399998) rotate(180)"><polygon fill="none" stroke="#231F20" stroke-width="1" points="24000.4 3023.53 23975.1 3031.31 23966.3 2997.56 24019.2 2988.83"/></g><g transform="translate(-17439.3358103 4212.407006099999) rotate(0)"><polygon fill="none" stroke="#231F20" stroke-width="1" points="23280.1 1515.9 23244.1 1515.19 23232.8 1484.14 23265.9 1474.62"/></g><g transform="translate(37377.7334957 8640.945564999996) rotate(180)"><polygon fill="none" stroke="#231F20" stroke-width="1" points="31529.6 3000.65 31499.1 3033.58 31492.8 2970.76 31519.7 2980.25"/></g><g transform="translate(12070.5540401508 807.913346363458) rotate(120)"><polygon fill="none" stroke="#231F20" stroke-width="1" points="7509.44 3027.69 7479.48 3004.34 7497.65 2963.18 7511.83 2962.87"/></g><g transform="translate(37979.8781851 10337.723138599995) rotate(180)"><polygon fill="none" stroke="#231F20" stroke-width="1" points="32264.5 4526.72 32235.6 4503.2 32245.5 4488.28 32284.9 4467.56"/></g><g transform="translate(20445.4107588 8158.435299199999) rotate(180)"><polygon fill="none" stroke="#231F20" stroke-width="1" points="15014.7 2259.67 14980.9 2269.24 14964.9 2235.03 15015.4 2234.87"/></g><g transform="translate(3914.8673186392602 10326.089722630193) rotate(240)"><polygon fill="none" stroke="#231F20" stroke-width="1" points="3011.13 3770.14 2992.01 3775.44 2963.93 3737.93 3028.6 3746.17"/></g><g transform="translate(12663.873808080698 2860.4754919602974) rotate(120)"><polygon fill="none" stroke="#231F20" stroke-width="1" points="6005.21 4529.41 5969.35 4506.63 5999.59 4481.4 6020.11 4489.09"/></g><g transform="translate(-40.67011070663102 9596.484357156996) rotate(300)"><polygon fill="none" stroke="#231F20" stroke-width="1" points="6015.66 3037.09 5979.81 3002.29 5974.32 2987.26 6024.41 2994.79"/></g><g transform="translate(33560.0777451 8773.116826699998) rotate(180)"><polygon fill="none" stroke="#231F20" stroke-width="1" points="27771.2 3004.24 27722.8 3014.65 27743.6 2975.54 27781.6 2984.26"/></g><g transform="translate(5876.155994250788 -652.4543530764313) rotate(60)"><polygon fill="none" stroke="#231F20" stroke-width="1" points="5287.04 3006.49 5219.26 3005.63 5233.39 2974.23 5264.76 2986.08"/></g><g transform="translate(28389.8270291 10132.880857599997) rotate(180)"><polygon fill="none" stroke="#231F20" stroke-width="1" points="22512.5 4535.86 22482.4 4537 22496.9 4469.81 22504.5 4470.26"/></g><g transform="translate(13879.52126480261 819.6002596910357) rotate(120)"><polygon fill="none" stroke="#231F20" stroke-width="1" points="8251.81 4528.86 8235.36 4518.2 8217.6 4483.59 8274.5 4496.63"/></g><g transform="translate(5283.667123024663 1761.4834131855087) rotate(60)"><polygon fill="none" stroke="#231F20" stroke-width="1" points="3776.82 1513.58 3718.96 1521.77 3722.31 1499.77 3768.8 1488.85"/></g><g transform="translate(-11454.764364778715 31232.986634266897) rotate(300)"><polygon fill="none" stroke="#231F20" stroke-width="1" points="30784.4 2260.75 30716.5 2282.77 30742.2 2243.11 30765.2 2244.56"/></g><g transform="translate(2514.458230016423 -4417.056219852497) rotate(60)"><polygon fill="none" stroke="#231F20" stroke-width="1" points="10511.5 2284.53 10486 2281.92 10496.4 2248.57 10525.2 2213.21"/></g><g transform="translate(16998.941949942913 -7596.052414599986) rotate(120)"><polygon fill="none" stroke="#231F20" stroke-width="1" points="17250.6 3029.08 17243.4 3015.83 17235.1 2969.99 17277.1 2986.7"/></g><g transform="translate(584.8875624097818 13290.621630722002) rotate(300)"><polygon fill="none" stroke="#231F20" stroke-width="1" points="9029.99 766.328 8966.75 751.719 8989.69 737.888 9034.98 739.981"/></g><g transform="translate(15749.523741275243 27805.686524413686) rotate(240)"><polygon fill="none" stroke="#231F20" stroke-width="1" points="24023.2 2280.58 23997.2 2272.56 23998.3 2218.57 24015.5 2221.43"/></g><g transform="translate(20853.46465061471 37861.62308284259) rotate(240)"><polygon fill="none" stroke="#231F20" stroke-width="1" points="35259.5 3005.9 35239.2 3027.26 35226 2970.58 35269.5 2987.58"/></g><g transform="translate(-8867.255983915762 -25503.219818244987) rotate(60)"><polygon fill="none" stroke="#231F20" stroke-width="1" points="34521.5 3015.93 34492.8 3020.6 34494.5 2966.93 34526.5 2995.05"/></g><g transform="translate(-19114.2952541 2898.9961327999995) rotate(0)"><polygon fill="none" stroke="#231F20" stroke-width="1" points="24781.4 3020.12 24746.1 3017.98 24734.8 2990.13 24779.3 2989.1"/></g><g transform="translate(-9767.016239048982 23778.14633749034) rotate(300)"><polygon fill="none" stroke="#231F20" stroke-width="1" points="23255.5 4507.45 23236.9 4532.53 23229.2 4473.91 23276.9 4492.59"/></g><g transform="translate(6100.81796076884 4860.34741133851) rotate(60)"><polygon fill="none" stroke="#231F20" stroke-width="1" points="768.448 767.456 727.778 759.249 747.822 715.478 756.076 717.833"/></g><g transform="translate(-19663.640805900002 2356.8458799) rotate(0)"><polygon fill="none" stroke="#231F20" stroke-width="1" points="25501.1 3013.73 25486.2 3001.5 25488.8 2969.35 25535.2 2989.04"/></g><g transform="translate(23738.914675818407 -17609.824241813636) rotate(120)"><polygon fill="none" stroke="#231F20" stroke-width="1" points="29265.7 3770.03 29215.8 3765.05 29224.3 3749.83 29276.1 3738.55"/></g><g transform="translate(20650.759859467144 -10788.370517124438) rotate(120)"><polygon fill="none" stroke="#231F20" stroke-width="1" points="21761.9 4507.79 21737.8 4516.47 21714.4 4472.9 21768.2 4490.05"/></g><g transform="translate(18488.294157432658 30470.273729892942) rotate(240)"><polygon fill="none" stroke="#231F20" stroke-width="1" points="27776.4 1516.39 27747.2 1510.84 27747.3 1471.92 27783.4 1487.13"/></g><g transform="translate(22387.3528745 10269.062068699997) rotate(180)"><polygon fill="none" stroke="#231F20" stroke-width="1" points="16503.5 4512.21 16463.4 4526.1 16465.1 4488.52 16503.4 4490.98"/></g><g transform="translate(35158.9197327 10316.309545999997) rotate(180)"><polygon fill="none" stroke="#231F20" stroke-width="1" points="29266.2 4509.85 29247.6 4528.07 29237 4491.31 29285.3 4474.31"/></g><g transform="translate(2105.2463650160635 -6674.805205802225) rotate(60)"><polygon fill="none" stroke="#231F20" stroke-width="1" points="12764.6 3035.18 12746.6 3037.37 12748.8 2973.44 12767.8 2977.93"/></g><g transform="translate(11205.145771257121 1172.022957995704) rotate(120)"><polygon fill="none" stroke="#231F20" stroke-width="1" points="6764.21 2263.81 6748.35 2254.33 6717.92 2228.44 6774.9 2234.8"/></g><g transform="translate(258.47997190000024 1408.6901083000002) rotate(0)"><polygon fill="none" stroke="#231F20" stroke-width="1" points="5276.05 4514.99 5220.78 4515.84 5246.26 4492.5 5271.78 4482.85"/></g><g transform="translate(-962.8501256335976 -13681.251869518494) rotate(60)"><polygon fill="none" stroke="#231F20" stroke-width="1" points="20258.3 3784 20223.5 3759.2 20216.9 3738.47 20250.2 3738.79"/></g><g transform="translate(17058.87697411227 30321.09120229788) rotate(240)"><polygon fill="none" stroke="#231F20" stroke-width="1" points="27024.9 2273.01 26997.3 2261.19 26988.6 2246.99 27022.6 2223.25"/></g><g transform="translate(6542.1152933 9158.2345067) rotate(180)"><polygon fill="none" stroke="#231F20" stroke-width="1" points="767.462 3758.86 724.562 3770.14 726.344 3738.79 772.708 3747.22"/></g><g transform="translate(13.48978309999984 4949.1713484) rotate(0)"><polygon fill="none" stroke="#231F20" stroke-width="1" points="5267 775.375 5242.01 786.562 5243.03 735.695 5252.69 725.645"/></g><g transform="translate(4136.345460355429 7153.376638097132) rotate(300)"><polygon fill="none" stroke="#231F20" stroke-width="1" points="2256.82 757.953 2220.72 779.412 2243.48 738.811 2275.5 741.593"/></g><g transform="translate(19816.504960987986 -12336.94060104022) rotate(120)"><polygon fill="none" stroke="#231F20" stroke-width="1" points="22503.2 3784.27 22486.2 3768.73 22474.1 3747.6 22508.1 3735.21"/></g><g transform="translate(-3402.7013222999994 2916.5353126) rotate(0)"><polygon fill="none" stroke="#231F20" stroke-width="1" points="9035.11 3001.75 8975.18 3006.15 8996.24 2991.58 9022.51 2973.12"/></g><g transform="translate(-11859.516854488691 27099.62161591834) rotate(300)"><polygon fill="none" stroke="#231F20" stroke-width="1" points="27764.9 4500.04 27720.6 4527.76 27743 4487.47 27785.6 4487.85"/></g><g transform="translate(-9159.968203100001 5168.160365799999) rotate(0)"><polygon fill="none" stroke="#231F20" stroke-width="1" points="15013.2 754.335 14965.1 751.628 14995.7 731.107 15020 730.134"/></g><g transform="translate(2508.7722063576302 6614.270756203195) rotate(300)"><polygon fill="none" stroke="#231F20" stroke-width="1" points="2253.29 2253.77 2244.21 2287.5 2218.31 2249.04 2272.54 2244.58"/></g><g transform="translate(-12732.7135965 3574.2866132999998) rotate(0)"><polygon fill="none" stroke="#231F20" stroke-width="1" points="18023.5 2251.69 17995.7 2270.68 17987.9 2218.46 18017 2245.21"/></g><g transform="translate(14990.968579244234 -5313.537445601173) rotate(120)"><polygon fill="none" stroke="#231F20" stroke-width="1" points="14250.3 3018.93 14238.8 3009.47 14227.9 2988.71 14280.2 2993.93"/></g><g transform="translate(9133.666132347427 2436.1843111870216) rotate(60)"><polygon fill="none" stroke="#231F20" stroke-width="1" points="771.182 4521.61 730.884 4521.69 745.817 4483.42 752.673 4492.32"/></g><g transform="translate(-6021.480355074945 -23603.3256499817) rotate(60)"><polygon fill="none" stroke="#231F20" stroke-width="1" points="30759.5 4512.07 30720.2 4500.71 30739.9 4483.07 30767.1 4491.13"/></g><g transform="translate(3264.5275465 4093.0716906999996) rotate(0)"><polygon fill="none" stroke="#231F20" stroke-width="1" points="2262.59 1514.54 2240.15 1507.31 2236.43 1480.95 2257.23 1470.8"/></g><g transform="translate(-3668.7176484 1678.5187714000003) rotate(0)"><polygon fill="none" stroke="#231F20" stroke-width="1" points="9018.35 3757.35 8983.94 3767.18 8987.33 3745.44 9029.88 3735.91"/></g><g transform="translate(-26935.4572565 4966.2727391) rotate(0)"><polygon fill="none" stroke="#231F20" stroke-width="1" points="32262.3 752.984 32236.2 781.698 32233 748.558 32275.8 736.086"/></g><g transform="translate(16283.988353507822 -5016.31660140787) rotate(120)"><polygon fill="none" stroke="#231F20" stroke-width="1" points="14253.9 3759.53 14226.2 3752.74 14233.3 3748.15 14284.3 3716.61"/></g><g transform="translate(-10411.757703307938 -26020.651055610313) rotate(60)"><polygon fill="none" stroke="#231F20" stroke-width="1" points="35277.2 1524.28 35231.1 1519.54 35246.2 1493.17 35254.3 1494.62"/></g><g transform="translate(-1803.73811875699 -13130.811592192673) rotate(60)"><polygon fill="none" stroke="#231F20" stroke-width="1" points="20259.9 3014.76 20230.7 3032.27 20245.8 2995.46 20267.2 2979.54"/></g><g transform="translate(20317.00128816694 33318.17157961165) rotate(240)"><polygon fill="none" stroke="#231F20" stroke-width="1" points="31533 1518.12 31490 1500.71 31499.7 1489.44 31536.9 1498.32"/></g><g transform="translate(-10847.996179876274 24715.67716835042) rotate(300)"><polygon fill="none" stroke="#231F20" stroke-width="1" points="24774.8 4507.53 24745.2 4516.56 24749.8 4488.74 24781.2 4489.34"/></g><g transform="translate(7840.586544171184 3528.5437007312476) rotate(60)"><polygon fill="none" stroke="#231F20" stroke-width="1" points="777.282 3015.59 747.332 3013.98 724.726 2978.3 755.67 2994.58"/></g><g transform="translate(31738.8932507 8452.728856899997) rotate(180)"><polygon fill="none" stroke="#231F20" stroke-width="1" points="26260.1 3019 26240.5 3006.52 26236.4 2984 26251.8 2967.86"/></g><g transform="translate(4995.542922755079 12038.68513284418) rotate(240)"><polygon fill="none" stroke="#231F20" stroke-width="1" points="5279.23 3755.09 5246.67 3758.6 5236.52 3730.16 5273.26 3743.09"/></g><g transform="translate(21603.674461530914 -12807.84314270688) rotate(120)"><polygon fill="none" stroke="#231F20" stroke-width="1" points="24004.2 4513.7 23978.1 4502.32 23988.8 4465.79 24004.3 4498.64"/></g><g transform="translate(27424.1910484 7918.265744699997) rotate(180)"><polygon fill="none" stroke="#231F20" stroke-width="1" points="21752.7 2250.13 21743.4 2271.04 21737.8 2220.97 21764.7 2232.61"/></g><g transform="translate(21320.952097685047 37885.93553314307) rotate(240)"><polygon fill="none" stroke="#231F20" stroke-width="1" points="36023.1 2251.21 35974.7 2257.39 35984.4 2242.06 36007.1 2232.28"/></g><g transform="translate(22585.623566119033 -19978.807469336505) rotate(120)"><polygon fill="none" stroke="#231F20" stroke-width="1" points="30778.2 1505.04 30721 1506.26 30747.5 1491.05 30754.5 1481.91"/></g><g transform="translate(15769.9160969 6392.496762999999) rotate(180)"><polygon fill="none" stroke="#231F20" stroke-width="1" points="10505.1 775.763 10497.4 774.73 10497.1 727.819 10517.4 740.214"/></g><g transform="translate(-51.61725299565205 4577.5197506791765) rotate(300)"><polygon fill="none" stroke="#231F20" stroke-width="1" points="2256.73 5278.6 2224.11 5250.37 2216.08 5246.52 2251.5 5244.68"/></g><g transform="translate(8635.297854652981 14127.75067247573) rotate(240)"><polygon fill="none" stroke="#231F20" stroke-width="1" points="9001.14 1512.96 8989.23 1501.72 8980.69 1490.97 9002.49 1465.82"/></g><g transform="translate(21742.56464216108 -17280.318545714454) rotate(120)"><polygon fill="none" stroke="#231F20" stroke-width="1" points="27765.9 2256.72 27729.7 2275.3 27748.8 2249.64 27784.7 2232.37"/></g><g transform="translate(316.4296494 3492.6528946) rotate(0)"><polygon fill="none" stroke="#231F20" stroke-width="1" points="5253.92 2269.81 5222.28 2250.87 5240.58 2239.66 5257.41 2247.54"/></g><g transform="translate(20890.495770021746 33561.85665853161) rotate(240)"><polygon fill="none" stroke="#231F20" stroke-width="1" points="31501.4 778.841 31491.4 756.071 31490 735.32 31510.7 738.996"/></g><g transform="translate(9977.33401269499 4750.163127871405) rotate(120)"><polygon fill="none" stroke="#231F20" stroke-width="1" points="3031.03 3000.67 2993.88 3003.51 2974.97 2963.63 3009.93 2996.65"/></g><g transform="translate(-8171.965801308263 21723.096792556444) rotate(300)"><polygon fill="none" stroke="#231F20" stroke-width="1" points="21012 3760.2 20970.1 3763.76 20968.8 3748.21 21001.3 3748.79"/></g><g transform="translate(-2133.9933447000003 1420.1853282000002) rotate(0)"><polygon fill="none" stroke="#231F20" stroke-width="1" points="7524.96 4503.99 7479.82 4502.18 7474.83 4480.04 7504.6 4497.06"/></g><g transform="translate(-14030.594495119107 35831.328266202545) rotate(300)"><polygon fill="none" stroke="#231F20" stroke-width="1" points="36001.7 1504.13 35998 1504.07 35999.1 1481.21 36027.3 1470.39"/></g><g transform="translate(12580.042050535496 -4320.079814404594) rotate(120)"><polygon fill="none" stroke="#231F20" stroke-width="1" points="12035 1510.21 11998.5 1508.53 11999 1488.96 12008.4 1494.97"/></g><g transform="translate(-27322.6999179 3671.3635109999996) rotate(0)"><polygon fill="none" stroke="#231F20" stroke-width="1" points="33033.1 2250.84 32970.7 2251.5 32985.7 2248.74 33021.1 2243.06"/></g><g transform="translate(-2297.6620000208877 14660.003733949103) rotate(300)"><polygon fill="none" stroke="#231F20" stroke-width="1" points="12003.9 2258.07 11985.9 2266.96 11998.5 2248.86 12030.4 2243.34"/></g><g transform="translate(-1238.1962287889946 -12103.428135293805) rotate(60)"><polygon fill="none" stroke="#231F20" stroke-width="1" points="18751.9 3029.11 18745 3033.06 18747.7 2982.57 18750.2 2985.33"/></g><g transform="translate(7075.96748815779 11204.710012206102) rotate(240)"><polygon fill="none" stroke="#231F20" stroke-width="1" points="6002.48 1502.14 5991.17 1505.38 5999.36 1497.64 6025.04 1466.83"/></g></g></svg>