<svg xmlns="http://www.w3.org/2000/svg" width="9.375in" height="10.312500000000002in" viewBox="0 0 675 742.5000000000001"><g transform="translate(-4500 -4500)"><g transform="translate(7601.827379795119 -30750.000087932094) rotate(90)"><polygon fill="none" stroke="#231F20" stroke-width="1" points="35250 3000 35253.5 3101.83 35351 3099.22 35366.6 3054.83 35366.6 3026.98 35350.1 3012.18 35322.2 3012.18 35312.7 2998.26 35290.9 2983.46 35269.1 2983.46 35250 3000"/></g><g transform="translate(-22413.8379102 3119.2726263000004) rotate(0)"><polygon fill="none" stroke="#231F20" stroke-width="1" points="27000 1500 27033.1 1495.21 27057.4 1522.19 27043.5 1541.34 27036.6 1559.62 26913.8 1555.27 26916.4 1494.34 27000 1500"/></g><g transform="translate(6936.6364581 2263.9255506) rotate(90)"><polygon fill="none" stroke="#231F20" stroke-width="1" points="2250 2250 2236.07 2266.54 2237.81 2303.96 2249.13 2312.66 2300.48 2303.96 2359.66 2309.18 2371.84 2281.33 2346.61 2254.35 2320.5 2243.04 2250 2250"/></g><g transform="translate(1032.8061358000004 3780.4503581) rotate(0)"><polygon fill="none" stroke="#231F20" stroke-width="1" points="3750 750 3748.69 793.516 3731.72 803.525 3709.1 805.7 3693.86 815.274 3690.38 835.291 3660.79 835.726 3660.79 800.478 3660.79 752.175 3682.11 748.258 3678.63 721.279 3723.69 719.55 3727.37 748.258 3750 750"/></g><g transform="translate(-4331.4871563 879.8437480000002) rotate(0)"><polygon fill="none" stroke="#231F20" stroke-width="1" points="9000 3750 9005.22 3738.69 9042.65 3736.07 9060.05 3746.52 9073.98 3759.57 9084.42 3780.46 9084.42 3812.66 9013.05 3815.27 9000 3806.57 9000 3750"/></g><g transform="translate(999.0823052000028 19652.6000646) rotate(270)"><polygon fill="none" stroke="#231F20" stroke-width="1" points="15000 3750 14994.8 3838.77 15003.5 3849.22 15044.4 3851.83 15054 3832.68 15054.8 3813.53 15047.9 3803.96 15043.5 3790.04 15060.1 3780.46 15068.8 3765.67 15053.1 3751.74 15000 3750"/></g><g transform="translate(3282.963089900004 24772.2097255) rotate(270)"><polygon fill="none" stroke="#231F20" stroke-width="1" points="20250 1500 20250 1511.1 20255.2 1539.16 20250 1571.15 20195.2 1571.8 20175.6 1560.05 20174.3 1525.46 20181.5 1511.1 20181.5 1498.69 20250 1500"/></g><g transform="translate(1012.1096668000064 36969.9708613) rotate(270)"><polygon fill="none" stroke="#231F20" stroke-width="1" points="32250 3750 32267 3745.21 32269.1 3738.25 32287.4 3743.91 32287.9 3753.92 32303.1 3765.67 32306.6 3803.96 32312.2 3824.41 32304.8 3828.33 32302.7 3837.9 32252.6 3839.21 32245.6 3826.59 32247.8 3810.05 32235.2 3811.79 32233 3801.35 32247.4 3794.39 32250 3750"/></g><g transform="translate(3086.142581400005 30933.5147082) rotate(270)"><polygon fill="none" stroke="#231F20" stroke-width="1" points="26250 1500 26256.1 1555.7 26259.6 1575.72 26246.5 1582.68 26220.4 1580.94 26187.3 1557.44 26189.1 1509.57 26232.6 1496.52 26250 1500"/></g><g transform="translate(33932.9676943 6268.915792499996) rotate(180)"><polygon fill="none" stroke="#231F20" stroke-width="1" points="29250 1500 29246.5 1573.98 29184.7 1575.72 29180.4 1560.05 29196 1552.22 29196 1540.03 29188.2 1528.72 29191.7 1506.96 29189.1 1488.69 29235.2 1491.3 29250 1500"/></g><g transform="translate(6033.398206899999 -9560.151942600001) rotate(90)"><polygon fill="none" stroke="#231F20" stroke-width="1" points="14250 1500 14237.6 1489.56 14238.3 1453.66 14327 1444.52 14342 1445.82 14339.4 1473.89 14325.7 1494.13 14292.4 1494.78 14250 1500"/></g><g transform="translate(3133.4640083000045 30328.6153774) rotate(270)"><polygon fill="none" stroke="#231F20" stroke-width="1" points="25500 1500 25520 1491.3 25540.9 1482.59 25571.4 1487.82 25581.8 1501.74 25584.4 1536.55 25574 1547 25563.5 1547 25554.8 1541.78 25538.3 1543.52 25521.8 1551.35 25498.3 1540.91 25500 1500"/></g><g transform="translate(29498.092242599996 6296.266012599997) rotate(180)"><polygon fill="none" stroke="#231F20" stroke-width="1" points="24750 1500 24751.7 1575.72 24721.3 1573.98 24720.4 1568.76 24704.7 1568.76 24704.7 1558.31 24692.6 1554.83 24685.6 1548.74 24687.3 1506.96 24702.1 1500 24750 1500"/></g><g transform="translate(4901.761994300001 6168.0998652) rotate(180)"><polygon fill="none" stroke="#231F20" stroke-width="1" points="0 1500 6.09138 1540.04 4.35117 1588.77 22.6279 1607.05 46.9974 1605.31 46.9974 1547 54.8303 1513.05 45.2559 1512.18 39.1645 1491.3 0 1500"/></g><g transform="translate(1742.0434017000002 3280.1259848) rotate(0)"><polygon fill="none" stroke="#231F20" stroke-width="1" points="3000 1500 3001.96 1571.15 2994.78 1584.86 2966.06 1584.86 2949.09 1572.45 2944.52 1542.43 2943.86 1507.18 2985.64 1503.92 3000 1500"/></g><g transform="translate(5555.605940499998 -25951.3390445) rotate(90)"><polygon fill="none" stroke="#231F20" stroke-width="1" points="30750 750 30761.1 733.029 30803.5 744.125 30804.8 759.791 30808.1 764.36 30808.1 796.997 30787.9 812.01 30747.4 812.663 30750 750"/></g><g transform="translate(1906.8333630000002 2492.6210735999994) rotate(0)"><polygon fill="none" stroke="#231F20" stroke-width="1" points="3000 2250 2999.13 2286.55 2935.6 2290.9 2916.45 2307.44 2908.62 2304.83 2908.62 2243.91 2959.1 2244.78 3000 2250"/></g><g transform="translate(-5657.5699573 1033.5258587999997) rotate(0)"><polygon fill="none" stroke="#231F20" stroke-width="1" points="10500 3750 10481.7 3771.76 10483.5 3805.7 10475.6 3820.5 10488.7 3829.2 10533.1 3830.94 10542.6 3819.63 10537.4 3770.89 10500 3750"/></g><g transform="translate(11306.948999100001 6348.045310699999) rotate(180)"><polygon fill="none" stroke="#231F20" stroke-width="1" points="6750 1500 6747.39 1560.05 6735.64 1566.58 6700.39 1539.82 6680.81 1535.9 6680.81 1498.69 6708.88 1492.82 6742.17 1490.86 6750 1500"/></g><g transform="translate(3383.1954670000027 21239.6034489) rotate(270)"><polygon fill="none" stroke="#231F20" stroke-width="1" points="16500 1500 16502 1552.22 16522.8 1559.4 16567.9 1557.44 16567.2 1499.35 16500 1500"/></g><g transform="translate(5713.8189593 6166.6322478) rotate(180)"><polygon fill="none" stroke="#231F20" stroke-width="1" points="750 1500 742.167 1512.4 743.473 1541.12 755.875 1539.82 762.402 1558.09 791.123 1566.58 802.872 1549.61 815.274 1541.78 813.969 1511.1 803.525 1500 793.081 1497.39 785.248 1494.78 750 1500"/></g><g transform="translate(-10869.103263699999 3281.061328) rotate(0)"><polygon fill="none" stroke="#231F20" stroke-width="1" points="15750 1500 15752.6 1557.44 15760.4 1565.93 15803.5 1560.05 15812.7 1543.73 15810.7 1495.43 15750 1500"/></g><g transform="translate(6441.5619522 9169.9295764) rotate(180)"><polygon fill="none" stroke="#231F20" stroke-width="1" points="1500 4500 1498.69 4440.82 1482.16 4432.11 1471.72 4435.6 1467.36 4442.56 1442.12 4444.74 1439.95 4459.1 1436.03 4459.1 1433.86 4489.99 1441.69 4497.39 1442.99 4502.18 1500 4500"/></g><g transform="translate(36040.0348912 8537.046880099995) rotate(180)"><polygon fill="none" stroke="#231F20" stroke-width="1" points="31500 3750 31539.2 3746.52 31540 3810.05 31531.3 3855.74 31507.4 3858.36 31500 3750"/></g><g transform="translate(-25805.1508866 3237.3991083) rotate(0)"><polygon fill="none" stroke="#231F20" stroke-width="1" points="30750 1500 30810.9 1501.74 30816.1 1554.83 30756.1 1560.05 30747.4 1554.83 30750 1500"/></g><g transform="translate(-29497.210159399998 1055.7316604999996) rotate(0)"><polygon fill="none" stroke="#231F20" stroke-width="1" points="34500 3750 34502.2 3802.22 34453.4 3800.91 34441.7 3792.21 34439.9 3748.26 34447.8 3741.73 34490.4 3740.43 34500 3750"/></g><g transform="translate(10689.0730312 7136.553978599999) rotate(180)"><polygon fill="none" stroke="#231F20" stroke-width="1" points="6000 2250 6000.43 2287.42 6059.18 2289.16 6097.48 2269.15 6089.64 2241.3 6059.18 2250 6000 2250"/></g><g transform="translate(6464.6478079 -701.3437039999999) rotate(90)"><polygon fill="none" stroke="#231F20" stroke-width="1" points="5250 1500 5245.43 1561.36 5256.53 1573.11 5269.58 1573.76 5280.68 1567.23 5302.22 1539.16 5302.22 1521.54 5286.55 1500.65 5250 1500"/></g><g transform="translate(1263.0542376000003 2337.6827503000004) rotate(0)"><polygon fill="none" stroke="#231F20" stroke-width="1" points="3750 2250 3751.74 2306.57 3740.43 2330.07 3709.09 2330.07 3705.61 2235.2 3750 2250"/></g><g transform="translate(-12395.130842400002 3006.8806613000006) rotate(0)"><polygon fill="none" stroke="#231F20" stroke-width="1" points="17250 1500 17249.3 1524.15 17262.4 1537.21 17338.1 1537.21 17340.1 1498.69 17250 1500"/></g><g transform="translate(1258.9235104000059 38253.480290499996) rotate(270)"><polygon fill="none" stroke="#231F20" stroke-width="1" points="33750 3750 33753.5 3772.19 33684.7 3773.5 33679.9 3766.97 33679.5 3713.01 33700.4 3718.67 33726.1 3726.94 33736.5 3747.82 33750 3750"/></g><g transform="translate(8249.999954399998 -7087.1490969999995) rotate(90)"><polygon fill="none" stroke="#231F20" stroke-width="1" points="12000 3750 11926 3747.39 11946 3687.34 11954.7 3681.24 11980 3693.43 11980 3713.45 11978.2 3721.28 11999.1 3730.85 12000 3750"/></g><g transform="translate(39515.1377177 7643.276658799996) rotate(180)"><polygon fill="none" stroke="#231F20" stroke-width="1" points="34500 3000 34502.6 3069.63 34455.6 3069.63 34448.7 3060.92 34453 3046.13 34451.3 3024.37 34480 2998.26 34500 3000"/></g><g transform="translate(8051.285504899999 -23854.5466476) rotate(90)"><polygon fill="none" stroke="#231F20" stroke-width="1" points="28500 3000 28504.4 3039.16 28558.3 3045.26 28571.4 3025.24 28566.1 3002.61 28554.8 2993.04 28527 2993.04 28500 3000"/></g><g transform="translate(-5492.0007365 3219.3622464) rotate(0)"><polygon fill="none" stroke="#231F20" stroke-width="1" points="10500 1500 10500 1542.43 10506.5 1556.14 10524.2 1553.52 10554.2 1556.79 10554.8 1516.97 10546.3 1493.47 10500 1500"/></g><g transform="translate(8081.183506199998 -28160.2629713) rotate(90)"><polygon fill="none" stroke="#231F20" stroke-width="1" points="33000 3000 33001.7 3061.79 32991.3 3071.37 32933.9 3069.63 32979.1 2999.13 33000 3000"/></g><g transform="translate(36582.6405273 7574.5564879999965) rotate(180)"><polygon fill="none" stroke="#231F20" stroke-width="1" points="31500 3000 31499.1 3053.96 31506.1 3064.4 31551.3 3065.27 31544.4 3001.74 31500 3000"/></g><g transform="translate(3616.7365042000024 17411.2353537) rotate(270)"><polygon fill="none" stroke="#231F20" stroke-width="1" points="12750 1500 12793.1 1498.04 12801.6 1492.82 12794.4 1448.43 12771.5 1434.07 12747.4 1439.3 12750 1500"/></g><g transform="translate(6611.869911199998 -23775.650027) rotate(90)"><polygon fill="none" stroke="#231F20" stroke-width="1" points="28500 1500 28503.5 1549.61 28443.4 1553.96 28439.1 1546.13 28440.8 1520.89 28455.6 1519.15 28458.2 1500 28500 1500"/></g><g transform="translate(6562.220774799998 -25226.521202) rotate(90)"><polygon fill="none" stroke="#231F20" stroke-width="1" points="30000 1500 29955.6 1499.13 29949.5 1436.47 29991.3 1436.47 30000.9 1453.87 30000 1500"/></g><g transform="translate(25331.8418122 7609.668947399998) rotate(180)"><polygon fill="none" stroke="#231F20" stroke-width="1" points="20250 3000 20248.3 3076.59 20210.8 3075.72 20210.8 3000 20250 3000"/></g><g transform="translate(35578.3349959 8634.079217299997) rotate(180)"><polygon fill="none" stroke="#231F20" stroke-width="1" points="30750 3750 30749.1 3772.63 30770 3771.32 30775.2 3765.67 30786.1 3766.97 30790.5 3772.19 30818.3 3769.15 30824.4 3774.37 30833.1 3775.24 30842.7 3767.84 30839.6 3749.13 30827.9 3737.38 30754.8 3742.17 30750 3750"/></g><g transform="translate(8883.854521399999 -19224.2006849) rotate(90)"><polygon fill="none" stroke="#231F20" stroke-width="1" points="24000 3750 23998.3 3790.91 24007 3801.35 24076.6 3802.22 24062.7 3780.46 24026.1 3750.87 24000 3750"/></g><g transform="translate(3327.7268539000042 28889.856694000002) rotate(270)"><polygon fill="none" stroke="#231F20" stroke-width="1" points="24000 1500 24024.8 1502.61 24026.1 1603.13 24039.8 1604.44 24041.8 1612.92 24031.3 1616.84 24020.2 1617.49 24008.5 1597.26 24005.2 1566.58 23997.4 1554.83 24000 1500"/></g><g transform="translate(2754.371807 3343.767675) rotate(0)"><polygon fill="none" stroke="#231F20" stroke-width="1" points="2250 1500 2253.92 1528.72 2265.67 1535.25 2275.46 1535.9 2297.65 1548.96 2313.32 1547 2320.5 1540.47 2318.54 1513.05 2309.4 1510.44 2299.61 1496.74 2250 1500"/></g><g transform="translate(1364.004674100002 12215.673147700001) rotate(270)"><polygon fill="none" stroke="#231F20" stroke-width="1" points="7500 3750 7498.26 3775.24 7506.09 3789.16 7526.11 3802.22 7548.74 3800.48 7557.44 3791.78 7553.96 3746.52 7500 3750"/></g><g transform="translate(-22626.4380817 2361.4136553999997) rotate(0)"><polygon fill="none" stroke="#231F20" stroke-width="1" points="27750 2250 27743.9 2255.22 27744.8 2284.81 27748.3 2297 27792.6 2296.13 27801.3 2271.76 27801.3 2247.39 27750 2250"/></g><g transform="translate(8756.266852199999 -12384.556297300001) rotate(90)"><polygon fill="none" stroke="#231F20" stroke-width="1" points="17250 3750 17256.1 3803.09 17259.6 3808.31 17299.6 3807.44 17290.9 3797.87 17305.7 3750 17250 3750"/></g><g transform="translate(8170.614273099998 -25410.141598000002) rotate(90)"><polygon fill="none" stroke="#231F20" stroke-width="1" points="30000 3000 30020 3020.02 30020.9 3033.94 30002.6 3047.87 29972.2 3049.61 29955.6 3031.33 29954.7 3003.48 30000 3000"/></g><g transform="translate(8295.2557998 -1209.1622137000004) rotate(90)"><polygon fill="none" stroke="#231F20" stroke-width="1" points="6000 3750 5996.52 3758.7 6002.61 3795.26 6020.89 3795.26 6046.13 3787.42 6060.05 3749.13 6048.74 3743.04 6000 3750"/></g><g transform="translate(17866.322274 8664.956732999999) rotate(180)"><polygon fill="none" stroke="#231F20" stroke-width="1" points="12750 3750 12770 3750 12776.1 3770.02 12791.8 3773.5 12790 3812.66 12741.3 3811.79 12750 3750"/></g><g transform="translate(6985.606906299999 -10135.0175699) rotate(90)"><polygon fill="none" stroke="#231F20" stroke-width="1" points="15000 2250 15000 2276.98 15014.8 2284.81 15027.8 2300.48 15041.8 2300.48 15055.7 2283.94 15059.2 2270.02 15056.6 2248.26 15000 2250"/></g><g transform="translate(16132.4708877 7142.461968299998) rotate(180)"><polygon fill="none" stroke="#231F20" stroke-width="1" points="11250 2250 11239.6 2246.08 11238.7 2226.94 11246.5 2219.97 11325.7 2223.45 11324 2249.56 11250 2250"/></g><g transform="translate(31375.0263756 7873.530964899997) rotate(180)"><polygon fill="none" stroke="#231F20" stroke-width="1" points="26250 3000 26250 3061.79 26216.1 3063.53 26208.2 3022.63 26225.6 2997.39 26250 3000"/></g><g transform="translate(3446.108644100001 12384.7204763) rotate(270)"><polygon fill="none" stroke="#231F20" stroke-width="1" points="7500 1500 7446.48 1499.35 7449.09 1457.57 7465.4 1458.88 7471.28 1449.09 7483.68 1447.13 7502.61 1471.93 7500 1500"/></g><g transform="translate(20754.6035167 8698.594491199998) rotate(180)"><polygon fill="none" stroke="#231F20" stroke-width="1" points="15750 3750 15746.5 3807.44 15697.8 3805.7 15697.8 3797 15724.8 3747.39 15750 3750"/></g><g transform="translate(38880.4440993 5690.9421792999965) rotate(180)"><polygon fill="none" stroke="#231F20" stroke-width="1" points="33750 750 33766.3 770.235 33782 774.151 33812.7 800.261 33809.4 736.292 33778.1 733.029 33750 750"/></g><g transform="translate(3627.9947820000016 12969.9494065) rotate(270)"><polygon fill="none" stroke="#231F20" stroke-width="1" points="8250 1500 8248.7 1530.68 8211.49 1543.73 8190.6 1535.25 8191.91 1511.1 8197.78 1497.39 8250 1500"/></g><g transform="translate(2888.209366700006 39426.6600604) rotate(270)"><polygon fill="none" stroke="#231F20" stroke-width="1" points="34500 2250 34517.4 2230.85 34543.5 2232.59 34550.5 2238.69 34550.5 2273.5 34547.9 2280.46 34501.7 2276.98 34500 2250"/></g><g transform="translate(-16239.4021831 1896.0342261) rotate(0)"><polygon fill="none" stroke="#231F20" stroke-width="1" points="21000 3000 21045.3 2997.39 21047 3047 21001.7 3047.87 21000 3000"/></g><g transform="translate(18169.8124247 8702.698998099999) rotate(180)"><polygon fill="none" stroke="#231F20" stroke-width="1" points="13500 3750 13521.8 3775.24 13520 3816.15 13485.2 3814.4 13483.5 3752.61 13500 3750"/></g><g transform="translate(-6652.7581706 3395.3712365) rotate(0)"><polygon fill="none" stroke="#231F20" stroke-width="1" points="11250 1500 11251.3 1538.51 11260.4 1544.39 11294.4 1543.08 11293.7 1520.23 11301.6 1514.36 11300.3 1497.39 11250 1500"/></g><g transform="translate(18093.8134619 7139.521554399998) rotate(180)"><polygon fill="none" stroke="#231F20" stroke-width="1" points="13500 2250 13539.2 2246.52 13538.3 2223.02 13526.1 2208.22 13521.8 2185.6 13498.3 2189.08 13495.6 2216.93 13500 2250"/></g><g transform="translate(-16804.3212327 1919.9652318999997) rotate(0)"><polygon fill="none" stroke="#231F20" stroke-width="1" points="21750 3000 21750.9 3041.78 21803.1 3039.16 21804 2999.13 21750 3000"/></g><g transform="translate(772.219909900004 23718.6335329) rotate(270)"><polygon fill="none" stroke="#231F20" stroke-width="1" points="18750 3750 18807.4 3747.39 18808.3 3773.5 18801.3 3783.94 18794.4 3783.94 18789.2 3781.33 18781.3 3786.55 18760.4 3785.68 18749.1 3773.5 18750 3750"/></g><g transform="translate(-1939.5184586000005 1170.8543927999995) rotate(0)"><polygon fill="none" stroke="#231F20" stroke-width="1" points="6750 3750 6746.52 3755.22 6750 3789.16 6774.37 3798.74 6797 3788.29 6794.39 3756.09 6788.29 3750 6750 3750"/></g><g transform="translate(-3563.7637821 1196.0686967000001) rotate(0)"><polygon fill="none" stroke="#231F20" stroke-width="1" points="8250 3750 8252.61 3761.31 8274.37 3770.89 8349.22 3770.89 8349.22 3747.39 8250 3750"/></g><g transform="translate(5606.606729599998 -28078.8014961) rotate(90)"><polygon fill="none" stroke="#231F20" stroke-width="1" points="33000 750 33035.2 749.347 33039.2 739.556 33051.6 739.556 33050.3 703.003 33022.8 694.517 33010.4 714.099 33005.2 734.987 33000 750"/></g><g transform="translate(873.4971562000051 31975.5870126) rotate(270)"><polygon fill="none" stroke="#231F20" stroke-width="1" points="27000 3750 26999.1 3785.68 27002.6 3793.52 27025.2 3793.95 27036.1 3783.07 27037 3769.58 27036.6 3753.05 27028.3 3736.95 27003 3738.25 27000 3750"/></g><g transform="translate(-25000.8488512 1203.6517456000006) rotate(0)"><polygon fill="none" stroke="#231F20" stroke-width="1" points="30000 3750 29998.7 3768.71 30027.4 3790.03 30052.7 3773.5 30069.2 3770.89 30074.8 3751.31 30000 3750"/></g><g transform="translate(21408.9956989 8749.717165499998) rotate(180)"><polygon fill="none" stroke="#231F20" stroke-width="1" points="16500 3750 16496.5 3812.66 16482.6 3812.66 16460 3776.98 16460.8 3749.13 16500 3750"/></g><g transform="translate(7038.1919351 -4785.1548137) rotate(90)"><polygon fill="none" stroke="#231F20" stroke-width="1" points="9750 2250 9766.1 2270.89 9780.03 2268.28 9782.64 2260.44 9780.9 2204.74 9769.58 2190.82 9764.36 2189.95 9762.62 2203.87 9750.44 2214.32 9750 2250"/></g><g transform="translate(6487.175435999999 -7036.4387101) rotate(90)"><polygon fill="none" stroke="#231F20" stroke-width="1" points="12000 1500 11998 1537.86 12049 1539.16 12049.6 1499.35 12000 1500"/></g><g transform="translate(3364.118313600002 18515.8459649) rotate(270)"><polygon fill="none" stroke="#231F20" stroke-width="1" points="13500 1500 13543.1 1492.82 13543.1 1530.03 13537.9 1543.73 13513.1 1545.04 13500 1530.03 13500 1500"/></g><g transform="translate(11513.5864251 7254.379243599999) rotate(180)"><polygon fill="none" stroke="#231F20" stroke-width="1" points="6750 2250 6754.35 2239.56 6775.24 2250 6811.79 2251.74 6803.96 2260.44 6788.29 2270.02 6786.55 2287.42 6748.26 2279.59 6750 2250"/></g><g transform="translate(6188.699289599999 -10043.2592209) rotate(90)"><polygon fill="none" stroke="#231F20" stroke-width="1" points="15000 1500 14995.4 1510.44 14996.1 1520.89 15092 1519.58 15092 1500 15000 1500"/></g><g transform="translate(2372.0258429999994 5016.2688783) rotate(270)"><polygon fill="none" stroke="#231F20" stroke-width="1" points="0 2250 0 2274.37 -6.96214 2287.42 5.22193 2294.39 38.2937 2296.13 40.0352 2263.05 31.3316 2258.7 31.3316 2243.04 6.96214 2243.04 0 2250"/></g><g transform="translate(-7390.9984805 1957.3034706000003) rotate(0)"><polygon fill="none" stroke="#231F20" stroke-width="1" points="12000 3000 12000 3040.9 11993 3047 11980 3044.39 11947.8 3024.37 11945.2 3004.35 12000 3000"/></g><g transform="translate(2438.699289600006 35016.1020192) rotate(270)"><polygon fill="none" stroke="#231F20" stroke-width="1" points="30000 2250 30012.2 2261.31 30010.4 2280.46 29998.3 2286.55 29949.5 2283.94 29944.3 2276.98 29968.7 2250 30000 2250"/></g><g transform="translate(8528.056784999999 -27997.773449300003) rotate(90)"><polygon fill="none" stroke="#231F20" stroke-width="1" points="33000 3750 33020.9 3749.57 33023.5 3743.04 33065.7 3739.56 33075.3 3747.39 33089.6 3745.21 33104 3748.26 33095.3 3759.14 33081.4 3761.31 32999.6 3763.93 32993.5 3755.66 33000 3750"/></g><g transform="translate(1039.3712381999999 8061.410632700001) rotate(270)"><polygon fill="none" stroke="#231F20" stroke-width="1" points="3000 3750 3009.57 3789.16 3040.91 3787.42 3055.7 3763.92 3055.7 3751.74 3035.68 3745.65 3003.48 3750.87 3000 3750"/></g><g transform="translate(-17774.747243600003 3517.8422536) rotate(0)"><polygon fill="none" stroke="#231F20" stroke-width="1" points="22500 1500 22523.5 1495.43 22531.3 1502.61 22529.4 1556.79 22509.1 1562.01 22502.6 1552.22 22500 1500"/></g><g transform="translate(1841.9482915000017 12576.9029806) rotate(270)"><polygon fill="none" stroke="#231F20" stroke-width="1" points="7500 3000 7500 3021.76 7579.2 3019.15 7593.12 3007.83 7588.77 3000.87 7500 3000"/></g><g transform="translate(1115.8339407000035 28320.676043) rotate(270)"><polygon fill="none" stroke="#231F20" stroke-width="1" points="23250 3750 23257.8 3781.33 23265.7 3788.29 23295.3 3788.29 23304.8 3771.76 23304.8 3758.7 23284.8 3746.52 23250 3750"/></g><g transform="translate(8577.7062022 -4690.767132800001) rotate(90)"><polygon fill="none" stroke="#231F20" stroke-width="1" points="9750 3750 9751.74 3786.55 9765.67 3789.16 9770.02 3793.52 9792.65 3792.65 9797 3775.24 9790.04 3774.37 9790.04 3756.09 9770.02 3745.65 9750 3750"/></g><g transform="translate(8688.3981675 -12941.7426884) rotate(90)"><polygon fill="none" stroke="#231F20" stroke-width="1" points="18000 3750 18000 3776.11 17996.5 3783.07 17953.9 3784.81 17941.7 3769.15 17946 3752.61 18000 3750"/></g><g transform="translate(2688.452205200005 32059.4193955) rotate(270)"><polygon fill="none" stroke="#231F20" stroke-width="1" points="27000 2250 26993 2256.96 26993 2278.72 27030.5 2285.68 27046.1 2280.46 27047 2256.96 27037.4 2248.26 27000 2250"/></g><g transform="translate(1972.7280348000068 41042.5716522) rotate(270)"><polygon fill="none" stroke="#231F20" stroke-width="1" points="36000 3000 36001.7 3050.48 36051.3 3050.48 36051.3 3043.52 36035.7 3033.94 36025.2 3002.61 36000 3000"/></g><g transform="translate(2790.611823900002 14031.9822105) rotate(270)"><polygon fill="none" stroke="#231F20" stroke-width="1" points="9000 2250 9004.35 2274.37 9047.87 2276.11 9048.74 2256.09 9036.55 2232.59 9005.22 2240.43 9000 2250"/></g><g transform="translate(7323.5609864 9456.4731453) rotate(180)"><polygon fill="none" stroke="#231F20" stroke-width="1" points="2250 4500 2215.19 4498.26 2208.22 4476.07 2209.96 4462.58 2220.41 4463.45 2223.02 4449.52 2240.86 4449.96 2246.52 4468.67 2251.74 4468.67 2250 4500"/></g><g transform="translate(3615.4928875000014 14699.9816508) rotate(270)"><polygon fill="none" stroke="#231F20" stroke-width="1" points="9750 1500 9751.96 1531.98 9740.21 1545.04 9720.63 1545.69 9708.88 1535.25 9710.83 1513.71 9723.24 1498.69 9750 1500"/></g><g transform="translate(8412.247319699998 -30178.4390547) rotate(90)"><polygon fill="none" stroke="#231F20" stroke-width="1" points="35250 3750 35253.5 3773.5 35230.9 3780.03 35219.1 3778.72 35195.6 3777.85 35197.8 3761.75 35207.4 3752.61 35219.1 3746.08 35243 3744.78 35250 3750"/></g><g transform="translate(5598.7854747 -2762.8965982) rotate(90)"><polygon fill="none" stroke="#231F20" stroke-width="1" points="7500 750 7489.12 752.176 7479.11 746.084 7441.25 746.084 7439.95 729.547 7452.13 726.936 7451.26 718.668 7499.13 715.623 7500 750"/></g><g transform="translate(-4983.359727 2080.4039150999997) rotate(0)"><polygon fill="none" stroke="#231F20" stroke-width="1" points="9750 3000 9736.95 3015.67 9649.04 3016.54 9642.08 3003.48 9648.17 2998.26 9750 3000"/></g><g transform="translate(17343.0573783 8057.737330699998) rotate(180)"><polygon fill="none" stroke="#231F20" stroke-width="1" points="12750 3000 12751.7 3031.33 12725.6 3045.26 12710.8 3033.07 12710.8 2996.52 12750 3000"/></g><g transform="translate(-8157.3242392 2752.5904689999998) rotate(0)"><polygon fill="none" stroke="#231F20" stroke-width="1" points="12750 2250 12748.3 2280.46 12740.4 2290.04 12707.4 2274.37 12703 2253.48 12714.3 2241.3 12750 2250"/></g><g transform="translate(6048.057042199998 -22780.5733959) rotate(90)"><polygon fill="none" stroke="#231F20" stroke-width="1" points="27750 1500 27750.9 1526.11 27795.3 1531.33 27802.2 1519.15 27823.1 1513.92 27817 1504.35 27750 1500"/></g><g transform="translate(-28665.5327672 2258.0285468) rotate(0)"><polygon fill="none" stroke="#231F20" stroke-width="1" points="33750 2250 33759.6 2244.78 33789.2 2243.04 33797.9 2251.74 33813.5 2261.31 33805.7 2267.41 33796.1 2267.41 33796.1 2275.24 33750.9 2274.37 33749.1 2263.05 33750 2250"/></g><g transform="translate(3808.585344300005 35044.2962979) rotate(270)"><polygon fill="none" stroke="#231F20" stroke-width="1" points="30000 750 30002 778.721 29996.1 783.943 29962.1 780.679 29951.7 780.026 29951.7 758.486 29957.6 748.042 30000 750"/></g><g transform="translate(4647.8040157000005 1326.6668506) rotate(0)"><polygon fill="none" stroke="#231F20" stroke-width="1" points="0 3750 0.434726 3775.68 -43.0809 3773.93 -42.6462 3766.97 -54.8303 3760.88 -57.4413 3746.08 -48.3029 3737.38 -33.9426 3743.91 0 3750"/></g><g transform="translate(16080.3315738 8859.976222799998) rotate(180)"><polygon fill="none" stroke="#231F20" stroke-width="1" points="11250 3750 11255.2 3767.41 11246.5 3783.07 11207.4 3783.07 11203 3767.41 11210.8 3748.26 11250 3750"/></g><g transform="translate(9435.2373599 4309.4491332) rotate(90)"><polygon fill="none" stroke="#231F20" stroke-width="1" points="750 4500 748.26 4533.51 756.093 4540.47 781.332 4540.47 788.294 4525.67 785.683 4507.4 775.239 4494.78 763.926 4493.91 760.879 4499.13 750 4500"/></g><g transform="translate(8307.5941592 1294.6042208) rotate(90)"><polygon fill="none" stroke="#231F20" stroke-width="1" points="3750 3750 3747.39 3779.59 3767.41 3791.78 3783.94 3787.42 3791.78 3773.5 3790.04 3750.87 3750 3750"/></g><g transform="translate(7247.7060108999995 -11458.261678899999) rotate(90)"><polygon fill="none" stroke="#231F20" stroke-width="1" points="16500 2250 16500.9 2276.11 16554.8 2276.98 16559.2 2250 16500 2250"/></g><g transform="translate(1997.7060109000004 8101.341289) rotate(270)"><polygon fill="none" stroke="#231F20" stroke-width="1" points="3000 3000 3055.7 3000 3060.05 3012.18 3054.83 3025.24 3000 3025.24 2994.78 3015.67 3000 3000"/></g><g transform="translate(8092.4226572 2823.0571869000005) rotate(90)"><polygon fill="none" stroke="#231F20" stroke-width="1" points="2250 3000 2254.35 3013.93 2246.58 3032.01 2187.34 3025.24 2163.84 3020.89 2194.3 3011.31 2230.85 3009.57 2250 3000"/></g><g transform="translate(2828.6652413000047 30507.9921654) rotate(270)"><polygon fill="none" stroke="#231F20" stroke-width="1" points="25500 2250 25501.7 2286.55 25495.6 2292.65 25460 2290.9 25460 2260.44 25500 2250"/></g><g transform="translate(-14417.873579 1327.4650046999996) rotate(0)"><polygon fill="none" stroke="#231F20" stroke-width="1" points="19500 3750 19498.3 3770.02 19483.5 3777.85 19468.7 3779.59 19448.7 3771.76 19440.8 3763.92 19444.3 3749.13 19500 3750"/></g><g transform="translate(4372.316839500006 37278.1790221) rotate(270)"><polygon fill="none" stroke="#231F20" stroke-width="1" points="32250 750 32250 788.512 32273.5 791.123 32282.6 785.901 32291.1 747.389 32250 750"/></g><g transform="translate(8886.7728099 -202.25494029999936) rotate(90)"><polygon fill="none" stroke="#231F20" stroke-width="1" points="5250 3750 5250.87 3803.09 5261.31 3801.35 5267.41 3787.42 5291.78 3773.5 5275.24 3747.39 5250 3750"/></g><g transform="translate(29887.3114624 8089.102117799997) rotate(180)"><polygon fill="none" stroke="#231F20" stroke-width="1" points="24750 3000 24742.2 3060.92 24726.5 3060.92 24726.5 3036.55 24722.2 3037.42 24718.7 3001.74 24750 3000"/></g><g transform="translate(-30316.2949669 3590.2773400999995) rotate(0)"><polygon fill="none" stroke="#231F20" stroke-width="1" points="35250 1500 35248.3 1533.07 35277 1538.29 35291.8 1529.59 35294.4 1512.18 35281.3 1501.74 35250 1500"/></g><g transform="translate(8855.149940399999 -24174.6959952) rotate(90)"><polygon fill="none" stroke="#231F20" stroke-width="1" points="29250 3750 29243.5 3760.44 29249.1 3763.05 29252.6 3773.06 29306.6 3767.41 29307.4 3743.91 29283.5 3745.65 29277.8 3749.56 29272.2 3747.82 29250 3750"/></g><g transform="translate(7407.800404199999 -3125.1935923) rotate(90)"><polygon fill="none" stroke="#231F20" stroke-width="1" points="8250 2250 8250.44 2296.13 8217.36 2297 8213.88 2263.05 8231.29 2263.05 8230.42 2250 8250 2250"/></g><g transform="translate(11790.5701601 8129.511553999999) rotate(180)"><polygon fill="none" stroke="#231F20" stroke-width="1" points="6750 3000 6739.56 3013.05 6759.57 3024.37 6813.53 3020.02 6806.57 3000.87 6750 3000"/></g><g transform="translate(30418.196418 8881.066010999997) rotate(180)"><polygon fill="none" stroke="#231F20" stroke-width="1" points="25500 3750 25530.9 3753.05 25540.9 3767.84 25532.2 3782.2 25497.8 3781.77 25491.7 3771.76 25489.6 3759.57 25500 3750"/></g><g transform="translate(5379.050966400001 6855.4970293999995) rotate(180)"><polygon fill="none" stroke="#231F20" stroke-width="1" points="750 2250 748.26 2302.22 781.332 2281.33 783.072 2247.39 750 2250"/></g><g transform="translate(1690.971352100004 28175.6250465) rotate(270)"><polygon fill="none" stroke="#231F20" stroke-width="1" points="23250 3000 23250.9 3070.5 23231.7 3071.37 23230 3000 23250 3000"/></g><g transform="translate(32496.0844388 8880.069386999996) rotate(180)"><polygon fill="none" stroke="#231F20" stroke-width="1" points="27750 3750 27761.7 3769.58 27765.2 3777.42 27748.3 3783.94 27725.6 3780.9 27716.9 3764.79 27717.4 3743.04 27750 3750"/></g><g transform="translate(1052.6327982000007 7390.589423100001) rotate(270)"><polygon fill="none" stroke="#231F20" stroke-width="1" points="2250 3750 2285.68 3750 2286.55 3771.76 2272.63 3785.68 2250 3792.65 2245.65 3785.68 2250 3750"/></g><g transform="translate(6907.4041071 5866.5690838) rotate(180)"><polygon fill="none" stroke="#231F20" stroke-width="1" points="2250 750 2247.82 769.582 2190.38 770.018 2176.02 760.444 2175.15 751.305 2203 752.176 2228.24 751.742 2235.2 745.649 2246.08 745.649 2250 750"/></g><g transform="translate(-20649.5895412 2118.9802720999996) rotate(0)"><polygon fill="none" stroke="#231F20" stroke-width="1" points="25500 3000 25527 2999.13 25537.4 3009.57 25536.6 3032.2 25499.1 3033.94 25495.6 3027.85 25493 3006.96 25500 3000"/></g><g transform="translate(-23612.313908 2882.4119511) rotate(0)"><polygon fill="none" stroke="#231F20" stroke-width="1" points="28500 2250 28507 2270.89 28520.9 2270.89 28527.8 2276.98 28540 2274.37 28560.1 2266.54 28559.2 2247.39 28500 2250"/></g><g transform="translate(31947.4887808 5913.510894099997) rotate(180)"><polygon fill="none" stroke="#231F20" stroke-width="1" points="27000 750 26997.4 784.595 26975.2 782.637 26960.8 777.415 26960.2 750.653 27000 750"/></g><g transform="translate(25991.8009342 8903.880706699998) rotate(180)"><polygon fill="none" stroke="#231F20" stroke-width="1" points="21000 3750 21002.6 3772.63 20951.3 3774.37 20946.9 3750.87 20972.2 3749.13 20980 3743.91 21000 3750"/></g><g transform="translate(4338.681219500001 13414.5995776) rotate(270)"><polygon fill="none" stroke="#231F20" stroke-width="1" points="8250 750 8282.64 750 8280.9 737.816 8279.16 708.661 8260.44 706.05 8246.96 714.752 8251.3 729.983 8246.52 736.51 8250 750"/></g><g transform="translate(27907.8839743 6652.100895499997) rotate(180)"><polygon fill="none" stroke="#231F20" stroke-width="1" points="23250 1500 23274.2 1501.96 23276.1 1513.71 23280 1518.28 23279.4 1534.6 23272.2 1550.26 23250.7 1548.3 23250 1500"/></g><g transform="translate(15989.2141657 8145.724540299998) rotate(180)"><polygon fill="none" stroke="#231F20" stroke-width="1" points="11250 3000 11294.4 3000 11294.4 3022.63 11285.7 3030.46 11257 3030.46 11250 3023.5 11250 3000"/></g><g transform="translate(3837.4127579000015 9603.2509696) rotate(270)"><polygon fill="none" stroke="#231F20" stroke-width="1" points="4500 750 4501.74 790.035 4467.36 790.47 4467.36 752.611 4485.21 752.611 4500 750"/></g><g transform="translate(2786.0479013000045 29826.7445734) rotate(270)"><polygon fill="none" stroke="#231F20" stroke-width="1" points="24750 2250 24762.2 2238.69 24781.3 2238.69 24793.5 2263.05 24787.4 2274.37 24751.7 2274.37 24750 2250"/></g><g transform="translate(1204.0352226000005 5297.8659715) rotate(270)"><polygon fill="none" stroke="#231F20" stroke-width="1" points="750 3750 792.619 3747.49 796.997 3763.05 776.979 3782.2 750 3775.24 750 3750"/></g><g transform="translate(35294.7643204 8117.189721899997) rotate(180)"><polygon fill="none" stroke="#231F20" stroke-width="1" points="30750 3000 30760.4 3012.18 30763.9 3025.24 30715.2 3024.37 30707.4 3019.15 30707.4 3000 30750 3000"/></g><g transform="translate(-2369.6637755 2883.4507950999996) rotate(0)"><polygon fill="none" stroke="#231F20" stroke-width="1" points="7500 2250 7500 2282.2 7458.22 2282.2 7461.71 2251.74 7500 2250"/></g><g transform="translate(26445.029773000002 5870.920280099997) rotate(180)"><polygon fill="none" stroke="#231F20" stroke-width="1" points="21750 750 21772.8 750 21778.7 744.778 21778.1 708.225 21731.7 712.141 21735 722.585 21752.6 721.932 21750 750"/></g><g transform="translate(2878.9212884000053 35924.6145085) rotate(270)"><polygon fill="none" stroke="#231F20" stroke-width="1" points="30750 2250 30751.7 2278.72 30796.1 2280.46 30799.6 2257.83 30750 2250"/></g><g transform="translate(3058.4234492000005 8911.5764407) rotate(270)"><polygon fill="none" stroke="#231F20" stroke-width="1" points="3750 1500 3753.26 1516.97 3758.49 1520.89 3758.49 1530.03 3787.21 1530.68 3793.73 1522.85 3794.39 1503.92 3750 1500"/></g><g transform="translate(23555.5351029 6666.710491099998) rotate(180)"><polygon fill="none" stroke="#231F20" stroke-width="1" points="18750 1500 18785.2 1495.43 18791.8 1518.93 18785.9 1526.11 18776.1 1527.42 18767.6 1533.29 18753.3 1529.37 18750 1500"/></g><g transform="translate(95.65525930000058 8923.601105900001) rotate(270)"><polygon fill="none" stroke="#231F20" stroke-width="1" points="3750 4500 3751 4500.17 3768.55 4503.13 3773.13 4493.5 3779.63 4495.42 3782.76 4513.25 3781.56 4527.46 3770.72 4540.47 3756.99 4539.27 3750 4518.07 3750 4500"/></g><g transform="translate(6305.2456054 7419.4595202) rotate(180)"><polygon fill="none" stroke="#231F20" stroke-width="1" points="1500 2250 1498.26 2266.54 1434.73 2266.54 1436.47 2245.65 1500 2250"/></g><g transform="translate(25013.7597123 8921.453377999998) rotate(180)"><polygon fill="none" stroke="#231F20" stroke-width="1" points="20250 3750 20250 3776.11 20304 3773.5 20288.3 3749.13 20250 3750"/></g><g transform="translate(6056.393405099999 -16632.810278099998) rotate(90)"><polygon fill="none" stroke="#231F20" stroke-width="1" points="21750 1500 21755.2 1535.25 21787.2 1539.82 21785.9 1508.49 21774.8 1507.83 21763.7 1496.08 21750 1500"/></g><g transform="translate(6672.367867599998 -26958.8455204) rotate(90)"><polygon fill="none" stroke="#231F20" stroke-width="1" points="31500 1500 31501.7 1505.22 31503.5 1531.33 31490.4 1531.33 31480.9 1524.37 31463.4 1524.37 31463.4 1498.26 31500 1500"/></g><g transform="translate(3000.7866033000064 41114.5954366) rotate(270)"><polygon fill="none" stroke="#231F20" stroke-width="1" points="36000 1500 35993 1526.11 36011.3 1533.07 36032.2 1526.11 36038.3 1502.61 36029.6 1502.61 36000 1500"/></g><g transform="translate(5656.833517199999 -13258.363591) rotate(90)"><polygon fill="none" stroke="#231F20" stroke-width="1" points="18000 750 18033.9 747.389 18033.9 736.51 18027.8 719.974 18015.7 718.234 17999.1 715.623 18000 750"/></g><g transform="translate(1591.1582052000026 19040.288742) rotate(270)"><polygon fill="none" stroke="#231F20" stroke-width="1" points="14250 3000 14256.1 3024.37 14295.3 3020.89 14295.3 3008.7 14290 2996.52 14250 3000"/></g><g transform="translate(-15863.279176299999 3291.3100014) rotate(0)"><polygon fill="none" stroke="#231F20" stroke-width="1" points="21000 1500 20996.7 1519.58 21033.9 1518.28 21037.9 1515.01 21037.2 1501.31 21033.3 1484.99 21000 1500"/></g><g transform="translate(7665.764943699999 -8861.5763816) rotate(90)"><polygon fill="none" stroke="#231F20" stroke-width="1" points="13500 3000 13503.5 3017.41 13514.8 3028.72 13538.3 3029.59 13534.8 2997.39 13500 3000"/></g><g transform="translate(7518.465733599998 -27320.606599) rotate(90)"><polygon fill="none" stroke="#231F20" stroke-width="1" points="32250 3000 32244.8 3006.96 32252.6 3018.28 32296.1 3015.67 32297.9 3001.74 32290.9 2996.52 32250 3000"/></g><g transform="translate(24565.7524055 5701.735756099998) rotate(180)"><polygon fill="none" stroke="#231F20" stroke-width="1" points="19500 750 19496.7 782.637 19507.2 788.512 19516.3 786.554 19520.9 765.013 19527.4 758.486 19526.8 747.389 19500 750"/></g><g transform="translate(3915.8832489000024 13744.507294399999) rotate(270)"><polygon fill="none" stroke="#231F20" stroke-width="1" points="9000 750 9002.18 767.406 9048.74 769.148 9050.48 753.046 9023.5 750.435 9000 750"/></g><g transform="translate(3754.1727021000015 10305.9958763) rotate(270)"><polygon fill="none" stroke="#231F20" stroke-width="1" points="5250 750 5290.9 748.258 5290.03 764.795 5280.9 772.193 5261.31 772.193 5252.17 762.184 5250 750"/></g><g transform="translate(-26449.8120857 4357.0940474) rotate(0)"><polygon fill="none" stroke="#231F20" stroke-width="1" points="31500 750 31502 772.193 31534.6 774.804 31535.2 753.916 31530.7 748.042 31500 750"/></g><g transform="translate(-15121.4500146 4197.4659864000005) rotate(0)"><polygon fill="none" stroke="#231F20" stroke-width="1" points="20250 750 20294.4 751.305 20296.3 733.681 20255.9 729.765 20250 750"/></g><g transform="translate(37748.8338045 6129.517940799996) rotate(180)"><polygon fill="none" stroke="#231F20" stroke-width="1" points="33000 1500 32999.1 1532.2 33019.1 1532.2 33023.5 1526.11 33023.5 1506.09 33013.9 1497.39 33000 1500"/></g><g transform="translate(19298.8374634 7047.523402499998) rotate(180)"><polygon fill="none" stroke="#231F20" stroke-width="1" points="14250 2250 14256.1 2270.02 14218.7 2272.63 14217.8 2250.87 14250 2250"/></g><g transform="translate(10719.4487397 5827.4961852999995) rotate(180)"><polygon fill="none" stroke="#231F20" stroke-width="1" points="6000 750 6046.56 748.695 6045.69 758.704 6037.86 769.582 6019.15 769.582 6000 750"/></g><g transform="translate(7719.161447799998 -22783.043608) rotate(90)"><polygon fill="none" stroke="#231F20" stroke-width="1" points="27750 3000 27750 3030.46 27773.5 3030.46 27775.2 3009.57 27750 3000"/></g><g transform="translate(20463.8258443 7522.627862499999) rotate(180)"><polygon fill="none" stroke="#231F20" stroke-width="1" points="15750 3000 15753.5 3022.63 15779.6 3022.63 15775.2 2997.39 15750 3000"/></g><g transform="translate(24384.7844936 7422.340118299997) rotate(180)"><polygon fill="none" stroke="#231F20" stroke-width="1" points="19500 2250 19476.5 2249.13 19475.6 2268.28 19508.7 2270.02 19508.7 2253.48 19500 2250"/></g><g transform="translate(7089.624904199998 -17448.718026900002) rotate(90)"><polygon fill="none" stroke="#231F20" stroke-width="1" points="22500 2250 22503.5 2256.96 22496.5 2261.31 22445.2 2260.44 22443.4 2250 22500 2250"/></g><g transform="translate(31034.6458145 5268.929457099997) rotate(180)"><polygon fill="none" stroke="#231F20" stroke-width="1" points="26250 750 26254.6 745.431 26274.8 744.778 26278.1 768.277 26252.6 768.93 26250 750"/></g><g transform="translate(-660.6919131000004 2612.545677) rotate(0)"><polygon fill="none" stroke="#231F20" stroke-width="1" points="5250 2250 5249.57 2277.42 5229.11 2276.54 5229.55 2248.69 5250 2250"/></g><g transform="translate(5268.764105799998 -30130.6089938) rotate(90)"><polygon fill="none" stroke="#231F20" stroke-width="1" points="35250 750 35250.7 765.666 35292.4 765.013 35291.8 752.611 35250 750"/></g><g transform="translate(24258.2338595 6421.803917399997) rotate(180)"><polygon fill="none" stroke="#231F20" stroke-width="1" points="19500 1500 19498.7 1522.19 19515 1527.42 19520.9 1524.8 19520.9 1498.69 19500 1500"/></g><g transform="translate(-29085.153334399998 2152.0124828000003) rotate(0)"><polygon fill="none" stroke="#231F20" stroke-width="1" points="33750 3000 33750 3019.15 33722.1 3020.02 33721.3 3000.87 33750 3000"/></g><g transform="translate(-3363.6411661 1846.5300786999996) rotate(0)"><polygon fill="none" stroke="#231F20" stroke-width="1" points="8250 3000 8255.33 3017.3 8288.4 3017.3 8286.66 3003.37 8250 3000"/></g><g transform="translate(16636.3440083 5596.564114599998) rotate(180)"><polygon fill="none" stroke="#231F20" stroke-width="1" points="12000 750 12000 764.795 11983.5 766.101 11971.3 762.184 11970.8 749.129 12000 750"/></g><g transform="translate(5920.7664792999985 -30872.3232995) rotate(90)"><polygon fill="none" stroke="#231F20" stroke-width="1" points="36000 750 36000.7 762.402 35960.2 761.097 35959.5 747.389 36000 750"/></g><g transform="translate(5603.5002937 7519.8887818) rotate(180)"><polygon fill="none" stroke="#231F20" stroke-width="1" points="750 3000 748.26 3016.54 782.093 3018.93 779.591 3009.57 779.591 3002.61 750 3000"/></g><g transform="translate(22031.7020815 8133.349366999997) rotate(180)"><polygon fill="none" stroke="#231F20" stroke-width="1" points="17250 3000 17252.6 3014.8 17243.9 3026.98 17231.7 3020.02 17230 3012.18 17232.6 3001.74 17250 3000"/></g><g transform="translate(-16781.6646797 2822.0913572) rotate(0)"><polygon fill="none" stroke="#231F20" stroke-width="1" points="21750 2250 21747.4 2270.02 21721.3 2266.54 21723.9 2254.35 21734.3 2248.26 21750 2250"/></g><g transform="translate(28823.368191499998 5266.987069199997) rotate(180)"><polygon fill="none" stroke="#231F20" stroke-width="1" points="24000 750 24001.3 761.749 24037.9 765.013 24035.9 745.431 24030.7 750 24000 750"/></g><g transform="translate(5267.8513837 4255.110442) rotate(90)"><polygon fill="none" stroke="#231F20" stroke-width="1" points="750 750 748.26 766.971 722.15 766.971 722.15 750.436 750 750"/></g><g transform="translate(4200.322529000002 15855.4736477) rotate(270)"><polygon fill="none" stroke="#231F20" stroke-width="1" points="11250 750 11231.7 756.527 11233.9 763.49 11246.5 765.666 11264.8 767.841 11266.1 759.573 11261.3 751.74 11250 750"/></g><g transform="translate(-9988.7880671 4232.28648) rotate(0)"><polygon fill="none" stroke="#231F20" stroke-width="1" points="15000 750 14998.3 770.018 14977.4 768.713 14977.8 749.565 15000 750"/></g><g transform="translate(9932.845202600001 8173.5744549) rotate(180)"><polygon fill="none" stroke="#231F20" stroke-width="1" points="5250 3000 5250 3012.18 5219.54 3014.8 5217.8 3000.87 5250 3000"/></g><g transform="translate(28300.9685619 5922.735431899997) rotate(180)"><polygon fill="none" stroke="#231F20" stroke-width="1" points="23250 750 23248 755.875 23262.4 763.055 23267.6 768.93 23275.5 756.527 23276.1 748.695 23250 750"/></g><g transform="translate(4234.747559300003 20259.2561796) rotate(270)"><polygon fill="none" stroke="#231F20" stroke-width="1" points="15750 750 15759.1 772.193 15743 770.017 15738.3 763.926 15738.3 753.916 15744.3 749.565 15750 750"/></g><g transform="translate(38024.2383884 7421.727933199996) rotate(180)"><polygon fill="none" stroke="#231F20" stroke-width="1" points="33000 2250 32997.4 2261.31 33027 2262.18 33029.6 2255.22 33021.8 2253.48 33022.6 2247.39 33000 2250"/></g><g transform="translate(7893.8970278 3590.4240115000002) rotate(90)"><polygon fill="none" stroke="#231F20" stroke-width="1" points="1500 3000 1499.13 3017.41 1479.11 3015.67 1479.98 2999.13 1500 3000"/></g><g transform="translate(-29355.2663861 4281.3817521) rotate(0)"><polygon fill="none" stroke="#231F20" stroke-width="1" points="34500 750 34496.1 763.708 34475.8 761.749 34477.2 746.736 34500 750"/></g><g transform="translate(-11569.7859069 2155.8488832000003) rotate(0)"><polygon fill="none" stroke="#231F20" stroke-width="1" points="16500 3000 16499.1 3018.28 16516.5 3018.28 16517.4 3000 16500 3000"/></g><g transform="translate(-7940.8300977 4197.2273337) rotate(0)"><polygon fill="none" stroke="#231F20" stroke-width="1" points="12750 750 12747.4 767.842 12734.8 767.407 12727.8 754.787 12737.4 748.695 12750 750"/></g><g transform="translate(606.3134850000006 7852.829986600001) rotate(270)"><polygon fill="none" stroke="#231F20" stroke-width="1" points="3000 4500 3016.54 4500 3020.02 4512.19 3013.05 4518.71 3001.74 4516.1 3000 4500"/></g><g transform="translate(2280.883418500006 40415.2564624) rotate(270)"><polygon fill="none" stroke="#231F20" stroke-width="1" points="35250 2250 35249.1 2270.89 35256.1 2275.24 35261.3 2270.02 35261.3 2246.52 35250 2250"/></g><g transform="translate(-5218.4579337 4145.562130099999) rotate(0)"><polygon fill="none" stroke="#231F20" stroke-width="1" points="9750 750 9743.91 755.658 9743.47 763.926 9763.05 764.796 9765.67 753.482 9750 750"/></g><g transform="translate(-16406.3270038 2909.7432928) rotate(0)"><polygon fill="none" stroke="#231F20" stroke-width="1" points="21000 2250 21002.2 2262.39 20981.7 2260.88 20981.7 2248.69 21000 2250"/></g><g transform="translate(30276.3835812 5410.855812899997) rotate(180)"><polygon fill="none" stroke="#231F20" stroke-width="1" points="25500 750 25500 754.569 25523.5 756.527 25524.2 751.958 25515.7 750.653 25515 746.084 25505.2 745.431 25500 750"/></g><g transform="translate(9003.3975652 7326.3024678) rotate(180)"><polygon fill="none" stroke="#231F20" stroke-width="1" points="4500 2250 4500 2263.93 4487.82 2262.19 4489.56 2248.26 4500 2250"/></g><g transform="translate(29922.7811229 5784.195508899997) rotate(180)"><polygon fill="none" stroke="#231F20" stroke-width="1" points="24750 750 24749.3 766.319 24760.4 769.582 24761.1 751.305 24750 750"/></g><g transform="translate(25669.1381714 5920.997441599997) rotate(180)"><polygon fill="none" stroke="#231F20" stroke-width="1" points="21000 750 21000 758.486 20986.3 759.138 20986.9 747.389 21000 750"/></g></g></svg>