<svg xmlns="http://www.w3.org/2000/svg" width="10.833333333333334in" height="9.166666666666666in" viewBox="0 0 780 660"><g transform="translate(-18750 -750)"><g transform="translate(19709.999849097803 -2250.000031040981) rotate(90)"><polygon fill="none" stroke="#231F20" stroke-width="1" points="3000 750 3157.5 750 3157.5 915 3105 960 3052.5 960 3000 915"/></g><g transform="translate(19987.4998491 -14999.9999943) rotate(90)"><polygon fill="none" stroke="#231F20" stroke-width="1" points="15750 750 15967.5 750 15952.5 840 15967.5 915 15937.5 945 15937.5 997.5 15885 1027.5 15870 1012.5 15855 1012.5 15840 1027.5 15780 1005 15780 945 15750 915 15765 840"/></g><g transform="translate(20197.4998491 0) rotate(90)"><polygon fill="none" stroke="#231F20" stroke-width="1" points="750 750 907.5 750 907.5 915 855 960 802.5 960 750 915"/></g><g transform="translate(18487.4998491 2565) rotate(270)"><polygon fill="none" stroke="#231F20" stroke-width="1" points="1500 750 1657.5 750 1657.5 915 1605 960 1552.5 960 1500 915"/></g><g transform="translate(26737.4998491 1845.000005699999) rotate(180)"><polygon fill="none" stroke="#231F20" stroke-width="1" points="7500 750 7747.5 750 7747.5 855 7725 855 7695 877.5 7597.5 862.5 7500 877.5"/></g><g transform="translate(19722.856971 -17092.500031) rotate(90)"><polygon fill="none" stroke="#231F20" stroke-width="1" points="18000 750 18247.5 750 18277.5 795 18262.5 847.5 18210 847.5 18187.5 862.5 18105 847.5 18000 862.5"/></g><g transform="translate(18222.856971000005 17812.5000057) rotate(270)"><polygon fill="none" stroke="#231F20" stroke-width="1" points="16500 750 16717.5 750 16702.5 840 16717.5 915 16687.5 945 16687.5 997.5 16635 1027.5 16620 1012.5 16605 1012.5 16590 1027.5 16530 1005 16530 945 16500 915 16515 840"/></g><g transform="translate(20122.0877411 -5685) rotate(90)"><polygon fill="none" stroke="#231F20" stroke-width="1" points="6750 750 6997.5 750 6997.5 855 6975 855 6945 877.5 6847.5 862.5 6750 877.5"/></g><g transform="translate(21779.5877411 2006.0675210999998) rotate(180)"><polygon fill="none" stroke="#231F20" stroke-width="1" points="2250 750 2407.5 750 2407.5 915 2355 960 2302.5 960 2250 915"/></g><g transform="translate(19610.356971 -9592.500031) rotate(90)"><polygon fill="none" stroke="#231F20" stroke-width="1" points="10500 750 10575 750 10575 832.5 10500 832.5"/></g><g transform="translate(18001.947880100004 18509.999969) rotate(270)"><polygon fill="none" stroke="#231F20" stroke-width="1" points="17250 750 17497.5 750 17527.5 795 17512.5 847.5 17460 847.5 17437.5 862.5 17355 847.5 17250 862.5"/></g><g transform="translate(10447.4998491 3.5675211000000218) rotate(0)"><polygon fill="none" stroke="#231F20" stroke-width="1" points="9000 750 9030 750 9030 1042.5 9000 1042.5"/></g><g transform="translate(18114.447880100004 12509.999969) rotate(270)"><polygon fill="none" stroke="#231F20" stroke-width="1" points="11250 750 11325 750 11325 832.5 11250 832.5"/></g><g transform="translate(12815.356971000001 509.99996899999996) rotate(0)"><polygon fill="none" stroke="#231F20" stroke-width="1" points="6000 787.5 6015 750 6082.5 765 6142.5 750 6157.5 787.5 6127.5 780 6082.5 795 6030 780"/></g><g transform="translate(29197.0877411 2088.567521099999) rotate(180)"><polygon fill="none" stroke="#231F20" stroke-width="1" points="9750 750 9825 750 9825 832.5 9750 832.5"/></g><g transform="translate(18727.4998491 6311.4207565) rotate(270)"><polygon fill="none" stroke="#231F20" stroke-width="1" points="5250 787.5 5265 750 5332.5 765 5392.5 750 5407.5 787.5 5377.5 780 5332.5 795 5280 780"/></g><g transform="translate(18329.5877411 9592.5000057) rotate(270)"><polygon fill="none" stroke="#231F20" stroke-width="1" points="8250 750 8280 750 8280 1042.5 8250 1042.5"/></g><g transform="translate(14403.214113900001 550.3571486000001) rotate(0)"><polygon fill="none" stroke="#231F20" stroke-width="1" points="4500 787.5 4515 750 4582.5 765 4642.5 750 4657.5 787.5 4627.5 780 4582.5 795 4530 780"/></g><g transform="translate(31522.0877411 2088.5675210999984) rotate(180)"><polygon fill="none" stroke="#231F20" stroke-width="1" points="12000 750 12075 750 12075 832.5 12000 832.5"/></g><g transform="translate(32257.4998491 1662.9207564999983) rotate(180)"><polygon fill="none" stroke="#231F20" stroke-width="1" points="12765 900 12750 885 12765 825 12750 765 12765 750 12780 825 12765 900"/></g><g transform="translate(34527.0650665 1655.0946694999982) rotate(180)"><polygon fill="none" stroke="#231F20" stroke-width="1" points="15015 900 15000 885 15015 825 15000 765 15015 750 15030 825 15015 900"/></g><g transform="translate(22668.4125429 2087.3610759999992) rotate(180)"><polygon fill="none" stroke="#231F20" stroke-width="1" points="3750 787.5 3765 750 3832.5 765 3892.5 750 3907.5 787.5 3877.5 780 3832.5 795 3780 780"/></g></g></svg>