<svg xmlns="http://www.w3.org/2000/svg" width="9.375in" height="10.312500000000002in" viewBox="0 0 675 742.5000000000001"><g transform="translate(-25500 -3000)"><g transform="translate(6092.613329760374 1513.471615370574) rotate(0)"><polygon fill="none" stroke="#231F20" stroke-width="1" points="19500 1500 19501 1523.22 19496.4 1548.55 19488.3 1547.63 19484.9 1553.99 19407.4 1542.75 19419.5 1491.13 19437.1 1486.53 19500 1500"/></g><g transform="translate(35276.92383714669 25990.354387364852) rotate(240)"><polygon fill="none" stroke="#231F20" stroke-width="1" points="24750 3000 24709.1 3035.4 24698.2 3054.03 24652.9 3034.88 24643.8 3014.68 24660.9 2977.28 24674.8 2969.07 24750 3000"/></g><g transform="translate(43099.66915228902 -25759.564242699198) rotate(120)"><polygon fill="none" stroke="#231F20" stroke-width="1" points="33750 750 33694.9 749.932 33673.8 756.736 33653.7 713.45 33661.1 692.662 33699.9 675.899 33716 678.749 33750 750"/></g><g transform="translate(41512.274709723526 33790.08139760531) rotate(240)"><polygon fill="none" stroke="#231F20" stroke-width="1" points="34500 1500 34543.3 1559.39 34505.6 1583.99 34478.3 1579.78 34450.2 1537.27 34452.5 1524.29 34480.3 1506.1 34488.5 1511.17 34500 1500"/></g><g transform="translate(34242.71666971223 22381.341578031577) rotate(240)"><polygon fill="none" stroke="#231F20" stroke-width="1" points="21000 2250 20950.8 2235.83 20930.1 2236.32 20923.9 2193.63 20936.2 2177.51 20975.4 2172.92 20989 2179.5 21000 2250"/></g><g transform="translate(39162.820326213194 -14105.050592268608) rotate(120)"><polygon fill="none" stroke="#231F20" stroke-width="1" points="21750 3000 21774.1 3063.12 21733.8 3084.65 21710.1 3078.16 21695.5 3033.22 21700.9 3020.4 21730.7 3004.47 21736.8 3010.24 21750 3000"/></g><g transform="translate(43091.4178559151 34666.99588834627) rotate(240)"><polygon fill="none" stroke="#231F20" stroke-width="1" points="36000 750 35980.9 759.302 35957.9 764.68 35955.8 757.457 35949.2 756.898 35930.5 687.253 35978.3 678.686 35988.5 691.894 36000 750"/></g><g transform="translate(21962.5198901 785.568628) rotate(0)"><polygon fill="none" stroke="#231F20" stroke-width="1" points="3750 2250 3796.74 2262.17 3800.25 2282.1 3813.83 2294.43 3804.58 2318.26 3791.71 2321.28 3779.18 2326.92 3735.59 2311.8 3750 2250"/></g><g transform="translate(30627.642185353317 762.7182702700252) rotate(120)"><polygon fill="none" stroke="#231F20" stroke-width="1" points="4500 3000 4460.32 3025.39 4449.15 3040.13 4409.1 3017.72 4402.17 2999.06 4420.18 2968.87 4433.41 2963.54 4500 3000"/></g><g transform="translate(7547.988304899998 895.3474335999999) rotate(0)"><polygon fill="none" stroke="#231F20" stroke-width="1" points="18000 2250 18045.1 2307 18008.6 2323.3 17981.4 2316.08 17952 2275.66 17953.8 2264.74 17980.7 2252.68 17989.1 2258.14 18000 2250"/></g><g transform="translate(41630.71593533005 -22977.94067236374) rotate(120)"><polygon fill="none" stroke="#231F20" stroke-width="1" points="30750 750 30739.5 821.099 30702.3 806.609 30688.7 782.403 30697.9 733.776 30707.1 727.552 30734.7 738.238 30736.4 747.887 30750 750"/></g><g transform="translate(34239.136557040634 -8385.367610285075) rotate(120)"><polygon fill="none" stroke="#231F20" stroke-width="1" points="14250 1500 14299.8 1551.86 14265.5 1569.8 14238 1564.59 14205.2 1527.65 14205.9 1517.06 14231.3 1503.79 14240 1508.5 14250 1500"/></g><g transform="translate(23841.576787997863 6067.742330511127) rotate(240)"><polygon fill="none" stroke="#231F20" stroke-width="1" points="1500 3000 1555.69 3040.35 1527.76 3068.82 1501.57 3071.08 1464.34 3041.59 1462.98 3030.28 1483.6 3009.24 1492.5 3011.72 1500 3000"/></g><g transform="translate(32860.29658209924 17284.683469538966) rotate(240)"><polygon fill="none" stroke="#231F20" stroke-width="1" points="15750 750 15759 766.5 15763.5 786 15755.5 787.5 15754.5 793 15677.5 805.5 15671 765 15686 757 15750 750"/></g><g transform="translate(35278.01136296054 24558.944418670137) rotate(240)"><polygon fill="none" stroke="#231F20" stroke-width="1" points="23250 2250 23259.3 2265.83 23263.9 2284.53 23255.7 2285.97 23254.6 2291.25 23175.3 2303.23 23168.7 2264.38 23184.1 2256.71 23250 2250"/></g><g transform="translate(15055.040217400001 2498.6214010000003) rotate(0)"><polygon fill="none" stroke="#231F20" stroke-width="1" points="10500 750 10557 782 10536 816.5 10512.5 823.5 10474 799.5 10471 788 10486.5 762.5 10495 763.5 10500 750"/></g><g transform="translate(22638.8385208 1105.2600717) rotate(0)"><polygon fill="none" stroke="#231F20" stroke-width="1" points="3000 2250 2999.32 2267.55 2993.31 2284.79 2985.75 2281.37 2982.13 2284.95 2910.43 2250.56 2925.34 2216.36 2942.11 2218.87 3000 2250"/></g><g transform="translate(34087.49835272556 -5174.771305444763) rotate(120)"><polygon fill="none" stroke="#231F20" stroke-width="1" points="11250 3000 11213.6 3019.55 11233.5 3055.48 11258.2 3065.11 11276.4 3088.67 11285.8 3087.89 11293.1 3094.45 11297.8 3089.2 11291.9 3071.27 11291.2 3063.46 11260.7 3008.91 11250 3000"/></g><g transform="translate(28559.105034001357 4295.487313301024) rotate(120)"><polygon fill="none" stroke="#231F20" stroke-width="1" points="750 3000 748.991 3051.11 705.812 3050.67 690.418 3040.4 685.071 2997.14 706.426 2980.92 714.86 2987.14 724.752 2986.9 738.368 2999.24 750 3000"/></g><g transform="translate(32522.774493253142 19140.51625491482) rotate(240)"><polygon fill="none" stroke="#231F20" stroke-width="1" points="17250 2250 17246 2299.18 17202.7 2295.24 17187.8 2284.09 17185 2241.96 17207.4 2228.06 17215.5 2234.75 17225.4 2235.32 17238.4 2248.32 17250 2250"/></g><g transform="translate(31737.801313462864 -1089.0199272272312) rotate(120)"><polygon fill="none" stroke="#231F20" stroke-width="1" points="6750 3000 6742.27 3015.11 6729.98 3027.72 6724.75 3021.55 6720.12 3023.17 6671.24 2962.93 6698.23 2939.18 6711.92 2948.41 6750 3000"/></g><g transform="translate(31252.554717451523 -3113.6157054010187) rotate(120)"><polygon fill="none" stroke="#231F20" stroke-width="1" points="8250 1500 8242.47 1505.58 8232.37 1508.95 8226.59 1511.38 8269.66 1552.1 8314.96 1590.33 8332.15 1577.25 8333.97 1567.18 8250 1500"/></g><g transform="translate(31915.482854986723 15213.033749709499) rotate(240)"><polygon fill="none" stroke="#231F20" stroke-width="1" points="13500 750 13481.5 791 13479.5 809 13440.5 809.5 13427.5 797 13428 762.5 13435.5 751.5 13500 750"/></g><g transform="translate(33007.75637302335 19020.11820878156) rotate(240)"><polygon fill="none" stroke="#231F20" stroke-width="1" points="17250 1500 17230.9 1540.95 17228.3 1559.15 17191.3 1558.26 17179.4 1545.12 17181.2 1510.12 17188.8 1499.22 17250 1500"/></g><g transform="translate(28007.74867721499 3911.6626243616706) rotate(120)"><polygon fill="none" stroke="#231F20" stroke-width="1" points="750 2250 731.49 2292.77 728.665 2311.86 694.866 2310.46 684.369 2296.5 686.899 2259.76 694.061 2248.41 750 2250"/></g><g transform="translate(29744.36514611904 14523.586799623983) rotate(240)"><polygon fill="none" stroke="#231F20" stroke-width="1" points="12000 2250 11992.3 2244.67 11986.4 2236.74 11982.4 2232.3 11947.9 2276.42 11916.5 2321.95 11934.5 2334.07 11945.9 2333.72 12000 2250"/></g><g transform="translate(26226.705339919903 7474.470084968558) rotate(240)"><polygon fill="none" stroke="#231F20" stroke-width="1" points="3750 1500 3742.59 1541.54 3777.15 1548.13 3797.18 1534.3 3822.68 1534.49 3827.39 1526.44 3835.73 1524.7 3834.9 1517.64 3819.89 1511.11 3814.41 1506.74 3761.74 1497.03 3750 1500"/></g><g transform="translate(38635.60695401258 -17558.080431244998) rotate(120)"><polygon fill="none" stroke="#231F20" stroke-width="1" points="24750 750 24742 745.984 24734.4 738.649 24729.7 734.689 24720.2 792.157 24713.8 850.414 24732.3 859.414 24740.8 856.237 24750 750"/></g><g transform="translate(37832.999148581825 29312.794099887633) rotate(240)"><polygon fill="none" stroke="#231F20" stroke-width="1" points="28500 2250 28452.5 2294.32 28440.4 2324.19 28445.2 2351.67 28453.3 2331.13 28484.4 2304.36 28496.6 2306.41 28525.5 2279.29 28500 2250"/></g><g transform="translate(32488.52563957475 -5286.8304833591465) rotate(120)"><polygon fill="none" stroke="#231F20" stroke-width="1" points="10500 1500 10532.4 1558.84 10525 1571.35 10495.3 1585.08 10475.8 1543.82 10478.6 1535.73 10474.2 1510.47 10500 1500"/></g><g transform="translate(23277.122644 515.6530760999999) rotate(0)"><polygon fill="none" stroke="#231F20" stroke-width="1" points="2250 3000 2316.57 3009.39 2328.46 3017.15 2343.94 3017.33 2341.77 3033.75 2331.29 3039.79 2315.73 3040.22 2310.89 3042.67 2245.43 3034.67 2250 3000"/></g><g transform="translate(37534.96449865331 -10947.707587319897) rotate(120)"><polygon fill="none" stroke="#231F20" stroke-width="1" points="18000 3000 17966.4 3057.96 17951.9 3057.93 17925 3039.45 17950.2 3001.57 17958.5 2999.83 17977.9 2983.14 18000 3000"/></g><g transform="translate(31528.67882875624 -2034.6533541214758) rotate(120)"><polygon fill="none" stroke="#231F20" stroke-width="1" points="7500 2250 7468.44 2286.98 7488.85 2306.77 7511.85 2301.31 7529.86 2311.44 7538.31 2305.55 7545.34 2307.13 7549.22 2300.02 7542.67 2287.91 7541.54 2281.57 7510.23 2251.73 7500 2250"/></g><g transform="translate(1881.6912972999999 941.7075075000002) rotate(0)"><polygon fill="none" stroke="#231F20" stroke-width="1" points="24000 2250 24015.8 2290.61 24005.8 2304.85 24005.2 2321.82 23986.7 2329.23 23978.6 2321.79 23969.2 2316.14 23956.7 2276.05 24000 2250"/></g><g transform="translate(7207.0479509 137.46963360000018) rotate(0)"><polygon fill="none" stroke="#231F20" stroke-width="1" points="18750 3000 18749.4 3018.29 18762.3 3041.8 18709.2 3056.01 18702.6 3043.35 18693.2 3046.79 18684.1 3010.72 18750 3000"/></g><g transform="translate(34735.59121755518 -7466.204685257097) rotate(120)"><polygon fill="none" stroke="#231F20" stroke-width="1" points="13500 2250 13472.8 2254.7 13482.3 2329.81 13500.6 2353.29 13509.8 2356.78 13516.1 2343.63 13500 2250"/></g><g transform="translate(-4796.334792500002 833.2375927999997) rotate(0)"><polygon fill="none" stroke="#231F20" stroke-width="1" points="30750 2250 30770.3 2243.66 30839.5 2338.54 30833.5 2350.66 30813.2 2347.61 30750 2250"/></g><g transform="translate(31291.40667401321 15707.578849234063) rotate(240)"><polygon fill="none" stroke="#231F20" stroke-width="1" points="13500 1500 13471.3 1534.81 13441.6 1510.84 13436.6 1495.3 13456.7 1462.43 13480.3 1462.91 13482.7 1471.85 13489.7 1477.1 13492.4 1493.1 13500 1500"/></g><g transform="translate(9411.4576361 189.05491889999985) rotate(0)"><polygon fill="none" stroke="#231F20" stroke-width="1" points="16500 3000 16556.8 3052.91 16553.3 3070.55 16548.7 3082.42 16479.6 3026.69 16479.6 3017.02 16500 3000"/></g><g transform="translate(18050.265210499998 1811.3525655) rotate(0)"><polygon fill="none" stroke="#231F20" stroke-width="1" points="7500 1500 7489.03 1507.43 7480.8 1513 7463.4 1578.78 7458.49 1621.99 7480.52 1615.57 7490.82 1602.83 7500 1500"/></g><g transform="translate(45208.25797721498 -25517.455667263133) rotate(120)"><polygon fill="none" stroke="#231F20" stroke-width="1" points="34500 2250 34479.3 2311.41 34465.6 2314.27 34436.5 2302.19 34453.1 2261.41 34460.6 2258.11 34475.7 2238.51 34500 2250"/></g><g transform="translate(36406.73970842335 24935.736556926524) rotate(240)"><polygon fill="none" stroke="#231F20" stroke-width="1" points="24000 1500 23957.8 1498.76 23955.9 1529.93 23972.4 1545.76 23975.7 1568.17 23984.3 1571.29 23987.2 1578.39 23994.1 1576.77 23998.5 1562.76 24002.1 1557.39 24004.5 1509.93 24000 1500"/></g><g transform="translate(41574.24877372781 -22296.665838494908) rotate(120)"><polygon fill="none" stroke="#231F20" stroke-width="1" points="30000 750 29994.7 800.023 29961.7 800.568 29950.8 790.871 29950.5 748.667 29968.3 732.314 29974.2 738.216 29981.8 737.75 29991.2 749.517 30000 750"/></g><g transform="translate(-4692.568665399998 1594.1520835000001) rotate(0)"><polygon fill="none" stroke="#231F20" stroke-width="1" points="30750 1500 30774.9 1559.64 30766.5 1570.92 30736.9 1581.2 30722.5 1539.69 30726 1532.2 30724.4 1507.52 30750 1500"/></g><g transform="translate(43950.37625760296 -23442.174346473475) rotate(120)"><polygon fill="none" stroke="#231F20" stroke-width="1" points="32250 2250 32243.9 2256.06 32235.9 2260 32231.2 2262.75 32263 2302.47 32296.6 2339.54 32310.6 2325.34 32312.4 2314.93 32250 2250"/></g><g transform="translate(32088.472385498884 -2746.8412608520734) rotate(120)"><polygon fill="none" stroke="#231F20" stroke-width="1" points="8250 2250 8211.89 2297.85 8204.8 2327.33 8213.06 2352.25 8217.68 2332.01 8242.98 2302.77 8254.66 2302.98 8277.78 2273.73 8250 2250"/></g><g transform="translate(36853.90851363963 -13965.465658611953) rotate(120)"><polygon fill="none" stroke="#231F20" stroke-width="1" points="20250 750 20247.5 789.5 20280 792 20297 777 20320.5 774.5 20324 766.5 20331.5 764 20330 757.5 20315.5 753 20310 749.5 20260.5 746 20250 750"/></g><g transform="translate(38288.58227033559 -12042.29934655452) rotate(120)"><polygon fill="none" stroke="#231F20" stroke-width="1" points="19500 3000 19474.3 3054.05 19480.3 3055.77 19475.9 3072.32 19495.3 3068.6 19509.4 3071.88 19536.8 3018.2 19500 3000"/></g><g transform="translate(34728.912212299605 -10526.877246871107) rotate(120)"><polygon fill="none" stroke="#231F20" stroke-width="1" points="16500 750 16535 734 16547 745 16561.5 746 16567.5 766 16561 774.5 16556 784.5 16521.5 797 16500 750"/></g><g transform="translate(31197.807629531602 17635.132797539394) rotate(240)"><polygon fill="none" stroke="#231F20" stroke-width="1" points="15000 2250 15014.3 2259.09 15039.4 2259.08 15025.1 2310.88 15011.8 2310.55 15010 2320.14 14976.8 2311 15000 2250"/></g><g transform="translate(12991.535018399998 1187.0387056) rotate(0)"><polygon fill="none" stroke="#231F20" stroke-width="1" points="12750 2250 12752.8 2313.62 12735.6 2324.37 12722.3 2330.61 12711.9 2259.29 12719.8 2252.48 12750 2250"/></g><g transform="translate(40398.78125316645 31382.500248471326) rotate(240)"><polygon fill="none" stroke="#231F20" stroke-width="1" points="31500 1500 31518.3 1502.97 31543.7 1494.75 31550.5 1543.16 31536.9 1547.24 31539 1555.92 31501.5 1559.11 31500 1500"/></g><g transform="translate(-10146.5675896 1117.9219624000002) rotate(0)"><polygon fill="none" stroke="#231F20" stroke-width="1" points="36000 2250 35974 2290.19 35980.2 2294.31 35975.9 2308.08 35995.8 2312.62 36010.4 2321.57 36038.1 2282.44 36000 2250"/></g><g transform="translate(21264.8391628 2678.5832932) rotate(0)"><polygon fill="none" stroke="#231F20" stroke-width="1" points="4500 750 4494.5 756 4486.5 760.5 4482 763.5 4524.5 792 4568.5 818 4581 804 4581 795 4500 750"/></g><g transform="translate(-1687.3030403999983 1571.611312) rotate(0)"><polygon fill="none" stroke="#231F20" stroke-width="1" points="27750 1500 27747 1512.88 27744.7 1522.54 27773 1583 27796.1 1618.33 27807.4 1598.76 27806.7 1582.39 27750 1500"/></g><g transform="translate(26900.11388744993 11520.371673718131) rotate(240)"><polygon fill="none" stroke="#231F20" stroke-width="1" points="7500 3000 7534.53 3014.81 7534.39 3030.73 7543.15 3041.88 7532.53 3059.36 7522.1 3060.25 7511.56 3063.2 7479.9 3046.45 7500 3000"/></g><g transform="translate(11406.5126285 1271.5672126999998) rotate(0)"><polygon fill="none" stroke="#231F20" stroke-width="1" points="14250 2250 14257.9 2310.5 14246.9 2316.31 14216 2312.18 14213.2 2271.33 14218.5 2266.57 14223.5 2245.27 14250 2250"/></g><g transform="translate(30360.74619367613 14688.819555138043) rotate(240)"><polygon fill="none" stroke="#231F20" stroke-width="1" points="12000 1500 11944.9 1530.77 11948.8 1534.87 11934.8 1545.9 11953 1551.79 11962.5 1560.81 12018.7 1531.1 12000 1500"/></g><g transform="translate(-5384.848065400001 2302.1896012) rotate(0)"><polygon fill="none" stroke="#231F20" stroke-width="1" points="31500 750 31514.1 817.819 31512.5 831.651 31517.1 846.852 31505.3 849.369 31498 840.812 31493 825.704 31489.8 821.655 31475.2 755.312 31500 750"/></g><g transform="translate(29619.916877555283 -103.17038978252549) rotate(120)"><polygon fill="none" stroke="#231F20" stroke-width="1" points="4500 1500 4513.36 1558.14 4530.79 1581.07 4553.52 1589.23 4541.42 1573.68 4534.38 1536.57 4541.09 1527.51 4532.83 1492.1 4500 1500"/></g><g transform="translate(-2142.8162190000003 1305.6209130000002) rotate(0)"><polygon fill="none" stroke="#231F20" stroke-width="1" points="27750 2250 27718.3 2261.66 27730.5 2293.27 27749.4 2304.02 27761.6 2325.36 27769.3 2325.83 27774.5 2332.03 27778.8 2328.31 27776 2313 27776.4 2306.56 27757.6 2258.51 27750 2250"/></g><g transform="translate(33309.57434528867 20749.256198193838) rotate(240)"><polygon fill="none" stroke="#231F20" stroke-width="1" points="18750 2250 18750.3 2308.29 18745.2 2319.47 18747 2332.76 18732.7 2332.97 18726.2 2324.74 18723.9 2311.45 18721.2 2307.6 18719.9 2250.44 18750 2250"/></g><g transform="translate(-719.1189532999997 2828.0172753) rotate(0)"><polygon fill="none" stroke="#231F20" stroke-width="1" points="26250 750 26239.9 774.206 26299 802.347 26325 798.737 26332.1 792.992 26325.7 781.628 26250 750"/></g><g transform="translate(29401.41956859694 15216.837763597348) rotate(240)"><polygon fill="none" stroke="#231F20" stroke-width="1" points="12000 3000 12002 3054.2 12015.6 3079.33 12037.9 3093.39 12028.4 3076.26 12028.6 3042.13 12037.6 3036.39 12036.2 3003.35 12000 3000"/></g><g transform="translate(15930.671504499998 2844.1408913) rotate(0)"><polygon fill="none" stroke="#231F20" stroke-width="1" points="9750 750 9758 791.5 9725 799 9711.5 793.5 9700 759.5 9713.5 742.5 9721 746 9728.5 744 9741 751.5 9750 750"/></g><g transform="translate(37040.62161212561 23768.18073484712) rotate(240)"><polygon fill="none" stroke="#231F20" stroke-width="1" points="23250 750 23269.7 754.96 23297 859.506 23287.7 865.739 23271.3 853.723 23250 750"/></g><g transform="translate(25535.752855299997 2867.191101) rotate(0)"><polygon fill="none" stroke="#231F20" stroke-width="1" points="0 750 37.1398 759.866 41.5118 774.776 53.029 784.197 47.8606 801.791 38.1597 803.824 28.9413 807.809 -6.0087 795.797 0 750"/></g><g transform="translate(24871.74424456538 4962.753062601565) rotate(240)"><polygon fill="none" stroke="#231F20" stroke-width="1" points="750 1500 775.727 1514.25 786.038 1511.69 813.344 1466.4 814.709 1458.77 792.133 1450.7 776.556 1465.17 767.359 1468.69 750 1500"/></g><g transform="translate(43588.97939319773 -24042.237289320852) rotate(120)"><polygon fill="none" stroke="#231F20" stroke-width="1" points="32250 1500 32198.5 1525.15 32201.9 1529.7 32188.8 1539.33 32205.3 1547.25 32213.8 1557.38 32266.3 1533.44 32250 1500"/></g><g transform="translate(33628.193131969056 23266.1631758089) rotate(240)"><polygon fill="none" stroke="#231F20" stroke-width="1" points="21000 3000 20963.8 3009.8 20956.1 2974.35 20960.5 2959.61 20989.9 2946.24 21005.3 2960.35 21002.5 2968.55 21004.5 2976.6 20998.4 2990.32 21000 3000"/></g><g transform="translate(39446.504816257286 28542.507436751937) rotate(240)"><polygon fill="none" stroke="#231F20" stroke-width="1" points="28500 750 28481.3 793.476 28487.6 795.938 28485.4 809.808 28504.2 809.591 28518.7 814.708 28539.2 771.83 28500 750"/></g><g transform="translate(37088.10887146213 -9938.034321699392) rotate(120)"><polygon fill="none" stroke="#231F20" stroke-width="1" points="17250 3000 17246.2 3025.64 17306 3037.79 17328.9 3027.84 17334.1 3020.59 17325.8 3011.32 17250 3000"/></g><g transform="translate(36445.410305923346 -8744.772767872924) rotate(120)"><polygon fill="none" stroke="#231F20" stroke-width="1" points="15750 3000 15744.4 3004.94 15736.5 3008.46 15732 3010.85 15772 3037.48 15813.5 3062.01 15826.1 3050.47 15826.5 3042.69 15750 3000"/></g><g transform="translate(34800.80554205972 21660.599462547467) rotate(240)"><polygon fill="none" stroke="#231F20" stroke-width="1" points="20250 1500 20279.8 1515.95 20276.7 1530.46 20283 1541.25 20269.8 1556.46 20259.9 1556.53 20249.5 1558.49 20222.8 1540.97 20250 1500"/></g><g transform="translate(16596.669495 2129.5400866) rotate(0)"><polygon fill="none" stroke="#231F20" stroke-width="1" points="9000 1500 9068.89 1515.98 9073.94 1530.31 9075.64 1540.81 8995.7 1527.68 8991.35 1520.61 9000 1500"/></g><g transform="translate(33000.04547846157 -5661.056621068985) rotate(120)"><polygon fill="none" stroke="#231F20" stroke-width="1" points="11250 1500 11265 1511.37 11290.6 1518.6 11278 1555.71 11264.4 1551.61 11262.9 1558.73 11228.6 1541.85 11250 1500"/></g><g transform="translate(-1471.6868614000014 2459.9177177) rotate(0)"><polygon fill="none" stroke="#231F20" stroke-width="1" points="27000 750 27009.4 807.489 27001 818.077 26976.4 827.249 26972.1 787.298 26976 780.224 26978.9 756.625 27000 750"/></g><g transform="translate(9557.330620099998 1050.7925324999997) rotate(0)"><polygon fill="none" stroke="#231F20" stroke-width="1" points="16500 2250 16504.4 2207.28 16545.6 2210.2 16549.8 2220.4 16552.2 2250.23 16510.9 2246.01 16509.8 2252.41 16500 2250"/></g><g transform="translate(43832.62964071498 -22834.31474920982) rotate(120)"><polygon fill="none" stroke="#231F20" stroke-width="1" points="31500 2250 31489.2 2249.92 31481.1 2249.87 31440.5 2290.04 31418.4 2319.76 31436.5 2326.25 31449.1 2322.03 31500 2250"/></g><g transform="translate(32324.88593430399 16977.28631652583) rotate(240)"><polygon fill="none" stroke="#231F20" stroke-width="1" points="15000 1500 15037.5 1549.07 15041.3 1561.03 15051 1571.39 15041.8 1578.57 15032.2 1574.79 15022.2 1564.69 15018 1562.77 14980.5 1515.16 15000 1500"/></g><g transform="translate(14724.0820414 2626.2204597) rotate(0)"><polygon fill="none" stroke="#231F20" stroke-width="1" points="11250 750 11302.5 750.5 11312.5 755.5 11324.5 754 11324.5 767.5 11317 773.5 11305 775.5 11301.5 778 11250 778.5 11250 750"/></g><g transform="translate(9472.4162359 1963.5346341) rotate(0)"><polygon fill="none" stroke="#231F20" stroke-width="1" points="16500 1500 16489.5 1502.23 16482.2 1507.7 16431.1 1502.25 16433.8 1489.16 16439.6 1472 16496.8 1477.9 16500 1500"/></g><g transform="translate(29333.44144375183 13597.696080032965) rotate(240)"><polygon fill="none" stroke="#231F20" stroke-width="1" points="10500 2250 10515.5 2262.39 10508.5 2365.71 10498.7 2367.41 10488 2350.11 10500 2250"/></g><g transform="translate(42178.0038500177 34794.63063704729) rotate(240)"><polygon fill="none" stroke="#231F20" stroke-width="1" points="35250 1500 35257.2 1560.41 35254.3 1572.44 35257.3 1586.08 35245.7 1587.54 35239.4 1579.57 35236 1565.99 35233.3 1562.24 35225.4 1503.09 35250 1500"/></g><g transform="translate(28119.12127283329 9204.5765751302) rotate(240)"><polygon fill="none" stroke="#231F20" stroke-width="1" points="6000 750 6000 774.5 6060.5 777.5 6081.5 765 6085.5 757.5 6076 750 6000 750"/></g><g transform="translate(-3082.3693095000017 1742.2468437) rotate(0)"><polygon fill="none" stroke="#231F20" stroke-width="1" points="29250 1500 29256 1552.9 29241.2 1563.64 29229.7 1570.21 29216.5 1511.65 29223.1 1505.16 29250 1500"/></g><g transform="translate(27857.38004278158 10200.395638275837) rotate(240)"><polygon fill="none" stroke="#231F20" stroke-width="1" points="6750 1500 6766.97 1506.43 6772.61 1604.64 6762.99 1609.45 6750.24 1596.88 6750 1500"/></g><g transform="translate(45600.19001240975 -25951.41547138957) rotate(120)"><polygon fill="none" stroke="#231F20" stroke-width="1" points="35250 2250 35262.5 2258.9 35285 2260.69 35270.5 2304.49 35258.6 2303.25 35256.7 2311.42 35227.1 2301.12 35250 2250"/></g><g transform="translate(27791.19024833357 8960.306400212578) rotate(240)"><polygon fill="none" stroke="#231F20" stroke-width="1" points="6000 1500 5924.24 1504.28 5920.71 1526.83 5929.72 1539.46 5985.84 1521.82 5995.33 1509.46 6000 1500"/></g><g transform="translate(27915.448092217568 8471.3885003378) rotate(240)"><polygon fill="none" stroke="#231F20" stroke-width="1" points="5250 750 5308 762.5 5313 778 5315 789.5 5248 781 5244 773.5 5250 750"/></g><g transform="translate(41492.08315970044 -20347.69063111999) rotate(120)"><polygon fill="none" stroke="#231F20" stroke-width="1" points="28500 1500 28492.8 1499.8 28485.3 1497.09 28480.8 1495.83 28482.2 1540.33 28486.3 1584.39 28503 1584.63 28509.5 1579.47 28500 1500"/></g><g transform="translate(41425.88913147405 33543.29911245043) rotate(240)"><polygon fill="none" stroke="#231F20" stroke-width="1" points="33750 1500 33732 1537.3 33705.2 1527.52 33699.1 1516.62 33710.4 1483.68 33729.3 1476.45 33732.4 1482.87 33738.7 1484.85 33743 1496.89 33750 1500"/></g><g transform="translate(25761.62075454486 4477.950994531265) rotate(240)"><polygon fill="none" stroke="#231F20" stroke-width="1" points="750 750 769.5 796 789 813 812 817.5 798.5 806 787.5 776.5 793 768.5 781 740.5 750 750"/></g><g transform="translate(34875.78321108502 23433.462573711535) rotate(240)"><polygon fill="none" stroke="#231F20" stroke-width="1" points="21750 2250 21742.9 2272.61 21677.3 2267.26 21684 2233.78 21750 2250"/></g><g transform="translate(17817.4269919 2614.2651065) rotate(0)"><polygon fill="none" stroke="#231F20" stroke-width="1" points="8250 750 8257.5 797.5 8263 796 8268 809 8281 798 8293.5 794 8287.5 746 8250 750"/></g><g transform="translate(39711.38262718839 30280.203165556504) rotate(240)"><polygon fill="none" stroke="#231F20" stroke-width="1" points="30000 1500 29997.3 1523.36 30056.1 1533.14 30078 1523.62 30082.8 1516.92 30074.3 1508.69 30000 1500"/></g><g transform="translate(32269.65452990127 -4638.96113448862) rotate(120)"><polygon fill="none" stroke="#231F20" stroke-width="1" points="9750 1500 9728.93 1502.34 9733.63 1568.26 9746.91 1589.85 9753.84 1593.48 9759.15 1582.45 9750 1500"/></g><g transform="translate(35602.08740743043 23107.692070430756) rotate(240)"><polygon fill="none" stroke="#231F20" stroke-width="1" points="21750 1500 21771.2 1502.53 21787.4 1507.89 21807.7 1515.83 21786.6 1549.69 21761 1536.62 21759.9 1530.74 21745.3 1521.65 21743 1510.73 21750 1500"/></g><g transform="translate(1514.8039726999996 2681.5807091) rotate(0)"><polygon fill="none" stroke="#231F20" stroke-width="1" points="24000 750 23992.8 758.686 23987.5 765.2 23986.3 822.054 23990.6 857.761 24006.6 847.094 24012.3 834.341 24000 750"/></g><g transform="translate(36487.15472710035 26046.406138658327) rotate(240)"><polygon fill="none" stroke="#231F20" stroke-width="1" points="24750 2250 24749.9 2278.89 24755.7 2287.15 24798.3 2293.55 24804.2 2291.72 24801.1 2268.15 24784.9 2259.93 24778.8 2253.06 24750 2250"/></g><g transform="translate(37938.958428474834 -14091.607556846451) rotate(120)"><polygon fill="none" stroke="#231F20" stroke-width="1" points="21000 1500 21010.4 1521.24 21019.2 1523.07 21063.8 1496.81 21069 1491.16 21057.4 1476.1 21038.2 1481.9 21029.7 1481.27 21000 1500"/></g><g transform="translate(10004.669701300001 1362.3831612) rotate(0)"><polygon fill="none" stroke="#231F20" stroke-width="1" points="15750 2250 15704.7 2278.61 15708.2 2282.07 15696.9 2292.14 15712.7 2296.72 15721.3 2304.29 15767.6 2276.57 15750 2250"/></g><g transform="translate(26515.288548978937 9317.19599158091) rotate(240)"><polygon fill="none" stroke="#231F20" stroke-width="1" points="5250 2250 5270.58 2245.47 5288.43 2244.67 5311.37 2244.7 5312.65 2277.85 5281.81 2275.43 5277.31 2271.14 5258.71 2268.5 5250.14 2260.59 5250 2250"/></g><g transform="translate(37176.46726155239 -14247.802516462481) rotate(120)"><polygon fill="none" stroke="#231F20" stroke-width="1" points="21000 750 21006.5 800.029 21020 821.187 21039.6 830.662 21030.2 816.282 21027.4 784.525 21034.3 777.755 21030.2 747.275 21000 750"/></g><g transform="translate(30350.943840074568 -2529.143861044129) rotate(120)"><polygon fill="none" stroke="#231F20" stroke-width="1" points="7500 750 7515 752 7535.5 744 7542.5 786 7531.5 790 7533.5 797.5 7503 801.5 7500 750"/></g><g transform="translate(19219.3034881 2813.6763299) rotate(0)"><polygon fill="none" stroke="#231F20" stroke-width="1" points="6750 750 6783.5 790 6779.5 800.5 6758.5 815 6737.5 786.5 6738.5 780 6731.5 761.5 6750 750"/></g><g transform="translate(38067.31509613301 -15718.094307272242) rotate(120)"><polygon fill="none" stroke="#231F20" stroke-width="1" points="22500 750 22436.6 785.589 22443.2 806.43 22456.4 813.471 22497.2 774.687 22500 760.081 22500 750"/></g><g transform="translate(29521.244925502844 14472.73474337826) rotate(240)"><polygon fill="none" stroke="#231F20" stroke-width="1" points="11250 2250 11238 2251.31 11229 2252.29 11183 2289.06 11157.7 2315.27 11177.5 2318.11 11191.7 2313.18 11250 2250"/></g><g transform="translate(39019.725468156765 -14695.714881824466) rotate(120)"><polygon fill="none" stroke="#231F20" stroke-width="1" points="22500 2250 22520 2290.7 22495.3 2309.02 22480.6 2297.59 22464.9 2271.55 22500 2250"/></g><g transform="translate(38194.07668716399 25938.15879815853) rotate(240)"><polygon fill="none" stroke="#231F20" stroke-width="1" points="25500 750 25547.2 767.175 25550.1 784.081 25550.8 796.513 25495.7 783.026 25493 774.742 25500 750"/></g><g transform="translate(27254.914686885913 7193.182704652987) rotate(240)"><polygon fill="none" stroke="#231F20" stroke-width="1" points="3750 750 3748 760 3746.5 767.5 3775 812.5 3797.5 838.5 3806.5 823 3805 810.5 3750 750"/></g><g transform="translate(-3168.370374599999 2731.9512121) rotate(0)"><polygon fill="none" stroke="#231F20" stroke-width="1" points="29250 750 29297.3 740.359 29311.6 769.24 29302.5 775.166 29271.8 785.608 29258.8 756.214 29251.6 757.409 29250 750"/></g><g transform="translate(-6862.9707084 1152.870958) rotate(0)"><polygon fill="none" stroke="#231F20" stroke-width="1" points="33000 2250 33027.5 2292.77 33019.7 2307.56 33012.8 2317.56 32976.9 2272.73 32979.7 2264.67 33000 2250"/></g><g transform="translate(39747.14516148353 -14316.95473056439) rotate(120)"><polygon fill="none" stroke="#231F20" stroke-width="1" points="22500 3000 22523.2 3037.26 22523.2 3047.22 22530 3054.79 22517.7 3062.69 22508.8 3060.92 22501.6 3053.64 22497.7 3052.64 22474 3016.67 22500 3000"/></g><g transform="translate(40286.50819706518 -15102.843696273138) rotate(120)"><polygon fill="none" stroke="#231F20" stroke-width="1" points="23250 3000 23232.5 2995.87 23217.9 2990.26 23225.2 2954.88 23245.5 2957.54 23270.9 2962.41 23270.5 2969.25 23250.9 2997.07 23250 3000"/></g><g transform="translate(2075.7309164 598.6089413999998) rotate(0)"><polygon fill="none" stroke="#231F20" stroke-width="1" points="24000 3000 23989.2 3001.77 23980.3 3006.49 23933.6 3000.63 23940.8 2989.04 23952.4 2973.91 24004.8 2980.29 24000 3000"/></g><g transform="translate(8032.8096682 2102.1858701) rotate(0)"><polygon fill="none" stroke="#231F20" stroke-width="1" points="18000 1500 18021.8 1518.74 17983.8 1548.98 17949.6 1523.28 18000 1500"/></g><g transform="translate(37155.86516562685 25786.29341540772) rotate(240)"><polygon fill="none" stroke="#231F20" stroke-width="1" points="24750 1500 24734.5 1541.76 24737.3 1566.13 24750.4 1585.54 24748.3 1568.83 24759.2 1543.14 24768.1 1542.34 24777.4 1516.82 24750 1500"/></g><g transform="translate(40831.81502455055 -18972.452467380215) rotate(120)"><polygon fill="none" stroke="#231F20" stroke-width="1" points="27000 1500 27015.7 1505.42 27021.8 1595.62 27013 1600.32 27001.1 1589.13 27000 1500"/></g><g transform="translate(42979.87979511498 -21185.28125803316) rotate(120)"><polygon fill="none" stroke="#231F20" stroke-width="1" points="30000 2250 29934.9 2219.58 29917.3 2232.1 29916.4 2243.91 29974.1 2257.42 29990 2253.86 30000 2250"/></g><g transform="translate(38182.19906031498 -12747.304397634884) rotate(120)"><polygon fill="none" stroke="#231F20" stroke-width="1" points="20250 2250 20243.9 2259.47 20241 2269.56 20205.7 2300.77 20203 2286.98 20201 2267.32 20240.3 2232.24 20250 2250"/></g><g transform="translate(21611.7800341 1266.4544580000002) rotate(0)"><polygon fill="none" stroke="#231F20" stroke-width="1" points="4500 2250 4505.19 2278.11 4512.08 2285.25 4552.69 2284.96 4557.84 2282.27 4550.7 2259.82 4534.14 2254.31 4527.28 2248.56 4500 2250"/></g><g transform="translate(-6880.788965299998 2111.1552495999995) rotate(0)"><polygon fill="none" stroke="#231F20" stroke-width="1" points="33000 1500 33021.4 1471.11 33050.7 1492.71 33049.5 1502.13 33038.6 1524.88 33009.7 1502.25 33006.3 1506.4 33000 1500"/></g><g transform="translate(35679.19159364146 -7892.448514901587) rotate(120)"><polygon fill="none" stroke="#231F20" stroke-width="1" points="15000 3000 14993.6 3007.25 14988.8 3012.69 14987.7 3062.03 14991.6 3093.22 15005.8 3084.6 15010.9 3073.76 15000 3000"/></g><g transform="translate(28542.764322036764 12586.011159359477) rotate(240)"><polygon fill="none" stroke="#231F20" stroke-width="1" points="9750 2250 9701.03 2296.66 9714.07 2312.25 9728.9 2314.59 9755.26 2271.34 9753.29 2258.39 9750 2250"/></g><g transform="translate(26801.121753576655 4098.1433347) rotate(120)"><polygon fill="none" stroke="#231F20" stroke-width="1" points="0 1500 -9.74666 1505.11 -17.099 1512.27 -61.7182 1521.94 -57.1446 1509.02 -49.1629 1491.43 0.767704 1480.43 0 1500"/></g><g transform="translate(620.4453498000003 1502.1666869999997) rotate(0)"><polygon fill="none" stroke="#231F20" stroke-width="1" points="25500 1500 25554.6 1514.17 25549.3 1544.51 25521.5 1537.01 25498 1514.28 25500 1500"/></g><g transform="translate(40691.99093776518 -17931.288598978237) rotate(120)"><polygon fill="none" stroke="#231F20" stroke-width="1" points="25500 2250 25513.7 2262.14 25522.2 2273.59 25532 2288.62 25497 2299.22 25486.3 2278.32 25489 2274.11 25483.9 2261.15 25488.7 2253.21 25500 2250"/></g><g transform="translate(36267.11215507043 22874.32921264458) rotate(240)"><polygon fill="none" stroke="#231F20" stroke-width="1" points="21750 750 21752.1 802.793 21721.3 806.749 21720.5 779.845 21735.7 752.318 21750 750"/></g><g transform="translate(33842.65158627526 -6654.787089496303) rotate(120)"><polygon fill="none" stroke="#231F20" stroke-width="1" points="12750 1500 12783.8 1485.56 12799 1513.67 12793.2 1520.6 12771.9 1534.25 12757.6 1505.49 12752.4 1507.41 12750 1500"/></g><g transform="translate(-3715.3805790000006 1358.8201879999997) rotate(0)"><polygon fill="none" stroke="#231F20" stroke-width="1" points="29250 2250 29246.1 2296.98 29216.9 2297.23 29219.1 2273.32 29236.3 2250.54 29250 2250"/></g><g transform="translate(26265.08267347863 5204.573260235387) rotate(240)"><polygon fill="none" stroke="#231F20" stroke-width="1" points="1500 750 1556 753.5 1556 777 1527.5 775 1500.5 761 1500 750"/></g><g transform="translate(3096.2825906 1934.1000606) rotate(0)"><polygon fill="none" stroke="#231F20" stroke-width="1" points="22500 1500 22505.5 1522.91 22511.1 1523.3 22514 1535.39 22540.8 1527.4 22532.4 1498.49 22500 1500"/></g><g transform="translate(33176.94567191137 -3367.570990351785) rotate(120)"><polygon fill="none" stroke="#231F20" stroke-width="1" points="9750 3000 9747.16 3022.91 9751.27 3024.18 9749.78 3036.28 9772.56 3032.92 9775.06 3003.78 9750 3000"/></g><g transform="translate(28776.336175577988 2251.4722199679627) rotate(120)"><polygon fill="none" stroke="#231F20" stroke-width="1" points="2250 2250 2253.29 2283.62 2231.56 2294.37 2224.4 2283.75 2220.35 2261.88 2250 2250"/></g><g transform="translate(40774.63060331947 -17938.16545940873) rotate(120)"><polygon fill="none" stroke="#231F20" stroke-width="1" points="26250 2250 26233 2263.24 26234.9 2267.39 26226 2274.39 26243.1 2290.39 26264 2272.66 26250 2250"/></g><g transform="translate(41375.56209291145 -19124.817788613665) rotate(120)"><polygon fill="none" stroke="#231F20" stroke-width="1" points="27000 2250 26996.2 2278.6 27022.7 2288.26 27030.4 2272.42 27010 2249.99 27000 2250"/></g><g transform="translate(22901.8193345 2012.0990892000002) rotate(0)"><polygon fill="none" stroke="#231F20" stroke-width="1" points="3000 1500 2996.15 1527.55 3021.64 1537.08 3029.15 1521.87 3009.59 1500.08 3000 1500"/></g><g transform="translate(6295.263056200001 2265.7807473000003) rotate(0)"><polygon fill="none" stroke="#231F20" stroke-width="1" points="19500 750 19519 768.5 19538 751 19530 736 19504.5 741.5 19500 750"/></g><g transform="translate(19050.843099 1194.5814924000001) rotate(0)"><polygon fill="none" stroke="#231F20" stroke-width="1" points="6750 2250 6772.07 2266.26 6794.25 2251.04 6784.98 2237.88 6755.27 2242.58 6750 2250"/></g><g transform="translate(15398.0189135 646.0454117999998) rotate(0)"><polygon fill="none" stroke="#231F20" stroke-width="1" points="10500 3000 10505.3 3024.54 10529.2 3019.46 10530.7 3003.19 10507.9 2995.21 10500 3000"/></g></g></svg>