<svg xmlns="http://www.w3.org/2000/svg" width="9.375in" height="10.312500000000002in" viewBox="0 0 675 742.5000000000001"><g transform="translate(-16500 -750)"><g transform="translate(12749.99995521839 0) rotate(0)"><polygon fill="none" stroke="#231F20" stroke-width="1" points="3750 750 3913.1 750 3913.1 831.551 3831.55 831.551 3831.55 913.102 3750 913.102"/></g><g transform="translate(17413.1020817 -3586.8978882) rotate(90)"><polygon fill="none" stroke="#231F20" stroke-width="1" points="4500 750 4663.1 750 4663.1 831.551 4581.55 831.551 4581.55 913.102 4500 913.102"/></g><g transform="translate(15750.0000151 6407.7559204) rotate(270)"><polygon fill="none" stroke="#231F20" stroke-width="1" points="5250 750 5413.1 750 5413.1 831.551 5331.55 831.551 5331.55 913.102 5250 913.102"/></g><g transform="translate(13499.9999694 407.75592040000004) rotate(0)"><polygon fill="none" stroke="#231F20" stroke-width="1" points="3000 750 3163.1 750 3163.1 831.551 3081.55 831.551 3081.55 913.102 3000 913.102"/></g><g transform="translate(22663.1025084 2152.409057599999) rotate(180)"><polygon fill="none" stroke="#231F20" stroke-width="1" points="6000 750 6163.1 750 6163.1 831.551 6081.55 831.551 6081.55 913.102 6000 913.102"/></g><g transform="translate(6163.102081699999 163.10253910000006) rotate(0)"><polygon fill="none" stroke="#231F20" stroke-width="1" points="10500 750 10663.1 750 10663.1 831.551 10581.6 831.551 10581.6 913.102 10500 913.102"/></g><g transform="translate(27994.6537638 1663.1021117999985) rotate(180)"><polygon fill="none" stroke="#231F20" stroke-width="1" points="11250 750 11413.1 750 11413.1 831.551 11331.6 831.551 11331.6 913.102 11250 913.102"/></g><g transform="translate(9913.1022643 326.20465090000005) rotate(0)"><polygon fill="none" stroke="#231F20" stroke-width="1" points="6750 750 6913.1 750 6913.1 831.551 6831.55 831.551 6831.55 913.102 6750 913.102"/></g><g transform="translate(15913.102508400001 10402.4093018) rotate(270)"><polygon fill="none" stroke="#231F20" stroke-width="1" points="9000 750 9163.1 750 9163.1 831.551 9081.55 831.551 9081.55 913.102 9000 913.102"/></g><g transform="translate(15994.653533800001 11070.8582154) rotate(270)"><polygon fill="none" stroke="#231F20" stroke-width="1" points="9750 750 9913.1 750 9913.1 831.551 9831.55 831.551 9831.55 913.102 9750 913.102"/></g><g transform="translate(25157.7554021 1826.2046508999988) rotate(180)"><polygon fill="none" stroke="#231F20" stroke-width="1" points="8250 750 8413.1 750 8413.1 831.551 8331.55 831.551 8331.55 913.102 8250 913.102"/></g><g transform="translate(15994.653763800003 8413.1025391) rotate(270)"><polygon fill="none" stroke="#231F20" stroke-width="1" points="7500 750 7663.1 750 7663.1 831.551 7581.55 831.551 7581.55 913.102 7500 913.102"/></g><g transform="translate(17739.3069152 -423.79534909999984) rotate(90)"><polygon fill="none" stroke="#231F20" stroke-width="1" points="1500 750 1663.1 750 1663.1 831.551 1581.55 831.551 1581.55 913.102 1500 913.102"/></g><g transform="translate(16157.755875600002 13076.204650900001) rotate(270)"><polygon fill="none" stroke="#231F20" stroke-width="1" points="12000 750 12163.1 750 12163.1 831.551 12081.6 831.551 12081.6 913.102 12000 913.102"/></g><g transform="translate(17739.306901 -13499.9994507) rotate(90)"><polygon fill="none" stroke="#231F20" stroke-width="1" points="14250 750 14413.1 750 14413.1 831.551 14331.6 831.551 14331.6 913.102 14250 913.102"/></g><g transform="translate(16239.306901 3244.6538696000002) rotate(270)"><polygon fill="none" stroke="#231F20" stroke-width="1" points="2250 750 2413.1 750 2413.1 831.551 2331.55 831.551 2331.55 913.102 2250 913.102"/></g><g transform="translate(17902.409026999998 1907.7559813999999) rotate(180)"><polygon fill="none" stroke="#231F20" stroke-width="1" points="750 750 913.102 750 913.102 831.551 831.551 831.551 831.551 913.102 750 913.102"/></g><g transform="translate(17902.4090128 -14999.9989625) rotate(90)"><polygon fill="none" stroke="#231F20" stroke-width="1" points="15750 750 15913.1 750 15913.1 831.551 15831.6 831.551 15831.6 913.102 15750 913.102"/></g><g transform="translate(1989.306915199999 407.7559814) rotate(0)"><polygon fill="none" stroke="#231F20" stroke-width="1" points="15000 750 15163.1 750 15163.1 831.551 15081.6 831.551 15081.6 913.102 15000 913.102"/></g><g transform="translate(30489.3064269 2152.4092407999983) rotate(180)"><polygon fill="none" stroke="#231F20" stroke-width="1" points="13500 750 13663.1 750 13663.1 831.551 13581.6 831.551 13581.6 913.102 13500 913.102"/></g></g></svg>