<svg xmlns="http://www.w3.org/2000/svg" width="10.417697483333338in" height="11.459478421111111in" viewBox="0 0 750.0742188000004 825.08244632"><g transform="translate(-12750 -750)"><g transform="translate(11999.99997332934 0) rotate(0)"><polygon fill="none" stroke="#231F20" stroke-width="1" points="750 750 1012.5 750 750 1005"/></g><g transform="translate(8249.9999873 254.9999863999999) rotate(0)"><polygon fill="none" stroke="#231F20" stroke-width="1" points="4500 750 4792.5 922.5 4650 945 4500 1245"/></g><g transform="translate(9755.7050115 0) rotate(0)"><polygon fill="none" stroke="#231F20" stroke-width="1" points="3262.5 750 3397.5 862.5 3382.5 1035 3360 1215 3292.5 1177.5 3000 1005"/></g><g transform="translate(3899.9999872999997 427.4999863999999) rotate(0)"><polygon fill="none" stroke="#231F20" stroke-width="1" points="9000 772.5 9142.5 750 9210 787.5 9202.5 900 9180 1072.5"/></g><g transform="translate(3000.0000235000007 450.0000467) rotate(0)"><polygon fill="none" stroke="#231F20" stroke-width="1" points="9900 750 10080 1050 9750 1050"/></g><g transform="translate(2579.9999872999997 532.4999863999999) rotate(0)"><polygon fill="none" stroke="#231F20" stroke-width="1" points="10522.5 795 10717.5 750 10770 765 10500 967.5"/></g><g transform="translate(7866.906613700001 256.9733082) rotate(0)"><polygon fill="none" stroke="#231F20" stroke-width="1" points="5272.5 780 5460 750 5475 885 5490 1042.5 5437.5 1027.5 5250 960"/></g><g transform="translate(1829.9999872999997 547.4999863999999) rotate(0)"><polygon fill="none" stroke="#231F20" stroke-width="1" points="11250 952.5 11520 750 11670 952.5"/></g><g transform="translate(9389.5891493 0.49405530000001363) rotate(0)"><polygon fill="none" stroke="#231F20" stroke-width="1" points="3765 862.5 3877.5 750 3982.5 997.5 3937.5 1005 3750 1035"/></g><g transform="translate(5850.0742345 237.73332660000005) rotate(0)"><polygon fill="none" stroke="#231F20" stroke-width="1" points="7500 990 7650 750 7650 1027.5"/></g><g transform="translate(7320.0742692 18.244695099999944) rotate(0)"><polygon fill="none" stroke="#231F20" stroke-width="1" points="6000 757.5 6045 750 6180 810 6015 892.5"/></g><g transform="translate(4852.4999873 464.9999863999999) rotate(0)"><polygon fill="none" stroke="#231F20" stroke-width="1" points="8257.5 750 8445 817.5 8250 862.5"/></g><g transform="translate(11519.2294805 0.8537241000000222) rotate(0)"><polygon fill="none" stroke="#231F20" stroke-width="1" points="1500 750 1747.5 750 1635 862.5"/></g><g transform="translate(6580.1895241 186.4438679) rotate(0)"><polygon fill="none" stroke="#231F20" stroke-width="1" points="6750 832.5 6915 750 6765 990"/></g><g transform="translate(1350.0742344999999 477.73332660000005) rotate(0)"><polygon fill="none" stroke="#231F20" stroke-width="1" points="12000 750 12150 787.5 12150 952.5"/></g></g></svg>