<svg xmlns="http://www.w3.org/2000/svg" width="9.375in" height="10.312500000000002in" viewBox="0 0 675 742.5000000000001"><g transform="translate(-4500 -4500)"><g transform="translate(6059.617266692002 -22413.83791017429) rotate(90)"><polygon fill="none" stroke="#231F20" stroke-width="1" points="27000 1500 27033.1 1495.21 27057.4 1522.19 27043.5 1541.34 27036.6 1559.62 26913.8 1555.27 26916.4 1494.34 27000 1500"/></g><g transform="translate(1577.7905078000067 39866.6208464) rotate(270)"><polygon fill="none" stroke="#231F20" stroke-width="1" points="35250 3000 35253.5 3101.83 35351 3099.22 35366.6 3054.83 35366.6 3026.98 35350.1 3012.18 35322.2 3012.18 35312.7 2998.26 35290.9 2983.46 35269.1 2983.46 35250 3000"/></g><g transform="translate(3818.9092698000004 8366.3543694) rotate(270)"><polygon fill="none" stroke="#231F20" stroke-width="1" points="3750 750 3748.69 793.516 3731.72 803.525 3709.1 805.7 3693.86 815.274 3690.38 835.291 3660.79 835.726 3660.79 800.478 3660.79 752.175 3682.11 748.258 3678.63 721.279 3723.69 719.55 3727.37 748.258 3750 750"/></g><g transform="translate(6961.128277 2376.3696177) rotate(90)"><polygon fill="none" stroke="#231F20" stroke-width="1" points="2250 2250 2236.07 2266.54 2237.81 2303.96 2249.13 2312.66 2300.48 2303.96 2359.66 2309.18 2371.84 2281.33 2346.61 2254.35 2320.5 2243.04 2250 2250"/></g><g transform="translate(-4320.6315069 797.2492479000002) rotate(0)"><polygon fill="none" stroke="#231F20" stroke-width="1" points="9000 3750 9005.22 3738.69 9042.65 3736.07 9060.05 3746.52 9073.98 3759.57 9084.42 3780.46 9084.42 3812.66 9013.05 3815.27 9000 3806.57 9000 3750"/></g><g transform="translate(19771.456024400002 8495.570804199999) rotate(180)"><polygon fill="none" stroke="#231F20" stroke-width="1" points="15000 3750 14994.8 3838.77 15003.5 3849.22 15044.4 3851.83 15054 3832.68 15054.8 3813.53 15047.9 3803.96 15043.5 3790.04 15060.1 3780.46 15068.8 3765.67 15053.1 3751.74 15000 3750"/></g><g transform="translate(3264.407630800004 24827.5039038) rotate(270)"><polygon fill="none" stroke="#231F20" stroke-width="1" points="20250 1500 20250 1511.1 20255.2 1539.16 20250 1571.15 20195.2 1571.8 20175.6 1560.05 20174.3 1525.46 20181.5 1511.1 20181.5 1498.69 20250 1500"/></g><g transform="translate(3279.0858866000044 30907.6533598) rotate(270)"><polygon fill="none" stroke="#231F20" stroke-width="1" points="26250 1500 26256.1 1555.7 26259.6 1575.72 26246.5 1582.68 26220.4 1580.94 26187.3 1557.44 26189.1 1509.57 26232.6 1496.52 26250 1500"/></g><g transform="translate(30151.0582908 6256.911742399997) rotate(180)"><polygon fill="none" stroke="#231F20" stroke-width="1" points="25500 1500 25520 1491.3 25540.9 1482.59 25571.4 1487.82 25581.8 1501.74 25584.4 1536.55 25574 1547 25563.5 1547 25554.8 1541.78 25538.3 1543.52 25521.8 1551.35 25498.3 1540.91 25500 1500"/></g><g transform="translate(3071.022846400002 19028.024294900002) rotate(270)"><polygon fill="none" stroke="#231F20" stroke-width="1" points="14250 1500 14237.6 1489.56 14238.3 1453.66 14327 1444.52 14342 1445.82 14339.4 1473.89 14325.7 1494.13 14292.4 1494.78 14250 1500"/></g><g transform="translate(6247.603244999999 4744.7884797) rotate(90)"><polygon fill="none" stroke="#231F20" stroke-width="1" points="0 1500 6.09138 1540.04 4.35117 1588.77 22.6279 1607.05 46.9974 1605.31 46.9974 1547 54.8303 1513.05 45.2559 1512.18 39.1645 1491.3 0 1500"/></g><g transform="translate(3280.898901000006 33968.2101347) rotate(270)"><polygon fill="none" stroke="#231F20" stroke-width="1" points="29250 1500 29246.5 1573.98 29184.7 1575.72 29180.4 1560.05 29196 1552.22 29196 1540.03 29188.2 1528.72 29191.7 1506.96 29189.1 1488.69 29235.2 1491.3 29250 1500"/></g><g transform="translate(6124.632119799999 -19911.425397) rotate(90)"><polygon fill="none" stroke="#231F20" stroke-width="1" points="24750 1500 24751.7 1575.72 24721.3 1573.98 24720.4 1568.76 24704.7 1568.76 24704.7 1558.31 24692.6 1554.83 24685.6 1548.74 24687.3 1506.96 24702.1 1500 24750 1500"/></g><g transform="translate(35435.7336365 5604.449078399996) rotate(180)"><polygon fill="none" stroke="#231F20" stroke-width="1" points="30750 750 30761.1 733.029 30803.5 744.125 30804.8 759.791 30808.1 764.36 30808.1 796.997 30787.9 812.01 30747.4 812.663 30750 750"/></g><g transform="translate(6995.1320699 1891.0025529) rotate(90)"><polygon fill="none" stroke="#231F20" stroke-width="1" points="3000 2250 2999.13 2286.55 2935.6 2290.9 2916.45 2307.44 2908.62 2304.83 2908.62 2243.91 2959.1 2244.78 3000 2250"/></g><g transform="translate(7753.6101705 6363.988455) rotate(180)"><polygon fill="none" stroke="#231F20" stroke-width="1" points="3000 1500 3001.96 1571.15 2994.78 1584.86 2966.06 1584.86 2949.09 1572.45 2944.52 1542.43 2943.86 1507.18 2985.64 1503.92 3000 1500"/></g><g transform="translate(6377.883013999999 -1893.2608523999997) rotate(90)"><polygon fill="none" stroke="#231F20" stroke-width="1" points="6750 1500 6747.39 1560.05 6735.64 1566.58 6700.39 1539.82 6680.81 1535.9 6680.81 1498.69 6708.88 1492.82 6742.17 1490.86 6750 1500"/></g><g transform="translate(3065.3701260999997 5655.4050811) rotate(270)"><polygon fill="none" stroke="#231F20" stroke-width="1" points="750 1500 742.167 1512.4 743.473 1541.12 755.875 1539.82 762.402 1558.09 791.123 1566.58 802.872 1549.61 815.274 1541.78 813.969 1511.1 803.525 1500 793.081 1497.39 785.248 1494.78 750 1500"/></g><g transform="translate(862.1338318000016 15413.3036333) rotate(270)"><polygon fill="none" stroke="#231F20" stroke-width="1" points="10500 3750 10481.7 3771.76 10483.5 3805.7 10475.6 3820.5 10488.7 3829.2 10533.1 3830.94 10542.6 3819.63 10537.4 3770.89 10500 3750"/></g><g transform="translate(21316.4373974 6421.649622099998) rotate(180)"><polygon fill="none" stroke="#231F20" stroke-width="1" points="16500 1500 16502 1552.22 16522.8 1559.4 16567.9 1557.44 16567.2 1499.35 16500 1500"/></g><g transform="translate(-10935.8967586 3361.1746606999995) rotate(0)"><polygon fill="none" stroke="#231F20" stroke-width="1" points="15750 1500 15752.6 1557.44 15760.4 1565.93 15803.5 1560.05 15812.7 1543.73 15810.7 1495.43 15750 1500"/></g><g transform="translate(8606.6657144 7030.0413512) rotate(180)"><polygon fill="none" stroke="#231F20" stroke-width="1" points="3750 2250 3751.74 2306.57 3740.43 2330.07 3709.09 2330.07 3705.61 2235.2 3750 2250"/></g><g transform="translate(10773.2081952 7210.424055399999) rotate(180)"><polygon fill="none" stroke="#231F20" stroke-width="1" points="6000 2250 6000.43 2287.42 6059.18 2289.16 6097.48 2269.15 6089.64 2241.3 6059.18 2250 6000 2250"/></g><g transform="translate(10163.985789 6200.263941699999) rotate(180)"><polygon fill="none" stroke="#231F20" stroke-width="1" points="5250 1500 5245.43 1561.36 5256.53 1573.11 5269.58 1573.76 5280.68 1567.23 5302.22 1539.16 5302.22 1521.54 5286.55 1500.65 5250 1500"/></g><g transform="translate(22113.0226168 6464.307961499998) rotate(180)"><polygon fill="none" stroke="#231F20" stroke-width="1" points="17250 1500 17249.3 1524.15 17262.4 1537.21 17338.1 1537.21 17340.1 1498.69 17250 1500"/></g><g transform="translate(35651.1462803 6126.696790299997) rotate(180)"><polygon fill="none" stroke="#231F20" stroke-width="1" points="30750 1500 30810.9 1501.74 30816.1 1554.83 30756.1 1560.05 30747.4 1554.83 30750 1500"/></g><g transform="translate(1740.8722957000064 39021.1705136) rotate(270)"><polygon fill="none" stroke="#231F20" stroke-width="1" points="34500 3000 34502.6 3069.63 34455.6 3069.63 34448.7 3060.92 34453 3046.13 34451.3 3024.37 34480 2998.26 34500 3000"/></g><g transform="translate(1169.6669978000027 16499.9998959) rotate(270)"><polygon fill="none" stroke="#231F20" stroke-width="1" points="12000 3750 11926 3747.39 11946 3687.34 11954.7 3681.24 11980 3693.43 11980 3713.45 11978.2 3721.28 11999.1 3730.85 12000 3750"/></g><g transform="translate(7667.835003699998 -23570.161210500002) rotate(90)"><polygon fill="none" stroke="#231F20" stroke-width="1" points="28500 3000 28504.4 3039.16 28558.3 3045.26 28571.4 3025.24 28566.1 3002.61 28554.8 2993.04 28527 2993.04 28500 3000"/></g><g transform="translate(37565.4442729 7999.271385899996) rotate(180)"><polygon fill="none" stroke="#231F20" stroke-width="1" points="33000 3000 33001.7 3061.79 32991.3 3071.37 32933.9 3069.63 32979.1 2999.13 33000 3000"/></g><g transform="translate(36059.5400686 7907.827576399996) rotate(180)"><polygon fill="none" stroke="#231F20" stroke-width="1" points="31500 3000 31499.1 3053.96 31506.1 3064.4 31551.3 3065.27 31544.4 3001.74 31500 3000"/></g><g transform="translate(34514.1532067 6406.918857799997) rotate(180)"><polygon fill="none" stroke="#231F20" stroke-width="1" points="30000 1500 29955.6 1499.13 29949.5 1436.47 29991.3 1436.47 30000.9 1453.87 30000 1500"/></g><g transform="translate(15268.204289000001 6517.212629599999) rotate(180)"><polygon fill="none" stroke="#231F20" stroke-width="1" points="10500 1500 10500 1542.43 10506.5 1556.14 10524.2 1553.52 10554.2 1556.79 10554.8 1516.97 10546.3 1493.47 10500 1500"/></g><g transform="translate(17569.3399096 6464.9410149999985) rotate(180)"><polygon fill="none" stroke="#231F20" stroke-width="1" points="12750 1500 12793.1 1498.04 12801.6 1492.82 12794.4 1448.43 12771.5 1434.07 12747.4 1439.3 12750 1500"/></g><g transform="translate(28716.053367200002 8803.386338599998) rotate(180)"><polygon fill="none" stroke="#231F20" stroke-width="1" points="24000 3750 23998.3 3790.91 24007 3801.35 24076.6 3802.22 24062.7 3780.46 24026.1 3750.87 24000 3750"/></g><g transform="translate(1717.192891500004 25276.6004845) rotate(270)"><polygon fill="none" stroke="#231F20" stroke-width="1" points="20250 3000 20248.3 3076.59 20210.8 3075.72 20210.8 3000 20250 3000"/></g><g transform="translate(3086.048997600005 33500.1620498) rotate(270)"><polygon fill="none" stroke="#231F20" stroke-width="1" points="28500 1500 28503.5 1549.61 28443.4 1553.96 28439.1 1546.13 28440.8 1520.89 28455.6 1519.15 28458.2 1500 28500 1500"/></g><g transform="translate(6217.192891499999 -18946.1001445) rotate(90)"><polygon fill="none" stroke="#231F20" stroke-width="1" points="24000 1500 24024.8 1502.61 24026.1 1603.13 24039.8 1604.44 24041.8 1612.92 24031.3 1616.84 24020.2 1617.49 24008.5 1597.26 24005.2 1566.58 23997.4 1554.83 24000 1500"/></g><g transform="translate(12084.307298400001 8796.764991999999) rotate(180)"><polygon fill="none" stroke="#231F20" stroke-width="1" points="7500 3750 7498.26 3775.24 7506.09 3789.16 7526.11 3802.22 7548.74 3800.48 7557.44 3791.78 7553.96 3746.52 7500 3750"/></g><g transform="translate(3323.471721000001 7284.7384059000005) rotate(270)"><polygon fill="none" stroke="#231F20" stroke-width="1" points="2250 1500 2253.92 1528.72 2265.67 1535.25 2275.46 1535.9 2297.65 1548.96 2313.32 1547 2320.5 1540.47 2318.54 1513.05 2309.4 1510.44 2299.61 1496.74 2250 1500"/></g><g transform="translate(787.5016187000037 22355.4832216) rotate(270)"><polygon fill="none" stroke="#231F20" stroke-width="1" points="17250 3750 17256.1 3803.09 17259.6 3808.31 17299.6 3807.44 17290.9 3797.87 17305.7 3750 17250 3750"/></g><g transform="translate(-22947.3746351 2785.7983666) rotate(0)"><polygon fill="none" stroke="#231F20" stroke-width="1" points="27750 2250 27743.9 2255.22 27744.8 2284.81 27748.3 2297 27792.6 2296.13 27801.3 2271.76 27801.3 2247.39 27750 2250"/></g><g transform="translate(8510.5585333 -930.7540077000003) rotate(90)"><polygon fill="none" stroke="#231F20" stroke-width="1" points="6000 3750 5996.52 3758.7 6002.61 3795.26 6020.89 3795.26 6046.13 3787.42 6060.05 3749.13 6048.74 3743.04 6000 3750"/></g><g transform="translate(1669.6048774000055 35099.7364316) rotate(270)"><polygon fill="none" stroke="#231F20" stroke-width="1" points="30000 3000 30020 3020.02 30020.9 3033.94 30002.6 3047.87 29972.2 3049.61 29955.6 3031.33 29954.7 3003.48 30000 3000"/></g><g transform="translate(-8121.8944087 1329.8269262999997) rotate(0)"><polygon fill="none" stroke="#231F20" stroke-width="1" points="12750 3750 12770 3750 12776.1 3770.02 12791.8 3773.5 12790 3812.66 12741.3 3811.79 12750 3750"/></g><g transform="translate(2518.2455420000024 20141.5065435) rotate(270)"><polygon fill="none" stroke="#231F20" stroke-width="1" points="15000 2250 15000 2276.98 15014.8 2284.81 15027.8 2300.48 15041.8 2300.48 15055.7 2283.94 15059.2 2270.02 15056.6 2248.26 15000 2250"/></g><g transform="translate(2655.4534271000025 16181.8973755) rotate(270)"><polygon fill="none" stroke="#231F20" stroke-width="1" points="11250 2250 11239.6 2246.08 11238.7 2226.94 11246.5 2219.97 11325.7 2223.45 11324 2249.56 11250 2250"/></g><g transform="translate(4077.470012900006 38315.4848737) rotate(270)"><polygon fill="none" stroke="#231F20" stroke-width="1" points="33750 750 33766.3 770.235 33782 774.151 33812.7 800.261 33809.4 736.292 33778.1 733.029 33750 750"/></g><g transform="translate(8368.0323642 -10595.1463537) rotate(90)"><polygon fill="none" stroke="#231F20" stroke-width="1" points="15750 3750 15746.5 3807.44 15697.8 3805.7 15697.8 3797 15724.8 3747.39 15750 3750"/></g><g transform="translate(31122.4272874 8005.626677499997) rotate(180)"><polygon fill="none" stroke="#231F20" stroke-width="1" points="26250 3000 26250 3061.79 26216.1 3063.53 26208.2 3022.63 26225.6 2997.39 26250 3000"/></g><g transform="translate(6363.6031755 -2440.2717498) rotate(90)"><polygon fill="none" stroke="#231F20" stroke-width="1" points="7500 1500 7446.48 1499.35 7449.09 1457.57 7465.4 1458.88 7471.28 1449.09 7483.68 1447.13 7502.61 1471.93 7500 1500"/></g><g transform="translate(7099.777044799998 -29418.3275554) rotate(90)"><polygon fill="none" stroke="#231F20" stroke-width="1" points="34500 2250 34517.4 2230.85 34543.5 2232.59 34550.5 2238.69 34550.5 2273.5 34547.9 2280.46 34501.7 2276.98 34500 2250"/></g><g transform="translate(7916.100911999999 -15938.548563) rotate(90)"><polygon fill="none" stroke="#231F20" stroke-width="1" points="21000 3000 21045.3 2997.39 21047 3047 21001.7 3047.87 21000 3000"/></g><g transform="translate(12957.7030112 6667.498997699999) rotate(180)"><polygon fill="none" stroke="#231F20" stroke-width="1" points="8250 1500 8248.7 1530.68 8211.49 1543.73 8190.6 1535.25 8191.91 1511.1 8197.78 1497.39 8250 1500"/></g><g transform="translate(1889.805397700004 26598.5337964) rotate(270)"><polygon fill="none" stroke="#231F20" stroke-width="1" points="21750 3000 21750.9 3041.78 21803.1 3039.16 21804 2999.13 21750 3000"/></g><g transform="translate(18436.800108299998 6948.235746199998) rotate(180)"><polygon fill="none" stroke="#231F20" stroke-width="1" points="13500 2250 13539.2 2246.52 13538.3 2223.02 13526.1 2208.22 13521.8 2185.6 13498.3 2189.08 13495.6 2216.93 13500 2250"/></g><g transform="translate(8613.662494199998 -8351.313811) rotate(90)"><polygon fill="none" stroke="#231F20" stroke-width="1" points="13500 3750 13521.8 3775.24 13520 3816.15 13485.2 3814.4 13483.5 3752.61 13500 3750"/></g><g transform="translate(13217.5155028 8879.3371792) rotate(180)"><polygon fill="none" stroke="#231F20" stroke-width="1" points="8250 3750 8252.61 3761.31 8274.37 3770.89 8349.22 3770.89 8349.22 3747.39 8250 3750"/></g><g transform="translate(16208.546793900001 6524.658082099999) rotate(180)"><polygon fill="none" stroke="#231F20" stroke-width="1" points="11250 1500 11251.3 1538.51 11260.4 1544.39 11294.4 1543.08 11293.7 1520.23 11301.6 1514.36 11300.3 1497.39 11250 1500"/></g><g transform="translate(1169.6488035000034 23857.5783902) rotate(270)"><polygon fill="none" stroke="#231F20" stroke-width="1" points="18750 3750 18807.4 3747.39 18808.3 3773.5 18801.3 3783.94 18794.4 3783.94 18789.2 3781.33 18781.3 3786.55 18760.4 3785.68 18749.1 3773.5 18750 3750"/></g><g transform="translate(1155.4534271000011 11691.4813766) rotate(270)"><polygon fill="none" stroke="#231F20" stroke-width="1" points="6750 3750 6746.52 3755.22 6750 3789.16 6774.37 3798.74 6797 3788.29 6794.39 3756.09 6788.29 3750 6750 3750"/></g><g transform="translate(-11557.721264200001 836.2047835000003) rotate(0)"><polygon fill="none" stroke="#231F20" stroke-width="1" points="16500 3750 16496.5 3812.66 16482.6 3812.66 16460 3776.98 16460.8 3749.13 16500 3750"/></g><g transform="translate(5256.256365199997 -27903.6075584) rotate(90)"><polygon fill="none" stroke="#231F20" stroke-width="1" points="33000 750 33035.2 749.347 33039.2 739.556 33051.6 739.556 33050.3 703.003 33022.8 694.517 33010.4 714.099 33005.2 734.987 33000 750"/></g><g transform="translate(3007.7053906000024 16841.3135973) rotate(270)"><polygon fill="none" stroke="#231F20" stroke-width="1" points="12000 1500 11998 1537.86 12049 1539.16 12049.6 1499.35 12000 1500"/></g><g transform="translate(14713.511653900001 7085.526374199999) rotate(180)"><polygon fill="none" stroke="#231F20" stroke-width="1" points="9750 2250 9766.1 2270.89 9780.03 2268.28 9782.64 2260.44 9780.9 2204.74 9769.58 2190.82 9764.36 2189.95 9762.62 2203.87 9750.44 2214.32 9750 2250"/></g><g transform="translate(7205.3114888 -2096.348057) rotate(90)"><polygon fill="none" stroke="#231F20" stroke-width="1" points="6750 2250 6754.35 2239.56 6775.24 2250 6811.79 2251.74 6803.96 2260.44 6788.29 2270.02 6786.55 2287.42 6748.26 2279.59 6750 2250"/></g><g transform="translate(6408.493734099999 -8368.319351400001) rotate(90)"><polygon fill="none" stroke="#231F20" stroke-width="1" points="13500 1500 13543.1 1492.82 13543.1 1530.03 13537.9 1543.73 13513.1 1545.04 13500 1530.03 13500 1500"/></g><g transform="translate(6026.866380399999 -10027.7943475) rotate(90)"><polygon fill="none" stroke="#231F20" stroke-width="1" points="15000 1500 14995.4 1510.44 14996.1 1520.89 15092 1519.58 15092 1500 15000 1500"/></g><g transform="translate(4936.1105339 2511.5886567999996) rotate(0)"><polygon fill="none" stroke="#231F20" stroke-width="1" points="0 2250 0 2274.37 -6.96214 2287.42 5.22193 2294.39 38.2937 2296.13 40.0352 2263.05 31.3316 2258.7 31.3316 2243.04 6.96214 2243.04 0 2250"/></g><g transform="translate(7203.669016699998 -25425.9719481) rotate(90)"><polygon fill="none" stroke="#231F20" stroke-width="1" points="30000 2250 30012.2 2261.31 30010.4 2280.46 29998.3 2286.55 29949.5 2283.94 29944.3 2276.98 29968.7 2250 30000 2250"/></g><g transform="translate(8728.697827699998 -18319.4432227) rotate(90)"><polygon fill="none" stroke="#231F20" stroke-width="1" points="23250 3750 23257.8 3781.33 23265.7 3788.29 23295.3 3788.29 23304.8 3771.76 23304.8 3758.7 23284.8 3746.52 23250 3750"/></g><g transform="translate(7995.161449199999 -7088.9824894) rotate(90)"><polygon fill="none" stroke="#231F20" stroke-width="1" points="12000 3000 12000 3040.9 11993 3047 11980 3044.39 11947.8 3024.37 11945.2 3004.35 12000 3000"/></g><g transform="translate(1206.7043411999998 8080.364564100001) rotate(270)"><polygon fill="none" stroke="#231F20" stroke-width="1" points="3000 3750 3009.57 3789.16 3040.91 3787.42 3055.7 3763.92 3055.7 3751.74 3035.68 3745.65 3003.48 3750.87 3000 3750"/></g><g transform="translate(22677.5202118 8284.813371999999) rotate(180)"><polygon fill="none" stroke="#231F20" stroke-width="1" points="18000 3750 18000 3776.11 17996.5 3783.07 17953.9 3784.81 17941.7 3769.15 17946 3752.61 18000 3750"/></g><g transform="translate(1214.3632263000013 14774.6633922) rotate(270)"><polygon fill="none" stroke="#231F20" stroke-width="1" points="9750 3750 9751.74 3786.55 9765.67 3789.16 9770.02 3793.52 9792.65 3792.65 9797 3775.24 9790.04 3774.37 9790.04 3756.09 9770.02 3745.65 9750 3750"/></g><g transform="translate(-17535.032581 3578.3445094999997) rotate(0)"><polygon fill="none" stroke="#231F20" stroke-width="1" points="22500 1500 22523.5 1495.43 22531.3 1502.61 22529.4 1556.79 22509.1 1562.01 22502.6 1552.22 22500 1500"/></g><g transform="translate(2692.792698800005 31645.6942748) rotate(270)"><polygon fill="none" stroke="#231F20" stroke-width="1" points="27000 2250 26993 2256.96 26993 2278.72 27030.5 2285.68 27046.1 2280.46 27047 2256.96 27037.4 2248.26 27000 2250"/></g><g transform="translate(8005.475154999998 -31296.7211577) rotate(90)"><polygon fill="none" stroke="#231F20" stroke-width="1" points="36000 3000 36001.7 3050.48 36051.3 3050.48 36051.3 3043.52 36035.7 3033.94 36025.2 3002.61 36000 3000"/></g><g transform="translate(7996.689261099999 -2762.1709317000004) rotate(90)"><polygon fill="none" stroke="#231F20" stroke-width="1" points="7500 3000 7500 3021.76 7579.2 3019.15 7593.12 3007.83 7588.77 3000.87 7500 3000"/></g><g transform="translate(-4042.698365 2427.1795179999995) rotate(0)"><polygon fill="none" stroke="#231F20" stroke-width="1" points="9000 2250 9004.35 2274.37 9047.87 2276.11 9048.74 2256.09 9036.55 2232.59 9005.22 2240.43 9000 2250"/></g><g transform="translate(6458.558237199999 -4578.3764247) rotate(90)"><polygon fill="none" stroke="#231F20" stroke-width="1" points="9750 1500 9751.96 1531.98 9740.21 1545.04 9720.63 1545.69 9708.88 1535.25 9710.83 1513.71 9723.24 1498.69 9750 1500"/></g><g transform="translate(8021.425734399999 -7799.8184269) rotate(90)"><polygon fill="none" stroke="#231F20" stroke-width="1" points="12750 3000 12751.7 3031.33 12725.6 3045.26 12710.8 3033.07 12710.8 2996.52 12750 3000"/></g><g transform="translate(12459.7510376 5890.416409299999) rotate(180)"><polygon fill="none" stroke="#231F20" stroke-width="1" points="7500 750 7489.12 752.176 7479.11 746.084 7441.25 746.084 7439.95 729.547 7452.13 726.936 7451.26 718.668 7499.13 715.623 7500 750"/></g><g transform="translate(1996.2564268000015 14551.058179200001) rotate(270)"><polygon fill="none" stroke="#231F20" stroke-width="1" points="9750 3000 9736.95 3015.67 9649.04 3016.54 9642.08 3003.48 9648.17 2998.26 9750 3000"/></g><g transform="translate(38733.019604400004 6775.238595699997) rotate(180)"><polygon fill="none" stroke="#231F20" stroke-width="1" points="33750 2250 33759.6 2244.78 33789.2 2243.04 33797.9 2251.74 33813.5 2261.31 33805.7 2267.41 33796.1 2267.41 33796.1 2275.24 33750.9 2274.37 33749.1 2263.05 33750 2250"/></g><g transform="translate(-23114.9345235 3642.5256048) rotate(0)"><polygon fill="none" stroke="#231F20" stroke-width="1" points="27750 1500 27750.9 1526.11 27795.3 1531.33 27802.2 1519.15 27823.1 1513.92 27817 1504.35 27750 1500"/></g><g transform="translate(7235.802367299999 -8149.7177918) rotate(90)"><polygon fill="none" stroke="#231F20" stroke-width="1" points="12750 2250 12748.3 2280.46 12740.4 2290.04 12707.4 2274.37 12703 2253.48 12714.3 2241.3 12750 2250"/></g><g transform="translate(5779.034289399998 -24916.4852774) rotate(90)"><polygon fill="none" stroke="#231F20" stroke-width="1" points="30000 750 30002 778.721 29996.1 783.943 29962.1 780.679 29951.7 780.026 29951.7 758.486 29957.6 748.042 30000 750"/></g><g transform="translate(16249.8897979 8893.506022399999) rotate(180)"><polygon fill="none" stroke="#231F20" stroke-width="1" points="11250 3750 11255.2 3767.41 11246.5 3783.07 11207.4 3783.07 11203 3767.41 11210.8 3748.26 11250 3750"/></g><g transform="translate(1258.5970264000002 1246.5057878999996) rotate(0)"><polygon fill="none" stroke="#231F20" stroke-width="1" points="3750 3750 3747.39 3779.59 3767.41 3791.78 3783.94 3787.42 3791.78 3773.5 3790.04 3750.87 3750 3750"/></g><g transform="translate(1986.4931813000003 1952.4275524) rotate(0)"><polygon fill="none" stroke="#231F20" stroke-width="1" points="3000 3000 3055.7 3000 3060.05 3012.18 3054.83 3025.24 3000 3025.24 2994.78 3015.67 3000 3000"/></g><g transform="translate(21061.3717181 7424.7754123999985) rotate(180)"><polygon fill="none" stroke="#231F20" stroke-width="1" points="16500 2250 16500.9 2276.11 16554.8 2276.98 16559.2 2250 16500 2250"/></g><g transform="translate(2746.375908400005 30269.8257151) rotate(270)"><polygon fill="none" stroke="#231F20" stroke-width="1" points="25500 2250 25501.7 2286.55 25495.6 2292.65 25460 2290.9 25460 2260.44 25500 2250"/></g><g transform="translate(37260.7301319 5408.702158299996) rotate(180)"><polygon fill="none" stroke="#231F20" stroke-width="1" points="32250 750 32250 788.512 32273.5 791.123 32282.6 785.901 32291.1 747.389 32250 750"/></g><g transform="translate(2012.2893532000003 7101.1729688) rotate(270)"><polygon fill="none" stroke="#231F20" stroke-width="1" points="2250 3000 2254.35 3013.93 2246.58 3032.01 2187.34 3025.24 2163.84 3020.89 2194.3 3011.31 2230.85 3009.57 2250 3000"/></g><g transform="translate(8056.976270899999 -19637.7102837) rotate(90)"><polygon fill="none" stroke="#231F20" stroke-width="1" points="24750 3000 24742.2 3060.92 24726.5 3060.92 24726.5 3036.55 24722.2 3037.42 24718.7 3001.74 24750 3000"/></g><g transform="translate(1254.823418900004 24209.5789984) rotate(270)"><polygon fill="none" stroke="#231F20" stroke-width="1" points="19500 3750 19498.3 3770.02 19483.5 3777.85 19468.7 3779.59 19448.7 3771.76 19440.8 3763.92 19444.3 3749.13 19500 3750"/></g><g transform="translate(-265.15387699999974 753.3486598000004) rotate(0)"><polygon fill="none" stroke="#231F20" stroke-width="1" points="5250 3750 5250.87 3803.09 5261.31 3801.35 5267.41 3787.42 5291.78 3773.5 5275.24 3747.39 5250 3750"/></g><g transform="translate(6525.186774399997 -30673.8550844) rotate(90)"><polygon fill="none" stroke="#231F20" stroke-width="1" points="35250 1500 35248.3 1533.07 35277 1538.29 35291.8 1529.59 35294.4 1512.18 35281.3 1501.74 35250 1500"/></g><g transform="translate(1255.4620009000046 30196.5747994) rotate(270)"><polygon fill="none" stroke="#231F20" stroke-width="1" points="25500 3750 25530.9 3753.05 25540.9 3767.84 25532.2 3782.2 25497.8 3781.77 25491.7 3771.76 25489.6 3759.57 25500 3750"/></g><g transform="translate(13289.5513617 7330.957685099999) rotate(180)"><polygon fill="none" stroke="#231F20" stroke-width="1" points="8250 2250 8250.44 2296.13 8217.36 2297 8213.88 2263.05 8231.29 2263.05 8230.42 2250 8250 2250"/></g><g transform="translate(8063.5040555 -1857.4868446) rotate(90)"><polygon fill="none" stroke="#231F20" stroke-width="1" points="6750 3000 6739.56 3013.05 6759.57 3024.37 6813.53 3020.02 6806.57 3000.87 6750 3000"/></g><g transform="translate(2019.8027954000045 28395.4841471) rotate(270)"><polygon fill="none" stroke="#231F20" stroke-width="1" points="23250 3000 23250.9 3070.5 23231.7 3071.37 23230 3000 23250 3000"/></g><g transform="translate(5819.9699038 2774.1922179000003) rotate(90)"><polygon fill="none" stroke="#231F20" stroke-width="1" points="2250 750 2247.82 769.582 2190.38 770.018 2176.02 760.444 2175.15 751.305 2203 752.176 2228.24 751.742 2235.2 745.649 2246.08 745.649 2250 750"/></g><g transform="translate(2764.473512 5596.4306205) rotate(270)"><polygon fill="none" stroke="#231F20" stroke-width="1" points="750 2250 748.26 2302.22 781.332 2281.33 783.072 2247.39 750 2250"/></g><g transform="translate(-20441.8122 2111.0779747999995) rotate(0)"><polygon fill="none" stroke="#231F20" stroke-width="1" points="25500 3000 25527 2999.13 25537.4 3009.57 25536.6 3032.2 25499.1 3033.94 25495.6 3027.85 25493 3006.96 25500 3000"/></g><g transform="translate(32058.623682899997 5860.642514499997) rotate(180)"><polygon fill="none" stroke="#231F20" stroke-width="1" points="27000 750 26997.4 784.595 26975.2 782.637 26960.8 777.415 26960.2 750.653 27000 750"/></g><g transform="translate(1264.3171340000004 6904.572679700001) rotate(270)"><polygon fill="none" stroke="#231F20" stroke-width="1" points="2250 3750 2285.68 3750 2286.55 3771.76 2272.63 3785.68 2250 3792.65 2245.65 3785.68 2250 3750"/></g><g transform="translate(7309.595071499998 -23775.6244531) rotate(90)"><polygon fill="none" stroke="#231F20" stroke-width="1" points="28500 2250 28507 2270.89 28520.9 2270.89 28527.8 2276.98 28540 2274.37 28560.1 2266.54 28559.2 2247.39 28500 2250"/></g><g transform="translate(4292.616560200002 12822.1613459) rotate(270)"><polygon fill="none" stroke="#231F20" stroke-width="1" points="8250 750 8282.64 750 8280.9 737.816 8279.16 708.661 8260.44 706.05 8246.96 714.752 8251.3 729.983 8246.52 736.51 8250 750"/></g><g transform="translate(1326.8848455000034 26011.850937) rotate(270)"><polygon fill="none" stroke="#231F20" stroke-width="1" points="21000 3750 21002.6 3772.63 20951.3 3774.37 20946.9 3750.87 20972.2 3749.13 20980 3743.91 21000 3750"/></g><g transform="translate(6242.022223099999 -18358.4796978) rotate(90)"><polygon fill="none" stroke="#231F20" stroke-width="1" points="23250 1500 23274.2 1501.96 23276.1 1513.71 23280 1518.28 23279.4 1534.6 23272.2 1550.26 23250.7 1548.3 23250 1500"/></g><g transform="translate(35.399037600000156 3892.4733333000004) rotate(0)"><polygon fill="none" stroke="#231F20" stroke-width="1" points="4500 750 4501.74 790.035 4467.36 790.47 4467.36 752.611 4485.21 752.611 4500 750"/></g><g transform="translate(26841.906407399998 5657.977450899997) rotate(180)"><polygon fill="none" stroke="#231F20" stroke-width="1" points="21750 750 21772.8 750 21778.7 744.778 21778.1 708.225 21731.7 712.141 21735 722.585 21752.6 721.932 21750 750"/></g><g transform="translate(8079.072652899999 -6466.1398293) rotate(90)"><polygon fill="none" stroke="#231F20" stroke-width="1" points="11250 3000 11294.4 3000 11294.4 3022.63 11285.7 3030.46 11257 3030.46 11250 3023.5 11250 3000"/></g><g transform="translate(7342.219460099999 -2610.2762785000004) rotate(90)"><polygon fill="none" stroke="#231F20" stroke-width="1" points="7500 2250 7500 2282.2 7458.22 2282.2 7461.71 2251.74 7500 2250"/></g><g transform="translate(-19681.4201107 2709.6373163000003) rotate(0)"><polygon fill="none" stroke="#231F20" stroke-width="1" points="24750 2250 24762.2 2238.69 24781.3 2238.69 24793.5 2263.05 24787.4 2274.37 24751.7 2274.37 24750 2250"/></g><g transform="translate(4289.3706889000005 943.9177295) rotate(0)"><polygon fill="none" stroke="#231F20" stroke-width="1" points="750 3750 792.619 3747.49 796.997 3763.05 776.979 3782.2 750 3775.24 750 3750"/></g><g transform="translate(6555.5894378 824.1706164000002) rotate(90)"><polygon fill="none" stroke="#231F20" stroke-width="1" points="3750 1500 3753.26 1516.97 3758.49 1520.89 3758.49 1530.03 3787.21 1530.68 3793.73 1522.85 3794.39 1503.92 3750 1500"/></g><g transform="translate(-26039.2093259 2361.8514133) rotate(0)"><polygon fill="none" stroke="#231F20" stroke-width="1" points="30750 2250 30751.7 2278.72 30796.1 2280.46 30799.6 2257.83 30750 2250"/></g><g transform="translate(2061.728156800005 35480.0807664) rotate(270)"><polygon fill="none" stroke="#231F20" stroke-width="1" points="30750 3000 30760.4 3012.18 30763.9 3025.24 30715.2 3024.37 30707.4 3019.15 30707.4 3000 30750 3000"/></g><g transform="translate(3556.599971500003 23442.9029215) rotate(270)"><polygon fill="none" stroke="#231F20" stroke-width="1" points="18750 1500 18785.2 1495.43 18791.8 1518.93 18785.9 1526.11 18776.1 1527.42 18767.6 1533.29 18753.3 1529.37 18750 1500"/></g><g transform="translate(6564.5533912 7094.7835106) rotate(180)"><polygon fill="none" stroke="#231F20" stroke-width="1" points="1500 2250 1498.26 2266.54 1434.73 2266.54 1436.47 2245.65 1500 2250"/></g><g transform="translate(-16672.43639 3273.6755424000003) rotate(0)"><polygon fill="none" stroke="#231F20" stroke-width="1" points="21750 1500 21755.2 1535.25 21787.2 1539.82 21785.9 1508.49 21774.8 1507.83 21763.7 1496.08 21750 1500"/></g><g transform="translate(-15158.4012487 1099.9643570000003) rotate(0)"><polygon fill="none" stroke="#231F20" stroke-width="1" points="20250 3750 20250 3776.11 20304 3773.5 20288.3 3749.13 20250 3750"/></g><g transform="translate(-26371.5389051 3409.7176852999996) rotate(0)"><polygon fill="none" stroke="#231F20" stroke-width="1" points="31500 1500 31501.7 1505.22 31503.5 1531.33 31490.4 1531.33 31480.9 1524.37 31463.4 1524.37 31463.4 1498.26 31500 1500"/></g><g transform="translate(22345.3573737 7155.6894042999975) rotate(180)"><polygon fill="none" stroke="#231F20" stroke-width="1" points="17250 2250 17253.5 2273.5 17241.3 2278.72 17203.9 2275.24 17219.5 2247.39 17250 2250"/></g><g transform="translate(3586.5482973 989.6301931999997) rotate(0)"><polygon fill="none" stroke="#231F20" stroke-width="1" points="1500 3750 1500 3776.98 1520.89 3790.91 1534.81 3790.91 1535.68 3757.83 1500 3750"/></g><g transform="translate(-931.6202659 3484.0069452) rotate(0)"><polygon fill="none" stroke="#231F20" stroke-width="1" points="6000 1500 6014.36 1517.62 6069.19 1511.1 6082.25 1505.87 6072.45 1492.82 6039.16 1500 6000 1500"/></g><g transform="translate(5880.775904699999 -17497.061306) rotate(90)"><polygon fill="none" stroke="#231F20" stroke-width="1" points="22500 750 22496.1 776.11 22523.5 780.679 22539.2 766.319 22543.1 755.222 22536.6 745.431 22518.3 751.958 22500 750"/></g><g transform="translate(5862.099763699999 -13054.4474632) rotate(90)"><polygon fill="none" stroke="#231F20" stroke-width="1" points="18000 750 18033.9 747.389 18033.9 736.51 18027.8 719.974 18015.7 718.234 17999.1 715.623 18000 750"/></g><g transform="translate(-30894.389885 3544.2609095) rotate(0)"><polygon fill="none" stroke="#231F20" stroke-width="1" points="36000 1500 35993 1526.11 36011.3 1533.07 36032.2 1526.11 36038.3 1502.61 36029.6 1502.61 36000 1500"/></g><g transform="translate(28678.200204599998 7999.598441799997) rotate(180)"><polygon fill="none" stroke="#231F20" stroke-width="1" points="24000 3000 24000.9 3029.59 23964.3 3030.46 23966.9 2997.39 24000 3000"/></g><g transform="translate(28339.1334331 6900.769417299997) rotate(180)"><polygon fill="none" stroke="#231F20" stroke-width="1" points="23250 2250 23251.7 2274.37 23263.9 2284.81 23284.8 2284.81 23283.1 2249.13 23250 2250"/></g><g transform="translate(7383.747216499998 -10673.5512796) rotate(90)"><polygon fill="none" stroke="#231F20" stroke-width="1" points="15750 2250 15751.7 2283.07 15787.4 2283.94 15785.7 2260.44 15767.4 2250 15750 2250"/></g><g transform="translate(-24163.0330737 2457.9880011) rotate(0)"><polygon fill="none" stroke="#231F20" stroke-width="1" points="29250 2250 29250 2276.98 29256.1 2283.07 29279.6 2281.33 29286.6 2273.5 29283.1 2250 29250 2250"/></g><g transform="translate(3115.8451279 3655.5918456) rotate(0)"><polygon fill="none" stroke="#231F20" stroke-width="1" points="1500 1500 1511.1 1502.61 1517.62 1510.44 1514.36 1516.32 1454.96 1518.28 1445.17 1508.49 1463.45 1503.92 1471.28 1497.39 1500 1500"/></g><g transform="translate(-14398.3533321 2114.29595) rotate(0)"><polygon fill="none" stroke="#231F20" stroke-width="1" points="19500 3000 19493.9 3007.83 19493.9 3032.2 19522.6 3032.2 19528.7 3011.31 19526.1 2997.39 19519.1 3000.87 19500 3000"/></g><g transform="translate(-9860.9969669 2148.9575076) rotate(0)"><polygon fill="none" stroke="#231F20" stroke-width="1" points="15000 3000 15005.2 3014.8 14995.6 3018.28 14953 3020.02 14953.9 2997.39 15000 3000"/></g><g transform="translate(34346.535749899995 7602.9660959999965) rotate(180)"><polygon fill="none" stroke="#231F20" stroke-width="1" points="29250 3000 29270.9 2988.69 29290.9 2989.56 29288.3 3013.05 29283.9 3019.15 29257 3019.15 29252.6 3013.92 29250 3000"/></g><g transform="translate(26792.6165602 8318.557078999998) rotate(180)"><polygon fill="none" stroke="#231F20" stroke-width="1" points="21750 3750 21750 3776.11 21718.7 3774.37 21715.2 3768.28 21711.7 3750 21716.9 3746.52 21750 3750"/></g><g transform="translate(15617.647738700001 6921.434534299999) rotate(180)"><polygon fill="none" stroke="#231F20" stroke-width="1" points="10500 2250 10499.1 2213.45 10527 2213.45 10527.8 2250 10500 2250"/></g><g transform="translate(27527.899516999998 8280.467925799996) rotate(180)"><polygon fill="none" stroke="#231F20" stroke-width="1" points="22500 3750 22505.2 3764.8 22476.5 3772.63 22460 3760.44 22465.2 3750 22475.6 3741.3 22500 3750"/></g><g transform="translate(26166.020866400002 6618.641878299997) rotate(180)"><polygon fill="none" stroke="#231F20" stroke-width="1" points="21000 1500 20996.7 1519.58 21033.9 1518.28 21037.9 1515.01 21037.2 1501.31 21033.3 1484.99 21000 1500"/></g><g transform="translate(-9120.5948442 2015.7325780999995) rotate(0)"><polygon fill="none" stroke="#231F20" stroke-width="1" points="14250 3000 14256.1 3024.37 14295.3 3020.89 14295.3 3008.7 14290 2996.52 14250 3000"/></g><g transform="translate(-27712.4983813 3562.9449789) rotate(0)"><polygon fill="none" stroke="#231F20" stroke-width="1" points="32250 1500 32246.5 1532.2 32215.2 1532.2 32214.3 1504.35 32250 1500"/></g><g transform="translate(-21860.5215848 2063.9342336000004) rotate(0)"><polygon fill="none" stroke="#231F20" stroke-width="1" points="27000 3000 27031.3 3003.48 27033.1 3027.85 27013.9 3035.68 26998.3 3025.24 27000 3000"/></g><g transform="translate(2114.6323607 4065.7476051999997) rotate(0)"><polygon fill="none" stroke="#231F20" stroke-width="1" points="3000 750 3000.87 759.573 3025.67 763.055 3036.99 763.055 3051.78 756.962 3050.91 744.343 3002.18 743.038 3000 750"/></g><g transform="translate(2132.2576157000026 18436.307698099998) rotate(270)"><polygon fill="none" stroke="#231F20" stroke-width="1" points="13500 3000 13503.5 3017.41 13514.8 3028.72 13538.3 3029.59 13534.8 2997.39 13500 3000"/></g><g transform="translate(-5337.8558934 1785.1464262999998) rotate(0)"><polygon fill="none" stroke="#231F20" stroke-width="1" points="10500 3000 10493 3022.63 10461.7 3022.63 10452.1 3016.54 10452.1 3005.22 10477.4 2997.39 10500 3000"/></g><g transform="translate(-22620.0119061 4080.7442531999995) rotate(0)"><polygon fill="none" stroke="#231F20" stroke-width="1" points="27750 750 27752 771.54 27757.2 775.457 27758.5 780.026 27774.8 775.457 27785.2 777.415 27785.2 748.042 27750 750"/></g><g transform="translate(8153.4520152000005 4749.922610399999) rotate(90)"><polygon fill="none" stroke="#231F20" stroke-width="1" points="0 3000 1.74021 3031.33 35.6828 3031.33 30.4608 3001.74 0 3000"/></g><g transform="translate(2516.185931700003 23922.601488599998) rotate(270)"><polygon fill="none" stroke="#231F20" stroke-width="1" points="18750 2250 18748.3 2265.67 18748.3 2281.33 18781.3 2281.33 18778.7 2256.09 18750 2250"/></g><g transform="translate(2084.890678500004 27162.5545528) rotate(270)"><polygon fill="none" stroke="#231F20" stroke-width="1" points="22500 3000 22493.9 3032.2 22503.5 3040.03 22524.4 3040.03 22521.8 3007.83 22500 3000"/></g><g transform="translate(5872.515664799999 -14043.139472300001) rotate(90)"><polygon fill="none" stroke="#231F20" stroke-width="1" points="18750 750 18768.7 745.649 18780.5 739.556 18783.5 720.41 18756.5 716.928 18751.3 721.279 18750 750"/></g><g transform="translate(7424.715244099999 -7046.4628205) rotate(90)"><polygon fill="none" stroke="#231F20" stroke-width="1" points="12000 2250 11990.4 2263.92 12005.2 2280.46 12027.8 2280.46 12027 2250 12000 2250"/></g><g transform="translate(-15099.418877 2426.0503005) rotate(0)"><polygon fill="none" stroke="#231F20" stroke-width="1" points="20250 2250 20250.9 2272.63 20244.8 2281.33 20217.8 2276.11 20223 2245.65 20250 2250"/></g><g transform="translate(3877.2759980000005 4656.978349600001) rotate(270)"><polygon fill="none" stroke="#231F20" stroke-width="1" points="0 750 5.87467 769.582 39.1645 770.235 42.4282 761.097 39.1645 741.514 0 750"/></g><g transform="translate(1569.088115200006 36798.7360808) rotate(270)"><polygon fill="none" stroke="#231F20" stroke-width="1" points="32250 3000 32244.8 3006.96 32252.6 3018.28 32296.1 3015.67 32297.9 3001.74 32290.9 2996.52 32250 3000"/></g><g transform="translate(5873.216876399999 -14890.5440879) rotate(90)"><polygon fill="none" stroke="#231F20" stroke-width="1" points="19500 750 19496.7 782.637 19507.2 788.512 19516.3 786.554 19520.9 765.013 19527.4 758.486 19526.8 747.389 19500 750"/></g><g transform="translate(19386.5927292 5333.958729399998) rotate(180)"><polygon fill="none" stroke="#231F20" stroke-width="1" points="14250 750 14273.5 771.324 14293.9 772.193 14304 762.62 14293.5 748.26 14269.1 748.695 14250 750"/></g><g transform="translate(7177.695436199998 -21400.9859526) rotate(90)"><polygon fill="none" stroke="#231F20" stroke-width="1" points="26250 2250 26249.1 2269.15 26267.4 2272.63 26290.9 2269.15 26296.1 2253.48 26265.7 2247.39 26250 2250"/></g><g transform="translate(6649.0759812 123.6100035999998) rotate(90)"><polygon fill="none" stroke="#231F20" stroke-width="1" points="4500 1500 4515.01 1524.15 4543.08 1524.15 4548.3 1524.15 4546.34 1503.26 4500 1500"/></g><g transform="translate(3670.4560492 4382.2141936) rotate(0)"><polygon fill="none" stroke="#231F20" stroke-width="1" points="1500 750 1500 773.063 1472.58 774.368 1462.58 751.305 1476.94 747.824 1492.6 746.518 1500 750"/></g><g transform="translate(19361.6361209 8310.303954599998) rotate(180)"><polygon fill="none" stroke="#231F20" stroke-width="1" points="14250 3750 14272.6 3748.26 14286.6 3767.41 14286.6 3776.98 14259.6 3776.98 14247.4 3765.67 14250 3750"/></g><g transform="translate(1899.8572214000014 10762.259118000002) rotate(270)"><polygon fill="none" stroke="#231F20" stroke-width="1" points="6000 3000 5999.13 3034.81 5977.37 3034.81 5970.41 3026.11 5970.41 3007.83 6000 3000"/></g><g transform="translate(3647.176046300002 13867.177083800001) rotate(270)"><polygon fill="none" stroke="#231F20" stroke-width="1" points="9000 1500 9003.26 1526.11 8976.5 1527.42 8968.02 1517.62 8977.15 1494.13 9000 1500"/></g><g transform="translate(34362.357341099996 5281.491693599996) rotate(180)"><polygon fill="none" stroke="#231F20" stroke-width="1" points="29250 750 29250.7 771.54 29257.2 774.804 29273.5 772.846 29290.5 761.749 29289.8 748.042 29250 750"/></g><g transform="translate(-12100.0949764 3837.0592927) rotate(0)"><polygon fill="none" stroke="#231F20" stroke-width="1" points="17250 750 17252.2 771.322 17226.5 773.063 17213.9 759.138 17211.7 751.74 17250 750"/></g><g transform="translate(6634.738580699998 -29969.8331011) rotate(90)"><polygon fill="none" stroke="#231F20" stroke-width="1" points="34500 1500 34492.2 1507.83 34498.3 1520.89 34533.9 1520.02 34542.6 1504.35 34533.9 1500.87 34500 1500"/></g><g transform="translate(-19628.5868641 753.4813755000005) rotate(0)"><polygon fill="none" stroke="#231F20" stroke-width="1" points="24750 3750 24748.3 3759.57 24768.7 3778.72 24775.7 3778.29 24780.9 3774.37 24780.5 3746.52 24750 3750"/></g><g transform="translate(2558.908493900003 22815.9100363) rotate(270)"><polygon fill="none" stroke="#231F20" stroke-width="1" points="18000 2250 18000 2269.15 18039.2 2270.89 18042.6 2260.44 18029.6 2247.39 18000 2250"/></g><g transform="translate(3750.399774900002 13792.536808500001) rotate(270)"><polygon fill="none" stroke="#231F20" stroke-width="1" points="9000 750 9002.18 767.406 9048.74 769.148 9050.48 753.046 9023.5 750.435 9000 750"/></g><g transform="translate(-26366.055854500002 3811.1379564) rotate(0)"><polygon fill="none" stroke="#231F20" stroke-width="1" points="31500 750 31502 772.193 31534.6 774.804 31535.2 753.916 31530.7 748.042 31500 750"/></g><g transform="translate(4214.5214841000015 10109.2452977) rotate(270)"><polygon fill="none" stroke="#231F20" stroke-width="1" points="5250 750 5290.9 748.258 5290.03 764.795 5280.9 772.193 5261.31 772.193 5252.17 762.184 5250 750"/></g><g transform="translate(8920.432856899999 -21607.5627545) rotate(90)"><polygon fill="none" stroke="#231F20" stroke-width="1" points="26250 3750 26283.9 3750.43 26287 3768.28 26273.9 3774.37 26256.1 3772.19 26247 3765.23 26250 3750"/></g><g transform="translate(23917.8855518 7557.656266899998) rotate(180)"><polygon fill="none" stroke="#231F20" stroke-width="1" points="18750 3000 18756.1 3026.11 18766.5 3026.11 18783.1 3017.41 18783.9 2996.52 18750 3000"/></g><g transform="translate(37935.3099854 6476.601663599996) rotate(180)"><polygon fill="none" stroke="#231F20" stroke-width="1" points="33000 1500 32999.1 1532.2 33019.1 1532.2 33023.5 1526.11 33023.5 1506.09 33013.9 1497.39 33000 1500"/></g><g transform="translate(18782.9581773 7243.079502299998) rotate(180)"><polygon fill="none" stroke="#231F20" stroke-width="1" points="14250 2250 14256.1 2270.02 14218.7 2272.63 14217.8 2250.87 14250 2250"/></g><g transform="translate(38920.6519509 6141.172854799996) rotate(180)"><polygon fill="none" stroke="#231F20" stroke-width="1" points="33750 1500 33748.3 1522.63 33750 1533.07 33770 1532.2 33772.6 1502.61 33750 1500"/></g><g transform="translate(8174.094988499999 1317.6156268000004) rotate(90)"><polygon fill="none" stroke="#231F20" stroke-width="1" points="3750 3000 3747.47 3024.23 3721.36 3025.97 3722.23 2999.86 3750 3000"/></g><g transform="translate(32924.6348346 8014.221496799997) rotate(180)"><polygon fill="none" stroke="#231F20" stroke-width="1" points="27750 3000 27750 3030.46 27773.5 3030.46 27775.2 3009.57 27750 3000"/></g><g transform="translate(6762.940843299999 -17535.1937616) rotate(90)"><polygon fill="none" stroke="#231F20" stroke-width="1" points="22500 2250 22503.5 2256.96 22496.5 2261.31 22445.2 2260.44 22443.4 2250 22500 2250"/></g><g transform="translate(2902.8492313000033 24260.473660800002) rotate(270)"><polygon fill="none" stroke="#231F20" stroke-width="1" points="19500 2250 19476.5 2249.13 19475.6 2268.28 19508.7 2270.02 19508.7 2253.48 19500 2250"/></g><g transform="translate(5452.270490999998 -30417.1205477) rotate(90)"><polygon fill="none" stroke="#231F20" stroke-width="1" points="35250 750 35250.7 765.666 35292.4 765.013 35291.8 752.611 35250 750"/></g><g transform="translate(-77.80936980000024 2431.7007538999997) rotate(0)"><polygon fill="none" stroke="#231F20" stroke-width="1" points="5250 2250 5249.57 2277.42 5229.11 2276.54 5229.55 2248.69 5250 2250"/></g><g transform="translate(6360.465151999999 -14872.8075778) rotate(90)"><polygon fill="none" stroke="#231F20" stroke-width="1" points="19500 1500 19498.7 1522.19 19515 1527.42 19520.9 1524.8 19520.9 1498.69 19500 1500"/></g><g transform="translate(4404.701185100002 16720.2560482) rotate(270)"><polygon fill="none" stroke="#231F20" stroke-width="1" points="12000 750 12000 764.795 11983.5 766.101 11971.3 762.184 11970.8 749.129 12000 750"/></g><g transform="translate(38485.8327118 7520.017943799996) rotate(180)"><polygon fill="none" stroke="#231F20" stroke-width="1" points="33750 3000 33750 3019.15 33722.1 3020.02 33721.3 3000.87 33750 3000"/></g><g transform="translate(22929.2208203 8047.339450599999) rotate(180)"><polygon fill="none" stroke="#231F20" stroke-width="1" points="18000 3000 18003.5 3020.89 17979.1 3020.89 17978.2 3013.05 17981.7 3000 18000 3000"/></g><g transform="translate(-3486.3157209 1499.9999832000003) rotate(0)"><polygon fill="none" stroke="#231F20" stroke-width="1" points="8250 3000 8255.33 3017.3 8288.4 3017.3 8286.66 3003.37 8250 3000"/></g><g transform="translate(4259.217950599999 1977.6663218999997) rotate(0)"><polygon fill="none" stroke="#231F20" stroke-width="1" points="750 3000 748.26 3016.54 782.093 3018.93 779.591 3009.57 779.591 3002.61 750 3000"/></g><g transform="translate(5262.854340399998 -31258.4356343) rotate(90)"><polygon fill="none" stroke="#231F20" stroke-width="1" points="36000 750 36000.7 762.402 35960.2 761.097 35959.5 747.389 36000 750"/></g><g transform="translate(26346.390976900002 7366.424699299997) rotate(180)"><polygon fill="none" stroke="#231F20" stroke-width="1" points="21750 2250 21747.4 2270.02 21721.3 2266.54 21723.9 2254.35 21734.3 2248.26 21750 2250"/></g><g transform="translate(21850.0816712 7997.587487099998) rotate(180)"><polygon fill="none" stroke="#231F20" stroke-width="1" points="17250 3000 17252.6 3014.8 17243.9 3026.98 17231.7 3020.02 17230 3012.18 17232.6 3001.74 17250 3000"/></g><g transform="translate(-19426.5686513 4164.0181333) rotate(0)"><polygon fill="none" stroke="#231F20" stroke-width="1" points="24000 750 24001.3 761.749 24037.9 765.013 24035.9 745.431 24030.7 750 24000 750"/></g><g transform="translate(5389.6140584 5801.2889387) rotate(180)"><polygon fill="none" stroke="#231F20" stroke-width="1" points="750 750 748.26 766.971 722.15 766.971 722.15 750.436 750 750"/></g><g transform="translate(19953.669016699998 5301.539568999998) rotate(180)"><polygon fill="none" stroke="#231F20" stroke-width="1" points="15000 750 14998.3 770.018 14977.4 768.713 14977.8 749.565 15000 750"/></g><g transform="translate(10012.1749896 8080.559713) rotate(180)"><polygon fill="none" stroke="#231F20" stroke-width="1" points="5250 3000 5250 3012.18 5219.54 3014.8 5217.8 3000.87 5250 3000"/></g><g transform="translate(-4023.4595483000003 1913.5886429000002) rotate(0)"><polygon fill="none" stroke="#231F20" stroke-width="1" points="9000 3000 8997.39 3016.54 8978.24 3016.54 8977.37 2997.39 9000 3000"/></g><g transform="translate(-27918.317972099998 2564.6094989999997) rotate(0)"><polygon fill="none" stroke="#231F20" stroke-width="1" points="33000 2250 32997.4 2261.31 33027 2262.18 33029.6 2255.22 33021.8 2253.48 33022.6 2247.39 33000 2250"/></g><g transform="translate(5923.5114261 -11997.3906569) rotate(90)"><polygon fill="none" stroke="#231F20" stroke-width="1" points="16500 750 16497.4 766.537 16502.2 771.324 16514.4 770.018 16522.6 763.055 16519.1 757.833 16518.3 753.482 16508.7 748.695 16500 750"/></g><g transform="translate(28113.7501275 5319.3667793999975) rotate(180)"><polygon fill="none" stroke="#231F20" stroke-width="1" points="23250 750 23248 755.875 23262.4 763.055 23267.6 768.93 23275.5 756.527 23276.1 748.695 23250 750"/></g><g transform="translate(7769.503106 3265.8806409999997) rotate(90)"><polygon fill="none" stroke="#231F20" stroke-width="1" points="1500 3000 1499.13 3017.41 1479.11 3015.67 1479.98 2999.13 1500 3000"/></g><g transform="translate(-11845.547686900001 2079.4849701000003) rotate(0)"><polygon fill="none" stroke="#231F20" stroke-width="1" points="16500 3000 16499.1 3018.28 16516.5 3018.28 16517.4 3000 16500 3000"/></g><g transform="translate(-8111.1629047 4019.2632931) rotate(0)"><polygon fill="none" stroke="#231F20" stroke-width="1" points="12750 750 12747.4 767.842 12734.8 767.407 12727.8 754.787 12737.4 748.695 12750 750"/></g><g transform="translate(39563.3162946 5654.713717999995) rotate(180)"><polygon fill="none" stroke="#231F20" stroke-width="1" points="34500 750 34496.1 763.708 34475.8 761.749 34477.2 746.736 34500 750"/></g><g transform="translate(2318.384091100006 40309.3290475) rotate(270)"><polygon fill="none" stroke="#231F20" stroke-width="1" points="35250 2250 35249.1 2270.89 35256.1 2275.24 35261.3 2270.02 35261.3 2246.52 35250 2250"/></g><g transform="translate(5399.817355099998 -20094.2361544) rotate(90)"><polygon fill="none" stroke="#231F20" stroke-width="1" points="24750 750 24749.3 766.319 24760.4 769.582 24761.1 751.305 24750 750"/></g><g transform="translate(5615.862009199999 -4680.210714299999) rotate(90)"><polygon fill="none" stroke="#231F20" stroke-width="1" points="9750 750 9743.91 755.658 9743.47 763.926 9763.05 764.796 9765.67 753.482 9750 750"/></g><g transform="translate(7124.057577799998 -16355.7623589) rotate(90)"><polygon fill="none" stroke="#231F20" stroke-width="1" points="21000 2250 21002.2 2262.39 20981.7 2260.88 20981.7 2248.69 21000 2250"/></g><g transform="translate(6767.5100525 143.90444409999964) rotate(90)"><polygon fill="none" stroke="#231F20" stroke-width="1" points="4500 2250 4500 2263.93 4487.82 2262.19 4489.56 2248.26 4500 2250"/></g><g transform="translate(5802.454341999999 -20648.9617247) rotate(90)"><polygon fill="none" stroke="#231F20" stroke-width="1" points="25500 750 25500 754.569 25523.5 756.527 25524.2 751.958 25515.7 750.653 25515 746.084 25505.2 745.431 25500 750"/></g><g transform="translate(5261.177712699999 -16303.3897784) rotate(90)"><polygon fill="none" stroke="#231F20" stroke-width="1" points="21000 750 21000 758.486 20986.3 759.138 20986.9 747.389 21000 750"/></g></g></svg>