<svg xmlns="http://www.w3.org/2000/svg" width="4.166666666666667in" height="6.302083333333334in" viewBox="0 0 300 453.75000000000006"><g transform="translate(-33000 -750)"><g transform="translate(45839.999845535494 1544.9999476340606) rotate(180)"><polygon fill="none" stroke="#231F20" stroke-width="1" points="12750 750 12795 705 12840 750 12795 795"/></g><g transform="translate(17249.999915599998 134.99987750000003) rotate(0)"><polygon fill="none" stroke="#231F20" stroke-width="1" points="15750 750 15795 705 15840 750 15795 795"/></g><g transform="translate(21044.999915599998 89.99987750000003) rotate(0)"><polygon fill="none" stroke="#231F20" stroke-width="1" points="12000 750 12045 705 12090 750 12045 795"/></g><g transform="translate(16589.999933599996 44.99989549999998) rotate(0)"><polygon fill="none" stroke="#231F20" stroke-width="1" points="16500 750 16545 705 16590 750 16545 795"/></g><g transform="translate(18089.999915599998 134.99987750000003) rotate(0)"><polygon fill="none" stroke="#231F20" stroke-width="1" points="15000 750 15045 705 15090 750 15045 795"/></g><g transform="translate(19544.999915599998 179.99987750000003) rotate(0)"><polygon fill="none" stroke="#231F20" stroke-width="1" points="13500 750 13545 705 13590 750 13545 795"/></g><g transform="translate(18884.999933599996 89.99989549999998) rotate(0)"><polygon fill="none" stroke="#231F20" stroke-width="1" points="14250 750 14295 705 14340 750 14295 795"/></g><g transform="translate(27172.5000381 0) rotate(0)"><polygon fill="none" stroke="#231F20" stroke-width="1" points="6000 750 6015 750 6015 772.5 6090 772.5 6090 750 6105 750 6105 787.5 6000 787.5"/></g><g transform="translate(39854.9998556 1762.4998774999992) rotate(180)"><polygon fill="none" stroke="#231F20" stroke-width="1" points="6750 750 6765 750 6765 772.5 6840 772.5 6840 750 6855 750 6855 787.5 6750 787.5"/></g><g transform="translate(25514.9998556 239.99987750000003) rotate(0)"><polygon fill="none" stroke="#231F20" stroke-width="1" points="7500 750 7515 750 7515 772.5 7590 772.5 7590 750 7605 750 7605 787.5 7500 787.5"/></g><g transform="translate(23999.9999226 277.4998774999999) rotate(0)"><polygon fill="none" stroke="#231F20" stroke-width="1" points="9000 750 9015 750 9015 772.5 9090 772.5 9090 750 9105 750 9105 787.5 9000 787.5"/></g><g transform="translate(41354.9999328 1852.499877499999) rotate(180)"><polygon fill="none" stroke="#231F20" stroke-width="1" points="8250 750 8265 750 8265 772.5 8340 772.5 8340 750 8355 750 8355 787.5 8250 787.5"/></g><g transform="translate(30764.999932799998 329.9998774999999) rotate(0)"><polygon fill="none" stroke="#231F20" stroke-width="1" points="2250 750 2265 750 2265 772.5 2340 772.5 2340 750 2355 750 2355 787.5 2250 787.5"/></g><g transform="translate(23250.000058899997 367.4998774999999) rotate(0)"><polygon fill="none" stroke="#231F20" stroke-width="1" points="9750 750 9765 750 9765 772.5 9840 772.5 9840 750 9855 750 9855 787.5 9750 787.5"/></g><g transform="translate(22612.499915599998 202.49987750000003) rotate(0)"><polygon fill="none" stroke="#231F20" stroke-width="1" points="10500 750 10515 750 10515 772.5 10590 772.5 10590 750 10605 750 10605 787.5 10500 787.5"/></g><g transform="translate(33982.4999156 1724.9998775) rotate(180)"><polygon fill="none" stroke="#231F20" stroke-width="1" points="750 750 765 750 765 772.5 840 772.5 840 750 855 750 855 787.5 750 787.5"/></g><g transform="translate(21869.9998556 239.99987750000003) rotate(0)"><polygon fill="none" stroke="#231F20" stroke-width="1" points="11250 750 11265 750 11265 772.5 11340 772.5 11340 750 11355 750 11355 787.5 11250 787.5"/></g><g transform="translate(38459.9999328 1814.9998774999992) rotate(180)"><polygon fill="none" stroke="#231F20" stroke-width="1" points="5250 750 5265 750 5265 772.5 5340 772.5 5340 750 5355 750 5355 787.5 5250 787.5"/></g><g transform="translate(29414.999915599998 149.99987750000003) rotate(0)"><polygon fill="none" stroke="#231F20" stroke-width="1" points="3750 750 3765 750 3765 772.5 3840 772.5 3840 750 3855 750 3855 787.5 3750 787.5"/></g><g transform="translate(34784.9999516 1672.4998775) rotate(180)"><polygon fill="none" stroke="#231F20" stroke-width="1" points="1500 750 1515 750 1515 772.5 1590 772.5 1590 750 1605 750 1605 787.5 1500 787.5"/></g><g transform="translate(30119.999932799998 292.4998774999999) rotate(0)"><polygon fill="none" stroke="#231F20" stroke-width="1" points="3000 750 3015 750 3015 772.5 3090 772.5 3090 750 3105 750 3105 787.5 3000 787.5"/></g><g transform="translate(52020.0000381 1567.4999999999977) rotate(180)"><polygon fill="none" stroke="#231F20" stroke-width="1" points="18750 750 18795 750 18795 735 18802.5 735 18832.5 765 18832.5 780 18810 780 18810 757.5 18765 757.5 18765 780 18750 780"/></g><g transform="translate(37724.9999328 1867.4998774999995) rotate(180)"><polygon fill="none" stroke="#231F20" stroke-width="1" points="4500 750 4515 750 4515 772.5 4590 772.5 4590 750 4605 750 4605 787.5 4500 787.5"/></g><g transform="translate(13709.999951600003 104.99987750000003) rotate(0)"><polygon fill="none" stroke="#231F20" stroke-width="1" points="19500 750 19545 750 19545 735 19552.5 735 19582.5 765 19582.5 780 19560 780 19560 757.5 19515 757.5 19515 780 19500 780"/></g><g transform="translate(50489.9999328 1874.9998774999976) rotate(180)"><polygon fill="none" stroke="#231F20" stroke-width="1" points="17250 750 17295 750 17295 735 17302.5 735 17332.5 765 17332.5 780 17310 780 17310 757.5 17265 757.5 17265 780 17250 780"/></g><g transform="translate(12105.000058899997 375.0000035999999) rotate(0)"><polygon fill="none" stroke="#231F20" stroke-width="1" points="21000 750 21045 750 21045 735 21052.5 735 21082.5 765 21082.5 780 21060 780 21060 757.5 21015 757.5 21015 780 21000 780"/></g><g transform="translate(11444.999932799998 374.9998774999999) rotate(0)"><polygon fill="none" stroke="#231F20" stroke-width="1" points="21750 750 21795 750 21795 735 21802.5 735 21832.5 765 21832.5 780 21810 780 21810 757.5 21765 757.5 21765 780 21750 780"/></g><g transform="translate(749.9999495000011 179.99991139999997) rotate(0)"><polygon fill="none" stroke="#231F20" stroke-width="1" points="32250 750 32265 750 32265 735 32280 735 32280 750 32295 750 32295 765 32280 765 32280 780 32265 780 32265 765 32250 765"/></g><g transform="translate(6974.999855599999 224.99987750000003) rotate(0)"><polygon fill="none" stroke="#231F20" stroke-width="1" points="26250 750 26265 750 26265 735 26280 735 26280 750 26295 750 26295 765 26280 765 26280 780 26265 780 26265 765 26250 765"/></g><g transform="translate(58769.9998556 1784.9998774999967) rotate(180)"><polygon fill="none" stroke="#231F20" stroke-width="1" points="25500 750 25515 750 25515 735 25530 735 25530 750 25545 750 25545 765 25530 765 25530 780 25515 780 25515 765 25500 765"/></g><g transform="translate(5474.999932799998 314.9998774999999) rotate(0)"><polygon fill="none" stroke="#231F20" stroke-width="1" points="27750 750 27765 750 27765 735 27780 735 27780 750 27795 750 27795 765 27780 765 27780 780 27765 780 27765 765 27750 765"/></g><g transform="translate(6255.000074099997 67.5) rotate(0)"><polygon fill="none" stroke="#231F20" stroke-width="1" points="27000 750 27015 750 27015 735 27030 735 27030 750 27045 750 27045 765 27030 765 27030 780 27015 780 27015 765 27000 765"/></g><g transform="translate(9254.999915599998 187.49987750000003) rotate(0)"><polygon fill="none" stroke="#231F20" stroke-width="1" points="24000 750 24015 750 24015 735 24030 735 24030 750 24045 750 24045 765 24030 765 24030 780 24015 780 24015 765 24000 765"/></g><g transform="translate(61792.4999328 1859.9998774999963) rotate(180)"><polygon fill="none" stroke="#231F20" stroke-width="1" points="28500 750 28515 750 28515 735 28530 735 28530 750 28545 750 28545 765 28530 765 28530 780 28515 780 28515 765 28500 765"/></g><g transform="translate(1754.9998555999991 239.99987750000003) rotate(0)"><polygon fill="none" stroke="#231F20" stroke-width="1" points="31500 750 31515 750 31515 735 31530 735 31530 750 31545 750 31545 765 31530 765 31530 780 31515 780 31515 765 31500 765"/></g><g transform="translate(3254.9999327999976 284.9998774999999) rotate(0)"><polygon fill="none" stroke="#231F20" stroke-width="1" points="30000 750 30015 750 30015 735 30030 735 30030 750 30045 750 30045 765 30030 765 30030 780 30015 780 30015 765 30000 765"/></g></g></svg>