<svg xmlns="http://www.w3.org/2000/svg" width="9.375in" height="10.312500000000002in" viewBox="0 0 675 742.5000000000001"><g transform="translate(-27750 -5250)"><g transform="translate(-7468.234437272353 1536.6670653973833) rotate(0)"><polygon fill="none" stroke="#231F20" stroke-width="1" points="35278.3 3766.83 35269.1 3784.2 35229.3 3757.41 35218.2 3736.61 35237 3713.33 35273.2 3717.51"/></g><g transform="translate(28591.5042969 770.5581517) rotate(90)"><polygon fill="none" stroke="#231F20" stroke-width="1" points="4525.1 781.083 4487.86 786.108 4479.44 774.745 4483.32 723.667 4494.79 711.043 4523.25 739.476"/></g><g transform="translate(14312.135231100001 836.6497618000003) rotate(0)"><polygon fill="none" stroke="#231F20" stroke-width="1" points="13536 4513.83 13517.5 4535.42 13485.7 4522.05 13493.7 4496.85 13499.6 4458.95 13526.8 4469.53"/></g><g transform="translate(17373.1069947 2309.9321866000005) rotate(0)"><polygon fill="none" stroke="#231F20" stroke-width="1" points="10531.9 3022.47 10492.5 3026.55 10481.9 3026.9 10464.6 2993.75 10488.3 2977.4 10540.6 2998.44"/></g><g transform="translate(-7346.829450500001 781.6233333) rotate(0)"><polygon fill="none" stroke="#231F20" stroke-width="1" points="35276.4 4527.79 35247.2 4521.4 35213.3 4503.67 35223.9 4487.08 35244.4 4475.74 35289.3 4487.43"/></g><g transform="translate(29362.263367 2369.8945861999996) rotate(90)"><polygon fill="none" stroke="#231F20" stroke-width="1" points="3025.86 1521.09 3004.22 1527.72 2968.35 1507.12 2973.87 1487.8 2988.68 1470.08 3029.92 1478.18"/></g><g transform="translate(30921.9101137 -8136.6573521) rotate(90)"><polygon fill="none" stroke="#231F20" stroke-width="1" points="13525.3 3022.05 13493.2 3030.25 13467.8 3016.16 13471.3 2991.7 13495.2 2978.65 13526.8 2976.32"/></g><g transform="translate(30956.8994888 -9684.7265405) rotate(90)"><polygon fill="none" stroke="#231F20" stroke-width="1" points="15032.4 3013.25 15011 3035.26 14970.1 3016.14 14968.2 2986.66 15004.1 2989.66 15040.9 2994.77"/></g><g transform="translate(30159.0764125 9924.846168299999) rotate(180)"><polygon fill="none" stroke="#231F20" stroke-width="1" points="2277.17 4524.53 2230.86 4535.27 2245.77 4502.25 2231.45 4470.3 2241.36 4463.18 2288.63 4498.06"/></g><g transform="translate(23454.1243963 6163.626967400001) rotate(270)"><polygon fill="none" stroke="#231F20" stroke-width="1" points="770.129 4501.81 751.404 4536.67 725.416 4523.29 727.445 4488.36 735.382 4461.72 780.941 4497.31"/></g><g transform="translate(986.4359678000001 879.4837510999996) rotate(0)"><polygon fill="none" stroke="#231F20" stroke-width="1" points="27013.9 4500.68 27015.4 4530.13 26980.3 4519.84 26975.9 4475.26 26981.8 4463.74 27027.8 4478.31"/></g><g transform="translate(50504.4959213 6069.644790299997) rotate(180)"><polygon fill="none" stroke="#231F20" stroke-width="1" points="22536.7 756.311 22501.1 783.245 22477.6 750.531 22488.1 746.152 22494.5 713.203 22527.4 734.015"/></g><g transform="translate(27199.250109200006 24964.3953678) rotate(270)"><polygon fill="none" stroke="#231F20" stroke-width="1" points="19523.6 782.578 19514.3 783.702 19465.5 771.766 19498 746.802 19497.4 737.256 19524.5 721.815"/></g><g transform="translate(24173.098960600004 14483.741215099999) rotate(270)"><polygon fill="none" stroke="#231F20" stroke-width="1" points="9027.03 3751.84 9008.53 3772.59 8973.73 3779.63 8976.85 3735.3 8995.18 3719.89 9011.92 3729.82"/></g><g transform="translate(32382.6104531 -5026.2219932) rotate(90)"><polygon fill="none" stroke="#231F20" stroke-width="1" points="10532.7 4505.23 10485.5 4538.07 10477.2 4501.9 10470.4 4488.85 10485.9 4467.57 10511.2 4492.82"/></g><g transform="translate(45840.8042546 9164.759852099998) rotate(180)"><polygon fill="none" stroke="#231F20" stroke-width="1" points="18026.8 3752.25 17990.3 3767.46 17963.7 3765.61 17975.2 3717.74 18003.2 3727.56 18019.5 3734.22"/></g><g transform="translate(24058.1852047 139.50324320000072) rotate(0)"><polygon fill="none" stroke="#231F20" stroke-width="1" points="3761.89 5254.21 3753.16 5281.35 3717.43 5260.77 3723.2 5219.53 3738.73 5227.59 3776.37 5233.31"/></g><g transform="translate(-1996.823651300001 3182.6484273) rotate(0)"><polygon fill="none" stroke="#231F20" stroke-width="1" points="30018.1 2267.52 30009.8 2285.16 29979 2272.23 29989.8 2240.12 30009.8 2210.63 30026.9 2223.33"/></g><g transform="translate(22790.5485512 14378.047075500002) rotate(270)"><polygon fill="none" stroke="#231F20" stroke-width="1" points="9013.14 5255.63 8999.2 5276.02 8986.15 5270.24 8976.01 5234.21 8999.45 5210.74 9031.25 5231.56"/></g><g transform="translate(27296.342092100003 23318.9984464) rotate(270)"><polygon fill="none" stroke="#231F20" stroke-width="1" points="18020.7 764.402 18001.2 775.117 17964.3 755.935 17964.6 736.305 18007.7 729.316 18018.6 720.306"/></g><g transform="translate(7081.427691000001 1600.5278904999996) rotate(0)"><polygon fill="none" stroke="#231F20" stroke-width="1" points="21019.6 3751.15 21016.7 3782.63 20960.1 3760.28 20988.8 3743.93 20995 3711.49 21026.8 3747.17"/></g><g transform="translate(46799.4017257 9175.103436999998) rotate(180)"><polygon fill="none" stroke="#231F20" stroke-width="1" points="18768 3771.77 18748.2 3780.52 18723.5 3773.91 18723.8 3747.81 18745.6 3735.36 18777.9 3725.77"/></g><g transform="translate(297.31751520000034 3970.81609) rotate(0)"><polygon fill="none" stroke="#231F20" stroke-width="1" points="27766.5 1508.23 27732.9 1536.29 27736.5 1521.05 27719.3 1489.26 27763.6 1465.04 27774 1488.29"/></g><g transform="translate(7535.832765399999 1590.6045684) rotate(0)"><polygon fill="none" stroke="#231F20" stroke-width="1" points="20262.3 3766.58 20256.2 3764.57 20219.1 3769.75 20216.5 3728.12 20239.6 3713.14 20258.9 3735.34"/></g><g transform="translate(26495.709866000005 28771.8575437) rotate(270)"><polygon fill="none" stroke="#231F20" stroke-width="1" points="23274 1533.27 23242.3 1537.53 23242.8 1504.59 23232.2 1489.8 23249.6 1470.43 23269.8 1478.4"/></g><g transform="translate(21937.9306149 286.0947000999995) rotate(0)"><polygon fill="none" stroke="#231F20" stroke-width="1" points="6021.58 5259.39 6005.65 5271.79 5981.67 5261.53 5971.38 5227.42 5999.55 5222.84 6029.52 5231.52"/></g><g transform="translate(64096.2177085 6909.077262599995) rotate(180)"><polygon fill="none" stroke="#231F20" stroke-width="1" points="36021.6 1510.03 35985.4 1534.54 35968.7 1513.75 35972.1 1499.07 36006.4 1462.58 36009 1489.82"/></g><g transform="translate(25085.815142900003 27225.2372839) rotate(270)"><polygon fill="none" stroke="#231F20" stroke-width="1" points="21764.7 3022.62 21740.2 3020.39 21727.3 3021.77 21725.8 2993.21 21752 2987.45 21788 2985.84"/></g><g transform="translate(32561.169923700003 10779.0071627) rotate(180)"><polygon fill="none" stroke="#231F20" stroke-width="1" points="4519.7 5254.8 4509.71 5289.62 4464.67 5266.14 4461.46 5242.45 4498.88 5245.27 4513.92 5249.28"/></g><g transform="translate(28791.7276375 -26701.7127316) rotate(90)"><polygon fill="none" stroke="#231F20" stroke-width="1" points="32269.3 775.179 32240.2 781.739 32230.9 751.655 32231.9 744.777 32240.9 732.579 32272.8 725.86"/></g><g transform="translate(24242.204580300007 36320.9027461) rotate(270)"><polygon fill="none" stroke="#231F20" stroke-width="1" points="30784.8 3758.14 30752.7 3774.65 30726 3759.39 30730.6 3729.96 30751.6 3738.7 30776.9 3724.85"/></g><g transform="translate(36295.5905164 9334.4462594) rotate(180)"><polygon fill="none" stroke="#231F20" stroke-width="1" points="8278.69 3766.85 8251.92 3756.17 8240.88 3760.48 8217.79 3744.28 8235.98 3716.32 8280.9 3737.15"/></g><g transform="translate(25850.244590600003 31819.145617000002) rotate(270)"><polygon fill="none" stroke="#231F20" stroke-width="1" points="26273.2 2263.39 26258.3 2278.39 26228.1 2270.06 26244.3 2246.46 26238.6 2213.8 26282.6 2238.16"/></g><g transform="translate(20598.5457288 4111.8030802) rotate(0)"><polygon fill="none" stroke="#231F20" stroke-width="1" points="7525.86 1530.12 7496.97 1518.71 7489.27 1513.83 7480.43 1470.64 7486.28 1469.25 7513.01 1478.45"/></g><g transform="translate(39375.6296894 6263.946912099998) rotate(180)"><polygon fill="none" stroke="#231F20" stroke-width="1" points="11283.6 763.756 11255.6 764.362 11228.2 782.601 11237.7 744.65 11252.3 714.176 11269.5 723.673"/></g><g transform="translate(-1124.8297636999996 3939.3383089) rotate(0)"><polygon fill="none" stroke="#231F20" stroke-width="1" points="29266.6 1514.31 29263 1528.71 29218.6 1510.69 29235.5 1488.28 29246.5 1474.34 29274.8 1479.93"/></g><g transform="translate(46883.554994599996 8352.401886299998) rotate(180)"><polygon fill="none" stroke="#231F20" stroke-width="1" points="18762.6 3006.55 18752.9 3025.13 18733.2 3014.16 18721.8 2990.83 18764.2 2967.55 18783.5 2990.93"/></g><g transform="translate(25587.375905300007 39957.0154201) rotate(270)"><polygon fill="none" stroke="#231F20" stroke-width="1" points="34515.1 2263.78 34499.9 2255.6 34471.7 2275.31 34466.7 2233.55 34501.7 2215.19 34512.9 2231.52"/></g><g transform="translate(31542.2149597 5430.6256115) rotate(90)"><polygon fill="none" stroke="#231F20" stroke-width="1" points="30.8048 3776.25 4.90228 3762.6 -22.3192 3784.65 -14.7895 3739.58 9.34749 3709.88 20.3403 3745.82"/></g><g transform="translate(19610.151954 3267.9085048) rotate(0)"><polygon fill="none" stroke="#231F20" stroke-width="1" points="8257.94 2261.34 8254 2268.96 8218.46 2273.83 8234.11 2227.01 8236.89 2221.52 8284.71 2249.27"/></g><g transform="translate(60029.6241481 9974.500954499996) rotate(180)"><polygon fill="none" stroke="#231F20" stroke-width="1" points="32275.2 4503.3 32250.3 4514.84 32229.9 4521.26 32223.7 4487.28 32253.7 4463.06 32265.2 4488.82"/></g><g transform="translate(46655.1068047 6295.376106999998) rotate(180)"><polygon fill="none" stroke="#231F20" stroke-width="1" points="18778.2 762.115 18747.8 789.366 18738.3 752.418 18734.4 735.562 18752.5 732.012 18789.6 741.447"/></g><g transform="translate(21804.716843 4767.1895209) rotate(0)"><polygon fill="none" stroke="#231F20" stroke-width="1" points="6023.81 780.83 6011.25 771.793 5977.48 771.576 5974.86 741.316 6014.28 719.427 6014.39 735.993"/></g><g transform="translate(57928.984696700005 6326.845214799996) rotate(180)"><polygon fill="none" stroke="#231F20" stroke-width="1" points="30009.9 759.288 30003.9 776.855 29961.7 753.359 29980.7 730.247 29992.4 733.28 30031.7 724.838"/></g><g transform="translate(23383.43920060001 39328.4788216) rotate(270)"><polygon fill="none" stroke="#231F20" stroke-width="1" points="33764.2 4512.01 33763.6 4536.55 33734.3 4513.43 33737.7 4493.53 33741.4 4470.67 33778 4472.04"/></g><g transform="translate(-2754.0343259 1117.7279959999996) rotate(0)"><polygon fill="none" stroke="#231F20" stroke-width="1" points="30767.8 4527.06 30758.9 4519.76 30709.9 4507.36 30742.6 4495.08 30750.1 4476.31 30787.1 4488.08"/></g><g transform="translate(59569.685379 7136.095288699996) rotate(180)"><polygon fill="none" stroke="#231F20" stroke-width="1" points="31519.1 1516.56 31490.7 1521 31488.7 1512.36 31472.5 1489.3 31508.1 1471.47 31527 1485.49"/></g><g transform="translate(13684.587442799999 2605.7408812999997) rotate(0)"><polygon fill="none" stroke="#231F20" stroke-width="1" points="14283.5 3005.63 14259 3033.24 14223.2 3027.16 14241.6 2992.49 14248.6 2996.02 14280.7 2985.06"/></g><g transform="translate(31577.532828899995 -20681.6715529) rotate(90)"><polygon fill="none" stroke="#231F20" stroke-width="1" points="26288.9 3752.89 26254.5 3771.54 26220.6 3770.94 26234.6 3741.6 26255.4 3722.92 26278.7 3749.4"/></g><g transform="translate(30870.272323699995 -25877.6942541) rotate(90)"><polygon fill="none" stroke="#231F20" stroke-width="1" points="31519.4 3018.43 31501.8 3028.99 31481.1 3013 31468.9 2991.38 31483.5 2966.55 31514.5 2995.88"/></g><g transform="translate(63269.3588912 6413.513718499996) rotate(180)"><polygon fill="none" stroke="#231F20" stroke-width="1" points="35271.5 768.62 35242.3 768.818 35227.1 780.585 35226 734.98 35249.9 739.175 35288.8 740.211"/></g><g transform="translate(3199.2653917999996 4902.1979387) rotate(0)"><polygon fill="none" stroke="#231F20" stroke-width="1" points="24778.2 752.432 24766.2 786.988 24736 767.742 24738.4 738.687 24749.9 735.198 24772.2 729.86"/></g><g transform="translate(25663.734834500003 27408.7900381) rotate(270)"><polygon fill="none" stroke="#231F20" stroke-width="1" points="21765.8 2273.78 21750.5 2254.58 21719.5 2268.78 21736.1 2228.97 21733 2220.3 21780 2231.9"/></g><g transform="translate(24358.749438400002 15798.548748199999) rotate(270)"><polygon fill="none" stroke="#231F20" stroke-width="1" points="10504.2 3756.29 10499.9 3760.68 10462.4 3764.19 10470.2 3747.49 10492 3712.15 10519.6 3739.65"/></g><g transform="translate(28892.120379 -21686.9602148) rotate(90)"><polygon fill="none" stroke="#231F20" stroke-width="1" points="27014.6 766.644 26998.5 770.526 26963.1 760.867 26964.2 749.779 26999.8 719.43 27012.8 738.301"/></g><g transform="translate(43070.7319995 7180.866118699998) rotate(180)"><polygon fill="none" stroke="#231F20" stroke-width="1" points="15023.9 1521.74 14998.3 1512.18 14973 1525.02 14991.2 1494.7 15001.4 1473.31 15031.6 1479.04"/></g><g transform="translate(40763.2503853 9451.988010999998) rotate(180)"><polygon fill="none" stroke="#231F20" stroke-width="1" points="12770.6 3752.3 12748.3 3777.77 12724.6 3755.01 12723.9 3748.76 12766.2 3716 12772.3 3715.87"/></g><g transform="translate(15209.2367701 2709.4125513) rotate(0)"><polygon fill="none" stroke="#231F20" stroke-width="1" points="12782.1 3018.59 12747.9 3029.39 12745.4 3006.18 12723 2986.75 12739.2 2977.55 12767 2981.18"/></g><g transform="translate(24263.512918700006 32746.2811965) rotate(270)"><polygon fill="none" stroke="#231F20" stroke-width="1" points="27030.7 3759.87 27006.3 3778.09 26969 3758.18 26988.8 3736.21 27013.7 3715.3 27003.7 3746.9"/></g><g transform="translate(27319.7117446 493.1543365999996) rotate(0)"><polygon fill="none" stroke="#231F20" stroke-width="1" points="759.897 5254.45 740.759 5274.89 719.675 5251.51 727.535 5249.29 736.185 5211.85 774.816 5238.53"/></g><g transform="translate(25102.6863003 13952.0590015) rotate(270)"><polygon fill="none" stroke="#231F20" stroke-width="1" points="8277.54 3019.97 8255.55 3024.96 8242.26 3002.95 8225.17 2984.9 8243.93 2966.17 8268.37 2988.08"/></g><g transform="translate(-4955.348611699999 3780.5330656999995) rotate(0)"><polygon fill="none" stroke="#231F20" stroke-width="1" points="33034.9 1515.49 33005.3 1513.49 32967 1517.34 32976.6 1471.96 33001.7 1488.56 33010.6 1499.38"/></g><g transform="translate(40659.6585505 6446.128410399999) rotate(180)"><polygon fill="none" stroke="#231F20" stroke-width="1" points="12767.5 767.508 12745.4 762.726 12738.8 760.1 12720.1 742.002 12736.5 719.69 12774.9 739.189"/></g><g transform="translate(33195.2692552 475.14545240000007) rotate(90)"><polygon fill="none" stroke="#231F20" stroke-width="1" points="5287.98 5263.4 5259.63 5283.19 5236.05 5251.85 5240.49 5241.05 5253.74 5242.09 5281.94 5230.89"/></g><g transform="translate(25098.346580700007 40521.1752831) rotate(270)"><polygon fill="none" stroke="#231F20" stroke-width="1" points="35268.2 3016.89 35259.6 3034.41 35219.1 3025.82 35246.7 2996.35 35246.3 2962.35 35263.2 2983.79"/></g><g transform="translate(33978.385284100004 7275.0073729) rotate(180)"><polygon fill="none" stroke="#231F20" stroke-width="1" points="6013.02 1520.94 5988.61 1527.9 5972.16 1509.29 5987.35 1493.89 5993.85 1487.17 6028.47 1473.5"/></g><g transform="translate(-4253.6235375 2276.3227373) rotate(0)"><polygon fill="none" stroke="#231F20" stroke-width="1" points="32264.5 3008.29 32247.8 3012.26 32224.9 3029.88 32225.2 2984.2 32248.8 2977.52 32273.9 2980.6"/></g><g transform="translate(34748.9348355 8052.600784499999) rotate(180)"><polygon fill="none" stroke="#231F20" stroke-width="1" points="6757.13 2252.52 6752.35 2277.05 6713.81 2268.88 6737.71 2243.37 6735.59 2212.11 6764.6 2230.6"/></g><g transform="translate(25789.812052 2034.5976218) rotate(0)"><polygon fill="none" stroke="#231F20" stroke-width="1" points="2278.38 3762.2 2232.76 3784.91 2244.85 3757.43 2246.01 3748 2257.11 3727 2281.4 3741.05"/></g><g transform="translate(44600.8403924 7279.895673599997) rotate(180)"><polygon fill="none" stroke="#231F20" stroke-width="1" points="16532.7 1520.03 16499.4 1523.07 16486.4 1510.52 16496 1498.41 16493.9 1488.31 16522.8 1469.47"/></g><g transform="translate(13069.1292388 2079.4146496999997) rotate(0)"><polygon fill="none" stroke="#231F20" stroke-width="1" points="15015.8 3756.44 14997.4 3774.33 14977.9 3767.91 14974.8 3743.29 15001.4 3714.88 15013.5 3741.11"/></g><g transform="translate(26641.9723464 890.7591097999994) rotate(0)"><polygon fill="none" stroke="#231F20" stroke-width="1" points="1520.12 4531.88 1515.7 4534.52 1486.38 4511.52 1495.93 4496.69 1505.72 4478.52 1534.37 4488.31"/></g><g transform="translate(30115.534459999995 -23593.3197489) rotate(90)"><polygon fill="none" stroke="#231F20" stroke-width="1" points="29267.7 2252.6 29248.9 2281.95 29236.1 2272.65 29232.3 2241.08 29243.3 2225.13 29289.9 2247.22"/></g><g transform="translate(50527.630175700004 10347.893014799996) rotate(180)"><polygon fill="none" stroke="#231F20" stroke-width="1" points="22540.2 4508.03 22496.3 4506.97 22488.8 4515.27 22467.7 4477.44 22493.4 4474.96 22511.6 4480.01"/></g><g transform="translate(12416.5748035 2280.1210706) rotate(0)"><polygon fill="none" stroke="#231F20" stroke-width="1" points="15775.3 3026.2 15752.1 3023.19 15746.3 3005.17 15713.8 2992.45 15752.2 2970.28 15765.7 2989.79"/></g><g transform="translate(28896.2555938 -3432.9021134000004) rotate(90)"><polygon fill="none" stroke="#231F20" stroke-width="1" points="9029.91 768.536 8999.83 767.951 8969.83 763.153 8960.49 740.69 9001.94 736.44 9005.83 744.554"/></g><g transform="translate(7890.2874515 1126.2543016) rotate(0)"><polygon fill="none" stroke="#231F20" stroke-width="1" points="20263 4502.96 20242.4 4529.75 20239.1 4513.09 20225.8 4472.65 20247 4476.83 20271.2 4484.99"/></g><g transform="translate(420.3577446999989 1601.4432540999996) rotate(0)"><polygon fill="none" stroke="#231F20" stroke-width="1" points="27773.8 3780.84 27752.8 3775.43 27742.1 3761.97 27727.4 3725.99 27757 3718.18 27760.4 3733.68"/></g><g transform="translate(29666.442717299997 -11789.4361357) rotate(90)"><polygon fill="none" stroke="#231F20" stroke-width="1" points="17281.5 1517.13 17241.9 1523.98 17221.7 1504.58 17235.8 1487.48 17247.8 1488.06 17270 1490.13"/></g><g transform="translate(371.20930800000133 3480.1200636999997) rotate(0)"><polygon fill="none" stroke="#231F20" stroke-width="1" points="27755.6 2255.14 27752.5 2285.03 27729.2 2255.18 27718 2245.51 27740.7 2229.91 27777.2 2221.36"/></g><g transform="translate(29668.360815599997 -19995.1416445) rotate(90)"><polygon fill="none" stroke="#231F20" stroke-width="1" points="25524.4 1523.24 25514.5 1530.53 25485.5 1511.88 25476.3 1467.73 25502.2 1486.37 25520.1 1495.74"/></g><g transform="translate(-6344.580204099999 1172.6787580999999) rotate(0)"><polygon fill="none" stroke="#231F20" stroke-width="1" points="34507.8 4502.78 34500.1 4511.84 34475.8 4530.95 34466.1 4498.15 34489.6 4479.8 34522.7 4483.67"/></g><g transform="translate(34915.2452817 8587.103385699998) rotate(180)"><polygon fill="none" stroke="#231F20" stroke-width="1" points="6757.68 3001.49 6754.13 3027.63 6712.71 3006.45 6733.32 2991.9 6748.44 2978.87 6785.14 2985.43"/></g><g transform="translate(25931.63987120001 40801.2834335) rotate(270)"><polygon fill="none" stroke="#231F20" stroke-width="1" points="35265.8 2258.89 35257.4 2265.01 35224.2 2280.8 35242.2 2237.1 35242.5 2232.09 35273.7 2223.93"/></g><g transform="translate(28931.9101976 -23816.069545899998) rotate(90)"><polygon fill="none" stroke="#231F20" stroke-width="1" points="29261.5 753.341 29242 774.27 29228.8 756.378 29234.9 744.44 29254.3 709.747 29276.4 746.76"/></g><g transform="translate(30457.6946849 -6590.3826611) rotate(90)"><polygon fill="none" stroke="#231F20" stroke-width="1" points="12012.1 2264.15 11992.1 2282.83 11972 2262.87 11986.6 2239.49 12002.8 2237.83 12026.8 2229.79"/></g><g transform="translate(28957.4928253 -11763.6255153) rotate(90)"><polygon fill="none" stroke="#231F20" stroke-width="1" points="17288.6 756.356 17247.2 756.371 17218.5 762.179 17234.3 731.202 17252.9 729.632 17264.8 725.34"/></g><g transform="translate(4172.6058299 3379.85018) rotate(0)"><polygon fill="none" stroke="#231F20" stroke-width="1" points="24017.9 2271.19 24011.6 2281.09 23977.2 2254.88 23984.3 2245.95 23996.1 2231.74 24025.9 2234.17"/></g><g transform="translate(29727.5648311 4770.882738400001) rotate(90)"><polygon fill="none" stroke="#231F20" stroke-width="1" points="777.947 1528.11 757.725 1533.67 743.793 1503.1 727.931 1473.77 740.935 1474.68 764.777 1485.51"/></g><g transform="translate(26748.214445499998 10706.973809) rotate(270)"><polygon fill="none" stroke="#231F20" stroke-width="1" points="5261.24 1514.73 5252.69 1506.22 5228.65 1506.2 5230.29 1484.82 5243.07 1470.57 5284.36 1484.29"/></g><g transform="translate(5719.312646399998 2360.2460939000002) rotate(0)"><polygon fill="none" stroke="#231F20" stroke-width="1" points="22520.6 3027.99 22504.9 3020.22 22474.7 3021.4 22476.4 2998.83 22498.5 2966.6 22509.6 2997.35"/></g><g transform="translate(28953.110433899998 -30404.8587735) rotate(90)"><polygon fill="none" stroke="#231F20" stroke-width="1" points="36015.3 763.174 36014.4 775.773 35994 757.424 35985.2 748.403 35993.8 715.212 36024.2 729.412"/></g><g transform="translate(25234.6976436 7059.604296) rotate(270)"><polygon fill="none" stroke="#231F20" stroke-width="1" points="1512.08 3000.07 1508.08 3036.88 1477.23 3019.87 1487.56 2996.42 1510.77 2964.75 1511.98 2990.52"/></g><g transform="translate(29014.6029959 -14759.411986) rotate(90)"><polygon fill="none" stroke="#231F20" stroke-width="1" points="20256.5 760.341 20239.7 778.847 20237.2 754.667 20230.6 749.315 20262.9 715.126 20281.9 737.684"/></g><g transform="translate(26762.262587200003 19676.2672321) rotate(270)"><polygon fill="none" stroke="#231F20" stroke-width="1" points="14285 1505.39 14249.9 1504.71 14224 1503.87 14241 1498.2 14257.7 1461.33 14285.6 1481.13"/></g><g transform="translate(64297.0911297 9198.737318999996) rotate(180)"><polygon fill="none" stroke="#231F20" stroke-width="1" points="36018.6 3756.15 35994.4 3760.87 35984.8 3750.29 35987.9 3737.68 36016.7 3713.31 36036.6 3740.17"/></g><g transform="translate(1670.9696804000014 4272.9938360999995) rotate(0)"><polygon fill="none" stroke="#231F20" stroke-width="1" points="26271.5 1507.91 26244.9 1512.56 26229.1 1521.3 26214.8 1484.17 26253.7 1488.07 26288.9 1498.09"/></g><g transform="translate(30903.328331699995 -30264.7933747) rotate(90)"><polygon fill="none" stroke="#231F20" stroke-width="1" points="36019.7 3005.02 35998.3 3031.46 35971.4 3019.14 35985.9 2992.58 35996.6 2993.07 36021 2977.95"/></g><g transform="translate(30201.6423633 -1685.1483653000005) rotate(90)"><polygon fill="none" stroke="#231F20" stroke-width="1" points="7525.61 2270.84 7490.1 2268.02 7487.02 2257.22 7488.95 2234.81 7503.26 2216.28 7511.15 2233.05"/></g><g transform="translate(33981.0640565 9602.144286699999) rotate(180)"><polygon fill="none" stroke="#231F20" stroke-width="1" points="6016.75 3774.5 5998.1 3767.18 5987.42 3755.39 5988.6 3735.43 5996.14 3728.57 6035.79 3741.42"/></g><g transform="translate(22996.3894684 1604.1432266000002) rotate(0)"><polygon fill="none" stroke="#231F20" stroke-width="1" points="5260.85 3757.13 5269.21 3783.43 5235.74 3762.37 5227.82 3719.94 5251.11 3719.84 5253.18 3745.57"/></g><g transform="translate(30463.055195099998 -30696.3379865) rotate(90)"><polygon fill="none" stroke="#231F20" stroke-width="1" points="36010.6 2262.08 35995.3 2270.7 35983.6 2268.77 35978.8 2230.64 35994 2226.28 36029.2 2249.3"/></g><g transform="translate(24536.052430500004 27167.3842355) rotate(270)"><polygon fill="none" stroke="#231F20" stroke-width="1" points="21773.1 3772.37 21745.6 3770.09 21726.8 3777.84 21737 3735.41 21759.3 3731.38 21765.3 3739.99"/></g><g transform="translate(24537.1779429 12114.3033211) rotate(270)"><polygon fill="none" stroke="#231F20" stroke-width="1" points="6769.3 3762.68 6746.57 3759.21 6718.08 3763 6732.08 3728.69 6754.66 3727.19 6772.82 3746.96"/></g><g transform="translate(29768.554722599998 -24670.7254839) rotate(90)"><polygon fill="none" stroke="#231F20" stroke-width="1" points="30030.3 1508.99 29990.8 1522.38 29988.4 1504.43 29973.9 1480.9 29988.6 1476.29 30014.4 1486.83"/></g><g transform="translate(29766.9526453 -1469.0468039999996) rotate(90)"><polygon fill="none" stroke="#231F20" stroke-width="1" points="6756.48 1500.11 6750.85 1531.82 6719.05 1520.52 6736.81 1489.89 6748.37 1484.4 6773.99 1474.06"/></g><g transform="translate(33252.6417969 8884.075426399999) rotate(180)"><polygon fill="none" stroke="#231F20" stroke-width="1" points="5265.38 3001.47 5256.13 3029.74 5232.05 3013 5225.98 2979.02 5247.79 2986.51 5277.06 2984.93"/></g><g transform="translate(53814.5062769 9070.824515799997) rotate(180)"><polygon fill="none" stroke="#231F20" stroke-width="1" points="25503.5 3752.57 25506.6 3772.81 25472.6 3770.14 25469.2 3726.61 25499.8 3742.71 25532.2 3728.54"/></g><g transform="translate(14822.743441800001 3848.1094665) rotate(0)"><polygon fill="none" stroke="#231F20" stroke-width="1" points="13520.4 1518.74 13510.8 1533.12 13492.1 1511.16 13477 1497.61 13494.7 1486.11 13531.8 1499.44"/></g><g transform="translate(32087.4698917 7644.080489999999) rotate(180)"><polygon fill="none" stroke="#231F20" stroke-width="1" points="3787.49 2266.09 3751.44 2260.14 3721.87 2269.96 3745.08 2242.02 3750.63 2229.65 3766.34 2225.41"/></g><g transform="translate(52313.8622813 8286.333555899997) rotate(180)"><polygon fill="none" stroke="#231F20" stroke-width="1" points="24030.9 3006.39 24013 3025.52 23964.2 3019.68 23994.3 2999.96 23994.3 2987.4 24024.1 2995.97"/></g><g transform="translate(17105.8143806 3799.0363056999995) rotate(0)"><polygon fill="none" stroke="#231F20" stroke-width="1" points="11259 1505.12 11249.7 1526.72 11245.9 1505.6 11215.8 1493.51 11237.8 1471.57 11267.4 1478.05"/></g><g transform="translate(39580.365829200004 9195.265304899998) rotate(180)"><polygon fill="none" stroke="#231F20" stroke-width="1" points="11273.8 3772.37 11243.2 3780.92 11218.5 3775.64 11237.6 3748.29 11245.9 3741.1 11256.6 3740.35"/></g><g transform="translate(32866.520835899995 840.1508262999996) rotate(90)"><polygon fill="none" stroke="#231F20" stroke-width="1" points="4531.42 4508.39 4500.7 4512.91 4481.17 4507.47 4493.94 4493.47 4502.27 4472.86 4526.04 4475.45"/></g><g transform="translate(38139.784138 6774.047440199999) rotate(180)"><polygon fill="none" stroke="#231F20" stroke-width="1" points="9776.23 1513.01 9749.15 1523.48 9741.01 1507.09 9714.78 1498.85 9762.18 1472.29 9759.07 1488.01"/></g><g transform="translate(22694.2078274 7381.562008100002) rotate(270)"><polygon fill="none" stroke="#231F20" stroke-width="1" points="1516 5266 1491.24 5287.61 1492.51 5254.19 1482.52 5247.45 1504.47 5228.13 1523.42 5228.49"/></g><g transform="translate(29900.5634368 -13422.0984317) rotate(90)"><polygon fill="none" stroke="#231F20" stroke-width="1" points="18757.9 1505.4 18750.1 1534.18 18735.2 1524.88 18709.9 1497.97 18751.1 1490.72 18774.6 1493.17"/></g><g transform="translate(26420.1879375 7302.4644346000005) rotate(270)"><polygon fill="none" stroke="#231F20" stroke-width="1" points="1513.61 1513.15 1502.15 1509 1493.37 1509.53 1462.36 1486.39 1507.37 1463.87 1509.09 1498.22"/></g><g transform="translate(24827.830317800006 40113.4274822) rotate(270)"><polygon fill="none" stroke="#231F20" stroke-width="1" points="34516.3 3013.57 34494.1 3011.41 34471.4 3021.28 34473.9 2985.56 34493.9 2962.36 34502.8 2995.78"/></g><g transform="translate(29368.9507348 7958.6135224) rotate(180)"><polygon fill="none" stroke="#231F20" stroke-width="1" points="1521.59 2277.79 1496.64 2258.98 1478.7 2272.73 1494.45 2249.34 1506.99 2213.54 1520.89 2216.3"/></g><g transform="translate(24469.8948916 1521.8048033999999) rotate(0)"><polygon fill="none" stroke="#231F20" stroke-width="1" points="3760.58 3760.08 3753.91 3761.08 3727.95 3759.49 3719.37 3732.89 3746.86 3730.94 3772.96 3738.28"/></g><g transform="translate(24805.334126800004 32600.5909896) rotate(270)"><polygon fill="none" stroke="#231F20" stroke-width="1" points="27013.7 3007.5 27002.9 3011.18 26987.9 3010.33 26988.8 2983.15 26998.4 2960.67 27030.8 2999.04"/></g><g transform="translate(27772.0916688 3305.4039092000003) rotate(0)"><polygon fill="none" stroke="#231F20" stroke-width="1" points="16.6119 2259.27 4.33957 2283.36 -10.4699 2254.39 -14.2869 2231.67 3.29924 2231.18 34.3691 2241.15"/></g><g transform="translate(37571.8306304 10169.2777231) rotate(180)"><polygon fill="none" stroke="#231F20" stroke-width="1" points="9768.38 4511.4 9755.12 4513.12 9729.93 4500.74 9716.32 4499.62 9735.79 4472.96 9770.6 4488.93"/></g><g transform="translate(23373.824236300003 32023.4280732) rotate(270)"><polygon fill="none" stroke="#231F20" stroke-width="1" points="26280 4504.69 26253.2 4514.68 26237.3 4502.66 26224.2 4486.47 26251.1 4489.65 26277 4474.99"/></g><g transform="translate(53323.1928224 8732.400314099998) rotate(180)"><polygon fill="none" stroke="#231F20" stroke-width="1" points="25524.8 3017.53 25491.7 3038.18 25475.4 3011.61 25494.4 2997.13 25506.7 2986.82 25506.5 2992.76"/></g><g transform="translate(33779.720952 10137.1298256) rotate(180)"><polygon fill="none" stroke="#231F20" stroke-width="1" points="6003.97 4503.36 6003.12 4512.69 5975.13 4505.15 5973.02 4483.76 5989.99 4460.22 6011.33 4490.5"/></g><g transform="translate(5506.413008899999 1734.6727015000001) rotate(0)"><polygon fill="none" stroke="#231F20" stroke-width="1" points="22525.3 3762.02 22497.2 3755.77 22471.5 3761.02 22471.4 3744.35 22487.1 3726.06 22516.3 3736.7"/></g><g transform="translate(33146.8022084 -1658.6178002999995) rotate(90)"><polygon fill="none" stroke="#231F20" stroke-width="1" points="7518.24 5260.59 7512.28 5283.96 7478.05 5260.11 7490.1 5248.35 7498.44 5243.62 7514.52 5229.41"/></g><g transform="translate(31588.2248531 2751.9510144999995) rotate(90)"><polygon fill="none" stroke="#231F20" stroke-width="1" points="3025.42 3756.16 3003.68 3783.52 2990.07 3761.71 2972.69 3745.27 3000.61 3737.76 3023.95 3744.76"/></g><g transform="translate(26348.769606700007 39561.7359471) rotate(270)"><polygon fill="none" stroke="#231F20" stroke-width="1" points="33786.9 1510.97 33750.2 1507.24 33736 1501.75 33728.8 1489.27 33750.1 1477.41 33788.5 1495.96"/></g><g transform="translate(24145.071837400003 23143.1631305) rotate(270)"><polygon fill="none" stroke="#231F20" stroke-width="1" points="17284.8 3771.64 17256.4 3780.17 17240.3 3761.04 17239.9 3745.34 17255.3 3716.45 17260.4 3746.49"/></g><g transform="translate(31541.822871 8690.4471329) rotate(180)"><polygon fill="none" stroke="#231F20" stroke-width="1" points="3762.15 3017.33 3752.35 3010.85 3740.59 3009.19 3722.81 2988.45 3765.69 2965.07 3763.59 2998.02"/></g><g transform="translate(31603.224883899995 -18124.2858816) rotate(90)"><polygon fill="none" stroke="#231F20" stroke-width="1" points="24018.5 3761.29 24004.5 3777.93 23993.1 3761.15 23980.9 3739.93 24007.5 3713.93 24010.8 3747.59"/></g><g transform="translate(28570.582464199997 -27956.768920900002) rotate(90)"><polygon fill="none" stroke="#231F20" stroke-width="1" points="33787.9 754.652 33759.9 773.169 33734.7 766.086 33727.5 746.901 33750.8 745.647 33784.8 746.189"/></g><g transform="translate(24065.390901000002 29101.889683499998) rotate(270)"><polygon fill="none" stroke="#231F20" stroke-width="1" points="23269.8 3774.32 23255.5 3774.16 23233.4 3771.34 23222.4 3743.8 23250.5 3735.01 23256 3746.69"/></g><g transform="translate(30795.2098861 1251.3729523000002) rotate(90)"><polygon fill="none" stroke="#231F20" stroke-width="1" points="4515.32 3013.54 4485.85 3036.95 4478.5 3005.99 4496.01 2995.73 4500.11 2991.87 4524.05 2984.01"/></g><g transform="translate(30786.508603899998 -24191.584568500002) rotate(90)"><polygon fill="none" stroke="#231F20" stroke-width="1" points="30016.7 3004.03 29995.9 3033.49 29987.4 3016.42 29965.5 2980.38 29997 2993.09 30009.1 2984.57"/></g><g transform="translate(33785.257227099995 8101.955221099999) rotate(180)"><polygon fill="none" stroke="#231F20" stroke-width="1" points="6021.21 2267.21 6011.63 2281.4 5986.59 2268.51 5984.45 2246.34 6003.66 2211.31 6005.24 2248.33"/></g><g transform="translate(-5190.628103800002 2142.7925226) rotate(0)"><polygon fill="none" stroke="#231F20" stroke-width="1" points="33010 3760.33 33001.5 3772.72 32977.6 3769.86 32973.5 3745.43 33001.8 3738.09 33026 3745.87"/></g><g transform="translate(23679.581762400005 31179.1290466) rotate(270)"><polygon fill="none" stroke="#231F20" stroke-width="1" points="25514.3 4510.41 25502 4510.61 25493.6 4506.82 25468.3 4480.73 25480.9 4465.83 25512.6 4491.34"/></g><g transform="translate(29817.3265551 3228.1780931999997) rotate(90)"><polygon fill="none" stroke="#231F20" stroke-width="1" points="2284.01 1509.28 2256.6 1536.19 2243.73 1500.39 2236.74 1484.24 2259.33 1467.17 2254.84 1498.85"/></g><g transform="translate(29128.3215628 7654.0668045) rotate(180)"><polygon fill="none" stroke="#231F20" stroke-width="1" points="780.656 2254.81 757.079 2268 744.95 2253.96 733.704 2243.02 736.725 2224.19 771.34 2236.14"/></g><g transform="translate(25281.2876532 14531.427816899999) rotate(270)"><polygon fill="none" stroke="#231F20" stroke-width="1" points="9018.04 3016.32 8997.95 3017.66 8970.71 3026.41 8984.98 2984.36 8991.84 2983.67 9010.74 2997.81"/></g><g transform="translate(16962.7620799 2648.7779144000006) rotate(0)"><polygon fill="none" stroke="#231F20" stroke-width="1" points="11264.5 3008.31 11243.7 3013.02 11244.2 3002.66 11230.4 2999.7 11235.7 2965.24 11276.9 2995"/></g><g transform="translate(30661.5296331 7627.6858077) rotate(180)"><polygon fill="none" stroke="#231F20" stroke-width="1" points="2283.49 2259.37 2251.85 2254.01 2241.53 2255.06 2243.6 2246.56 2248 2221.29 2288.89 2240.12"/></g><g transform="translate(12603.6499477 1713.2373196999997) rotate(0)"><polygon fill="none" stroke="#231F20" stroke-width="1" points="15761.2 3764.83 15753.8 3763.88 15737 3751.92 15723.3 3749.6 15751.9 3720.9 15772.5 3744.35"/></g><g transform="translate(51119.2198163 8156.227214699997) rotate(180)"><polygon fill="none" stroke="#231F20" stroke-width="1" points="23268.8 2266.78 23257.4 2268.22 23242.2 2257.78 23226 2246.07 23247.9 2240.98 23285.2 2239.16"/></g><g transform="translate(30510.1278629 -10150.9238785) rotate(90)"><polygon fill="none" stroke="#231F20" stroke-width="1" points="15766.7 2258.59 15746.6 2273.97 15737.3 2271.56 15727.8 2233.24 15752.7 2233.54 15770.3 2246.16"/></g><g transform="translate(30413.5298124 -19775.1814811) rotate(90)"><polygon fill="none" stroke="#231F20" stroke-width="1" points="25515.3 2272.75 25505.5 2263.91 25479.9 2267.16 25494.1 2247.28 25503.3 2222.3 25523 2218.92"/></g><g transform="translate(29627.571593599998 -29458.0423147) rotate(90)"><polygon fill="none" stroke="#231F20" stroke-width="1" points="35272.9 1505.35 35249.6 1520.67 35225.2 1509.09 35217.5 1481.42 35252.4 1488.64 35253.8 1495.58"/></g><g transform="translate(46196.395154800004 7202.988467699997) rotate(180)"><polygon fill="none" stroke="#231F20" stroke-width="1" points="18020.3 1505.6 18000 1512.02 17994.6 1508.45 17979.2 1487.62 18003.2 1477.97 18033.3 1486.37"/></g><g transform="translate(38724.195084599996 7924.066726999999) rotate(180)"><polygon fill="none" stroke="#231F20" stroke-width="1" points="10532.3 2250.94 10491.2 2269.53 10472.6 2256.31 10481 2227.48 10500.2 2233.04 10504.3 2248.88"/></g><g transform="translate(26753.947745100006 34143.8272973) rotate(270)"><polygon fill="none" stroke="#231F20" stroke-width="1" points="28524.5 1511.13 28491.1 1533.17 28493.6 1501.26 28473.8 1497.91 28501.6 1494.82 28523.4 1473.72"/></g><g transform="translate(30582.2694502 -16991.857218099998) rotate(90)"><polygon fill="none" stroke="#231F20" stroke-width="1" points="22528.6 2257.96 22512.5 2281.84 22492 2255.78 22481.7 2237.69 22488.5 2215.89 22502.8 2246.37"/></g><g transform="translate(26810.190851400002 10079.983480899999) rotate(270)"><polygon fill="none" stroke="#231F20" stroke-width="1" points="4540.63 1502.41 4494.89 1530.28 4497.05 1504.8 4490.37 1490.87 4504.06 1475.43 4519.26 1497.51"/></g><g transform="translate(44805.3202193 9353.297454499998) rotate(180)"><polygon fill="none" stroke="#231F20" stroke-width="1" points="16518.5 3763.22 16503.8 3763.4 16488.5 3761.59 16491.2 3739.72 16491.2 3730.14 16535.3 3742.42"/></g><g transform="translate(27605.485516200006 29546.0954914) rotate(270)"><polygon fill="none" stroke="#231F20" stroke-width="1" points="24003 752.324 24005.9 787.661 23997 752.827 23974.7 726.611 23993 720.693 24035.3 730.729"/></g><g transform="translate(26129.616009400004 22021.5915851) rotate(270)"><polygon fill="none" stroke="#231F20" stroke-width="1" points="16537.2 2253.97 16500.2 2256.19 16481.4 2263.53 16485.6 2246.01 16509.7 2216.21 16517.5 2233.77"/></g><g transform="translate(32885.357417399995 1700.3407580999997) rotate(90)"><polygon fill="none" stroke="#231F20" stroke-width="1" points="3755.97 4509.91 3735.14 4528.15 3719.62 4523.23 3732.65 4484.51 3750.95 4492.17 3770.64 4497.73"/></g><g transform="translate(3650.0236736000006 2492.9165327) rotate(0)"><polygon fill="none" stroke="#231F20" stroke-width="1" points="24773.5 3011.08 24753.3 3025.54 24738.4 3000.35 24730.1 2978.46 24751.1 2990.33 24770.7 2992.66"/></g><g transform="translate(24359.516631600007 37318.2529758) rotate(270)"><polygon fill="none" stroke="#231F20" stroke-width="1" points="31504.4 3752.1 31497.6 3783.42 31469.3 3771.91 31494.3 3744.84 31500.3 3721.97 31519.8 3736.88"/></g><g transform="translate(30429.0240898 6506.1150602) rotate(180)"><polygon fill="none" stroke="#231F20" stroke-width="1" points="2289.36 758.161 2246.27 757.118 2223.86 758.381 2239.98 746.916 2245.56 737.211 2272.84 728.925"/></g><g transform="translate(27332.6759505 6625.2357916) rotate(270)"><polygon fill="none" stroke="#231F20" stroke-width="1" points="771.889 753.687 742.535 769.849 724.039 750.757 742.271 739.549 749.232 744.122 771.178 718.121"/></g><g transform="translate(31802.286317699996 -24097.3946646) rotate(90)"><polygon fill="none" stroke="#231F20" stroke-width="1" points="30021.1 3752.83 29997.3 3772.76 29981.2 3765.24 29966.4 3739.95 30000 3745.98 30022.4 3733.55"/></g><g transform="translate(4898.333485499999 1293.1751700000004) rotate(0)"><polygon fill="none" stroke="#231F20" stroke-width="1" points="23277.4 4509.92 23255.6 4521.18 23225.2 4519.08 23245.9 4495.88 23246.7 4482.37 23262.6 4484.72"/></g><g transform="translate(36469.199340399995 10234.820999) rotate(180)"><polygon fill="none" stroke="#231F20" stroke-width="1" points="8279.59 4508.8 8253.34 4516.22 8217.39 4518.61 8245.7 4497.1 8254.1 4470.03 8264.61 4488.91"/></g><g transform="translate(25854.983053300006 34349.7916223) rotate(270)"><polygon fill="none" stroke="#231F20" stroke-width="1" points="28512.2 2262.15 28496.8 2273.37 28482.9 2270.87 28489.4 2248.97 28508.3 2229.98 28531 2229.67"/></g><g transform="translate(50770.9129474 7164.666418599998) rotate(180)"><polygon fill="none" stroke="#231F20" stroke-width="1" points="22516.9 1507.58 22501.4 1513.34 22478.8 1508.58 22477.1 1498.23 22515 1464.19 22512.8 1486.36"/></g><g transform="translate(23854.704514800003 14580.136978300001) rotate(270)"><polygon fill="none" stroke="#231F20" stroke-width="1" points="9025.19 4524.31 9012.94 4527.03 8994.39 4504.1 8987.99 4490.03 9001.58 4484.03 9027.18 4499.05"/></g><g transform="translate(9549.646701600002 1147.7843342999995) rotate(0)"><polygon fill="none" stroke="#231F20" stroke-width="1" points="18775 4515.66 18757.7 4514.7 18746.9 4503.26 18722.9 4469.27 18740 4471.69 18758.7 4490.83"/></g><g transform="translate(59075.749798699995 8611.003169699996) rotate(180)"><polygon fill="none" stroke="#231F20" stroke-width="1" points="30758.1 3008.45 30744.5 3022.78 30734.5 3017.86 30713.5 2986.94 30758.2 2983.26 30752.9 2997.52"/></g><g transform="translate(32140.4280793 7060.450447099999) rotate(180)"><polygon fill="none" stroke="#231F20" stroke-width="1" points="3767.44 1511.69 3750.01 1519.61 3733.16 1510.1 3723.39 1488.15 3732.17 1465.71 3755.42 1499.32"/></g><g transform="translate(-1173.259840300001 2155.5934297000003) rotate(0)"><polygon fill="none" stroke="#231F20" stroke-width="1" points="29285.4 3767.47 29251.7 3769.13 29243.7 3756.24 29230.6 3741.55 29238.2 3713.51 29254.2 3743.93"/></g><g transform="translate(56632.6738453 9618.113285399995) rotate(180)"><polygon fill="none" stroke="#231F20" stroke-width="1" points="28504.5 3751.64 28495.6 3782.8 28475.6 3766.58 28496.7 3745.49 28497 3724.63 28535.7 3745.44"/></g><g transform="translate(1937.1312107000012 2783.4100386) rotate(0)"><polygon fill="none" stroke="#231F20" stroke-width="1" points="26276 3026.29 26255.8 3014.9 26229.9 3004.85 26228.1 2996.28 26258.8 2978.11 26264.9 2997.65"/></g><g transform="translate(29280.0099566 9520.656197299999) rotate(180)"><polygon fill="none" stroke="#231F20" stroke-width="1" points="1527.11 3773.34 1509.74 3767.28 1495.41 3750.53 1477.71 3747.87 1495.14 3740.71 1520.08 3724.63"/></g><g transform="translate(12413.6779485 4321.7947929) rotate(0)"><polygon fill="none" stroke="#231F20" stroke-width="1" points="15774.8 1523.61 15756.6 1512.08 15730.7 1519.43 15729.2 1493.92 15747.6 1492.72 15763.1 1480.43"/></g><g transform="translate(25268.9086276 8706.0138854) rotate(270)"><polygon fill="none" stroke="#231F20" stroke-width="1" points="3006.77 3001.52 3004.46 3037.75 2986.47 3011.14 2977.86 2996.12 3002.92 2970.49 3005.83 2998.06"/></g><g transform="translate(-5514.388530700002 3513.1318355000003) rotate(0)"><polygon fill="none" stroke="#231F20" stroke-width="1" points="33773.4 2255.35 33753.1 2259.24 33742.1 2260.76 33731.5 2245.06 33755.1 2211.54 33761.2 2233.56"/></g><g transform="translate(25371.5008636 13087.4225883) rotate(270)"><polygon fill="none" stroke="#231F20" stroke-width="1" points="7514.66 3012.79 7504.94 3023.26 7462.07 3000.73 7488.3 2985.29 7490.97 2971.99 7502.36 2996.87"/></g><g transform="translate(29832.1591793 -19110.1019397) rotate(90)"><polygon fill="none" stroke="#231F20" stroke-width="1" points="24765.6 1502.59 24735.1 1531.98 24737.4 1516.53 24744.5 1493.45 24752.1 1469.2 24763.2 1478.03"/></g><g transform="translate(7256.7394499 4991.2997298) rotate(0)"><polygon fill="none" stroke="#231F20" stroke-width="1" points="21034.8 758.355 21006.8 768.272 20992.5 757.352 20987 744.471 20998.8 745.029 21024 727.903"/></g><g transform="translate(44824.3684037 6447.909476699998) rotate(180)"><polygon fill="none" stroke="#231F20" stroke-width="1" points="16511.8 763.856 16508.7 777.62 16488.9 751.82 16484.4 740.162 16501.5 736.895 16525.6 722.899"/></g><g transform="translate(-7627.756773199999 1138.0600450000002) rotate(0)"><polygon fill="none" stroke="#231F20" stroke-width="1" points="36029.9 4505.45 35988.7 4535.15 35995.9 4501.46 35996.8 4497.25 36009.4 4469.38 36015.1 4493.11"/></g><g transform="translate(25978.608100300007 38033.9263986) rotate(270)"><polygon fill="none" stroke="#231F20" stroke-width="1" points="32256.1 2254.54 32254.4 2264.84 32243.8 2258.6 32214.3 2246.96 32262.2 2220.5 32261.5 2241.28"/></g><g transform="translate(20670.9771124 2115.0205525000006) rotate(0)"><polygon fill="none" stroke="#231F20" stroke-width="1" points="7525.52 3755.99 7501.08 3756.45 7464.96 3761.61 7492.05 3742.66 7490.8 3721.27 7528.91 3748.68"/></g><g transform="translate(9941.1042896 1408.8619287000001) rotate(0)"><polygon fill="none" stroke="#231F20" stroke-width="1" points="18028 4508.9 17999.7 4505.54 17966.7 4508.67 17983 4478.87 17999.2 4493.35 18011.6 4480.35"/></g><g transform="translate(30399.2785434 -8361.6596508) rotate(90)"><polygon fill="none" stroke="#231F20" stroke-width="1" points="14268.4 2278.63 14250.3 2258.03 14240.6 2253.15 14235.2 2230.36 14250.9 2221.78 14270 2249.34"/></g><g transform="translate(28960.6529831 2101.4428950999995) rotate(90)"><polygon fill="none" stroke="#231F20" stroke-width="1" points="3770.69 751.528 3745.79 778.819 3738.9 753.824 3709.83 746.612 3746.31 739.934 3764.53 739.279"/></g><g transform="translate(33595.6030561 3432.301185399999) rotate(90)"><polygon fill="none" stroke="#231F20" stroke-width="1" points="2272.19 5251.14 2243.35 5266.9 2222.8 5261.85 2223.28 5235.82 2250.78 5245.55 2283.15 5239.05"/></g><g transform="translate(509.66949150000073 1299.9962884999995) rotate(0)"><polygon fill="none" stroke="#231F20" stroke-width="1" points="27780.3 4517.89 27753.7 4512.05 27718 4514.81 27736.1 4496.22 27755.2 4459.11 27754.6 4496.94"/></g><g transform="translate(49245.2183197 7329.190868599997) rotate(180)"><polygon fill="none" stroke="#231F20" stroke-width="1" points="21017.5 1514.39 20997.5 1509.07 20960.3 1502.48 20990.4 1497.82 20992.2 1485.61 21024.4 1482.25"/></g><g transform="translate(45528.4447678 8773.036970599998) rotate(180)"><polygon fill="none" stroke="#231F20" stroke-width="1" points="17263.7 3008.45 17258 3015.92 17226.9 3008.59 17224.2 2984.25 17238.9 2973.53 17254.4 2993.63"/></g><g transform="translate(56804.8297434 10230.409899399996) rotate(180)"><polygon fill="none" stroke="#231F20" stroke-width="1" points="28520 4505.43 28500.1 4505.06 28481.4 4504.65 28483.2 4477.27 28503 4465.22 28510.2 4489.17"/></g><g transform="translate(32908.5488909 -1132.6606580999996) rotate(90)"><polygon fill="none" stroke="#231F20" stroke-width="1" points="6763.05 4509.06 6740.1 4526.9 6717.05 4511.9 6738.77 4489.67 6747.23 4487.51 6755 4494.97"/></g><g transform="translate(44836.2315719 8743.009363999998) rotate(180)"><polygon fill="none" stroke="#231F20" stroke-width="1" points="16507.6 3004.7 16507.4 3032.34 16468 3012.69 16493.6 2991.81 16500.7 2995.89 16516.7 2985.19"/></g><g transform="translate(7373.303554000002 1187.0680676000002) rotate(0)"><polygon fill="none" stroke="#231F20" stroke-width="1" points="21009.6 4504.19 20999.2 4523.48 20978.5 4504.51 20987.2 4497.65 21003.9 4474.46 21013.2 4489.26"/></g><g transform="translate(26070.526563500003 24536.1298438) rotate(270)"><polygon fill="none" stroke="#231F20" stroke-width="1" points="18766.1 2269.06 18750.7 2257.96 18724 2266.75 18736.4 2237.63 18747.8 2240.06 18771 2231.12"/></g><g transform="translate(23748.004788800004 25371.340883099998) rotate(270)"><polygon fill="none" stroke="#231F20" stroke-width="1" points="19512.9 4504.49 19485 4535.05 19495 4502.23 19490.6 4493.3 19493.6 4480.28 19524.5 4472.65"/></g><g transform="translate(-3228.667371899999 5110.308122) rotate(0)"><polygon fill="none" stroke="#231F20" stroke-width="1" points="31509.4 761.672 31499 761.449 31490.4 754.303 31464.3 735.525 31503.8 730.402 31517.7 734.312"/></g><g transform="translate(35057.0678514 6576.084725299999) rotate(180)"><polygon fill="none" stroke="#231F20" stroke-width="1" points="6762.24 758.316 6754.31 783.485 6746.13 754.93 6740.55 741.921 6742.37 734.342 6787.54 735.523"/></g><g transform="translate(31190.7679298 -13611.5156747) rotate(90)"><polygon fill="none" stroke="#231F20" stroke-width="1" points="19520.2 3018.94 19494.5 3011.43 19485.4 3014.74 19483.1 2972.37 19504.6 2990.88 19517.5 2995.69"/></g><g transform="translate(31223.5257609 -12105.6594218) rotate(90)"><polygon fill="none" stroke="#231F20" stroke-width="1" points="18004.3 3003.46 18013.6 3029.63 17989 3014.73 17986.3 2982.89 18017.5 2968.38 18010.6 2982.84"/></g><g transform="translate(23852.487776700003 27517.8877214) rotate(270)"><polygon fill="none" stroke="#231F20" stroke-width="1" points="21766.3 4501.5 21752 4517.85 21719.7 4505.7 21739.6 4495.25 21757 4481.08 21772.5 4497.19"/></g><g transform="translate(32902.7490493 -9539.467828199999) rotate(90)"><polygon fill="none" stroke="#231F20" stroke-width="1" points="15019.4 4506.49 14998.7 4506.26 14989.3 4508.94 14985.6 4495.68 14989.1 4478.56 15021 4480.14"/></g><g transform="translate(29121.641762199997 -6261.0821746) rotate(90)"><polygon fill="none" stroke="#231F20" stroke-width="1" points="12004.9 753.909 12009.3 769.167 11991.9 753.787 11968.7 730.071 11988.7 730.293 12020.5 731.477"/></g><g transform="translate(27548.9636909 2107.0930749) rotate(0)"><polygon fill="none" stroke="#231F20" stroke-width="1" points="756.058 3755.76 741.394 3783.36 729.862 3775.4 745.632 3743.77 743.236 3736.47 785.839 3733.03"/></g><g transform="translate(28755.554760799998 -21845.2793099) rotate(90)"><polygon fill="none" stroke="#231F20" stroke-width="1" points="27769.6 772.567 27744.5 771.653 27742.8 750.707 27747.5 746.791 27762.2 722.882 27767.6 735.527"/></g><g transform="translate(59900.7754114 10158.669887999997) rotate(180)"><polygon fill="none" stroke="#231F20" stroke-width="1" points="31508.8 4507.7 31500.4 4507.46 31486.8 4520.9 31479.4 4496.36 31503.8 4482.8 31519.1 4496.91"/></g><g transform="translate(29078.541871399997 -7667.346768) rotate(90)"><polygon fill="none" stroke="#231F20" stroke-width="1" points="13504.4 751.009 13500.9 760.746 13480.8 766.117 13478.3 717.539 13496.5 730.263 13507.7 738.78"/></g><g transform="translate(32831.9281578 -5373.671204599999) rotate(90)"><polygon fill="none" stroke="#231F20" stroke-width="1" points="11254.1 4504.55 11240.1 4528.79 11220.5 4505.96 11243.3 4494.91 11246.1 4485.69 11281 4494.68"/></g><g transform="translate(24558.914727200005 17888.4767737) rotate(270)"><polygon fill="none" stroke="#231F20" stroke-width="1" points="12013.5 3754.12 11999.3 3771.68 11986 3767.64 11977 3743.67 11994.6 3724.64 12007.2 3749.67"/></g><g transform="translate(32871.9335004 9547.1479002) rotate(180)"><polygon fill="none" stroke="#231F20" stroke-width="1" points="4511.03 3756.18 4498.39 3784.59 4474.23 3754.12 4484.59 3749.63 4497.95 3745.5 4510.91 3732.53"/></g><g transform="translate(20102.5666098 5110.350603) rotate(0)"><polygon fill="none" stroke="#231F20" stroke-width="1" points="8253.5 755.068 8245.76 781.245 8242.92 755.163 8225.42 734.969 8257.53 724.522 8270.42 725.102"/></g><g transform="translate(29141.014843499997 -22682.4214208) rotate(90)"><polygon fill="none" stroke="#231F20" stroke-width="1" points="28520 754.949 28514.7 787.334 28488.5 769.125 28486.1 749.098 28501 743.856 28505.8 749.2"/></g><g transform="translate(13384.8927816 3602.6744556) rotate(0)"><polygon fill="none" stroke="#231F20" stroke-width="1" points="15007.5 2253.79 14989.5 2283.87 14982.3 2266.1 14988.1 2232.78 14995.6 2239.38 15019.6 2228.2"/></g><g transform="translate(51664.5993906 6448.668652999997) rotate(180)"><polygon fill="none" stroke="#231F20" stroke-width="1" points="23282.7 754.537 23243.7 784.762 23243.6 753.457 23244.3 747.152 23252.2 745.763 23269.5 748.79"/></g><g transform="translate(27624.326314200003 31395.2740685) rotate(270)"><polygon fill="none" stroke="#231F20" stroke-width="1" points="25515.8 772.966 25489 770.077 25479.4 755.741 25492.1 748.888 25492.8 714.191 25507.1 744.715"/></g><g transform="translate(31398.4861932 -225.63707319999958) rotate(90)"><polygon fill="none" stroke="#231F20" stroke-width="1" points="6010.16 3005.14 6001.17 3007.17 5979.88 3007.79 5971.4 2974.5 5994.86 2985.49 6021.38 2999.3"/></g><g transform="translate(33356.5772698 -1102.3845301000001) rotate(90)"><polygon fill="none" stroke="#231F20" stroke-width="1" points="6779.4 5266.11 6748.9 5255.37 6739.54 5250.96 6746.38 5246.79 6757.74 5229.9 6779.39 5242.56"/></g><g transform="translate(38366.8404848 6563.417754599998) rotate(180)"><polygon fill="none" stroke="#231F20" stroke-width="1" points="10508 750.598 10493.5 771.682 10477.8 758.462 10476.5 747.99 10508.1 724.006 10506.5 749.549"/></g><g transform="translate(30657.7829143 -3127.3291090000002) rotate(90)"><polygon fill="none" stroke="#231F20" stroke-width="1" points="9004.55 2252 9011.57 2278.01 8989.2 2268.62 8974.4 2246.65 8999.83 2241.09 9029.9 2246.64"/></g><g transform="translate(31266.402714 5157.767336) rotate(90)"><polygon fill="none" stroke="#231F20" stroke-width="1" points="760.958 3011.1 752.243 3003.92 722.823 3025.77 738.825 2999.43 752.468 2965.55 763.101 2998.47"/></g><g transform="translate(32149.3898643 -8718.810042500001) rotate(90)"><polygon fill="none" stroke="#231F20" stroke-width="1" points="14263.7 3751.54 14253.4 3757.26 14216.3 3765.02 14240.8 3746.66 14249 3726.78 14271.2 3735.5"/></g><g transform="translate(60013.054448099996 7165.480899799996) rotate(180)"><polygon fill="none" stroke="#231F20" stroke-width="1" points="32259 1511.83 32244.7 1518.85 32244.8 1507.65 32236.5 1494.64 32255.1 1460.08 32260.5 1482.7"/></g><g transform="translate(8722.4552043 3661.6606466000003) rotate(0)"><polygon fill="none" stroke="#231F20" stroke-width="1" points="19525.6 2253.92 19498 2257.04 19466.6 2255.09 19472.8 2247.96 19501.9 2240.25 19518.2 2243.27"/></g><g transform="translate(31408.5978941 11064.4531179) rotate(180)"><polygon fill="none" stroke="#231F20" stroke-width="1" points="3013.64 5252.1 2995.24 5290.43 2992.36 5260.5 2990.8 5239.48 3001.08 5228.26 3007.77 5240.18"/></g><g transform="translate(29168.6214903 -10412.5741493) rotate(90)"><polygon fill="none" stroke="#231F20" stroke-width="1" points="15783.9 761.584 15752.9 757.316 15729.4 760.352 15731 747.041 15750.6 744.869 15779 748.566"/></g><g transform="translate(30765.6843963 10386.3350031) rotate(180)"><polygon fill="none" stroke="#231F20" stroke-width="1" points="3005.91 4500.14 2989.25 4530.56 2996.35 4504.4 2978.74 4473.68 3000.84 4473.81 3011.86 4485.95"/></g><g transform="translate(25409.5470716 15481.5771515) rotate(270)"><polygon fill="none" stroke="#231F20" stroke-width="1" points="9769.69 3008.48 9743.84 3012.58 9734.44 3009.02 9740.22 2995.05 9746.47 2984.29 9772.43 2995.62"/></g><g transform="translate(28702.611030499997 -20986.7790475) rotate(90)"><polygon fill="none" stroke="#231F20" stroke-width="1" points="26266 753.222 26245 767.587 26237.6 755.509 26239.6 746.128 26245.4 733.293 26266.9 734.709"/></g><g transform="translate(31995.7464933 -4437.4643249) rotate(90)"><polygon fill="none" stroke="#231F20" stroke-width="1" points="9759.45 3762.89 9762.85 3777.12 9729.38 3753.52 9735.6 3735.01 9743.44 3731.52 9755.64 3746.29"/></g><g transform="translate(24356.440469200003 30649.9182342) rotate(270)"><polygon fill="none" stroke="#231F20" stroke-width="1" points="24756.7 3758.23 24756.7 3777.01 24730.2 3751.24 24739.7 3738.82 24749.7 3737.31 24766.9 3745.78"/></g><g transform="translate(27370.5624061 15215.9139038) rotate(270)"><polygon fill="none" stroke="#231F20" stroke-width="1" points="9752.84 753.676 9744.54 771.648 9731.17 765.392 9724.69 746.972 9755.66 737.78 9763.47 728.9"/></g><g transform="translate(26044.935233800003 36432.176284) rotate(270)"><polygon fill="none" stroke="#231F20" stroke-width="1" points="30765.1 2266.17 30751.5 2261 30733.9 2261.61 30732.2 2238.94 30752.1 2233.71 30757.8 2247.02"/></g><g transform="translate(44266.299617 10118.833839199997) rotate(180)"><polygon fill="none" stroke="#231F20" stroke-width="1" points="16503.8 4506.13 16501.6 4510.2 16467 4505.63 16485.1 4499.54 16506 4475.94 16515.8 4491.93"/></g><g transform="translate(28187.346675200002 7310.662665000001) rotate(180)"><polygon fill="none" stroke="#231F20" stroke-width="1" points="11.4488 1515.63 -0.580826 1511.67 -6.42948 1508.68 -21.414 1498.42 -10.2513 1480.6 4.87176 1493.85"/></g><g transform="translate(14261.996606 3270.7977084999998) rotate(0)"><polygon fill="none" stroke="#231F20" stroke-width="1" points="13514.7 2258.64 13493.5 2267.23 13489.7 2263.88 13489.5 2248.68 13499.3 2236.32 13516.4 2241.36"/></g><g transform="translate(18016.658881 3139.8983820000003) rotate(0)"><polygon fill="none" stroke="#231F20" stroke-width="1" points="9752.76 2253.02 9757.93 2271.25 9735.91 2255.09 9739.3 2242.23 9737.72 2227.26 9761.73 2240.59"/></g><g transform="translate(17913.8481989 3919.4283158999997) rotate(0)"><polygon fill="none" stroke="#231F20" stroke-width="1" points="10509.2 1503.08 10501.6 1520.14 10477.9 1509.46 10489.7 1489.81 10501 1488.12 10505 1497.89"/></g><g transform="translate(26270.351573100004 32433.2246781) rotate(270)"><polygon fill="none" stroke="#231F20" stroke-width="1" points="27006 1502.56 27000.2 1503.88 26991.6 1506.07 26985.7 1479.76 26997.3 1484.28 27025.9 1479.9"/></g><g transform="translate(32896.3889821 -6087.1881945) rotate(90)"><polygon fill="none" stroke="#231F20" stroke-width="1" points="12006.7 4506.7 12006.2 4512.88 11994.6 4502.12 11966.6 4498.89 12002.9 4480.35 12007.2 4495.85"/></g><g transform="translate(452.0387737000019 2335.162379) rotate(0)"><polygon fill="none" stroke="#231F20" stroke-width="1" points="27756.4 3002.42 27737.7 3031.65 27742.6 3003.81 27724.7 2978 27752 2990.92 27757.4 2991.63"/></g><g transform="translate(20264.2351716 4843.5979418) rotate(0)"><polygon fill="none" stroke="#231F20" stroke-width="1" points="7503.58 755.577 7491.57 774.524 7486.67 766.452 7491.56 739.417 7506.78 735.544 7511.37 743.558"/></g><g transform="translate(26262.764258100004 27465.8236893) rotate(270)"><polygon fill="none" stroke="#231F20" stroke-width="1" points="21765.7 1514.98 21747.5 1506.65 21736.5 1517.15 21737.6 1491.07 21751.6 1491 21755.8 1492.3"/></g><g transform="translate(52155.762002300005 10413.215402599997) rotate(180)"><polygon fill="none" stroke="#231F20" stroke-width="1" points="24017.5 4501.03 23998 4504.65 23981.5 4512.79 23994.1 4490.59 23999.3 4494.25 24031.2 4490.01"/></g><g transform="translate(27506.57580460001 40032.2150915) rotate(270)"><polygon fill="none" stroke="#231F20" stroke-width="1" points="34507 752.556 34502.4 765.657 34496.1 752.368 34485 733.256 34499.5 736.822 34520.1 749.025"/></g><g transform="translate(24822.5485126 8167.937179500001) rotate(270)"><polygon fill="none" stroke="#231F20" stroke-width="1" points="2274.4 3025.07 2247.73 3005.05 2245.62 3002.44 2245.05 2999.71 2247.15 2958.99 2254.23 2998.34"/></g><g transform="translate(26078.976840500003 26912.7739195) rotate(270)"><polygon fill="none" stroke="#231F20" stroke-width="1" points="21016.5 2250.4 20992.7 2267.28 20988.3 2263.24 20997.4 2247.27 21000.6 2216.66 21003.8 2247.87"/></g><g transform="translate(32421.3191019 -1655.4391159999996) rotate(90)"><polygon fill="none" stroke="#231F20" stroke-width="1" points="7511.46 4500.21 7500.08 4504.1 7489.94 4510.56 7493.67 4499.02 7512.14 4474.98 7508.94 4498.04"/></g><g transform="translate(31312.099775 5462.4035471) rotate(90)"><polygon fill="none" stroke="#231F20" stroke-width="1" points="20.3352 3025.83 1.40259 3004.05 -5.21593 3000.78 -14.8543 2997.4 4.38719 2983.92 4.60986 2998.49"/></g><g transform="translate(23296.795196500003 18316.5464385) rotate(270)"><polygon fill="none" stroke="#231F20" stroke-width="1" points="12757.7 4502.56 12754.9 4508.97 12743.9 4504.11 12735.8 4484.98 12750.8 4492.16 12755.3 4496.14"/></g><g transform="translate(26260.802264200003 17573.003128199998) rotate(270)"><polygon fill="none" stroke="#231F20" stroke-width="1" points="12004 1503.72 11997.8 1507.55 11995.4 1503.45 11993 1496.51 11998.6 1495.57 12020.3 1490.18"/></g></g></svg>