<?xml version="1.0" encoding="utf-8"?>
<!-- Generator: Adobe Illustrator 15.1.0, SVG Export Plug-In . SVG Version: 6.00 Build 0)  -->
<!DOCTYPE svg PUBLIC "-//W3C//DTD SVG 1.1//EN" "http://www.w3.org/Graphics/SVG/1.1/DTD/svg11.dtd">
<svg version="1.1" xmlns="http://www.w3.org/2000/svg" xmlns:xlink="http://www.w3.org/1999/xlink" x="0px" y="0px" width="50000px"
	 height="50000px" viewBox="0 0 50000 50000" xml:space="preserve">
<g id="Grid" display="none">
</g>
<g id="Layer_1">
</g>
<g id="Desktop">
</g>
<g id="Guides">
</g>
<g id="Page_1">
	<g id="Layer_1_1_">
	
<polygon fill="none" stroke="#231F20" stroke-width="0.001" points="1000.0,1008.6 1096.6,1014.2 1198.3,1000.0 1218.5,1023.8 1273.4,1021.7 1300.0,1076.7 1281.9,1090.0 1281.9,1136.0 1300.0,1149.3 1273.4,1204.3 1218.5,1202.2 1198.3,1226.0 1096.6,1211.8 1000.0,1217.4" />
<polygon fill="none" stroke="#231F20" stroke-width="0.001" points="2000.0,1008.6 2096.6,1014.2 2198.3,1000.0 2218.5,1023.8 2273.4,1021.7 2300.0,1076.7 2281.9,1090.0 2281.9,1136.0 2300.0,1149.3 2273.4,1204.3 2218.5,1202.2 2198.3,1226.0 2096.6,1211.8 2000.0,1217.4" />
<polygon fill="none" stroke="#231F20" stroke-width="0.001" points="3000.0,1000.0 3303.4,1000.0 3303.4,1026.1 3000.0,1026.1" />
<polygon fill="none" stroke="#231F20" stroke-width="0.001" points="4000.0,1000.0 4303.4,1000.0 4303.4,1026.1 4000.0,1026.1" />
<polygon fill="none" stroke="#231F20" stroke-width="0.001" points="5000.0,1017.3 5176.1,1000.0 5218.3,1065.0 5218.3,1101.0 5176.1,1166.0 5000.0,1148.7" />
<polygon fill="none" stroke="#231F20" stroke-width="0.001" points="6000.0,1017.3 6176.1,1000.0 6218.3,1065.0 6218.3,1101.0 6176.1,1166.0 6000.0,1148.7" />
<polygon fill="none" stroke="#231F20" stroke-width="0.001" points="7000.0,1017.3 7176.1,1000.0 7218.3,1065.0 7218.3,1101.0 7176.1,1166.0 7000.0,1148.7" />
<polygon fill="none" stroke="#231F20" stroke-width="0.001" points="8000.0,1017.3 8176.1,1000.0 8218.3,1065.0 8218.3,1101.0 8176.1,1166.0 8000.0,1148.7" />
<polygon fill="none" stroke="#231F20" stroke-width="0.001" points="9007.4,1000.0 9087.0,1011.9 9166.6,1000.0 9174.0,1012.5 9087.0,1030.5 9000.0,1012.5" />
<polygon fill="none" stroke="#231F20" stroke-width="0.001" points="10007.4,1000.0 10087.0,1011.9 10166.6,1000.0 10174.0,1012.5 10087.0,1030.5 10000.0,1012.5" />
<polygon fill="none" stroke="#231F20" stroke-width="0.001" points="11007.4,1000.0 11087.0,1011.9 11166.6,1000.0 11174.0,1012.5 11087.0,1030.5 11000.0,1012.5" />
<polygon fill="none" stroke="#231F20" stroke-width="0.001" points="12007.4,1000.0 12087.0,1011.9 12166.6,1000.0 12174.0,1012.5 12087.0,1030.5 12000.0,1012.5" />
<polygon fill="none" stroke="#231F20" stroke-width="0.001" points="13000.0,1000.0 13041.1,1006.5 13080.0,1000.0 13118.9,1006.5 13160.0,1000.0 13150.0,1036.8 13080.0,1028.6 13010.0,1036.8" />
<polygon fill="none" stroke="#231F20" stroke-width="0.001" points="14000.0,1000.0 14041.1,1006.5 14080.0,1000.0 14118.9,1006.5 14160.0,1000.0 14150.0,1036.8 14080.0,1028.6 14010.0,1036.8" />
<polygon fill="none" stroke="#231F20" stroke-width="0.001" points="15000.0,1000.0 15041.1,1006.5 15080.0,1000.0 15118.9,1006.5 15160.0,1000.0 15150.0,1036.8 15080.0,1028.6 15010.0,1036.8" />
<polygon fill="none" stroke="#231F20" stroke-width="0.001" points="16000.0,1000.0 16041.1,1006.5 16080.0,1000.0 16118.9,1006.5 16160.0,1000.0 16150.0,1036.8 16080.0,1028.6 16010.0,1036.8" />
<polygon fill="none" stroke="#231F20" stroke-width="0.001" points="17000.0,1000.0 17093.6,1000.0 17093.6,1065.9 17000.0,1065.9" />
<polygon fill="none" stroke="#231F20" stroke-width="0.001" points="18000.0,1000.0 18093.6,1000.0 18093.6,1065.9 18000.0,1065.9" />
<polygon fill="none" stroke="#231F20" stroke-width="0.001" points="19000.0,1000.0 19093.6,1000.0 19093.6,1065.9 19000.0,1065.9" />
<polygon fill="none" stroke="#231F20" stroke-width="0.001" points="20000.0,1000.0 20093.6,1000.0 20093.6,1065.9 20000.0,1065.9" />
<polygon fill="none" stroke="#231F20" stroke-width="0.001" points="21005.6,1007.3 21106.6,1014.3 21189.1,1000.0 21218.6,1028.8 21257.3,1024.1 21267.6,1092.6 21259.4,1136.6 21000.0,1136.6" />
<polygon fill="none" stroke="#231F20" stroke-width="0.001" points="22005.6,1007.3 22106.6,1014.3 22189.1,1000.0 22218.6,1028.8 22257.3,1024.1 22267.6,1092.6 22259.4,1136.6 22000.0,1136.6" />
<polygon fill="none" stroke="#231F20" stroke-width="0.001" points="23000.0,1000.0 23249.9,1000.0 23270.5,1038.7 23262.2,1093.4 23214.8,1096.7 23192.0,1115.2 23106.1,1105.9 23000.0,1112.5" />
<polygon fill="none" stroke="#231F20" stroke-width="0.001" points="24000.0,1000.0 24249.9,1000.0 24270.5,1038.7 24262.2,1093.4 24214.8,1096.7 24192.0,1115.2 24106.1,1105.9 24000.0,1112.5" />
<polygon fill="none" stroke="#231F20" stroke-width="0.001" points="25000.0,1000.0 25490.0,1000.0 25490.0,2000.0 25000.0,2000.0" />
    </g>
</g>
</svg>

