<?xml version="1.0" encoding="utf-8"?>
<!-- Generator: Adobe Illustrator 15.1.0, SVG Export Plug-In . SVG Version: 6.00 Build 0)  -->
<!DOCTYPE svg PUBLIC "-//W3C//DTD SVG 1.1//EN" "http://www.w3.org/Graphics/SVG/1.1/DTD/svg11.dtd">
<svg version="1.1" xmlns="http://www.w3.org/2000/svg" xmlns:xlink="http://www.w3.org/1999/xlink" x="0px" y="0px" width="50000px"
	 height="50000px" viewBox="0 0 50000 50000" xml:space="preserve">
<g id="Grid" display="none">
</g>
<g id="Layer_1">
</g>
<g id="Desktop">
</g>
<g id="Guides">
</g>
<g id="Page_1">
	<g id="Layer_1_1_">
	
<polygon fill="none" stroke="#231F20" stroke-width="0.001" points="1000.0,1000.0 1020.0,1000.0 1020.0,1030.0 1120.0,1030.0 1120.0,1000.0 1140.0,1000.0 1140.0,1050.0 1000.0,1050.0" />
<polygon fill="none" stroke="#231F20" stroke-width="0.001" points="2000.0,1000.0 2020.0,1000.0 2020.0,1030.0 2120.0,1030.0 2120.0,1000.0 2140.0,1000.0 2140.0,1050.0 2000.0,1050.0" />
<polygon fill="none" stroke="#231F20" stroke-width="0.001" points="3000.0,1000.0 3020.0,1000.0 3020.0,1030.0 3120.0,1030.0 3120.0,1000.0 3140.0,1000.0 3140.0,1050.0 3000.0,1050.0" />
<polygon fill="none" stroke="#231F20" stroke-width="0.001" points="4000.0,1000.0 4020.0,1000.0 4020.0,1030.0 4120.0,1030.0 4120.0,1000.0 4140.0,1000.0 4140.0,1050.0 4000.0,1050.0" />
<polygon fill="none" stroke="#231F20" stroke-width="0.001" points="5000.0,1000.0 5020.0,1000.0 5020.0,1030.0 5120.0,1030.0 5120.0,1000.0 5140.0,1000.0 5140.0,1050.0 5000.0,1050.0" />
<polygon fill="none" stroke="#231F20" stroke-width="0.001" points="6000.0,1000.0 6020.0,1000.0 6020.0,1030.0 6120.0,1030.0 6120.0,1000.0 6140.0,1000.0 6140.0,1050.0 6000.0,1050.0" />
<polygon fill="none" stroke="#231F20" stroke-width="0.001" points="7000.0,1000.0 7020.0,1000.0 7020.0,1030.0 7120.0,1030.0 7120.0,1000.0 7140.0,1000.0 7140.0,1050.0 7000.0,1050.0" />
<polygon fill="none" stroke="#231F20" stroke-width="0.001" points="8000.0,1000.0 8020.0,1000.0 8020.0,1030.0 8120.0,1030.0 8120.0,1000.0 8140.0,1000.0 8140.0,1050.0 8000.0,1050.0" />
<polygon fill="none" stroke="#231F20" stroke-width="0.001" points="9000.0,1000.0 9020.0,1000.0 9020.0,1030.0 9120.0,1030.0 9120.0,1000.0 9140.0,1000.0 9140.0,1050.0 9000.0,1050.0" />
<polygon fill="none" stroke="#231F20" stroke-width="0.001" points="10000.0,1000.0 10020.0,1000.0 10020.0,1030.0 10120.0,1030.0 10120.0,1000.0 10140.0,1000.0 10140.0,1050.0 10000.0,1050.0" />
<polygon fill="none" stroke="#231F20" stroke-width="0.001" points="11000.0,1000.0 11020.0,1000.0 11020.0,1030.0 11120.0,1030.0 11120.0,1000.0 11140.0,1000.0 11140.0,1050.0 11000.0,1050.0" />
<polygon fill="none" stroke="#231F20" stroke-width="0.001" points="12000.0,1000.0 12020.0,1000.0 12020.0,1030.0 12120.0,1030.0 12120.0,1000.0 12140.0,1000.0 12140.0,1050.0 12000.0,1050.0" />
<polygon fill="none" stroke="#231F20" stroke-width="0.001" points="13000.0,1000.0 13020.0,1000.0 13020.0,1030.0 13120.0,1030.0 13120.0,1000.0 13140.0,1000.0 13140.0,1050.0 13000.0,1050.0" />
<polygon fill="none" stroke="#231F20" stroke-width="0.001" points="14000.0,1000.0 14020.0,1000.0 14020.0,1030.0 14120.0,1030.0 14120.0,1000.0 14140.0,1000.0 14140.0,1050.0 14000.0,1050.0" />
<polygon fill="none" stroke="#231F20" stroke-width="0.001" points="15000.0,1000.0 15020.0,1000.0 15020.0,1030.0 15120.0,1030.0 15120.0,1000.0 15140.0,1000.0 15140.0,1050.0 15000.0,1050.0" />
<polygon fill="none" stroke="#231F20" stroke-width="0.001" points="16000.0,1000.0 16060.0,940.0 16120.0,1000.0 16060.0,1060.0" />
<polygon fill="none" stroke="#231F20" stroke-width="0.001" points="17000.0,1000.0 17060.0,940.0 17120.0,1000.0 17060.0,1060.0" />
<polygon fill="none" stroke="#231F20" stroke-width="0.001" points="18000.0,1000.0 18060.0,940.0 18120.0,1000.0 18060.0,1060.0" />
<polygon fill="none" stroke="#231F20" stroke-width="0.001" points="19000.0,1000.0 19060.0,940.0 19120.0,1000.0 19060.0,1060.0" />
<polygon fill="none" stroke="#231F20" stroke-width="0.001" points="20000.0,1000.0 20060.0,940.0 20120.0,1000.0 20060.0,1060.0" />
<polygon fill="none" stroke="#231F20" stroke-width="0.001" points="21000.0,1000.0 21060.0,940.0 21120.0,1000.0 21060.0,1060.0" />
<polygon fill="none" stroke="#231F20" stroke-width="0.001" points="22000.0,1000.0 22060.0,940.0 22120.0,1000.0 22060.0,1060.0" />
<polygon fill="none" stroke="#231F20" stroke-width="0.001" points="23000.0,1000.0 23060.0,1000.0 23060.0,980.0 23070.0,980.0 23110.0,1020.0 23110.0,1040.0 23080.0,1040.0 23080.0,1010.0 23020.0,1010.0 23020.0,1040.0 23000.0,1040.0" />
<polygon fill="none" stroke="#231F20" stroke-width="0.001" points="24000.0,1000.0 24060.0,1000.0 24060.0,980.0 24070.0,980.0 24110.0,1020.0 24110.0,1040.0 24080.0,1040.0 24080.0,1010.0 24020.0,1010.0 24020.0,1040.0 24000.0,1040.0" />
<polygon fill="none" stroke="#231F20" stroke-width="0.001" points="25000.0,1000.0 25060.0,1000.0 25060.0,980.0 25070.0,980.0 25110.0,1020.0 25110.0,1040.0 25080.0,1040.0 25080.0,1010.0 25020.0,1010.0 25020.0,1040.0 25000.0,1040.0" />
<polygon fill="none" stroke="#231F20" stroke-width="0.001" points="26000.0,1000.0 26060.0,1000.0 26060.0,980.0 26070.0,980.0 26110.0,1020.0 26110.0,1040.0 26080.0,1040.0 26080.0,1010.0 26020.0,1010.0 26020.0,1040.0 26000.0,1040.0" />
<polygon fill="none" stroke="#231F20" stroke-width="0.001" points="27000.0,1000.0 27060.0,1000.0 27060.0,980.0 27070.0,980.0 27110.0,1020.0 27110.0,1040.0 27080.0,1040.0 27080.0,1010.0 27020.0,1010.0 27020.0,1040.0 27000.0,1040.0" />
<polygon fill="none" stroke="#231F20" stroke-width="0.001" points="28000.0,1000.0 28060.0,1000.0 28060.0,980.0 28070.0,980.0 28110.0,1020.0 28110.0,1040.0 28080.0,1040.0 28080.0,1010.0 28020.0,1010.0 28020.0,1040.0 28000.0,1040.0" />
<polygon fill="none" stroke="#231F20" stroke-width="0.001" points="29000.0,1000.0 29060.0,1000.0 29060.0,980.0 29070.0,980.0 29110.0,1020.0 29110.0,1040.0 29080.0,1040.0 29080.0,1010.0 29020.0,1010.0 29020.0,1040.0 29000.0,1040.0" />
<polygon fill="none" stroke="#231F20" stroke-width="0.001" points="30000.0,1000.0 30060.0,1000.0 30060.0,980.0 30070.0,980.0 30110.0,1020.0 30110.0,1040.0 30080.0,1040.0 30080.0,1010.0 30020.0,1010.0 30020.0,1040.0 30000.0,1040.0" />
<polygon fill="none" stroke="#231F20" stroke-width="0.001" points="31000.0,1000.0 31060.0,1000.0 31060.0,980.0 31070.0,980.0 31110.0,1020.0 31110.0,1040.0 31080.0,1040.0 31080.0,1010.0 31020.0,1010.0 31020.0,1040.0 31000.0,1040.0" />
<polygon fill="none" stroke="#231F20" stroke-width="0.001" points="32000,1000 32020,1000 32020,980 32040,980 32040,1000 32060,1000 32060,1020 32040,1020 32040,1040 32020,1040 32020,1020 32000,1020" />
<polygon fill="none" stroke="#231F20" stroke-width="0.001" points="33000,1000 33020,1000 33020,980 33040,980 33040,1000 33060,1000 33060,1020 33040,1020 33040,1040 33020,1040 33020,1020 33000,1020" />
<polygon fill="none" stroke="#231F20" stroke-width="0.001" points="34000,1000 34020,1000 34020,980 34040,980 34040,1000 34060,1000 34060,1020 34040,1020 34040,1040 34020,1040 34020,1020 34000,1020" />
<polygon fill="none" stroke="#231F20" stroke-width="0.001" points="35000,1000 35020,1000 35020,980 35040,980 35040,1000 35060,1000 35060,1020 35040,1020 35040,1040 35020,1040 35020,1020 35000,1020" />
<polygon fill="none" stroke="#231F20" stroke-width="0.001" points="36000,1000 36020,1000 36020,980 36040,980 36040,1000 36060,1000 36060,1020 36040,1020 36040,1040 36020,1040 36020,1020 36000,1020" />
<polygon fill="none" stroke="#231F20" stroke-width="0.001" points="37000,1000 37020,1000 37020,980 37040,980 37040,1000 37060,1000 37060,1020 37040,1020 37040,1040 37020,1040 37020,1020 37000,1020" />
<polygon fill="none" stroke="#231F20" stroke-width="0.001" points="38000,1000 38020,1000 38020,980 38040,980 38040,1000 38060,1000 38060,1020 38040,1020 38040,1040 38020,1040 38020,1020 38000,1020" />
<polygon fill="none" stroke="#231F20" stroke-width="0.001" points="39000,1000 39020,1000 39020,980 39040,980 39040,1000 39060,1000 39060,1020 39040,1020 39040,1040 39020,1040 39020,1020 39000,1020" />
<polygon fill="none" stroke="#231F20" stroke-width="0.001" points="40000,1000 40020,1000 40020,980 40040,980 40040,1000 40060,1000 40060,1020 40040,1020 40040,1040 40020,1040 40020,1020 40000,1020" />
<polygon fill="none" stroke="#231F20" stroke-width="0.001" points="41000,1000 41020,1000 41020,980 41040,980 41040,1000 41060,1000 41060,1020 41040,1020 41040,1040 41020,1040 41020,1020 41000,1020" />
<polygon fill="none" stroke="#231F20" stroke-width="0.001" points="42000,1000 42020,1000 42020,980 42040,980 42040,1000 42060,1000 42060,1020 42040,1020 42040,1040 42020,1040 42020,1020 42000,1020" />
<polygon fill="none" stroke="#231F20" stroke-width="0.001" points="43000,1000 43020,1000 43020,980 43040,980 43040,1000 43060,1000 43060,1020 43040,1020 43040,1040 43020,1040 43020,1020 43000,1020" />
<polygon fill="none" stroke="#231F20" stroke-width="0.001" points="44000,1000 44400,1000 44400,1550 44000,1550" />
    </g>
</g>
</svg>

