<?xml version="1.0" encoding="utf-8"?>
<!-- Generator: Adobe Illustrator 15.1.0, SVG Export Plug-In . SVG Version: 6.00 Build 0)  -->
<!DOCTYPE svg PUBLIC "-//W3C//DTD SVG 1.1//EN" "http://www.w3.org/Graphics/SVG/1.1/DTD/svg11.dtd">
<svg version="1.1" xmlns="http://www.w3.org/2000/svg" xmlns:xlink="http://www.w3.org/1999/xlink" x="0px" y="0px" width="50000px"
	 height="50000px" viewBox="0 0 50000 50000" xml:space="preserve">
<g id="Grid" display="none">
</g>
<g id="Layer_1">
</g>
<g id="Desktop">
</g>
<g id="Guides">
</g>
<g id="Page_1">
	<g id="Layer_1_1_">
	
<polygon fill="none" stroke="#231F20" stroke-width="0.001" points="1000.0,1000.0 997.67972,1022.628375 962.86684,1022.628375 962.86684,1000.581375 1000.0,1000.0" />
<polygon fill="none" stroke="#231F20" stroke-width="0.001" points="2000.0,1000.0 2000.0,1030.75022 1963.446475,1032.4908599999999 1950.1009549999999,1001.740645 1969.24804,997.098345 1990.13577,995.3577 2000.0,1000.0" />
<polygon fill="none" stroke="#231F20" stroke-width="0.001" points="3000.0,1000.0 2997.098345,1026.10966 2920.510005,1026.691035 2901.362925,1013.925155 2900.203655,1001.740645 2937.336815,1002.901655 2970.988685,1002.32202 2980.27328,994.198435 2994.77807,994.198435 3000.0,1000.0" />
<polygon fill="none" stroke="#231F20" stroke-width="0.001" points="4000.0,1000.0 4001.16101,1012.764145 4034.233245,1017.40644 4049.31941,1017.40644 4069.04613,1009.282855 4067.88512,992.45779 4002.901655,990.717145 4000.0,1000.0" />
<polygon fill="none" stroke="#231F20" stroke-width="0.001" points="5000.0,1000.0 4998.259355,1058.02089 4975.630985,1071.366405 4945.4604,1074.26632 4925.152305,1087.032205 4920.510005,1113.7215 4881.05657,1114.301135 4881.05657,1067.303745 4881.05657,1002.899915 4909.48651,997.67798 4904.84421,961.70583 4964.91384,959.3994749999999 4969.829415,997.67798 5000.0,1000.0" />
<polygon fill="none" stroke="#231F20" stroke-width="0.001" points="6000.0,1000.0 6002.32202,1053.38033 5956.4839,1053.959965 5956.4839,1003.48129 5980.27328,1003.48129 6000.0,1000.0" />
<polygon fill="none" stroke="#231F20" stroke-width="0.001" points="7000.0,1000.0 7054.5396,997.67798 7053.37859,1019.72672 7041.19408,1029.59095 7015.08442,1029.59095 7002.899915,1016.2454299999999 7000.0,1000.0" />
<polygon fill="none" stroke="#231F20" stroke-width="0.001" points="8000.0,1000.0 8062.08355,998.259355 8060.92254,1011.604875 8050.47868,1026.10966 8025.530025,1026.10966 8000.0,1000.0" />
<polygon fill="none" stroke="#231F20" stroke-width="0.001" points="9000.0,1000.0 8979.11227,1000.581375 8974.469975,1012.18451 8980.27154,1024.95039 9007.54221,1034.233245 9019.72672,1020.88773 9017.40644,999.420365 9000.0,1000.0" />
<polygon fill="none" stroke="#231F20" stroke-width="0.001" points="10000.0,1000.0 9985.495215,1002.901655 9972.149695,994.77807 9921.671015,994.77807 9919.930375,972.72933 9936.175805,969.24804 9935.016535,958.22454 9998.83899,954.16362 10000.0,1000.0" />
<polygon fill="none" stroke="#231F20" stroke-width="0.001" points="11000.0,1000.0 11043.5161,1000.0 11041.195825,983.7545700000001 11038.875545,944.880765 11013.925155,941.3994749999999 10995.939075,953.00261 11001.740645,973.310705 10995.359445,982.013925 11000.0,1000.0" />
<polygon fill="none" stroke="#231F20" stroke-width="0.001" points="12000.0,1000.0 12002.899915,1023.208005 12064.983465,1025.530025 12067.303745,1004.060925 12031.331595,1000.579635 12000.0,1000.0" />
<polygon fill="none" stroke="#231F20" stroke-width="0.001" points="13000.0,1000.0 12991.878155,1007.54395 12991.29678,1018.56745 13017.40644,1019.72846 13020.88773,1004.6423 13000.0,1000.0" />
<polygon fill="none" stroke="#231F20" stroke-width="0.001" points="14000.0,1000.0 13999.420365,1019.147085 13959.965185,1025.528285 13957.065275,1010.443865 13969.829415,1000.579635 13985.495215,998.259355 14000.0,1000.0" />
<polygon fill="none" stroke="#231F20" stroke-width="0.001" points="15000.0,1000.0 14975.630985,1008.70322 14978.532635,1017.986075 14995.359445,1020.88773 15019.72846,1023.78764 15021.469105,1012.764145 15015.08616,1002.32028 15000.0,1000.0" />
<polygon fill="none" stroke="#231F20" stroke-width="0.001" points="16000.0,1000.0 16000.0,1019.72672 15977.953,1021.467365 15961.70583,1016.2454299999999 15961.126195,998.83899 16000.0,1000.0" />
<polygon fill="none" stroke="#231F20" stroke-width="0.001" points="17000.0,1000.0 16996.51871,1023.78938 16979.693645,1023.20975 16970.40905,1006.38294 16983.174935,998.259355 17000.0,1000.0" />
<polygon fill="none" stroke="#231F20" stroke-width="0.001" points="18000.0,1000.0 17998.259355,1007.54221 17979.691905,1015.08442 17982.012185,1025.528285 18001.740645,1035.97215 18017.986075,1023.78764 18039.45344,1023.208005 18042.934725,1014.504785 18043.5161,1005.22193 18024.369015,1004.060925 18000.0,1000.0" />
<polygon fill="none" stroke="#231F20" stroke-width="0.001" points="19000.0,1000.0 19031.331595,1028.43168 19058.600525,1029.59095 19071.94604,1016.826805 19058.02089,997.67972 19025.528285,998.259355 19000.0,1000.0" />
<polygon fill="none" stroke="#231F20" stroke-width="0.001" points="20000.0,1000.0 19997.67972,1026.691035 19969.829415,1024.95039 19970.40905,999.420365 20000.0,1000.0" />
<polygon fill="none" stroke="#231F20" stroke-width="0.001" points="21000.0,1000.0 21012.18451,1029.59095 20990.715405,1026.689295 20984.334205,1018.56745 20984.334205,1005.22193 20992.45605,999.420365 21000.0,1000.0" />
<polygon fill="none" stroke="#231F20" stroke-width="0.001" points="22000.0,1000.0 21996.51871,1022.04874 22002.901655,1028.43168 22019.147085,1026.691035 22030.172325,1017.40644 22025.530025,1010.443865 22024.369015,1004.6423 22011.604875,998.259355 22000.0,1000.0" />
<polygon fill="none" stroke="#231F20" stroke-width="0.001" points="23000.0,1000.0 23002.901655,1028.42994 22968.668405,1030.75022 22951.8416,1012.18451 22948.94169,1002.32028 23000.0,1000.0" />
<polygon fill="none" stroke="#231F20" stroke-width="0.001" points="24000.0,1000.0 24045.256745,996.51871 24045.256745,982.013925 24037.13316,959.965185 24020.88773,957.64491 23998.83899,954.16362 24000.0,1000.0" />
<polygon fill="none" stroke="#231F20" stroke-width="0.001" points="25000.0,1000.0 25024.95039,994.198435 25040.61619,986.074845 25044.67711,960.54656 25008.70322,955.904265 25001.740645,961.70583 25000.0,1000.0" />
<polygon fill="none" stroke="#231F20" stroke-width="0.001" points="26000.0,1000.0 25995.64839,1043.5161 26009.57354,1051.349 26021.75805,1048.738035 26027.850305,1020.017405 26036.553525,1011.314185 26035.683205,996.51871 26000.0,1000.0" />
<polygon fill="none" stroke="#231F20" stroke-width="0.001" points="27000.0,1000.0 27059.1819,1001.740645 27061.792865,978.24195 27007.8329,973.020015 27000.0,1000.0" />
<polygon fill="none" stroke="#231F20" stroke-width="0.001" points="28000.0,1000.0 28000.0,1011.314185 27981.723235,1012.18451 27982.59356,996.51871 28000.0,1000.0" />
<polygon fill="none" stroke="#231F20" stroke-width="0.001" points="29000.0,1000.0 29030.46127,1000.0 29038.29417,993.037425 29037.423845,944.29939 28975.630985,949.52132 28979.982595,963.446475 29003.48129,962.576155 29000.0,1000.0" />
<polygon fill="none" stroke="#231F20" stroke-width="0.001" points="30000.0,1000.0 29994.77807,1034.81288 30031.331595,1040.905135 30052.21932,1021.75805 30057.441255,1006.962575 30048.738035,993.907745 30024.369015,1002.610965 30000.0,1000.0" />
<polygon fill="none" stroke="#231F20" stroke-width="0.001" points="31000.0,1000.0 30997.389035,1007.8329 31016.53612,1017.40644 31023.498695,1025.23934 31033.94256,1008.70322 31034.81288,998.259355 31000.0,1000.0" />
<polygon fill="none" stroke="#231F20" stroke-width="0.001" points="32000.0,1000.0 32001.740645,1015.665795 32050.47868,1020.017405 32047.86771,993.907745 32040.905135,1000.0 32000.0,1000.0" />
<polygon fill="none" stroke="#231F20" stroke-width="0.001" points="33000.0,1000.0 32999.12968,1021.75805 33013.925155,1026.10966 33014.795475,1001.740645 33000.0,1000.0" />
<polygon fill="none" stroke="#231F20" stroke-width="0.001" points="34000.0,1000.0 34000.0,1006.092255 34031.331595,1008.70322 34032.201915,1002.610965 34020.88773,1000.87032 34020.017405,994.77807 34006.962575,993.907745 34000.0,1000.0" />
<polygon fill="none" stroke="#231F20" stroke-width="0.001" points="35000.0,1000.0 35006.092255,993.907745 35033.072235,993.037425 35037.423845,1024.369015 35003.48129,1025.23934 35000.0,1000.0" />
<polygon fill="none" stroke="#231F20" stroke-width="0.001" points="36000.0,1000.0 35996.51871,1046.12707 35966.927765,1043.5161 35947.78068,1036.553525 35946.910355,1000.87032 36000.0,1000.0" />
<polygon fill="none" stroke="#231F20" stroke-width="0.001" points="37000.0,1000.0 37002.610965,1028.720625 37009.57354,1033.94256 37011.314185,1040.034815 37033.072235,1033.94256 37046.99739,1036.553525 37046.99739,997.389035 37000.0,1000.0" />
<polygon fill="none" stroke="#231F20" stroke-width="0.001" points="38000.0,1000.0 38002.610965,1044.386425 38033.94256,1044.386425 38033.94256,1006.962575 38008.70322,1006.962575 38000.0,1000.0" />
<polygon fill="none" stroke="#231F20" stroke-width="0.001" points="39000.0,1000.0 39000.87032,1028.720625 39009.57354,1033.072235 39031.331595,1030.46127 39053.959965,1015.665795 39053.089645,997.389035 39000.0,1000.0" />
<polygon fill="none" stroke="#231F20" stroke-width="0.001" points="40000.0,1000.0 40002.610965,1038.29417 39994.77807,1045.256745 39949.52132,1040.905135 39935.59617,1040.034815 39935.59617,1011.314185 39943.42907,997.389035 40000.0,1000.0" />
<polygon fill="none" stroke="#231F20" stroke-width="0.001" points="41000.0,1000.0 41014.795475,977.371625 41071.366405,992.1671 41073.10705,1013.05483 41077.45866,1019.147085 41077.45866,1062.6631849999999 41050.47868,1082.680595 40996.51871,1083.550915 41000.0,1000.0" />
<polygon fill="none" stroke="#231F20" stroke-width="0.001" points="42000.0,1000.0 42002.610965,1029.59095 42046.12707,1033.072235 42046.99739,1005.22193 42040.905135,997.389035 42000.0,1000.0" />
<polygon fill="none" stroke="#231F20" stroke-width="0.001" points="43000.0,1000.0 43000.0,1051.349 43031.331595,1054.83029 43043.5161,1047.86771 43054.83029,996.51871 43000.0,1000.0" />
<polygon fill="none" stroke="#231F20" stroke-width="0.001" points="44000.0,1000.0 44046.99739,999.12968 44052.21932,986.074845 44068.75544,986.074845 44067.014795,937.336815 44030.46127,926.0226250000001 44013.925155,952.13229 44006.962575,979.982595 44000.0,1000.0" />
<polygon fill="none" stroke="#231F20" stroke-width="0.001" points="45000.0,1000.0 45021.75805,1026.979985 45042.64578,1032.201915 45083.550915,1067.014795 45079.199305,981.723235 45037.423845,977.371625 45000.0,1000.0" />
<polygon fill="none" stroke="#231F20" stroke-width="0.001" points="46000.0,1000.0 45994.77807,1018.276765 45967.798085,1015.665795 45969.53873,995.64839 46000.0,1000.0" />
<polygon fill="none" stroke="#231F20" stroke-width="0.001" points="47000.0,1000.0 47000.87032,1020.88773 47056.57093,1020.017405 47055.70061,1003.48129 47000.0,1000.0" />
<polygon fill="none" stroke="#231F20" stroke-width="0.001" points="48000.0,1000.0 48000.87032,1016.53612 47946.910355,1014.795475 47946.040035,996.51871 48000.0,1000.0" />
<polygon fill="none" stroke="#231F20" stroke-width="0.001" points="0.0,1000.0 7.8329,1026.10966 52.219319999999996,1026.979985 56.57093,1014.795475 52.219319999999996,988.685815 0.0,1000.0" />
<polygon fill="none" stroke="#231F20" stroke-width="0.001" points="1000.0,2000.0 989.556135,2016.53612 991.29678,2054.83029 1007.8329,2053.089645 1016.53612,2077.4586600000002 1054.83029,2088.772845 1070.496085,2066.144475 1087.032205,2055.70061 1085.2915600000001,2014.795475 1071.366405,2000.0 1057.441255,1996.51871 1046.99739,1993.037425 1000.0,2000.0" />
<polygon fill="none" stroke="#231F20" stroke-width="0.001" points="2000.0,2000.0 2014.795475,2003.48129 2023.498695,2013.925155 2019.147085,2021.75805 1939.94778,2024.369015 1926.89295,2011.314185 1951.261965,2005.22193 1961.70583,1996.51871 2000.0,2000.0" />
<polygon fill="none" stroke="#231F20" stroke-width="0.001" points="3000.0,2000.0 3005.22193,2038.29417 3020.88773,2046.99739 3033.94256,2047.86771 3063.53351,2065.27415 3084.421235,2062.663185 3093.99478,2053.959965 3091.383815,2017.40644 3079.199305,2013.925155 3066.144475,1995.64839 3000.0,2000.0" />
<polygon fill="none" stroke="#231F20" stroke-width="0.001" points="4000.0,2000.0 4002.610965,2094.8651 3993.037425,2113.141865 3954.743255,2113.141865 3932.11488,2096.605745 3926.022625,2056.57093 3925.152305,2009.57354 3980.852915,2005.22193 4000.0,2000.0" />
<polygon fill="none" stroke="#231F20" stroke-width="0.001" points="5000.0,2000.0 5004.35161,2022.628375 5011.314185,2027.850305 5011.314185,2040.034815 5049.608355,2040.905135 5058.311575,2030.46127 5059.1819,2005.22193 5000.0,2000.0" />
<polygon fill="none" stroke="#231F20" stroke-width="0.001" points="6000.0,2000.0 6020.017405,2032.201915 6057.441255,2032.201915 6064.40383,2032.201915 6061.792865,2004.35161 6000.0,2000.0" />
<polygon fill="none" stroke="#231F20" stroke-width="0.001" points="7000.0,2000.0 6993.907745,2081.81027 7008.70322,2097.47607 7026.10966,2098.34639 7040.905135,2089.64317 7069.625765,2052.21932 7069.625765,2028.720625 7048.738035,2000.87032 7000.0,2000.0" />
<polygon fill="none" stroke="#231F20" stroke-width="0.001" points="8000.0,2000.0 8019.147085,2023.498695 8092.254135,2014.795475 8109.660575,2007.8329 8096.605745,1990.42646 8052.21932,2000.0 8000.0,2000.0" />
<polygon fill="none" stroke="#231F20" stroke-width="0.001" points="9000.0,2000.0 8996.51871,2080.069625 8980.852915,2088.772845 8933.855525,2053.089645 8907.745865,2047.86771 8907.745865,1998.259355 8945.16971,1990.42646 8989.556135,1987.81549 9000.0,2000.0" />
<polygon fill="none" stroke="#231F20" stroke-width="0.001" points="10000.0,2000.0 9928.633595,1999.12968 9932.11488,1943.42907 9953.87293,1945.16971 9961.70583,1932.11488 9978.24195,1929.503915 10003.48129,1962.576155 10000.0,2000.0" />
<polygon fill="none" stroke="#231F20" stroke-width="0.001" points="11000.0,2000.0 10998.259355,2040.905135 10948.651,2058.311575 10920.800695,2046.99739 10922.54134,2014.795475 10930.374235,1996.51871 11000.0,2000.0" />
<polygon fill="none" stroke="#231F20" stroke-width="0.001" points="12000.0,2000.0 12004.35161,2034.81288 11968.668405,2036.553525 11957.35422,2023.498695 11969.53873,1992.1671 12000.0,2000.0" />
<polygon fill="none" stroke="#231F20" stroke-width="0.001" points="13000.0,2000.0 13002.610965,2042.64578 12986.94517,2060.05222 12960.83551,2060.92254 12945.16971,2046.99739 12947.78068,2018.276765 12964.316795,1998.259355 13000.0,2000.0" />
<polygon fill="none" stroke="#231F20" stroke-width="0.001" points="14000.0,2000.0 14000.0,2056.57093 14008.70322,2074.847695 14032.201915,2071.366405 14072.23673,2075.718015 14073.10705,2022.628375 14061.792865,1991.29678 14000.0,2000.0" />
<polygon fill="none" stroke="#231F20" stroke-width="0.001" points="15000.0,2000.0 15001.740645,2051.349 15013.925155,2059.1819 15059.1819,2057.441255 15058.311575,2026.979985 15068.75544,2019.147085 15067.014795,1996.51871 15000.0,2000.0" />
<polygon fill="none" stroke="#231F20" stroke-width="0.001" points="16000.0,2000.0 15997.389035,2050.47868 16065.274155,2052.21932 16066.144475,1999.12968 16000.0,2000.0" />
<polygon fill="none" stroke="#231F20" stroke-width="0.001" points="17000.0,2000.0 17057.441255,1997.389035 17068.75544,1990.42646 17059.1819,1931.24456 17028.720625,1912.097475 16996.51871,1919.06005 17000.0,2000.0" />
<polygon fill="none" stroke="#231F20" stroke-width="0.001" points="18000.0,2000.0 18057.441255,1990.42646 18057.441255,2040.034815 18050.47868,2058.311575 18017.40644,2060.05222 18000.0,2040.034815 18000.0,2000.0" />
<polygon fill="none" stroke="#231F20" stroke-width="0.001" points="19000.0,2000.0 18983.46388,1986.074845 18984.334205,1938.207135 19102.698,1926.022625 19122.715405,1927.76327 19119.23412,1965.18712 19100.957355,1992.1671 19056.57093,1993.037425 19000.0,2000.0" />
<polygon fill="none" stroke="#231F20" stroke-width="0.001" points="20000.0,2000.0 19993.907745,2013.925155 19994.77807,2027.850305 20122.715405,2026.10966 20122.715405,2000.0 20000.0,2000.0" />
<polygon fill="none" stroke="#231F20" stroke-width="0.001" points="21000.0,2000.0 21003.48129,2076.58834 21013.925155,2087.902525 21071.366405,2080.069625 21083.550915,2058.311575 21080.93995,1993.907745 21000.0,2000.0" />
<polygon fill="none" stroke="#231F20" stroke-width="0.001" points="22000.0,2000.0 22002.610965,2069.625765 22030.46127,2079.199305 22090.51349,2076.58834 22089.64317,1999.12968 22000.0,2000.0" />
<polygon fill="none" stroke="#231F20" stroke-width="0.001" points="23000.0,2000.0 22999.12968,2032.201915 23016.53612,2049.608355 23117.493475,2049.608355 23120.10444,1998.259355 23000.0,2000.0" />
<polygon fill="none" stroke="#231F20" stroke-width="0.001" points="24000.0,2000.0 24001.740645,2031.331595 24011.314185,2041.77546 24020.017405,2028.720625 24033.072235,2039.1644900000001 24040.905135,1997.389035 24000.0,2000.0" />
<polygon fill="none" stroke="#231F20" stroke-width="0.001" points="25000.0,2000.0 25046.99739,1993.907745 25055.70061,2025.23934 25047.86771,2034.81288 25034.81288,2036.553525 25023.498695,2044.386425 25004.35161,2039.1644900000001 25000.0,2000.0" />
<polygon fill="none" stroke="#231F20" stroke-width="0.001" points="26000.0,2000.0 25998.259355,2029.59095 26020.017405,2036.553525 26027.850305,2033.072235 26027.850305,1998.259355 26000.0,2000.0" />
<polygon fill="none" stroke="#231F20" stroke-width="0.001" points="27000.0,2000.0 27000.0,2014.795475 27006.962575,2052.21932 27000.0,2094.8651 26926.89295,2095.735425 26900.78329,2080.069625 26899.042645,2033.94256 26908.616185,2014.795475 26908.616185,1998.259355 27000.0,2000.0" />
<polygon fill="none" stroke="#231F20" stroke-width="0.001" points="28000.0,2000.0 27995.64839,2026.10966 28045.256745,2024.369015 28050.47868,2020.017405 28049.608355,2001.740645 28044.386425,1979.982595 28000.0,2000.0" />
<polygon fill="none" stroke="#231F20" stroke-width="0.001" points="29000.0,2000.0 29006.962575,2046.99739 29049.608355,2053.089645 29047.86771,2011.314185 29033.072235,2010.443865 29018.276765,1994.77807 29000.0,2000.0" />
<polygon fill="none" stroke="#231F20" stroke-width="0.001" points="30000.0,2000.0 30031.331595,1993.907745 30041.77546,2003.48129 30039.16449,2075.718015 30012.18451,2082.680595 30003.48129,2069.625765 30000.0,2000.0" />
<polygon fill="none" stroke="#231F20" stroke-width="0.001" points="31000.0,2000.0 31032.201915,2002.610965 31034.81288,2018.276765 31040.034815,2024.369015 31039.16449,2046.12707 31029.59095,2067.014795 31000.87032,2064.40383 31000.0,2000.0" />
<polygon fill="none" stroke="#231F20" stroke-width="0.001" points="32000.0,2000.0 32033.072235,2003.48129 32034.81288,2137.51088 32053.089645,2139.251525 32055.70061,2150.56571 32041.77546,2155.787645 32026.979985,2156.657965 32011.314185,2129.677985 32006.962575,2088.772845 31996.51871,2073.10705 32000.0,2000.0" />
<polygon fill="none" stroke="#231F20" stroke-width="0.001" points="33000.0,2000.0 33002.32028,2100.957355 32961.70583,2098.637075 32960.54482,2091.6745 32939.65709,2091.6745 32939.65709,2077.74935 32923.41166,2073.10705 32914.128805,2064.983465 32916.449085,2009.282855 32936.175805,2000.0 33000.0,2000.0" />
<polygon fill="none" stroke="#231F20" stroke-width="0.001" points="34000.0,2000.0 34026.689295,1988.396865 34054.5396,1976.791995 34095.15405,1983.75457 34109.0792,2002.32202 34112.56049,2048.738035 34098.635335,2062.663185 34084.710185,2062.663185 34073.10705,2055.70061 34051.05831,2058.02263 34029.009575,2068.466495 33997.67798,2054.54134 34000.0,2000.0" />
<polygon fill="none" stroke="#231F20" stroke-width="0.001" points="35000.0,2000.0 35008.121845,2074.26806 35012.764145,2100.957355 34995.3577,2110.24021 34960.54482,2107.91993 34916.449085,2076.58834 34918.769365,2012.764145 34976.79025,1995.3577 35000.0,2000.0" />
<polygon fill="none" stroke="#231F20" stroke-width="0.001" points="36000.0,2000.0 36044.095735,1993.6188 36076.58834,2029.59095 36058.02089,2055.120975 36048.738035,2079.489995 35885.11749,2073.688425 35888.59878,1992.45779 36000.0,2000.0" />
<polygon fill="none" stroke="#231F20" stroke-width="0.001" points="37000.0,2000.0 37001.15927,2034.81288 37060.341165,2041.77546 37069.625765,2025.528285 37097.47607,2018.56571 37089.35248,2005.801565 37000.0,2000.0" />
<polygon fill="none" stroke="#231F20" stroke-width="0.001" points="38000.0,2000.0 38004.6423,2066.144475 37924.57267,2071.94604 37918.769365,2061.502175 37921.091385,2027.850305 37940.8181,2025.528285 37944.29939,2000.0 38000.0,2000.0" />
<polygon fill="none" stroke="#231F20" stroke-width="0.001" points="39000.0,2000.0 38995.359445,2098.635335 38912.967795,2100.957355 38907.16623,2080.069625 38928.05396,2069.625765 38928.05396,2053.37859 38917.610095,2038.29417 38922.25239,2009.282855 38918.771105,1984.91384 38980.27328,1988.395125 39000.0,2000.0" />
<polygon fill="none" stroke="#231F20" stroke-width="0.001" points="40000.0,2000.0 39940.8181,1998.84073 39932.694515,1915.289815 39988.395125,1915.289815 40001.15927,1938.497825 40000.0,2000.0" />
<polygon fill="none" stroke="#231F20" stroke-width="0.001" points="41000.0,2000.0 41081.228895,2002.32028 41088.19147,2073.10705 41008.121845,2080.069625 40996.51871,2073.10705 41000.0,2000.0" />
<polygon fill="none" stroke="#231F20" stroke-width="0.001" points="42000.0,2000.0 42002.32028,2006.962575 42004.640555,2041.77546 41987.234115,2041.77546 41974.469975,2032.492605 41951.261965,2032.492605 41951.261965,1997.67972 42000.0,2000.0" />
<polygon fill="none" stroke="#231F20" stroke-width="0.001" points="43000.0,2000.0 42995.359445,2042.936465 42953.583985,2042.936465 42952.422975,2005.801565 43000.0,2000.0" />
<polygon fill="none" stroke="#231F20" stroke-width="0.001" points="44000.0,2000.0 43998.84073,2042.936465 44025.530025,2042.936465 44031.331595,2034.81288 44031.331595,2008.123585 44018.56745,1996.51871 44000.0,2000.0" />
<polygon fill="none" stroke="#231F20" stroke-width="0.001" points="45000.0,2000.0 44997.67972,2030.170585 45000.0,2044.095735 45026.689295,2042.936465 45030.170585,2003.48129 45000.0,2000.0" />
<polygon fill="none" stroke="#231F20" stroke-width="0.001" points="46000.0,2000.0 45989.556135,2010.443865 45997.67972,2027.850305 46045.256745,2026.689295 46056.86162,2005.801565 46045.256745,2001.16101 46000.0,2000.0" />
<polygon fill="none" stroke="#231F20" stroke-width="0.001" points="47000.0,2000.0 46997.67972,2044.095735 47035.97389,2051.05831 47055.70061,2039.45344 47059.1819,2016.24543 47041.77546,2002.32028 47000.0,2000.0" />
<polygon fill="none" stroke="#231F20" stroke-width="0.001" points="48000.0,2000.0 47990.715405,2034.81288 48015.08442,2044.097475 48042.934725,2034.81288 48051.05831,2003.48129 48039.45344,2003.48129 48000.0,2000.0" />
<polygon fill="none" stroke="#231F20" stroke-width="0.001" points="0.0,2000.0 8.121845,2053.38033 5.801565,2118.363795 30.170585000000003,2142.732815 62.663185,2140.412535 62.663185,2062.663185 73.10705,2017.40644 60.341165,2016.24543 52.219319999999996,1988.395125 0.0,2000.0" />
<polygon fill="none" stroke="#231F20" stroke-width="0.001" points="1000.0,3000.0 997.67972,3069.625765 1041.77546,3041.77546 1044.095735,2996.51871 1000.0,3000.0" />
<polygon fill="none" stroke="#231F20" stroke-width="0.001" points="2000.0,3000.0 1997.67798,3022.04874 1912.967795,3022.04874 1915.288075,2994.198435 2000.0,3000.0" />
<polygon fill="none" stroke="#231F20" stroke-width="0.001" points="3000.0,3000.0 2981.43255,3022.04874 2983.75283,3071.94604 2998.83899,3083.550915 3067.303745,3071.94604 3146.2141,3078.908615 3162.459535,3041.77546 3128.80766,3005.801565 3093.99478,2990.717145 3000.0,3000.0" />
<polygon fill="none" stroke="#231F20" stroke-width="0.001" points="4000.0,3000.0 3998.84073,3048.738035 3914.128805,3054.5396 3888.59878,3076.58834 3878.154915,3073.10705 3878.154915,2991.876415 3945.4604,2993.037425 4000.0,3000.0" />
<polygon fill="none" stroke="#231F20" stroke-width="0.001" points="5000.0,3000.0 5002.32028,3075.42907 4987.234115,3106.760665 4945.45866,3106.760665 4940.8181,2980.27328 5000.0,3000.0" />
<polygon fill="none" stroke="#231F20" stroke-width="0.001" points="6000.0,3000.0 6000.0,3018.56745 5983.75457,3016.24717 5986.074845,2997.67972 6000.0,3000.0" />
<polygon fill="none" stroke="#231F20" stroke-width="0.001" points="7000.0,3000.0 6999.420365,3036.553525 6972.149695,3035.392515 6972.72933,2998.259355 7000.0,3000.0" />
<polygon fill="none" stroke="#231F20" stroke-width="0.001" points="8000.0,3000.0 8000.579635,3049.897305 8078.908615,3052.21932 8129.96867,3025.528285 8119.524805,2988.395125 8078.908615,3000.0 8000.0,3000.0" />
<polygon fill="none" stroke="#231F20" stroke-width="0.001" points="9000.0,3000.0 9005.801565,2986.074845 9033.65187,3000.0 9082.389905,3002.32028 9071.94604,3013.925155 9051.05831,3026.689295 9048.738035,3049.897305 8997.67798,3039.4534400000002 9000.0,3000.0" />
<polygon fill="none" stroke="#231F20" stroke-width="0.001" points="10000.0,3000.0 10000.0,3042.936465 9944.29939,3042.936465 9948.939945,3002.32202 10000.0,3000.0" />
<polygon fill="none" stroke="#231F20" stroke-width="0.001" points="11000.0,3000.0 11000.581375,3061.502175 10956.4839,3062.663185 10951.84334,3017.40644 10975.05135,3017.40644 10973.89034,3000.0 11000.0,3000.0" />
<polygon fill="none" stroke="#231F20" stroke-width="0.001" points="12000.0,3000.0 12005.803305,3032.492605 12063.824195,3034.81288 12064.985205,3008.123585 12048.738035,2976.791995 12006.962575,2987.235855 12000.0,3000.0" />
<polygon fill="none" stroke="#231F20" stroke-width="0.001" points="13000.0,3000.0 13021.467365,3027.850305 13040.034815,3024.369015 13043.5161,3013.925155 13041.19408,2939.65709 13026.10966,2921.08964 13019.147085,2919.930375 13016.825065,2938.496085 13000.579635,2952.421235 13000.0,3000.0" />
<polygon fill="none" stroke="#231F20" stroke-width="0.001" points="14000.0,3000.0 13998.83899,2951.261965 14035.97215,2951.261965 14037.13316,3000.0 14000.0,3000.0" />
<polygon fill="none" stroke="#231F20" stroke-width="0.001" points="15000.0,3000.0 14986.074845,2994.77807 14984.91558,2969.24804 14995.359445,2959.965185 15100.957355,2964.605745 15098.637075,2999.418625 15000.0,3000.0" />
<polygon fill="none" stroke="#231F20" stroke-width="0.001" points="16000.0,3000.0 15987.235855,3018.56571 16006.962575,3040.61445 16037.13316,3040.61445 16035.97389,3000.0 16000.0,3000.0" />
<polygon fill="none" stroke="#231F20" stroke-width="0.001" points="17000.0,3000.0 16997.67972,3040.61445 16987.235855,3053.38033 16943.14012,3032.492605 16937.336815,3004.6423 16952.422975,2988.395125 17000.0,3000.0" />
<polygon fill="none" stroke="#231F20" stroke-width="0.001" points="18000.0,3000.0 18052.21932,2995.3577 18051.060055,2964.02611 18034.81288,2944.29939 18029.011315,2914.128805 17997.67972,2918.769365 17994.198435,2955.904265 18000.0,3000.0" />
<polygon fill="none" stroke="#231F20" stroke-width="0.001" points="19000.0,3000.0 19008.123585,3026.689295 18958.22454,3030.170585 18957.063535,3001.15927 19000.0,3000.0" />
<polygon fill="none" stroke="#231F20" stroke-width="0.001" points="20000.0,3000.0 20000.0,3035.97389 20019.72672,3046.417755 20037.13316,3067.305485 20055.70061,3067.305485 20074.26806,3045.256745 20078.908615,3026.689295 20075.42733,2997.67972 20000.0,3000.0" />
<polygon fill="none" stroke="#231F20" stroke-width="0.001" points="21000.0,3000.0 21002.32028,3044.095735 21049.899045,3045.256745 21047.577025,3013.925155 21023.208005,3000.0 21000.0,3000.0" />
<polygon fill="none" stroke="#231F20" stroke-width="0.001" points="22000.0,3000.0 22001.15927,3034.81288 22073.10705,3035.97389 22078.908615,3000.0 22000.0,3000.0" />
<polygon fill="none" stroke="#231F20" stroke-width="0.001" points="23000.0,3000.0 23004.640555,3031.331595 22988.395125,3038.29417 22938.496085,3033.65187 22959.38381,2996.51871 23000.0,3000.0" />
<polygon fill="none" stroke="#231F20" stroke-width="0.001" points="24000.0,3000.0 24000.0,3025.528285 24052.21932,3027.850305 24056.86162,3013.925155 24039.45518,2996.51871 24000.0,3000.0" />
<polygon fill="none" stroke="#231F20" stroke-width="0.001" points="25000.0,3000.0 24997.67972,3020.88773 24997.67972,3041.77546 25041.77546,3041.77546 25038.29417,3008.123585 25000.0,3000.0" />
<polygon fill="none" stroke="#231F20" stroke-width="0.001" points="26000.0,3000.0 25968.668405,2998.84073 25967.507395,3024.369015 26011.604875,3026.691035 26011.604875,3004.6423 26000.0,3000.0" />
<polygon fill="none" stroke="#231F20" stroke-width="0.001" points="27000.0,3000.0 27001.16101,3030.170585 26993.037425,3041.77546 26957.063535,3034.81288 26964.02611,2994.198435 27000.0,3000.0" />
<polygon fill="none" stroke="#231F20" stroke-width="0.001" points="28000.0,3000.0 28002.97302,3016.51697 27975.630985,3014.50653 27975.630985,2998.259355 28000.0,3000.0" />
<polygon fill="none" stroke="#231F20" stroke-width="0.001" points="29000.0,3000.0 28996.51871,3026.691035 28961.70583,3022.04874 28965.18712,3005.803305 28979.11227,2997.67972 29000.0,3000.0" />
<polygon fill="none" stroke="#231F20" stroke-width="0.001" points="30000.0,3000.0 30004.6423,3009.282855 29995.3577,3015.08442 29926.89295,3013.925155 29924.57267,3000.0 30000.0,3000.0" />
<polygon fill="none" stroke="#231F20" stroke-width="0.001" points="31000.0,3000.0 31002.32028,3032.492605 31018.56571,3046.417755 31046.416015,3046.417755 31044.095735,2998.83899 31000.0,3000.0" />
<polygon fill="none" stroke="#231F20" stroke-width="0.001" points="32000.0,3000.0 32005.801565,3010.443865 32025.530025,3011.604875 32030.170585,2998.84073 32033.65187,2964.02785 32001.16101,2964.02785 32000.0,3000.0" />
<polygon fill="none" stroke="#231F20" stroke-width="0.001" points="33000.0,3000.0 33016.24543,2984.91384 33041.77546,2984.91384 33058.02089,3017.40644 33049.897305,3032.492605 33002.32028,3032.492605 33000.0,3000.0" />
<polygon fill="none" stroke="#231F20" stroke-width="0.001" points="34000.0,3000.0 34002.32202,3048.738035 33994.198435,3056.86162 33946.62141,3054.5396 33946.62141,3013.925155 34000.0,3000.0" />
<polygon fill="none" stroke="#231F20" stroke-width="0.001" points="35000.0,3000.0 34998.84073,3025.528285 35023.20975,3030.170585 35054.54134,3025.528285 35061.503915,3004.640555 35020.88773,2996.51871 35000.0,3000.0" />
<polygon fill="none" stroke="#231F20" stroke-width="0.001" points="36000.0,3000.0 35990.717145,3009.284595 35990.717145,3038.29417 36040.61445,3047.578765 36061.502175,3040.61619 36062.663185,3009.284595 36049.899045,2997.67972 36000.0,3000.0" />
<polygon fill="none" stroke="#231F20" stroke-width="0.001" points="37000.0,3000.0 36991.878155,3006.962575 36993.037425,3046.417755 36997.67972,3062.663185 37056.86162,3061.503915 37068.466495,3029.011315 37068.466495,2996.51871 37000.0,3000.0" />
<polygon fill="none" stroke="#231F20" stroke-width="0.001" points="38000.0,3000.0 38009.282855,3027.850305 38027.850305,3027.850305 38037.13316,3035.97389 38053.38033,3032.492605 38080.069625,3022.04874 38078.908615,2996.51871 38000.0,3000.0" />
<polygon fill="none" stroke="#231F20" stroke-width="0.001" points="39000.0,3000.0 39000.0,3035.97389 39008.123585,3044.095735 39039.45518,3041.77546 39048.738035,3031.331595 39044.095735,3000.0 39000.0,3000.0" />
<polygon fill="none" stroke="#231F20" stroke-width="0.001" points="40000.0,3000.0 40016.24543,3015.08616 40013.925155,3040.61445 39997.67972,3048.738035 39932.694515,3045.256745 39925.73194,3035.97389 39958.22454,3000.0 40000.0,3000.0" />
<polygon fill="none" stroke="#231F20" stroke-width="0.001" points="41000.0,3000.0 41002.32202,3038.29417 41061.503915,3040.61445 41066.144475,3010.443865 41000.0,3000.0" />
<polygon fill="none" stroke="#231F20" stroke-width="0.001" points="42000.0,3000.0 42001.16101,3044.095735 42017.40644,3041.77546 42029.011315,3033.65187 42023.20975,2990.717145 42000.0,3000.0" />
<polygon fill="none" stroke="#231F20" stroke-width="0.001" points="43000.0,3000.0 43000.0,3033.65361 43024.369015,3033.65361 43037.1349,3019.72846 43027.850305,3003.48129 43000.0,3000.0" />
<polygon fill="none" stroke="#231F20" stroke-width="0.001" points="44000.0,3000.0 43996.51871,3015.08442 44035.97389,3016.24543 44039.45518,3006.962575 44029.011315,3004.640555 44030.172325,2996.51871 44000.0,3000.0" />
<polygon fill="none" stroke="#231F20" stroke-width="0.001" points="45000.0,3000.0 45012.765885,2993.037425 45052.21932,2990.717145 45063.824195,3002.32028 45084.711925,3015.08616 45074.26806,3023.208005 45061.503915,3023.208005 45061.503915,3033.65187 45001.16101,3032.492605 44998.84073,3017.40644 45000.0,3000.0" />
<polygon fill="none" stroke="#231F20" stroke-width="0.001" points="46000.0,3000.0 46023.20975,2974.471715 46058.02263,2976.791995 46067.305485,2984.91558 46067.305485,3031.331595 46063.824195,3040.61619 46002.32202,3035.97389 46000.0,3000.0" />
<polygon fill="none" stroke="#231F20" stroke-width="0.001" points="47000.0,3000.0 46998.84073,3027.850305 47008.123585,3033.65361 47015.08616,3026.691035 47015.08616,2995.359445 47000.0,3000.0" />
<polygon fill="none" stroke="#231F20" stroke-width="0.001" points="48000.0,3000.0 48005.801565,3031.331595 48017.40644,3039.4534400000002 48040.61445,3035.97215 48033.65187,2997.67798 48000.0,3000.0" />
<polygon fill="none" stroke="#231F20" stroke-width="0.001" points="0.0,3000.0 0.0,3032.492605 -9.282855,3049.899045 6.962574999999999,3059.1819 51.058310000000006,3061.503915 53.38033,3017.40644 41.77546,3011.604875 41.77546,2990.717145 9.282855,2990.717145 0.0,3000.0" />
<polygon fill="none" stroke="#231F20" stroke-width="0.001" points="1000.0,4000.0 997.67972,4022.04874 1042.790255,4025.24108 1039.45518,4012.765885 1039.45518,4003.48129 1000.0,4000.0" />
<polygon fill="none" stroke="#231F20" stroke-width="0.001" points="2000.0,4000.0 1998.83899,4023.208005 1972.149695,4020.88773 1973.308965,3998.83899 2000.0,4000.0" />
<polygon fill="none" stroke="#231F20" stroke-width="0.001" points="3000.0,4000.0 3005.801565,4018.56745 2995.439515,4042.67363 2916.449085,4033.65187 2885.11749,4027.850305 2925.73194,4015.08616 2974.469975,4012.764145 3000.0,4000.0" />
<polygon fill="none" stroke="#231F20" stroke-width="0.001" points="4000.0,4000.0 4074.26632,4000.0 4080.069625,4016.24543 4073.10705,4033.65187 4000.0,4033.65187 3993.037425,4020.88773 4000.0,4000.0" />
<polygon fill="none" stroke="#231F20" stroke-width="0.001" points="5000.0,4000.0 4996.630115,4032.306355 4961.81723,4034.628375 4962.97824,3999.81549 5000.0,4000.0" />
<polygon fill="none" stroke="#231F20" stroke-width="0.001" points="6000.0,4000.0 6005.801565,4006.962575 6000.0,4025.528285 5962.86684,4029.009575 5960.54482,4008.121845 6000.0,4000.0" />
<polygon fill="none" stroke="#231F20" stroke-width="0.001" points="7000.0,4000.0 7000.0,4016.24543 6959.38381,4019.72672 6957.063535,4001.16101 7000.0,4000.0" />
<polygon fill="none" stroke="#231F20" stroke-width="0.001" points="8000.0,4000.0 7998.83899,4046.416015 7969.829415,4046.416015 7960.54482,4034.81288 7960.54482,4010.443865 8000.0,4000.0" />
<polygon fill="none" stroke="#231F20" stroke-width="0.001" points="9000.0,4000.0 8986.074845,4017.40644 9012.765885,4032.492605 9084.711925,4026.691035 9075.42907,4001.16101 9000.0,4000.0" />
<polygon fill="none" stroke="#231F20" stroke-width="0.001" points="10000.0,4000.0 10000.0,4029.009575 10105.599655,4025.528285 10124.165365,4010.443865 10118.363795,4001.15927 10000.0,4000.0" />
<polygon fill="none" stroke="#231F20" stroke-width="0.001" points="11000.0,4000.0 11007.10705,4023.061795 11051.204525,4023.061795 11048.882505,4004.496085 11000.0,4000.0" />
<polygon fill="none" stroke="#231F20" stroke-width="0.001" points="12000.0,4000.0 11996.51871,4022.04874 11970.988685,4022.04874 11969.829415,3996.51871 12000.0,4000.0" />
<polygon fill="none" stroke="#231F20" stroke-width="0.001" points="13000.0,4000.0 12982.59356,4020.88773 12865.39077,4022.04874 12856.106175,4004.6423 12864.229765,3997.67972 13000.0,4000.0" />
<polygon fill="none" stroke="#231F20" stroke-width="0.001" points="14000.0,4000.0 13990.717145,4030.170585 13948.94169,4030.170585 13936.177545,4022.04874 13936.177545,4006.962575 13969.829415,3996.51871 14000.0,4000.0" />
<polygon fill="none" stroke="#231F20" stroke-width="0.001" points="15000.0,4000.0 15059.1819,4000.0 15059.1819,4030.170585 15047.577025,4040.61445 15009.282855,4040.61445 15000.0,4031.331595 15000.0,4000.0" />
<polygon fill="none" stroke="#231F20" stroke-width="0.001" points="16000.0,4000.0 16000.0,4054.5396 15990.717145,4062.663185 15973.310705,4059.1819 15930.374235,4032.492605 15926.89295,4005.801565 16000.0,4000.0" />
<polygon fill="none" stroke="#231F20" stroke-width="0.001" points="17000.0,4000.0 17002.32202,4041.77546 16967.50914,4060.34291 16947.78068,4044.097475 16947.78068,3995.359445 17000.0,4000.0" />
<polygon fill="none" stroke="#231F20" stroke-width="0.001" points="18000.0,4000.0 18004.640555,4023.208005 18019.72672,4038.29417 18051.05831,4039.45518 18046.416015,3996.51871 18000.0,4000.0" />
<polygon fill="none" stroke="#231F20" stroke-width="0.001" points="19000.0,4000.0 19008.123585,4032.49086 19060.34291,4027.850305 19060.34291,4011.603135 19053.38033,3995.3577 19000.0,4000.0" />
<polygon fill="none" stroke="#231F20" stroke-width="0.001" points="20000.0,4000.0 20006.962575,4019.72672 19994.196695,4024.369015 19937.336815,4026.689295 19938.496085,3996.51871 20000.0,4000.0" />
<polygon fill="none" stroke="#231F20" stroke-width="0.001" points="21000.0,4000.0 21004.640555,4030.170585 21039.45344,4030.170585 21033.65187,3996.51871 21000.0,4000.0" />
<polygon fill="none" stroke="#231F20" stroke-width="0.001" points="22000.0,4000.0 21998.83899,4024.369015 22022.047,4024.369015 22023.208005,4000.0 22000.0,4000.0" />
<polygon fill="none" stroke="#231F20" stroke-width="0.001" points="23000.0,4000.0 23003.48129,4019.72672 22991.878155,4035.97215 22975.630985,4026.689295 22973.310705,4016.24543 22976.791995,4002.32028 23000.0,4000.0" />
<polygon fill="none" stroke="#231F20" stroke-width="0.001" points="24000.0,4000.0 24004.6423,4027.850305 23972.149695,4027.850305 23970.990425,4017.40644 23975.630985,4000.0 24000.0,4000.0" />
<polygon fill="none" stroke="#231F20" stroke-width="0.001" points="25000.0,4000.0 25008.121845,4034.81288 25022.047,4034.81288 25044.095735,4023.208005 25045.256745,3995.3577 25000.0,4000.0" />
<polygon fill="none" stroke="#231F20" stroke-width="0.001" points="26000.0,4000.0 25991.876415,4010.443865 25991.876415,4042.936465 26030.170585,4042.936465 26038.29417,4015.08616 26034.81288,3996.51871 26025.530025,4001.16101 26000.0,4000.0" />
<polygon fill="none" stroke="#231F20" stroke-width="0.001" points="27000.0,4000.0 26997.67798,4102.118365 26947.78068,4100.9573550000005 26947.78068,4000.0 27000.0,4000.0" />
<polygon fill="none" stroke="#231F20" stroke-width="0.001" points="28000.0,4000.0 28060.34291,3996.51871 28062.663185,4062.663185 28002.32028,4063.824195 28000.0,4000.0" />
<polygon fill="none" stroke="#231F20" stroke-width="0.001" points="29000.0,4000.0 29001.16101,4055.70061 29070.78677,4052.21932 29071.94778,3998.83899 29000.0,4000.0" />
<polygon fill="none" stroke="#231F20" stroke-width="0.001" points="30000.0,4000.0 29991.878155,4042.934725 30004.6423,4053.37859 30032.492605,4053.37859 30029.011315,4010.443865 30000.0,4000.0" />
<polygon fill="none" stroke="#231F20" stroke-width="0.001" points="31000.0,4000.0 31001.16101,4093.99478 30975.630985,4095.15579 30973.310705,4000.0 31000.0,4000.0" />
<polygon fill="none" stroke="#231F20" stroke-width="0.001" points="32000.0,4000.0 32001.15927,4039.4534400000002 31952.421235,4040.61445 31955.902525,3996.51871 32000.0,4000.0" />
<polygon fill="none" stroke="#231F20" stroke-width="0.001" points="33000.0,4000.0 32989.556135,4081.230635 32968.668405,4081.230635 32968.668405,4048.738035 32962.86684,4049.899045 32958.22454,4002.32028 33000.0,4000.0" />
<polygon fill="none" stroke="#231F20" stroke-width="0.001" points="34000.0,4000.0 34035.97389,3998.83899 34049.899045,4012.764145 34048.738035,4042.936465 33998.83899,4045.256745 33994.198435,4037.13316 33990.717145,4009.282855 34000.0,4000.0" />
<polygon fill="none" stroke="#231F20" stroke-width="0.001" points="35000.0,4000.0 35000.0,4082.389905 34954.743255,4084.711925 34944.29939,4030.170585 34967.507395,3996.51871 35000.0,4000.0" />
<polygon fill="none" stroke="#231F20" stroke-width="0.001" points="36000.0,4000.0 36041.77546,4004.640555 36044.095735,4037.13316 36018.56571,4047.577025 35997.67798,4033.65187 36000.0,4000.0" />
<polygon fill="none" stroke="#231F20" stroke-width="0.001" points="37000.0,4000.0 37000.0,4040.61619 37031.331595,4040.61619 37033.65187,4012.765885 37000.0,4000.0" />
<polygon fill="none" stroke="#231F20" stroke-width="0.001" points="38000.0,4000.0 38005.803305,4052.21932 38077.74935,4060.34291 38095.15579,4033.65361 38088.193215,4003.48129 38073.10705,3990.717145 38035.97389,3990.717145 38000.0,4000.0" />
<polygon fill="none" stroke="#231F20" stroke-width="0.001" points="39000.0,4000.0 39027.850305,3984.91384 39054.5396,3986.074845 39051.05831,4017.40644 39045.256745,4025.528285 39009.282855,4025.528285 39003.48129,4018.56571 39000.0,4000.0" />
<polygon fill="none" stroke="#231F20" stroke-width="0.001" points="40000.0,4000.0 40026.689295,4026.689295 40027.850305,4045.256745 40003.48129,4063.824195 39962.86684,4066.144475 39940.8181,4041.77546 39939.65709,4004.6423 40000.0,4000.0" />
<polygon fill="none" stroke="#231F20" stroke-width="0.001" points="41000.0,4000.0 41013.925155,4016.24543 41018.56571,4033.65187 40953.582245,4032.492605 40943.13838,4025.530025 40943.13838,4000.0 41000.0,4000.0" />
<polygon fill="none" stroke="#231F20" stroke-width="0.001" points="42000.0,4000.0 41998.83899,4071.94604 42008.123585,4085.871195 42068.464755,4087.032205 42059.1819,4002.32028 42000.0,4000.0" />
<polygon fill="none" stroke="#231F20" stroke-width="0.001" points="43000.0,4000.0 42993.037425,4009.282855 43003.48129,4024.369015 43061.502175,4020.88773 43063.822455,4002.32028 43054.5396,3995.3577 43000.0,4000.0" />
<polygon fill="none" stroke="#231F20" stroke-width="0.001" points="44000.0,4000.0 44002.32028,4082.389905 43988.395125,4095.15405 43911.806785,4092.83377 43972.149695,3998.83899 44000.0,4000.0" />
<polygon fill="none" stroke="#231F20" stroke-width="0.001" points="45000.0,4000.0 45000.0,4025.530025 44962.86684,4026.691035 44961.70583,4001.16101 45000.0,4000.0" />
<polygon fill="none" stroke="#231F20" stroke-width="0.001" points="46000.0,4000.0 46003.48129,4092.83551 45940.8181,4092.83551 45931.535245,4081.230635 45937.336815,4061.503915 45935.016535,4032.492605 45973.310705,3997.67972 46000.0,4000.0" />
<polygon fill="none" stroke="#231F20" stroke-width="0.001" points="47000.0,4000.0 47004.6423,4135.770235 47134.60923,4132.28895 47155.496955,4073.10705 47155.496955,4035.97389 47133.44996,4016.24543 47096.31506,4016.24543 47083.550915,3997.67972 47054.5396,3977.95126 47025.530025,3977.95126 47000.0,4000.0" />
<polygon fill="none" stroke="#231F20" stroke-width="0.001" points="48000.0,4000.0 48002.32028,4067.303745 48068.464755,4067.303745 48068.464755,4058.02089 48047.577025,4045.256745 48033.65187,4003.48129 48000.0,4000.0" />
<polygon fill="none" stroke="#231F20" stroke-width="0.001" points="0.0,4000.0 2.3202800000000003,4041.77546 47.577025,4041.77546 40.61445,4002.32028 0.0,4000.0" />
<polygon fill="none" stroke="#231F20" stroke-width="0.001" points="1000.0,5000.0 1056.825065,4996.65274 1062.6631849999999,5017.40644 1035.97215,5042.934725 1000.0,5033.65187 1000.0,5000.0" />
<polygon fill="none" stroke="#231F20" stroke-width="0.001" points="2000.0,5000.0 2000.0,5035.97389 2027.850305,5054.54134 2046.416015,5054.54134 2047.577025,5010.443865 2000.0,5000.0" />
<polygon fill="none" stroke="#231F20" stroke-width="0.001" points="3000.0,5000.0 3047.578765,5000.0 3048.738035,5029.011315 3030.172325,5047.577025 3000.0,5056.86162 2994.198435,5047.577025 3000.0,5000.0" />
<polygon fill="none" stroke="#231F20" stroke-width="0.001" points="4000.0,5000.0 4012.765885,5052.21932 4054.54134,5049.897305 4074.26806,5018.56571 4074.26806,5002.32028 4047.578765,4994.196695 4004.6423,5001.15927 4000.0,5000.0" />
<polygon fill="none" stroke="#231F20" stroke-width="0.001" points="5000.0,5000.0 4996.51871,5039.45518 5023.208005,5055.70061 5045.256745,5049.899045 5055.70061,5031.331595 5053.38033,5001.16101 5000.0,5000.0" />
<polygon fill="none" stroke="#231F20" stroke-width="0.001" points="6000.0,5000.0 6002.32028,5040.61619 5969.827675,5040.61619 5960.54482,5006.962575 6000.0,5000.0" />
<polygon fill="none" stroke="#231F20" stroke-width="0.001" points="7000.0,5000.0 7001.16101,5070.78677 7015.08616,5068.464755 7023.20975,5049.899045 7055.70061,5031.331595 7033.65361,4996.51871 7000.0,5000.0" />
<polygon fill="none" stroke="#231F20" stroke-width="0.001" points="8000.0,5000.0 7995.3577,5011.603135 8003.48129,5060.341165 8027.850305,5060.341165 8061.502175,5049.897305 8080.069625,4998.83899 8064.983465,4990.715405 8000.0,5000.0" />
<polygon fill="none" stroke="#231F20" stroke-width="0.001" points="9000.0,5000.0 8995.359445,5006.962575 9000.0,5052.21932 9032.492605,5064.983465 9062.663185,5051.05831 9059.1819,5008.121845 9051.060055,5000.0 9000.0,5000.0" />
<polygon fill="none" stroke="#231F20" stroke-width="0.001" points="10000.0,5000.0 9997.67798,5033.65361 10008.121845,5052.21932 10034.81288,5069.625765 10064.983465,5067.305485 10076.58834,5055.70061 10071.94604,4995.359445 10000.0,5000.0" />
<polygon fill="none" stroke="#231F20" stroke-width="0.001" points="11000.0,5000.0 11003.48129,5015.08616 11032.49086,5027.850305 11132.28895,5027.850305 11132.28895,4996.51871 11000.0,5000.0" />
<polygon fill="none" stroke="#231F20" stroke-width="0.001" points="12000.0,5000.0 12006.962575,4984.91384 12056.86162,4981.43255 12080.069625,4995.3577 12098.637075,5012.764145 12112.56223,5040.61445 12112.56223,5083.550915 12017.40644,5087.032205 12000.0,5075.42733 12000.0,5000.0" />
<polygon fill="none" stroke="#231F20" stroke-width="0.001" points="13000.0,5000.0 13002.32202,5048.738035 13020.88773,5052.21932 13026.691035,5058.02089 13056.86162,5056.86162 13062.663185,5033.65187 13053.38033,5032.492605 13053.38033,5008.123585 13026.691035,4994.198435 13000.0,5000.0" />
<polygon fill="none" stroke="#231F20" stroke-width="0.001" points="14000.0,5000.0 13975.630985,5029.011315 13977.953,5074.26806 13967.50914,5093.99478 13984.91558,5105.599655 14044.097475,5107.91993 14056.86162,5092.83377 14049.899045,5027.850305 14000.0,5000.0" />
<polygon fill="none" stroke="#231F20" stroke-width="0.001" points="15000.0,5000.0 15006.962575,5023.20975 14995.359445,5044.097475 14943.14012,5044.097475 14937.336815,5023.20975 14947.78068,4997.67972 15000.0,5000.0" />
<polygon fill="none" stroke="#231F20" stroke-width="0.001" points="16000.0,5000.0 15901.362925,4996.51871 15928.05222,4916.449085 15939.65709,4908.3255 15973.308965,4924.57093 15973.308965,4951.261965 15970.988685,4961.70583 15998.83899,4974.469975 16000.0,5000.0" />
<polygon fill="none" stroke="#231F20" stroke-width="0.001" points="17000.0,5000.0 17026.689295,5000.0 17034.81288,5026.689295 17055.70061,5031.331595 17053.37859,5083.550915 16988.395125,5082.389905 17000.0,5000.0" />
<polygon fill="none" stroke="#231F20" stroke-width="0.001" points="18000.0,5000.0 18029.011315,5033.65361 18026.689295,5088.193215 17980.27328,5085.872935 17977.95126,5003.48129 18000.0,5000.0" />
<polygon fill="none" stroke="#231F20" stroke-width="0.001" points="19000.0,5000.0 19030.170585,4997.67798 19048.738035,5023.208005 19048.738035,5035.97215 19012.764145,5035.97215 18996.51871,5020.88773 19000.0,5000.0" />
<polygon fill="none" stroke="#231F20" stroke-width="0.001" points="20000.0,5000.0 19993.037425,5118.363795 20004.640555,5132.28895 20059.1819,5135.770235 20071.94604,5110.24195 20073.10705,5084.711925 20063.822455,5071.94778 20058.02089,5053.38033 20080.069625,5040.61619 20091.67276,5020.88773 20070.78503,5002.32202 20000.0,5000.0" />
<polygon fill="none" stroke="#231F20" stroke-width="0.001" points="21000.0,5000.0 20995.359445,5076.58834 20930.374235,5074.26632 20930.374235,5062.663185 20966.34813,4996.51871 21000.0,5000.0" />
<polygon fill="none" stroke="#231F20" stroke-width="0.001" points="22000.0,5000.0 21995.3577,5083.550915 21976.791995,5083.550915 21946.61967,5035.97389 21947.78068,4998.84073 22000.0,5000.0" />
<polygon fill="none" stroke="#231F20" stroke-width="0.001" points="23000.0,5000.0 23008.121845,5070.78677 23012.764145,5077.74935 23066.144475,5076.58834 23054.5396,5063.824195 23074.26632,5000.0 23000.0,5000.0" />
<polygon fill="none" stroke="#231F20" stroke-width="0.001" points="24000.0,5000.0 24000.0,5034.81288 23995.3577,5044.095735 23938.497825,5046.417755 23922.25065,5025.530025 23928.05396,5003.48129 24000.0,5000.0" />
<polygon fill="none" stroke="#231F20" stroke-width="0.001" points="25000.0,5000.0 25076.58834,4996.51871 25077.74935,5031.331595 25068.466495,5045.256745 25059.1819,5045.256745 25052.21932,5041.77546 25041.77546,5048.738035 25013.925155,5047.578765 24998.84073,5031.331595 25000.0,5000.0" />
<polygon fill="none" stroke="#231F20" stroke-width="0.001" points="26000.0,5000.0 25997.67972,5026.689295 25977.953,5037.13316 25958.22454,5039.45344 25931.535245,5029.009575 25921.091385,5018.56571 25925.73368,4998.83899 26000.0,5000.0" />
<polygon fill="none" stroke="#231F20" stroke-width="0.001" points="27000.0,5000.0 27000.0,5034.81288 27071.94778,5031.331595 27051.060055,4998.83899 27000.0,5000.0" />
<polygon fill="none" stroke="#231F20" stroke-width="0.001" points="28000.0,5000.0 28003.48129,5030.172325 27935.016535,5032.492605 27929.21323,5001.16101 27962.86684,4998.84073 27973.310705,4991.878155 28000.0,5000.0" />
<polygon fill="none" stroke="#231F20" stroke-width="0.001" points="29000.0,5000.0 29000.0,5034.81288 28958.22454,5032.49086 28953.583985,5024.369015 28948.94169,5000.0 28955.904265,4995.3577 29000.0,5000.0" />
<polygon fill="none" stroke="#231F20" stroke-width="0.001" points="30000.0,5000.0 30006.962575,5019.72846 29968.668405,5030.172325 29946.62141,5013.925155 29953.583985,5000.0 29967.50914,4988.396865 30000.0,5000.0" />
<polygon fill="none" stroke="#231F20" stroke-width="0.001" points="31000.0,5000.0 31010.443865,5041.77546 31020.88773,5051.05831 31060.34291,5051.05831 31073.10705,5029.011315 31073.10705,5011.604875 31046.417755,4995.3577 31000.0,5000.0" />
<polygon fill="none" stroke="#231F20" stroke-width="0.001" points="32000.0,5000.0 31997.67972,5054.54134 32009.284595,5068.466495 32102.118365,5069.625765 32083.550915,5040.61619 32034.81288,5001.16101 32000.0,5000.0" />
<polygon fill="none" stroke="#231F20" stroke-width="0.001" points="33000.0,5000.0 32997.67798,5012.764145 33024.94865,5038.29417 33034.231505,5037.714535 33041.19408,5032.492605 33040.61445,4995.3577 33000.0,5000.0" />
<polygon fill="none" stroke="#231F20" stroke-width="0.001" points="34000.0,5000.0 34041.195825,5004.062665 34054.54134,5023.78938 34042.936465,5042.936465 33997.100085,5042.356835 33988.9765,5029.011315 33986.074845,5012.765885 34000.0,5000.0" />
<polygon fill="none" stroke="#231F20" stroke-width="0.001" points="35000.0,5000.0 35045.256745,5000.579635 35049.31767,5024.369015 35031.91123,5032.49086 35008.123585,5029.59095 34995.939075,5020.306355 35000.0,5000.0" />
<polygon fill="none" stroke="#231F20" stroke-width="0.001" points="36000.0,5000.0 35998.83899,5047.577025 36003.48129,5058.02089 36033.65187,5058.600525 36048.15666,5044.095735 36049.31767,5026.10966 36048.738035,5004.060925 36037.712795,4982.59356 36004.060925,4984.334205 36000.0,5000.0" />
<polygon fill="none" stroke="#231F20" stroke-width="0.001" points="37000.0,5000.0 37015.665795,5026.10966 37020.308095,5036.553525 36997.67972,5045.256745 36967.507395,5041.195825 36955.904265,5019.72672 36956.4839,4990.717145 37000.0,5000.0" />
<polygon fill="none" stroke="#231F20" stroke-width="0.001" points="38000.0,5000.0 38024.94865,5000.0 38025.528285,5013.343775 38019.147085,5030.170585 38006.3812,5027.26893 37988.395125,5016.825065 37988.395125,5000.579635 38000.0,5000.0" />
<polygon fill="none" stroke="#231F20" stroke-width="0.001" points="39000.0,5000.0 38991.29678,5013.925155 38998.83899,5017.40644 39003.48129,5030.75022 39075.42733,5023.208005 39076.58834,4991.876415 39044.67711,4994.196695 39037.13316,4999.418625 39029.59095,4997.098345 39000.0,5000.0" />
<polygon fill="none" stroke="#231F20" stroke-width="0.001" points="40000.0,5000.0 39998.259355,5024.94865 40036.553525,5053.37859 40070.205395,5031.331595 40092.254135,5027.850305 40099.796345,5001.740645 40000.0,5000.0" />
<polygon fill="none" stroke="#231F20" stroke-width="0.001" points="41000.0,5000.0 40998.84073,5030.170585 41026.691035,5028.42994 41033.65361,5020.88773 41048.1584,5022.628375 41053.959965,5029.59095 41091.094865,5025.528285 41099.21671,5032.49086 41110.821585,5033.65187 41123.58573,5023.78764 41119.524805,4998.83899 41103.85901,4983.173195 41006.38294,4989.556135 41000.0,5000.0" />
<polygon fill="none" stroke="#231F20" stroke-width="0.001" points="42000.0,5000.0 42052.21932,4995.3577 42053.37859,5080.069625 42041.77546,5140.9921699999995 42009.86249,5144.47346 42000.0,5000.0" />
<polygon fill="none" stroke="#231F20" stroke-width="0.001" points="43000.0,5000.0 43022.628375,4993.61706 43025.528285,4984.334205 43049.897305,4991.876415 43050.47868,5005.22193 43070.78503,5020.88773 43075.42733,5071.94604 43082.96954,5099.21671 43073.10705,5104.438645 43070.205395,5117.202785 43003.48129,5118.94343 42994.196695,5102.118365 42997.098345,5080.069625 42980.27154,5082.389905 42977.371625,5068.464755 42996.51871,5059.1819 43000.0,5000.0" />
<polygon fill="none" stroke="#231F20" stroke-width="0.001" points="44000.0,5000.0 44027.850305,4999.420365 44031.331595,4990.717145 44087.61358,4986.074845 44100.37772,4996.51871 44119.524805,4993.6188 44138.67189,4997.67972 44127.067015,5012.18451 44108.501305,5015.08616 43999.420365,5018.56745 43991.29678,5007.54395 44000.0,5000.0" />
<polygon fill="none" stroke="#231F20" stroke-width="0.001" points="45000.0,5000.0 45004.6423,5029.59095 44912.967795,5031.331595 44906.584855,5022.628375 44906.00522,4950.68059 44933.855525,4958.22454 44968.08877,4969.24804 44982.013925,4997.098345 45000.0,5000.0" />
<polygon fill="none" stroke="#231F20" stroke-width="0.001" points="46000.0,5000.0 46002.899915,5069.625765 45937.91645,5067.88512 45922.25065,5056.280245 45919.930375,4997.67798 45930.374235,4988.97476 45987.234115,4987.234115 46000.0,5000.0" />
<polygon fill="none" stroke="#231F20" stroke-width="0.001" points="47000.0,5000.0 47004.6423,5031.331595 46974.471715,5040.034815 46958.80592,5038.29417 46927.474325,5037.13316 46930.374235,5015.665795 46943.14012,5003.48129 46958.80592,4994.77807 46990.717145,4993.037425 47000.0,5000.0" />
<polygon fill="none" stroke="#231F20" stroke-width="0.001" points="48000.0,5000.0 47998.84073,5033.65187 47968.668405,5037.712795 47954.743255,5023.208005 47956.4839,5000.579635 47963.446475,4988.395125 47988.9765,4988.395125 48000.0,5000.0" />
<polygon fill="none" stroke="#231F20" stroke-width="0.001" points="0.0,5000.0 0.579635,5034.233245 -57.441255,5031.91123 -56.86162,5022.628375 -73.10705,5014.504785 -76.58834,4994.77807 -64.40383,4983.173195 -45.256745,4991.876415 0.0,5000.0" />
<polygon fill="none" stroke="#231F20" stroke-width="0.001" points="1000.0,6000.0 997.67972,6044.67711 1008.123585,6053.959965 1041.77546,6053.959965 1051.05831,6034.233245 1047.577025,6009.86423 1033.65187,5993.037425 1018.56745,5991.878155 1014.504785,5998.84073 1000.0,6000.0" />
<polygon fill="none" stroke="#231F20" stroke-width="0.001" points="2000.0,6000.0 1998.259355,5921.091385 1976.21236,5909.48651 1962.287205,5914.128805 1956.4839,5923.41166 1922.832025,5926.313315 1919.930375,5945.4604 1914.7084399999999,5945.4604 1911.80853,5986.656225 1922.25239,5996.51871 1923.993035,6002.901655 2000.0,6000.0" />
<polygon fill="none" stroke="#231F20" stroke-width="0.001" points="3000.0,6000.0 2953.582245,5997.67972 2944.29939,5968.08877 2946.61967,5950.102695 2960.54482,5951.261965 2964.02611,5932.696255 2987.81549,5933.27589 2995.3577,5958.22454 3002.32028,5958.22454 3000.0,6000.0" />
<polygon fill="none" stroke="#231F20" stroke-width="0.001" points="4000.0,6000.0 4022.047,6000.0 4026.689295,6016.24717 4017.40644,6024.95039 4002.32028,6021.469105 4000.0,6000.0" />
<polygon fill="none" stroke="#231F20" stroke-width="0.001" points="5000.0,6000.0 5001.32811,6000.226285 5024.73281,6004.175805 5030.83377,5991.32811 5039.5074,5993.8973 5043.683205,6017.665795 5042.07659,6036.61793 5027.62402,6053.963445 5009.314185,6052.356835 5000.0,6024.090515 5000.0,6000.0" />
<polygon fill="none" stroke="#231F20" stroke-width="0.001" points="6000,6000 6900,6000 6900,6900 6000,6900" />
    </g>
</g>
</svg>

