<?xml version="1.0" encoding="utf-8"?>
<!-- Generator: Adobe Illustrator 15.1.0, SVG Export Plug-In . SVG Version: 6.00 Build 0)  -->
<!DOCTYPE svg PUBLIC "-//W3C//DTD SVG 1.1//EN" "http://www.w3.org/Graphics/SVG/1.1/DTD/svg11.dtd">
<svg version="1.1" xmlns="http://www.w3.org/2000/svg" xmlns:xlink="http://www.w3.org/1999/xlink" x="0px" y="0px" width="50000px"
	 height="50000px" viewBox="0 0 50000 50000" xml:space="preserve">
<g id="Grid" display="none">
</g>
<g id="Layer_1">
</g>
<g id="Desktop">
</g>
<g id="Guides">
</g>
<g id="Page_1">
	<g id="Layer_1_1_">
	
<polygon fill="none" stroke="#231F20" stroke-width="0.001" points="1000.0,1000.0 1350.0,1000.0 1000.0,1340.0" />
<polygon fill="none" stroke="#231F20" stroke-width="0.001" points="2000.0,1000.0 2330.0,1000.0 2180.0,1150.0" />
<polygon fill="none" stroke="#231F20" stroke-width="0.001" points="3000.0,1000.0 3320.0,1000.0 3320.0,1410.0 3140.0,1330.0" />
<polygon fill="none" stroke="#231F20" stroke-width="0.001" points="4350.0,1000.0 4530.0,1150.0 4510.0,1380.0 4480.0,1620.0 4390.0,1570.0 4000.0,1340.0" />
<polygon fill="none" stroke="#231F20" stroke-width="0.001" points="5020.0,1150.0 5170.0,1000.0 5310.0,1330.0 5250.0,1340.0 5000.0,1380.0" />
<polygon fill="none" stroke="#231F20" stroke-width="0.001" points="6000.0,1000.0 6390.0,1230.0 6200.0,1260.0 6000.0,1660.0" />
<polygon fill="none" stroke="#231F20" stroke-width="0.001" points="7030.0,1040.0 7280.0,1000.0 7300.0,1180.0 7320.0,1390.0 7250.0,1370.0 7000.0,1280.0" />
<polygon fill="none" stroke="#231F20" stroke-width="0.001" points="8000.0,1010.0 8060.0,1000.0 8240.0,1080.0 8020.0,1190.0" />
<polygon fill="none" stroke="#231F20" stroke-width="0.001" points="9000.0,1110.0 9220.0,1000.0 9020.0,1320.0" />
<polygon fill="none" stroke="#231F20" stroke-width="0.001" points="10000.0,1320.0 10200.0,1000.0 10200.0,1370.0" />
<polygon fill="none" stroke="#231F20" stroke-width="0.001" points="11010.0,1000.0 11260.0,1090.0 11000.0,1150.0" />
<polygon fill="none" stroke="#231F20" stroke-width="0.001" points="12000.0,1030.0 12190.0,1000.0 12280.0,1050.0 12270.0,1200.0 12240.0,1430.0" />
<polygon fill="none" stroke="#231F20" stroke-width="0.001" points="13200.0,1000.0 13440.0,1400.0 13000.0,1400.0" />
<polygon fill="none" stroke="#231F20" stroke-width="0.001" points="14030.0,1060.0 14290.0,1000.0 14360.0,1020.0 14000.0,1290.0" />
<polygon fill="none" stroke="#231F20" stroke-width="0.001" points="15000.0,1270.0 15360.0,1000.0 15560.0,1270.0" />
<polygon fill="none" stroke="#231F20" stroke-width="0.001" points="16000.0,1000.0 16200.0,1050.0 16200.0,1270.0" />
<polygon fill="none" stroke="#231F20" stroke-width="0.001" points="17000,1000 18000.1,1000 18000.1,2000.1 17000,2000.1" />
    </g>
</g>
</svg>

