<?xml version="1.0" encoding="utf-8"?>
<!-- Generator: Adobe Illustrator 15.1.0, SVG Export Plug-In . SVG Version: 6.00 Build 0)  -->
<!DOCTYPE svg PUBLIC "-//W3C//DTD SVG 1.1//EN" "http://www.w3.org/Graphics/SVG/1.1/DTD/svg11.dtd">
<svg version="1.1" xmlns="http://www.w3.org/2000/svg" xmlns:xlink="http://www.w3.org/1999/xlink" x="0px" y="0px" width="50000px"
	 height="50000px" viewBox="0 0 50000 50000" xml:space="preserve">
<g id="Grid" display="none">
</g>
<g id="Layer_1">
</g>
<g id="Desktop">
</g>
<g id="Guides">
</g>
<g id="Page_1">
	<g id="Layer_1_1_">
	
<polygon fill="none" stroke="#231F20" stroke-width="0.001" points="1000.0,1000.0 999.5,967.9 1000.1,935.8 1015.1,934.0 1025.9,930.9 1042.3,926.2 1054.7,923.0 1068.0,919.9 1085.8,916.3 1098.8,931.8 1107.5,938.0 1121.1,944.7 1131.9,947.3 1148.1,947.4 1159.7,946.0 1173.7,943.6 1171.9,956.0 1170.8,968.3 1171.8,980.6 1173.6,993.0 1159.6,990.5 1148.0,989.1 1131.8,989.1 1121.0,991.7 1107.4,998.3 1098.6,1004.5 1085.6,1019.9 1067.8,1016.2 1054.5,1013.1 1042.1,1009.8 1025.7,1005.0 1014.9,1001.9" />
<polygon fill="none" stroke="#231F20" stroke-width="0.001" points="2000.0,1000.0 1999.5,967.9 2000.1,935.8 2015.1,934.0 2025.9,930.9 2042.3,926.2 2054.7,923.0 2068.0,919.9 2085.8,916.3 2098.8,931.8 2107.5,938.0 2121.1,944.7 2131.9,947.3 2148.1,947.4 2159.7,946.0 2173.7,943.6 2171.9,956.0 2170.8,968.3 2171.8,980.6 2173.6,993.0 2159.6,990.5 2148.0,989.1 2131.8,989.1 2121.0,991.7 2107.4,998.3 2098.6,1004.5 2085.6,1019.9 2067.8,1016.2 2054.5,1013.1 2042.1,1009.8 2025.7,1005.0 2014.9,1001.9" />
<polygon fill="none" stroke="#231F20" stroke-width="0.001" points="3000.0,1000.0 2999.5,967.9 3000.1,935.8 3015.1,934.0 3025.9,930.9 3042.3,926.2 3054.7,923.0 3068.0,919.9 3085.8,916.3 3098.8,931.8 3107.5,938.0 3121.1,944.7 3131.9,947.3 3148.1,947.4 3159.7,946.0 3173.7,943.6 3171.9,956.0 3170.8,968.3 3171.8,980.6 3173.6,993.0 3159.6,990.5 3148.0,989.1 3131.8,989.1 3121.0,991.7 3107.4,998.3 3098.6,1004.5 3085.6,1019.9 3067.8,1016.2 3054.5,1013.1 3042.1,1009.8 3025.7,1005.0 3014.9,1001.9" />
<polygon fill="none" stroke="#231F20" stroke-width="0.001" points="4000.0,1000.0 4000.8,985.2 4002.6962264,970.0301887 4006.8443477,953.7567899000001 4017.9,955.1 4028.8,955.4 4040.1,953.7 4054.8,950.3 4076.401571,945.4438329 4080.5,965.0 4088.7,980.4 4075.5,982.4 4065.5,984.5 4052.3,987.9 4027.2,994.8 4011.7453306,998.8122699" />
<polygon fill="none" stroke="#231F20" stroke-width="0.001" points="5000.0,1000.0 5000.8,985.2 5002.6962264,970.0301887 5006.8443477,953.7567899000001 5017.9,955.1 5028.8,955.4 5040.1,953.7 5054.8,950.3 5076.401571,945.4438329 5080.5,965.0 5088.7,980.4 5075.5,982.4 5065.5,984.5 5052.3,987.9 5027.2,994.8 5011.7453306,998.8122699" />
<polygon fill="none" stroke="#231F20" stroke-width="0.001" points="6000.0,1000.0 6000.8,985.2 6002.6962264,970.0301887 6006.8443477,953.7567899000001 6017.9,955.1 6028.8,955.4 6040.1,953.7 6054.8,950.3 6076.401571,945.4438329 6080.5,965.0 6088.7,980.4 6075.5,982.4 6065.5,984.5 6052.3,987.9 6027.2,994.8 6011.7453306,998.8122699" />
<polygon fill="none" stroke="#231F20" stroke-width="0.001" points="7000.0,1000.0 7000.8,985.2 7002.6962264,970.0301887 7006.8443477,953.7567899000001 7017.9,955.1 7028.8,955.4 7040.1,953.7 7054.8,950.3 7076.401571,945.4438329 7080.5,965.0 7088.7,980.4 7075.5,982.4 7065.5,984.5 7052.3,987.9 7027.2,994.8 7011.7453306,998.8122699" />
<polygon fill="none" stroke="#231F20" stroke-width="0.001" points="8000.0,1000.0 8000.8,985.2 8002.6962264,970.0301887 8006.8443477,953.7567899000001 8017.9,955.1 8028.8,955.4 8040.1,953.7 8054.8,950.3 8076.401571,945.4438329 8080.5,965.0 8088.7,980.4 8075.5,982.4 8065.5,984.5 8052.3,987.9 8027.2,994.8 8011.7453306,998.8122699" />
<polygon fill="none" stroke="#231F20" stroke-width="0.001" points="9000.0,1000.0 9000.8,985.2 9002.6962264,970.0301887 9006.8443477,953.7567899000001 9017.9,955.1 9028.8,955.4 9040.1,953.7 9054.8,950.3 9076.401571,945.4438329 9080.5,965.0 9088.7,980.4 9075.5,982.4 9065.5,984.5 9052.3,987.9 9027.2,994.8 9011.7453306,998.8122699" />
<polygon fill="none" stroke="#231F20" stroke-width="0.001" points="9984.1,981.5 9967.2,977.2 9952.6,973.8 9930.5153846,969.2428571 9919.3354839,964.0521889 9946.8,961.6 9959.2,960.0 9978.5,955.7 9992.3,949.9 10013.0,938.0 10026.4,941.1 10047.7871841,945.6150722 10065.2512195,951.4958188 10076.6,956.9 10089.3,963.8 10111.5,974.2 10112.5,986.9 10113.3,999.3 10094.0,1002.3 10079.2,1004.5 10068.0,1005.9 10052.4,1007.0 10035.7526316,1007.0 10018.1,1004.4 10000.0952833,1000.4181876" />
<polygon fill="none" stroke="#231F20" stroke-width="0.001" points="10984.1,981.5 10967.2,977.2 10952.6,973.8 10930.5153846,969.2428571 10919.3354839,964.0521889 10946.8,961.6 10959.2,960.0 10978.5,955.7 10992.3,949.9 11013.0,938.0 11026.4,941.1 11047.7871841,945.6150722 11065.2512195,951.4958188 11076.6,956.9 11089.3,963.8 11111.5,974.2 11112.5,986.9 11113.3,999.3 11094.0,1002.3 11079.2,1004.5 11068.0,1005.9 11052.4,1007.0 11035.7526316,1007.0 11018.1,1004.4 11000.0952833,1000.4181876" />
<polygon fill="none" stroke="#231F20" stroke-width="0.001" points="11984.1,981.5 11967.2,977.2 11952.6,973.8 11930.5153846,969.2428571 11919.3354839,964.0521889 11946.8,961.6 11959.2,960.0 11978.5,955.7 11992.3,949.9 12013.0,938.0 12026.4,941.1 12047.7871841,945.6150722 12065.2512195,951.4958188 12076.6,956.9 12089.3,963.8 12111.5,974.2 12112.5,986.9 12113.3,999.3 12094.0,1002.3 12079.2,1004.5 12068.0,1005.9 12052.4,1007.0 12035.7526316,1007.0 12018.1,1004.4 12000.0952833,1000.4181876" />
<polygon fill="none" stroke="#231F20" stroke-width="0.001" points="12984.1,981.5 12967.2,977.2 12952.6,973.8 12930.5153846,969.2428571 12919.3354839,964.0521889 12946.8,961.6 12959.2,960.0 12978.5,955.7 12992.3,949.9 13013.0,938.0 13026.4,941.1 13047.7871841,945.6150722 13065.2512195,951.4958188 13076.6,956.9 13089.3,963.8 13111.5,974.2 13112.5,986.9 13113.3,999.3 13094.0,1002.3 13079.2,1004.5 13068.0,1005.9 13052.4,1007.0 13035.7526316,1007.0 13018.1,1004.4 13000.0952833,1000.4181876" />
<polygon fill="none" stroke="#231F20" stroke-width="0.001" points="13984.1,981.5 13967.2,977.2 13952.6,973.8 13930.5153846,969.2428571 13919.3354839,964.0521889 13946.8,961.6 13959.2,960.0 13978.5,955.7 13992.3,949.9 14013.0,938.0 14026.4,941.1 14047.7871841,945.6150722 14065.2512195,951.4958188 14076.6,956.9 14089.3,963.8 14111.5,974.2 14112.5,986.9 14113.3,999.3 14094.0,1002.3 14079.2,1004.5 14068.0,1005.9 14052.4,1007.0 14035.7526316,1007.0 14018.1,1004.4 14000.0952833,1000.4181876" />
<polygon fill="none" stroke="#231F20" stroke-width="0.001" points="14984.1,981.5 14967.2,977.2 14952.6,973.8 14930.5153846,969.2428571 14919.3354839,964.0521889 14946.8,961.6 14959.2,960.0 14978.5,955.7 14992.3,949.9 15013.0,938.0 15026.4,941.1 15047.7871841,945.6150722 15065.2512195,951.4958188 15076.6,956.9 15089.3,963.8 15111.5,974.2 15112.5,986.9 15113.3,999.3 15094.0,1002.3 15079.2,1004.5 15068.0,1005.9 15052.4,1007.0 15035.7526316,1007.0 15018.1,1004.4 15000.0952833,1000.4181876" />
<polygon fill="none" stroke="#231F20" stroke-width="0.001" points="16000.0,1000.0 16000.8,982.8 16030.9,983.4 16048.4,983.5 16061.6,983.3 16071.8,982.8 16087.6,980.6 16103.1,975.2 16135.1454902,988.8903202 16120.9,994.3 16104.8970624,999.3178703 16090.9,1001.6 16078.5,1002.6 16066.8,1002.9 16051.1,1002.6 16021.3,1001.4" />
<polygon fill="none" stroke="#231F20" stroke-width="0.001" points="17000.0,1000.0 17000.8,982.8 17030.9,983.4 17048.4,983.5 17061.6,983.3 17071.8,982.8 17087.6,980.6 17103.1,975.2 17135.1454902,988.8903202 17120.9,994.3 17104.8970624,999.3178703 17090.9,1001.6 17078.5,1002.6 17066.8,1002.9 17051.1,1002.6 17021.3,1001.4" />
<polygon fill="none" stroke="#231F20" stroke-width="0.001" points="18000.0,1000.0 18000.8,982.8 18030.9,983.4 18048.4,983.5 18061.6,983.3 18071.8,982.8 18087.6,980.6 18103.1,975.2 18135.1454902,988.8903202 18120.9,994.3 18104.8970624,999.3178703 18090.9,1001.6 18078.5,1002.6 18066.8,1002.9 18051.1,1002.6 18021.3,1001.4" />
<polygon fill="none" stroke="#231F20" stroke-width="0.001" points="19000.0,1000.0 19000.8,982.8 19030.9,983.4 19048.4,983.5 19061.6,983.3 19071.8,982.8 19087.6,980.6 19103.1,975.2 19135.1454902,988.8903202 19120.9,994.3 19104.8970624,999.3178703 19090.9,1001.6 19078.5,1002.6 19066.8,1002.9 19051.1,1002.6 19021.3,1001.4" />
<polygon fill="none" stroke="#231F20" stroke-width="0.001" points="20000.0,1000.0 20000.8,982.8 20030.9,983.4 20048.4,983.5 20061.6,983.3 20071.8,982.8 20087.6,980.6 20103.1,975.2 20135.1454902,988.8903202 20120.9,994.3 20104.8970624,999.3178703 20090.9,1001.6 20078.5,1002.6 20066.8,1002.9 20051.1,1002.6 20021.3,1001.4" />
<polygon fill="none" stroke="#231F20" stroke-width="0.001" points="21000.0,1000.0 21000.8,982.8 21030.9,983.4 21048.4,983.5 21061.6,983.3 21071.8,982.8 21087.6,980.6 21103.1,975.2 21135.1454902,988.8903202 21120.9,994.3 21104.8970624,999.3178703 21090.9,1001.6 21078.5,1002.6 21066.8,1002.9 21051.1,1002.6 21021.3,1001.4" />
<polygon fill="none" stroke="#231F20" stroke-width="0.001" points="22000.0,1000.0 22003.396,985.7085 22007.7,973.2 22008.9,961.2 21917.4,956.1 21917.6,940.2 22003.9,939.3 22016.9,935.0 22020.9,920.0 22025.1,906.0 22037.1,907.6 22035.4,927.4 22034.8,939.0 22035.0,958.8 22036.0,973.6 22038.2,990.6 22048.8691229,1023.2112814 22035.2,1005.4 22021.7,1000.0" />
<polygon fill="none" stroke="#231F20" stroke-width="0.001" points="23000.0,1000.0 23003.396,985.7085 23007.7,973.2 23008.9,961.2 22917.4,956.1 22917.6,940.2 23003.9,939.3 23016.9,935.0 23020.9,920.0 23025.1,906.0 23037.1,907.6 23035.4,927.4 23034.8,939.0 23035.0,958.8 23036.0,973.6 23038.2,990.6 23048.8691229,1023.2112814 23035.2,1005.4 23021.7,1000.0" />
<polygon fill="none" stroke="#231F20" stroke-width="0.001" points="24000.0,1000.0 24003.396,985.7085 24007.7,973.2 24008.9,961.2 23917.4,956.1 23917.6,940.2 24003.9,939.3 24016.9,935.0 24020.9,920.0 24025.1,906.0 24037.1,907.6 24035.4,927.4 24034.8,939.0 24035.0,958.8 24036.0,973.6 24038.2,990.6 24048.8691229,1023.2112814 24035.2,1005.4 24021.7,1000.0" />
<polygon fill="none" stroke="#231F20" stroke-width="0.001" points="25000.0,1000.0 25003.396,985.7085 25007.7,973.2 25008.9,961.2 24917.4,956.1 24917.6,940.2 25003.9,939.3 25016.9,935.0 25020.9,920.0 25025.1,906.0 25037.1,907.6 25035.4,927.4 25034.8,939.0 25035.0,958.8 25036.0,973.6 25038.2,990.6 25048.8691229,1023.2112814 25035.2,1005.4 25021.7,1000.0" />
<polygon fill="none" stroke="#231F20" stroke-width="0.001" points="26000.0,1000.0 26003.396,985.7085 26007.7,973.2 26008.9,961.2 25917.4,956.1 25917.6,940.2 26003.9,939.3 26016.9,935.0 26020.9,920.0 26025.1,906.0 26037.1,907.6 26035.4,927.4 26034.8,939.0 26035.0,958.8 26036.0,973.6 26038.2,990.6 26048.8691229,1023.2112814 26035.2,1005.4 26021.7,1000.0" />
<polygon fill="none" stroke="#231F20" stroke-width="0.001" points="27000.0,1000.0 27003.396,985.7085 27007.7,973.2 27008.9,961.2 26917.4,956.1 26917.6,940.2 27003.9,939.3 27016.9,935.0 27020.9,920.0 27025.1,906.0 27037.1,907.6 27035.4,927.4 27034.8,939.0 27035.0,958.8 27036.0,973.6 27038.2,990.6 27048.8691229,1023.2112814 27035.2,1005.4 27021.7,1000.0" />
<polygon fill="none" stroke="#231F20" stroke-width="0.001" points="28000.0,999.2777778 28012.98,996.3933333 28030.6884615,1002.2961538 28049.5,1011.0 28061.6,1017.2 28073.7,1023.8 28085.5,1029.0 28095.9,1031.3 28107.1,1030.6 28127.5,1025.5 28126.0,1039.4 28125.0,1049.9 28126.0,1060.6 28127.5,1074.5 28107.1,1069.4 28095.9,1068.7 28085.5,1071.0 28073.7,1076.2 28061.6,1082.8 28049.5,1089.0 28030.6884615,1097.7038462 28012.98,1103.6066667 28000.0,1100.7222222" />
<polygon fill="none" stroke="#231F20" stroke-width="0.001" points="29000.0,999.2777778 29012.98,996.3933333 29030.6884615,1002.2961538 29049.5,1011.0 29061.6,1017.2 29073.7,1023.8 29085.5,1029.0 29095.9,1031.3 29107.1,1030.6 29127.5,1025.5 29126.0,1039.4 29125.0,1049.9 29126.0,1060.6 29127.5,1074.5 29107.1,1069.4 29095.9,1068.7 29085.5,1071.0 29073.7,1076.2 29061.6,1082.8 29049.5,1089.0 29030.6884615,1097.7038462 29012.98,1103.6066667 29000.0,1100.7222222" />
<polygon fill="none" stroke="#231F20" stroke-width="0.001" points="30000.0,999.2777778 30012.98,996.3933333 30030.6884615,1002.2961538 30049.5,1011.0 30061.6,1017.2 30073.7,1023.8 30085.5,1029.0 30095.9,1031.3 30107.1,1030.6 30127.5,1025.5 30126.0,1039.4 30125.0,1049.9 30126.0,1060.6 30127.5,1074.5 30107.1,1069.4 30095.9,1068.7 30085.5,1071.0 30073.7,1076.2 30061.6,1082.8 30049.5,1089.0 30030.6884615,1097.7038462 30012.98,1103.6066667 30000.0,1100.7222222" />
<polygon fill="none" stroke="#231F20" stroke-width="0.001" points="31000.0,1000.0 30999.6,987.7 30999.2,970.9 30998.3,954.6 30996.0,938.0 31011.9,938.1 31024.6,946.2 31035.2,949.9 31049.2,954.2 31064.7,958.4 31076.6,963.1 31091.3,969.8 31106.1,977.6 31104.6,990.0 31103.7,1000.2 31106.1,1022.4 31091.3,1030.2 31076.6,1036.9 31064.7,1041.6 31049.2,1045.8 31035.2,1050.1 31024.6,1053.8 31011.9,1061.9 30996.0,1062.0 30998.3,1045.4 30999.2,1029.1 30999.6,1012.3" />
<polygon fill="none" stroke="#231F20" stroke-width="0.001" points="32000.0,1000.0 31999.6,987.7 31999.2,970.9 31998.3,954.6 31996.0,938.0 32011.9,938.1 32024.6,946.2 32035.2,949.9 32049.2,954.2 32064.7,958.4 32076.6,963.1 32091.3,969.8 32106.1,977.6 32104.6,990.0 32103.7,1000.2 32106.1,1022.4 32091.3,1030.2 32076.6,1036.9 32064.7,1041.6 32049.2,1045.8 32035.2,1050.1 32024.6,1053.8 32011.9,1061.9 31996.0,1062.0 31998.3,1045.4 31999.2,1029.1 31999.6,1012.3" />
<polygon fill="none" stroke="#231F20" stroke-width="0.001" points="33000.0,1000.0 32999.6,987.7 32999.2,970.9 32998.3,954.6 32996.0,938.0 33011.9,938.1 33024.6,946.2 33035.2,949.9 33049.2,954.2 33064.7,958.4 33076.6,963.1 33091.3,969.8 33106.1,977.6 33104.6,990.0 33103.7,1000.2 33106.1,1022.4 33091.3,1030.2 33076.6,1036.9 33064.7,1041.6 33049.2,1045.8 33035.2,1050.1 33024.6,1053.8 33011.9,1061.9 32996.0,1062.0 32998.3,1045.4 32999.2,1029.1 32999.6,1012.3" />
<polygon fill="none" stroke="#231F20" stroke-width="0.001" points="33992.4,991.5 33982.2,980.0 33973.0,969.4 33958.8,962.6 33904.2,961.7 33904.6,945.7 33963.4,944.0 33973.1,934.1 33991.0,929.2 33999.6,946.1 34004.0,955.7 34009.4,968.8 34014.0238095,980.968254 34018.9,995.8 34000.452434,1000.5060117" />
<polygon fill="none" stroke="#231F20" stroke-width="0.001" points="34992.4,991.5 34982.2,980.0 34973.0,969.4 34958.8,962.6 34904.2,961.7 34904.6,945.7 34963.4,944.0 34973.1,934.1 34991.0,929.2 34999.6,946.1 35004.0,955.7 35009.4,968.8 35014.0238095,980.968254 35018.9,995.8 35000.452434,1000.5060117" />
<polygon fill="none" stroke="#231F20" stroke-width="0.001" points="35992.4,991.5 35982.2,980.0 35973.0,969.4 35958.8,962.6 35904.2,961.7 35904.6,945.7 35963.4,944.0 35973.1,934.1 35991.0,929.2 35999.6,946.1 36004.0,955.7 36009.4,968.8 36014.0238095,980.968254 36018.9,995.8 36000.452434,1000.5060117" />
<polygon fill="none" stroke="#231F20" stroke-width="0.001" points="36992.4,991.5 36982.2,980.0 36973.0,969.4 36958.8,962.6 36904.2,961.7 36904.6,945.7 36963.4,944.0 36973.1,934.1 36991.0,929.2 36999.6,946.1 37004.0,955.7 37009.4,968.8 37014.0238095,980.968254 37018.9,995.8 37000.452434,1000.5060117" />
<polygon fill="none" stroke="#231F20" stroke-width="0.001" points="37992.4,991.5 37982.2,980.0 37973.0,969.4 37958.8,962.6 37904.2,961.7 37904.6,945.7 37963.4,944.0 37973.1,934.1 37991.0,929.2 37999.6,946.1 38004.0,955.7 38009.4,968.8 38014.0238095,980.968254 38018.9,995.8 38000.452434,1000.5060117" />
<polygon fill="none" stroke="#231F20" stroke-width="0.001" points="38992.4,991.5 38982.2,980.0 38973.0,969.4 38958.8,962.6 38904.2,961.7 38904.6,945.7 38963.4,944.0 38973.1,934.1 38991.0,929.2 38999.6,946.1 39004.0,955.7 39009.4,968.8 39014.0238095,980.968254 39018.9,995.8 39000.452434,1000.5060117" />
<polygon fill="none" stroke="#231F20" stroke-width="0.001" points="39986.4126437,991.9551724 39976.1947183,979.693662 39975.9121844,963.3066959 39980.2639319,951.4119195 39988.5671556,937.4382015 39996.7114865,944.4966216 40005.8285714,955.5 40011.8142857,969.4666667 40010.8699029,984.8915858 40000.71138,1001.3387181" />
<polygon fill="none" stroke="#231F20" stroke-width="0.001" points="40986.4126437,991.9551724 40976.1947183,979.693662 40975.9121844,963.3066959 40980.2639319,951.4119195 40988.5671556,937.4382015 40996.7114865,944.4966216 41005.8285714,955.5 41011.8142857,969.4666667 41010.8699029,984.8915858 41000.71138,1001.3387181" />
<polygon fill="none" stroke="#231F20" stroke-width="0.001" points="41986.4126437,991.9551724 41976.1947183,979.693662 41975.9121844,963.3066959 41980.2639319,951.4119195 41988.5671556,937.4382015 41996.7114865,944.4966216 42005.8285714,955.5 42011.8142857,969.4666667 42010.8699029,984.8915858 42000.71138,1001.3387181" />
<polygon fill="none" stroke="#231F20" stroke-width="0.001" points="42986.4126437,991.9551724 42976.1947183,979.693662 42975.9121844,963.3066959 42980.2639319,951.4119195 42988.5671556,937.4382015 42996.7114865,944.4966216 43005.8285714,955.5 43011.8142857,969.4666667 43010.8699029,984.8915858 43000.71138,1001.3387181" />
<polygon fill="none" stroke="#231F20" stroke-width="0.001" points="43986.4126437,991.9551724 43976.1947183,979.693662 43975.9121844,963.3066959 43980.2639319,951.4119195 43988.5671556,937.4382015 43996.7114865,944.4966216 44005.8285714,955.5 44011.8142857,969.4666667 44010.8699029,984.8915858 44000.71138,1001.3387181" />
<polygon fill="none" stroke="#231F20" stroke-width="0.001" points="44986.4126437,991.9551724 44976.1947183,979.693662 44975.9121844,963.3066959 44980.2639319,951.4119195 44988.5671556,937.4382015 44996.7114865,944.4966216 45005.8285714,955.5 45011.8142857,969.4666667 45010.8699029,984.8915858 45000.71138,1001.3387181" />
<polygon fill="none" stroke="#231F20" stroke-width="0.001" points="45982.4611111,992.7520468 45969.6,984.9 45959.3,980.7 45949.0,979.2 45932.7,980.8 45921.0,983.1 45901.0,987.6 45897.1,970.8 45924.0,964.7 45946.9,959.6 45958.7,957.0 45971.2,949.0 45974.8,930.0 45974.8,913.8 45972.6,898.5 45946.7,884.3 45923.8,879.3 45896.9,873.3 45900.7,856.5 45920.7,860.9 45932.5,863.2 45948.8,864.7 45959.1,863.2 45969.3,858.9 45981.9588235,851.1714551 46000.6421687,843.1081167 46031.9,850.1 46027.0,871.0 46024.8,885.7 46024.1,907.8 46024.2,921.8 46024.2,935.8 46024.6,950.6 46025.7,964.2 46032.2,993.5 46001.5847507,1000.8041056" />
<polygon fill="none" stroke="#231F20" stroke-width="0.001" points="46982.4611111,992.7520468 46969.6,984.9 46959.3,980.7 46949.0,979.2 46932.7,980.8 46921.0,983.1 46901.0,987.6 46897.1,970.8 46924.0,964.7 46946.9,959.6 46958.7,957.0 46971.2,949.0 46974.8,930.0 46974.8,913.8 46972.6,898.5 46946.7,884.3 46923.8,879.3 46896.9,873.3 46900.7,856.5 46920.7,860.9 46932.5,863.2 46948.8,864.7 46959.1,863.2 46969.3,858.9 46981.9588235,851.1714551 47000.6421687,843.1081167 47031.9,850.1 47027.0,871.0 47024.8,885.7 47024.1,907.8 47024.2,921.8 47024.2,935.8 47024.6,950.6 47025.7,964.2 47032.2,993.5 47001.5847507,1000.8041056" />
<polygon fill="none" stroke="#231F20" stroke-width="0.001" points="47982.4611111,992.7520468 47969.6,984.9 47959.3,980.7 47949.0,979.2 47932.7,980.8 47921.0,983.1 47901.0,987.6 47897.1,970.8 47924.0,964.7 47946.9,959.6 47958.7,957.0 47971.2,949.0 47974.8,930.0 47974.8,913.8 47972.6,898.5 47946.7,884.3 47923.8,879.3 47896.9,873.3 47900.7,856.5 47920.7,860.9 47932.5,863.2 47948.8,864.7 47959.1,863.2 47969.3,858.9 47981.9588235,851.1714551 48000.6421687,843.1081167 48031.9,850.1 48027.0,871.0 48024.8,885.7 48024.1,907.8 48024.2,921.8 48024.2,935.8 48024.6,950.6 48025.7,964.2 48032.2,993.5 48001.5847507,1000.8041056" />
<polygon fill="none" stroke="#231F20" stroke-width="0.001" points="0.0,1000.0 575.2,1000.0 575.2,1600.0 0.0,1600.0" />
    </g>
</g>
</svg>

