<?xml version="1.0" encoding="utf-8"?>
<!-- Generator: Adobe Illustrator 15.1.0, SVG Export Plug-In . SVG Version: 6.00 Build 0)  -->
<!DOCTYPE svg PUBLIC "-//W3C//DTD SVG 1.1//EN" "http://www.w3.org/Graphics/SVG/1.1/DTD/svg11.dtd">
<svg version="1.1" xmlns="http://www.w3.org/2000/svg" xmlns:xlink="http://www.w3.org/1999/xlink" x="0px" y="0px" width="50000px"
	 height="50000px" viewBox="0 0 50000 50000" xml:space="preserve">
<g id="Grid" display="none">
</g>
<g id="Layer_1">
</g>
<g id="Desktop">
</g>
<g id="Guides">
</g>
<g id="Page_1">
	<g id="Layer_1_1_">
	
<polygon fill="none" stroke="#231F20" stroke-width="0.001" points="1000.0,1000.0 1210.0,1000.0 1210.0,1220.0 1140.0,1280.0 1070.0,1280.0 1000.0,1220.0" />
<polygon fill="none" stroke="#231F20" stroke-width="0.001" points="2000.0,1000.0 2210.0,1000.0 2210.0,1220.0 2140.0,1280.0 2070.0,1280.0 2000.0,1220.0" />
<polygon fill="none" stroke="#231F20" stroke-width="0.001" points="3000.0,1000.0 3210.0,1000.0 3210.0,1220.0 3140.0,1280.0 3070.0,1280.0 3000.0,1220.0" />
<polygon fill="none" stroke="#231F20" stroke-width="0.001" points="4000.0,1000.0 4210.0,1000.0 4210.0,1220.0 4140.0,1280.0 4070.0,1280.0 4000.0,1220.0" />
<polygon fill="none" stroke="#231F20" stroke-width="0.001" points="5000.0,1050.0 5020.0,1000.0 5110.0,1020.0 5190.0,1000.0 5210.0,1050.0 5170.0,1040.0 5110.0,1060.0 5040.0,1040.0" />
<polygon fill="none" stroke="#231F20" stroke-width="0.001" points="6000.0,1050.0 6020.0,1000.0 6110.0,1020.0 6190.0,1000.0 6210.0,1050.0 6170.0,1040.0 6110.0,1060.0 6040.0,1040.0" />
<polygon fill="none" stroke="#231F20" stroke-width="0.001" points="7000.0,1050.0 7020.0,1000.0 7110.0,1020.0 7190.0,1000.0 7210.0,1050.0 7170.0,1040.0 7110.0,1060.0 7040.0,1040.0" />
<polygon fill="none" stroke="#231F20" stroke-width="0.001" points="8000.0,1050.0 8020.0,1000.0 8110.0,1020.0 8190.0,1000.0 8210.0,1050.0 8170.0,1040.0 8110.0,1060.0 8040.0,1040.0" />
<polygon fill="none" stroke="#231F20" stroke-width="0.001" points="9000.0,1000.0 9330.0,1000.0 9330.0,1140.0 9300.0,1140.0 9260.0,1170.0 9130.0,1150.0 9000.0,1170.0" />
<polygon fill="none" stroke="#231F20" stroke-width="0.001" points="10000.0,1000.0 10330.0,1000.0 10330.0,1140.0 10300.0,1140.0 10260.0,1170.0 10130.0,1150.0 10000.0,1170.0" />
<polygon fill="none" stroke="#231F20" stroke-width="0.001" points="11000.0,1000.0 11040.0,1000.0 11040.0,1390.0 11000.0,1390.0" />
<polygon fill="none" stroke="#231F20" stroke-width="0.001" points="12000.0,1000.0 12040.0,1000.0 12040.0,1390.0 12000.0,1390.0" />
<polygon fill="none" stroke="#231F20" stroke-width="0.001" points="13000.0,1000.0 13100.0,1000.0 13100.0,1110.0 13000.0,1110.0" />
<polygon fill="none" stroke="#231F20" stroke-width="0.001" points="14000.0,1000.0 14100.0,1000.0 14100.0,1110.0 14000.0,1110.0" />
<polygon fill="none" stroke="#231F20" stroke-width="0.001" points="15000.0,1000.0 15100.0,1000.0 15100.0,1110.0 15000.0,1110.0" />
<polygon fill="none" stroke="#231F20" stroke-width="0.001" points="16000.0,1000.0 16100.0,1000.0 16100.0,1110.0 16000.0,1110.0" />
<polygon fill="none" stroke="#231F20" stroke-width="0.001" points="17020.0,1200.0 17000.0,1180.0 17020.0,1100.0 17000.0,1020.0 17020.0,1000.0 17040.0,1100.0 17020.0,1200.0" />
<polygon fill="none" stroke="#231F20" stroke-width="0.001" points="18020.0,1200.0 18000.0,1180.0 18020.0,1100.0 18000.0,1020.0 18020.0,1000.0 18040.0,1100.0 18020.0,1200.0" />
<polygon fill="none" stroke="#231F20" stroke-width="0.001" points="19020.0,1200.0 19000.0,1180.0 19020.0,1100.0 19000.0,1020.0 19020.0,1000.0 19040.0,1100.0 19020.0,1200.0" />
<polygon fill="none" stroke="#231F20" stroke-width="0.001" points="20020.0,1200.0 20000.0,1180.0 20020.0,1100.0 20000.0,1020.0 20020.0,1000.0 20040.0,1100.0 20020.0,1200.0" />
<polygon fill="none" stroke="#231F20" stroke-width="0.001" points="21000.0,1000.0 21290.0,1000.0 21270.0,1120.0 21290.0,1220.0 21250.0,1260.0 21250.0,1330.0 21180.0,1370.0 21160.0,1350.0 21140.0,1350.0 21120.0,1370.0 21040.0,1340.0 21040.0,1260.0 21000.0,1220.0 21020.0,1120.0" />
<polygon fill="none" stroke="#231F20" stroke-width="0.001" points="22000.0,1000.0 22290.0,1000.0 22270.0,1120.0 22290.0,1220.0 22250.0,1260.0 22250.0,1330.0 22180.0,1370.0 22160.0,1350.0 22140.0,1350.0 22120.0,1370.0 22040.0,1340.0 22040.0,1260.0 22000.0,1220.0 22020.0,1120.0" />
<polygon fill="none" stroke="#231F20" stroke-width="0.001" points="23000.0,1000.0 23330.0,1000.0 23370.0,1060.0 23350.0,1130.0 23280.0,1130.0 23250.0,1150.0 23140.0,1130.0 23000.0,1150.0" />
<polygon fill="none" stroke="#231F20" stroke-width="0.001" points="24000.0,1000.0 24330.0,1000.0 24370.0,1060.0 24350.0,1130.0 24280.0,1130.0 24250.0,1150.0 24140.0,1130.0 24000.0,1150.0" />
<polygon fill="none" stroke="#231F20" stroke-width="0.001" points="25000,1000 26040,1000 26040,1800 25000,1800" />
    </g>
</g>
</svg>

