<?xml version="1.0" encoding="utf-8"?>
<!-- Generator: Adobe Illustrator 15.1.0, SVG Export Plug-In . SVG Version: 6.00 Build 0)  -->
<!DOCTYPE svg PUBLIC "-//W3C//DTD SVG 1.1//EN" "http://www.w3.org/Graphics/SVG/1.1/DTD/svg11.dtd">
<svg version="1.1" xmlns="http://www.w3.org/2000/svg" xmlns:xlink="http://www.w3.org/1999/xlink" x="0px" y="0px" width="50000px"
	 height="50000px" viewBox="0 0 50000 50000" xml:space="preserve">
<g id="Grid" display="none">
</g>
<g id="Layer_1">
</g>
<g id="Desktop">
</g>
<g id="Guides">
</g>
<g id="Page_1">
	<g id="Layer_1_1_">
	
<polygon fill="none" stroke="#231F20" stroke-width="0.001" points="1000.0,1000.0 1026.0,1061.334 1052.0,1084.0 1082.667,1090.0 1064.667,1074.667 1050.0,1035.334 1057.334,1024.667 1041.334,987.334 1000.0,1000.0" />
<polygon fill="none" stroke="#231F20" stroke-width="0.001" points="2000.0,1000.0 2074.667,1004.666 2074.667,1036.0 2036.667,1033.333 2000.667,1014.666 2000.0,1000.0" />
<polygon fill="none" stroke="#231F20" stroke-width="0.001" points="3000.0,1000.0 2942.0,1064.0 2959.333,1083.334 2978.0,1085.334 3008.0,1027.334 3004.667,1010.667 3000.0,1000.0" />
<polygon fill="none" stroke="#231F20" stroke-width="0.001" points="4000.0,1000.0 4018.667,989.334 4107.334,1068.667 4104.0,1082.0 4083.334,1083.334 4000.0,1000.0" />
<polygon fill="none" stroke="#231F20" stroke-width="0.001" points="5000.0,1000.0 4997.333,1013.334 4995.333,1023.3340000000001 5033.333,1083.334 5063.333,1118.0 5075.333,1097.334 5073.333,1080.667 5000.0,1000.0" />
<polygon fill="none" stroke="#231F20" stroke-width="0.001" points="6000.0,1000.0 5992.667,1008.0 5982.0,1014.0 5976.0,1018.0 6032.667,1056.0 6091.333,1090.666 6108.0,1072.0 6108.0,1060.0 6000.0,1000.0" />
<polygon fill="none" stroke="#231F20" stroke-width="0.001" points="7000.0,1000.0 7077.333,1016.667 7083.999,1037.333 7086.666,1052.667 6997.333,1041.333 6992.0,1031.333 7000.0,1000.0" />
<polygon fill="none" stroke="#231F20" stroke-width="0.001" points="8000.0,1000.0 8000.0,1032.667 8080.667,1036.667 8108.667,1020.0 8114.0,1010.0 8101.333,1000.0 8000.0,1000.0" />
<polygon fill="none" stroke="#231F20" stroke-width="0.001" points="9000.0,1000.0 9044.666,1053.333 9039.333,1067.333 9011.333,1086.666 8983.333,1048.666 8984.666,1040.0 8975.333,1015.333 9000.0,1000.0" />
<polygon fill="none" stroke="#231F20" stroke-width="0.001" points="10000.0,1000.0 10020.0,1002.666 10047.334,992.0 10056.667,1048.0 10042.0,1053.333 10044.667,1063.333 10004.0,1068.666 10000.0,1000.0" />
<polygon fill="none" stroke="#231F20" stroke-width="0.001" points="11000.0,1000.0 11010.0,1063.333 11017.333,1061.333 11024.0,1078.667 11041.333,1064.0 11058.0,1058.667 11050.0,994.667 11000.0,1000.0" />
<polygon fill="none" stroke="#231F20" stroke-width="0.001" points="12000.0,1000.0 11988.667,952.0 12030.667,938.667 12038.667,948.0 12052.0,979.333 12009.334,991.333 12010.667,998.667 12000.0,1000.0" />
<polygon fill="none" stroke="#231F20" stroke-width="0.001" points="13000.0,1000.0 13010.667,1055.333 12966.667,1065.333 12948.667,1058.0 12933.333,1012.666 12951.333,990.0 12961.333,994.666 12971.333,992.0 12988.0,1002.0 13000.0,1000.0" />
<polygon fill="none" stroke="#231F20" stroke-width="0.001" points="14000.0,1000.0 14076.0,1042.666 14048.0,1088.666 14016.667,1098.0 13965.334,1066.0 13961.334,1050.666 13982.0,1016.666 13993.334,1018.0 14000.0,1000.0" />
<polygon fill="none" stroke="#231F20" stroke-width="0.001" points="15000.0,1000.0 15069.999,1000.667 15083.333,1007.334 15099.333,1005.334 15099.333,1023.3340000000001 15089.333,1031.334 15073.333,1034.0 15068.666,1037.334 15000.0,1038.0 15000.0,1000.0" />
<polygon fill="none" stroke="#231F20" stroke-width="0.001" points="16000.0,1000.0 15992.667,1018.666 15984.0,1034.0 15943.334,1021.333 15949.334,999.333 15958.667,972.0 15966.667,973.333 15996.667,998.666 16000.0,1000.0" />
<polygon fill="none" stroke="#231F20" stroke-width="0.001" points="17000.0,1000.0 16994.0,1010.667 16992.667,1021.334 16952.0,1059.334 16944.667,1046.0 16936.667,1026.667 16982.0,984.0 17000.0,1000.0" />
<polygon fill="none" stroke="#231F20" stroke-width="0.001" points="18000.0,1000.0 17975.333,1054.666 17972.666,1078.666 17920.666,1079.333 17903.333,1062.666 17904.0,1016.666 17914.0,1002.0 18000.0,1000.0" />
<polygon fill="none" stroke="#231F20" stroke-width="0.001" points="19000.0,1000.0 19030.0,1011.333 19007.333,1078.667 18962.0,1066.0 19000.0,1000.0" />
<polygon fill="none" stroke="#231F20" stroke-width="0.001" points="20000.0,1000.0 20035.334,1032.0 20018.667,1060.0 20000.0,1054.667 19974.667,1035.333 20000.0,1000.0" />
<polygon fill="none" stroke="#231F20" stroke-width="0.001" points="21000.0,1000.0 21012.0,1022.0 21018.0,1048.0 21007.333,1050.0 21006.0,1057.334 20903.333,1074.0 20894.666,1020.0 20914.666,1009.334 21000.0,1000.0" />
<polygon fill="none" stroke="#231F20" stroke-width="0.001" points="22000.0,1000.0 22046.667,978.667 22062.667,993.334 22082.0,994.667 22090.0,1021.334 22081.334,1032.667 22074.667,1046.0 22028.667,1062.667 22000.0,1000.0" />
<polygon fill="none" stroke="#231F20" stroke-width="0.001" points="23000.0,1000.0 23028.667,1007.333 23038.0,1002.0 23052.667,949.333 23052.0,941.333 23028.0,939.333 23016.667,958.0 23008.667,964.0 23000.0,1000.0" />
<polygon fill="none" stroke="#231F20" stroke-width="0.001" points="24000.0,1000.0 24018.667,984.667 24036.0,975.334 24058.667,964.667 24072.0,1006.0 24040.667,1017.334 24034.667,1014.0 24015.333,1019.334 24004.0,1013.334 24000.0,1000.0" />
<polygon fill="none" stroke="#231F20" stroke-width="0.001" points="25000.0,1000.0 25011.333,1024.0 25018.0,1023.3340000000001 25024.0,1036.0 25054.0,1022.0 25038.0,992.0 25000.0,1000.0" />
<polygon fill="none" stroke="#231F20" stroke-width="0.001" points="26000.0,1000.0 26025.333,1024.666 26050.666,1001.333 26040.0,981.333 26006.0,988.666 26000.0,1000.0" />
<polygon fill="none" stroke="#231F20" stroke-width="0.001" points="27000.0,1000.0 26996.667,1052.667 27040.0,1056.0 27062.667,1036.0 27094.0,1032.667 27098.667,1022.0 27108.667,1018.667 27106.667,1010.0 27087.333,1004.0 27080.0,999.333 27014.0,994.667 27000.0,1000.0" />
<polygon fill="none" stroke="#231F20" stroke-width="0.001" points="28000.0,1000.0 28008.68645,1066.705355 28026.656565,1094.915975 28052.8304,1107.54877 28040.3034,1088.375575 28036.5397,1046.033725 28045.704665,1037.00718 28040.260485,996.36689 28000.0,1000.0" />
<polygon fill="none" stroke="#231F20" stroke-width="0.001" points="29000.0,1000.0 29002.831555,1070.390905 28961.78215,1075.6657500000001 28960.72409,1039.79275 28980.866565,1003.090695 29000.0,1000.0" />
<polygon fill="none" stroke="#231F20" stroke-width="0.001" points="30000.0,1000.0 29915.43792,1047.45237 29924.299855,1075.240185 29941.87425,1084.627535 29996.23538,1032.915385 30000.05609,1013.44145 30000.0,1000.0" />
<polygon fill="none" stroke="#231F20" stroke-width="0.001" points="31000.0,1000.0 31026.20597,1006.613115 31062.676825,1146.007415 31050.2597,1154.31909 31028.33832,1138.297285 31000.0,1000.0" />
<polygon fill="none" stroke="#231F20" stroke-width="0.001" points="32000.0,1000.0 31990.4473,1011.581265 31983.28326,1020.266855 31981.74829,1096.071545 31987.530515,1143.680815 32008.85718,1129.458655 32016.37618,1112.4553 32000.0,1000.0" />
<polygon fill="none" stroke="#231F20" stroke-width="0.001" points="33000.0,1000.0 32989.358905,994.64518 32979.236625,984.865425 32972.949005,979.58519 32960.32352,1056.20901 32951.694645,1133.88542 32976.33951,1145.885735 32987.742645,1141.648945 33000.0,1000.0" />
<polygon fill="none" stroke="#231F20" stroke-width="0.001" points="34000.0,1000.0 34062.986775,1022.89966 34066.79588,1045.44136 34067.7245,1062.017615 33994.296585,1044.03503 33990.69868,1032.989175 34000.0,1000.0" />
<polygon fill="none" stroke="#231F20" stroke-width="0.001" points="35000.0,1000.0 34986.52343,1032.274 35065.26851,1069.79632 35100.050055,1064.982335 35109.49053,1057.322025 35100.99164,1042.17082 35000.0,1000.0" />
<polygon fill="none" stroke="#231F20" stroke-width="0.001" points="36000.0,1000.0 36012.543805,1076.652055 36001.38079,1090.768735 35968.47783,1102.99888 35962.78159,1049.730305 35968.0236,1040.29927 35971.819755,1008.8337 36000.0,1000.0" />
<polygon fill="none" stroke="#231F20" stroke-width="0.001" points="37000.0,1000.0 37008.65761,1016.56408 37031.88779,1031.03305 36992.313965,1070.02205 36980.159815,1062.035465 36973.63233,1069.750185 36947.46273,1042.208865 37000.0,1000.0" />
<polygon fill="none" stroke="#231F20" stroke-width="0.001" points="38000.0,1000.0 37975.086135,1057.968115 37983.41384,1061.250715 37980.469635,1079.74358 38005.611125,1079.45418 38024.971195,1086.277665 38052.223075,1029.106445 38000.0,1000.0" />
<polygon fill="none" stroke="#231F20" stroke-width="0.001" points="39000.0,1000.0 39063.036915,987.14512 39082.06775,1025.65278 39070.00629,1033.55459 39029.05758,1047.4775 39011.7655,1008.2854600000001 39002.120555,1009.87809 39000.0,1000.0" />
<polygon fill="none" stroke="#231F20" stroke-width="0.001" points="40000.0,1000.0 39992.98086,1066.697475 39948.91914,1067.424175 39934.395015,1054.49442 39934.00125,998.223155 39957.719275,976.41891 39965.606765,984.287675 39975.74132,983.6671699999999 39988.206055,999.356125 40000.0,1000.0" />
<polygon fill="none" stroke="#231F20" stroke-width="0.001" points="41000.0,1000.0 40986.048225,1094.798805 40936.39414,1075.478935 40918.242825,1043.203565 40930.491245,978.36864 40942.845455,970.06975 40979.536965,984.316875 40981.92093,997.1828 41000.0,1000.0" />
<polygon fill="none" stroke="#231F20" stroke-width="0.001" points="42000.0,1000.0 42018.748325,1090.42481 42016.62489,1108.868675 42022.784575,1129.1363000000001 42007.11075,1132.491335 41997.38326,1121.08221 41990.64364,1100.938725 41986.45178,1095.5396 41966.910805,1007.082855 42000.0,1000.0" />
<polygon fill="none" stroke="#231F20" stroke-width="0.001" points="43000.0,1000.0 42980.779765,1004.004505 42963.09155,1004.842585 42943.341975,959.788095 42964.09645,952.616945 42991.231675,945.449945 42995.983115,953.64233 42998.602415,996.136065 43000.0,1000.0" />
<polygon fill="none" stroke="#231F20" stroke-width="0.001" points="44000.0,1000.0 43989.104615,995.350265 43978.55898,994.981115 43938.299575,960.72167 43950.807455,952.92896 43969.13991,944.044485 44014.31918,982.21018 44000.0,1000.0" />
<polygon fill="none" stroke="#231F20" stroke-width="0.001" points="45000.0,1000.0 44926.52029,999.909305 44898.35288,1008.981705 44871.53654,951.266655 44881.478995,923.54904 44933.238115,901.198395 44954.647245,904.99848 45000.0,1000.0" />
<polygon fill="none" stroke="#231F20" stroke-width="0.001" points="46000.0,1000.0 46000.407895,1029.699885 45933.89801,1033.724835 45929.39285,990.39995 46000.0,1000.0" />
<polygon fill="none" stroke="#231F20" stroke-width="0.001" points="47000.0,1000.0 46964.090135,1038.200035 46926.785635,1027.39669 46931.190305,1009.153235 46952.393935,982.36963 47000.0,1000.0" />
<polygon fill="none" stroke="#231F20" stroke-width="0.001" points="48000.0,1000.0 47974.48352,1012.4022649999999 47943.919885,1019.573305 47941.014175,1009.942555 47932.24209,1009.19711 47907.34206,916.33668 47971.0095,904.914905 47984.667145,922.5248 48000.0,1000.0" />
<polygon fill="none" stroke="#231F20" stroke-width="0.001" points="0.0,1000.0 49.519695,1013.15437 55.349045,1033.034355 70.705295,1045.59562 63.814114999999994,1069.0542599999999 50.87958999999999,1071.76591 38.588390000000004,1077.078465 -8.011605000000001,1061.062685 0.0,1000.0" />
<polygon fill="none" stroke="#231F20" stroke-width="0.001" points="1000.0,2000.0 1034.302,2018.998835 1048.050245,2015.590315 1084.45936,1955.200705 1086.2783650000001,1945.029305 1056.177145,1934.267135 1035.40761,1953.5557 1023.14541,1958.25279 1000.0,2000.0" />
<polygon fill="none" stroke="#231F20" stroke-width="0.001" points="2000.0,2000.0 2019.405115,1982.990235 2036.631095,1973.335415 2058.909625,1962.63493 2064.322125,2015.938025 2034.07726,2026.459215 2029.174975,2021.58331 2010.78056,2025.997795 2001.472915,2017.16029 2000.0,2000.0" />
<polygon fill="none" stroke="#231F20" stroke-width="0.001" points="3000.0,2000.0 2976.961195,2022.992475 2980.37766,2027.696365 2968.22649,2039.84519 2996.2291,2054.445975 3024.298165,2024.302275 3000.0,2000.0" />
<polygon fill="none" stroke="#231F20" stroke-width="0.001" points="4000.0,2000.0 3994.86417,2036.733465 4028.859465,2049.44128 4038.86029,2029.162675 4012.786335,2000.102775 4000.0,2000.0" />
<polygon fill="none" stroke="#231F20" stroke-width="0.001" points="5000.0,2000.0 4990.124065,2055.388725 5036.19921,2064.168405 5062.902095,2045.7271700000001 5096.904995,2045.991715 5103.18653,2035.257005 5114.31014,2032.937505 5113.2021349999995,2023.513915 5093.184615,2014.815945 5085.878475,2008.983745 5015.652835,1996.04633 5000.0,2000.0" />
<polygon fill="none" stroke="#231F20" stroke-width="0.001" points="6000.0,2000.0 6017.81481,2077.517535 6041.051135,2108.087235 6071.365505,2118.96983 6055.228505,2098.241875 6045.842575,2048.765915 6054.78901,2036.67525 6043.768425,1989.47116 6000.0,2000.0" />
<polygon fill="none" stroke="#231F20" stroke-width="0.001" points="7000.0,2000.0 7032.87819,2059.96861 7000.20224,2081.70831 6983.774535,2050.985875 6985.04306,2010.68213 7000.0,2000.0" />
<polygon fill="none" stroke="#231F20" stroke-width="0.001" points="8000.0,2000.0 7898.984215,2005.710705 7894.278495,2035.77943 7906.2873,2052.61178 7981.1248,2029.08867 7993.778145,2012.60817 8000.0,2000.0" />
<polygon fill="none" stroke="#231F20" stroke-width="0.001" points="9000.0,2000.0 9022.62557,2008.56812 9030.14623,2139.524145 9017.31861,2145.928485 9000.323375,2129.170435 9000.0,2000.0" />
<polygon fill="none" stroke="#231F20" stroke-width="0.001" points="10000.0,2000.0 9985.372915,2009.906485 9974.403275,2017.336105 9951.201535,2105.042945 9944.653155,2162.656395 9974.02805,2154.0881 9987.765375,2137.10465 10000.0,2000.0" />
<polygon fill="none" stroke="#231F20" stroke-width="0.001" points="11000.0,2000.0 10989.95847,2007.434895 10976.490725,2011.939375 10968.78903,2015.17285 11026.21362,2069.465625 11086.60861,2120.44068 11109.529375,2103.001385 11111.95447,2089.56772 11000.0,2000.0" />
<polygon fill="none" stroke="#231F20" stroke-width="0.001" points="12000.0,2000.0 12091.850475,2021.310855 12098.588535,2040.417945 12100.85103,2054.408335 11994.262145,2036.903005 11988.470805,2027.48452 12000.0,2000.0" />
<polygon fill="none" stroke="#231F20" stroke-width="0.001" points="13000.0,2000.0 12971.90048,2003.118165 12978.17134,2091.01646 12995.878915,2119.80304 13005.12277,2124.634335 13012.19958,2109.937245 13000.0,2000.0" />
<polygon fill="none" stroke="#231F20" stroke-width="0.001" points="14000.0,2000.0 14043.232555,2078.4510099999998 14033.287445,2095.134685 13993.79423,2113.443785 13967.76532,2058.423755 13971.46449,2047.645445 13965.60681,2013.95704 14000.0,2000.0" />
<polygon fill="none" stroke="#231F20" stroke-width="0.001" points="15000.0,2000.0 15019.981605,2015.16218 15054.12001,2024.801565 15037.31113,2074.2853 15019.17923,2068.810735 15017.240765,2078.302245 14971.478655,2055.8011 15000.0,2000.0" />
<polygon fill="none" stroke="#231F20" stroke-width="0.001" points="16000.0,2000.0 15926.58759,2041.029855 15931.72807,2046.49328 15913.085445,2061.195905 15937.336545,2069.057355 15949.97862,2081.07487 16024.940985,2041.473335 16000.0,2000.0" />
<polygon fill="none" stroke="#231F20" stroke-width="0.001" points="17000.0,2000.0 17045.115345,1980.752855 17065.380385,2018.2279 17057.601135,2027.467995 17029.167775,2045.66126 17010.095455,2007.318535 17003.13393,2009.88129 17000.0,2000.0" />
<polygon fill="none" stroke="#231F20" stroke-width="0.001" points="18000.0,2000.0 17961.68644,2046.412395 17922.18709,2014.45282 17915.500395,1993.730965 17942.21313,1949.91224 17973.773485,1950.5519199999999 17976.997365,1962.46044 17986.300575,1969.46071 17989.83047,1990.796895 18000.0,2000.0" />
<polygon fill="none" stroke="#231F20" stroke-width="0.001" points="19000.0,2000.0 19066.449065,2069.144485 19020.670585,2093.07311 18983.984545,2086.11789 18940.20055,2036.868375 18941.219625,2022.75259 18975.02422,2005.05256 18986.66917,2011.338855 19000.0,2000.0" />
<polygon fill="none" stroke="#231F20" stroke-width="0.001" points="20000.0,2000.0 20050.05364,2065.430085 20055.107105,2081.37199 20068.02297,2095.18288 20055.689345,2104.756085 20042.99182,2099.71423 20029.619615,2086.257555 20023.967485,2083.691995 19973.96235,2020.2101 20000.0,2000.0" />
<polygon fill="none" stroke="#231F20" stroke-width="0.001" points="21000.0,2000.0 20982.32653,2005.25332 20966.04352,2007.5119 20947.567765,1968.424465 20966.633735,1960.176015 20991.57552,1951.3901 20996.00351,1958.39906 20998.688225,1996.622685 21000.0,2000.0" />
<polygon fill="none" stroke="#231F20" stroke-width="0.001" points="22000.0,2000.0 21985.95112,2002.974975 21976.2893,2010.27315 21908.10628,2002.9997 21911.7243,1985.54046 21919.44433,1962.664505 21995.692455,1970.526905 22000.0,2000.0" />
<polygon fill="none" stroke="#231F20" stroke-width="0.001" points="23000.0,2000.0 22974.522045,2054.599935 22971.077915,2078.861665 22921.735135,2077.686455 22905.93157,2060.154365 22908.317375,2013.49441 22918.36045,1998.9666 23000.0,2000.0" />
<polygon fill="none" stroke="#231F20" stroke-width="0.001" points="24000.0,2000.0 24029.012665,2024.98278 23978.39112,2065.3086 23932.86417,2031.034735 24000.0,2000.0" />
<polygon fill="none" stroke="#231F20" stroke-width="0.001" points="25000.0,2000.0 24991.373605,2045.58065 24959.545675,2046.38111 24954.463165,2028.2894900000001 24957.64196,1997.477505 25000.0,2000.0" />
<polygon fill="none" stroke="#231F20" stroke-width="0.001" points="26000.0,2000.0 26001.317835,2030.95721 25995.23759,2064.729355 25984.38145,2063.500215 25979.8421,2071.9861300000002 25876.51535,2057.005295 25892.685725,1988.168055 25916.14761,1982.03793 26000.0,2000.0" />
<polygon fill="none" stroke="#231F20" stroke-width="0.001" points="27000.0,2000.0 27039.6651,2021.2675 27035.65716,2040.61643 27043.94248,2055.005975 27026.452005,2075.285415 27013.181545,2075.37954 26999.276135,2077.982975 26963.67128,2054.627265 27000.0,2000.0" />
<polygon fill="none" stroke="#231F20" stroke-width="0.001" points="28000.0,2000.0 28013.91058,2028.319105 28025.598485,2030.7636 28085.032705,1995.740615 28091.969225,1988.210805 28076.485035,1968.134525 28050.98762,1975.864915 28039.64423,1975.02335 28000.0,2000.0" />
<polygon fill="none" stroke="#231F20" stroke-width="0.001" points="29000.0,2000.0 29028.23876,2003.373695 29049.93076,2010.51494 29076.877855,2021.11102 29048.766335,2066.25714 29014.666875,2048.82175 29013.220015,2040.983865 28993.71153,2028.868825 28990.704045,2014.307435 29000.0,2000.0" />
<polygon fill="none" stroke="#231F20" stroke-width="0.001" points="30000.0,2000.0 30007.3149,2030.546955 30014.74224,2031.065195 30018.62345,2047.19007 30054.36984,2036.5339 30043.222045,1997.991435 30000.0,2000.0" />
<polygon fill="none" stroke="#231F20" stroke-width="0.001" points="31000.0,2000.0 31017.233745,2042.76748 31059.775105,2028.355445 31057.588595,1998.895165 31013.13784,1989.66808 31000.0,2000.0" />
<polygon fill="none" stroke="#231F20" stroke-width="0.001" points="32000.0,2000.0 31943.677605,1998.35179 31941.25489,2039.911295 31963.2041,2061.014455 31967.584375,2090.89706 31979.096385,2095.05047 31982.91736,2104.52118 31992.119085,2102.353965 31998.018675,2083.679215 32002.809595,2076.526295 32006.06134,2013.23949 32000.0,2000.0" />
<polygon fill="none" stroke="#231F20" stroke-width="0.001" points="33000.0,2000.0 32979.341075,2055.685665 32983.045375,2088.172 33000.47865,2114.04969 32997.688035,2091.774445 33012.32448,2057.52136 33024.118585,2056.44932 33036.572815,2022.4278 33000.0,2000.0" />
<polygon fill="none" stroke="#231F20" stroke-width="0.001" points="34000.0,2000.0 34072.739245,2018.89985 34065.680985,2059.347205 34028.727925,2049.351195 33997.355525,2019.04657 34000.0,2000.0" />
<polygon fill="none" stroke="#231F20" stroke-width="0.001" points="35000.0,2000.0 34922.210585,1961.91708 34906.155525,1982.434955 34908.098865,2000.06039 34973.77635,2013.843755 34990.096315,2006.82197 35000.0,2000.0" />
<polygon fill="none" stroke="#231F20" stroke-width="0.001" points="36000.0,2000.0 36020.933745,2007.22243 36029.095655,2127.490455 36017.33303,2133.75747 36001.51163,2118.83537 36000.0,2000.0" />
<polygon fill="none" stroke="#231F20" stroke-width="0.001" points="37000.0,2000.0 36995.988365,2017.174255 36992.979955,2030.05431 37030.727905,2110.66402 37061.51523,2157.77331 37076.511505,2131.679215 37075.573715,2109.85689 37000.0,2000.0" />
<polygon fill="none" stroke="#231F20" stroke-width="0.001" points="38000.0,2000.0 37990.34745,1999.735665 37980.410345,1996.115595 37974.36581,1994.438155 37976.28536,2053.774125 37981.675765,2112.52028 38003.96644,2112.84387 38012.70271,2105.956375 38000.0,2000.0" />
<polygon fill="none" stroke="#231F20" stroke-width="0.001" points="39000.0,2000.0 39007.973015,2070.529275 38988.280155,2084.852075 38972.91264,2093.61144 38955.30922,2015.532765 38964.13968,2006.87486 39000.0,2000.0" />
<polygon fill="none" stroke="#231F20" stroke-width="0.001" points="40000.0,2000.0 39996.35984,2031.152115 40074.81785,2044.18662 40104.063055,2031.492845 40110.39381,2022.566125 40099.118015,2011.58206 40000.0,2000.0" />
<polygon fill="none" stroke="#231F20" stroke-width="0.001" points="41000.0,2000.0 41033.22059,2079.51731 41022.055505,2094.55567 40982.58112,2108.2637 40963.37004,2052.915605 40967.986845,2042.93361 40965.82484,2010.030265 41000.0,2000.0" />
<polygon fill="none" stroke="#231F20" stroke-width="0.001" points="42000.0,2000.0 42024.383925,2003.964295 42058.319125,1992.99672 42067.3649,2057.546225 42049.172425,2062.98444 42052.0131,2074.55673 42001.97385,2078.809955 42000.0,2000.0" />
<polygon fill="none" stroke="#231F20" stroke-width="0.001" points="43000.0,2000.0 42931.338385,2033.529325 42935.91099,2039.603385 42918.353945,2052.445195 42940.43142,2063.00384 42951.71694,2076.508565 43021.76346,2044.58943 43000.0,2000.0" />
<polygon fill="none" stroke="#231F20" stroke-width="0.001" points="44000.0,2000.0 44028.5473,1961.47959 44067.560715,1990.27923 44066.000825,2002.840285 44051.452255,2033.177885 44012.989775,2003.001175 44008.35356,2008.53805 44000.0,2000.0" />
<polygon fill="none" stroke="#231F20" stroke-width="0.001" points="45000.0,2000.0 44976.02676,2049.737785 44940.26506,2036.699765 44932.091785,2022.153505 44947.22013,1978.240885 44972.3481,1968.5952 44976.55416,1977.15395 44984.90409,1979.79999 44990.657845,1995.857685 45000.0,2000.0" />
<polygon fill="none" stroke="#231F20" stroke-width="0.001" points="46000.0,2000.0 46057.68168,2079.18728 46007.44801,2111.988385 45971.02395,2106.37734 45933.55796,2049.696405 45936.668245,2032.385875 45973.76716,2008.1274 45984.730805,2014.886995 46000.0,2000.0" />
<polygon fill="none" stroke="#231F20" stroke-width="0.001" points="47000.0,2000.0 47009.54241,2080.541495 47005.724455,2096.592275 47009.76045,2114.7688200000002 46994.249285,2116.719 46985.910105,2106.089975 46981.300195,2087.98559 46977.752645,2082.98173 46967.25421,2004.117045 47000.0,2000.0" />
<polygon fill="none" stroke="#231F20" stroke-width="0.001" points="48000.0,2000.0 47990.794425,2020.991625 47980.366935,2038.068375 47937.13481,2020.926575 47945.11969,1996.017845 47957.07664,1965.19023 47965.65945,1967.23025 47996.476585,1998.255015 48000.0,2000.0" />
<polygon fill="none" stroke="#231F20" stroke-width="0.001" points="0.0,2000.0 -12.995545,2006.80709 -22.798634999999997,2016.360065 -82.29091499999998,2029.258505 -76.19276,2012.022235 -65.55052500000001,1988.57997 1.0236049999999999,1973.90409 0.0,2000.0" />
<polygon fill="none" stroke="#231F20" stroke-width="0.001" points="1000.0,3000.0 975.320315,3057.03316 971.5528,3082.475425 926.487685,3080.61878 912.49249,3062.00297 915.86504,3013.019185 925.4147399999999,2997.885105 1000.0,3000.0" />
<polygon fill="none" stroke="#231F20" stroke-width="0.001" points="2000.0,3000.0 2000.634065,3035.054775 1935.878475,3029.130805 1931.14464,2977.36739 2000.0,3000.0" />
<polygon fill="none" stroke="#231F20" stroke-width="0.001" points="3000.0,3000.0 3004.387765,3044.82547 2975.410295,3059.156035 2965.86637,3045.001115 2960.467305,3015.83373 3000.0,3000.0" />
<polygon fill="none" stroke="#231F20" stroke-width="0.001" points="4000.0,3000.0 3999.094175,3023.395215 3991.074775,3046.38996 3981.006355,3041.828425 3976.174725,3046.59371 3880.572065,3000.744455 3900.450465,2955.144625 3922.816875,2958.488415 4000.0,3000.0" />
<polygon fill="none" stroke="#231F20" stroke-width="0.001" points="5000.0,3000.0 5062.316135,3016.22166 5067.00215,3042.796375 5085.100605,3059.239425 5072.77327,3091.00881 5055.607725,3095.04331 5038.90051,3102.55815 4980.78426,3082.39932 5000.0,3000.0" />
<polygon fill="none" stroke="#231F20" stroke-width="0.001" points="6000.0,3000.0 6006.925405,3037.47619 6016.104835,3047.000595 6070.2527,3046.614915 6077.114095,3043.028595 6067.60353,3013.088555 6045.52219,3005.74967 6036.37236,2998.080915 6000.0,3000.0" />
<polygon fill="none" stroke="#231F20" stroke-width="0.001" points="7000.0,3000.0 7027.436515,2993.95699 7051.233965,2992.89635 7081.82839,2992.93647 7083.531885,3037.133595 7042.408065,3033.913 7036.41694,3028.18895 7011.609495,3024.66176 7000.191495,3014.125905 7000.0,3000.0" />
<polygon fill="none" stroke="#231F20" stroke-width="0.001" points="8000.0,3000.0 8006.831045,3033.68501 8015.055305,3034.624855 8018.6833,3052.40722 8058.820585,3042.58805 8048.071815,2999.98941 8000.0,3000.0" />
<polygon fill="none" stroke="#231F20" stroke-width="0.001" points="9000.0,3000.0 9029.4238,3021.685265 9059.00375,3001.385455 9046.646675,2983.845105 9007.024765,2990.112055 9000.0,3000.0" />
<polygon fill="none" stroke="#231F20" stroke-width="0.001" points="10000.0,3000.0 9957.924275,3049.310265 9985.137385,3075.697625 10015.79902,3068.40767 10039.81487,3081.91653 10051.075655,3074.062405 10060.454755,3076.17242 10065.630295,3066.69608 10056.897965,3050.544885 10055.392565,3042.099285 10013.634495,3002.307175 10000.0,3000.0" />
<polygon fill="none" stroke="#231F20" stroke-width="0.001" points="11000.0,3000.0 10949.190045,3063.796445 10939.72943,3103.10073 10950.742975,3136.32696 10956.9089,3109.34359 10990.63336,3070.356825 11006.208325,3070.63757 11037.03649,3031.63855 11000.0,3000.0" />
<polygon fill="none" stroke="#231F20" stroke-width="0.001" points="12000.0,3000.0 12018.11379,3097.28181 11986.704615,3104.72509 11977.779085,3055.146375 11985.502405,3004.342975 12000.0,3000.0" />
<polygon fill="none" stroke="#231F20" stroke-width="0.001" points="13000.0,3000.0 12934.710355,3062.210515 12952.098585,3083.004595 12971.86416,3086.124215 13007.009115,3028.4508299999998 13004.380375,3011.191525 13000.0,3000.0" />
<polygon fill="none" stroke="#231F20" stroke-width="0.001" points="14000.0,3000.0 14020.619675,3016.52414 14011.316205,3154.28488 13998.20543,3156.54426 13984.01878,3133.474835 14000.0,3000.0" />
<polygon fill="none" stroke="#231F20" stroke-width="0.001" points="15000.0,3000.0 14984.027085,3001.741285 14972.048025,3003.047305 14910.700555,3052.075555 14876.94978,3087.030145 14903.361955,3090.812125 14922.20457,3084.241495 15000.0,3000.0" />
<polygon fill="none" stroke="#231F20" stroke-width="0.001" points="16000.0,3000.0 15989.69977,2992.88664 15981.81434,2982.32164 15976.591855,2976.403135 15930.503545,3035.224135 15888.67507,3095.93977 15912.69435,3112.088925 15927.80355,3111.62594 16000.0,3000.0" />
<polygon fill="none" stroke="#231F20" stroke-width="0.001" points="17000.0,3000.0 17003.69925,3084.823575 16980.79465,3099.163855 16963.097375,3107.48389 16949.259915,3012.39259 16959.6938,3003.307995 17000.0,3000.0" />
<polygon fill="none" stroke="#231F20" stroke-width="0.001" points="18000.0,3000.0 17963.68887,3006.25998 17976.37642,3106.41125 18000.84992,3137.7144 18013.098195,3142.36855 18021.52325,3124.846035 18000.0,3000.0" />
<polygon fill="none" stroke="#231F20" stroke-width="0.001" points="19000.0,3000.0 19010.578625,3080.661475 18995.928865,3088.418975 18954.61697,3082.90142 18950.98706,3028.437955 18958.04459,3022.088105 18964.72215,2993.689045 19000.0,3000.0" />
<polygon fill="none" stroke="#231F20" stroke-width="0.001" points="20000.0,3000.0 20019.10715,3012.118065 20052.53234,3012.10684 20033.471375,3081.178435 20015.735315,3080.73253 20013.35544,3093.51844 19969.009245,3081.333035 20000.0,3000.0" />
<polygon fill="none" stroke="#231F20" stroke-width="0.001" points="21000.0,3000.0 20939.603365,3038.1509 20944.28479,3042.75991 20929.179855,3056.188855 20950.293305,3062.2886 20961.72943,3072.384565 21023.52572,3035.43211 21000.0,3000.0" />
<polygon fill="none" stroke="#231F20" stroke-width="0.001" points="22000.0,3000.0 22005.88792,2943.041985 22060.771915,2946.93363 22066.463525,2960.539295 22069.620105,3000.311285 22014.485325,2994.684495 22013.1156,3003.21317 22000.0,3000.0" />
<polygon fill="none" stroke="#231F20" stroke-width="0.001" points="23000.0,3000.0 22994.64555,3065.56689 22936.88252,3060.31607 22917.081045,3045.451215 22913.312895,2989.27728 22943.168885,2970.74804 22953.97125,2979.665415 22967.23102,2980.421005 22984.4902,2997.75838 23000.0,3000.0" />
<polygon fill="none" stroke="#231F20" stroke-width="0.001" points="24000.0,3000.0 24060.06833,3075.994885 24011.516655,3097.734155 23975.225965,3088.100585 23936.01591,3034.20683 23938.457425,3019.659565 23974.31288,3003.575175 23985.42376,3010.85583 24000.0,3000.0" />
<polygon fill="none" stroke="#231F20" stroke-width="0.001" points="25000.0,3000.0 25000.43817,3077.71471 24993.60585,3092.62024 24995.982165,3110.35036 24976.947715,3110.63047 24968.3246,3099.65419 24965.24401,3081.93443 24961.64217,3076.805585 24959.816165,3000.59135 25000.0,3000.0" />
<polygon fill="none" stroke="#231F20" stroke-width="0.001" points="26000.0,3000.0 25979.75781,3012.708305 25961.415325,3021.58981 25945.558605,2986.05543 25967.70282,2969.51909 25996.43299,2950.081765 26000.513975,2956.014805 25998.945815,2996.81768 26000.0,3000.0" />
<polygon fill="none" stroke="#231F20" stroke-width="0.001" points="27000.0,3000.0 26991.837155,3012.630915 26988.01796,3026.080375 26940.98277,3067.692875 26937.38109,3049.30236 26934.60877,3023.09955 26987.11484,2976.318755 27000.0,3000.0" />
<polygon fill="none" stroke="#231F20" stroke-width="0.001" points="28000.0,3000.0 27934.42658,2981.106625 27906.814695,2981.762145 27898.56114,2924.84335 27914.970515,2903.35153 27967.25249,2897.221415 27985.33239,2905.99885 28000.0,3000.0" />
<polygon fill="none" stroke="#231F20" stroke-width="0.001" points="29000.0,3000.0 28990.480435,3030.14354 28903.11892,3023.006915 28911.949675,2978.375665 29000.0,3000.0" />
<polygon fill="none" stroke="#231F20" stroke-width="0.001" points="30000.0,3000.0 30026.71414,3054.26589 29993.66996,3078.691265 29974.067,3063.455665 29953.2022,3028.73811 30000.0,3000.0" />
<polygon fill="none" stroke="#231F20" stroke-width="0.001" points="31000.0,3000.0 31012.35433,3021.105085 31018.530045,3046.04661 31007.545995,3047.964035 31006.17269,3054.99915 30900.45443,3070.975635 30891.53519,3019.174395 30912.13031,3008.944945 31000.0,3000.0" />
<polygon fill="none" stroke="#231F20" stroke-width="0.001" points="32000.0,3000.0 32021.035765,3054.14663 32007.74239,3073.137545 32006.968985,3095.76651 31982.2866,3105.63709 31971.503625,3095.725155 31958.903515,3088.189155 31942.23675,3034.731815 32000.0,3000.0" />
<polygon fill="none" stroke="#231F20" stroke-width="0.001" points="33000.0,3000.0 32999.909905,3038.51996 33007.65133,3049.53236 33064.392205,3058.071335 33072.27477,3055.62512 33068.184005,3024.19565 33046.51292,3013.23683 33038.43916,3004.08013 33000.0,3000.0" />
<polygon fill="none" stroke="#231F20" stroke-width="0.001" points="34000.0,3000.0 34018.241265,3016.18461 34029.57775,3031.453785 34042.646205,3051.497475 33995.96029,3065.628455 33981.79148,3037.75396 33985.36486,3032.145565 33978.51749,3014.86402 33984.927385,3004.28532 34000.0,3000.0" />
<polygon fill="none" stroke="#231F20" stroke-width="0.001" points="35000.0,3000.0 34977.39832,3017.6479 34979.876265,3023.189325 34967.95327,3032.519425 34990.842905,3053.852155 35018.60889,3030.20814 35000.0,3000.0" />
<polygon fill="none" stroke="#231F20" stroke-width="0.001" points="36000.0,3000.0 35994.93997,3038.139355 36030.31449,3051.012755 36040.54449,3029.89377 36013.270705,2999.99192 36000.0,3000.0" />
<polygon fill="none" stroke="#231F20" stroke-width="0.001" points="37000.0,3000.0 36957.751295,3015.54115 36973.939045,3057.697995 36999.25292,3072.03252 37015.407405,3100.47675 37025.693465,3101.10371 37032.60737,3109.37634 37038.456015,3104.40911 37034.729965,3083.99815 37035.169475,3075.407945 37010.19609,3011.34502 37000.0,3000.0" />
<polygon fill="none" stroke="#231F20" stroke-width="0.001" points="38000.0,3000.0 37936.66806,3059.096175 37920.59767,3098.92313 37926.98522,3135.56648 37937.67228,3108.1728 37979.184325,3072.47689 37995.50332,3075.20946 38033.97448,3039.047395 38000.0,3000.0" />
<polygon fill="none" stroke="#231F20" stroke-width="0.001" points="39000.0,3000.0 38994.757115,3062.634445 38955.832505,3062.97867 38958.86392,3031.09914 38981.78613,3000.72017 39000.0,3000.0" />
<polygon fill="none" stroke="#231F20" stroke-width="0.001" points="40000.0,3000.0 39913.227345,2959.44086 39889.691085,2976.136635 39888.552495,2991.878465 39965.457155,3009.895845 39986.63845,3005.145045 40000.0,3000.0" />
<polygon fill="none" stroke="#231F20" stroke-width="0.001" points="41000.0,3000.0 41027.03577,2991.55267 41119.28343,3118.05836 41111.274965,3134.215625 41084.25838,3130.14163 41000.0,3000.0" />
<polygon fill="none" stroke="#231F20" stroke-width="0.001" points="42000.0,3000.0 41985.57825,2999.898435 41974.76251,2999.82243 41920.713405,3053.380465 41891.23062,3093.01523 41915.288785,3101.670665 41932.158525,3096.03577 42000.0,3000.0" />
<polygon fill="none" stroke="#231F20" stroke-width="0.001" points="43000.0,3000.0 42991.841015,3008.085035 42981.14314,3013.32664 42974.99596,3016.997875 43017.316655,3069.96026 43062.100985,3119.38503 43080.74565,3100.45018 43083.237615,3086.572485 43000.0,3000.0" />
<polygon fill="none" stroke="#231F20" stroke-width="0.001" points="44000.0,3000.0 44036.615685,3057.022065 44026.2362,3076.74836 44017.10983,3090.08292 43969.237925,3030.312255 43972.94289,3019.562885 44000.0,3000.0" />
<polygon fill="none" stroke="#231F20" stroke-width="0.001" points="45000.0,3000.0 44979.62908,3019.728385 45026.547625,3073.166335 45054.092575,3080.81087 45063.59526,3078.144775 45062.071965,3064.0936 45000.0,3000.0" />
<polygon fill="none" stroke="#231F20" stroke-width="0.001" points="46000.0,3000.0 45972.436395,3081.873215 45954.094735,3085.6931 45915.33071,3069.58972 45937.46013,3015.2171 45947.532195,3010.813615 45967.654455,2984.679645 46000.0,3000.0" />
<polygon fill="none" stroke="#231F20" stroke-width="0.001" points="47000.0,3000.0 47016.731535,3011.861735 47046.70541,3014.257125 47027.31862,3072.65961 47011.4289,3070.99753 47008.87011,3081.891115 46969.508105,3068.1550349999998 47000.0,3000.0" />
<polygon fill="none" stroke="#231F20" stroke-width="0.001" points="48000.0,3000.0 47965.34132,3053.59198 47973.64057,3059.084805 47967.856515,3077.444575 47994.391145,3083.491425 48013.802215,3095.42654 48050.809,3043.247865 48000.0,3000.0" />
<polygon fill="none" stroke="#231F20" stroke-width="0.001" points="0.0,3000.0 43.59869,2970.82998 71.448325,3000.966805 64.99182,3011.548015 38.60094,3035.6163 11.83962,3004.37188 5.03915,3008.49122 0.0,3000.0" />
<polygon fill="none" stroke="#231F20" stroke-width="0.001" points="1000.0,4000.0 998.654885,4068.146675 941.08259,4067.5622 920.5569849999999,4053.87229 913.4273499999999,3996.187835 941.90102,3974.556135 953.147255,3982.85881 966.336065,3982.528595 984.49115,3998.98429 1000.0,4000.0" />
<polygon fill="none" stroke="#231F20" stroke-width="0.001" points="2000.0,4000.0 2074.253775,4053.80636 2037.01561,4091.75479 2002.09185,4094.773955 1952.447745,4055.452875 1950.63517,4040.369605 1978.1274,4012.315355 1990.006125,4015.632355 2000.0,4000.0" />
<polygon fill="none" stroke="#231F20" stroke-width="0.001" points="3000.0,4000.0 3088.757295,4012.523045 3104.616145,4022.863295 3125.248865,4023.10764 3122.363375,4045.001645 3108.38586,4053.05918 3087.646375,4053.624915 3081.18713,4056.899325 2993.9084,4046.22068 3000.0,4000.0" />
<polygon fill="none" stroke="#231F20" stroke-width="0.001" points="4000.0,4000.0 3977.256035,4004.04958 3957.4748,4005.22109 3953.96114,3965.25453 3979.670355,3958.326625 4012.39158,3951.25117 4014.305895,3958.490895 4000.02421,3996.56539 4000.0,4000.0" />
<polygon fill="none" stroke="#231F20" stroke-width="0.001" points="5000.0,4000.0 4989.672825,4006.195215 4983.85071,4014.63913 4928.438075,4027.41312 4927.02884,4012.52191 4927.526385,3992.19935 4989.42742,3977.698205 5000.0,4000.0" />
<polygon fill="none" stroke="#231F20" stroke-width="0.001" points="6000.0,4000.0 5947.09924,4033.856 5932.205205,4053.50131 5878.793985,4023.629735 5869.5563,3998.748475 5893.56675,3958.49128 5911.211195,3951.389545 6000.0,4000.0" />
<polygon fill="none" stroke="#231F20" stroke-width="0.001" points="7000.0,4000.0 7015.529855,4029.403685 6957.8287550000005,4052.727925 6931.661405,4010.971145 7000.0,4000.0" />
<polygon fill="none" stroke="#231F20" stroke-width="0.001" points="8000.0,4000.0 7961.153545,4037.41824 7925.388215,4021.75106 7931.385645,4002.51546 7954.707575,3975.854195 8000.0,4000.0" />
<polygon fill="none" stroke="#231F20" stroke-width="0.001" points="9000.0,4000.0 8989.68711,4020.14572 8973.300545,4036.9573 8966.32929,4028.73349 8960.154465,4030.88831 8894.992185,3950.575765 8930.973035,3918.90446 8949.22165,3931.216565 9000.0,4000.0" />
<polygon fill="none" stroke="#231F20" stroke-width="0.001" points="10000.0,4000.0 10046.04272,4019.749835 10045.8491,4040.968945 10057.529665,4055.835865 10043.378005,4079.152975 10029.469095,4080.330605 10015.41419,4084.26942 9973.19993,4061.9354 10000.0,4000.0" />
<polygon fill="none" stroke="#231F20" stroke-width="0.001" points="11000.0,4000.0 11021.82584,4018.65009 11032.323655,4017.53762 11068.27896,3974.57832 11071.211095,3966.858645 11051.1199,3955.096575 11033.01609,3967.792105 11023.38992,3970.075175 11000.0,4000.0" />
<polygon fill="none" stroke="#231F20" stroke-width="0.001" points="12000.0,4000.0 12020.12894,4010.20977 12034.74604,4021.56412 12052.58385,4037.00042 12023.53465,4064.27379 12001.710375,4041.632305 12002.103005,4035.193125 11990.01481,4020.587975 11990.50944,4008.53907 12000.0,4000.0" />
<polygon fill="none" stroke="#231F20" stroke-width="0.001" points="13000.0,4000.0 12996.2106,4030.546565 13001.68793,4032.24296 12999.7027,4048.370835 13030.084855,4043.893055 13033.41056,4005.04163 13000.0,4000.0" />
<polygon fill="none" stroke="#231F20" stroke-width="0.001" points="14000.0,4000.0 14007.10692,4032.72521 14038.967895,4025.945315 14040.93422,4004.253575 14010.541265,3993.614255 14000.0,4000.0" />
<polygon fill="none" stroke="#231F20" stroke-width="0.001" points="15000.0,4000.0 14951.44576,4026.070035 14977.964175,4073.978335 15010.94606,4086.813865 15035.16841,4118.22628 15047.71523,4117.186945 15057.440315,4125.936445 15063.698635,4118.938945 15055.833255,4095.02629 15054.951815,4084.612235 15014.20117,4011.87441 15000.0,4000.0" />
<polygon fill="none" stroke="#231F20" stroke-width="0.001" points="16000.0,4000.0 16002.72992,4072.2673 16020.86228,4105.77902 16050.50849,4124.524585 16037.81238,4101.683825 16038.157885,4056.17246 16050.068255,4048.52615 16048.224595,4004.465895 16000.0,4000.0" />
<polygon fill="none" stroke="#231F20" stroke-width="0.001" points="17000.0,4000.0 17062.56517,4071.95526 17041.180685,4092.356845 17009.539145,4055.546575 16990.57825,4010.16468 17000.0,4000.0" />
<polygon fill="none" stroke="#231F20" stroke-width="0.001" points="18000.0,4000.0 17944.57846,4070.89074 17957.901675,4094.481425 17973.835535,4097.974755 18004.59871,4032.322045 18003.127385,4012.70998 18000.0,4000.0" />
<polygon fill="none" stroke="#231F20" stroke-width="0.001" points="19000.0,4000.0 19019.120285,3999.284435 19062.23437,4094.375525 19054.62555,4103.16164 19037.301555,4096.018165 19000.0,4000.0" />
<polygon fill="none" stroke="#231F20" stroke-width="0.001" points="20000.0,4000.0 19991.480155,4009.670545 19985.090705,4016.92316 19983.64954,4082.701905 19988.75328,4124.288735 20007.76272,4112.803265 20014.476445,4098.340575 20000.0,4000.0" />
<polygon fill="none" stroke="#231F20" stroke-width="0.001" points="21000.0,4000.0 20992.57418,4006.58407 20982.00522,4011.283275 20976.03452,4014.46745 21029.29196,4049.97117 21084.621375,4082.68212 21101.51931,4067.299375 21102.015415,4056.914835 21000.0,4000.0" />
<polygon fill="none" stroke="#231F20" stroke-width="0.001" points="22000.0,4000.0 22075.788375,4070.5436 22071.0236,4094.069385 22064.96599,4109.89192 21972.764565,4035.58628 21972.738005,4022.692125 22000.0,4000.0" />
<polygon fill="none" stroke="#231F20" stroke-width="0.001" points="23000.0,4000.0 22994.89049,4034.1861 23074.68596,4050.391975 23105.207525,4037.122085 23112.08839,4027.45171 23101.02412,4015.099225 23000.0,4000.0" />
<polygon fill="none" stroke="#231F20" stroke-width="0.001" points="24000.0,4000.0 23955.193255,4077.277535 23935.86478,4077.23813 23900.019945,4052.59602 23933.64154,4002.09268 23944.73283,3999.772005 23970.480155,3977.524955 24000.0,4000.0" />
<polygon fill="none" stroke="#231F20" stroke-width="0.001" points="25000.0,4000.0 24999.14885,4024.38471 25016.39658,4055.734245 24945.549535,4074.678545 24936.796725,4057.80296 24924.274465,4062.38716 24912.16899,4014.290295 25000.0,4000.0" />
<polygon fill="none" stroke="#231F20" stroke-width="0.001" points="26000.0,4000.0 25965.697425,4072.068145 25973.73388,4074.35689 25967.918035,4096.42701 25993.723985,4091.46299 26012.529235,4095.843385 26049.106925,4024.27264 26000.0,4000.0" />
<polygon fill="none" stroke="#231F20" stroke-width="0.001" points="27000.0,4000.0 27047.74334,3968.0966 27076.5317,3993.72909 27069.24203,4004.36095 27040.117705,4029.721175 27012.534415,4002.934325 27005.10255,4007.504365 27000.0,4000.0" />
<polygon fill="none" stroke="#231F20" stroke-width="0.001" points="28000.0,4000.0 27951.737445,4013.062845 27941.44716,3965.795605 27947.276855,3946.141795 27986.592925,3928.313595 28007.126415,3947.13441 28003.367345,3958.069635 28006.051655,3968.80127 27997.83269,3987.08874 28000.0,4000.0" />
<polygon fill="none" stroke="#231F20" stroke-width="0.001" points="29000.0,4000.0 29032.100405,4084.164625 28978.34996,4112.8653699999995 28946.8269,4104.21351 28927.306575,4044.287555 28934.50767,4027.19573 28974.21243,4005.9654 28982.415565,4013.651955 29000.0,4000.0" />
<polygon fill="none" stroke="#231F20" stroke-width="0.001" points="30000.0,4000.0 30030.987635,4049.674345 30030.92255,4062.962765 30039.969715,4073.05782 30023.54424,4083.58827 30011.73021,4081.22778 30002.0753,4071.52235 29996.92634,4070.18693 29965.323995,4022.23095 30000.0,4000.0" />
<polygon fill="none" stroke="#231F20" stroke-width="0.001" points="31000.0,4000.0 30976.732165,3994.48854 30957.264665,3987.01237 30966.95635,3939.833685 30994.027035,3943.381275 31027.91089,3949.88455 31027.388095,3959.000025 31001.147545,3996.090915 31000.0,4000.0" />
<polygon fill="none" stroke="#231F20" stroke-width="0.001" points="32000.0,4000.0 31985.56252,4002.364335 31973.764645,4008.65895 31911.421015,4000.83446 31921.078745,3985.387365 31936.57021,3965.207215 32006.3848,3973.715995 32000.0,4000.0" />
<polygon fill="none" stroke="#231F20" stroke-width="0.001" points="33000.0,4000.0 32945.42989,4047.196665 32930.899665,4072.03916 32870.521875,4046.509105 32858.45385,4019.56932 32881.1698,3969.710115 32899.71654,3958.755915 33000.0,4000.0" />
<polygon fill="none" stroke="#231F20" stroke-width="0.001" points="34000,4000 34900,4000 34900,4900 34000,4900" />
    </g>
</g>
</svg>

