<?xml version="1.0" encoding="utf-8"?>
<!-- Generator: Adobe Illustrator 15.1.0, SVG Export Plug-In . SVG Version: 6.00 Build 0)  -->
<!DOCTYPE svg PUBLIC "-//W3C//DTD SVG 1.1//EN" "http://www.w3.org/Graphics/SVG/1.1/DTD/svg11.dtd">
<svg version="1.1" xmlns="http://www.w3.org/2000/svg" xmlns:xlink="http://www.w3.org/1999/xlink" x="0px" y="0px" width="50000px"
	 height="50000px" viewBox="0 0 50000 50000" xml:space="preserve">
<g id="Grid" display="none">
</g>
<g id="Layer_1">
</g>
<g id="Desktop">
</g>
<g id="Guides">
</g>
<g id="Page_1">
	<g id="Layer_1_1_">
	
<polygon fill="none" stroke="#231F20" stroke-width="0.001" points="1000,1000 1217.4695,1000 1217.4695,1108.73475 1108.73475,1108.73475 1108.73475,1217.4695 1000,1217.4695" />
<polygon fill="none" stroke="#231F20" stroke-width="0.001" points="2000,1000 2217.4695,1000 2217.4695,1108.73475 2108.73475,1108.73475 2108.73475,1217.4695 2000,1217.4695" />
<polygon fill="none" stroke="#231F20" stroke-width="0.001" points="3000,1000 3217.4695,1000 3217.4695,1108.73475 3108.73475,1108.73475 3108.73475,1217.4695 3000,1217.4695" />
<polygon fill="none" stroke="#231F20" stroke-width="0.001" points="4000,1000 4217.4695,1000 4217.4695,1108.73475 4108.73475,1108.73475 4108.73475,1217.4695 4000,1217.4695" />
<polygon fill="none" stroke="#231F20" stroke-width="0.001" points="5000,1000 5217.4695,1000 5217.4695,1108.73475 5108.73475,1108.73475 5108.73475,1217.4695 5000,1217.4695" />
<polygon fill="none" stroke="#231F20" stroke-width="0.001" points="6000,1000 6217.4695,1000 6217.4695,1108.73475 6108.73475,1108.73475 6108.73475,1217.4695 6000,1217.4695" />
<polygon fill="none" stroke="#231F20" stroke-width="0.001" points="7000,1000 7217.4695,1000 7217.4695,1108.73475 7108.73475,1108.73475 7108.73475,1217.4695 7000,1217.4695" />
<polygon fill="none" stroke="#231F20" stroke-width="0.001" points="8000,1000 8217.4695,1000 8217.4695,1108.73475 8108.73475,1108.73475 8108.73475,1217.4695 8000,1217.4695" />
<polygon fill="none" stroke="#231F20" stroke-width="0.001" points="9000,1000 9217.4695,1000 9217.4695,1108.73475 9108.73475,1108.73475 9108.73475,1217.4695 9000,1217.4695" />
<polygon fill="none" stroke="#231F20" stroke-width="0.001" points="10000,1000 10217.4695,1000 10217.4695,1108.73475 10108.73475,1108.73475 10108.73475,1217.4695 10000,1217.4695" />
<polygon fill="none" stroke="#231F20" stroke-width="0.001" points="11000,1000 11217.4695,1000 11217.4695,1108.73475 11108.73475,1108.73475 11108.73475,1217.4695 11000,1217.4695" />
<polygon fill="none" stroke="#231F20" stroke-width="0.001" points="12000,1000 12217.4695,1000 12217.4695,1108.73475 12108.73475,1108.73475 12108.73475,1217.4695 12000,1217.4695" />
<polygon fill="none" stroke="#231F20" stroke-width="0.001" points="13000,1000 13217.4695,1000 13217.4695,1108.73475 13108.73475,1108.73475 13108.73475,1217.4695 13000,1217.4695" />
<polygon fill="none" stroke="#231F20" stroke-width="0.001" points="14000,1000 14217.4695,1000 14217.4695,1108.73475 14108.73475,1108.73475 14108.73475,1217.4695 14000,1217.4695" />
<polygon fill="none" stroke="#231F20" stroke-width="0.001" points="15000,1000 15217.4695,1000 15217.4695,1108.73475 15108.73475,1108.73475 15108.73475,1217.4695 15000,1217.4695" />
<polygon fill="none" stroke="#231F20" stroke-width="0.001" points="16000,1000 16217.4695,1000 16217.4695,1108.73475 16108.73475,1108.73475 16108.73475,1217.4695 16000,1217.4695" />
<polygon fill="none" stroke="#231F20" stroke-width="0.001" points="17000,1000 17217.4695,1000 17217.4695,1108.73475 17108.73475,1108.73475 17108.73475,1217.4695 17000,1217.4695" />
<polygon fill="none" stroke="#231F20" stroke-width="0.001" points="18000,1000 18217.4695,1000 18217.4695,1108.73475 18108.73475,1108.73475 18108.73475,1217.4695 18000,1217.4695" />
<polygon fill="none" stroke="#231F20" stroke-width="0.001" points="19000,1000 19217.4695,1000 19217.4695,1108.73475 19108.73475,1108.73475 19108.73475,1217.4695 19000,1217.4695" />
<polygon fill="none" stroke="#231F20" stroke-width="0.001" points="20000,1000 20217.4695,1000 20217.4695,1108.73475 20108.73475,1108.73475 20108.73475,1217.4695 20000,1217.4695" />
<polygon fill="none" stroke="#231F20" stroke-width="0.001" points="21000,1000 21217.4695,1000 21217.4695,1108.73475 21108.73475,1108.73475 21108.73475,1217.4695 21000,1217.4695" />
<polygon fill="none" stroke="#231F20" stroke-width="0.001" points="22000,1000 22900,1000 22900,1900 22000,1900" />
    </g>
</g>
</svg>

