<?xml version="1.0" encoding="utf-8"?>
<!-- Generator: Adobe Illustrator 15.1.0, SVG Export Plug-In . SVG Version: 6.00 Build 0)  -->
<!DOCTYPE svg PUBLIC "-//W3C//DTD SVG 1.1//EN" "http://www.w3.org/Graphics/SVG/1.1/DTD/svg11.dtd">
<svg version="1.1" xmlns="http://www.w3.org/2000/svg" xmlns:xlink="http://www.w3.org/1999/xlink" x="0px" y="0px" width="50000px"
	 height="50000px" viewBox="0 0 50000 50000" xml:space="preserve">
<g id="Grid" display="none">
</g>
<g id="Layer_1">
</g>
<g id="Desktop">
</g>
<g id="Guides">
</g>
<g id="Page_1">
	<g id="Layer_1_1_">
	
<polygon fill="none" stroke="#231F20" stroke-width="0.001" points="1000.0,1000.0 1330.0,1000.0 1330.0,1190.0 1030.0,1110.0" />
<polygon fill="none" stroke="#231F20" stroke-width="0.001" points="2000.0,1000.0 2420.0,1000.0 2370.0,1300.0 2000.0,1190.0" />
<polygon fill="none" stroke="#231F20" stroke-width="0.001" points="3050.0,1000.0 3300.0,1000.0 3300.0,1510.0 3000.0,1300.0" />
<polygon fill="none" stroke="#231F20" stroke-width="0.001" points="4000.0,1000.0 4030.0,1110.0 4070.0,1330.0 4080.0,1380.0 4000.0,1360.0" />
<polygon fill="none" stroke="#231F20" stroke-width="0.001" points="5000.0,1000.0 5300.0,1080.0 5670.0,1190.0 5560.0,1290.0 5040.0,1220.0" />
<polygon fill="none" stroke="#231F20" stroke-width="0.001" points="6230.0,1000.0 6530.0,1210.0 6530.0,1700.0 6190.0,1700.0 6070.0,1420.0 6000.0,1230.0 6120.0,1100.0" />
<polygon fill="none" stroke="#231F20" stroke-width="0.001" points="7000.0,1000.0 7520.0,1070.0 7400.0,1200.0 7470.0,1390.0 7030.0,1300.0 7010.0,1050.0" />
<polygon fill="none" stroke="#231F20" stroke-width="0.001" points="8000.0,1000.0 8080.0,1020.0 8100.0,1270.0 8120.0,1640.0 8000.0,1640.0" />
<polygon fill="none" stroke="#231F20" stroke-width="0.001" points="9000.0,1000.0 9440.0,1090.0 9160.0,1370.0 9020.0,1370.0" />
<polygon fill="none" stroke="#231F20" stroke-width="0.001" points="10000.0,1280.0 10280.0,1000.0 10400.0,1280.0" />
<polygon fill="none" stroke="#231F20" stroke-width="0.001" points="11000,1000 12000.1,1000 12000.1,2000.1 11000,2000.1" />
    </g>
</g>
</svg>

