<?xml version="1.0" encoding="utf-8"?>
<!-- Generator: Adobe Illustrator 15.1.0, SVG Export Plug-In . SVG Version: 6.00 Build 0)  -->
<!DOCTYPE svg PUBLIC "-//W3C//DTD SVG 1.1//EN" "http://www.w3.org/Graphics/SVG/1.1/DTD/svg11.dtd">
<svg version="1.1" xmlns="http://www.w3.org/2000/svg" xmlns:xlink="http://www.w3.org/1999/xlink" x="0px" y="0px" width="50000px"
	 height="50000px" viewBox="0 0 50000 50000" xml:space="preserve">
<g id="Grid" display="none">
</g>
<g id="Layer_1">
</g>
<g id="Desktop">
</g>
<g id="Guides">
</g>
<g id="Page_1">
	<g id="Layer_1_1_">
	
<polygon fill="none" stroke="#231F20" stroke-width="0.001" points="1024.59687,1023.274535 970.37083,1012.331475 997.095445,953.970425 1008.10156,957.110285" />
<polygon fill="none" stroke="#231F20" stroke-width="0.001" points="2049.43133,1045.351105 1980.887215,1003.048105 1991.699875,964.454735 2010.43293,956.353955" />
<polygon fill="none" stroke="#231F20" stroke-width="0.001" points="3009.097615,1010.604255 2960.957395,1039.21621 2991.30745,985.081265 3033.99575,988.790545" />
<polygon fill="none" stroke="#231F20" stroke-width="0.001" points="4048.59148,1005.716035 3968.39729,1008.97733 3986.949545,963.56204 4009.928545,951.12471" />
<polygon fill="none" stroke="#231F20" stroke-width="0.001" points="5035.78363,1014.49969 4990.79993,1014.663945 4991.567795,959.627045 5024.669615,976.269035" />
<polygon fill="none" stroke="#231F20" stroke-width="0.001" points="6000.189405,1023.95851 5964.341515,1018.039835 5987.849015,972.375685 6047.87058,976.174005" />
<polygon fill="none" stroke="#231F20" stroke-width="0.001" points="7022.661815,1033.8336199999999 6989.345715,1048.74979 6990.705895,980.92729 7003.579905,967.527225" />
<polygon fill="none" stroke="#231F20" stroke-width="0.001" points="8034.73955,1004.085725 7991.6357,1019.975305 7951.732205,954.209525 8037.894525,963.436235" />
<polygon fill="none" stroke="#231F20" stroke-width="0.001" points="9047.40498,1029.02219 8956.71224,1041.16803 8991.7634,951.1501 9018.966375,969.794605" />
<polygon fill="none" stroke="#231F20" stroke-width="0.001" points="10012.53162,1012.591015 9997.49761,1038.676465 9983.471665,978.233305 10011.863665,954.067985" />
<polygon fill="none" stroke="#231F20" stroke-width="0.001" points="11007.53275,1012.38484 10976.518595,1047.201575 10953.060265,972.3023000000001 11036.58334,969.53413" />
<polygon fill="none" stroke="#231F20" stroke-width="0.001" points="12039.98866,1021.77054 11955.660735,1002.29165 11986.250095,983.851035 12046.635875,986.64075" />
<polygon fill="none" stroke="#231F20" stroke-width="0.001" points="13014.730865,1040.01622 12996.647165,1011.574595 12981.775455,951.35877 13028.975225,980.79732" />
<polygon fill="none" stroke="#231F20" stroke-width="0.001" points="14006.856885,1034.351145 13996.594665,1032.97328 13996.16745,970.425435 14023.23229,986.95241" />
<polygon fill="none" stroke="#231F20" stroke-width="0.001" points="15016.287,1012.42866 14951.406625,1041.493935 14992.359075,956.414395 15046.705215,974.17634" />
<polygon fill="none" stroke="#231F20" stroke-width="0.001" points="16003.21272,1037.040815 15993.312825,1033.412565 15969.576645,962.06915 16046.916515,968.034185" />
<polygon fill="none" stroke="#231F20" stroke-width="0.001" points="17020.263355,1026.65146 16960.62498,1007.925125 16958.0794,981.064895 17038.88618,950.87197" />
<polygon fill="none" stroke="#231F20" stroke-width="0.001" points="18013.263415,1005.63841 17973.06326,1025.876635 17969.11271,988.764835 18032.30535,985.6313" />
<polygon fill="none" stroke="#231F20" stroke-width="0.001" points="19001.194855,1024.76664 18972.567315,1028.989905 18987.044145,971.62015 19044.312785,962.5902" />
<polygon fill="none" stroke="#231F20" stroke-width="0.001" points="20017.57925,1005.780255 19953.517845,1002.170275 19994.31497,974.809555 20026.62042,973.5122" />
<polygon fill="none" stroke="#231F20" stroke-width="0.001" points="21031.31317,1003.65962 20996.37058,1039.6222 20966.867665,995.86199 21040.13779,952.52791" />
<polygon fill="none" stroke="#231F20" stroke-width="0.001" points="22043.36249,1015.56364 21952.686035,1012.82821 21957.132645,961.28248 22018.88709,992.68702" />
<polygon fill="none" stroke="#231F20" stroke-width="0.001" points="23003.226925,1019.98659 22971.396165,1005.58391 22996.60694,976.60216 23006.89363,955.509155" />
<polygon fill="none" stroke="#231F20" stroke-width="0.001" points="24025.25869,1031.81579 23967.47062,1003.51822 23970.4447,972.48046 24000.231195,984.857715" />
<polygon fill="none" stroke="#231F20" stroke-width="0.001" points="25027.99708,1013.03248 24984.92291,1036.31137 24960.760995,968.74669 25038.15858,957.807535" />
<polygon fill="none" stroke="#231F20" stroke-width="0.001" points="26015.14634,1012.67816 25994.9196,1030.992605 25999.007385,990.627125 26028.46196,952.96958" />
<polygon fill="none" stroke="#231F20" stroke-width="0.001" points="27021.71914,1013.11561 26989.008265,1021.58104 26983.01404,952.298085 27016.9777,996.33148" />
<polygon fill="none" stroke="#231F20" stroke-width="0.001" points="28021.061575,1000.11839 27993.02201,1011.247485 27961.74032,978.64376 28018.784995,979.34414" />
<polygon fill="none" stroke="#231F20" stroke-width="0.001" points="29040.14465,1001.8131 28977.389225,1001.86132 28953.98114,986.07614 29019.45796,971.22261" />
<polygon fill="none" stroke="#231F20" stroke-width="0.001" points="30039.651235,1001.18385 29990.91478,1003.702695 29962.234525,971.25085 30001.89704,974.046615" />
<polygon fill="none" stroke="#231F20" stroke-width="0.001" points="31042.72904,1005.499285 30974.22122,1020.67183 30998.1134,966.24197 31016.00073,992.969705" />
<polygon fill="none" stroke="#231F20" stroke-width="0.001" points="32028.268645,1007.49158 31969.016555,1048.45041 31980.752395,966.39343 32009.974115,980.3629" />
<polygon fill="none" stroke="#231F20" stroke-width="0.001" points="33012.59322,1044.75259 32957.937225,1010.62041 32957.05831,972.739055 33031.090495,988.62369" />
<polygon fill="none" stroke="#231F20" stroke-width="0.001" points="34047.20095,1004.30289 33960.004145,1027.68646 33977.574955,966.623315 34007.91811,954.18742" />
<polygon fill="none" stroke="#231F20" stroke-width="0.001" points="35032.920225,1042.43154 34967.79307,1000.885705 34971.324085,971.46942 35043.253615,954.40279" />
<polygon fill="none" stroke="#231F20" stroke-width="0.001" points="36024.40709,1041.68787 35970.53821,1023.0356850000001 35957.152235,982.07191 36042.63577,998.301445" />
<polygon fill="none" stroke="#231F20" stroke-width="0.001" points="37035.960985,1047.573705 36989.07268,1023.29789 36980.77875,950.962925 37019.682795,971.81129" />
<polygon fill="none" stroke="#231F20" stroke-width="0.001" points="38040.951995,1036.326425 37967.77758,1040.522545 37951.369645,956.1817599999999 38049.33805,999.996795" />
<polygon fill="none" stroke="#231F20" stroke-width="0.001" points="39012.349335,1044.782535 38954.161325,1005.92889 38976.51031,950.468395 39015.54328,990.690915" />
<polygon fill="none" stroke="#231F20" stroke-width="0.001" points="40011.28603,1035.828345 39986.774745,1020.88422 39955.434195,959.3547149999999 40049.024925,957.96413" />
<polygon fill="none" stroke="#231F20" stroke-width="0.001" points="41033.92865,1001.71433 40957.406615,1032.97821 40957.222965,978.998705 41009.030825,986.206495" />
<polygon fill="none" stroke="#231F20" stroke-width="0.001" points="42001.807735,1038.45515 41988.573775,1008.094295 41986.70919,980.42603 42014.227555,985.328095" />
<polygon fill="none" stroke="#231F20" stroke-width="0.001" points="43016.40053,1003.9786 42981.53355,1042.264285 42977.272675,998.077355 43034.34589,981.4482849999999" />
<polygon fill="none" stroke="#231F20" stroke-width="0.001" points="44024.553905,1011.86886 43991.83019,1035.094515 43955.284845,960.648155 44024.90662,988.36943" />
<polygon fill="none" stroke="#231F20" stroke-width="0.001" points="45044.6125,1037.353365 44991.741555,1023.79112 44950.302435,984.77371 45018.18836,974.75776" />
<polygon fill="none" stroke="#231F20" stroke-width="0.001" points="46039.02711,1042.109975 45995.283065,1003.47638 45998.63931,978.990235 46006.692615,965.8362" />
<polygon fill="none" stroke="#231F20" stroke-width="0.001" points="47026.850895,1022.558005 46951.39708,1047.83285 46999.92366,954.1632050000001 47000.48634,959.10364" />
<polygon fill="none" stroke="#231F20" stroke-width="0.001" points="48035.175315,1048.65895 47968.114825,1017.81746 47985.921955,963.726505 48014.04129,973.398895" />
<polygon fill="none" stroke="#231F20" stroke-width="0.001" points="32.796569999999996,1048.83357 -25.148385,1016.58526 -14.736695,964.98932 4.171085,994.60769" />
<polygon fill="none" stroke="#231F20" stroke-width="0.001" points="1007.04526,2037.57118 975.04324,2015.12278 967.8599,1974.489995 1023.568845,1994.344505" />
<polygon fill="none" stroke="#231F20" stroke-width="0.001" points="2043.69262,2006.804015 1952.935445,2049.718515 1962.32302,1993.220675 2015.82784,1980.21187" />
<polygon fill="none" stroke="#231F20" stroke-width="0.001" points="3016.78586,2019.388205 2986.872875,2009.748845 2981.90317,1974.59481 3009.63906,1961.06342" />
<polygon fill="none" stroke="#231F20" stroke-width="0.001" points="4030.587685,2017.365465 3987.56408,2015.16278 3975.51929,1977.557115 4046.23064,1957.278165" />
<polygon fill="none" stroke="#231F20" stroke-width="0.001" points="5035.76154,2018.11099 4958.6168,2029.02458 4963.075345,1999.699665 5025.062175,1985.12886" />
<polygon fill="none" stroke="#231F20" stroke-width="0.001" points="6034.875265,2024.77721 5995.409275,2000.45271 5965.35173,1974.589245 6041.51635,1962.561125" />
<polygon fill="none" stroke="#231F20" stroke-width="0.001" points="7046.068,2043.808155 6954.04628,2017.469235 6977.520655,1951.48844 7024.750385,1986.467485" />
<polygon fill="none" stroke="#231F20" stroke-width="0.001" points="8003.3032,2002.850785 7988.225795,2007.17918 7999.149435,1996.84711 8033.393015,1955.766745" />
<polygon fill="none" stroke="#231F20" stroke-width="0.001" points="9010.990365,2029.078885 8975.48168,2016.49267 8951.02325,1969.498205 9013.709365,1959.088505" />
<polygon fill="none" stroke="#231F20" stroke-width="0.001" points="10036.65669,2017.098635 9969.408565,2044.924295 9986.88065,1968.82533 10046.2059,1968.146735" />
<polygon fill="none" stroke="#231F20" stroke-width="0.001" points="11019.485705,2048.99458 10963.463085,2018.49102 10953.405085,1961.34416 11004.72255,1981.706865" />
<polygon fill="none" stroke="#231F20" stroke-width="0.001" points="12001.51952,2017.281725 11985.642035,2002.29874 11974.251405,1987.958825 12003.32015,1954.42062" />
<polygon fill="none" stroke="#231F20" stroke-width="0.001" points="13045.76708,2009.734175 12965.954975,2038.9589799999999 12985.032795,1989.6742 13009.065505,1953.628425" />
<polygon fill="none" stroke="#231F20" stroke-width="0.001" points="14021.6294,2026.5713700000001 13956.60357,2029.75409 13969.55167,1981.29855 14034.83069,1984.316" />
<polygon fill="none" stroke="#231F20" stroke-width="0.001" points="15037.287625,2039.304815 14979.39415,2020.159755 14978.78609,1960.68537 15044.533775,1959.98409" />
<polygon fill="none" stroke="#231F20" stroke-width="0.001" points="16046.65696,2013.618195 15997.978135,2011.3731 15998.65619,1985.27827 16011.140445,1993.29656" />
<polygon fill="none" stroke="#231F20" stroke-width="0.001" points="17034.66853,2021.062455 16969.986455,2049.028285 16976.68926,1993.232275 17027.855505,1968.96941" />
<polygon fill="none" stroke="#231F20" stroke-width="0.001" points="18045.970585,2028.59457 17975.41737,2025.312675 17999.1084,1958.3673450000001 18005.923085,1994.183375" />
<polygon fill="none" stroke="#231F20" stroke-width="0.001" points="19011.46567,2006.63883 18966.191225,2045.54599 18995.057765,1983.889135 19001.12833,1975.026135" />
<polygon fill="none" stroke="#231F20" stroke-width="0.001" points="20012.582915,2021.785455 19983.014125,2018.182715 19975.42873,1959.200055 20023.60854,1951.51037" />
<polygon fill="none" stroke="#231F20" stroke-width="0.001" points="21032.894495,2022.13391 20954.04193,2032.739765 20990.565585,1951.69638 21034.688025,1955.612055" />
<polygon fill="none" stroke="#231F20" stroke-width="0.001" points="22005.80128,2027.161275 21975.0297,2038.835695 21978.03035,1965.61336 22007.68928,1985.10574" />
<polygon fill="none" stroke="#231F20" stroke-width="0.001" points="23042.11364,2037.33366 22965.5587,2000.633875 22992.60246,1994.79185 23016.86353,1983.410815" />
<polygon fill="none" stroke="#231F20" stroke-width="0.001" points="24016.67541,2008.96477 23958.83039,2014.93487 23985.700255,1981.056655 24039.414935,1995.511785" />
<polygon fill="none" stroke="#231F20" stroke-width="0.001" points="25010.271225,2018.396865 24981.83226,2038.78466 24952.14435,1958.93844 25004.249135,1959.2949" />
<polygon fill="none" stroke="#231F20" stroke-width="0.001" points="26030.86082,2022.596335 25961.719025,2014.473 25971.63091,1957.69137 26008.73209,1986.814305" />
<polygon fill="none" stroke="#231F20" stroke-width="0.001" points="27020.23553,2007.33389 26989.517985,2048.359285 26955.837705,1992.653385 27037.308425,1985.98675" />
<polygon fill="none" stroke="#231F20" stroke-width="0.001" points="28004.10356,2016.84422 27964.806205,2041.44634 27957.99128,1955.95344 28003.371785,1977.540055" />
<polygon fill="none" stroke="#231F20" stroke-width="0.001" points="29040.512155,2001.629105 28987.0677,2016.664125 28952.19459,1957.702555 29038.874365,1960.520875" />
<polygon fill="none" stroke="#231F20" stroke-width="0.001" points="30039.49411,2032.38904 29961.743785,2033.446375 29962.342305,1955.630835 30033.212125,1981.90316" />
<polygon fill="none" stroke="#231F20" stroke-width="0.001" points="31040.100715,2021.203595 30992.137755,2020.250405 30977.00656,1978.859855 31021.181455,1966.164505" />
<polygon fill="none" stroke="#231F20" stroke-width="0.001" points="32046.53092,2002.278675 31971.316425,2025.4095 31975.378705,1979.650005 32002.138055,1955.201305" />
<polygon fill="none" stroke="#231F20" stroke-width="0.001" points="33049.2641,2035.943325 32997.48033,2012.689955 32971.78943,1979.09962 33002.879765,1966.45567" />
<polygon fill="none" stroke="#231F20" stroke-width="0.001" points="34001.34637,2036.8287 33966.622655,2044.59985 33980.290765,1995.95774 34024.64801,1971.82416" />
<polygon fill="none" stroke="#231F20" stroke-width="0.001" points="35035.314585,2045.3753 34955.38107,2005.59728 34962.870735,1968.13162 35014.192255,1969.9733" />
<polygon fill="none" stroke="#231F20" stroke-width="0.001" points="36027.875925,2035.177135 35965.86802,2013.73422 35986.036,1953.14367 36049.24807,1955.76029" />
<polygon fill="none" stroke="#231F20" stroke-width="0.001" points="37035.207685,2021.85277 36996.279305,2014.44904 36996.36423,1962.5633 37044.51302,1982.836655" />
<polygon fill="none" stroke="#231F20" stroke-width="0.001" points="38015.91055,2042.111275 37999.14889,2024.13347 37977.57463,1968.252395 38020.37787,1989.17897" />
<polygon fill="none" stroke="#231F20" stroke-width="0.001" points="39047.92829,2020.27119 38981.654495,2042.04818 38960.107295,1971.437245 39041.823355,1966.7913800000001" />
<polygon fill="none" stroke="#231F20" stroke-width="0.001" points="40006.61148,2047.732135 39994.950725,2000.945145 39957.59909,1990.22851 40002.03084,1969.496865" />
<polygon fill="none" stroke="#231F20" stroke-width="0.001" points="41037.652495,2006.72212 40961.31733,2008.34824 40996.6422,1988.0717 41006.013075,1975.8771" />
<polygon fill="none" stroke="#231F20" stroke-width="0.001" points="42043.96518,2024.157075 41986.63838,2000.95299 41999.63219,1985.92232 42049.14901,1997.76589" />
<polygon fill="none" stroke="#231F20" stroke-width="0.001" points="43011.47131,2031.580765 42963.44679,2005.259535 42965.96682,1973.67078 43010.26698,1958.02084" />
<polygon fill="none" stroke="#231F20" stroke-width="0.001" points="44035.35761,2015.050265 43977.641375,2027.18658 43981.564475,1998.413035 44045.527395,1993.97969" />
<polygon fill="none" stroke="#231F20" stroke-width="0.001" points="45007.92776,2021.932245 44972.95316,2014.320585 44989.101325,1997.779885 45015.70426,1978.39722" />
<polygon fill="none" stroke="#231F20" stroke-width="0.001" points="46031.19553,2037.849535 45970.45816,2031.40207 45991.205055,1969.37127 46004.23274,1958.59949" />
<polygon fill="none" stroke="#231F20" stroke-width="0.001" points="47036.243135,2032.373255 46974.83972,2026.05251 46994.87306,1990.891545 47005.755805,1992.82558" />
<polygon fill="none" stroke="#231F20" stroke-width="0.001" points="48002.287675,2005.505465 47997.301995,2005.43261 47998.78451,1974.943165 48036.403015,1960.51943" />
<polygon fill="none" stroke="#231F20" stroke-width="0.001" points="19.729195,2022.4216 -10.176940000000002,2028.969535 -9.191115,1969.382965 10.042835,1961.413065" />
<polygon fill="none" stroke="#231F20" stroke-width="0.001" points="1000.460125,3034.983145 978.024165,3020.238 993.71501,2997.202835 1034.401705,2950.77197" />
<polygon fill="none" stroke="#231F20" stroke-width="0.001" points="2031.984245,3041.432645 1986.80215,3025.82874 1985.176125,2962.527605 2036.02574,2989.83175" />
<polygon fill="none" stroke="#231F20" stroke-width="0.001" points="3004.381045,3005.02959 2992.284435,3049.99938 2957.75075,2998.717605 3030.05661,2992.76681" />
<polygon fill="none" stroke="#231F20" stroke-width="0.001" points="4047.56426,3048.702095 3992.58952,3026.41554 3956.33334,2990.43596 4034.95126,2972.83321" />
<polygon fill="none" stroke="#231F20" stroke-width="0.001" points="5038.07927,3011.4008 4955.908825,3008.668 4969.36547,2954.48554 5035.84636,2967.847595" />
<polygon fill="none" stroke="#231F20" stroke-width="0.001" points="6014.570665,3026.367205 5972.10329,3022.38242 5959.361175,2986.64526 6031.519585,2976.050065" />
<polygon fill="none" stroke="#231F20" stroke-width="0.001" points="7005.232235,3026.419555 6963.044775,3001.156605 6987.439795,2986.21024 7009.878725,2996.72432" />
<polygon fill="none" stroke="#231F20" stroke-width="0.001" points="8046.13815,3025.77275 7982.04085,3000.73194 7987.436295,2954.155835 8026.678265,2973.22996" />
<polygon fill="none" stroke="#231F20" stroke-width="0.001" points="9018.94932,3018.41455 8997.79751,3005.7693 8957.221075,2971.25658 9033.197605,2979.73622" />
<polygon fill="none" stroke="#231F20" stroke-width="0.001" points="10011.17783,3024.700735 9975.801475,3041.193495 9956.946305,2964.943495 10016.749545,2971.44477" />
<polygon fill="none" stroke="#231F20" stroke-width="0.001" points="11023.10489,3011.02664 10991.624415,3027.23445 10975.31953,2957.00405 11013.063945,2974.682895" />
<polygon fill="none" stroke="#231F20" stroke-width="0.001" points="12002.22526,3026.102215 11967.521565,3031.998045 11992.27413,2959.426175 12033.58929,2951.40629" />
<polygon fill="none" stroke="#231F20" stroke-width="0.001" points="13007.455685,3029.086875 12970.81281,3025.27215 12999.384925,2997.550195 13031.077535,2962.287535" />
<polygon fill="none" stroke="#231F20" stroke-width="0.001" points="14015.390315,3046.042655 13981.30353,3042.564005 13995.20992,2998.099135 14033.56136,2950.94544" />
<polygon fill="none" stroke="#231F20" stroke-width="0.001" points="15044.26362,3007.110265 14959.605685,3028.066475 14975.53154,2989.89388 15031.223385,2964.78928" />
<polygon fill="none" stroke="#231F20" stroke-width="0.001" points="16005.225935,3010.76357 15981.233645,3022.61567 15998.04212,2998.47742 16040.541475,2991.11626" />
<polygon fill="none" stroke="#231F20" stroke-width="0.001" points="17025.22105,3007.560415 16951.984835,3008.09419 16983.17737,2964.74588 17033.39723,2961.35449" />
<polygon fill="none" stroke="#231F20" stroke-width="0.001" points="18047.818575,3010.862225 17998.69596,3020.338495 17976.040065,2995.50508 18024.09364,2984.66919" />
<polygon fill="none" stroke="#231F20" stroke-width="0.001" points="19007.1825,3007.819545 18963.051115,3043.137655 18993.048395,2969.63102 19033.704425,2994.20628" />
<polygon fill="none" stroke="#231F20" stroke-width="0.001" points="20019.65282,3012.888475 19974.55309,3025.655655 19953.228555,2980.03525 20020.52069,2979.826455" />
<polygon fill="none" stroke="#231F20" stroke-width="0.001" points="21032.135205,3003.751355 20955.318115,3011.217165 20950.274525,2953.920085 21006.431965,2977.702055" />
<polygon fill="none" stroke="#231F20" stroke-width="0.001" points="22034.43026,3034.053 21954.11702,3035.213275 21976.604945,2974.683525 22024.829605,2989.42495" />
<polygon fill="none" stroke="#231F20" stroke-width="0.001" points="23046.450075,3004.68749 22991.482565,3020.438465 22984.520435,2995.75056 23037.50945,2950.830135" />
<polygon fill="none" stroke="#231F20" stroke-width="0.001" points="24031.30038,3002.24955 23994.21124,3027.56854 23983.91016,2957.944705 24022.71902,2993.611825" />
<polygon fill="none" stroke="#231F20" stroke-width="0.001" points="25036.164215,3029.18942 24992.013255,3046.63407 24993.776435,2957.524695 25028.764295,2999.103725" />
<polygon fill="none" stroke="#231F20" stroke-width="0.001" points="26039.88602,3040.08135 25980.034475,3048.423075 25986.59718,2977.66061 26036.98905,2996.15902" />
<polygon fill="none" stroke="#231F20" stroke-width="0.001" points="27017.47412,3045.463735 26966.97708,3040.67515 26974.42273,2986.90223 27034.819195,2953.57476" />
<polygon fill="none" stroke="#231F20" stroke-width="0.001" points="28011.64576,3046.86649 27982.892475,3044.269945 27987.71541,2979.463315 28039.89852,2951.541285" />
<polygon fill="none" stroke="#231F20" stroke-width="0.001" points="29003.663235,3000.175365 28991.226085,3028.05335 28983.73605,2961.296405 29019.64733,2976.81673" />
<polygon fill="none" stroke="#231F20" stroke-width="0.001" points="30020.3528,3046.3938 29982.863105,3018.79614 29980.3618,2951.5138 30028.359445,2961.6227049999998" />
<polygon fill="none" stroke="#231F20" stroke-width="0.001" points="31045.01439,3030.645105 30977.599535,3046.795475 30997.68367,2983.663165 31043.418385,2971.16576" />
<polygon fill="none" stroke="#231F20" stroke-width="0.001" points="32030.92081,3040.77011 31996.290255,3030.07567 31997.763135,2958.09542 32020.68284,2961.912605" />
<polygon fill="none" stroke="#231F20" stroke-width="0.001" points="33041.418985,3003.866715 32959.824505,3009.895485 32975.79956,2962.96735 33039.237525,2980.09015" />
<polygon fill="none" stroke="#231F20" stroke-width="0.001" points="34029.53425,3037.57724 33965.434405,3004.73896 33965.08371,2967.067525 34018.82242,2982.16146" />
<polygon fill="none" stroke="#231F20" stroke-width="0.001" points="35037.117775,3027.267325 34988.385865,3038.117635 34969.906895,2978.95747 35014.012615,2955.6274" />
<polygon fill="none" stroke="#231F20" stroke-width="0.001" points="36033.216,3030.683795 35996.40179,3014.917565 35984.774865,2995.98284 36030.15762,2964.339785" />
<polygon fill="none" stroke="#231F20" stroke-width="0.001" points="37021.26147,3008.96144 36972.89567,3033.729525 36998.465615,2999.524945 37046.262025,2976.49473" />
<polygon fill="none" stroke="#231F20" stroke-width="0.001" points="38028.737285,3025.63392 37982.646065,3034.33044 37965.4512,2964.143115 38034.649505,2954.282855" />
<polygon fill="none" stroke="#231F20" stroke-width="0.001" points="39010.59141,3018.03215 38961.097045,3026.897875 38985.156545,2978.88316 39007.29919,2985.66179" />
<polygon fill="none" stroke="#231F20" stroke-width="0.001" points="40048.6501,3021.96127 39955.375835,3038.82593 39996.655095,2981.62139 40031.562395,2998.98832" />
<polygon fill="none" stroke="#231F20" stroke-width="0.001" points="41045.894805,3014.327675 40955.2775,3043.689835 40989.582445,2990.819625 41020.28579,2992.750125" />
<polygon fill="none" stroke="#231F20" stroke-width="0.001" points="42027.3636,3042.51019 41967.5538,3048.01425 41953.65763,2995.3388 42013.85183,2973.32072" />
<polygon fill="none" stroke="#231F20" stroke-width="0.001" points="43025.123065,3046.575675 42985.972295,3024.40955 42955.175405,2977.25692 43025.683795,2954.22873" />
<polygon fill="none" stroke="#231F20" stroke-width="0.001" points="44044.128875,3001.11875 43960.96588,3001.99672 43980.869795,2998.319875 44028.125795,2990.75287" />
<polygon fill="none" stroke="#231F20" stroke-width="0.001" points="45026.997515,3018.08658 44989.488815,3044.556945 44973.664515,2977.43736 45030.252145,2955.05442" />
<polygon fill="none" stroke="#231F20" stroke-width="0.001" points="46010.49541,3002.734205 45988.84689,3026.281685 45966.18759,2974.801115 46035.71602,2991.265935" />
<polygon fill="none" stroke="#231F20" stroke-width="0.001" points="47026.796105,3045.009325 46959.39985,3032.15807 46954.36807,2986.84772 47021.086655,2955.121085" />
<polygon fill="none" stroke="#231F20" stroke-width="0.001" points="48030.764985,3001.612295 47966.28949,3009.853535 47979.165775,2989.418185 48009.403945,2976.370355" />
<polygon fill="none" stroke="#231F20" stroke-width="0.001" points="24.26033,3005.4644 -45.576435000000004,3027.838005 -5.52879,2996.42315 1.823675,2992.90653" />
<polygon fill="none" stroke="#231F20" stroke-width="0.001" points="1036.375665,4020.786325 996.44318,4018.637825 966.301825,3971.06866 1007.559995,3992.77274" />
<polygon fill="none" stroke="#231F20" stroke-width="0.001" points="2018.559675,4019.65463 1997.642895,4022.87227 1958.07091,3992.219995 2036.53125,3997.551565" />
<polygon fill="none" stroke="#231F20" stroke-width="0.001" points="3044.50323,4047.865735 2955.801175,4042.82401 2988.856675,3994.28447 3034.617505,3998.47878" />
<polygon fill="none" stroke="#231F20" stroke-width="0.001" points="4041.367275,4000.893315 3991.841415,4004.682705 3966.6281,3951.504175 4013.24537,3995.538615" />
<polygon fill="none" stroke="#231F20" stroke-width="0.001" points="5024.72175,4023.94364 4977.95741,4038.76568 4967.28481,3987.961415 5020.05051,3978.010025" />
<polygon fill="none" stroke="#231F20" stroke-width="0.001" points="6027.22311,4002.960405 5975.53884,4038.406505 5957.341935,3960.7603 6021.54767,3985.37939" />
<polygon fill="none" stroke="#231F20" stroke-width="0.001" points="7049.393705,4008.6505 6959.008845,4007.49992 6977.857595,3965.634945 7019.68375,3981.434945" />
<polygon fill="none" stroke="#231F20" stroke-width="0.001" points="8020.87805,4049.458755 7973.075365,4003.049345 7965.76632,3983.018365 8032.54984,3993.059615" />
<polygon fill="none" stroke="#231F20" stroke-width="0.001" points="9011.155075,4001.859725 8965.86732,4025.483565 8965.66904,3952.25651 9037.18378,3984.09588" />
<polygon fill="none" stroke="#231F20" stroke-width="0.001" points="10012.589275,4036.91717 9972.637325,4005.791505 9996.86801,3950.91023 10015.77155,3950.498765" />
<polygon fill="none" stroke="#231F20" stroke-width="0.001" points="11006.94959,4031.96363 10958.40368,4016.23161 10968.5749,3960.35673 11025.476835,3983.701595" />
<polygon fill="none" stroke="#231F20" stroke-width="0.001" points="12046.815585,4002.3294 11966.904385,4008.19834 11994.992665,3988.77225 12030.009425,3964.15712" />
<polygon fill="none" stroke="#231F20" stroke-width="0.001" points="13005.08587,4031.20423 12950.57493,4013.61546 12950.95211,3972.620985 13016.50733,3978.79224" />
<polygon fill="none" stroke="#231F20" stroke-width="0.001" points="14027.49464,4024.04207 13992.223405,4005.89992 13960.975765,3977.592955 14014.80735,3979.95763" />
<polygon fill="none" stroke="#231F20" stroke-width="0.001" points="15040.165125,4022.05543 14966.8338,4049.811465 14973.81287,3954.27526 15030.11024,3997.169245" />
<polygon fill="none" stroke="#231F20" stroke-width="0.001" points="16013.463595,4020.84071 15952.30048,4032.255785 15963.188965,3958.70464 16046.60953,3984.678345" />
<polygon fill="none" stroke="#231F20" stroke-width="0.001" points="17019.428875,4046.907605 16995.524645,4049.82071 16998.37127,3964.58526 17023.70752,3970.57435" />
<polygon fill="none" stroke="#231F20" stroke-width="0.001" points="18006.87651,4035.111005 17979.860255,4006.402415 17999.90308,3993.683065 18024.52117,3954.581225" />
<polygon fill="none" stroke="#231F20" stroke-width="0.001" points="19000.460815,4025.24159 18985.022575,4012.633005 18970.541345,3984.953225 19040.30868,3991.910865" />
<polygon fill="none" stroke="#231F20" stroke-width="0.001" points="20034.01974,4030.4937 19998.625605,4018.00766 19961.94529,3976.46184 20032.496245,3965.739995" />
<polygon fill="none" stroke="#231F20" stroke-width="0.001" points="21017.61844,4000.91929 20998.579585,4045.89621 20960.132405,3957.711875 21026.102175,3961.545875" />
<polygon fill="none" stroke="#231F20" stroke-width="0.001" points="22007.98292,4016.780365 21998.399955,4028.376045 21986.399145,3956.52943 22030.531045,3985.76076" />
<polygon fill="none" stroke="#231F20" stroke-width="0.001" points="23000.76304,4038.768455 22991.197345,4021.108505 22980.17825,3959.98717 23036.098645,3982.26229" />
<polygon fill="none" stroke="#231F20" stroke-width="0.001" points="24011.659645,4039.80303 23958.05533,4036.85785 23970.074595,3967.770025 24036.537415,3980.483775" />
<polygon fill="none" stroke="#231F20" stroke-width="0.001" points="25002.594765,4038.815295 24993.297435,4044.075375 24996.998075,3976.755425 25000.307685,3980.444125" />
<polygon fill="none" stroke="#231F20" stroke-width="0.001" points="26024.583305,4005.571 25971.24303,4042.999355 25982.24502,3980.436185 26018.06629,3990.85656" />
<polygon fill="none" stroke="#231F20" stroke-width="0.001" points="27013.263095,4019.67823 26974.239475,4043.027225 26994.3673,3993.950925 27022.885515,3972.7239" />
<polygon fill="none" stroke="#231F20" stroke-width="0.001" points="28040.354875,4005.709405 27991.801145,4027.77306 27967.353115,3978.270855 28048.564065,3976.27456" />
<polygon fill="none" stroke="#231F20" stroke-width="0.001" points="29035.11212,4044.960725 28972.967855,4049.254395 28993.790045,3957.71537 29026.880605,3977.08158" />
<polygon fill="none" stroke="#231F20" stroke-width="0.001" points="30010.35086,4034.121885 29977.32171,4040.055125 29985.016145,3953.107675 30006.17018,3989.806805" />
<polygon fill="none" stroke="#231F20" stroke-width="0.001" points="31020.067245,4027.277615 30971.614065,4032.121985 30982.76644,3977.517255 31023.05436,3967.829165" />
<polygon fill="none" stroke="#231F20" stroke-width="0.001" points="32000.483445,4031.37694 31966.79474,4041.750585 31955.106375,3996.740425 32025.6172,3985.105635" />
<polygon fill="none" stroke="#231F20" stroke-width="0.001" points="33041.88085,4026.825015 32994.84025,4023.96921 32979.74791,3986.84015 33039.02999,3985.46065" />
<polygon fill="none" stroke="#231F20" stroke-width="0.001" points="34001.51405,4018.31194 33981.643955,4002.002445 33985.01534,3959.13991 34046.995205,3985.38819" />
<polygon fill="none" stroke="#231F20" stroke-width="0.001" points="35013.422715,4025.329385 34987.26798,4008.697875 34981.810975,3978.672195 35002.42689,3957.1423" />
<polygon fill="none" stroke="#231F20" stroke-width="0.001" points="36008.16877,4049.29538 35979.14582,4008.084605 35966.46195,3967.0392 36040.851715,3956.988865" />
<polygon fill="none" stroke="#231F20" stroke-width="0.001" points="37028.29124,4005.65595 36963.70576,4019.538555 36991.433195,3967.391685 37042.184705,3979.015425" />
<polygon fill="none" stroke="#231F20" stroke-width="0.001" points="38023.092615,4035.788265 37985.06112,4015.235215 37970.51946,3995.23656 38040.10652,3968.629815" />
<polygon fill="none" stroke="#231F20" stroke-width="0.001" points="39008.23552,4020.9055749999998 38992.60242,4038.909915 38956.48304,3996.36715 39034.68939,3966.327965" />
<polygon fill="none" stroke="#231F20" stroke-width="0.001" points="40045.18301,4006.52739 39958.862395,4002.61928 39998.430765,3987.920955 40036.788705,3978.706115" />
<polygon fill="none" stroke="#231F20" stroke-width="0.001" points="41026.418645,4038.99036 40978.48313,4009.27521 40983.03717,3979.996855 41018.527155,3999.94552" />
<polygon fill="none" stroke="#231F20" stroke-width="0.001" points="42039.45589,4000.86413 41998.822765,4044.766845 41990.37102,3961.01475 42026.257025,3973.67153" />
<polygon fill="none" stroke="#231F20" stroke-width="0.001" points="43033.09379,4001.151385 42957.23944,4028.634795 42959.38252,3958.315905 43047.73066,3980.31709" />
<polygon fill="none" stroke="#231F20" stroke-width="0.001" points="44024.049635,4047.87132 43999.798185,4024.47135 43965.440245,3959.394465 44008.109665,3975.57298" />
<polygon fill="none" stroke="#231F20" stroke-width="0.001" points="45042.979235,4001.086015 44986.804165,4007.27258 44979.646175,3971.281705 45009.66387,3993.73788" />
<polygon fill="none" stroke="#231F20" stroke-width="0.001" points="46028.642635,4021.235245 45990.334725,4027.47184 45992.660065,3955.90311 46035.32791,3993.403115" />
<polygon fill="none" stroke="#231F20" stroke-width="0.001" points="47012.699985,4007.8619 46985.62243,4036.342585 46968.0461,3960.77265 47026.0541,3983.441355" />
<polygon fill="none" stroke="#231F20" stroke-width="0.001" points="48019.88471,4035.454065 47957.737995,4008.12208 47959.391475,3987.715215 48015.306485,3975.808925" />
<polygon fill="none" stroke="#231F20" stroke-width="0.001" points="13.225705000000001,4046.155185 -11.754180000000002,4037.315705 -2.9963699999999998,3967.507695 26.834989999999998,3986.259295" />
<polygon fill="none" stroke="#231F20" stroke-width="0.001" points="1023.282785,5011.818575 966.08239,5026.85903 968.459255,4985.05857 1030.276715,4996.29309" />
<polygon fill="none" stroke="#231F20" stroke-width="0.001" points="2032.200435,5046.51967 1952.44009,5007.14718 1983.409665,4979.147585 2031.26623,4994.5421" />
<polygon fill="none" stroke="#231F20" stroke-width="0.001" points="3030.660035,5034.444835 2965.410175,5003.98302 2954.406895,4958.77726 3025.45776,4988.40123" />
<polygon fill="none" stroke="#231F20" stroke-width="0.001" points="4014.840795,5026.851155 3989.352465,5033.92307 3951.909045,4983.90583 4038.127275,4994.88946" />
<polygon fill="none" stroke="#231F20" stroke-width="0.001" points="5035.401185,5011.68654 4954.74664,5000.37558 4956.75951,4980.88773 5011.550375,4957.64125" />
<polygon fill="none" stroke="#231F20" stroke-width="0.001" points="6005.16544,5041.820845 5976.45286,5038.037735 5975.50445,4952.33035 6035.91074,4978.002305" />
<polygon fill="none" stroke="#231F20" stroke-width="0.001" points="7038.9784,5006.78099 6995.564025,5011.466575 6982.03216,4973.54677 7031.01347,4990.78611" />
<polygon fill="none" stroke="#231F20" stroke-width="0.001" points="8023.876895,5044.398435 7961.97326,5032.070745 7992.0281,4995.30405 8044.42047,4977.3546" />
<polygon fill="none" stroke="#231F20" stroke-width="0.001" points="9018.89674,5037.629815 8969.570095,5021.469705 8970.65372,4951.609545 9007.075375,4972.917805" />
<polygon fill="none" stroke="#231F20" stroke-width="0.001" points="10001.296495,5022.63859 9987.351615,5047.46912 9971.3856,4956.344545 10035.81506,4986.0174" />
<polygon fill="none" stroke="#231F20" stroke-width="0.001" points="11049.09972,5045.494845 10962.6796,5012.2615 10988.625265,4962.73898 11037.293385,4987.090545" />
<polygon fill="none" stroke="#231F20" stroke-width="0.001" points="12024.466085,5009.798505 11978.581885,5022.902745 11983.10532,4993.926075 12039.839715,4981.2119" />
<polygon fill="none" stroke="#231F20" stroke-width="0.001" points="13020.4334,5027.0329 12968.336555,5033.01948 12959.98752,4989.95462 13044.884535,4994.14965" />
<polygon fill="none" stroke="#231F20" stroke-width="0.001" points="14004.962595,5025.737355 13981.157745,5048.300375 13993.36924,4982.55526 14038.567385,4967.527695" />
<polygon fill="none" stroke="#231F20" stroke-width="0.001" points="15005.12519,5015.63534 14990.866105,5042.739255 14962.42326,4985.734875 15031.077285,4988.54624" />
<polygon fill="none" stroke="#231F20" stroke-width="0.001" points="16004.907565,5004.133865 15955.48826,5019.37595 15981.676605,4972.00048 16014.60126,4959.49657" />
<polygon fill="none" stroke="#231F20" stroke-width="0.001" points="17008.3142,5024.03521 16952.66288,5004.390115 16953.31344,4953.6122 17044.707555,4960.419635" />
<polygon fill="none" stroke="#231F20" stroke-width="0.001" points="18027.06186,5007.99798 17987.222075,5020.4798 17953.277435,4978.466735 18010.8976,4990.32792" />
<polygon fill="none" stroke="#231F20" stroke-width="0.001" points="19005.252255,5012.708855 18968.22167,5003.6501 18977.784665,4997.537915 19045.66504,4955.4824" />
<polygon fill="none" stroke="#231F20" stroke-width="0.001" points="20041.467885,5025.071185 19964.028715,5026.278305 19984.55257,4977.72383 20027.84826,4995.765105" />
<polygon fill="none" stroke="#231F20" stroke-width="0.001" points="21019.191285,5017.31803 20951.45185,5015.125935 20979.14027,4958.019425 21024.866935,4996.848685" />
<polygon fill="none" stroke="#231F20" stroke-width="0.001" points="22008.409865,5049.73442 21993.72622,5010.396865 21983.591755,4976.7129 22028.22071,4966.679655" />
<polygon fill="none" stroke="#231F20" stroke-width="0.001" points="23027.642455,5033.89976 22958.62624,5036.177165 22990.56705,4964.10816 23013.308335,4950.31926" />
<polygon fill="none" stroke="#231F20" stroke-width="0.001" points="24020.361985,5039.85478 23989.862885,5025.983975 23979.52202,4957.67827 24024.706105,4980.85728" />
<polygon fill="none" stroke="#231F20" stroke-width="0.001" points="25031.57074,5044.120475 24966.15048,5038.604835 24984.20626,4998.981915 25044.932505,4990.08027" />
<polygon fill="none" stroke="#231F20" stroke-width="0.001" points="26041.044705,5012.58652 25961.56034,5000.16786 25985.994505,4997.508395 26028.89717,4954.789875" />
<polygon fill="none" stroke="#231F20" stroke-width="0.001" points="27011.111095,5045.33593 26964.70158,5012.260155 26955.856565,4984.62888 27000.281475,4985.05227" />
<polygon fill="none" stroke="#231F20" stroke-width="0.001" points="28016.01236,5013.596805 27960.17147,5018.348525 27958.35687,4997.616305 28001.68429,4998.3873" />
<polygon fill="none" stroke="#231F20" stroke-width="0.001" points="29049.810835,5001.058105 28961.208235,5045.949105 28973.837535,4997.114685 29022.057325,4967.257685" />
<polygon fill="none" stroke="#231F20" stroke-width="0.001" points="30004.248055,5045.686845 29981.636025,5024.967795 29965.457765,4996.80321 30010.745825,4980.280715" />
<polygon fill="none" stroke="#231F20" stroke-width="0.001" points="31017.40152,5008.431675 30969.791875,5035.233065 30976.77449,4990.20506 31012.535505,4965.615045" />
<polygon fill="none" stroke="#231F20" stroke-width="0.001" points="32046.050675,5013.314535 31953.41701,5015.07364 31986.731205,4980.496165 32045.92706,4956.18708" />
<polygon fill="none" stroke="#231F20" stroke-width="0.001" points="33022.266045,5047.76041 32975.240615,5002.791535 32994.15904,4966.496085 33035.14259,4956.81485" />
<polygon fill="none" stroke="#231F20" stroke-width="0.001" points="34037.6546,5039.745385 33973.92843,5022.351645 33984.40261,4964.516645 34024.543825,4962.477065" />
<polygon fill="none" stroke="#231F20" stroke-width="0.001" points="35013.224355,5036.29575 34995.37498,5015.55333 34979.58377,4965.135115 35017.55222,4973.83215" />
<polygon fill="none" stroke="#231F20" stroke-width="0.001" points="36010.18765,5004.68264 35976.232125,5046.09549 35984.4807,4976.4744 36022.74408,4982.411015" />
<polygon fill="none" stroke="#231F20" stroke-width="0.001" points="37032.90107,5035.35857 36991.1076,5049.25431 36994.564425,4967.745635 37045.454995,4980.27906" />
<polygon fill="none" stroke="#231F20" stroke-width="0.001" points="38023.253335,5045.719855 37990.71603,5018.221365 37957.465615,4978.038345 38021.842905,4968.236585" />
<polygon fill="none" stroke="#231F20" stroke-width="0.001" points="39020.9362,5026.70993 38954.412515,5020.06327 38965.758355,4999.771015 39034.84181,4984.739515" />
<polygon fill="none" stroke="#231F20" stroke-width="0.001" points="40049.915185,5043.65149 39989.72384,5005.95595 39959.646495,4970.90368 40006.050095,4966.247715" />
<polygon fill="none" stroke="#231F20" stroke-width="0.001" points="41040.826085,5024.20127 40969.537,5014.80725 40966.84871,4973.46412 41016.80151,4977.09687" />
<polygon fill="none" stroke="#231F20" stroke-width="0.001" points="42027.434015,5018.70343 41952.413905,5023.914615 41980.661755,4990.3838 42035.71017,4968.969635" />
<polygon fill="none" stroke="#231F20" stroke-width="0.001" points="43015.22058,5039.109715 42997.073955,5041.09393 42976.413265,4986.329675 43018.988585,4990.377315" />
<polygon fill="none" stroke="#231F20" stroke-width="0.001" points="44016.46446,5025.47778 43980.24668,5047.52247 43974.662655,4977.244735 44014.68214,4958.51085" />
<polygon fill="none" stroke="#231F20" stroke-width="0.001" points="45047.0622,5031.79626 44961.78208,5042.87481 44971.04996,4950.840025 45029.771125,4961.17103" />
<polygon fill="none" stroke="#231F20" stroke-width="0.001" points="46003.306555,5008.49139 45997.81172,5048.983895 45982.65596,4985.73402 46003.52488,4978.8995" />
<polygon fill="none" stroke="#231F20" stroke-width="0.001" points="47045.10236,5031.533385 46974.790845,5047.215745 46969.97903,4999.258025 47006.504495,4958.0595" />
<polygon fill="none" stroke="#231F20" stroke-width="0.001" points="48025.62226,5021.911785 47977.12239,5010.05374 47982.146735,4983.89462 48005.2049,4997.060005" />
<polygon fill="none" stroke="#231F20" stroke-width="0.001" points="41.627215,5004.13145 -42.406325,5046.25496 -44.465830000000004,4965.71463 5.259955,4964.84583" />
<polygon fill="none" stroke="#231F20" stroke-width="0.001" points="1028.242825,6028.818415 974.51227,6028.92408 994.422975,5977.88809 1003.5643,5989.757295" />
<polygon fill="none" stroke="#231F20" stroke-width="0.001" points="2039.722925,6036.35817 1956.93882,6034.852005 1975.80642,5957.29098 2034.823455,5963.772375" />
<polygon fill="none" stroke="#231F20" stroke-width="0.001" points="3028.27913,6013.665555 2985.420635,6015.72529 2959.705895,5959.094235 3045.920895,5990.023525" />
<polygon fill="none" stroke="#231F20" stroke-width="0.001" points="4000.634365,6040.56856 3991.915395,6012.63094 3987.56837,5964.42725 4008.694875,5971.120055" />
<polygon fill="none" stroke="#231F20" stroke-width="0.001" points="5041.687125,6044.25598 4959.659135,6040.942675 4990.15092,5950.07553 5018.84904,5989.29654" />
<polygon fill="none" stroke="#231F20" stroke-width="0.001" points="6026.842665,6019.30406 5956.105605,6044.67069 5956.410145,5973.951915 6003.502,5955.756195" />
<polygon fill="none" stroke="#231F20" stroke-width="0.001" points="7034.73826,6019.98636 6961.04387,6021.122215 6995.01121,5990.00297 7029.03709,5977.13289" />
<polygon fill="none" stroke="#231F20" stroke-width="0.001" points="8006.944295,6039.21874 7959.13217,6008.835115 7999.449695,5975.20492 8026.818945,5985.4503" />
<polygon fill="none" stroke="#231F20" stroke-width="0.001" points="9032.496165,6044.176795 8966.768885,6015.68031 8983.59657,5981.269845 9027.88817,5964.68839" />
<polygon fill="none" stroke="#231F20" stroke-width="0.001" points="10033.275335,6005.32303 9973.095055,6002.90294 9966.434645,5973.38567 10006.1345,5996.077335" />
<polygon fill="none" stroke="#231F20" stroke-width="0.001" points="11002.41177,6038.485495 10980.47957,6024.26773 10956.80481,5978.117475 11032.67049,5995.501235" />
<polygon fill="none" stroke="#231F20" stroke-width="0.001" points="12005.752425,6043.403985 11950.023335,6001.431435 11986.010215,5971.272445 12024.25402,5965.51247" />
<polygon fill="none" stroke="#231F20" stroke-width="0.001" points="13042.243595,6041.21815 12976.811875,6019.88751 12983.203095,5984.707475 13045.48667,5962.00432" />
<polygon fill="none" stroke="#231F20" stroke-width="0.001" points="14031.91817,6011.915525 13977.378395,6038.150785 13991.41509,5980.943715 14036.57865,5952.761195" />
<polygon fill="none" stroke="#231F20" stroke-width="0.001" points="15012.41807,6049.67707 14952.091055,6039.127875 14987.84953,5986.937165 15011.45913,5998.61347" />
<polygon fill="none" stroke="#231F20" stroke-width="0.001" points="16018.41517,6033.87575 15966.53851,6042.03869 15968.171895,5962.160805 16001.78876,5980.996935" />
<polygon fill="none" stroke="#231F20" stroke-width="0.001" points="17027.161325,6033.67079 16996.086105,6042.638225 16980.155515,5998.63553 17043.74242,5997.584985" />
<polygon fill="none" stroke="#231F20" stroke-width="0.001" points="18042.6439,6014.964875 17984.52814,6019.565785 17969.05872,5974.810045 18036.953795,5971.511465" />
<polygon fill="none" stroke="#231F20" stroke-width="0.001" points="19011.94871,6049.05224 18951.63875,6047.248375 18986.252425,5986.7169 19033.26207,5966.475345" />
<polygon fill="none" stroke="#231F20" stroke-width="0.001" points="20041.30917,6022.73449 19960.783535,6026.471665 19960.42998,5991.67354 20045.51318,5986.07717" />
<polygon fill="none" stroke="#231F20" stroke-width="0.001" points="21016.792445,6002.40248 20976.690245,6037.80397 20999.337945,5981.8725 21049.387295,5989.598105" />
<polygon fill="none" stroke="#231F20" stroke-width="0.001" points="22004.63778,6016.279155 21951.200955,6034.797955 21953.49783,5984.69439 22004.593695,5987.97553" />
<polygon fill="none" stroke="#231F20" stroke-width="0.001" points="23037.13609,6033.16237 22950.54262,6002.605135 22986.55757,5972.40542 23009.88806,5997.387825" />
<polygon fill="none" stroke="#231F20" stroke-width="0.001" points="24026.440085,6000.330575 23995.26248,6042.810695 23970.35604,5970.66576 24010.50116,5965.8687" />
<polygon fill="none" stroke="#231F20" stroke-width="0.001" points="25007.973695,6024.25477 24978.607305,6019.138065 24950.59541,5959.983655 25030.80015,5965.71478" />
<polygon fill="none" stroke="#231F20" stroke-width="0.001" points="26035.52709,6047.08845 25968.707805,6003.36039 25985.281265,5992.003075 26029.849005,5964.19993" />
<polygon fill="none" stroke="#231F20" stroke-width="0.001" points="27029.4571,6023.09774 26951.68179,6010.226825 26955.69835,5983.685035 27022.58004,5975.394475" />
<polygon fill="none" stroke="#231F20" stroke-width="0.001" points="28026.47232,6015.096855 27961.59471,6007.433455 27960.634865,5991.821805 28044.01683,5956.74944" />
<polygon fill="none" stroke="#231F20" stroke-width="0.001" points="29015.86972,6010.386295 28983.75557,6021.962965 28952.51744,5963.861795 29024.246895,5986.731935" />
<polygon fill="none" stroke="#231F20" stroke-width="0.001" points="30016.610875,6047.814165 29976.53373,6049.339845 29995.82553,5959.744095 30006.06171,5960.34374" />
<polygon fill="none" stroke="#231F20" stroke-width="0.001" points="31007.399135,6009.92819 30982.532655,6043.37197 30972.301945,5965.209295 31035.868965,5990.12255" />
<polygon fill="none" stroke="#231F20" stroke-width="0.001" points="32005.631865,6018.263215 31970.78417,6003.0989 31985.045525,5954.38312 32005.739655,5998.190335" />
<polygon fill="none" stroke="#231F20" stroke-width="0.001" points="33033.096425,6010.03475 32993.646565,6022.081365 32999.74175,5984.98462 33041.587985,5985.78767" />
<polygon fill="none" stroke="#231F20" stroke-width="0.001" points="34033.33691,6027.623915 33962.580635,6044.256895 33954.452335,5984.370865 34001.024995,5950.573845" />
<polygon fill="none" stroke="#231F20" stroke-width="0.001" points="35017.90551,6039.998365 34977.382685,6047.91034 34994.94862,5981.121955 35011.48769,5968.603795" />
<polygon fill="none" stroke="#231F20" stroke-width="0.001" points="36006.41705,6025.10519 35994.6093,6000.423345 35989.390335,5973.73448 36026.52589,5953.35134" />
<polygon fill="none" stroke="#231F20" stroke-width="0.001" points="37019.841005,6000.05017 36960.83215,6037.016655 36990.730835,5983.299535 37047.460655,5983.801825" />
<polygon fill="none" stroke="#231F20" stroke-width="0.001" points="38030.669225,6033.72312 37974.443615,6038.023585 37955.27185,5984.86764 38036.902255,5977.51446" />
<polygon fill="none" stroke="#231F20" stroke-width="0.001" points="39021.549165,6013.129475 38996.82415,6037.423185 38982.69437,5988.408175 39047.039065,5965.74728" />
<polygon fill="none" stroke="#231F20" stroke-width="0.001" points="40025.014865,6036.086255 39974.83663,6033.889115 39991.49253,5972.488675 40022.726715,5982.22052" />
<polygon fill="none" stroke="#231F20" stroke-width="0.001" points="41012.60945,6016.09458 40960.285975,6000.946025 40986.515555,5977.422635 41022.862835,5988.17778" />
<polygon fill="none" stroke="#231F20" stroke-width="0.001" points="42045.25619,6013.87904 41975.695905,6024.40905 41989.27741,5957.74785 42003.68145,5994.63421" />
<polygon fill="none" stroke="#231F20" stroke-width="0.001" points="43019.306875,6035.62695 42980.831745,6004.26772 42993.94811,5984.377605 43046.564015,5956.744745" />
<polygon fill="none" stroke="#231F20" stroke-width="0.001" points="44023.295995,6012.14678 43957.46958,6034.805995 43954.152905,5998.21821 44033.6838,5951.28447" />
<polygon fill="none" stroke="#231F20" stroke-width="0.001" points="45019.79213,6024.50926 44982.440415,6003.32099 44971.85984,5957.34949 45048.73116,5998.459835" />
<polygon fill="none" stroke="#231F20" stroke-width="0.001" points="46045.44837,6022.8751 45963.727365,6012.164545 45982.913535,5959.24015 46020.626005,5992.237795" />
<polygon fill="none" stroke="#231F20" stroke-width="0.001" points="47022.07268,6037.01105 46959.170555,6016.28544 46994.730615,5964.41657 47012.120645,5971.957915" />
<polygon fill="none" stroke="#231F20" stroke-width="0.001" points="48022.172055,6023.480135 47996.493125,6011.508345 47961.17215,5999.285915 48002.032165,5984.893865" />
<polygon fill="none" stroke="#231F20" stroke-width="0.001" points="17.22174,6001.46593 -43.884175,6009.234015 -43.62751,5991.59526 38.357815,5964.47896" />
<polygon fill="none" stroke="#231F20" stroke-width="0.001" points="1006.144235,7040.93184 961.783505,7005.145695 984.828325,6952.12643 1036.90372,6962.316595" />
<polygon fill="none" stroke="#231F20" stroke-width="0.001" points="2007.128485,7046.582755 1997.08254,7029.36931 1957.2999,6978.54852 2001.16263,6975.139055" />
<polygon fill="none" stroke="#231F20" stroke-width="0.001" points="3008.97609,7038.13848 2965.48616,7000.492335 2954.775885,6995.365225 3002.005065,6992.906255" />
<polygon fill="none" stroke="#231F20" stroke-width="0.001" points="4036.18861,7046.913985 3992.94502,7000.9447 3972.898955,6961.470005 4019.70944,6952.29891" />
<polygon fill="none" stroke="#231F20" stroke-width="0.001" points="5004.008855,7022.552855 4960.026545,7037.37108 4970.130675,6960.03694 5015.470285,6968.0385" />
<polygon fill="none" stroke="#231F20" stroke-width="0.001" points="6011.34215,7027.68104 5988.45772,7020.107385 5991.271745,6991.67551 6027.826165,6959.605475" />
<polygon fill="none" stroke="#231F20" stroke-width="0.001" points="7000,7000 7900,7000 7900,7900 7000,7900" />
    </g>
</g>
</svg>

