<?xml version="1.0" encoding="utf-8"?>
<!-- Generator: Adobe Illustrator 15.1.0, SVG Export Plug-In . SVG Version: 6.00 Build 0)  -->
<!DOCTYPE svg PUBLIC "-//W3C//DTD SVG 1.1//EN" "http://www.w3.org/Graphics/SVG/1.1/DTD/svg11.dtd">
<svg version="1.1" xmlns="http://www.w3.org/2000/svg" xmlns:xlink="http://www.w3.org/1999/xlink" x="0px" y="0px" width="50000px"
	 height="50000px" viewBox="0 0 50000 50000" xml:space="preserve">
<g id="Grid" display="none">
</g>
<g id="Layer_1">
</g>
<g id="Desktop">
</g>
<g id="Guides">
</g>
<g id="Page_1">
	<g id="Layer_1_1_">
	
<polygon fill="none" stroke="#231F20" stroke-width="0.001" points="1137.3605499999999,1137.3605499999999 1137.3605499999999,1000 1000,1000 1000,1137.3605499999999" />
<polygon fill="none" stroke="#231F20" stroke-width="0.001" points="2137.36055,1137.3605499999999 2137.36055,1000 2000,1000 2000,1137.3605499999999" />
<polygon fill="none" stroke="#231F20" stroke-width="0.001" points="3137.36055,1137.3605499999999 3137.36055,1000 3000,1000 3000,1137.3605499999999" />
<polygon fill="none" stroke="#231F20" stroke-width="0.001" points="4137.36055,1137.3605499999999 4137.36055,1000 4000,1000 4000,1137.3605499999999" />
<polygon fill="none" stroke="#231F20" stroke-width="0.001" points="5137.36055,1137.3605499999999 5137.36055,1000 5000,1000 5000,1137.3605499999999" />
<polygon fill="none" stroke="#231F20" stroke-width="0.001" points="6137.36055,1137.3605499999999 6137.36055,1000 6000,1000 6000,1137.3605499999999" />
<polygon fill="none" stroke="#231F20" stroke-width="0.001" points="7137.36055,1137.3605499999999 7137.36055,1000 7000,1000 7000,1137.3605499999999" />
<polygon fill="none" stroke="#231F20" stroke-width="0.001" points="8137.36055,1137.3605499999999 8137.36055,1000 8000,1000 8000,1137.3605499999999" />
<polygon fill="none" stroke="#231F20" stroke-width="0.001" points="9137.36055,1137.3605499999999 9137.36055,1000 9000,1000 9000,1137.3605499999999" />
<polygon fill="none" stroke="#231F20" stroke-width="0.001" points="10137.36055,1137.3605499999999 10137.36055,1000 10000,1000 10000,1137.3605499999999" />
<polygon fill="none" stroke="#231F20" stroke-width="0.001" points="11137.36055,1137.3605499999999 11137.36055,1000 11000,1000 11000,1137.3605499999999" />
<polygon fill="none" stroke="#231F20" stroke-width="0.001" points="12137.36055,1137.3605499999999 12137.36055,1000 12000,1000 12000,1137.3605499999999" />
<polygon fill="none" stroke="#231F20" stroke-width="0.001" points="13137.36055,1137.3605499999999 13137.36055,1000 13000,1000 13000,1137.3605499999999" />
<polygon fill="none" stroke="#231F20" stroke-width="0.001" points="14137.36055,1137.3605499999999 14137.36055,1000 14000,1000 14000,1137.3605499999999" />
<polygon fill="none" stroke="#231F20" stroke-width="0.001" points="15137.36055,1137.3605499999999 15137.36055,1000 15000,1000 15000,1137.3605499999999" />
<polygon fill="none" stroke="#231F20" stroke-width="0.001" points="16137.36055,1137.3605499999999 16137.36055,1000 16000,1000 16000,1137.3605499999999" />
<polygon fill="none" stroke="#231F20" stroke-width="0.001" points="17137.36055,1137.3605499999999 17137.36055,1000 17000,1000 17000,1137.3605499999999" />
<polygon fill="none" stroke="#231F20" stroke-width="0.001" points="18137.36055,1137.3605499999999 18137.36055,1000 18000,1000 18000,1137.3605499999999" />
<polygon fill="none" stroke="#231F20" stroke-width="0.001" points="19137.36055,1137.3605499999999 19137.36055,1000 19000,1000 19000,1137.3605499999999" />
<polygon fill="none" stroke="#231F20" stroke-width="0.001" points="20137.36055,1137.3605499999999 20137.36055,1000 20000,1000 20000,1137.3605499999999" />
<polygon fill="none" stroke="#231F20" stroke-width="0.001" points="21137.36055,1137.3605499999999 21137.36055,1000 21000,1000 21000,1137.3605499999999" />
<polygon fill="none" stroke="#231F20" stroke-width="0.001" points="22137.36055,1137.3605499999999 22137.36055,1000 22000,1000 22000,1137.3605499999999" />
<polygon fill="none" stroke="#231F20" stroke-width="0.001" points="23137.36055,1137.3605499999999 23137.36055,1000 23000,1000 23000,1137.3605499999999" />
<polygon fill="none" stroke="#231F20" stroke-width="0.001" points="24137.36055,1137.3605499999999 24137.36055,1000 24000,1000 24000,1137.3605499999999" />
<polygon fill="none" stroke="#231F20" stroke-width="0.001" points="25137.36055,1137.3605499999999 25137.36055,1000 25000,1000 25000,1137.3605499999999" />
<polygon fill="none" stroke="#231F20" stroke-width="0.001" points="26137.36055,1137.3605499999999 26137.36055,1000 26000,1000 26000,1137.3605499999999" />
<polygon fill="none" stroke="#231F20" stroke-width="0.001" points="27137.36055,1137.3605499999999 27137.36055,1000 27000,1000 27000,1137.3605499999999" />
<polygon fill="none" stroke="#231F20" stroke-width="0.001" points="28137.36055,1137.3605499999999 28137.36055,1000 28000,1000 28000,1137.3605499999999" />
<polygon fill="none" stroke="#231F20" stroke-width="0.001" points="29137.36055,1137.3605499999999 29137.36055,1000 29000,1000 29000,1137.3605499999999" />
<polygon fill="none" stroke="#231F20" stroke-width="0.001" points="30137.36055,1137.3605499999999 30137.36055,1000 30000,1000 30000,1137.3605499999999" />
<polygon fill="none" stroke="#231F20" stroke-width="0.001" points="31137.36055,1137.3605499999999 31137.36055,1000 31000,1000 31000,1137.3605499999999" />
<polygon fill="none" stroke="#231F20" stroke-width="0.001" points="32137.36055,1137.3605499999999 32137.36055,1000 32000,1000 32000,1137.3605499999999" />
<polygon fill="none" stroke="#231F20" stroke-width="0.001" points="33137.36055,1137.3605499999999 33137.36055,1000 33000,1000 33000,1137.3605499999999" />
<polygon fill="none" stroke="#231F20" stroke-width="0.001" points="34137.36055,1137.3605499999999 34137.36055,1000 34000,1000 34000,1137.3605499999999" />
<polygon fill="none" stroke="#231F20" stroke-width="0.001" points="35137.36055,1137.3605499999999 35137.36055,1000 35000,1000 35000,1137.3605499999999" />
<polygon fill="none" stroke="#231F20" stroke-width="0.001" points="36137.36055,1137.3605499999999 36137.36055,1000 36000,1000 36000,1137.3605499999999" />
<polygon fill="none" stroke="#231F20" stroke-width="0.001" points="37000,1000 37900,1000 37900,1900 37000,1900" />
    </g>
</g>
</svg>

