<?xml version="1.0" encoding="utf-8"?>
<!-- Generator: Adobe Illustrator 15.1.0, SVG Export Plug-In . SVG Version: 6.00 Build 0)  -->
<!DOCTYPE svg PUBLIC "-//W3C//DTD SVG 1.1//EN" "http://www.w3.org/Graphics/SVG/1.1/DTD/svg11.dtd">
<svg version="1.1" xmlns="http://www.w3.org/2000/svg" xmlns:xlink="http://www.w3.org/1999/xlink" x="0px" y="0px" width="50000px"
	 height="50000px" viewBox="0 0 50000 50000" xml:space="preserve">
<g id="Grid" display="none">
</g>
<g id="Layer_1">
</g>
<g id="Desktop">
</g>
<g id="Guides">
</g>
<g id="Page_1">
	<g id="Layer_1_1_">
	
<polygon fill="none" stroke="#231F20" stroke-width="0.001" points="1000.0,1000.0 1069.95938,950.2595 997.79017,952.756225 1000.0,1000.0" />
<polygon fill="none" stroke="#231F20" stroke-width="0.001" points="2000.0,1000.0 1907.332345,1034.86912 1909.542175,1082.1129 2006.135765,1078.771205 2000.0,1000.0" />
<polygon fill="none" stroke="#231F20" stroke-width="0.001" points="3000.0,1000.0 3150.307285,983.62478 3144.17152,904.853575 3003.84353,909.708275 3000.0,1000.0" />
<polygon fill="none" stroke="#231F20" stroke-width="0.001" points="4000.0,1000.0 4046.935725,1004.235365 4050.779255,913.94364 3999.079145,915.732225 4000.0,1000.0" />
<polygon fill="none" stroke="#231F20" stroke-width="0.001" points="5000.0,1000.0 5100.32208,1024.69486 5099.401225,940.427085 4996.42198,943.989695 5000.0,1000.0" />
<polygon fill="none" stroke="#231F20" stroke-width="0.001" points="6000.0,1000.0 5894.015,947.532505 5897.593025,1003.54281 6000.0,1000.0" />
<polygon fill="none" stroke="#231F20" stroke-width="0.001" points="7000.0,1000.0 7075.74823,934.775615 7003.234465,928.5213 7000.0,1000.0" />
<polygon fill="none" stroke="#231F20" stroke-width="0.001" points="8000.0,1000.0 7927.83079,1002.49672 7924.596325,1073.97542 8003.779655,1080.804985 8000.0,1000.0" />
<polygon fill="none" stroke="#231F20" stroke-width="0.001" points="9000.0,1000.0 9096.59359,996.658305 9092.813935,915.8533199999999 8992.77342,907.224825 9000.0,1000.0" />
<polygon fill="none" stroke="#231F20" stroke-width="0.001" points="10000.0,1000.0 10140.32799,995.1453 10133.10141,902.37012 10004.627585,891.28925 10000.0,1000.0" />
<polygon fill="none" stroke="#231F20" stroke-width="0.001" points="11000.0,1000.0 10948.29989,1001.788585 10943.6723,1110.499335 11001.26179,1115.46643 11000.0,1000.0" />
<polygon fill="none" stroke="#231F20" stroke-width="0.001" points="12000.0,1000.0 11897.020755,1003.562605 11898.28254,1119.02904 12008.209425,1128.510235 12000.0,1000.0" />
<polygon fill="none" stroke="#231F20" stroke-width="0.001" points="13000.0,1000.0 13126.793205,1014.11358 13118.58378,885.60334 13000.23392,875.39566 13000.0,1000.0" />
<polygon fill="none" stroke="#231F20" stroke-width="0.001" points="14000.0,1000.0 13941.60103,949.254955 13941.36711,1073.859295 14003.76699,1079.241285 14000.0,1000.0" />
<polygon fill="none" stroke="#231F20" stroke-width="0.001" points="15000.0,1000.0 15066.133475,1084.6204 15062.36649,1005.37911 15000.0,1000.0" />
<polygon fill="none" stroke="#231F20" stroke-width="0.001" points="16000.0,1000.0 15923.448055,1102.85287 15990.778565,1107.53748 16000.0,1000.0" />
<polygon fill="none" stroke="#231F20" stroke-width="0.001" points="17000.0,1000.0 16927.486235,993.745685 16918.2648,1101.283165 16995.17472,1106.63427 17000.0,1000.0" />
<polygon fill="none" stroke="#231F20" stroke-width="0.001" points="18000.0,1000.0 17920.81667,993.170435 17915.99139,1099.804705 18004.957905,1105.994665 18000.0,1000.0" />
<polygon fill="none" stroke="#231F20" stroke-width="0.001" points="19000.0,1000.0 18899.95948,991.3715 18904.917385,1097.36617 19008.14363,1104.54827 19000.0,1000.0" />
<polygon fill="none" stroke="#231F20" stroke-width="0.001" points="20000.0,1000.0 19871.52618,988.919125 19879.66981,1093.467395 19995.67771,1101.5388 20000.0,1000.0" />
<polygon fill="none" stroke="#231F20" stroke-width="0.001" points="21000.0,1000.0 21057.589485,1004.967095 21061.91178,903.428295 20998.89678,899.043945 21000.0,1000.0" />
<polygon fill="none" stroke="#231F20" stroke-width="0.001" points="22000.0,1000.0 21890.073115,990.5188 21891.17634,1091.474855 22006.35548,1099.488595 22000.0,1000.0" />
<polygon fill="none" stroke="#231F20" stroke-width="0.001" points="23000.0,1000.0 23118.34986,1010.20768 23111.99438,910.719085 23000.18221,902.93961 23000.0,1000.0" />
<polygon fill="none" stroke="#231F20" stroke-width="0.001" points="24000.0,1000.0 23937.600125,994.61801 23937.41791,1091.6784 24004.58037,1096.3513149999999 24000.0,1000.0" />
<polygon fill="none" stroke="#231F20" stroke-width="0.001" points="25000.0,1000.0 25047.236185,1098.27927 25109.602675,1103.65838 25105.022305,1007.307065 25000.0,1000.0" />
<polygon fill="none" stroke="#231F20" stroke-width="0.001" points="26000.0,1000.0 25932.66949,995.31539 25879.10844,1174.03639 25985.15043,1173.17104 26000.0,1000.0" />
<polygon fill="none" stroke="#231F20" stroke-width="0.001" points="27000.0,1000.0 27076.90992,1005.35111 27091.75949,832.18007 27007.56289,832.86715 27000.0,1000.0" />
<polygon fill="none" stroke="#231F20" stroke-width="0.001" points="28000.0,1000.0 27911.033485,993.81004 27903.470595,1160.94289 28007.4884,1160.094055 28000.0,1000.0" />
<polygon fill="none" stroke="#231F20" stroke-width="0.001" points="29000.0,1000.0 28896.773755,992.8179 28904.262155,1152.911955 29011.842465,1152.03405 29000.0,1000.0" />
<polygon fill="none" stroke="#231F20" stroke-width="0.001" points="30000.0,1000.0 29883.9921,991.9286 29895.83456,1143.96265 29993.90588,1143.162345 30000.0,1000.0" />
<polygon fill="none" stroke="#231F20" stroke-width="0.001" points="31000.0,1000.0 31063.015,1004.38435 31069.10912,861.22201 30998.489765,861.798295 31000.0,1000.0" />
<polygon fill="none" stroke="#231F20" stroke-width="0.001" points="32000.0,1000.0 31884.82086,991.98626 31886.33109,1130.187965 32008.253045,1129.19303 32000.0,1000.0" />
<polygon fill="none" stroke="#231F20" stroke-width="0.001" points="33000.0,1000.0 32888.18783,992.22052 32896.440875,1121.41355 32999.773655,1120.57031 33000.0,1000.0" />
<polygon fill="none" stroke="#231F20" stroke-width="0.001" points="34000.0,1000.0 34067.16246,1004.672915 34067.388805,884.10261 33994.518715,884.69726 34000.0,1000.0" />
<polygon fill="none" stroke="#231F20" stroke-width="0.001" points="35000.0,1000.0 34974.849065,893.0218649999999 34869.82676,885.714805 34875.308045,1001.017545 35000.0,1000.0" />
<polygon fill="none" stroke="#231F20" stroke-width="0.001" points="36000.0,1000.0 36106.04199,999.13465 36108.189345,959.7681 36003.160555,963.14261 36000.0,1000.0" />
<polygon fill="none" stroke="#231F20" stroke-width="0.001" points="37000.0,1000.0 37084.1966,999.31292 37087.357155,962.455525 37001.5742,965.21168 37000.0,1000.0" />
<polygon fill="none" stroke="#231F20" stroke-width="0.001" points="38000.0,1000.0 38104.017805,999.15117 38105.592005,964.362845 37998.494025,967.803835 38000.0,1000.0" />
<polygon fill="none" stroke="#231F20" stroke-width="0.001" points="39000.0,1000.0 39107.580305,999.122095 39106.07433,966.92593 38997.694985,970.40809 39000.0,1000.0" />
<polygon fill="none" stroke="#231F20" stroke-width="0.001" points="40000.0,1000.0 39901.92868,1000.800305 39904.2337,1030.392215 39998.835655,1027.352715 40000.0,1000.0" />
<polygon fill="none" stroke="#231F20" stroke-width="0.001" points="41000.0,1000.0 40929.380645,1000.576285 40928.2163,1027.929 41000.2799,1025.61364 41000.0,1000.0" />
<polygon fill="none" stroke="#231F20" stroke-width="0.001" points="42000.0,1000.0 41878.07805,1000.99494 41878.35795,1026.60858 42001.44716,1022.6538 42000.0,1000.0" />
<polygon fill="none" stroke="#231F20" stroke-width="0.001" points="43000.0,1000.0 43103.33278,999.15676 43101.88562,976.502955 43000.03797,979.775255 43000.0,1000.0" />
<polygon fill="none" stroke="#231F20" stroke-width="0.001" points="44000.0,1000.0 44072.87009,999.405345 44072.90806,979.180605 43999.12298,981.55127 44000.0,1000.0" />
<polygon fill="none" stroke="#231F20" stroke-width="0.001" points="45000.0,1000.0 44998.224315,984.568875 44873.53236,985.58642 44874.40938,1004.035145 45000.0,1000.0" />
<polygon fill="none" stroke="#231F20" stroke-width="0.001" points="46000.0,1000.0 45925.86862,1017.584815 46000.20228,1018.510445 46000.0,1000.0" />
<polygon fill="none" stroke="#231F20" stroke-width="0.001" points="47000.0,1000.0 47100.209355,994.135635 47100.00708,975.62519 47001.090015,974.393435 47000.0,1000.0" />
<polygon fill="none" stroke="#231F20" stroke-width="0.001" points="48000.0,1000.0 47968.479765,998.107405 47967.389745,1023.71397 48001.88062,1024.143465 48000.0,1000.0" />
<polygon fill="none" stroke="#231F20" stroke-width="0.001" points="0.0,1000.0 -111.968005,974.485685 -110.087385,998.62915 0.0,1000.0" />
<polygon fill="none" stroke="#231F20" stroke-width="0.001" points="1000.0,2000.0 925.666345,1999.07437 852.882295,2046.258305 1000.50606,2046.30956 1000.0,2000.0" />
<polygon fill="none" stroke="#231F20" stroke-width="0.001" points="2000.0,2000.0 1901.08294,1998.76825 1901.589,2045.07781 1998.079705,2045.11131 2000.0,2000.0" />
<polygon fill="none" stroke="#231F20" stroke-width="0.001" points="3000.0,2000.0 3034.490875,2000.429495 3036.411165,1955.318185 2996.5185,1955.30433 3000.0,2000.0" />
<polygon fill="none" stroke="#231F20" stroke-width="0.001" points="4000.0,2000.0 4124.33499,2006.468725 4120.85349,1961.773055 3998.20994,1961.730475 4000.0,2000.0" />
<polygon fill="none" stroke="#231F20" stroke-width="0.001" points="5000.0,2000.0 4921.653675,1961.70389 4923.443735,1999.97342 5000.0,2000.0" />
<polygon fill="none" stroke="#231F20" stroke-width="0.001" points="6000.0,2000.0 6030.75855,1957.218935 5997.961565,1957.12011 6000.0,2000.0" />
<polygon fill="none" stroke="#231F20" stroke-width="0.001" points="7000.0,2000.0 6908.584835,2087.255685 6910.62327,2130.135575 6999.75519,2130.404155 7000.0,2000.0" />
<polygon fill="none" stroke="#231F20" stroke-width="0.001" points="8000.0,2000.0 7928.5202150000005,2027.333685 7928.275405,2157.73784 8010.09228,2157.984375 8000.0,2000.0" />
<polygon fill="none" stroke="#231F20" stroke-width="0.001" points="9000.0,2000.0 9147.623765,2000.051255 9137.53149,1842.06688 8998.26956,1841.647245 9000.0,2000.0" />
<polygon fill="none" stroke="#231F20" stroke-width="0.001" points="10000.0,2000.0 9903.50929,1999.966495 9905.23973,2158.319255 9993.249395,2158.58445 10000.0,2000.0" />
<polygon fill="none" stroke="#231F20" stroke-width="0.001" points="11000.0,2000.0 11039.89267,2000.01385 11046.64327,1841.4294 10987.63453,1841.25159 11000.0,2000.0" />
<polygon fill="none" stroke="#231F20" stroke-width="0.001" points="12000.0,2000.0 12122.643545,2000.042585 12110.27808,1841.294175 11992.55994,1840.939455 12000.0,2000.0" />
<polygon fill="none" stroke="#231F20" stroke-width="0.001" points="13000.0,2000.0 12930.512015,1949.879155 12853.95575,1949.852575 12861.39581,2108.91312 12995.053375,2109.315865 13000.0,2000.0" />
<polygon fill="none" stroke="#231F20" stroke-width="0.001" points="14000.0,2000.0 13907.487005,1894.222095 13902.54038,2003.53796 14000.0,2000.0" />
<polygon fill="none" stroke="#231F20" stroke-width="0.001" points="15000.0,2000.0 15032.79698,2000.098825 15055.00367,1962.57316 14998.04092,1958.78934 15000.0,2000.0" />
<polygon fill="none" stroke="#231F20" stroke-width="0.001" points="16000.0,2000.0 15910.86808,1999.73142 15912.82716,2040.94208 15999.91228,2046.726815 16000.0,2000.0" />
<polygon fill="none" stroke="#231F20" stroke-width="0.001" points="17000.0,2000.0 16918.18313,1999.753465 16918.09541,2046.48028 17003.33092,2052.142155 17000.0,2000.0" />
<polygon fill="none" stroke="#231F20" stroke-width="0.001" points="18000.0,2000.0 17860.73807,1999.580365 17864.06899,2051.72252 18000.664365,2060.796035 18000.0,2000.0" />
<polygon fill="none" stroke="#231F20" stroke-width="0.001" points="19000.0,2000.0 18911.990335,1999.7348 18912.6547,2060.530835 18997.18431,2066.14582 19000.0,2000.0" />
<polygon fill="none" stroke="#231F20" stroke-width="0.001" points="20000.0,2000.0 19940.99126,1999.82219 19938.17557,2065.96801 20005.48676,2070.43924 20000.0,2000.0" />
<polygon fill="none" stroke="#231F20" stroke-width="0.001" points="21000.0,2000.0 21117.71814,2000.35472 21112.23138,1929.9154800000001 20996.36178,1922.2187 21000.0,2000.0" />
<polygon fill="none" stroke="#231F20" stroke-width="0.001" points="22000.0,2000.0 22133.657565,2000.402745 22130.019345,1922.621445 22003.88059,1914.2425250000001 22000.0,2000.0" />
<polygon fill="none" stroke="#231F20" stroke-width="0.001" points="23000.0,2000.0 23097.13114,2000.292685 23101.011735,1914.53521 23007.85929,1908.34744 23000.0,2000.0" />
<polygon fill="none" stroke="#231F20" stroke-width="0.001" points="24000.0,2000.0 24049.80642,2095.483075 24057.665705,2003.830515 24000.0,2000.0" />
<polygon fill="none" stroke="#231F20" stroke-width="0.001" points="25000.0,2000.0 24943.03725,1996.21618 24900.361805,2109.400395 25005.472975,2115.12793 25000.0,2000.0" />
<polygon fill="none" stroke="#231F20" stroke-width="0.001" points="26000.0,2000.0 25912.91488,1994.215265 25918.387855,2109.343195 25999.786405,2113.778625 26000.0,2000.0" />
<polygon fill="none" stroke="#231F20" stroke-width="0.001" points="27000.0,2000.0 27085.23551,2005.661875 27085.449105,1891.88325 26992.770735,1886.83318 27000.0,2000.0" />
<polygon fill="none" stroke="#231F20" stroke-width="0.001" points="28000.0,2000.0 27863.404625,1990.926485 27870.63389,2104.093305 28001.21526,2111.20872 28000.0,2000.0" />
<polygon fill="none" stroke="#231F20" stroke-width="0.001" points="29000.0,2000.0 28915.470385,1994.385015 28916.685645,2105.593735 28995.322695,2109.87869 29000.0,2000.0" />
<polygon fill="none" stroke="#231F20" stroke-width="0.001" points="30000.0,2000.0 30067.311185,2004.47123 30071.98849,1894.592535 29991.447595,1890.20384 30000.0,2000.0" />
<polygon fill="none" stroke="#231F20" stroke-width="0.001" points="31000.0,2000.0 31115.869605,2007.69678 31107.317195,1897.90062 30994.93787,1891.77704 31000.0,2000.0" />
<polygon fill="none" stroke="#231F20" stroke-width="0.001" points="32000.0,2000.0 32126.13875,2008.37892 32121.07662,1900.15596 32004.804715,1893.820275 32000.0,2000.0" />
<polygon fill="none" stroke="#231F20" stroke-width="0.001" points="33000.0,2000.0 33093.152445,2006.187765 33097.95716,1900.00804 33008.990105,1895.1602 33000.0,2000.0" />
<polygon fill="none" stroke="#231F20" stroke-width="0.001" points="34000.0,2000.0 33973.575885,1893.918765 33915.91018,1890.08825 33906.920075,1994.92805 34000.0,2000.0" />
<polygon fill="none" stroke="#231F20" stroke-width="0.001" points="35000.0,2000.0 34894.97121,2003.37451 34899.449855,2082.043415 34992.52978,2087.115365 35000.0,2000.0" />
<polygon fill="none" stroke="#231F20" stroke-width="0.001" points="36000.0,2000.0 36085.782955,1997.24385 36093.253175,1910.128485 36004.286125,1905.280645 36000.0,2000.0" />
<polygon fill="none" stroke="#231F20" stroke-width="0.001" points="37000.0,2000.0 37107.09798,1996.55901 37111.384105,1901.839655 36995.112195,1895.5039649999999 37000.0,2000.0" />
<polygon fill="none" stroke="#231F20" stroke-width="0.001" points="38000.0,2000.0 37891.620655,2003.48216 37896.508455,2107.978195 38008.887785,2114.101775 38000.0,2000.0" />
<polygon fill="none" stroke="#231F20" stroke-width="0.001" points="39000.0,2000.0 38905.398045,2003.0395 38914.28583,2117.141275 38994.826725,2121.52997 39000.0,2000.0" />
<polygon fill="none" stroke="#231F20" stroke-width="0.001" points="40000.0,2000.0 40072.0636,1997.68464 40077.236875,1876.15467 39998.599825,1871.869715 40000.0,2000.0" />
<polygon fill="none" stroke="#231F20" stroke-width="0.001" points="41000.0,2000.0 40876.91079,2003.95478 40878.310965,2132.085065 41008.892335,2139.20048 41000.0,2000.0" />
<polygon fill="none" stroke="#231F20" stroke-width="0.001" points="42000.0,2000.0 42101.84765,1996.7277 42092.95532,1857.52722 42000.276945,1852.47715 42000.0,2000.0" />
<polygon fill="none" stroke="#231F20" stroke-width="0.001" points="43000.0,2000.0 43073.78508,1997.62933 43074.062025,1850.106485 42992.66348,1845.671055 43000.0,2000.0" />
<polygon fill="none" stroke="#231F20" stroke-width="0.001" points="44000.0,2000.0 43997.846545,1956.1654 43872.255925,1960.200545 43879.592445,2114.52949 43984.703615,2120.25703 44000.0,2000.0" />
<polygon fill="none" stroke="#231F20" stroke-width="0.001" points="45000,2000 45900,2000 45900,2900 45000,2900" />
    </g>
</g>
</svg>

