<?xml version="1.0" encoding="utf-8"?>
<!-- Generator: Adobe Illustrator 15.1.0, SVG Export Plug-In . SVG Version: 6.00 Build 0)  -->
<!DOCTYPE svg PUBLIC "-//W3C//DTD SVG 1.1//EN" "http://www.w3.org/Graphics/SVG/1.1/DTD/svg11.dtd">
<svg version="1.1" xmlns="http://www.w3.org/2000/svg" xmlns:xlink="http://www.w3.org/1999/xlink" x="0px" y="0px" width="50000px"
	 height="50000px" viewBox="0 0 50000 50000" xml:space="preserve">
<g id="Grid" display="none">
</g>
<g id="Layer_1">
</g>
<g id="Desktop">
</g>
<g id="Guides">
</g>
<g id="Page_1">
	<g id="Layer_1_1_">
	
<polygon fill="none" stroke="#231F20" stroke-width="0.001" points="1029.18585,1004.915375 990.047285,1026.464935 965.385555,1001.009815 989.69432,986.0654 998.97551,992.162115 1028.236935,957.494785" />
<polygon fill="none" stroke="#231F20" stroke-width="0.001" points="2009.227305,1009.578635 1988.63719,1038.920495 1990.02693,1011.77766 1953.632095,985.287575 2002.475885,986.1215 2010.687235,988.63005" />
<polygon fill="none" stroke="#231F20" stroke-width="0.001" points="3052.475025,1010.882035 2995.023235,1009.49027 2965.144665,1011.17426 2986.64126,995.887855 2994.080495,982.947775 3030.45506,971.900285" />
<polygon fill="none" stroke="#231F20" stroke-width="0.001" points="4009.969985,1009.00131 4006.87332,1044.84933 3979.264145,1021.22052 3975.794635,984.521995 4002.31447,995.35531 4024.588875,984.70351" />
<polygon fill="none" stroke="#231F20" stroke-width="0.001" points="5027.58667,1002.037595 4994.38214,1038.42512 4985.199235,1005.09843 4946.44038,995.48256 4995.080635,986.579075 5019.368705,985.704945" />
<polygon fill="none" stroke="#231F20" stroke-width="0.001" points="6033.464995,1041.44336 5983.81816,1048.14375 5972.589305,1032.99385 5977.75529,964.889895 5993.051265,948.0577499999999 6030.993835,985.968195" />
<polygon fill="none" stroke="#231F20" stroke-width="0.001" points="7017.01092,1004.241025 6992.7891,1016.045145 6995.28993,1005.83962 6957.736595,988.980095 6999.139055,978.48889 7026.691275,997.99207" />
<polygon fill="none" stroke="#231F20" stroke-width="0.001" points="8031.74797,1041.10721 8014.994685,1029.0568250000001 7969.9743,1028.768585 7966.47762,988.4208 8019.034615,959.236495 8019.180325,981.32443" />
<polygon fill="none" stroke="#231F20" stroke-width="0.001" points="9016.320805,1011.08776 9005.751795,1044.64725 8994.84702,1006.573935 8987.403035,989.228105 8989.825695,979.12267 9050.04763,980.69673" />
<polygon fill="none" stroke="#231F20" stroke-width="0.001" points="10004.766485,1007.43603 9988.764825,1032.69819 9982.226605,1021.93556 9988.748115,985.88935 10009.03402,980.725075 10015.164925,991.410285" />
<polygon fill="none" stroke="#231F20" stroke-width="0.001" points="11004.668085,1006.75705 10994.352815,1041.659805 10990.55559,1006.884265 10967.229955,979.95881 11010.03856,966.028815 11027.221515,966.802905" />
<polygon fill="none" stroke="#231F20" stroke-width="0.001" points="12039.883795,1024.714885 11999.77675,1023.934065 11959.76994,1017.53679 11947.314525,987.58694 12002.57975,981.9197 12007.77475,992.73852" />
<polygon fill="none" stroke="#231F20" stroke-width="0.001" points="13003.789255,1004.900795 12992.72645,1028.86431 12974.88669,1020.523175 12966.25065,995.963265 13007.54554,983.70652 13017.964905,971.866805" />
<polygon fill="none" stroke="#231F20" stroke-width="0.001" points="14010.65519,1000.797935 13991.29711,1028.90887 13970.46082,1011.28219 13968.626475,997.3198 14010.836495,965.34143 14008.638705,999.39851" />
<polygon fill="none" stroke="#231F20" stroke-width="0.001" points="15044.749685,1018.34111 15007.4934,1019.149735 14970.892075,1043.468145 14983.66092,992.867005 15003.13278,952.23527 15026.058745,964.897815" />
<polygon fill="none" stroke="#231F20" stroke-width="0.001" points="16006.57898,1005.21157 16012.38126,1025.556635 15989.23168,1005.049925 15958.247345,973.42822 15984.9956,973.723465 16027.302595,975.30241" />
<polygon fill="none" stroke="#231F20" stroke-width="0.001" points="17023.32141,1023.343505 16993.89553,1016.96779 16985.109705,1013.467315 16960.08887,989.33553 16982.00276,959.587265 17033.26442,985.585395" />
<polygon fill="none" stroke="#231F20" stroke-width="0.001" points="18005.83972,1001.34501 18001.13628,1014.32789 17974.350355,1021.489495 17971.122345,956.718995 17995.37574,973.68406 18010.216155,985.039865" />
<polygon fill="none" stroke="#231F20" stroke-width="0.001" points="19024.135435,1009.83293 19000.501785,1005.09373 18988.31182,1002.618895 18983.76384,999.39345 18997.49526,956.812895 19014.043195,977.69664" />
<polygon fill="none" stroke="#231F20" stroke-width="0.001" points="20050.128385,1009.49049 20008.18591,1017.06175 19976.424365,1006.51008 19971.972245,981.149085 19979.20181,960.48838 20005.38878,996.966675" />
<polygon fill="none" stroke="#231F20" stroke-width="0.001" points="21045.16091,1015.445185 21003.8828,1009.75494 20972.489375,1013.80213 20974.63312,996.054835 21000.786805,993.158495 21038.71081,998.08741" />
<polygon fill="none" stroke="#231F20" stroke-width="0.001" points="22015.70437,1018.47482 22011.5886,1036.826235 21985.223925,1002.427305 21979.144905,986.88315 22002.048585,982.52646 22034.199555,963.865375" />
<polygon fill="none" stroke="#231F20" stroke-width="0.001" points="23051.508405,1008.474865 22996.207445,1008.494725 22958.036285,1016.23802 22979.019815,974.935355 23003.81881,972.84213 23019.79136,967.1203399999999" />
<polygon fill="none" stroke="#231F20" stroke-width="0.001" points="24027.664715,1019.202365 24001.64842,1033.49004 23952.39979,1007.914 23952.812705,981.73974 24010.207285,972.421235 24024.74377,960.408295" />
<polygon fill="none" stroke="#231F20" stroke-width="0.001" points="25037.641445,1016.15313 24997.007835,1052.48849 24984.40229,1003.2235 24979.258875,980.749635 25003.38035,976.015795 25052.820005,988.595935" />
<polygon fill="none" stroke="#231F20" stroke-width="0.001" points="26031.455215,1043.43713 26019.07787,1044.936125 25954.061085,1029.02137 25997.38191,995.736475 25996.493955,983.008615 26032.65026,962.419935" />
<polygon fill="none" stroke="#231F20" stroke-width="0.001" points="27008.66655,1013.78861 26986.302505,1038.46209 26982.86997,1006.2227 26974.13191,999.08631 27017.163845,953.500845 27042.58903,983.578465" />
<polygon fill="none" stroke="#231F20" stroke-width="0.001" points="28046.46027,1011.139495 28009.08405,1024.362825 27989.961125,1009.802295 27982.71298,992.62743 27998.44412,993.372445 28031.94243,970.537635" />
<polygon fill="none" stroke="#231F20" stroke-width="0.001" points="29016.26626,1013.906525 29001.26649,1008.888825 28979.890895,1012.09538 28954.140715,988.56153 28990.353345,974.004875 29006.561505,997.79328" />
<polygon fill="none" stroke="#231F20" stroke-width="0.001" points="30048.997815,1008.41493 30001.49098,1044.326775 29970.10177,1000.70818 29984.180435,994.869975 29992.63449,950.93729 30036.59968,978.68637" />
<polygon fill="none" stroke="#231F20" stroke-width="0.001" points="31043.609555,1006.04922 30991.565885,1046.348845 30991.44574,1004.609065 30992.42203,996.202185 31002.9224,994.350405 31025.95965,998.38621" />
<polygon fill="none" stroke="#231F20" stroke-width="0.001" points="32004.020605,1003.099025 32007.931065,1050.21432 31996.01297,1003.768755 31966.325955,968.81452 31990.66812,960.923515 32047.10685,974.3051" />
<polygon fill="none" stroke="#231F20" stroke-width="0.001" points="33037.6572,1003.24285 33021.584135,1049.317125 32981.30913,1023.655365 32984.56053,984.91536 32999.810195,980.264215 33029.66114,973.14723" />
<polygon fill="none" stroke="#231F20" stroke-width="0.001" points="34021.017055,1030.621405 33985.3634,1026.76995 33972.475685,1007.65447 33989.448195,998.517115 33990.439575,952.255165 34009.47032,992.953885" />
<polygon fill="none" stroke="#231F20" stroke-width="0.001" points="35021.357995,1004.296475 34993.30014,1023.44987 34983.42804,1007.34594 34986.184375,994.836955 34993.89541,977.72451 35022.5571,979.61243" />
<polygon fill="none" stroke="#231F20" stroke-width="0.001" points="36019.406175,1022.19263 35997.966725,1027.36746 35950.861035,1014.48933 35952.27908,999.704825 35999.696485,959.23959 36017.052265,984.400705" />
<polygon fill="none" stroke="#231F20" stroke-width="0.001" points="37026.16615,1030.089355 36992.70658,1028.8702 36990.4557,1000.942515 36996.62005,995.72122 37016.26876,963.84322 37023.504025,980.702985" />
<polygon fill="none" stroke="#231F20" stroke-width="0.001" points="38026.675395,1006.59831 38019.636875,1049.77831 37984.675785,1025.500075 37981.50654,998.797465 38001.356665,991.8083799999999 38007.77806,998.93388" />
<polygon fill="none" stroke="#231F20" stroke-width="0.001" points="39015.35723,1004.45502 38989.31329,1032.359925 38971.73338,1008.504655 38979.826225,992.58693 39005.733815,946.328655 39035.237975,995.67998" />
<polygon fill="none" stroke="#231F20" stroke-width="0.001" points="40013.227135,1012.383605 40005.14743,1035.806575 39948.990355,1004.478915 39974.221505,973.6631 39989.87419,977.706105 40042.306945,966.450975" />
<polygon fill="none" stroke="#231F20" stroke-width="0.001" points="41006.504285,1000.445445 40991.014125,1020.38944 40980.747895,1002.021725 40992.847435,998.54657 41005.430915,969.734815 41016.532935,995.86917" />
<polygon fill="none" stroke="#231F20" stroke-width="0.001" points="42012.50941,1015.5629 41998.635005,1015.264895 41987.15762,1005.73687 41952.39188,980.699595 42005.12684,973.868785 42023.648155,979.083115" />
<polygon fill="none" stroke="#231F20" stroke-width="0.001" points="43025.713875,1033.571415 42986.884845,1042.319135 42974.48945,1002.207115 42975.82332,993.035715 42987.84944,976.77215 43030.45941,967.81288" />
<polygon fill="none" stroke="#231F20" stroke-width="0.001" points="44005.16999,1003.676295 43990.7858,1017.43689 43986.38628,1008.67067 43988.410055,998.374045 44001.985855,960.38121 44023.921845,989.65607" />
<polygon fill="none" stroke="#231F20" stroke-width="0.001" points="45050.59182,1006.202255 45013.20002,1030.892635 44979.62562,1021.447995 44969.970215,995.86837 45001.012365,994.19603 45046.35498,994.91861" />
<polygon fill="none" stroke="#231F20" stroke-width="0.001" points="46009.34007,1003.40751 46003.13656,1020.876555 45994.74732,1003.156865 45979.99959,977.674765 45999.34284,982.42937 46026.75388,998.69983" />
<polygon fill="none" stroke="#231F20" stroke-width="0.001" points="47028.62888,1024.827005 46989.6698,1025.09056 46969.442515,1040.779465 46968.012435,979.97288 46999.86521,985.566215 47051.680905,986.94779" />
<polygon fill="none" stroke="#231F20" stroke-width="0.001" points="48020.4648,1017.565705 48019.246365,1034.364005 47992.06109,1009.89907 47980.220075,997.870205 47991.737,953.616625 48032.226845,972.548785" />
<polygon fill="none" stroke="#231F20" stroke-width="0.001" points="14.917724999999999,1015.72529 5.836285,1012.68671 -30.965315000000004,1034.245905 -18.521065,992.626465 -2.87336,980.91535 23.208264999999997,994.112705" />
<polygon fill="none" stroke="#231F20" stroke-width="0.001" points="1037.262515,2037.486325 1010.30038,2044.895095 991.724395,2004.13048 970.57502,1965.02677 987.913765,1966.23728 1019.703045,1980.677795" />
<polygon fill="none" stroke="#231F20" stroke-width="0.001" points="2018.145595,2017.537655 2002.87183,2011.994895 1991.154845,2012.70653 1949.81935,1981.85845 2009.825495,1951.829565 2012.11592,1997.62442" />
<polygon fill="none" stroke="#231F20" stroke-width="0.001" points="3045.351235,2012.372765 3008.80023,2048.250605 2991.64464,2000.524155 2982.31643,1978.99191 3012.446895,1956.22294 3006.44824,1998.46207" />
<polygon fill="none" stroke="#231F20" stroke-width="0.001" points="4034.48522,2028.11575 4005.620485,2036.96418 3957.798945,2009.495835 3965.16149,1983.73955 3984.905875,1960.10205 4039.88749,1970.90872" />
<polygon fill="none" stroke="#231F20" stroke-width="0.001" points="5023.249435,2015.59155 5000.00766,2026.14014 4977.54562,2013.46363 4964.52559,1984.196135 4976.223945,1954.282005 5007.22227,1999.095615" />
<polygon fill="none" stroke="#231F20" stroke-width="0.001" points="6054.16869,2003.21643 5993.184395,2040.37206 5996.06106,2006.40548 5987.15921,1987.83248 6005.41572,1967.233985 6025.686275,1996.67662" />
<polygon fill="none" stroke="#231F20" stroke-width="0.001" points="7014.99054,2019.642555 7003.59042,2008.298875 6971.527395,2008.265305 6973.71678,1979.75577 6990.75773,1960.759125 7045.8145700000005,1979.05492" />
<polygon fill="none" stroke="#231F20" stroke-width="0.001" points="8017.3667,2027.91459 7984.817585,2037.19807 7962.88046,2012.387565 7983.13128,1991.850325 7991.803065,1982.89902 8037.956085,1964.667085" />
<polygon fill="none" stroke="#231F20" stroke-width="0.001" points="9008.634445,2000.151365 9001.127525,2042.42172 8958.72996,2027.35549 8982.40773,1986.51942 8997.830905,1979.20226 9031.99053,1965.415635" />
<polygon fill="none" stroke="#231F20" stroke-width="0.001" points="10034.47833,2040.157795 9995.965635,2024.94708 9985.69088,2018.44618 9973.911925,1960.847175 9981.71054,1959.00182 10017.34394,1971.26594" />
<polygon fill="none" stroke="#231F20" stroke-width="0.001" points="11033.137745,2033.89301 11005.088245,2013.86747 10996.07225,2005.831425 10965.56279,1991.36569 10983.39976,1960.710465 11009.99101,1993.86911" />
<polygon fill="none" stroke="#231F20" stroke-width="0.001" points="12025.950615,2041.52294 12013.4017,2025.894585 11987.352295,2013.311075 11995.26237,1996.395425 12001.219615,1994.77258 12011.269065,1984.6063" />
<polygon fill="none" stroke="#231F20" stroke-width="0.001" points="13034.967575,2017.34526 12998.86282,2031.308575 12988.009935,2009.450875 12953.04593,1998.464835 13016.23605,1963.0523699999999 13012.095585,1984.00907" />
<polygon fill="none" stroke="#231F20" stroke-width="0.001" points="14012.25748,2004.10868 14002.117165,2026.8489 13970.542255,2012.61908 13986.258035,1986.419005 14001.34678,1984.158475 14006.64883,1997.185195" />
<polygon fill="none" stroke="#231F20" stroke-width="0.001" points="15011.98402,2006.832555 14999.538635,2035.625745 14994.56664,2007.464725 14954.413495,1991.3468 14983.74721,1962.09429 15023.247945,1970.73751" />
<polygon fill="none" stroke="#231F20" stroke-width="0.001" points="16005.33372,2004.966045 15997.000985,2010.0683 15993.829495,2004.60263 15990.66005,1995.35192 15998.080215,1994.088425 16027.05709,1986.910795" />
<polygon fill="none" stroke="#231F20" stroke-width="0.001" points="17012.76232,2006.20572 17003.796655,2035.4141 16990.85995,2011.94765 16956.48537,1997.49046 17001.003835,1994.632945 17039.96091,1998.666735" />
<polygon fill="none" stroke="#231F20" stroke-width="0.001" points="18027.263125,2024.9911299999999 18014.349605,2044.159705 17989.518055,2014.875835 17969.3365,1996.81235 17992.92948,1981.47991 18042.465915,1999.25821" />
<polygon fill="none" stroke="#231F20" stroke-width="0.001" points="19046.700045,2007.183125 18999.871685,2006.281085 18965.32605,2005.165565 18988.00335,1997.605975 19010.24802,1948.4444 19047.44111,1974.835425" />
<polygon fill="none" stroke="#231F20" stroke-width="0.001" points="20031.863425,2028.99217 19997.734505,2016.243575 19963.98419,2033.35873 19988.29818,1992.937305 20001.81411,1964.411675 20042.08006,1972.0539899999999" />
<polygon fill="none" stroke="#231F20" stroke-width="0.001" points="21033.04642,2031.47756 21008.796165,2016.10975 20974.257535,2025.903775 20972.20972,1991.888335 20996.77985,1990.287675 21017.508305,1973.910775" />
<polygon fill="none" stroke="#231F20" stroke-width="0.001" points="22043.6116,2026.70466 21999.14687,2030.760925 21981.81944,2014.021045 21994.67535,1997.877925 21991.916895,1984.40682 22030.462375,1959.291615" />
<polygon fill="none" stroke="#231F20" stroke-width="0.001" points="23041.96733,2022.837885 22989.232575,2031.97938 22962.2934,2006.104865 22981.039645,1983.303785 22997.12528,1984.07963 23026.625195,1986.83822" />
<polygon fill="none" stroke="#231F20" stroke-width="0.001" points="24027.09378,2007.470735 24000.035195,2016.0266 23992.78855,2011.265045 23972.312075,1983.494285 24004.297145,1970.63225 24044.424635,1981.832365" />
<polygon fill="none" stroke="#231F20" stroke-width="0.001" points="25010.495155,2007.197185 25000.14227,2045.573605 24980.28358,2033.17222 24946.47449,1997.297155 25001.44706,1987.628655 25032.847265,1990.891085" />
<polygon fill="none" stroke="#231F20" stroke-width="0.001" points="26015.71046,2012.997935 25976.127915,2045.116255 25976.521035,2003.20325 25952.945045,1993.059825 26002.97086,1990.671565 26006.15518,1996.87979" />
<polygon fill="none" stroke="#231F20" stroke-width="0.001" points="27027.29479,2011.107855 27000.873125,2015.080865 26980.638445,2030.61477 26959.809045,1998.739305 27003.132635,1990.26571 27010.234025,1988.010215" />
<polygon fill="none" stroke="#231F20" stroke-width="0.001" points="28023.349895,2019.18578 27996.621895,2012.097625 27947.08795,2003.30491 27987.23209,1997.09512 27989.60012,1980.814855 28032.56603,1976.338895" />
<polygon fill="none" stroke="#231F20" stroke-width="0.001" points="29020.97208,2019.97122 28996.612425,2008.870055 28982.007095,2022.862525 28983.517765,1988.09715 29002.06755,1987.994225 29007.685765,1989.739895" />
<polygon fill="none" stroke="#231F20" stroke-width="0.001" points="30022.48379,2010.111415 30001.93046,2017.78401 29971.78616,2011.4452449999999 29969.43579,1997.63394 30019.99944,1952.24746 30017.10106,1981.8123" />
<polygon fill="none" stroke="#231F20" stroke-width="0.001" points="31032.05707,2044.35338 30989.771175,2050.045265 30990.34701,2006.124515 30976.329195,1986.40328 30999.517545,1960.57269 31026.37305,1971.19724" />
<polygon fill="none" stroke="#231F20" stroke-width="0.001" points="32036.8468,2035.908545 31995.44895,2008.55192 31987.563185,2005.295915 31974.588835,1998.821875 31991.94234,1981.17218 32008.206655,1995.733505" />
<polygon fill="none" stroke="#231F20" stroke-width="0.001" points="33020.805185,2003.453365 32980.09258,2042.636785 32983.18574,2022.036895 32992.69824,1991.26073 33002.829805,1958.93317 33017.638305,1970.711665" />
<polygon fill="none" stroke="#231F20" stroke-width="0.001" points="34032.479745,2030.980975 34019.38504,2040.70072 33980.70292,2015.839825 33968.33318,1956.973995 34002.86838,1981.822095 34026.74163,1994.31427" />
<polygon fill="none" stroke="#231F20" stroke-width="0.001" points="35028.69897,2010.551705 34993.150655,2016.75159 34972.09243,2028.4031 34953.10626,1978.89236 35004.88904,1984.088415 35051.803735,1997.44941" />
<polygon fill="none" stroke="#231F20" stroke-width="0.001" points="36007.96365,2003.410565 36000.238715,2005.16986 35988.854365,2008.09293 35980.920915,1973.00903 35996.38855,1979.044975 36034.523005,1973.20137" />
<polygon fill="none" stroke="#231F20" stroke-width="0.001" points="37022.0625,2010.967545 36977.21092,2048.38834 36981.961585,2028.061865 36959.054835,1985.67928 37018.11385,1953.3810349999999 37032.04426,1984.38786" />
<polygon fill="none" stroke="#231F20" stroke-width="0.001" points="38032.711005,2014.84233 37988.197715,2044.22227 37991.45394,2001.680635 37965.03549,1997.209715 38002.16497,1993.09456 38031.18809,1964.96655" />
<polygon fill="none" stroke="#231F20" stroke-width="0.001" points="39022.108785,2019.07531 39017.36924,2038.276015 38958.122275,2014.25534 38980.60325,1984.37096 38995.31941,1965.784415 39033.111855,1973.23386" />
<polygon fill="none" stroke="#231F20" stroke-width="0.001" points="40040.376065,2011.98668 39987.72488,2029.841275 39984.46921,2005.90118 39965.20884,1974.530305 39984.751695,1968.392795 40019.23208,1982.440375" />
<polygon fill="none" stroke="#231F20" stroke-width="0.001" points="41017.155045,2010.712635 40998.465065,2008.88556 40981.467975,2029.876785 40959.341735,1999.602195 41010.92764,1976.12006 41011.805785,1992.547135" />
<polygon fill="none" stroke="#231F20" stroke-width="0.001" points="42025.50568,2022.08313 41987.56633,2027.99716 41984.898515,2016.481615 41963.350675,1985.72728 42010.8384,1961.96532 42035.986905,1980.655035" />
<polygon fill="none" stroke="#231F20" stroke-width="0.001" points="43012.03688,2015.77581 42992.882495,2025.12828 42993.13182,2010.20285 42982.03059,1992.85391 43006.764665,1946.77808 43013.964165,1976.936775" />
<polygon fill="none" stroke="#231F20" stroke-width="0.001" points="44046.517365,2020.649835 44007.066395,2017.989585 43955.980435,2023.12152 43968.808375,1962.61307 44002.22203,1984.743405 44014.156245,1999.17305" />
<polygon fill="none" stroke="#231F20" stroke-width="0.001" points="45049.214645,2014.62729 45000.20178,2009.659095 44981.29301,2002.33239 44971.732715,1985.69835 45000.16134,1969.87737 45051.294085,1994.617915" />
<polygon fill="none" stroke="#231F20" stroke-width="0.001" points="46041.11472,2026.89287 46002.00099,2005.78231 45961.17187,2020.769695 45993.48309,1997.453635 45992.705035,1976.998905 46006.62414,1999.136995" />
<polygon fill="none" stroke="#231F20" stroke-width="0.001" points="47030.512475,2007.134545 46999.51301,2027.55834 46966.8952,2012.115525 46956.63068,1975.22777 47003.26,1984.8514 47005.003045,1994.101905" />
<polygon fill="none" stroke="#231F20" stroke-width="0.001" points="48028.84461,2013.378365 47980.49426,2046.04844 47958.24479,2018.326925 47962.862415,1998.76639 48008.599225,1950.103655 48012.05821,1986.431475" />
<polygon fill="none" stroke="#231F20" stroke-width="0.001" points="15.265044999999999,2020.84192 -0.774435,2015.562555 -8.57264,2011.575125 -28.552,1997.89291 -13.668335,1974.128325 6.495685,1991.79575" />
<polygon fill="none" stroke="#231F20" stroke-width="0.001" points="1040.87517,3006.41608 1009.438925,3023.996695 993.2663,3005.279815 978.272415,2990.690925 982.299965,2965.58696 1028.453755,2981.514345" />
<polygon fill="none" stroke="#231F20" stroke-width="0.001" points="2028.792535,3037.058455 1995.517595,3011.96815 1971.596795,3030.30021 1992.603105,2999.125265 2009.31727,2951.3815 2027.854015,2955.067385" />
<polygon fill="none" stroke="#231F20" stroke-width="0.001" points="3044.65279,3012.4921 3002.465945,3005.352595 2988.700635,3006.74335 2991.470875,2995.416465 2997.330165,2961.721095 3051.848315,2986.825945" />
<polygon fill="none" stroke="#231F20" stroke-width="0.001" points="4033.029705,3018.206435 3995.498335,3016.43315 3975.30494,3004.205005 3981.35407,2980.48621 3997.430455,2967.879505 4005.845725,2994.59671" />
<polygon fill="none" stroke="#231F20" stroke-width="0.001" points="5049.98514,3021.451365 5001.921775,3013.514545 4962.494555,3026.618185 4993.443035,2989.357905 5000.838865,2972.87056 5021.783275,2967.211335" />
<polygon fill="none" stroke="#231F20" stroke-width="0.001" points="6029.932665,3025.3637 5999.972915,3021.98162 5964.60166,3012.527885 5993.381415,2990.061835 6003.87457,2984.316435 6005.158745,2995.47859" />
<polygon fill="none" stroke="#231F20" stroke-width="0.001" points="7016.669535,3005.6133 6980.055805,3036.868395 6979.98642,3025.43225 6991.463475,2993.398155 7002.65874,2992.314925 7040.916865,2964.62327" />
<polygon fill="none" stroke="#231F20" stroke-width="0.001" points="8028.286475,3022.949145 8015.50731,3041.863405 7982.125495,3024.684805 7979.26847,2995.11885 8004.88629,2948.415325 8006.98223,2997.77096" />
<polygon fill="none" stroke="#231F20" stroke-width="0.001" points="9009.508615,3003.36319 9003.13957,3036.067845 8951.7491,3025.178145 8983.62025,2991.154715 8980.786395,2949.48256 9019.46898,2974.12802" />
<polygon fill="none" stroke="#231F20" stroke-width="0.001" points="10034.14734,3027.78655 9986.805975,3024.022155 9982.692755,3009.63277 9985.264625,2979.751815 10004.35249,2955.045085 10014.869945,2977.397325" />
<polygon fill="none" stroke="#231F20" stroke-width="0.001" points="11010.590485,3015.124355 11005.337485,3025.283465 10957.95325,3031.769645 10978.818305,2969.35152 10982.515895,2962.020155 11046.28501,2999.021125" />
<polygon fill="none" stroke="#231F20" stroke-width="0.001" points="12006.06666,3002.671275 12015.4303,3037.35314 11985.596645,3024.83274 11965.865265,2995.533965 11999.77925,2988.12554 12039.860575,2995.5248" />
<polygon fill="none" stroke="#231F20" stroke-width="0.001" points="13003.684755,3004.030265 13010.56849,3028.3348 12981.210335,3006.78571 12985.731445,2989.63992 12983.622155,2969.682265 13015.63396,2987.45199" />
<polygon fill="none" stroke="#231F20" stroke-width="0.001" points="14043.036285,3001.259315 13988.32085,3026.038895 13963.45835,3008.406915 13974.711695,2969.969185 14000.316025,2977.38377 14005.727525,2998.505515" />
<polygon fill="none" stroke="#231F20" stroke-width="0.001" points="15010.499855,3007.63605 15004.972715,3021.205105 14996.610565,3005.663245 14976.70917,2976.093985 14993.75638,2982.478325 15039.66009,2972.134735" />
<polygon fill="none" stroke="#231F20" stroke-width="0.001" points="16016.12218,3018.873115 15989.497875,3043.77054 15962.65796,3017.165965 15982.09011,2985.99146 16003.77994,2983.77484 16035.795,2973.055065" />
<polygon fill="none" stroke="#231F20" stroke-width="0.001" points="17007.59461,3000.048125 17005.282105,3043.495745 16989.96807,3006.02581 16951.247285,2994.381725 17000.548885,2992.01692 17027.87644,2995.45466" />
<polygon fill="none" stroke="#231F20" stroke-width="0.001" points="18019.627,3011.513905 17991.28839,3022.967125 17986.232255,3018.50683 17985.96617,2998.242565 17999.045745,2981.76185 18021.82704,2988.484995" />
<polygon fill="none" stroke="#231F20" stroke-width="0.001" points="19024.498805,3038.16901 19000.374495,3010.702855 18987.48817,3004.202845 18980.3012,2973.80781 19001.24683,2962.37377 19026.71476,2999.123205" />
<polygon fill="none" stroke="#231F20" stroke-width="0.001" points="20010.00934,3005.047395 19985.966285,3045.15408 19976.42725,3021.463885 19984.119815,2977.037905 19994.07127,2985.840235 20026.19184,2970.93956" />
<polygon fill="none" stroke="#231F20" stroke-width="0.001" points="21022.29439,3011.4598 20995.529255,3031.966495 20983.01999,3028.745435 20970.362735,2977.64661 21003.54791,2978.05134 21027.00184,2994.8812" />
<polygon fill="none" stroke="#231F20" stroke-width="0.001" points="22049.612185,3005.291945 22000.247385,3008.25587 21975.26241,3018.040635 21980.83184,2994.673885 22012.96567,2954.94775 22023.33452,2978.35902" />
<polygon fill="none" stroke="#231F20" stroke-width="0.001" points="23003.693875,3005.365455 23005.148085,3022.7364 22983.24478,3016.271675 22993.928915,2996.51057 22994.835605,2980.694155 23029.639544999998,2965.00507" />
<polygon fill="none" stroke="#231F20" stroke-width="0.001" points="24021.08296,3009.656065 24009.203045,3024.666925 23993.040045,3002.591855 23962.75179,2969.951195 24004.114165,2987.490395 24053.58982,2991.27536" />
<polygon fill="none" stroke="#231F20" stroke-width="0.001" points="25021.49787,3025.419445 25000.97285,3010.611445 24965.27021,3022.339565 24981.830405,2983.507385 24997.093175,2986.748265 25027.938565,2974.82418" />
<polygon fill="none" stroke="#231F20" stroke-width="0.001" points="26034.081145,3005.232895 25997.32297,3009.38926 25955.406545,3006.783925 25963.731565,2997.2813850000002 26002.51037,2987.00473 26024.301725,2991.02643" />
<polygon fill="none" stroke="#231F20" stroke-width="0.001" points="27036.45528,3034.48691 27000.979265,3011.48572 26959.5794,3022.245305 26994.70803,2994.518355 26999.472,2993.452015 27011.192425,2987.09948" />
<polygon fill="none" stroke="#231F20" stroke-width="0.001" points="28021.956375,3000.532435 27990.300885,3023.04527 27984.45286,3017.65824 27996.489025,2996.36395 28000.7629,2955.550655 28005.132235,2997.163065" />
<polygon fill="none" stroke="#231F20" stroke-width="0.001" points="29021.12386,3031.700465 29000.725595,3006.10844 28959.33041,3025.041075 28981.429915,2971.95626 28977.35566,2960.399645 29039.96403,2975.869505" />
<polygon fill="none" stroke="#231F20" stroke-width="0.001" points="30038.10784,3010.61917 30016.654,3042.455965 29989.391705,3007.702425 29975.571655,2983.592515 29984.69925,2954.525895 30003.695595,2995.16449" />
<polygon fill="none" stroke="#231F20" stroke-width="0.001" points="31025.12398,3022.374375 31009.91939,3024.28773 30989.63262,3010.37245 30967.95288,2994.765265 30997.216885,2987.97801 31046.92249,2985.550635" />
<polygon fill="none" stroke="#231F20" stroke-width="0.001" points="32023.81809,3028.254015 32015.427955,3041.449205 31969.63377,3006.499945 31979.12768,2994.603585 31994.852375,2975.65353 32034.50952,2978.89019" />
<polygon fill="none" stroke="#231F20" stroke-width="0.001" points="33015.512435,3009.567695 33012.190055,3049.68154 32985.8738,3009.008505 32958.93161,2989.801665 33001.391685,2992.125665 33033.009155,2982.221685" />
<polygon fill="none" stroke="#231F20" stroke-width="0.001" points="34020.369465,3030.336625 34007.33003,3018.545385 33973.14477,3022.87451 33992.08373,2996.37467 34004.465375,2963.06854 34030.601925,2958.55366" />
<polygon fill="none" stroke="#231F20" stroke-width="0.001" points="35030.86999,3017.851655 35011.07974,3037.85676 34970.805655,3026.74031 34992.35586,2995.281765 34984.84034,2951.73151 35043.443225,2984.213045" />
<polygon fill="none" stroke="#231F20" stroke-width="0.001" points="36031.654915,3042.621775 36010.40547,3018.34912 35957.4009,3006.728915 35990.662625,2996.12231 35988.61299,2961.23672 36016.43219,2997.09763" />
<polygon fill="none" stroke="#231F20" stroke-width="0.001" points="37007.50975,3006.85126 37003.30088,3046.704345 36972.30149,3006.90883 36957.38127,2994.009135 36987.64413,2973.21717 37036.275765,2961.81413" />
<polygon fill="none" stroke="#231F20" stroke-width="0.001" points="38016.277085,3016.204265 37995.70766,3031.158975 37977.137825,3027.82609 37985.85253,2998.62748 38011.011655,2973.305085 38041.297785,2972.89468" />
<polygon fill="none" stroke="#231F20" stroke-width="0.001" points="39023.643485,3003.46984 38998.54422,3042.60495 38981.472185,3030.199305 38976.355535,2988.101075 38991.067165,2966.835695 39053.261275,2996.28828" />
<polygon fill="none" stroke="#231F20" stroke-width="0.001" points="40024.164655,3023.366585 40013.02832,3046.87874 39971.945,3029.64433 39986.337695,2986.821205 40013.093585,2947.50869 40035.85025,2964.440345" />
<polygon fill="none" stroke="#231F20" stroke-width="0.001" points="41020.091735,3021.55394 41002.016075,3014.66053 40978.59714,3015.48659 40976.311055,2985.255605 41002.805865,2978.285855 41010.335835,2996.02478" />
<polygon fill="none" stroke="#231F20" stroke-width="0.001" points="42041.66567,3017.032175 41993.17084,3013.406195 41969.408705,3039.403545 41989.842415,2996.18509 42002.663985,2990.40018 42028.56251,2988.6436" />
<polygon fill="none" stroke="#231F20" stroke-width="0.001" points="43008.12117,3006.046985 43005.855425,3019.78715 42991.734085,3011.4648 42952.433655,2995.940555 43016.30979,2960.671005 43015.358175,2988.369365" />
<polygon fill="none" stroke="#231F20" stroke-width="0.001" points="44013.090225,3019.303545 44013.852,3029.95147 43980.470665,3001.67764 43973.729875,2962.845695 44005.1498,2987.722075 44028.257015,2993.32284" />
<polygon fill="none" stroke="#231F20" stroke-width="0.001" points="45031.25775,3007.13554 45004.14302,3012.320015 44989.500845,3014.346505 44975.387995,2993.406865 45006.749745,2948.719745 45014.95491,2978.08277" />
<polygon fill="none" stroke="#231F20" stroke-width="0.001" points="46020.08253,3018.367535 45999.868675,3007.46093 45962.21395,3033.751455 45955.602735,2978.071115 46002.319315,2953.59003 46017.24691,2975.366275" />
<polygon fill="none" stroke="#231F20" stroke-width="0.001" points="47021.08759,3011.854615 47009.882,3020.01101 46965.634615,3041.0661 46989.540175,2982.80566 46990.0635,2976.125505 47031.599285,2965.234215" />
<polygon fill="none" stroke="#231F20" stroke-width="0.001" points="48014.09547,3016.11306 47993.78646,3027.59623 47978.14804,3025.022135 47971.680665,2974.18403 47991.939465,2968.36841 48038.888535,2999.06539" />
<polygon fill="none" stroke="#231F20" stroke-width="0.001" points="22.149135,3012.355005 5.786099999999999,3044.48002 -13.959814999999999,3005.85284 -19.04914,2975.563615 4.3989899999999995,2974.904655 45.825509999999994,2988.194535" />
<polygon fill="none" stroke="#231F20" stroke-width="0.001" points="1014.61103,4014.795185 1002.991005,4005.222185 963.764355,4034.35452 985.09991,3999.23474 1003.291005,3954.07306 1017.468125,3997.962785" />
<polygon fill="none" stroke="#231F20" stroke-width="0.001" points="2016.110825,4000.093395 2010.776015,4049.168925 1969.63509,4026.494055 1983.412155,3995.22965 2014.366235,3953.003315 2015.976025,3987.36081" />
<polygon fill="none" stroke="#231F20" stroke-width="0.001" points="3032.532965,4033.424355 2996.97091,4006.733765 2994.16106,4003.25369 2993.39897,3999.607285 2996.20297,3945.320845 3005.64182,3997.793075" />
<polygon fill="none" stroke="#231F20" stroke-width="0.001" points="4009.022505,4002.03001 4005.941125,4050.337455 3981.96302,4014.85068 3970.482895,3994.822225 4003.889955,3960.649565 4007.77661,3997.4093" />
<polygon fill="none" stroke="#231F20" stroke-width="0.001" points="5016.20243,4023.11192 5003.129845,4014.460095 4987.459125,4012.25644 4963.74986,3984.60188 5020.921915,3953.433435 5018.12267,3997.355945" />
<polygon fill="none" stroke="#231F20" stroke-width="0.001" points="6020.431065,4018.05571 5981.12806,4049.269775 5971.33235,4007.986665 5994.676205,3994.310955 6000.14464,3989.160005 6032.061405,3978.678235" />
<polygon fill="none" stroke="#231F20" stroke-width="0.001" points="7020.504025,4001.958975 7008.172885,4039.649795 6976.07095,4017.327375 6967.97607,3972.023795 6997.05852,3982.01459 7036.075385,3979.9026" />
<polygon fill="none" stroke="#231F20" stroke-width="0.001" points="8013.551735,4006.856765 8001.55558,4009.55687 7973.174805,4010.39228 7961.86387,3965.99434 7993.148165,3980.65849 8028.510245,3999.064225" />
<polygon fill="none" stroke="#231F20" stroke-width="0.001" points="9010.2454,4001.98317 9005.50577,4036.845275 8950.282665,4008.596095 8977.76487,3989.196125 8997.9183,3971.823455 9046.85254,3980.574675" />
<polygon fill="none" stroke="#231F20" stroke-width="0.001" points="10019.540605,4017.054365 10006.588875,4031.01784 9949.42184,4000.971225 9984.400745,3980.382895 9987.95568,3962.65243 10003.148925,3995.825485" />
<polygon fill="none" stroke="#231F20" stroke-width="0.001" points="11036.716705,4026.623745 11007.39574,4033.28456 10989.67568,4003.93865 10966.892105,3979.86032 10991.9052,3954.89452 11024.497375,3984.106835" />
<polygon fill="none" stroke="#231F20" stroke-width="0.001" points="12024.05083,4021.760585 11997.26909,4023.54559 11960.945315,4035.214045 11979.968545,3979.14824 11989.122365,3978.227835 12014.32231,3997.08371" />
<polygon fill="none" stroke="#231F20" stroke-width="0.001" points="13026.25362,4011.31144 12991.793065,4016.769835 12979.246645,4012.031235 12986.953895,3993.395295 12995.29023,3979.05863 13029.91346,3994.162215" />
<polygon fill="none" stroke="#231F20" stroke-width="0.001" points="14042.57903,4029.958285 13989.96987,4035.40284 13975.89433,4035.870675 13952.855395,3991.6703 13984.36682,3969.863495 14054.12009,3997.92186" />
<polygon fill="none" stroke="#231F20" stroke-width="0.001" points="15019.39969,4011.0864 14991.640715,4017.358005 14992.247335,4003.545395 14973.902545,3999.601175 14980.96837,3953.65301 15035.92044,3993.33592" />
<polygon fill="none" stroke="#231F20" stroke-width="0.001" points="16030.446495,4003.27625 16012.02093,4024.077825 15972.62349,4005.26192 15985.00072,3998.72067 16007.831065,3978.530345 16021.011045,3998.006785" />
<polygon fill="none" stroke="#231F20" stroke-width="0.001" points="17042.80603,4024.78936 16997.170395,4039.183335 16993.88551,4008.23891 16963.938,3982.339605 16985.53476,3970.069375 17022.666805,3974.90217" />
<polygon fill="none" stroke="#231F20" stroke-width="0.001" points="18033.70583,4029.394845 17990.873345,4040.338595 17957.0374,4021.542795 17961.715915,3988.93151 17993.53402,3971.53149 18035.762735,3968.421885" />
<polygon fill="none" stroke="#231F20" stroke-width="0.001" points="19044.667715,4007.50674 19011.95517,4044.3217 18964.201895,4036.213715 18988.866085,3989.983475 18998.096975,3994.69674 19040.984025,3980.080075" />
<polygon fill="none" stroke="#231F20" stroke-width="0.001" points="20043.213335,4017.67188 20014.704865,4047.00977 19960.088025,4021.51344 19957.64055,3982.212175 20005.51336,3986.212395 20054.480665,3993.0319" />
<polygon fill="none" stroke="#231F20" stroke-width="0.001" points="21033.772725,4034.9339 21002.74693,4030.92633 20995.016255,4006.888125 20951.796225,3989.932785 21002.954465,3960.37172 21020.95133,3986.385305" />
<polygon fill="none" stroke="#231F20" stroke-width="0.001" points="22010.16821,4006.26687 22009.82019,4043.114505 21957.36926,4016.92565 21991.506745,3989.078685 22000.888605,3994.52129 22022.31615,3980.25826" />
<polygon fill="none" stroke="#231F20" stroke-width="0.001" points="23018.20088,4011.262095 23010.61596,4021.22314 22969.17309,4011.460065 22965.593795,3978.994315 22985.191555,3964.70537 23005.86613,3991.50568" />
<polygon fill="none" stroke="#231F20" stroke-width="0.001" points="24005.796385,4004.619115 24018.16527,4039.50964 23985.315845,4019.63739 23981.667375,3977.1852 24023.34523,3957.836315 24014.12165,3977.12536" />
<polygon fill="none" stroke="#231F20" stroke-width="0.001" points="25016.865215,4008.727905 25003.837215,4033.508565 24977.64919,4018.874295 24962.454765,3987.768075 25018.97003,3956.73228 25044.60865,3987.909275" />
<polygon fill="none" stroke="#231F20" stroke-width="0.001" points="26026.92859,4025.25475 25992.653315,4015.236835 25980.58711,4019.649245 25977.530205,3963.16118 26006.068465,3987.845845 26023.358965,3994.249905" />
<polygon fill="none" stroke="#231F20" stroke-width="0.001" points="27013.236665,4010.905475 26993.939115,4017.01563 26984.78747,4006.28346 26995.45656,3995.51169 26989.04722,3979.304425 27030.810625,3976.292845" />
<polygon fill="none" stroke="#231F20" stroke-width="0.001" points="28019.96987,4025.210215 28017.646485,4034.40976 27991.213025,4001.49886 27954.606435,3985.54924 27994.94351,3975.67552 28005.088745,3996.177545" />
<polygon fill="none" stroke="#231F20" stroke-width="0.001" points="29019.540145,4030.16552 28986.882655,4027.19133 28969.708205,4029.02633 28967.756765,3990.952585 29002.724155,3983.27165 29050.648725,3981.122735" />
<polygon fill="none" stroke="#231F20" stroke-width="0.001" points="30027.41202,4037.324525 30006.50793,4026.960135 29966.22013,4028.530965 29968.56685,3998.443455 29998.060165,3955.472215 30012.848515,3996.463025" />
<polygon fill="none" stroke="#231F20" stroke-width="0.001" points="31003.03531,4004.779725 30995.562665,4022.69783 30945.83034,4004.86066 30985.35697,3995.225055 30995.991125,3991.235545 31014.83212,3984.74187" />
<polygon fill="none" stroke="#231F20" stroke-width="0.001" points="32041.2654,4008.521555 32017.27645,4034.02779 31952.278955,4026.235625 31992.39504,3999.948225 31992.3785,3983.206075 32032.149125,3994.62967" />
<polygon fill="none" stroke="#231F20" stroke-width="0.001" points="33031.335615,4014.77441 33004.43225,4034.046955 32984.505685,4000.46056 32973.422245,3971.27925 33001.4336,3987.105755 33027.56935,3990.21365" />
<polygon fill="none" stroke="#231F20" stroke-width="0.001" points="34033.107605,4023.37374 33988.953255,4050.9035949999998 33967.172805,4015.47574 33992.567825,3996.171305 34008.956865,3982.4329 34008.70804,3990.35168" />
<polygon fill="none" stroke="#231F20" stroke-width="0.001" points="35034.66736,4035.054625 35007.71791,4019.86861 34973.187535,4006.46143 34970.813415,3995.037115 35011.759105,3970.807015 35019.851385,3996.868515" />
<polygon fill="none" stroke="#231F20" stroke-width="0.001" points="36018.321285,4009.99379 36003.811765,4014.90666 35983.82135,4013.768705 35985.087045,3977.53658 35997.88481,3947.560085 36041.118375,3998.7229" />
<polygon fill="none" stroke="#231F20" stroke-width="0.001" points="37008.587205,4003.22968 36983.649875,4042.199175 36990.17182,4005.076245 36966.324625,3970.671675 37002.64676,3987.88665 37009.922005,3988.846315" />
<polygon fill="none" stroke="#231F20" stroke-width="0.001" points="38010.55767,4001.25384 38010.872845,4020.56595 37968.045275,4012.231865 37992.07344,3998.338135 37992.362805,3981.56486 38041.990945,3971.736435" />
<polygon fill="none" stroke="#231F20" stroke-width="0.001" points="39003.77258,4003.662895 38992.42989,4018.528595 38953.689255,4005.074925 38981.774375,3993.922165 38981.53662,3966.40205 39032.609935,3999.04518" />
<polygon fill="none" stroke="#231F20" stroke-width="0.001" points="40022.26744,4005.368745 39994.47904,4044.65839 39983.16008,4021.88911 39954.005735,3973.846 39995.969675,3990.79203 40012.11886,3979.425885" />
<polygon fill="none" stroke="#231F20" stroke-width="0.001" points="41010.80057,4011.26984 40992.60592,4030.378615 40979.343075,4023.815395 40951.3763,3982.583925 41010.89097,3977.67373 41003.817985,3996.69437" />
<polygon fill="none" stroke="#231F20" stroke-width="0.001" points="42025.854395,4024.573235 42002.34177,4038.652245 41974.839445,4017.33895 41958.539715,3988.50767 41978.003855,3955.401135 42019.367825,3994.504615" />
<polygon fill="none" stroke="#231F20" stroke-width="0.001" points="43019.376765,4011.049075 42997.121955,4016.340305 42966.522935,4039.841565 42966.881115,3978.930705 42998.33369,3970.031425 43031.920895,3974.13232" />
<polygon fill="none" stroke="#231F20" stroke-width="0.001" points="44015.693185,4007.98854 44005.83207,4020.27235 43955.5821,4005.137515 43994.295225,3998.323455 43999.57381,3981.52047 44023.58936,3985.715285" />
<polygon fill="none" stroke="#231F20" stroke-width="0.001" points="45014.5133,4006.046815 45019.94278,4042.837495 44994.7583,4006.920415 44990.16612,3996.72214 45010.251585,3977.960735 45040.131325,3993.6734" />
<polygon fill="none" stroke="#231F20" stroke-width="0.001" points="46021.75613,4018.09238 45992.08666,4015.211545 45961.86416,4028.36897 45965.15829,3980.749735 45991.8007,3949.81834 46003.784355,3994.37227" />
<polygon fill="none" stroke="#231F20" stroke-width="0.001" points="47024.31525,4022.517515 47012.85088,4045.88492 46958.74204,4034.42119 46995.631975,3995.132335 46995.02338,3949.797695 47017.60257,3978.38587" />
<polygon fill="none" stroke="#231F20" stroke-width="0.001" points="48026.23358,4006.688005 47997.73566,4041.94998 47961.9329,4025.51929 47981.15514,3990.103475 47995.52046,3990.759115 48027.976785,3970.60078" />
<polygon fill="none" stroke="#231F20" stroke-width="0.001" points="27.113535,4034.43453 1.870115,4005.39939 -6.95457,4001.04179 -19.805675,3996.53709 5.849585,3978.561995 6.146485,3997.99278" />
<polygon fill="none" stroke="#231F20" stroke-width="0.001" points="1008.077525,5007.677725 988.52565,5044.475535 973.14931,5033.863045 994.175975,4991.69242 990.981365,4981.956705 1047.78462,4977.36718" />
<polygon fill="none" stroke="#231F20" stroke-width="0.001" points="2036.148785,5031.121775 2012.99279,5023.04058 1993.878655,5000.712115 1970.274985,4997.15402 1993.51758,4987.618185 2026.77803,4966.17892" />
<polygon fill="none" stroke="#231F20" stroke-width="0.001" points="3037.841705,5016.263665 2977.00874,5046.545285 2993.13208,5009.90728 2994.685095,4997.33706 3009.475775,4969.32938 3041.864155,4988.073005" />
<polygon fill="none" stroke="#231F20" stroke-width="0.001" points="4033.888775,5008.21101 4004.913155,5044.69382 3986.760205,5015.61219 3963.58036,4993.694245 4000.808245,4983.677845 4031.92667,4993.01874" />
<polygon fill="none" stroke="#231F20" stroke-width="0.001" points="5014.107995,5013.44174 5005.21149,5014.777295 4970.599915,5012.64908 4959.154735,4977.185165 4995.814465,4974.583465 5030.611355,4984.36986" />
<polygon fill="none" stroke="#231F20" stroke-width="0.001" points="6014.70545,5008.236535 5997.854225,5046.117905 5965.640755,5005.491475 5979.45717,4999.501405 5997.26645,4994.003835 6014.55082,4976.711555" />
<polygon fill="none" stroke="#231F20" stroke-width="0.001" points="7014.469735,5009.50519 7025.6131,5044.57666 6980.985355,5016.49512 6970.42273,4959.91547 7001.48104,4959.78391 7004.23818,4994.09795" />
<polygon fill="none" stroke="#231F20" stroke-width="0.001" points="8022.3325,5032.670265 7997.46147,5022.910975 7983.223455,5007.18352 7984.802675,4980.569265 7994.852885,4971.430225 8047.722975,4988.55951" />
<polygon fill="none" stroke="#231F20" stroke-width="0.001" points="9025.72972,5016.901605 8995.42852,5012.282605 8957.43684,5017.33527 8976.10596,4971.59095 9006.21434,4969.59148 9030.428205,4995.94075" />
<polygon fill="none" stroke="#231F20" stroke-width="0.001" points="10034.02341,5007.98113 10001.44363,5008.606115 9953.273385,5015.47701 9989.394345,4990.21638 9987.73755,4961.687485 10038.541945,4998.239485" />
<polygon fill="none" stroke="#231F20" stroke-width="0.001" points="11038.25696,5022.464795 11002.564425,5008.23005 10987.84516,5013.976945 10957.058615,4992.36758 10981.30638,4955.09956 11041.20148,4982.8639" />
<polygon fill="none" stroke="#231F20" stroke-width="0.001" points="12036.041395,5002.45484 12011.369105,5030.121485 11964.97969,5039.509505 11969.13746,4980.40153 11993.56806,4959.852875 12015.887375,4973.098905" />
<polygon fill="none" stroke="#231F20" stroke-width="0.001" points="13012.59755,5017.187555 13017.132055,5036.16539 12972.50623,5004.68788 12980.799765,4980.015045 12991.25532,4975.356765 13007.526675,4995.047445" />
<polygon fill="none" stroke="#231F20" stroke-width="0.001" points="14005.561955,5008.391975 13999.84281,5014.2442 13949.872175,5018.925505 13960.314905,4996.64675 13989.341605,4949.53158 14026.110925,4986.20339" />
<polygon fill="none" stroke="#231F20" stroke-width="0.001" points="15031.702775,5029.82698 14990.971365,5041.227515 14957.96416,5034.18551 14983.467325,4997.720345 14994.47747,4988.133215 15008.74789,4987.13034" />
<polygon fill="none" stroke="#231F20" stroke-width="0.001" points="16018.03372,5005.490835 15999.074365,5028.90401 15981.282775,5023.51919 15969.33775,4991.55298 15992.793455,4966.182035 16009.62127,4999.55387" />
<polygon fill="none" stroke="#231F20" stroke-width="0.001" points="17027.529555,5003.072145 16997.797225,5037.027465 16966.15138,5006.679975 16965.23248,4998.34393 17021.651515,4954.662775 17029.69388,4954.49534" />
<polygon fill="none" stroke="#231F20" stroke-width="0.001" points="18014.26628,5000.032415 18003.217005,5010.210345 17983.9858,5008.3498 17984.371025,4980.65092 18007.7239,4973.682655 18031.15803,4957.050205" />
<polygon fill="none" stroke="#231F20" stroke-width="0.001" points="19018.205785,5002.050535 19004.47984,5009.677135 18955.123485,5020.02059 18987.665625,4995.550955 18998.72242,4969.040255 19028.245685,4980.67226" />
<polygon fill="none" stroke="#231F20" stroke-width="0.001" points="20021.007135,5008.587665 19996.51707,5032.438565 19970.55286,5023.87642 19966.40533,4991.05466 20001.87272,4953.175345 20018.04759,4988.15329" />
<polygon fill="none" stroke="#231F20" stroke-width="0.001" points="21014.91494,5019.776245 21005.09611,5018.50599 20982.60974,5002.55403 20964.382295,4999.46306 21002.56589,4961.20439 21030.008705,4992.472325" />
<polygon fill="none" stroke="#231F20" stroke-width="0.001" points="22024.655635,5017.62651 22005.084435,5017.87317 21984.607545,5015.44739 21988.27426,4986.298125 21988.3263,4973.514725 22047.048545,4989.897045" />
<polygon fill="none" stroke="#231F20" stroke-width="0.001" points="23046.37394,5028.85331 23008.529835,5040.22766 22987.037155,5014.71792 22986.55684,4993.78331 23007.05544,4955.26218 23013.838585,4995.317065" />
<polygon fill="none" stroke="#231F20" stroke-width="0.001" points="24035.701615,5003.006415 23987.11098,5023.2818 23951.575265,5020.808885 23966.989935,4956.98981 24004.23238,4970.078815 24025.939045,4978.95354" />
<polygon fill="none" stroke="#231F20" stroke-width="0.001" points="25023.937135,5029.02827 24997.552505,5040.692965 24964.638705,5031.88247 24965.111125,4997.074855 24994.14257,4980.484815 25037.24724,4967.69501" />
<polygon fill="none" stroke="#231F20" stroke-width="0.001" points="26046.672595,5020.915055 25997.37201,5005.069115 25995.853685,5006.97521 25976.482495,4997.26849 26000.28233,4963.802825 26004.46546,4993.798775" />
<polygon fill="none" stroke="#231F20" stroke-width="0.001" points="27016.453725,5022.104345 27008.25766,5019.43162 26958.79247,5026.329955 26955.29656,4970.830655 26986.166135,4950.855805 27011.815655,4980.45612" />
<polygon fill="none" stroke="#231F20" stroke-width="0.001" points="28026.10293,5001.526975 28022.212065,5043.512215 27946.840335,5013.711965 27985.071425,4991.90693 27993.2815,4948.656265 28035.68451,4996.2299" />
<polygon fill="none" stroke="#231F20" stroke-width="0.001" points="29030.865255,5029.832315 28994.08356,5026.78894 28969.128905,5037.11876 28982.60925,4980.55253 29012.38046,4975.16859 29020.4439,4986.64755" />
<polygon fill="none" stroke="#231F20" stroke-width="0.001" points="30033.715885,5016.02597 29996.2871,5007.697895 29961.98459,5014.699465 29961.83761,4992.46637 29982.862505,4968.080875 30021.73505,4982.265825" />
<polygon fill="none" stroke="#231F20" stroke-width="0.001" points="31026.381895,5032.42042 31007.31926,5032.21232 30977.92279,5028.457795 30963.141305,4991.731025 31000.62715,4980.01267 31007.93906,4995.585625" />
<polygon fill="none" stroke="#231F20" stroke-width="0.001" points="32024.638295,5015.057485 32005.95992,5037.245915 31990.759205,5014.86807 31974.53136,4986.571945 32009.93845,4951.90258 32014.36986,4996.78429" />
<polygon fill="none" stroke="#231F20" stroke-width="0.001" points="33008.9799,5010.97982 33008.925035,5036.015755 32973.618145,5001.648835 32986.20559,4985.098335 32999.664305,4983.08496 33022.566975,4994.376935" />
<polygon fill="none" stroke="#231F20" stroke-width="0.001" points="34004.60447,5003.42936 34008.784875,5030.416835 33963.47625,5026.853185 33958.94084,4968.80908 33999.77788,4990.281345 34042.941595,4971.38504" />
<polygon fill="none" stroke="#231F20" stroke-width="0.001" points="35051.800145,5003.850265 35006.05191,5028.719335 34960.79378,5027.915755 34979.458115,4988.79899 35007.167385,4963.899015 35038.298855,4999.205635" />
<polygon fill="none" stroke="#231F20" stroke-width="0.001" points="36040.947125,5013.162575 36008.404935,5037.45428 35958.60122,5010.912905 35985.07731,4981.615935 36018.3277,4953.728075 36004.878635,4995.861455" />
<polygon fill="none" stroke="#231F20" stroke-width="0.001" points="37031.7346,5041.11412 37003.712055,5033.90099 36989.475095,5015.96138 36969.85435,4967.98051 37009.34073,4957.57654 37013.918765,4978.2435" />
<polygon fill="none" stroke="#231F20" stroke-width="0.001" points="38005.96355,5002.185965 37994.08191,5043.73253 37967.51367,5022.10553 37995.591065,4993.98462 37995.937305,4966.17923 38047.56109,4993.924075" />
<polygon fill="none" stroke="#231F20" stroke-width="0.001" points="39047.188355,5023.289315 39002.32343,5025.511665 38991.55164,5008.325615 38974.0657,4988.73649 38984.303675,4951.3488 39005.5447,4991.912715" />
<polygon fill="none" stroke="#231F20" stroke-width="0.001" points="40028.15458,5003.77946 39996.33029,5030.34524 39974.944615,5020.315165 39955.252045,4986.594025 40000.053215,4994.64493 40029.857865,4978.06929" />
<polygon fill="none" stroke="#231F20" stroke-width="0.001" points="41046.439325,5010.84897 41003.643925,5032.86824 40968.00319,5012.52523 40974.14249,4973.27495 41002.151145,4984.93641 41035.857865,4966.473165" />
<polygon fill="none" stroke="#231F20" stroke-width="0.001" points="42005.887185,5002.80455 41996.8643,5044.55368 41959.0819,5029.21947 41992.3425,4993.11974 42000.354395,4962.629295 42026.42026,4982.505525" />
<polygon fill="none" stroke="#231F20" stroke-width="0.001" points="43009.558015,5005.863775 43002.735995,5025.246615 42993.712965,5010.626425 42968.29302,4985.260745 43014.38662,4968.527525 43022.649825,4963.584315" />
<polygon fill="none" stroke="#231F20" stroke-width="0.001" points="44013.341655,5013.767225 44001.980815,5030.29147 43970.097695,5026.48312 43964.72467,4993.911545 44002.432885,4984.117055 44034.65819,4994.49478" />
<polygon fill="none" stroke="#231F20" stroke-width="0.001" points="45016.201685,5005.510115 44999.22766,5042.114805 44974.617805,5008.1316 44992.55974,4992.80119 44987.025345,4973.5647 45015.422785,4990.46212" />
<polygon fill="none" stroke="#231F20" stroke-width="0.001" points="46037.412775,5005.475125 46003.68843,5007.08367 45955.212445,5024.27341 45975.64068,4998.187665 45999.89813,4993.810095 46007.74437,4991.366735" />
<polygon fill="none" stroke="#231F20" stroke-width="0.001" points="47037.67161,5022.44192 47025.50852,5045.60153 46972.433295,5009.87978 46957.6498,4982.153395 46982.69319,4951.110345 47030.926775,4956.677185" />
<polygon fill="none" stroke="#231F20" stroke-width="0.001" points="48024.855005,5008.198145 47992.54505,5014.496335 47979.754995,5000.391705 47983.889115,4983.57031 48022.29474,4951.08082 48048.84314,4986.89896" />
<polygon fill="none" stroke="#231F20" stroke-width="0.001" points="41.07300000000001,5034.994145 6.53637,5016.80566 -29.758925,5046.19547 -19.719335,4986.10415 12.463325000000001,4946.50649 27.120424999999997,4994.431745" />
<polygon fill="none" stroke="#231F20" stroke-width="0.001" points="1026.838755,6002.41782 1001.87241,6048.896995 967.22104,6031.05031 969.92722,5984.47427 980.509645,5948.95531 1041.25404,5996.41693" />
<polygon fill="none" stroke="#231F20" stroke-width="0.001" points="2026.82066,6042.50419 2020.928635,6046.019975 1981.835365,6015.355315 1994.57582,5995.59217 2007.627015,5971.354915 2045.823245,5984.41798" />
<polygon fill="none" stroke="#231F20" stroke-width="0.001" points="3036.220835,6032.710585 2974.47978,6047.02368 2994.35731,6003.00564 2975.26926,5960.394905 2988.482245,5950.900825 3051.50344,5997.41606" />
<polygon fill="none" stroke="#231F20" stroke-width="0.001" points="4007.875385,6000.18449 3985.665155,6040.74868 3995.135555,6005.86255 3971.650765,5964.90651 4001.120715,5965.082565 4015.808675,5981.260565" />
<polygon fill="none" stroke="#231F20" stroke-width="0.001" points="5007.962725,6013.213455 4980.184825,6037.52919 4959.487205,6030.97747 4976.86554,5979.34771 5001.2711,5989.557385 5027.52508,5996.96857" />
<polygon fill="none" stroke="#231F20" stroke-width="0.001" points="6041.89542,6011.1897 6000.93027,6017.219385 5974.88992,6009.96096 5991.921905,5991.29366 6003.025895,5963.81899 6034.71359,5967.267905" />
<polygon fill="none" stroke="#231F20" stroke-width="0.001" points="7014.12493,6005.49863 6996.48799,6008.01407 6978.67951,6011.69766 6959.500075,5965.19345 6997.441155,5995.508405 7045.12836,5997.885875" />
<polygon fill="none" stroke="#231F20" stroke-width="0.001" points="8005.28952,6004.485495 8004.15997,6016.92066 7966.837005,6006.870185 7964.02547,5978.34567 7986.65805,5946.957875 8015.104925,5987.326745" />
<polygon fill="none" stroke="#231F20" stroke-width="0.001" points="9017.405285,6012.073875 8986.801725,6035.87114 8956.0727,6015.869605 8985.02312,5986.23208 8996.30571,5983.34134 9006.66632,5993.297125" />
<polygon fill="none" stroke="#231F20" stroke-width="0.001" points="10015.273815,6000.280475 10000.103275,6005.469485 9986.580175,6014.073815 9991.556215,5998.698805 10016.184505,5966.64309 10011.919055,5997.380165" />
<polygon fill="none" stroke="#231F20" stroke-width="0.001" points="11039.4479,6011.73322 11004.45596,6021.63212 10956.52262,6024.811085 10994.264505,5996.136105 11005.465195,5960.036675 11019.479875,5985.20959" />
<polygon fill="none" stroke="#231F20" stroke-width="0.001" points="12033.5796,6032.406535 12017.25004,6036.03504 11992.51564,6005.467405 11983.99099,5986.70595 12002.107005,5978.70324 12036.240855,5998.73365" />
<polygon fill="none" stroke="#231F20" stroke-width="0.001" points="13024.50685,6015.197955 13006.83042,6017.486745 12973.24399,6000.982985 12955.09403,5999.498495 12981.05347,5963.949405 13027.47214,5985.2447" />
<polygon fill="none" stroke="#231F20" stroke-width="0.001" points="14043.53559,6006.97478 13980.714025,6050.76558 13969.593785,6002.53534 13960.52168,5985.128305 13981.225165,5956.759405 14014.923395,5990.429545" />
<polygon fill="none" stroke="#231F20" stroke-width="0.001" points="15005.406125,6006.06489 14986.76598,6038.390975 14960.70768,6007.943495 14991.063565,5993.21421 14994.807675,5980.91838 15041.3942,5992.90637" />
<polygon fill="none" stroke="#231F20" stroke-width="0.001" points="16008.921005,6008.931525 16008.25925,6017.17899 15992.78555,6002.824065 15955.525725,5998.51908 16003.80734,5973.793295 16009.62792,5994.46097" />
<polygon fill="none" stroke="#231F20" stroke-width="0.001" points="17010.26414,6003.419505 17006.566905,6011.964585 16991.808445,6005.47383 16981.05896,5979.96921 17001.03758,5989.5489 17007.039235,5994.850435" />
<polygon fill="none" stroke="#231F20" stroke-width="0.001" points="18047.969835,6018.439125 18023.378255,6047.22994 17980.936995,6029.397455 17991.622745,5995.794355 17999.504705,5945.262465 18035.73244,5959.378875" />
<polygon fill="none" stroke="#231F20" stroke-width="0.001" points="19006.46788,6004.667895 19016.2366,6046.8839 18990.968065,6000.268735 18985.198945,5984.760165 18993.03107,5980.471865 19027.437735,5961.389595" />
<polygon fill="none" stroke="#231F20" stroke-width="0.001" points="20025.872725,6008.650065 19998.241505,6008.34019 19985.712785,6011.92244 19980.758155,5994.245025 19985.468925,5971.4139 20028.050285,5973.51484" />
<polygon fill="none" stroke="#231F20" stroke-width="0.001" points="21008.820585,6006.69433 21005.290725,6016.515495 20977.25594,6036.48903 20989.57563,5999.48508 21006.99694,5947.713205 21005.15748,5998.60506" />
<polygon fill="none" stroke="#231F20" stroke-width="0.001" points="22005.07538,6008.167565 22002.131445,6013.60506 21956.0119,6007.503835 21980.199225,5999.381145 22008.04665,5967.91342 22021.121795,5989.24249" />
<polygon fill="none" stroke="#231F20" stroke-width="0.001" points="23006.472765,6007.60157 23002.85913,6006.3857 22984.94537,6020.537935 22988.323585,5998.59003 22994.09985,5989.250055 23036.2343,5983.31006" />
<polygon fill="none" stroke="#231F20" stroke-width="0.001" points="24037.313775,6011.86461 23999.62829,6007.383935 23955.554985,6011.56452 23977.3192,5971.83161 23998.880975,5991.1396 24015.52187,5973.803875" />
<polygon fill="none" stroke="#231F20" stroke-width="0.001" points="25033.347205,6020.875695 25010.32237,6019.600425 24995.91641,6004.347865 24963.919475,5959.03272 24986.697095,5962.251835 25011.608135,5987.77268" />
<polygon fill="none" stroke="#231F20" stroke-width="0.001" points="26017.199055,6005.98804 25979.98355,6046.73261 25993.39194,6002.968865 25987.45814,5991.071195 25991.50583,5973.709495 26032.60673,5963.530365" />
<polygon fill="none" stroke="#231F20" stroke-width="0.001" points="27017.39875,6003.941585 26989.89841,6039.66577 26985.427345,6017.45888 26967.70467,5963.53267 26995.96788,5969.1058 27028.305965,5979.985215" />
<polygon fill="none" stroke="#231F20" stroke-width="0.001" points="28012.857605,6005.58621 27998.883225,6031.30095 27971.26849,6006.00723 27982.972475,5996.86083 28005.13765,5965.944715 28017.606595,5985.677145" />
<polygon fill="none" stroke="#231F20" stroke-width="0.001" points="29021.78029,6002.006865 29002.690175,6023.802535 28959.578985,6007.59681 28986.097325,5993.672685 29009.352935,5974.77297 29029.939785,5996.24666" />
<polygon fill="none" stroke="#231F20" stroke-width="0.001" points="30053.631185,6010.703625 29995.027015,6009.29487 29985.033925,6020.35386 29956.930195,5969.92062 29991.22724,5966.61273 30015.517565,5973.346535" />
<polygon fill="none" stroke="#231F20" stroke-width="0.001" points="31036.506265,6013.22549 31007.40971,6028.23629 30966.9408,6025.44353 30994.59654,5994.508615 30995.60889,5976.49343 31016.82537,5979.62495" />
<polygon fill="none" stroke="#231F20" stroke-width="0.001" points="32023.280905,6001.378635 31997.39663,6006.202215 31975.364725,6017.04951 31992.172205,5987.458585 31999.04397,5992.339525 32041.57667,5986.681455" />
<polygon fill="none" stroke="#231F20" stroke-width="0.001" points="33003.186375,6005.0343 32984.995045,6028.37061 32979.555775,6001.786845 32985.35702,5987.723015 33001.864325,5977.471845 33024.95771,5970.73459" />
<polygon fill="none" stroke="#231F20" stroke-width="0.001" points="34019.10499,6013.87559 34002.677235,6014.151415 33991.466855,6009.09177 33957.74174,5974.30483 33974.594435,5954.43831 34016.865025,5988.447765" />
<polygon fill="none" stroke="#231F20" stroke-width="0.001" points="35040.0177,6006.248865 35004.298225,6019.56821 34983.12536,6003.54057 34965.5713,5981.96626 35001.402935,5986.194235 35036.03586,5966.64771" />
<polygon fill="none" stroke="#231F20" stroke-width="0.001" points="36018.50371,6000.90025 36020.593885,6040.16885 35973.79203,6026.450425 35967.843385,5967.016665 35975.682925,5951.655125 36037.12816,5971.07415" />
<polygon fill="none" stroke="#231F20" stroke-width="0.001" points="37040.33444,6023.849805 37004.981865,6016.07295 36957.382645,6019.740215 36981.45211,5994.96213 37006.941655,5945.475935 37006.18796,5995.92098" />
<polygon fill="none" stroke="#231F20" stroke-width="0.001" points="38026.683105,6007.233935 38000.085035,6006.74594 37975.210375,6006.196075 37977.53922,5969.68711 38004.053345,5953.62218 38013.613555,5985.561495" />
<polygon fill="none" stroke="#231F20" stroke-width="0.001" points="39027.518855,6005.984505 39010.16498,6046.9419 38985.038495,6006.00915 38992.293405,5999.00948 39000.74006,5947.234225 39008.216015,5993.11528" />
<polygon fill="none" stroke="#231F20" stroke-width="0.001" points="40003.763685,6004.522455 39994.910565,6013.020965 39985.39365,6012.799725 39991.55312,5986.472245 40006.338765,5947.93002 40014.83187,5996.670835" />
<polygon fill="none" stroke="#231F20" stroke-width="0.001" points="41023.722105,6036.07759 41011.893135,6026.34658 40946.580805,6009.80871 40990.16042,5993.44048 41000.162705,5968.4126 41049.450855,5984.10959" />
<polygon fill="none" stroke="#231F20" stroke-width="0.001" points="42011.78841,6010.267085 42000.469605,6009.942595 41982.345335,6027.87238 41972.501595,5995.151655 42005.030395,5977.066665 42025.47698,5995.873745" />
<polygon fill="none" stroke="#231F20" stroke-width="0.001" points="43033.58568,6004.400205 43000.43466,6019.78086 42973.18218,6028.347305 42964.98956,5983.03954 43004.911815,5950.74002 43020.243475,5985.089585" />
<polygon fill="none" stroke="#231F20" stroke-width="0.001" points="44005.603245,6001.047825 43987.9651,6051.31247 43958.276085,6015.893225 43994.40029,5997.443295 44001.71032,5983.53158 44029.20457,5999.178045" />
<polygon fill="none" stroke="#231F20" stroke-width="0.001" points="45018.92162,6016.007735 45018.12071,6048.72752 44979.03129,6017.90615 44983.568605,5991.36803 44988.529925,5960.890335 45037.34923,5962.721205" />
<polygon fill="none" stroke="#231F20" stroke-width="0.001" points="46010.43187,6003.710765 46000.081305,6015.78462 45967.736075,6041.270335 45954.867795,5997.537545 45986.064625,5973.0637 46030.32238,5978.22462" />
<polygon fill="none" stroke="#231F20" stroke-width="0.001" points="47035.14207,6037.05471 46996.30153,6028.53354 46951.12883,6004.89769 46965.255555,5982.766825 46992.544695,5967.647745 47052.355665,5983.243785" />
<polygon fill="none" stroke="#231F20" stroke-width="0.001" points="48039.8848,6007.26595 47984.924805,6046.87003 47994.568875,6001.950945 47995.7046,5996.330285 48012.53654,5959.174275 48020.199195,5990.8128" />
<polygon fill="none" stroke="#231F20" stroke-width="0.001" points="4.40598,6003.07714 14.497720000000001,6047.462755 -14.61852,6001.30579 -38.048795,5976.32143 6.294935000000001,5980.11565 6.33454,5995.363925" />
<polygon fill="none" stroke="#231F20" stroke-width="0.001" points="1013.195365,7005.932365 987.678145,7033.187925 959.566585,7002.00855 970.04621,6999.053495 981.57988,6949.12755 1033.08848,6984.711225" />
<polygon fill="none" stroke="#231F20" stroke-width="0.001" points="2021.330355,7021.335675 1988.320275,7050.145105 1990.01745,7005.58852 1976.69955,6996.602525 2005.95557,6970.83698 2031.22873,6971.32343" />
<polygon fill="none" stroke="#231F20" stroke-width="0.001" points="3029.583465,7001.52231 2991.132215,7022.531415 2963.72719,7015.80016 2964.37828,6981.088225 3001.042535,6994.07016 3044.202635,6985.406055" />
<polygon fill="none" stroke="#231F20" stroke-width="0.001" points="4018.18214,7002.79782 3993.648,7053.90475 3989.816485,7013.993125 3987.735995,6985.970635 4001.43453,6971.01133 4010.36042,6986.90266" />
<polygon fill="none" stroke="#231F20" stroke-width="0.001" points="5015.858055,7005.61492 5004.20949,7041.79402 4956.573495,7014.36467 4964.267535,6959.378695 4984.97201,6970.12332 5035.15495,6977.74751" />
<polygon fill="none" stroke="#231F20" stroke-width="0.001" points="6026.262225,7006.406 6012.947175,7052.820635 5952.893625,7021.52199 5948.61697,6989.927335 5998.50341,6993.696145 6018.56517,6999.04588" />
<polygon fill="none" stroke="#231F20" stroke-width="0.001" points="7050.63337,7017.862985 7012.838915,7044.25613 6981.39858,7002.470025 6987.31521,6988.06078 7004.984345,6989.458335 7042.593115,6974.52198" />
<polygon fill="none" stroke="#231F20" stroke-width="0.001" points="8028.77738,7012.517965 8007.539015,7029.051795 7975.558245,7015.37842 7961.84047,6969.898225 7999.404115,6963.785695 8039.35915,6975.361715" />
<polygon fill="none" stroke="#231F20" stroke-width="0.001" points="9039.203275,7021.47578 8998.53627,7007.15466 8986.05873,7001.282855 8995.171625,6995.72121 9010.313615,6973.20517 9039.184675,6990.08087" />
<polygon fill="none" stroke="#231F20" stroke-width="0.001" points="10024.322295,7014.120965 10016.376135,7045.278175 9970.73768,7013.476705 9986.804695,6997.798975 9997.92387,6991.498745 10019.356755,6972.541545" />
<polygon fill="none" stroke="#231F20" stroke-width="0.001" points="11016.41919,7014.19622 11002.553035,7007.660695 10978.91676,7034.326875 10994.517305,6999.20088 10992.90575,6945.646375 11017.85024,6997.302205" />
<polygon fill="none" stroke="#231F20" stroke-width="0.001" points="12017.52092,7007.50847 11998.93866,7034.694725 11981.534145,7026.98405 11968.01615,6978.953135 11999.25932,6947.651625 12041.6698,6975.418405" />
<polygon fill="none" stroke="#231F20" stroke-width="0.001" points="13016.09334,7003.824585 13002.089545,7014.471165 12977.76767,7030.6923 12969.6227,6997.979935 12995.206555,6989.75403 13042.892365,6997.05702" />
<polygon fill="none" stroke="#231F20" stroke-width="0.001" points="14015.19059,7018.727905 13993.17138,7022.010555 13993.38117,7010.783615 13986.497215,6996.21876 13979.59915,6956.12366 14007.579805,6988.086045" />
<polygon fill="none" stroke="#231F20" stroke-width="0.001" points="15050.193675,7000.048375 15008.58785,7027.85611 14984.742935,7015.32806 14992.80462,6993.138465 14996.585545,6982.913955 15008.41118,6986.78875" />
<polygon fill="none" stroke="#231F20" stroke-width="0.001" points="16030.44251,7013.702245 16004.097955,7012.72811 15960.2729,7027.21236 15980.473855,6998.94875 15993.617355,6968.35243 16029.040205,6981.812235" />
<polygon fill="none" stroke="#231F20" stroke-width="0.001" points="17020.268955,7004.840925 17002.53432,7010.31487 16993.42139,7005.950025 16968.552245,6977.55769 17019.96822,6953.4328 17038.131955,6997.255935" />
<polygon fill="none" stroke="#231F20" stroke-width="0.001" points="18003.426015,7004.07835 17995.81015,7043.595715 17984.256785,7019.561135 17962.132675,6994.437265 17984.028475,6958.203385 18049.43139,6996.665845" />
<polygon fill="none" stroke="#231F20" stroke-width="0.001" points="19021.39409,7007.603605 19014.527875,7050.00665 18971.03527,7032.916935 18978.541665,6993.93259 18992.593305,6976.248835 19028.304775,6998.7691" />
<polygon fill="none" stroke="#231F20" stroke-width="0.001" points="20016.78951,7007.36155 19985.674815,7039.45829 19994.13689,7005.24017 19980.4297,6990.15506 20015.4554,6970.17088 20007.546315,6994.71559" />
<polygon fill="none" stroke="#231F20" stroke-width="0.001" points="21030.155885,7030.8547 21019.973715,7046.214045 20961.827875,7018.12042 20973.001135,6983.023935 21004.260335,6991.852975 21020.229235,6988.4283" />
<polygon fill="none" stroke="#231F20" stroke-width="0.001" points="22022.19072,7034.82577 22005.475035,7027.793575 21982.412855,7027.723055 21976.68443,6974.172335 22002.847915,6969.68088 22039.75957,6974.04396" />
<polygon fill="none" stroke="#231F20" stroke-width="0.001" points="23016.67153,7020.31013 23012.55214,7045.375165 22957.87148,7001.315215 22963.354765,6990.670485 23002.4875,6987.548125 23026.44991,6989.65038" />
<polygon fill="none" stroke="#231F20" stroke-width="0.001" points="24030.03246,7021.28155 24000.775885,7029.847055 23958.246345,7019.66086 23969.981345,6971.199475 23987.81193,6977.192615 24024.31087,6965.149765" />
<polygon fill="none" stroke="#231F20" stroke-width="0.001" points="25033.415795,7005.121825 25005.08147,7012.0793 24993.654495,7004.632535 24982.599265,6992.90711 24996.80647,6988.963145 25026.807165,6966.399315" />
<polygon fill="none" stroke="#231F20" stroke-width="0.001" points="26036.20395,7003.95963 26002.96715,7051.14766 25972.79652,7017.68601 25967.10864,6984.338575 25985.285455,6948.014755 26044.574835,6976.09203" />
<polygon fill="none" stroke="#231F20" stroke-width="0.001" points="27023.374175,7025.02789 26993.59056,7013.510545 26967.42157,7009.83392 26988.024415,6993.042135 27003.803405,6955.76794 27009.14106,6994.57557" />
<polygon fill="none" stroke="#231F20" stroke-width="0.001" points="28032.308515,7034.017115 28009.39553,7022.98128 27949.20425,7008.875515 27992.93203,6995.599525 27998.3678,6991.38164 28022.795,6964.683805" />
<polygon fill="none" stroke="#231F20" stroke-width="0.001" points="29050.227875,7017.915085 29002.18335,7005.681135 28955.320635,7022.440275 28984.01607,6991.84329 29001.019165,6983.08735 29017.62349,6988.756685" />
<polygon fill="none" stroke="#231F20" stroke-width="0.001" points="30042.46258,7030.132245 29999.502095,7044.53606 29988.593415,7011.234385 29990.776585,6998.71362 30002.03014,6983.05952 30011.18767,6992.73604" />
<polygon fill="none" stroke="#231F20" stroke-width="0.001" points="31046.37841,7015.031875 31013.30051,7052.535175 30964.81591,7030.68023 30967.564655,6973.983 31005.760245,6988.988075 31021.472285,6970.591035" />
<polygon fill="none" stroke="#231F20" stroke-width="0.001" points="32018.40788,7002.22988 31998.64234,7024.5599 31981.244205,7007.22527 31974.46093,6970.3343 32014.530645,6965.378495 32036.986275,6972.50946" />
<polygon fill="none" stroke="#231F20" stroke-width="0.001" points="33034.96868,7012.879305 32983.589205,7042.775275 32984.10746,7022.749975 32958.406635,6974.08296 32987.42521,6970.503375 33038.853415,6992.5454" />
<polygon fill="none" stroke="#231F20" stroke-width="0.001" points="34019.219805,7025.85865 34001.82593,7014.06629 33977.077055,7014.53051 33992.09209,6990.20175 34002.67192,6992.67026 34033.855395,6958.94766" />
<polygon fill="none" stroke="#231F20" stroke-width="0.001" points="35029.275115,7046.15554 34994.88824,7024.34124 34991.16802,7008.81493 34967.27742,6990.74387 35010.534595,6950.879165 35046.344825,6996.8775" />
<polygon fill="none" stroke="#231F20" stroke-width="0.001" points="36022.10724,7026.601895 35996.124135,7012.378255 35978.495835,7013.974515 35974.94363,6987.9919 35989.70103,6967.30331 36016.906005,6993.408855" />
<polygon fill="none" stroke="#231F20" stroke-width="0.001" points="37000,7000 37900,7000 37900,7900 37000,7900" />
    </g>
</g>
</svg>

