  0
SECTION
  2
HEADER
  9
$ACADVER
  1
AC1009
  9
$INSBASE
 10
0.0
 20
0.0
 30
0.0
  9
$EXTMIN
 10
0.0
 20
0.0
 30
0.0
  9
$EXTMAX
 10
100.0
 20
100.0
 30
0.0
  9
$UNITMODE
 70
0
  9
$AUNITS
 70
0
  9
$ANGBASE
 50
0.0
  9
$ANGDIR
 70
0
  0
ENDSEC
  0
SECTION
  2
TABLES
  0
TABLE
  2
LTYPE
 70
19
  0
LTYPE
  2
CONTINUOUS
 70
0
  3
Solid
 72
65
 73
0
 40
0.0
  0
LTYPE
  2
CENTER
 70
0
  3
Center ____ _ ____ _ ____ _ ____ _ ____ _ ____
 72
65
 73
4
 40
2.0
 49
1.25
 49
-0.25
 49
0.25
 49
-0.25
  0
LTYPE
  2
CENTERX2
 70
0
  3
Center (2x) ________  __  ________  __  ________
 72
65
 73
4
 40
3.5
 49
2.5
 49
-0.25
 49
0.5
 49
-0.25
  0
LTYPE
  2
CENTER2
 70
0
  3
Center (.5x) ____ _ ____ _ ____ _ ____ _ ____
 72
65
 73
4
 40
1.0
 49
0.625
 49
-0.125
 49
0.125
 49
-0.125
  0
LTYPE
  2
DASHED
 70
0
  3
Dashed __ __ __ __ __ __ __ __ __ __ __ __ __ _
 72
65
 73
2
 40
0.6
 49
0.5
 49
-0.1
  0
LTYPE
  2
DASHEDX2
 70
0
  3
Dashed (2x) ____  ____  ____  ____  ____  ____
 72
65
 73
2
 40
1.2
 49
1.0
 49
-0.2
  0
LTYPE
  2
DASHED2
 70
0
  3
Dashed (.5x) _ _ _ _ _ _ _ _ _ _ _ _ _ _
 72
65
 73
2
 40
0.3
 49
0.25
 49
-0.05
  0
LTYPE
  2
PHANTOM
 70
0
  3
Phantom ______  __  __  ______  __  __  ______
 72
65
 73
6
 40
2.5
 49
1.25
 49
-0.25
 49
0.25
 49
-0.25
 49
0.25
 49
-0.25
  0
LTYPE
  2
PHANTOMX2
 70
0
  3
Phantom (2x)____________    ____    ____    ____________
 72
65
 73
6
 40
4.25
 49
2.5
 49
-0.25
 49
0.5
 49
-0.25
 49
0.5
 49
-0.25
  0
LTYPE
  2
PHANTOM2
 70
0
  3
Phantom (.5x) ___ _ _ ___ _ _ ___ _ _ ___ _ _ ___
 72
65
 73
6
 40
1.25
 49
0.625
 49
-0.125
 49
0.125
 49
-0.125
 49
0.125
 49
-0.125
  0
LTYPE
  2
DASHDOT
 70
0
  3
Dash dot __ . __ . __ . __ . __ . __ . __ . __
 72
65
 73
4
 40
1.4
 49
1.0
 49
-0.2
 49
0.0
 49
-0.2
  0
LTYPE
  2
DASHDOTX2
 70
0
  3
Dash dot (2x) ____  .  ____  .  ____  .  ____
 72
65
 73
4
 40
2.4
 49
2.0
 49
-0.2
 49
0.0
 49
-0.2
  0
LTYPE
  2
DASHDOT2
 70
0
  3
Dash dot (.5x) _ . _ . _ . _ . _ . _ . _ . _
 72
65
 73
4
 40
0.7
 49
0.5
 49
-0.1
 49
0.0
 49
-0.1
  0
LTYPE
  2
DOT
 70
0
  3
Dot .  .  .  .  .  .  .  .  .  .  .  .  .  .  .  .
 72
65
 73
2
 40
0.2
 49
0.0
 49
-0.2
  0
LTYPE
  2
DOTX2
 70
0
  3
Dot (2x) .    .    .    .    .    .    .    . 
 72
65
 73
2
 40
0.4
 49
0.0
 49
-0.4
  0
LTYPE
  2
DOT2
 70
0
  3
Dot (.5) . . . . . . . . . . . . . . . . . . . 
 72
65
 73
2
 40
0.1
 49
0.0
 49
-0.1
  0
LTYPE
  2
DIVIDE
 70
0
  3
Divide __ . . __ . . __ . . __ . . __ . . __
 72
65
 73
6
 40
1.6
 49
1.0
 49
-0.2
 49
0.0
 49
-0.2
 49
0.0
 49
-0.2
  0
LTYPE
  2
DIVIDEX2
 70
0
  3
Divide (2x) ____  . .  ____  . .  ____  . .  ____
 72
65
 73
6
 40
2.6
 49
2.0
 49
-0.2
 49
0.0
 49
-0.2
 49
0.0
 49
-0.2
  0
LTYPE
  2
DIVIDE2
 70
0
  3
Divide(.5x) _ . _ . _ . _ . _ . _ . _ . _
 72
65
 73
6
 40
0.8
 49
0.5
 49
-0.1
 49
0.0
 49
-0.1
 49
0.0
 49
-0.1
  0
ENDTAB
  0
TABLE
  2
LAYER
 70
5
  0
LAYER
  2
DIMENSIONS
 70
0
 62
1
  6
CONTINUOUS
  0
LAYER
  2
TABLEBACKGROUND
 70
0
 62
1
  6
CONTINUOUS
  0
LAYER
  2
TABLECONTENT
 70
0
 62
1
  6
CONTINUOUS
  0
LAYER
  2
TABLEGRID
 70
0
 62
1
  6
CONTINUOUS
  0
LAYER
  2
VIEWPORTS
 70
0
 62
7
  6
CONTINUOUS
  0
ENDTAB
  0
TABLE
  2
STYLE
 70
12
  0
STYLE
  2
STANDARD
 70
0
 40
0.0
 41
1.0
 42
1.0
 50
0.0
 71
0
  3
arial.ttf
  4

  0
STYLE
  2
ARIAL
 70
0
 40
0.0
 41
1.0
 42
1.0
 50
0.0
 71
0
  3
arial.ttf
  4

  0
STYLE
  2
ARIAL_BOLD
 70
0
 40
0.0
 41
1.0
 42
1.0
 50
0.0
 71
0
  3
arialbd.ttf
  4

  0
STYLE
  2
ARIAL_ITALIC
 70
0
 40
0.0
 41
1.0
 42
1.0
 50
0.0
 71
0
  3
ariali.ttf
  4

  0
STYLE
  2
ARIAL_BOLD_ITALIC
 70
0
 40
0.0
 41
1.0
 42
1.0
 50
0.0
 71
0
  3
arialbi.ttf
  4

  0
STYLE
  2
ARIAL_BLACK
 70
0
 40
0.0
 41
1.0
 42
1.0
 50
0.0
 71
0
  3
ariblk.ttf
  4

  0
STYLE
  2
ISOCPEUR
 70
0
 40
0.0
 41
1.0
 42
1.0
 50
0.0
 71
0
  3
isocpeur.ttf
  4

  0
STYLE
  2
ISOCPEUR_ITALIC
 70
0
 40
0.0
 41
1.0
 42
1.0
 50
0.0
 71
0
  3
isocpeui.ttf
  4

  0
STYLE
  2
TIMES
 70
0
 40
0.0
 41
1.0
 42
1.0
 50
0.0
 71
0
  3
times.ttf
  4

  0
STYLE
  2
TIMES_BOLD
 70
0
 40
0.0
 41
1.0
 42
1.0
 50
0.0
 71
0
  3
timesbd.ttf
  4

  0
STYLE
  2
TIMES_ITALIC
 70
0
 40
0.0
 41
1.0
 42
1.0
 50
0.0
 71
0
  3
timesi.ttf
  4

  0
STYLE
  2
TIMES_BOLD_ITALIC
 70
0
 40
0.0
 41
1.0
 42
1.0
 50
0.0
 71
0
  3
timesbi.ttf
  4

  0
ENDTAB
  0
TABLE
  2
VIEW
 70
0
  0
ENDTAB
  0
TABLE
  2
APPID
 70
1
  0
APPID
  2
DXFWRITE
 70
0
  0
ENDTAB
  0
TABLE
  2
VPORT
 70
0
  0
ENDTAB
  0
TABLE
  2
UCS
 70
0
  0
ENDTAB
  0
ENDSEC
  0
SECTION
  2
BLOCKS
  0
ENDSEC
  0
SECTION
  2
ENTITIES
  0
VIEWPORT
  8
VIEWPORTS
 67
1
 10
0.0
 20
0.0
 30
0.0
 40
1.0
 41
1.0
 68
1
 69
1
1001
ACAD
1000
MVIEW
1002
{
1070
16
1010
0.0
1020
0.0
1030
0.0
1010
0.0
1020
0.0
1030
0.0
1040
0.0
1040
1.0
1040
0.0
1040
0.0
1040
50.0
1040
0.0
1040
0.0
1070
0
1070
100
1070
1
1070
3
1070
0
1070
0
1070
0
1070
0
1040
0.0
1040
0.0
1040
0.0
1040
0.1
1040
0.1
1040
0.1
1040
0.1
1070
0
1002
{
1002
}
1002
}
  0
POLYLINE
  8
0
 66
1
 10
0.0
 20
0.0
 30
0.0
 70
8
  0
VERTEX
  8
0
 10
1000.0
 20
1008.6
 30
0.0
  0
VERTEX
  8
0
 10
1096.6
 20
1014.2
 30
0.0
  0
VERTEX
  8
0
 10
1198.3
 20
1000.0
 30
0.0
  0
VERTEX
  8
0
 10
1218.5
 20
1023.8
 30
0.0
  0
VERTEX
  8
0
 10
1273.4
 20
1021.7
 30
0.0
  0
VERTEX
  8
0
 10
1300.0
 20
1076.7
 30
0.0
  0
VERTEX
  8
0
 10
1281.9
 20
1090.0
 30
0.0
  0
VERTEX
  8
0
 10
1281.9
 20
1136.0
 30
0.0
  0
VERTEX
  8
0
 10
1300.0
 20
1149.3
 30
0.0
  0
VERTEX
  8
0
 10
1273.4
 20
1204.3
 30
0.0
  0
VERTEX
  8
0
 10
1218.5
 20
1202.2
 30
0.0
  0
VERTEX
  8
0
 10
1198.3
 20
1226.0
 30
0.0
  0
VERTEX
  8
0
 10
1096.6
 20
1211.8
 30
0.0
  0
VERTEX
  8
0
 10
1000.0
 20
1217.4
 30
0.0
  0
VERTEX
  8
0
 10
1000.0
 20
1008.6
 30
0.0
  0
SEQEND
  0
POLYLINE
  8
0
 66
1
 10
0.0
 20
0.0
 30
0.0
 70
8
  0
VERTEX
  8
0
 10
2000.0
 20
1008.6
 30
0.0
  0
VERTEX
  8
0
 10
2096.6
 20
1014.2
 30
0.0
  0
VERTEX
  8
0
 10
2198.3
 20
1000.0
 30
0.0
  0
VERTEX
  8
0
 10
2218.5
 20
1023.8
 30
0.0
  0
VERTEX
  8
0
 10
2273.4
 20
1021.7
 30
0.0
  0
VERTEX
  8
0
 10
2300.0
 20
1076.7
 30
0.0
  0
VERTEX
  8
0
 10
2281.9
 20
1090.0
 30
0.0
  0
VERTEX
  8
0
 10
2281.9
 20
1136.0
 30
0.0
  0
VERTEX
  8
0
 10
2300.0
 20
1149.3
 30
0.0
  0
VERTEX
  8
0
 10
2273.4
 20
1204.3
 30
0.0
  0
VERTEX
  8
0
 10
2218.5
 20
1202.2
 30
0.0
  0
VERTEX
  8
0
 10
2198.3
 20
1226.0
 30
0.0
  0
VERTEX
  8
0
 10
2096.6
 20
1211.8
 30
0.0
  0
VERTEX
  8
0
 10
2000.0
 20
1217.4
 30
0.0
  0
VERTEX
  8
0
 10
2000.0
 20
1008.6
 30
0.0
  0
SEQEND
  0
POLYLINE
  8
0
 66
1
 10
0.0
 20
0.0
 30
0.0
 70
8
  0
VERTEX
  8
0
 10
3000.0
 20
1000.0
 30
0.0
  0
VERTEX
  8
0
 10
3303.4
 20
1000.0
 30
0.0
  0
VERTEX
  8
0
 10
3303.4
 20
1026.1
 30
0.0
  0
VERTEX
  8
0
 10
3000.0
 20
1026.1
 30
0.0
  0
VERTEX
  8
0
 10
3000.0
 20
1000.0
 30
0.0
  0
SEQEND
  0
POLYLINE
  8
0
 66
1
 10
0.0
 20
0.0
 30
0.0
 70
8
  0
VERTEX
  8
0
 10
4000.0
 20
1000.0
 30
0.0
  0
VERTEX
  8
0
 10
4303.4
 20
1000.0
 30
0.0
  0
VERTEX
  8
0
 10
4303.4
 20
1026.1
 30
0.0
  0
VERTEX
  8
0
 10
4000.0
 20
1026.1
 30
0.0
  0
VERTEX
  8
0
 10
4000.0
 20
1000.0
 30
0.0
  0
SEQEND
  0
POLYLINE
  8
0
 66
1
 10
0.0
 20
0.0
 30
0.0
 70
8
  0
VERTEX
  8
0
 10
5000.0
 20
1017.3
 30
0.0
  0
VERTEX
  8
0
 10
5176.1
 20
1000.0
 30
0.0
  0
VERTEX
  8
0
 10
5218.3
 20
1065.0
 30
0.0
  0
VERTEX
  8
0
 10
5218.3
 20
1101.0
 30
0.0
  0
VERTEX
  8
0
 10
5176.1
 20
1166.0
 30
0.0
  0
VERTEX
  8
0
 10
5000.0
 20
1148.7
 30
0.0
  0
VERTEX
  8
0
 10
5000.0
 20
1017.3
 30
0.0
  0
SEQEND
  0
POLYLINE
  8
0
 66
1
 10
0.0
 20
0.0
 30
0.0
 70
8
  0
VERTEX
  8
0
 10
6000.0
 20
1017.3
 30
0.0
  0
VERTEX
  8
0
 10
6176.1
 20
1000.0
 30
0.0
  0
VERTEX
  8
0
 10
6218.3
 20
1065.0
 30
0.0
  0
VERTEX
  8
0
 10
6218.3
 20
1101.0
 30
0.0
  0
VERTEX
  8
0
 10
6176.1
 20
1166.0
 30
0.0
  0
VERTEX
  8
0
 10
6000.0
 20
1148.7
 30
0.0
  0
VERTEX
  8
0
 10
6000.0
 20
1017.3
 30
0.0
  0
SEQEND
  0
POLYLINE
  8
0
 66
1
 10
0.0
 20
0.0
 30
0.0
 70
8
  0
VERTEX
  8
0
 10
7000.0
 20
1017.3
 30
0.0
  0
VERTEX
  8
0
 10
7176.1
 20
1000.0
 30
0.0
  0
VERTEX
  8
0
 10
7218.3
 20
1065.0
 30
0.0
  0
VERTEX
  8
0
 10
7218.3
 20
1101.0
 30
0.0
  0
VERTEX
  8
0
 10
7176.1
 20
1166.0
 30
0.0
  0
VERTEX
  8
0
 10
7000.0
 20
1148.7
 30
0.0
  0
VERTEX
  8
0
 10
7000.0
 20
1017.3
 30
0.0
  0
SEQEND
  0
POLYLINE
  8
0
 66
1
 10
0.0
 20
0.0
 30
0.0
 70
8
  0
VERTEX
  8
0
 10
8000.0
 20
1017.3
 30
0.0
  0
VERTEX
  8
0
 10
8176.1
 20
1000.0
 30
0.0
  0
VERTEX
  8
0
 10
8218.3
 20
1065.0
 30
0.0
  0
VERTEX
  8
0
 10
8218.3
 20
1101.0
 30
0.0
  0
VERTEX
  8
0
 10
8176.1
 20
1166.0
 30
0.0
  0
VERTEX
  8
0
 10
8000.0
 20
1148.7
 30
0.0
  0
VERTEX
  8
0
 10
8000.0
 20
1017.3
 30
0.0
  0
SEQEND
  0
POLYLINE
  8
0
 66
1
 10
0.0
 20
0.0
 30
0.0
 70
8
  0
VERTEX
  8
0
 10
9007.4
 20
1000.0
 30
0.0
  0
VERTEX
  8
0
 10
9087.0
 20
1011.9
 30
0.0
  0
VERTEX
  8
0
 10
9166.6
 20
1000.0
 30
0.0
  0
VERTEX
  8
0
 10
9174.0
 20
1012.5
 30
0.0
  0
VERTEX
  8
0
 10
9087.0
 20
1030.5
 30
0.0
  0
VERTEX
  8
0
 10
9000.0
 20
1012.5
 30
0.0
  0
VERTEX
  8
0
 10
9007.4
 20
1000.0
 30
0.0
  0
SEQEND
  0
POLYLINE
  8
0
 66
1
 10
0.0
 20
0.0
 30
0.0
 70
8
  0
VERTEX
  8
0
 10
10007.4
 20
1000.0
 30
0.0
  0
VERTEX
  8
0
 10
10087.0
 20
1011.9
 30
0.0
  0
VERTEX
  8
0
 10
10166.6
 20
1000.0
 30
0.0
  0
VERTEX
  8
0
 10
10174.0
 20
1012.5
 30
0.0
  0
VERTEX
  8
0
 10
10087.0
 20
1030.5
 30
0.0
  0
VERTEX
  8
0
 10
10000.0
 20
1012.5
 30
0.0
  0
VERTEX
  8
0
 10
10007.4
 20
1000.0
 30
0.0
  0
SEQEND
  0
POLYLINE
  8
0
 66
1
 10
0.0
 20
0.0
 30
0.0
 70
8
  0
VERTEX
  8
0
 10
11007.4
 20
1000.0
 30
0.0
  0
VERTEX
  8
0
 10
11087.0
 20
1011.9
 30
0.0
  0
VERTEX
  8
0
 10
11166.6
 20
1000.0
 30
0.0
  0
VERTEX
  8
0
 10
11174.0
 20
1012.5
 30
0.0
  0
VERTEX
  8
0
 10
11087.0
 20
1030.5
 30
0.0
  0
VERTEX
  8
0
 10
11000.0
 20
1012.5
 30
0.0
  0
VERTEX
  8
0
 10
11007.4
 20
1000.0
 30
0.0
  0
SEQEND
  0
POLYLINE
  8
0
 66
1
 10
0.0
 20
0.0
 30
0.0
 70
8
  0
VERTEX
  8
0
 10
12007.4
 20
1000.0
 30
0.0
  0
VERTEX
  8
0
 10
12087.0
 20
1011.9
 30
0.0
  0
VERTEX
  8
0
 10
12166.6
 20
1000.0
 30
0.0
  0
VERTEX
  8
0
 10
12174.0
 20
1012.5
 30
0.0
  0
VERTEX
  8
0
 10
12087.0
 20
1030.5
 30
0.0
  0
VERTEX
  8
0
 10
12000.0
 20
1012.5
 30
0.0
  0
VERTEX
  8
0
 10
12007.4
 20
1000.0
 30
0.0
  0
SEQEND
  0
POLYLINE
  8
0
 66
1
 10
0.0
 20
0.0
 30
0.0
 70
8
  0
VERTEX
  8
0
 10
13000.0
 20
1000.0
 30
0.0
  0
VERTEX
  8
0
 10
13041.1
 20
1006.5
 30
0.0
  0
VERTEX
  8
0
 10
13080.0
 20
1000.0
 30
0.0
  0
VERTEX
  8
0
 10
13118.9
 20
1006.5
 30
0.0
  0
VERTEX
  8
0
 10
13160.0
 20
1000.0
 30
0.0
  0
VERTEX
  8
0
 10
13150.0
 20
1036.8
 30
0.0
  0
VERTEX
  8
0
 10
13080.0
 20
1028.6
 30
0.0
  0
VERTEX
  8
0
 10
13010.0
 20
1036.8
 30
0.0
  0
VERTEX
  8
0
 10
13000.0
 20
1000.0
 30
0.0
  0
SEQEND
  0
POLYLINE
  8
0
 66
1
 10
0.0
 20
0.0
 30
0.0
 70
8
  0
VERTEX
  8
0
 10
14000.0
 20
1000.0
 30
0.0
  0
VERTEX
  8
0
 10
14041.1
 20
1006.5
 30
0.0
  0
VERTEX
  8
0
 10
14080.0
 20
1000.0
 30
0.0
  0
VERTEX
  8
0
 10
14118.9
 20
1006.5
 30
0.0
  0
VERTEX
  8
0
 10
14160.0
 20
1000.0
 30
0.0
  0
VERTEX
  8
0
 10
14150.0
 20
1036.8
 30
0.0
  0
VERTEX
  8
0
 10
14080.0
 20
1028.6
 30
0.0
  0
VERTEX
  8
0
 10
14010.0
 20
1036.8
 30
0.0
  0
VERTEX
  8
0
 10
14000.0
 20
1000.0
 30
0.0
  0
SEQEND
  0
POLYLINE
  8
0
 66
1
 10
0.0
 20
0.0
 30
0.0
 70
8
  0
VERTEX
  8
0
 10
15000.0
 20
1000.0
 30
0.0
  0
VERTEX
  8
0
 10
15041.1
 20
1006.5
 30
0.0
  0
VERTEX
  8
0
 10
15080.0
 20
1000.0
 30
0.0
  0
VERTEX
  8
0
 10
15118.9
 20
1006.5
 30
0.0
  0
VERTEX
  8
0
 10
15160.0
 20
1000.0
 30
0.0
  0
VERTEX
  8
0
 10
15150.0
 20
1036.8
 30
0.0
  0
VERTEX
  8
0
 10
15080.0
 20
1028.6
 30
0.0
  0
VERTEX
  8
0
 10
15010.0
 20
1036.8
 30
0.0
  0
VERTEX
  8
0
 10
15000.0
 20
1000.0
 30
0.0
  0
SEQEND
  0
POLYLINE
  8
0
 66
1
 10
0.0
 20
0.0
 30
0.0
 70
8
  0
VERTEX
  8
0
 10
16000.0
 20
1000.0
 30
0.0
  0
VERTEX
  8
0
 10
16041.1
 20
1006.5
 30
0.0
  0
VERTEX
  8
0
 10
16080.0
 20
1000.0
 30
0.0
  0
VERTEX
  8
0
 10
16118.9
 20
1006.5
 30
0.0
  0
VERTEX
  8
0
 10
16160.0
 20
1000.0
 30
0.0
  0
VERTEX
  8
0
 10
16150.0
 20
1036.8
 30
0.0
  0
VERTEX
  8
0
 10
16080.0
 20
1028.6
 30
0.0
  0
VERTEX
  8
0
 10
16010.0
 20
1036.8
 30
0.0
  0
VERTEX
  8
0
 10
16000.0
 20
1000.0
 30
0.0
  0
SEQEND
  0
POLYLINE
  8
0
 66
1
 10
0.0
 20
0.0
 30
0.0
 70
8
  0
VERTEX
  8
0
 10
17000.0
 20
1000.0
 30
0.0
  0
VERTEX
  8
0
 10
17093.6
 20
1000.0
 30
0.0
  0
VERTEX
  8
0
 10
17093.6
 20
1065.9
 30
0.0
  0
VERTEX
  8
0
 10
17000.0
 20
1065.9
 30
0.0
  0
VERTEX
  8
0
 10
17000.0
 20
1000.0
 30
0.0
  0
SEQEND
  0
POLYLINE
  8
0
 66
1
 10
0.0
 20
0.0
 30
0.0
 70
8
  0
VERTEX
  8
0
 10
18000.0
 20
1000.0
 30
0.0
  0
VERTEX
  8
0
 10
18093.6
 20
1000.0
 30
0.0
  0
VERTEX
  8
0
 10
18093.6
 20
1065.9
 30
0.0
  0
VERTEX
  8
0
 10
18000.0
 20
1065.9
 30
0.0
  0
VERTEX
  8
0
 10
18000.0
 20
1000.0
 30
0.0
  0
SEQEND
  0
POLYLINE
  8
0
 66
1
 10
0.0
 20
0.0
 30
0.0
 70
8
  0
VERTEX
  8
0
 10
19000.0
 20
1000.0
 30
0.0
  0
VERTEX
  8
0
 10
19093.6
 20
1000.0
 30
0.0
  0
VERTEX
  8
0
 10
19093.6
 20
1065.9
 30
0.0
  0
VERTEX
  8
0
 10
19000.0
 20
1065.9
 30
0.0
  0
VERTEX
  8
0
 10
19000.0
 20
1000.0
 30
0.0
  0
SEQEND
  0
POLYLINE
  8
0
 66
1
 10
0.0
 20
0.0
 30
0.0
 70
8
  0
VERTEX
  8
0
 10
20000.0
 20
1000.0
 30
0.0
  0
VERTEX
  8
0
 10
20093.6
 20
1000.0
 30
0.0
  0
VERTEX
  8
0
 10
20093.6
 20
1065.9
 30
0.0
  0
VERTEX
  8
0
 10
20000.0
 20
1065.9
 30
0.0
  0
VERTEX
  8
0
 10
20000.0
 20
1000.0
 30
0.0
  0
SEQEND
  0
POLYLINE
  8
0
 66
1
 10
0.0
 20
0.0
 30
0.0
 70
8
  0
VERTEX
  8
0
 10
21005.6
 20
1007.3
 30
0.0
  0
VERTEX
  8
0
 10
21106.6
 20
1014.3
 30
0.0
  0
VERTEX
  8
0
 10
21189.1
 20
1000.0
 30
0.0
  0
VERTEX
  8
0
 10
21218.6
 20
1028.8
 30
0.0
  0
VERTEX
  8
0
 10
21257.3
 20
1024.1
 30
0.0
  0
VERTEX
  8
0
 10
21267.6
 20
1092.6
 30
0.0
  0
VERTEX
  8
0
 10
21259.4
 20
1136.6
 30
0.0
  0
VERTEX
  8
0
 10
21000.0
 20
1136.6
 30
0.0
  0
VERTEX
  8
0
 10
21005.6
 20
1007.3
 30
0.0
  0
SEQEND
  0
POLYLINE
  8
0
 66
1
 10
0.0
 20
0.0
 30
0.0
 70
8
  0
VERTEX
  8
0
 10
22005.6
 20
1007.3
 30
0.0
  0
VERTEX
  8
0
 10
22106.6
 20
1014.3
 30
0.0
  0
VERTEX
  8
0
 10
22189.1
 20
1000.0
 30
0.0
  0
VERTEX
  8
0
 10
22218.6
 20
1028.8
 30
0.0
  0
VERTEX
  8
0
 10
22257.3
 20
1024.1
 30
0.0
  0
VERTEX
  8
0
 10
22267.6
 20
1092.6
 30
0.0
  0
VERTEX
  8
0
 10
22259.4
 20
1136.6
 30
0.0
  0
VERTEX
  8
0
 10
22000.0
 20
1136.6
 30
0.0
  0
VERTEX
  8
0
 10
22005.6
 20
1007.3
 30
0.0
  0
SEQEND
  0
POLYLINE
  8
0
 66
1
 10
0.0
 20
0.0
 30
0.0
 70
8
  0
VERTEX
  8
0
 10
23000.0
 20
1000.0
 30
0.0
  0
VERTEX
  8
0
 10
23249.9
 20
1000.0
 30
0.0
  0
VERTEX
  8
0
 10
23270.5
 20
1038.7
 30
0.0
  0
VERTEX
  8
0
 10
23262.2
 20
1093.4
 30
0.0
  0
VERTEX
  8
0
 10
23214.8
 20
1096.7
 30
0.0
  0
VERTEX
  8
0
 10
23192.0
 20
1115.2
 30
0.0
  0
VERTEX
  8
0
 10
23106.1
 20
1105.9
 30
0.0
  0
VERTEX
  8
0
 10
23000.0
 20
1112.5
 30
0.0
  0
VERTEX
  8
0
 10
23000.0
 20
1000.0
 30
0.0
  0
SEQEND
  0
POLYLINE
  8
0
 66
1
 10
0.0
 20
0.0
 30
0.0
 70
8
  0
VERTEX
  8
0
 10
24000.0
 20
1000.0
 30
0.0
  0
VERTEX
  8
0
 10
24249.9
 20
1000.0
 30
0.0
  0
VERTEX
  8
0
 10
24270.5
 20
1038.7
 30
0.0
  0
VERTEX
  8
0
 10
24262.2
 20
1093.4
 30
0.0
  0
VERTEX
  8
0
 10
24214.8
 20
1096.7
 30
0.0
  0
VERTEX
  8
0
 10
24192.0
 20
1115.2
 30
0.0
  0
VERTEX
  8
0
 10
24106.1
 20
1105.9
 30
0.0
  0
VERTEX
  8
0
 10
24000.0
 20
1112.5
 30
0.0
  0
VERTEX
  8
0
 10
24000.0
 20
1000.0
 30
0.0
  0
SEQEND
  0
ENDSEC
  0
EOF
