  0
SECTION
  2
HEADER
  9
$ACADVER
  1
AC1009
  9
$INSBASE
 10
0.0
 20
0.0
 30
0.0
  9
$EXTMIN
 10
0.0
 20
0.0
 30
0.0
  9
$EXTMAX
 10
100.0
 20
100.0
 30
0.0
  9
$UNITMODE
 70
0
  9
$AUNITS
 70
0
  9
$ANGBASE
 50
0.0
  9
$ANGDIR
 70
0
  0
ENDSEC
  0
SECTION
  2
TABLES
  0
TABLE
  2
LTYPE
 70
19
  0
LTYPE
  2
CONTINUOUS
 70
0
  3
Solid
 72
65
 73
0
 40
0.0
  0
LTYPE
  2
CENTER
 70
0
  3
Center ____ _ ____ _ ____ _ ____ _ ____ _ ____
 72
65
 73
4
 40
2.0
 49
1.25
 49
-0.25
 49
0.25
 49
-0.25
  0
LTYPE
  2
CENTERX2
 70
0
  3
Center (2x) ________  __  ________  __  ________
 72
65
 73
4
 40
3.5
 49
2.5
 49
-0.25
 49
0.5
 49
-0.25
  0
LTYPE
  2
CENTER2
 70
0
  3
Center (.5x) ____ _ ____ _ ____ _ ____ _ ____
 72
65
 73
4
 40
1.0
 49
0.625
 49
-0.125
 49
0.125
 49
-0.125
  0
LTYPE
  2
DASHED
 70
0
  3
Dashed __ __ __ __ __ __ __ __ __ __ __ __ __ _
 72
65
 73
2
 40
0.6
 49
0.5
 49
-0.1
  0
LTYPE
  2
DASHEDX2
 70
0
  3
Dashed (2x) ____  ____  ____  ____  ____  ____
 72
65
 73
2
 40
1.2
 49
1.0
 49
-0.2
  0
LTYPE
  2
DASHED2
 70
0
  3
Dashed (.5x) _ _ _ _ _ _ _ _ _ _ _ _ _ _
 72
65
 73
2
 40
0.3
 49
0.25
 49
-0.05
  0
LTYPE
  2
PHANTOM
 70
0
  3
Phantom ______  __  __  ______  __  __  ______
 72
65
 73
6
 40
2.5
 49
1.25
 49
-0.25
 49
0.25
 49
-0.25
 49
0.25
 49
-0.25
  0
LTYPE
  2
PHANTOMX2
 70
0
  3
Phantom (2x)____________    ____    ____    ____________
 72
65
 73
6
 40
4.25
 49
2.5
 49
-0.25
 49
0.5
 49
-0.25
 49
0.5
 49
-0.25
  0
LTYPE
  2
PHANTOM2
 70
0
  3
Phantom (.5x) ___ _ _ ___ _ _ ___ _ _ ___ _ _ ___
 72
65
 73
6
 40
1.25
 49
0.625
 49
-0.125
 49
0.125
 49
-0.125
 49
0.125
 49
-0.125
  0
LTYPE
  2
DASHDOT
 70
0
  3
Dash dot __ . __ . __ . __ . __ . __ . __ . __
 72
65
 73
4
 40
1.4
 49
1.0
 49
-0.2
 49
0.0
 49
-0.2
  0
LTYPE
  2
DASHDOTX2
 70
0
  3
Dash dot (2x) ____  .  ____  .  ____  .  ____
 72
65
 73
4
 40
2.4
 49
2.0
 49
-0.2
 49
0.0
 49
-0.2
  0
LTYPE
  2
DASHDOT2
 70
0
  3
Dash dot (.5x) _ . _ . _ . _ . _ . _ . _ . _
 72
65
 73
4
 40
0.7
 49
0.5
 49
-0.1
 49
0.0
 49
-0.1
  0
LTYPE
  2
DOT
 70
0
  3
Dot .  .  .  .  .  .  .  .  .  .  .  .  .  .  .  .
 72
65
 73
2
 40
0.2
 49
0.0
 49
-0.2
  0
LTYPE
  2
DOTX2
 70
0
  3
Dot (2x) .    .    .    .    .    .    .    . 
 72
65
 73
2
 40
0.4
 49
0.0
 49
-0.4
  0
LTYPE
  2
DOT2
 70
0
  3
Dot (.5) . . . . . . . . . . . . . . . . . . . 
 72
65
 73
2
 40
0.1
 49
0.0
 49
-0.1
  0
LTYPE
  2
DIVIDE
 70
0
  3
Divide __ . . __ . . __ . . __ . . __ . . __
 72
65
 73
6
 40
1.6
 49
1.0
 49
-0.2
 49
0.0
 49
-0.2
 49
0.0
 49
-0.2
  0
LTYPE
  2
DIVIDEX2
 70
0
  3
Divide (2x) ____  . .  ____  . .  ____  . .  ____
 72
65
 73
6
 40
2.6
 49
2.0
 49
-0.2
 49
0.0
 49
-0.2
 49
0.0
 49
-0.2
  0
LTYPE
  2
DIVIDE2
 70
0
  3
Divide(.5x) _ . _ . _ . _ . _ . _ . _ . _
 72
65
 73
6
 40
0.8
 49
0.5
 49
-0.1
 49
0.0
 49
-0.1
 49
0.0
 49
-0.1
  0
ENDTAB
  0
TABLE
  2
LAYER
 70
5
  0
LAYER
  2
DIMENSIONS
 70
0
 62
1
  6
CONTINUOUS
  0
LAYER
  2
TABLEBACKGROUND
 70
0
 62
1
  6
CONTINUOUS
  0
LAYER
  2
TABLECONTENT
 70
0
 62
1
  6
CONTINUOUS
  0
LAYER
  2
TABLEGRID
 70
0
 62
1
  6
CONTINUOUS
  0
LAYER
  2
VIEWPORTS
 70
0
 62
7
  6
CONTINUOUS
  0
ENDTAB
  0
TABLE
  2
STYLE
 70
12
  0
STYLE
  2
STANDARD
 70
0
 40
0.0
 41
1.0
 42
1.0
 50
0.0
 71
0
  3
arial.ttf
  4

  0
STYLE
  2
ARIAL
 70
0
 40
0.0
 41
1.0
 42
1.0
 50
0.0
 71
0
  3
arial.ttf
  4

  0
STYLE
  2
ARIAL_BOLD
 70
0
 40
0.0
 41
1.0
 42
1.0
 50
0.0
 71
0
  3
arialbd.ttf
  4

  0
STYLE
  2
ARIAL_ITALIC
 70
0
 40
0.0
 41
1.0
 42
1.0
 50
0.0
 71
0
  3
ariali.ttf
  4

  0
STYLE
  2
ARIAL_BOLD_ITALIC
 70
0
 40
0.0
 41
1.0
 42
1.0
 50
0.0
 71
0
  3
arialbi.ttf
  4

  0
STYLE
  2
ARIAL_BLACK
 70
0
 40
0.0
 41
1.0
 42
1.0
 50
0.0
 71
0
  3
ariblk.ttf
  4

  0
STYLE
  2
ISOCPEUR
 70
0
 40
0.0
 41
1.0
 42
1.0
 50
0.0
 71
0
  3
isocpeur.ttf
  4

  0
STYLE
  2
ISOCPEUR_ITALIC
 70
0
 40
0.0
 41
1.0
 42
1.0
 50
0.0
 71
0
  3
isocpeui.ttf
  4

  0
STYLE
  2
TIMES
 70
0
 40
0.0
 41
1.0
 42
1.0
 50
0.0
 71
0
  3
times.ttf
  4

  0
STYLE
  2
TIMES_BOLD
 70
0
 40
0.0
 41
1.0
 42
1.0
 50
0.0
 71
0
  3
timesbd.ttf
  4

  0
STYLE
  2
TIMES_ITALIC
 70
0
 40
0.0
 41
1.0
 42
1.0
 50
0.0
 71
0
  3
timesi.ttf
  4

  0
STYLE
  2
TIMES_BOLD_ITALIC
 70
0
 40
0.0
 41
1.0
 42
1.0
 50
0.0
 71
0
  3
timesbi.ttf
  4

  0
ENDTAB
  0
TABLE
  2
VIEW
 70
0
  0
ENDTAB
  0
TABLE
  2
APPID
 70
1
  0
APPID
  2
DXFWRITE
 70
0
  0
ENDTAB
  0
TABLE
  2
VPORT
 70
0
  0
ENDTAB
  0
TABLE
  2
UCS
 70
0
  0
ENDTAB
  0
ENDSEC
  0
SECTION
  2
BLOCKS
  0
ENDSEC
  0
SECTION
  2
ENTITIES
  0
VIEWPORT
  8
VIEWPORTS
 67
1
 10
0.0
 20
0.0
 30
0.0
 40
1.0
 41
1.0
 68
1
 69
1
1001
ACAD
1000
MVIEW
1002
{
1070
16
1010
0.0
1020
0.0
1030
0.0
1010
0.0
1020
0.0
1030
0.0
1040
0.0
1040
1.0
1040
0.0
1040
0.0
1040
50.0
1040
0.0
1040
0.0
1070
0
1070
100
1070
1
1070
3
1070
0
1070
0
1070
0
1070
0
1040
0.0
1040
0.0
1040
0.0
1040
0.1
1040
0.1
1040
0.1
1040
0.1
1070
0
1002
{
1002
}
1002
}
  0
POLYLINE
  8
0
 66
1
 10
0.0
 20
0.0
 30
0.0
 70
8
  0
VERTEX
  8
0
 10
1000.0
 20
1000.0
 30
0.0
  0
VERTEX
  8
0
 10
1069.95938
 20
950.2595
 30
0.0
  0
VERTEX
  8
0
 10
997.79017
 20
952.75622
 30
0.0
  0
VERTEX
  8
0
 10
1000.0
 20
1000.0
 30
0.0
  0
VERTEX
  8
0
 10
1000.0
 20
1000.0
 30
0.0
  0
SEQEND
  0
POLYLINE
  8
0
 66
1
 10
0.0
 20
0.0
 30
0.0
 70
8
  0
VERTEX
  8
0
 10
2000.0
 20
1000.0
 30
0.0
  0
VERTEX
  8
0
 10
1907.33235
 20
1034.86912
 30
0.0
  0
VERTEX
  8
0
 10
1909.54218
 20
1082.1129
 30
0.0
  0
VERTEX
  8
0
 10
2006.13576
 20
1078.7712099999999
 30
0.0
  0
VERTEX
  8
0
 10
2000.0
 20
1000.0
 30
0.0
  0
VERTEX
  8
0
 10
2000.0
 20
1000.0
 30
0.0
  0
SEQEND
  0
POLYLINE
  8
0
 66
1
 10
0.0
 20
0.0
 30
0.0
 70
8
  0
VERTEX
  8
0
 10
3000.0
 20
1000.0
 30
0.0
  0
VERTEX
  8
0
 10
3150.30729
 20
983.62478
 30
0.0
  0
VERTEX
  8
0
 10
3144.17152
 20
904.85357
 30
0.0
  0
VERTEX
  8
0
 10
3003.84353
 20
909.70828
 30
0.0
  0
VERTEX
  8
0
 10
3000.0
 20
1000.0
 30
0.0
  0
VERTEX
  8
0
 10
3000.0
 20
1000.0
 30
0.0
  0
SEQEND
  0
POLYLINE
  8
0
 66
1
 10
0.0
 20
0.0
 30
0.0
 70
8
  0
VERTEX
  8
0
 10
4000.0
 20
1000.0
 30
0.0
  0
VERTEX
  8
0
 10
4046.93573
 20
1004.23536
 30
0.0
  0
VERTEX
  8
0
 10
4050.77926
 20
913.94364
 30
0.0
  0
VERTEX
  8
0
 10
3999.07914
 20
915.73222
 30
0.0
  0
VERTEX
  8
0
 10
4000.0
 20
1000.0
 30
0.0
  0
VERTEX
  8
0
 10
4000.0
 20
1000.0
 30
0.0
  0
SEQEND
  0
POLYLINE
  8
0
 66
1
 10
0.0
 20
0.0
 30
0.0
 70
8
  0
VERTEX
  8
0
 10
5000.0
 20
1000.0
 30
0.0
  0
VERTEX
  8
0
 10
5100.32208
 20
1024.69486
 30
0.0
  0
VERTEX
  8
0
 10
5099.40122
 20
940.42708
 30
0.0
  0
VERTEX
  8
0
 10
4996.42198
 20
943.98969
 30
0.0
  0
VERTEX
  8
0
 10
5000.0
 20
1000.0
 30
0.0
  0
VERTEX
  8
0
 10
5000.0
 20
1000.0
 30
0.0
  0
SEQEND
  0
POLYLINE
  8
0
 66
1
 10
0.0
 20
0.0
 30
0.0
 70
8
  0
VERTEX
  8
0
 10
6000.0
 20
1000.0
 30
0.0
  0
VERTEX
  8
0
 10
5894.015
 20
947.53251
 30
0.0
  0
VERTEX
  8
0
 10
5897.59303
 20
1003.54281
 30
0.0
  0
VERTEX
  8
0
 10
6000.0
 20
1000.0
 30
0.0
  0
VERTEX
  8
0
 10
6000.0
 20
1000.0
 30
0.0
  0
SEQEND
  0
POLYLINE
  8
0
 66
1
 10
0.0
 20
0.0
 30
0.0
 70
8
  0
VERTEX
  8
0
 10
7000.0
 20
1000.0
 30
0.0
  0
VERTEX
  8
0
 10
7075.74823
 20
934.77562
 30
0.0
  0
VERTEX
  8
0
 10
7003.23447
 20
928.5213
 30
0.0
  0
VERTEX
  8
0
 10
7000.0
 20
1000.0
 30
0.0
  0
VERTEX
  8
0
 10
7000.0
 20
1000.0
 30
0.0
  0
SEQEND
  0
POLYLINE
  8
0
 66
1
 10
0.0
 20
0.0
 30
0.0
 70
8
  0
VERTEX
  8
0
 10
8000.0
 20
1000.0
 30
0.0
  0
VERTEX
  8
0
 10
7927.83079
 20
1002.49672
 30
0.0
  0
VERTEX
  8
0
 10
7924.59632
 20
1073.97542
 30
0.0
  0
VERTEX
  8
0
 10
8003.77966
 20
1080.80498
 30
0.0
  0
VERTEX
  8
0
 10
8000.0
 20
1000.0
 30
0.0
  0
VERTEX
  8
0
 10
8000.0
 20
1000.0
 30
0.0
  0
SEQEND
  0
POLYLINE
  8
0
 66
1
 10
0.0
 20
0.0
 30
0.0
 70
8
  0
VERTEX
  8
0
 10
9000.0
 20
1000.0
 30
0.0
  0
VERTEX
  8
0
 10
9096.59359
 20
996.6583
 30
0.0
  0
VERTEX
  8
0
 10
9092.81394
 20
915.8533199999999
 30
0.0
  0
VERTEX
  8
0
 10
8992.77342
 20
907.22482
 30
0.0
  0
VERTEX
  8
0
 10
9000.0
 20
1000.0
 30
0.0
  0
VERTEX
  8
0
 10
9000.0
 20
1000.0
 30
0.0
  0
SEQEND
  0
POLYLINE
  8
0
 66
1
 10
0.0
 20
0.0
 30
0.0
 70
8
  0
VERTEX
  8
0
 10
10000.0
 20
1000.0
 30
0.0
  0
VERTEX
  8
0
 10
10140.32799
 20
995.1453
 30
0.0
  0
VERTEX
  8
0
 10
10133.10141
 20
902.37012
 30
0.0
  0
VERTEX
  8
0
 10
10004.62759
 20
891.28925
 30
0.0
  0
VERTEX
  8
0
 10
10000.0
 20
1000.0
 30
0.0
  0
VERTEX
  8
0
 10
10000.0
 20
1000.0
 30
0.0
  0
SEQEND
  0
POLYLINE
  8
0
 66
1
 10
0.0
 20
0.0
 30
0.0
 70
8
  0
VERTEX
  8
0
 10
11000.0
 20
1000.0
 30
0.0
  0
VERTEX
  8
0
 10
10948.29989
 20
1001.78859
 30
0.0
  0
VERTEX
  8
0
 10
10943.6723
 20
1110.49933
 30
0.0
  0
VERTEX
  8
0
 10
11001.26179
 20
1115.46643
 30
0.0
  0
VERTEX
  8
0
 10
11000.0
 20
1000.0
 30
0.0
  0
VERTEX
  8
0
 10
11000.0
 20
1000.0
 30
0.0
  0
SEQEND
  0
POLYLINE
  8
0
 66
1
 10
0.0
 20
0.0
 30
0.0
 70
8
  0
VERTEX
  8
0
 10
12000.0
 20
1000.0
 30
0.0
  0
VERTEX
  8
0
 10
11897.02075
 20
1003.5626
 30
0.0
  0
VERTEX
  8
0
 10
11898.28254
 20
1119.02904
 30
0.0
  0
VERTEX
  8
0
 10
12008.20943
 20
1128.51024
 30
0.0
  0
VERTEX
  8
0
 10
12000.0
 20
1000.0
 30
0.0
  0
VERTEX
  8
0
 10
12000.0
 20
1000.0
 30
0.0
  0
SEQEND
  0
POLYLINE
  8
0
 66
1
 10
0.0
 20
0.0
 30
0.0
 70
8
  0
VERTEX
  8
0
 10
13000.0
 20
1000.0
 30
0.0
  0
VERTEX
  8
0
 10
13126.7932
 20
1014.11358
 30
0.0
  0
VERTEX
  8
0
 10
13118.58378
 20
885.60334
 30
0.0
  0
VERTEX
  8
0
 10
13000.23392
 20
875.39566
 30
0.0
  0
VERTEX
  8
0
 10
13000.0
 20
1000.0
 30
0.0
  0
VERTEX
  8
0
 10
13000.0
 20
1000.0
 30
0.0
  0
SEQEND
  0
POLYLINE
  8
0
 66
1
 10
0.0
 20
0.0
 30
0.0
 70
8
  0
VERTEX
  8
0
 10
14000.0
 20
1000.0
 30
0.0
  0
VERTEX
  8
0
 10
13941.60103
 20
949.25496
 30
0.0
  0
VERTEX
  8
0
 10
13941.36711
 20
1073.85929
 30
0.0
  0
VERTEX
  8
0
 10
14003.76699
 20
1079.24129
 30
0.0
  0
VERTEX
  8
0
 10
14000.0
 20
1000.0
 30
0.0
  0
VERTEX
  8
0
 10
14000.0
 20
1000.0
 30
0.0
  0
SEQEND
  0
POLYLINE
  8
0
 66
1
 10
0.0
 20
0.0
 30
0.0
 70
8
  0
VERTEX
  8
0
 10
15000.0
 20
1000.0
 30
0.0
  0
VERTEX
  8
0
 10
15066.13347
 20
1084.6204
 30
0.0
  0
VERTEX
  8
0
 10
15062.36649
 20
1005.37911
 30
0.0
  0
VERTEX
  8
0
 10
15000.0
 20
1000.0
 30
0.0
  0
VERTEX
  8
0
 10
15000.0
 20
1000.0
 30
0.0
  0
SEQEND
  0
POLYLINE
  8
0
 66
1
 10
0.0
 20
0.0
 30
0.0
 70
8
  0
VERTEX
  8
0
 10
16000.0
 20
1000.0
 30
0.0
  0
VERTEX
  8
0
 10
15923.44805
 20
1102.85287
 30
0.0
  0
VERTEX
  8
0
 10
15990.77856
 20
1107.53748
 30
0.0
  0
VERTEX
  8
0
 10
16000.0
 20
1000.0
 30
0.0
  0
VERTEX
  8
0
 10
16000.0
 20
1000.0
 30
0.0
  0
SEQEND
  0
POLYLINE
  8
0
 66
1
 10
0.0
 20
0.0
 30
0.0
 70
8
  0
VERTEX
  8
0
 10
17000.0
 20
1000.0
 30
0.0
  0
VERTEX
  8
0
 10
16927.48623
 20
993.74568
 30
0.0
  0
VERTEX
  8
0
 10
16918.2648
 20
1101.28317
 30
0.0
  0
VERTEX
  8
0
 10
16995.17472
 20
1106.63427
 30
0.0
  0
VERTEX
  8
0
 10
17000.0
 20
1000.0
 30
0.0
  0
VERTEX
  8
0
 10
17000.0
 20
1000.0
 30
0.0
  0
SEQEND
  0
POLYLINE
  8
0
 66
1
 10
0.0
 20
0.0
 30
0.0
 70
8
  0
VERTEX
  8
0
 10
18000.0
 20
1000.0
 30
0.0
  0
VERTEX
  8
0
 10
17920.81667
 20
993.17044
 30
0.0
  0
VERTEX
  8
0
 10
17915.99139
 20
1099.8047
 30
0.0
  0
VERTEX
  8
0
 10
18004.95791
 20
1105.99467
 30
0.0
  0
VERTEX
  8
0
 10
18000.0
 20
1000.0
 30
0.0
  0
VERTEX
  8
0
 10
18000.0
 20
1000.0
 30
0.0
  0
SEQEND
  0
POLYLINE
  8
0
 66
1
 10
0.0
 20
0.0
 30
0.0
 70
8
  0
VERTEX
  8
0
 10
19000.0
 20
1000.0
 30
0.0
  0
VERTEX
  8
0
 10
18899.95948
 20
991.3715
 30
0.0
  0
VERTEX
  8
0
 10
18904.91739
 20
1097.36617
 30
0.0
  0
VERTEX
  8
0
 10
19008.14363
 20
1104.54827
 30
0.0
  0
VERTEX
  8
0
 10
19000.0
 20
1000.0
 30
0.0
  0
VERTEX
  8
0
 10
19000.0
 20
1000.0
 30
0.0
  0
SEQEND
  0
POLYLINE
  8
0
 66
1
 10
0.0
 20
0.0
 30
0.0
 70
8
  0
VERTEX
  8
0
 10
20000.0
 20
1000.0
 30
0.0
  0
VERTEX
  8
0
 10
19871.52618
 20
988.91913
 30
0.0
  0
VERTEX
  8
0
 10
19879.66981
 20
1093.46739
 30
0.0
  0
VERTEX
  8
0
 10
19995.67771
 20
1101.5388
 30
0.0
  0
VERTEX
  8
0
 10
20000.0
 20
1000.0
 30
0.0
  0
VERTEX
  8
0
 10
20000.0
 20
1000.0
 30
0.0
  0
SEQEND
  0
POLYLINE
  8
0
 66
1
 10
0.0
 20
0.0
 30
0.0
 70
8
  0
VERTEX
  8
0
 10
21000.0
 20
1000.0
 30
0.0
  0
VERTEX
  8
0
 10
21057.58948
 20
1004.9671
 30
0.0
  0
VERTEX
  8
0
 10
21061.91178
 20
903.4283
 30
0.0
  0
VERTEX
  8
0
 10
20998.89678
 20
899.04395
 30
0.0
  0
VERTEX
  8
0
 10
21000.0
 20
1000.0
 30
0.0
  0
VERTEX
  8
0
 10
21000.0
 20
1000.0
 30
0.0
  0
SEQEND
  0
POLYLINE
  8
0
 66
1
 10
0.0
 20
0.0
 30
0.0
 70
8
  0
VERTEX
  8
0
 10
22000.0
 20
1000.0
 30
0.0
  0
VERTEX
  8
0
 10
21890.07312
 20
990.5188
 30
0.0
  0
VERTEX
  8
0
 10
21891.17634
 20
1091.47486
 30
0.0
  0
VERTEX
  8
0
 10
22006.35548
 20
1099.48859
 30
0.0
  0
VERTEX
  8
0
 10
22000.0
 20
1000.0
 30
0.0
  0
VERTEX
  8
0
 10
22000.0
 20
1000.0
 30
0.0
  0
SEQEND
  0
POLYLINE
  8
0
 66
1
 10
0.0
 20
0.0
 30
0.0
 70
8
  0
VERTEX
  8
0
 10
23000.0
 20
1000.0
 30
0.0
  0
VERTEX
  8
0
 10
23118.34986
 20
1010.20768
 30
0.0
  0
VERTEX
  8
0
 10
23111.99438
 20
910.71908
 30
0.0
  0
VERTEX
  8
0
 10
23000.18221
 20
902.93961
 30
0.0
  0
VERTEX
  8
0
 10
23000.0
 20
1000.0
 30
0.0
  0
VERTEX
  8
0
 10
23000.0
 20
1000.0
 30
0.0
  0
SEQEND
  0
POLYLINE
  8
0
 66
1
 10
0.0
 20
0.0
 30
0.0
 70
8
  0
VERTEX
  8
0
 10
24000.0
 20
1000.0
 30
0.0
  0
VERTEX
  8
0
 10
23937.60013
 20
994.61801
 30
0.0
  0
VERTEX
  8
0
 10
23937.41791
 20
1091.6784
 30
0.0
  0
VERTEX
  8
0
 10
24004.58037
 20
1096.35131
 30
0.0
  0
VERTEX
  8
0
 10
24000.0
 20
1000.0
 30
0.0
  0
VERTEX
  8
0
 10
24000.0
 20
1000.0
 30
0.0
  0
SEQEND
  0
POLYLINE
  8
0
 66
1
 10
0.0
 20
0.0
 30
0.0
 70
8
  0
VERTEX
  8
0
 10
25000.0
 20
1000.0
 30
0.0
  0
VERTEX
  8
0
 10
25047.23618
 20
1098.27927
 30
0.0
  0
VERTEX
  8
0
 10
25109.60268
 20
1103.65838
 30
0.0
  0
VERTEX
  8
0
 10
25105.0223
 20
1007.30707
 30
0.0
  0
VERTEX
  8
0
 10
25000.0
 20
1000.0
 30
0.0
  0
VERTEX
  8
0
 10
25000.0
 20
1000.0
 30
0.0
  0
SEQEND
  0
POLYLINE
  8
0
 66
1
 10
0.0
 20
0.0
 30
0.0
 70
8
  0
VERTEX
  8
0
 10
26000.0
 20
1000.0
 30
0.0
  0
VERTEX
  8
0
 10
25932.66949
 20
995.31539
 30
0.0
  0
VERTEX
  8
0
 10
25879.10844
 20
1174.03639
 30
0.0
  0
VERTEX
  8
0
 10
25985.15043
 20
1173.17104
 30
0.0
  0
VERTEX
  8
0
 10
26000.0
 20
1000.0
 30
0.0
  0
VERTEX
  8
0
 10
26000.0
 20
1000.0
 30
0.0
  0
SEQEND
  0
POLYLINE
  8
0
 66
1
 10
0.0
 20
0.0
 30
0.0
 70
8
  0
VERTEX
  8
0
 10
27000.0
 20
1000.0
 30
0.0
  0
VERTEX
  8
0
 10
27076.90992
 20
1005.35111
 30
0.0
  0
VERTEX
  8
0
 10
27091.75949
 20
832.18007
 30
0.0
  0
VERTEX
  8
0
 10
27007.56289
 20
832.86715
 30
0.0
  0
VERTEX
  8
0
 10
27000.0
 20
1000.0
 30
0.0
  0
VERTEX
  8
0
 10
27000.0
 20
1000.0
 30
0.0
  0
SEQEND
  0
POLYLINE
  8
0
 66
1
 10
0.0
 20
0.0
 30
0.0
 70
8
  0
VERTEX
  8
0
 10
28000.0
 20
1000.0
 30
0.0
  0
VERTEX
  8
0
 10
27911.03348
 20
993.81004
 30
0.0
  0
VERTEX
  8
0
 10
27903.4706
 20
1160.94289
 30
0.0
  0
VERTEX
  8
0
 10
28007.4884
 20
1160.09405
 30
0.0
  0
VERTEX
  8
0
 10
28000.0
 20
1000.0
 30
0.0
  0
VERTEX
  8
0
 10
28000.0
 20
1000.0
 30
0.0
  0
SEQEND
  0
POLYLINE
  8
0
 66
1
 10
0.0
 20
0.0
 30
0.0
 70
8
  0
VERTEX
  8
0
 10
29000.0
 20
1000.0
 30
0.0
  0
VERTEX
  8
0
 10
28896.77376
 20
992.8179
 30
0.0
  0
VERTEX
  8
0
 10
28904.26215
 20
1152.91196
 30
0.0
  0
VERTEX
  8
0
 10
29011.84246
 20
1152.03405
 30
0.0
  0
VERTEX
  8
0
 10
29000.0
 20
1000.0
 30
0.0
  0
VERTEX
  8
0
 10
29000.0
 20
1000.0
 30
0.0
  0
SEQEND
  0
POLYLINE
  8
0
 66
1
 10
0.0
 20
0.0
 30
0.0
 70
8
  0
VERTEX
  8
0
 10
30000.0
 20
1000.0
 30
0.0
  0
VERTEX
  8
0
 10
29883.9921
 20
991.9286
 30
0.0
  0
VERTEX
  8
0
 10
29895.83456
 20
1143.96265
 30
0.0
  0
VERTEX
  8
0
 10
29993.90588
 20
1143.16235
 30
0.0
  0
VERTEX
  8
0
 10
30000.0
 20
1000.0
 30
0.0
  0
VERTEX
  8
0
 10
30000.0
 20
1000.0
 30
0.0
  0
SEQEND
  0
POLYLINE
  8
0
 66
1
 10
0.0
 20
0.0
 30
0.0
 70
8
  0
VERTEX
  8
0
 10
31000.0
 20
1000.0
 30
0.0
  0
VERTEX
  8
0
 10
31063.015
 20
1004.38435
 30
0.0
  0
VERTEX
  8
0
 10
31069.10912
 20
861.22201
 30
0.0
  0
VERTEX
  8
0
 10
30998.48976
 20
861.7983
 30
0.0
  0
VERTEX
  8
0
 10
31000.0
 20
1000.0
 30
0.0
  0
VERTEX
  8
0
 10
31000.0
 20
1000.0
 30
0.0
  0
SEQEND
  0
POLYLINE
  8
0
 66
1
 10
0.0
 20
0.0
 30
0.0
 70
8
  0
VERTEX
  8
0
 10
32000.0
 20
1000.0
 30
0.0
  0
VERTEX
  8
0
 10
31884.82086
 20
991.98626
 30
0.0
  0
VERTEX
  8
0
 10
31886.33109
 20
1130.18797
 30
0.0
  0
VERTEX
  8
0
 10
32008.25304
 20
1129.19303
 30
0.0
  0
VERTEX
  8
0
 10
32000.0
 20
1000.0
 30
0.0
  0
VERTEX
  8
0
 10
32000.0
 20
1000.0
 30
0.0
  0
SEQEND
  0
POLYLINE
  8
0
 66
1
 10
0.0
 20
0.0
 30
0.0
 70
8
  0
VERTEX
  8
0
 10
33000.0
 20
1000.0
 30
0.0
  0
VERTEX
  8
0
 10
32888.18783
 20
992.22052
 30
0.0
  0
VERTEX
  8
0
 10
32896.44087
 20
1121.41355
 30
0.0
  0
VERTEX
  8
0
 10
32999.77366
 20
1120.57031
 30
0.0
  0
VERTEX
  8
0
 10
33000.0
 20
1000.0
 30
0.0
  0
VERTEX
  8
0
 10
33000.0
 20
1000.0
 30
0.0
  0
SEQEND
  0
POLYLINE
  8
0
 66
1
 10
0.0
 20
0.0
 30
0.0
 70
8
  0
VERTEX
  8
0
 10
34000.0
 20
1000.0
 30
0.0
  0
VERTEX
  8
0
 10
34067.16246
 20
1004.67292
 30
0.0
  0
VERTEX
  8
0
 10
34067.3888
 20
884.10261
 30
0.0
  0
VERTEX
  8
0
 10
33994.51871
 20
884.69726
 30
0.0
  0
VERTEX
  8
0
 10
34000.0
 20
1000.0
 30
0.0
  0
VERTEX
  8
0
 10
34000.0
 20
1000.0
 30
0.0
  0
SEQEND
  0
POLYLINE
  8
0
 66
1
 10
0.0
 20
0.0
 30
0.0
 70
8
  0
VERTEX
  8
0
 10
35000.0
 20
1000.0
 30
0.0
  0
VERTEX
  8
0
 10
34974.84907
 20
893.0218600000001
 30
0.0
  0
VERTEX
  8
0
 10
34869.82676
 20
885.7148
 30
0.0
  0
VERTEX
  8
0
 10
34875.30805
 20
1001.01754
 30
0.0
  0
VERTEX
  8
0
 10
35000.0
 20
1000.0
 30
0.0
  0
VERTEX
  8
0
 10
35000.0
 20
1000.0
 30
0.0
  0
SEQEND
  0
POLYLINE
  8
0
 66
1
 10
0.0
 20
0.0
 30
0.0
 70
8
  0
VERTEX
  8
0
 10
36000.0
 20
1000.0
 30
0.0
  0
VERTEX
  8
0
 10
36106.04199
 20
999.13465
 30
0.0
  0
VERTEX
  8
0
 10
36108.18934
 20
959.7681
 30
0.0
  0
VERTEX
  8
0
 10
36003.16055
 20
963.14261
 30
0.0
  0
VERTEX
  8
0
 10
36000.0
 20
1000.0
 30
0.0
  0
VERTEX
  8
0
 10
36000.0
 20
1000.0
 30
0.0
  0
SEQEND
  0
POLYLINE
  8
0
 66
1
 10
0.0
 20
0.0
 30
0.0
 70
8
  0
VERTEX
  8
0
 10
37000.0
 20
1000.0
 30
0.0
  0
VERTEX
  8
0
 10
37084.1966
 20
999.31292
 30
0.0
  0
VERTEX
  8
0
 10
37087.35715
 20
962.45553
 30
0.0
  0
VERTEX
  8
0
 10
37001.5742
 20
965.21168
 30
0.0
  0
VERTEX
  8
0
 10
37000.0
 20
1000.0
 30
0.0
  0
VERTEX
  8
0
 10
37000.0
 20
1000.0
 30
0.0
  0
SEQEND
  0
POLYLINE
  8
0
 66
1
 10
0.0
 20
0.0
 30
0.0
 70
8
  0
VERTEX
  8
0
 10
38000.0
 20
1000.0
 30
0.0
  0
VERTEX
  8
0
 10
38104.0178
 20
999.15117
 30
0.0
  0
VERTEX
  8
0
 10
38105.592
 20
964.36285
 30
0.0
  0
VERTEX
  8
0
 10
37998.49403
 20
967.80384
 30
0.0
  0
VERTEX
  8
0
 10
38000.0
 20
1000.0
 30
0.0
  0
VERTEX
  8
0
 10
38000.0
 20
1000.0
 30
0.0
  0
SEQEND
  0
POLYLINE
  8
0
 66
1
 10
0.0
 20
0.0
 30
0.0
 70
8
  0
VERTEX
  8
0
 10
39000.0
 20
1000.0
 30
0.0
  0
VERTEX
  8
0
 10
39107.58031
 20
999.1221
 30
0.0
  0
VERTEX
  8
0
 10
39106.07433
 20
966.92593
 30
0.0
  0
VERTEX
  8
0
 10
38997.69499
 20
970.40809
 30
0.0
  0
VERTEX
  8
0
 10
39000.0
 20
1000.0
 30
0.0
  0
VERTEX
  8
0
 10
39000.0
 20
1000.0
 30
0.0
  0
SEQEND
  0
POLYLINE
  8
0
 66
1
 10
0.0
 20
0.0
 30
0.0
 70
8
  0
VERTEX
  8
0
 10
40000.0
 20
1000.0
 30
0.0
  0
VERTEX
  8
0
 10
39901.92868
 20
1000.80031
 30
0.0
  0
VERTEX
  8
0
 10
39904.2337
 20
1030.39222
 30
0.0
  0
VERTEX
  8
0
 10
39998.83566
 20
1027.35272
 30
0.0
  0
VERTEX
  8
0
 10
40000.0
 20
1000.0
 30
0.0
  0
VERTEX
  8
0
 10
40000.0
 20
1000.0
 30
0.0
  0
SEQEND
  0
POLYLINE
  8
0
 66
1
 10
0.0
 20
0.0
 30
0.0
 70
8
  0
VERTEX
  8
0
 10
41000.0
 20
1000.0
 30
0.0
  0
VERTEX
  8
0
 10
40929.38065
 20
1000.57628
 30
0.0
  0
VERTEX
  8
0
 10
40928.2163
 20
1027.929
 30
0.0
  0
VERTEX
  8
0
 10
41000.2799
 20
1025.61364
 30
0.0
  0
VERTEX
  8
0
 10
41000.0
 20
1000.0
 30
0.0
  0
VERTEX
  8
0
 10
41000.0
 20
1000.0
 30
0.0
  0
SEQEND
  0
POLYLINE
  8
0
 66
1
 10
0.0
 20
0.0
 30
0.0
 70
8
  0
VERTEX
  8
0
 10
42000.0
 20
1000.0
 30
0.0
  0
VERTEX
  8
0
 10
41878.07805
 20
1000.99494
 30
0.0
  0
VERTEX
  8
0
 10
41878.35795
 20
1026.60858
 30
0.0
  0
VERTEX
  8
0
 10
42001.44716
 20
1022.6538
 30
0.0
  0
VERTEX
  8
0
 10
42000.0
 20
1000.0
 30
0.0
  0
VERTEX
  8
0
 10
42000.0
 20
1000.0
 30
0.0
  0
SEQEND
  0
POLYLINE
  8
0
 66
1
 10
0.0
 20
0.0
 30
0.0
 70
8
  0
VERTEX
  8
0
 10
43000.0
 20
1000.0
 30
0.0
  0
VERTEX
  8
0
 10
43103.33278
 20
999.15676
 30
0.0
  0
VERTEX
  8
0
 10
43101.88562
 20
976.50295
 30
0.0
  0
VERTEX
  8
0
 10
43000.03797
 20
979.77526
 30
0.0
  0
VERTEX
  8
0
 10
43000.0
 20
1000.0
 30
0.0
  0
VERTEX
  8
0
 10
43000.0
 20
1000.0
 30
0.0
  0
SEQEND
  0
POLYLINE
  8
0
 66
1
 10
0.0
 20
0.0
 30
0.0
 70
8
  0
VERTEX
  8
0
 10
44000.0
 20
1000.0
 30
0.0
  0
VERTEX
  8
0
 10
44072.87009
 20
999.40535
 30
0.0
  0
VERTEX
  8
0
 10
44072.90806
 20
979.18061
 30
0.0
  0
VERTEX
  8
0
 10
43999.12298
 20
981.55127
 30
0.0
  0
VERTEX
  8
0
 10
44000.0
 20
1000.0
 30
0.0
  0
VERTEX
  8
0
 10
44000.0
 20
1000.0
 30
0.0
  0
SEQEND
  0
POLYLINE
  8
0
 66
1
 10
0.0
 20
0.0
 30
0.0
 70
8
  0
VERTEX
  8
0
 10
45000.0
 20
1000.0
 30
0.0
  0
VERTEX
  8
0
 10
44998.22432
 20
984.56887
 30
0.0
  0
VERTEX
  8
0
 10
44873.53236
 20
985.58642
 30
0.0
  0
VERTEX
  8
0
 10
44874.40938
 20
1004.03514
 30
0.0
  0
VERTEX
  8
0
 10
45000.0
 20
1000.0
 30
0.0
  0
VERTEX
  8
0
 10
45000.0
 20
1000.0
 30
0.0
  0
SEQEND
  0
POLYLINE
  8
0
 66
1
 10
0.0
 20
0.0
 30
0.0
 70
8
  0
VERTEX
  8
0
 10
46000.0
 20
1000.0
 30
0.0
  0
VERTEX
  8
0
 10
45925.86862
 20
1017.58482
 30
0.0
  0
VERTEX
  8
0
 10
46000.20228
 20
1018.51044
 30
0.0
  0
VERTEX
  8
0
 10
46000.0
 20
1000.0
 30
0.0
  0
VERTEX
  8
0
 10
46000.0
 20
1000.0
 30
0.0
  0
SEQEND
  0
POLYLINE
  8
0
 66
1
 10
0.0
 20
0.0
 30
0.0
 70
8
  0
VERTEX
  8
0
 10
47000.0
 20
1000.0
 30
0.0
  0
VERTEX
  8
0
 10
47100.20936
 20
994.13563
 30
0.0
  0
VERTEX
  8
0
 10
47100.00708
 20
975.62519
 30
0.0
  0
VERTEX
  8
0
 10
47001.09002
 20
974.39344
 30
0.0
  0
VERTEX
  8
0
 10
47000.0
 20
1000.0
 30
0.0
  0
VERTEX
  8
0
 10
47000.0
 20
1000.0
 30
0.0
  0
SEQEND
  0
POLYLINE
  8
0
 66
1
 10
0.0
 20
0.0
 30
0.0
 70
8
  0
VERTEX
  8
0
 10
48000.0
 20
1000.0
 30
0.0
  0
VERTEX
  8
0
 10
47968.47977
 20
998.10741
 30
0.0
  0
VERTEX
  8
0
 10
47967.38974
 20
1023.71397
 30
0.0
  0
VERTEX
  8
0
 10
48001.88062
 20
1024.14347
 30
0.0
  0
VERTEX
  8
0
 10
48000.0
 20
1000.0
 30
0.0
  0
VERTEX
  8
0
 10
48000.0
 20
1000.0
 30
0.0
  0
SEQEND
  0
POLYLINE
  8
0
 66
1
 10
0.0
 20
0.0
 30
0.0
 70
8
  0
VERTEX
  8
0
 10
0.0
 20
1000.0
 30
0.0
  0
VERTEX
  8
0
 10
-111.96801
 20
974.48568
 30
0.0
  0
VERTEX
  8
0
 10
-110.08738
 20
998.62915
 30
0.0
  0
VERTEX
  8
0
 10
0.0
 20
1000.0
 30
0.0
  0
VERTEX
  8
0
 10
0.0
 20
1000.0
 30
0.0
  0
SEQEND
  0
POLYLINE
  8
0
 66
1
 10
0.0
 20
0.0
 30
0.0
 70
8
  0
VERTEX
  8
0
 10
1000.0
 20
2000.0
 30
0.0
  0
VERTEX
  8
0
 10
925.66635
 20
1999.07437
 30
0.0
  0
VERTEX
  8
0
 10
852.88229
 20
2046.25831
 30
0.0
  0
VERTEX
  8
0
 10
1000.50606
 20
2046.30956
 30
0.0
  0
VERTEX
  8
0
 10
1000.0
 20
2000.0
 30
0.0
  0
VERTEX
  8
0
 10
1000.0
 20
2000.0
 30
0.0
  0
SEQEND
  0
POLYLINE
  8
0
 66
1
 10
0.0
 20
0.0
 30
0.0
 70
8
  0
VERTEX
  8
0
 10
2000.0
 20
2000.0
 30
0.0
  0
VERTEX
  8
0
 10
1901.08294
 20
1998.76825
 30
0.0
  0
VERTEX
  8
0
 10
1901.589
 20
2045.07781
 30
0.0
  0
VERTEX
  8
0
 10
1998.07971
 20
2045.11131
 30
0.0
  0
VERTEX
  8
0
 10
2000.0
 20
2000.0
 30
0.0
  0
VERTEX
  8
0
 10
2000.0
 20
2000.0
 30
0.0
  0
SEQEND
  0
POLYLINE
  8
0
 66
1
 10
0.0
 20
0.0
 30
0.0
 70
8
  0
VERTEX
  8
0
 10
3000.0
 20
2000.0
 30
0.0
  0
VERTEX
  8
0
 10
3034.49088
 20
2000.4295
 30
0.0
  0
VERTEX
  8
0
 10
3036.41116
 20
1955.31818
 30
0.0
  0
VERTEX
  8
0
 10
2996.5185
 20
1955.30433
 30
0.0
  0
VERTEX
  8
0
 10
3000.0
 20
2000.0
 30
0.0
  0
VERTEX
  8
0
 10
3000.0
 20
2000.0
 30
0.0
  0
SEQEND
  0
POLYLINE
  8
0
 66
1
 10
0.0
 20
0.0
 30
0.0
 70
8
  0
VERTEX
  8
0
 10
4000.0
 20
2000.0
 30
0.0
  0
VERTEX
  8
0
 10
4124.33499
 20
2006.46872
 30
0.0
  0
VERTEX
  8
0
 10
4120.85349
 20
1961.77306
 30
0.0
  0
VERTEX
  8
0
 10
3998.20994
 20
1961.73048
 30
0.0
  0
VERTEX
  8
0
 10
4000.0
 20
2000.0
 30
0.0
  0
VERTEX
  8
0
 10
4000.0
 20
2000.0
 30
0.0
  0
SEQEND
  0
POLYLINE
  8
0
 66
1
 10
0.0
 20
0.0
 30
0.0
 70
8
  0
VERTEX
  8
0
 10
5000.0
 20
2000.0
 30
0.0
  0
VERTEX
  8
0
 10
4921.65368
 20
1961.70389
 30
0.0
  0
VERTEX
  8
0
 10
4923.44373
 20
1999.97342
 30
0.0
  0
VERTEX
  8
0
 10
5000.0
 20
2000.0
 30
0.0
  0
VERTEX
  8
0
 10
5000.0
 20
2000.0
 30
0.0
  0
SEQEND
  0
POLYLINE
  8
0
 66
1
 10
0.0
 20
0.0
 30
0.0
 70
8
  0
VERTEX
  8
0
 10
6000.0
 20
2000.0
 30
0.0
  0
VERTEX
  8
0
 10
6030.75855
 20
1957.21894
 30
0.0
  0
VERTEX
  8
0
 10
5997.96156
 20
1957.12011
 30
0.0
  0
VERTEX
  8
0
 10
6000.0
 20
2000.0
 30
0.0
  0
VERTEX
  8
0
 10
6000.0
 20
2000.0
 30
0.0
  0
SEQEND
  0
POLYLINE
  8
0
 66
1
 10
0.0
 20
0.0
 30
0.0
 70
8
  0
VERTEX
  8
0
 10
7000.0
 20
2000.0
 30
0.0
  0
VERTEX
  8
0
 10
6908.58484
 20
2087.25568
 30
0.0
  0
VERTEX
  8
0
 10
6910.62327
 20
2130.13557
 30
0.0
  0
VERTEX
  8
0
 10
6999.75519
 20
2130.40415
 30
0.0
  0
VERTEX
  8
0
 10
7000.0
 20
2000.0
 30
0.0
  0
VERTEX
  8
0
 10
7000.0
 20
2000.0
 30
0.0
  0
SEQEND
  0
POLYLINE
  8
0
 66
1
 10
0.0
 20
0.0
 30
0.0
 70
8
  0
VERTEX
  8
0
 10
8000.0
 20
2000.0
 30
0.0
  0
VERTEX
  8
0
 10
7928.52022
 20
2027.33369
 30
0.0
  0
VERTEX
  8
0
 10
7928.2754
 20
2157.73784
 30
0.0
  0
VERTEX
  8
0
 10
8010.09228
 20
2157.98438
 30
0.0
  0
VERTEX
  8
0
 10
8000.0
 20
2000.0
 30
0.0
  0
VERTEX
  8
0
 10
8000.0
 20
2000.0
 30
0.0
  0
SEQEND
  0
POLYLINE
  8
0
 66
1
 10
0.0
 20
0.0
 30
0.0
 70
8
  0
VERTEX
  8
0
 10
9000.0
 20
2000.0
 30
0.0
  0
VERTEX
  8
0
 10
9147.62377
 20
2000.05125
 30
0.0
  0
VERTEX
  8
0
 10
9137.53149
 20
1842.06688
 30
0.0
  0
VERTEX
  8
0
 10
8998.26956
 20
1841.64725
 30
0.0
  0
VERTEX
  8
0
 10
9000.0
 20
2000.0
 30
0.0
  0
VERTEX
  8
0
 10
9000.0
 20
2000.0
 30
0.0
  0
SEQEND
  0
POLYLINE
  8
0
 66
1
 10
0.0
 20
0.0
 30
0.0
 70
8
  0
VERTEX
  8
0
 10
10000.0
 20
2000.0
 30
0.0
  0
VERTEX
  8
0
 10
9903.50929
 20
1999.96649
 30
0.0
  0
VERTEX
  8
0
 10
9905.23973
 20
2158.31926
 30
0.0
  0
VERTEX
  8
0
 10
9993.2494
 20
2158.58445
 30
0.0
  0
VERTEX
  8
0
 10
10000.0
 20
2000.0
 30
0.0
  0
VERTEX
  8
0
 10
10000.0
 20
2000.0
 30
0.0
  0
SEQEND
  0
POLYLINE
  8
0
 66
1
 10
0.0
 20
0.0
 30
0.0
 70
8
  0
VERTEX
  8
0
 10
11000.0
 20
2000.0
 30
0.0
  0
VERTEX
  8
0
 10
11039.89267
 20
2000.01385
 30
0.0
  0
VERTEX
  8
0
 10
11046.64327
 20
1841.4294
 30
0.0
  0
VERTEX
  8
0
 10
10987.63453
 20
1841.25159
 30
0.0
  0
VERTEX
  8
0
 10
11000.0
 20
2000.0
 30
0.0
  0
VERTEX
  8
0
 10
11000.0
 20
2000.0
 30
0.0
  0
SEQEND
  0
POLYLINE
  8
0
 66
1
 10
0.0
 20
0.0
 30
0.0
 70
8
  0
VERTEX
  8
0
 10
12000.0
 20
2000.0
 30
0.0
  0
VERTEX
  8
0
 10
12122.64354
 20
2000.04259
 30
0.0
  0
VERTEX
  8
0
 10
12110.27808
 20
1841.2941799999999
 30
0.0
  0
VERTEX
  8
0
 10
11992.55994
 20
1840.93946
 30
0.0
  0
VERTEX
  8
0
 10
12000.0
 20
2000.0
 30
0.0
  0
VERTEX
  8
0
 10
12000.0
 20
2000.0
 30
0.0
  0
SEQEND
  0
POLYLINE
  8
0
 66
1
 10
0.0
 20
0.0
 30
0.0
 70
8
  0
VERTEX
  8
0
 10
13000.0
 20
2000.0
 30
0.0
  0
VERTEX
  8
0
 10
12930.51202
 20
1949.87915
 30
0.0
  0
VERTEX
  8
0
 10
12853.95575
 20
1949.85258
 30
0.0
  0
VERTEX
  8
0
 10
12861.39581
 20
2108.91312
 30
0.0
  0
VERTEX
  8
0
 10
12995.05337
 20
2109.31586
 30
0.0
  0
VERTEX
  8
0
 10
13000.0
 20
2000.0
 30
0.0
  0
VERTEX
  8
0
 10
13000.0
 20
2000.0
 30
0.0
  0
SEQEND
  0
POLYLINE
  8
0
 66
1
 10
0.0
 20
0.0
 30
0.0
 70
8
  0
VERTEX
  8
0
 10
14000.0
 20
2000.0
 30
0.0
  0
VERTEX
  8
0
 10
13907.487
 20
1894.22209
 30
0.0
  0
VERTEX
  8
0
 10
13902.54038
 20
2003.53796
 30
0.0
  0
VERTEX
  8
0
 10
14000.0
 20
2000.0
 30
0.0
  0
VERTEX
  8
0
 10
14000.0
 20
2000.0
 30
0.0
  0
SEQEND
  0
POLYLINE
  8
0
 66
1
 10
0.0
 20
0.0
 30
0.0
 70
8
  0
VERTEX
  8
0
 10
15000.0
 20
2000.0
 30
0.0
  0
VERTEX
  8
0
 10
15032.79698
 20
2000.09883
 30
0.0
  0
VERTEX
  8
0
 10
15055.00367
 20
1962.57316
 30
0.0
  0
VERTEX
  8
0
 10
14998.04092
 20
1958.78934
 30
0.0
  0
VERTEX
  8
0
 10
15000.0
 20
2000.0
 30
0.0
  0
VERTEX
  8
0
 10
15000.0
 20
2000.0
 30
0.0
  0
SEQEND
  0
POLYLINE
  8
0
 66
1
 10
0.0
 20
0.0
 30
0.0
 70
8
  0
VERTEX
  8
0
 10
16000.0
 20
2000.0
 30
0.0
  0
VERTEX
  8
0
 10
15910.86808
 20
1999.73142
 30
0.0
  0
VERTEX
  8
0
 10
15912.82716
 20
2040.94208
 30
0.0
  0
VERTEX
  8
0
 10
15999.91228
 20
2046.72682
 30
0.0
  0
VERTEX
  8
0
 10
16000.0
 20
2000.0
 30
0.0
  0
VERTEX
  8
0
 10
16000.0
 20
2000.0
 30
0.0
  0
SEQEND
  0
POLYLINE
  8
0
 66
1
 10
0.0
 20
0.0
 30
0.0
 70
8
  0
VERTEX
  8
0
 10
17000.0
 20
2000.0
 30
0.0
  0
VERTEX
  8
0
 10
16918.18313
 20
1999.75347
 30
0.0
  0
VERTEX
  8
0
 10
16918.09541
 20
2046.48028
 30
0.0
  0
VERTEX
  8
0
 10
17003.33092
 20
2052.14215
 30
0.0
  0
VERTEX
  8
0
 10
17000.0
 20
2000.0
 30
0.0
  0
VERTEX
  8
0
 10
17000.0
 20
2000.0
 30
0.0
  0
SEQEND
  0
POLYLINE
  8
0
 66
1
 10
0.0
 20
0.0
 30
0.0
 70
8
  0
VERTEX
  8
0
 10
18000.0
 20
2000.0
 30
0.0
  0
VERTEX
  8
0
 10
17860.73807
 20
1999.58036
 30
0.0
  0
VERTEX
  8
0
 10
17864.06899
 20
2051.72252
 30
0.0
  0
VERTEX
  8
0
 10
18000.66436
 20
2060.79604
 30
0.0
  0
VERTEX
  8
0
 10
18000.0
 20
2000.0
 30
0.0
  0
VERTEX
  8
0
 10
18000.0
 20
2000.0
 30
0.0
  0
SEQEND
  0
POLYLINE
  8
0
 66
1
 10
0.0
 20
0.0
 30
0.0
 70
8
  0
VERTEX
  8
0
 10
19000.0
 20
2000.0
 30
0.0
  0
VERTEX
  8
0
 10
18911.99034
 20
1999.7348
 30
0.0
  0
VERTEX
  8
0
 10
18912.6547
 20
2060.53083
 30
0.0
  0
VERTEX
  8
0
 10
18997.18431
 20
2066.14582
 30
0.0
  0
VERTEX
  8
0
 10
19000.0
 20
2000.0
 30
0.0
  0
VERTEX
  8
0
 10
19000.0
 20
2000.0
 30
0.0
  0
SEQEND
  0
POLYLINE
  8
0
 66
1
 10
0.0
 20
0.0
 30
0.0
 70
8
  0
VERTEX
  8
0
 10
20000.0
 20
2000.0
 30
0.0
  0
VERTEX
  8
0
 10
19940.99126
 20
1999.82219
 30
0.0
  0
VERTEX
  8
0
 10
19938.17557
 20
2065.96801
 30
0.0
  0
VERTEX
  8
0
 10
20005.48676
 20
2070.43924
 30
0.0
  0
VERTEX
  8
0
 10
20000.0
 20
2000.0
 30
0.0
  0
VERTEX
  8
0
 10
20000.0
 20
2000.0
 30
0.0
  0
SEQEND
  0
POLYLINE
  8
0
 66
1
 10
0.0
 20
0.0
 30
0.0
 70
8
  0
VERTEX
  8
0
 10
21000.0
 20
2000.0
 30
0.0
  0
VERTEX
  8
0
 10
21117.71814
 20
2000.35472
 30
0.0
  0
VERTEX
  8
0
 10
21112.23138
 20
1929.9154800000001
 30
0.0
  0
VERTEX
  8
0
 10
20996.36178
 20
1922.2187
 30
0.0
  0
VERTEX
  8
0
 10
21000.0
 20
2000.0
 30
0.0
  0
VERTEX
  8
0
 10
21000.0
 20
2000.0
 30
0.0
  0
SEQEND
  0
POLYLINE
  8
0
 66
1
 10
0.0
 20
0.0
 30
0.0
 70
8
  0
VERTEX
  8
0
 10
22000.0
 20
2000.0
 30
0.0
  0
VERTEX
  8
0
 10
22133.65756
 20
2000.40274
 30
0.0
  0
VERTEX
  8
0
 10
22130.01935
 20
1922.62144
 30
0.0
  0
VERTEX
  8
0
 10
22003.88059
 20
1914.24252
 30
0.0
  0
VERTEX
  8
0
 10
22000.0
 20
2000.0
 30
0.0
  0
VERTEX
  8
0
 10
22000.0
 20
2000.0
 30
0.0
  0
SEQEND
  0
POLYLINE
  8
0
 66
1
 10
0.0
 20
0.0
 30
0.0
 70
8
  0
VERTEX
  8
0
 10
23000.0
 20
2000.0
 30
0.0
  0
VERTEX
  8
0
 10
23097.13114
 20
2000.29268
 30
0.0
  0
VERTEX
  8
0
 10
23101.01173
 20
1914.53521
 30
0.0
  0
VERTEX
  8
0
 10
23007.85929
 20
1908.34744
 30
0.0
  0
VERTEX
  8
0
 10
23000.0
 20
2000.0
 30
0.0
  0
VERTEX
  8
0
 10
23000.0
 20
2000.0
 30
0.0
  0
SEQEND
  0
POLYLINE
  8
0
 66
1
 10
0.0
 20
0.0
 30
0.0
 70
8
  0
VERTEX
  8
0
 10
24000.0
 20
2000.0
 30
0.0
  0
VERTEX
  8
0
 10
24049.80642
 20
2095.48307
 30
0.0
  0
VERTEX
  8
0
 10
24057.66571
 20
2003.83051
 30
0.0
  0
VERTEX
  8
0
 10
24000.0
 20
2000.0
 30
0.0
  0
VERTEX
  8
0
 10
24000.0
 20
2000.0
 30
0.0
  0
SEQEND
  0
POLYLINE
  8
0
 66
1
 10
0.0
 20
0.0
 30
0.0
 70
8
  0
VERTEX
  8
0
 10
25000.0
 20
2000.0
 30
0.0
  0
VERTEX
  8
0
 10
24943.03725
 20
1996.21618
 30
0.0
  0
VERTEX
  8
0
 10
24900.36181
 20
2109.40039
 30
0.0
  0
VERTEX
  8
0
 10
25005.47297
 20
2115.12793
 30
0.0
  0
VERTEX
  8
0
 10
25000.0
 20
2000.0
 30
0.0
  0
VERTEX
  8
0
 10
25000.0
 20
2000.0
 30
0.0
  0
SEQEND
  0
POLYLINE
  8
0
 66
1
 10
0.0
 20
0.0
 30
0.0
 70
8
  0
VERTEX
  8
0
 10
26000.0
 20
2000.0
 30
0.0
  0
VERTEX
  8
0
 10
25912.91488
 20
1994.21527
 30
0.0
  0
VERTEX
  8
0
 10
25918.38786
 20
2109.3432
 30
0.0
  0
VERTEX
  8
0
 10
25999.7864
 20
2113.77863
 30
0.0
  0
VERTEX
  8
0
 10
26000.0
 20
2000.0
 30
0.0
  0
VERTEX
  8
0
 10
26000.0
 20
2000.0
 30
0.0
  0
SEQEND
  0
POLYLINE
  8
0
 66
1
 10
0.0
 20
0.0
 30
0.0
 70
8
  0
VERTEX
  8
0
 10
27000.0
 20
2000.0
 30
0.0
  0
VERTEX
  8
0
 10
27085.23551
 20
2005.66187
 30
0.0
  0
VERTEX
  8
0
 10
27085.44911
 20
1891.88325
 30
0.0
  0
VERTEX
  8
0
 10
26992.77073
 20
1886.83318
 30
0.0
  0
VERTEX
  8
0
 10
27000.0
 20
2000.0
 30
0.0
  0
VERTEX
  8
0
 10
27000.0
 20
2000.0
 30
0.0
  0
SEQEND
  0
POLYLINE
  8
0
 66
1
 10
0.0
 20
0.0
 30
0.0
 70
8
  0
VERTEX
  8
0
 10
28000.0
 20
2000.0
 30
0.0
  0
VERTEX
  8
0
 10
27863.40462
 20
1990.92649
 30
0.0
  0
VERTEX
  8
0
 10
27870.63389
 20
2104.0933
 30
0.0
  0
VERTEX
  8
0
 10
28001.21526
 20
2111.20872
 30
0.0
  0
VERTEX
  8
0
 10
28000.0
 20
2000.0
 30
0.0
  0
VERTEX
  8
0
 10
28000.0
 20
2000.0
 30
0.0
  0
SEQEND
  0
POLYLINE
  8
0
 66
1
 10
0.0
 20
0.0
 30
0.0
 70
8
  0
VERTEX
  8
0
 10
29000.0
 20
2000.0
 30
0.0
  0
VERTEX
  8
0
 10
28915.47038
 20
1994.38501
 30
0.0
  0
VERTEX
  8
0
 10
28916.68565
 20
2105.59373
 30
0.0
  0
VERTEX
  8
0
 10
28995.3227
 20
2109.87869
 30
0.0
  0
VERTEX
  8
0
 10
29000.0
 20
2000.0
 30
0.0
  0
VERTEX
  8
0
 10
29000.0
 20
2000.0
 30
0.0
  0
SEQEND
  0
POLYLINE
  8
0
 66
1
 10
0.0
 20
0.0
 30
0.0
 70
8
  0
VERTEX
  8
0
 10
30000.0
 20
2000.0
 30
0.0
  0
VERTEX
  8
0
 10
30067.31119
 20
2004.47123
 30
0.0
  0
VERTEX
  8
0
 10
30071.98849
 20
1894.59254
 30
0.0
  0
VERTEX
  8
0
 10
29991.4476
 20
1890.20384
 30
0.0
  0
VERTEX
  8
0
 10
30000.0
 20
2000.0
 30
0.0
  0
VERTEX
  8
0
 10
30000.0
 20
2000.0
 30
0.0
  0
SEQEND
  0
POLYLINE
  8
0
 66
1
 10
0.0
 20
0.0
 30
0.0
 70
8
  0
VERTEX
  8
0
 10
31000.0
 20
2000.0
 30
0.0
  0
VERTEX
  8
0
 10
31115.869599999998
 20
2007.69678
 30
0.0
  0
VERTEX
  8
0
 10
31107.3172
 20
1897.90062
 30
0.0
  0
VERTEX
  8
0
 10
30994.93787
 20
1891.77704
 30
0.0
  0
VERTEX
  8
0
 10
31000.0
 20
2000.0
 30
0.0
  0
VERTEX
  8
0
 10
31000.0
 20
2000.0
 30
0.0
  0
SEQEND
  0
POLYLINE
  8
0
 66
1
 10
0.0
 20
0.0
 30
0.0
 70
8
  0
VERTEX
  8
0
 10
32000.0
 20
2000.0
 30
0.0
  0
VERTEX
  8
0
 10
32126.13875
 20
2008.37892
 30
0.0
  0
VERTEX
  8
0
 10
32121.07662
 20
1900.15596
 30
0.0
  0
VERTEX
  8
0
 10
32004.80471
 20
1893.82027
 30
0.0
  0
VERTEX
  8
0
 10
32000.0
 20
2000.0
 30
0.0
  0
VERTEX
  8
0
 10
32000.0
 20
2000.0
 30
0.0
  0
SEQEND
  0
POLYLINE
  8
0
 66
1
 10
0.0
 20
0.0
 30
0.0
 70
8
  0
VERTEX
  8
0
 10
33000.0
 20
2000.0
 30
0.0
  0
VERTEX
  8
0
 10
33093.15245
 20
2006.18776
 30
0.0
  0
VERTEX
  8
0
 10
33097.95716
 20
1900.00804
 30
0.0
  0
VERTEX
  8
0
 10
33008.99011
 20
1895.1602
 30
0.0
  0
VERTEX
  8
0
 10
33000.0
 20
2000.0
 30
0.0
  0
VERTEX
  8
0
 10
33000.0
 20
2000.0
 30
0.0
  0
SEQEND
  0
POLYLINE
  8
0
 66
1
 10
0.0
 20
0.0
 30
0.0
 70
8
  0
VERTEX
  8
0
 10
34000.0
 20
2000.0
 30
0.0
  0
VERTEX
  8
0
 10
33973.57588
 20
1893.91877
 30
0.0
  0
VERTEX
  8
0
 10
33915.91018
 20
1890.08825
 30
0.0
  0
VERTEX
  8
0
 10
33906.92008
 20
1994.92805
 30
0.0
  0
VERTEX
  8
0
 10
34000.0
 20
2000.0
 30
0.0
  0
VERTEX
  8
0
 10
34000.0
 20
2000.0
 30
0.0
  0
SEQEND
  0
POLYLINE
  8
0
 66
1
 10
0.0
 20
0.0
 30
0.0
 70
8
  0
VERTEX
  8
0
 10
35000.0
 20
2000.0
 30
0.0
  0
VERTEX
  8
0
 10
34894.97121
 20
2003.37451
 30
0.0
  0
VERTEX
  8
0
 10
34899.44985
 20
2082.04341
 30
0.0
  0
VERTEX
  8
0
 10
34992.52978
 20
2087.11536
 30
0.0
  0
VERTEX
  8
0
 10
35000.0
 20
2000.0
 30
0.0
  0
VERTEX
  8
0
 10
35000.0
 20
2000.0
 30
0.0
  0
SEQEND
  0
POLYLINE
  8
0
 66
1
 10
0.0
 20
0.0
 30
0.0
 70
8
  0
VERTEX
  8
0
 10
36000.0
 20
2000.0
 30
0.0
  0
VERTEX
  8
0
 10
36085.78295
 20
1997.24385
 30
0.0
  0
VERTEX
  8
0
 10
36093.25318
 20
1910.12849
 30
0.0
  0
VERTEX
  8
0
 10
36004.28613
 20
1905.28064
 30
0.0
  0
VERTEX
  8
0
 10
36000.0
 20
2000.0
 30
0.0
  0
VERTEX
  8
0
 10
36000.0
 20
2000.0
 30
0.0
  0
SEQEND
  0
POLYLINE
  8
0
 66
1
 10
0.0
 20
0.0
 30
0.0
 70
8
  0
VERTEX
  8
0
 10
37000.0
 20
2000.0
 30
0.0
  0
VERTEX
  8
0
 10
37107.09798
 20
1996.55901
 30
0.0
  0
VERTEX
  8
0
 10
37111.38411
 20
1901.83965
 30
0.0
  0
VERTEX
  8
0
 10
36995.11219
 20
1895.50396
 30
0.0
  0
VERTEX
  8
0
 10
37000.0
 20
2000.0
 30
0.0
  0
VERTEX
  8
0
 10
37000.0
 20
2000.0
 30
0.0
  0
SEQEND
  0
POLYLINE
  8
0
 66
1
 10
0.0
 20
0.0
 30
0.0
 70
8
  0
VERTEX
  8
0
 10
38000.0
 20
2000.0
 30
0.0
  0
VERTEX
  8
0
 10
37891.62066
 20
2003.48216
 30
0.0
  0
VERTEX
  8
0
 10
37896.50846
 20
2107.97819
 30
0.0
  0
VERTEX
  8
0
 10
38008.88779
 20
2114.10177
 30
0.0
  0
VERTEX
  8
0
 10
38000.0
 20
2000.0
 30
0.0
  0
VERTEX
  8
0
 10
38000.0
 20
2000.0
 30
0.0
  0
SEQEND
  0
POLYLINE
  8
0
 66
1
 10
0.0
 20
0.0
 30
0.0
 70
8
  0
VERTEX
  8
0
 10
39000.0
 20
2000.0
 30
0.0
  0
VERTEX
  8
0
 10
38905.39805
 20
2003.0395
 30
0.0
  0
VERTEX
  8
0
 10
38914.28583
 20
2117.14128
 30
0.0
  0
VERTEX
  8
0
 10
38994.82672
 20
2121.52997
 30
0.0
  0
VERTEX
  8
0
 10
39000.0
 20
2000.0
 30
0.0
  0
VERTEX
  8
0
 10
39000.0
 20
2000.0
 30
0.0
  0
SEQEND
  0
POLYLINE
  8
0
 66
1
 10
0.0
 20
0.0
 30
0.0
 70
8
  0
VERTEX
  8
0
 10
40000.0
 20
2000.0
 30
0.0
  0
VERTEX
  8
0
 10
40072.0636
 20
1997.68464
 30
0.0
  0
VERTEX
  8
0
 10
40077.23687
 20
1876.15467
 30
0.0
  0
VERTEX
  8
0
 10
39998.59983
 20
1871.86972
 30
0.0
  0
VERTEX
  8
0
 10
40000.0
 20
2000.0
 30
0.0
  0
VERTEX
  8
0
 10
40000.0
 20
2000.0
 30
0.0
  0
SEQEND
  0
POLYLINE
  8
0
 66
1
 10
0.0
 20
0.0
 30
0.0
 70
8
  0
VERTEX
  8
0
 10
41000.0
 20
2000.0
 30
0.0
  0
VERTEX
  8
0
 10
40876.91079
 20
2003.95478
 30
0.0
  0
VERTEX
  8
0
 10
40878.31096
 20
2132.08507
 30
0.0
  0
VERTEX
  8
0
 10
41008.89234
 20
2139.20048
 30
0.0
  0
VERTEX
  8
0
 10
41000.0
 20
2000.0
 30
0.0
  0
VERTEX
  8
0
 10
41000.0
 20
2000.0
 30
0.0
  0
SEQEND
  0
POLYLINE
  8
0
 66
1
 10
0.0
 20
0.0
 30
0.0
 70
8
  0
VERTEX
  8
0
 10
42000.0
 20
2000.0
 30
0.0
  0
VERTEX
  8
0
 10
42101.84765
 20
1996.7277
 30
0.0
  0
VERTEX
  8
0
 10
42092.95532
 20
1857.52722
 30
0.0
  0
VERTEX
  8
0
 10
42000.27695
 20
1852.47715
 30
0.0
  0
VERTEX
  8
0
 10
42000.0
 20
2000.0
 30
0.0
  0
VERTEX
  8
0
 10
42000.0
 20
2000.0
 30
0.0
  0
SEQEND
  0
POLYLINE
  8
0
 66
1
 10
0.0
 20
0.0
 30
0.0
 70
8
  0
VERTEX
  8
0
 10
43000.0
 20
2000.0
 30
0.0
  0
VERTEX
  8
0
 10
43073.78508
 20
1997.62933
 30
0.0
  0
VERTEX
  8
0
 10
43074.06203
 20
1850.1064900000001
 30
0.0
  0
VERTEX
  8
0
 10
42992.66348
 20
1845.6710600000001
 30
0.0
  0
VERTEX
  8
0
 10
43000.0
 20
2000.0
 30
0.0
  0
VERTEX
  8
0
 10
43000.0
 20
2000.0
 30
0.0
  0
SEQEND
  0
POLYLINE
  8
0
 66
1
 10
0.0
 20
0.0
 30
0.0
 70
8
  0
VERTEX
  8
0
 10
44000.0
 20
2000.0
 30
0.0
  0
VERTEX
  8
0
 10
43997.84655
 20
1956.1654
 30
0.0
  0
VERTEX
  8
0
 10
43872.25592
 20
1960.20055
 30
0.0
  0
VERTEX
  8
0
 10
43879.59245
 20
2114.52949
 30
0.0
  0
VERTEX
  8
0
 10
43984.70362
 20
2120.25703
 30
0.0
  0
VERTEX
  8
0
 10
44000.0
 20
2000.0
 30
0.0
  0
VERTEX
  8
0
 10
44000.0
 20
2000.0
 30
0.0
  0
SEQEND
  0
ENDSEC
  0
EOF
