  0
SECTION
  2
HEADER
  9
$ACADVER
  1
AC1009
  9
$INSBASE
 10
0.0
 20
0.0
 30
0.0
  9
$EXTMIN
 10
0.0
 20
0.0
 30
0.0
  9
$EXTMAX
 10
100.0
 20
100.0
 30
0.0
  9
$UNITMODE
 70
0
  9
$AUNITS
 70
0
  9
$ANGBASE
 50
0.0
  9
$ANGDIR
 70
0
  0
ENDSEC
  0
SECTION
  2
TABLES
  0
TABLE
  2
LTYPE
 70
19
  0
LTYPE
  2
CONTINUOUS
 70
0
  3
Solid
 72
65
 73
0
 40
0.0
  0
LTYPE
  2
CENTER
 70
0
  3
Center ____ _ ____ _ ____ _ ____ _ ____ _ ____
 72
65
 73
4
 40
2.0
 49
1.25
 49
-0.25
 49
0.25
 49
-0.25
  0
LTYPE
  2
CENTERX2
 70
0
  3
Center (2x) ________  __  ________  __  ________
 72
65
 73
4
 40
3.5
 49
2.5
 49
-0.25
 49
0.5
 49
-0.25
  0
LTYPE
  2
CENTER2
 70
0
  3
Center (.5x) ____ _ ____ _ ____ _ ____ _ ____
 72
65
 73
4
 40
1.0
 49
0.625
 49
-0.125
 49
0.125
 49
-0.125
  0
LTYPE
  2
DASHED
 70
0
  3
Dashed __ __ __ __ __ __ __ __ __ __ __ __ __ _
 72
65
 73
2
 40
0.6
 49
0.5
 49
-0.1
  0
LTYPE
  2
DASHEDX2
 70
0
  3
Dashed (2x) ____  ____  ____  ____  ____  ____
 72
65
 73
2
 40
1.2
 49
1.0
 49
-0.2
  0
LTYPE
  2
DASHED2
 70
0
  3
Dashed (.5x) _ _ _ _ _ _ _ _ _ _ _ _ _ _
 72
65
 73
2
 40
0.3
 49
0.25
 49
-0.05
  0
LTYPE
  2
PHANTOM
 70
0
  3
Phantom ______  __  __  ______  __  __  ______
 72
65
 73
6
 40
2.5
 49
1.25
 49
-0.25
 49
0.25
 49
-0.25
 49
0.25
 49
-0.25
  0
LTYPE
  2
PHANTOMX2
 70
0
  3
Phantom (2x)____________    ____    ____    ____________
 72
65
 73
6
 40
4.25
 49
2.5
 49
-0.25
 49
0.5
 49
-0.25
 49
0.5
 49
-0.25
  0
LTYPE
  2
PHANTOM2
 70
0
  3
Phantom (.5x) ___ _ _ ___ _ _ ___ _ _ ___ _ _ ___
 72
65
 73
6
 40
1.25
 49
0.625
 49
-0.125
 49
0.125
 49
-0.125
 49
0.125
 49
-0.125
  0
LTYPE
  2
DASHDOT
 70
0
  3
Dash dot __ . __ . __ . __ . __ . __ . __ . __
 72
65
 73
4
 40
1.4
 49
1.0
 49
-0.2
 49
0.0
 49
-0.2
  0
LTYPE
  2
DASHDOTX2
 70
0
  3
Dash dot (2x) ____  .  ____  .  ____  .  ____
 72
65
 73
4
 40
2.4
 49
2.0
 49
-0.2
 49
0.0
 49
-0.2
  0
LTYPE
  2
DASHDOT2
 70
0
  3
Dash dot (.5x) _ . _ . _ . _ . _ . _ . _ . _
 72
65
 73
4
 40
0.7
 49
0.5
 49
-0.1
 49
0.0
 49
-0.1
  0
LTYPE
  2
DOT
 70
0
  3
Dot .  .  .  .  .  .  .  .  .  .  .  .  .  .  .  .
 72
65
 73
2
 40
0.2
 49
0.0
 49
-0.2
  0
LTYPE
  2
DOTX2
 70
0
  3
Dot (2x) .    .    .    .    .    .    .    . 
 72
65
 73
2
 40
0.4
 49
0.0
 49
-0.4
  0
LTYPE
  2
DOT2
 70
0
  3
Dot (.5) . . . . . . . . . . . . . . . . . . . 
 72
65
 73
2
 40
0.1
 49
0.0
 49
-0.1
  0
LTYPE
  2
DIVIDE
 70
0
  3
Divide __ . . __ . . __ . . __ . . __ . . __
 72
65
 73
6
 40
1.6
 49
1.0
 49
-0.2
 49
0.0
 49
-0.2
 49
0.0
 49
-0.2
  0
LTYPE
  2
DIVIDEX2
 70
0
  3
Divide (2x) ____  . .  ____  . .  ____  . .  ____
 72
65
 73
6
 40
2.6
 49
2.0
 49
-0.2
 49
0.0
 49
-0.2
 49
0.0
 49
-0.2
  0
LTYPE
  2
DIVIDE2
 70
0
  3
Divide(.5x) _ . _ . _ . _ . _ . _ . _ . _
 72
65
 73
6
 40
0.8
 49
0.5
 49
-0.1
 49
0.0
 49
-0.1
 49
0.0
 49
-0.1
  0
ENDTAB
  0
TABLE
  2
LAYER
 70
5
  0
LAYER
  2
DIMENSIONS
 70
0
 62
1
  6
CONTINUOUS
  0
LAYER
  2
TABLEBACKGROUND
 70
0
 62
1
  6
CONTINUOUS
  0
LAYER
  2
TABLECONTENT
 70
0
 62
1
  6
CONTINUOUS
  0
LAYER
  2
TABLEGRID
 70
0
 62
1
  6
CONTINUOUS
  0
LAYER
  2
VIEWPORTS
 70
0
 62
7
  6
CONTINUOUS
  0
ENDTAB
  0
TABLE
  2
STYLE
 70
12
  0
STYLE
  2
STANDARD
 70
0
 40
0.0
 41
1.0
 42
1.0
 50
0.0
 71
0
  3
arial.ttf
  4

  0
STYLE
  2
ARIAL
 70
0
 40
0.0
 41
1.0
 42
1.0
 50
0.0
 71
0
  3
arial.ttf
  4

  0
STYLE
  2
ARIAL_BOLD
 70
0
 40
0.0
 41
1.0
 42
1.0
 50
0.0
 71
0
  3
arialbd.ttf
  4

  0
STYLE
  2
ARIAL_ITALIC
 70
0
 40
0.0
 41
1.0
 42
1.0
 50
0.0
 71
0
  3
ariali.ttf
  4

  0
STYLE
  2
ARIAL_BOLD_ITALIC
 70
0
 40
0.0
 41
1.0
 42
1.0
 50
0.0
 71
0
  3
arialbi.ttf
  4

  0
STYLE
  2
ARIAL_BLACK
 70
0
 40
0.0
 41
1.0
 42
1.0
 50
0.0
 71
0
  3
ariblk.ttf
  4

  0
STYLE
  2
ISOCPEUR
 70
0
 40
0.0
 41
1.0
 42
1.0
 50
0.0
 71
0
  3
isocpeur.ttf
  4

  0
STYLE
  2
ISOCPEUR_ITALIC
 70
0
 40
0.0
 41
1.0
 42
1.0
 50
0.0
 71
0
  3
isocpeui.ttf
  4

  0
STYLE
  2
TIMES
 70
0
 40
0.0
 41
1.0
 42
1.0
 50
0.0
 71
0
  3
times.ttf
  4

  0
STYLE
  2
TIMES_BOLD
 70
0
 40
0.0
 41
1.0
 42
1.0
 50
0.0
 71
0
  3
timesbd.ttf
  4

  0
STYLE
  2
TIMES_ITALIC
 70
0
 40
0.0
 41
1.0
 42
1.0
 50
0.0
 71
0
  3
timesi.ttf
  4

  0
STYLE
  2
TIMES_BOLD_ITALIC
 70
0
 40
0.0
 41
1.0
 42
1.0
 50
0.0
 71
0
  3
timesbi.ttf
  4

  0
ENDTAB
  0
TABLE
  2
VIEW
 70
0
  0
ENDTAB
  0
TABLE
  2
APPID
 70
1
  0
APPID
  2
DXFWRITE
 70
0
  0
ENDTAB
  0
TABLE
  2
VPORT
 70
0
  0
ENDTAB
  0
TABLE
  2
UCS
 70
0
  0
ENDTAB
  0
ENDSEC
  0
SECTION
  2
BLOCKS
  0
ENDSEC
  0
SECTION
  2
ENTITIES
  0
VIEWPORT
  8
VIEWPORTS
 67
1
 10
0.0
 20
0.0
 30
0.0
 40
1.0
 41
1.0
 68
1
 69
1
1001
ACAD
1000
MVIEW
1002
{
1070
16
1010
0.0
1020
0.0
1030
0.0
1010
0.0
1020
0.0
1030
0.0
1040
0.0
1040
1.0
1040
0.0
1040
0.0
1040
50.0
1040
0.0
1040
0.0
1070
0
1070
100
1070
1
1070
3
1070
0
1070
0
1070
0
1070
0
1040
0.0
1040
0.0
1040
0.0
1040
0.1
1040
0.1
1040
0.1
1040
0.1
1070
0
1002
{
1002
}
1002
}
  0
POLYLINE
  8
0
 66
1
 10
0.0
 20
0.0
 30
0.0
 70
8
  0
VERTEX
  8
0
 10
1000.0
 20
1000.0
 30
0.0
  0
VERTEX
  8
0
 10
1026.0
 20
1061.334
 30
0.0
  0
VERTEX
  8
0
 10
1052.0
 20
1084.0
 30
0.0
  0
VERTEX
  8
0
 10
1082.667
 20
1090.0
 30
0.0
  0
VERTEX
  8
0
 10
1064.667
 20
1074.667
 30
0.0
  0
VERTEX
  8
0
 10
1050.0
 20
1035.334
 30
0.0
  0
VERTEX
  8
0
 10
1057.334
 20
1024.667
 30
0.0
  0
VERTEX
  8
0
 10
1041.334
 20
987.334
 30
0.0
  0
VERTEX
  8
0
 10
1000.0
 20
1000.0
 30
0.0
  0
VERTEX
  8
0
 10
1000.0
 20
1000.0
 30
0.0
  0
SEQEND
  0
POLYLINE
  8
0
 66
1
 10
0.0
 20
0.0
 30
0.0
 70
8
  0
VERTEX
  8
0
 10
2000.0
 20
1000.0
 30
0.0
  0
VERTEX
  8
0
 10
2074.667
 20
1004.666
 30
0.0
  0
VERTEX
  8
0
 10
2074.667
 20
1036.0
 30
0.0
  0
VERTEX
  8
0
 10
2036.667
 20
1033.333
 30
0.0
  0
VERTEX
  8
0
 10
2000.667
 20
1014.666
 30
0.0
  0
VERTEX
  8
0
 10
2000.0
 20
1000.0
 30
0.0
  0
VERTEX
  8
0
 10
2000.0
 20
1000.0
 30
0.0
  0
SEQEND
  0
POLYLINE
  8
0
 66
1
 10
0.0
 20
0.0
 30
0.0
 70
8
  0
VERTEX
  8
0
 10
3000.0
 20
1000.0
 30
0.0
  0
VERTEX
  8
0
 10
2942.0
 20
1064.0
 30
0.0
  0
VERTEX
  8
0
 10
2959.333
 20
1083.334
 30
0.0
  0
VERTEX
  8
0
 10
2978.0
 20
1085.334
 30
0.0
  0
VERTEX
  8
0
 10
3008.0
 20
1027.334
 30
0.0
  0
VERTEX
  8
0
 10
3004.667
 20
1010.667
 30
0.0
  0
VERTEX
  8
0
 10
3000.0
 20
1000.0
 30
0.0
  0
VERTEX
  8
0
 10
3000.0
 20
1000.0
 30
0.0
  0
SEQEND
  0
POLYLINE
  8
0
 66
1
 10
0.0
 20
0.0
 30
0.0
 70
8
  0
VERTEX
  8
0
 10
4000.0
 20
1000.0
 30
0.0
  0
VERTEX
  8
0
 10
4018.667
 20
989.334
 30
0.0
  0
VERTEX
  8
0
 10
4107.334
 20
1068.667
 30
0.0
  0
VERTEX
  8
0
 10
4104.0
 20
1082.0
 30
0.0
  0
VERTEX
  8
0
 10
4083.334
 20
1083.334
 30
0.0
  0
VERTEX
  8
0
 10
4000.0
 20
1000.0
 30
0.0
  0
VERTEX
  8
0
 10
4000.0
 20
1000.0
 30
0.0
  0
SEQEND
  0
POLYLINE
  8
0
 66
1
 10
0.0
 20
0.0
 30
0.0
 70
8
  0
VERTEX
  8
0
 10
5000.0
 20
1000.0
 30
0.0
  0
VERTEX
  8
0
 10
4997.333
 20
1013.334
 30
0.0
  0
VERTEX
  8
0
 10
4995.333
 20
1023.3340000000001
 30
0.0
  0
VERTEX
  8
0
 10
5033.333
 20
1083.334
 30
0.0
  0
VERTEX
  8
0
 10
5063.333
 20
1118.0
 30
0.0
  0
VERTEX
  8
0
 10
5075.333
 20
1097.334
 30
0.0
  0
VERTEX
  8
0
 10
5073.333
 20
1080.667
 30
0.0
  0
VERTEX
  8
0
 10
5000.0
 20
1000.0
 30
0.0
  0
VERTEX
  8
0
 10
5000.0
 20
1000.0
 30
0.0
  0
SEQEND
  0
POLYLINE
  8
0
 66
1
 10
0.0
 20
0.0
 30
0.0
 70
8
  0
VERTEX
  8
0
 10
6000.0
 20
1000.0
 30
0.0
  0
VERTEX
  8
0
 10
5992.667
 20
1008.0
 30
0.0
  0
VERTEX
  8
0
 10
5982.0
 20
1014.0
 30
0.0
  0
VERTEX
  8
0
 10
5976.0
 20
1018.0
 30
0.0
  0
VERTEX
  8
0
 10
6032.667
 20
1056.0
 30
0.0
  0
VERTEX
  8
0
 10
6091.333
 20
1090.666
 30
0.0
  0
VERTEX
  8
0
 10
6108.0
 20
1072.0
 30
0.0
  0
VERTEX
  8
0
 10
6108.0
 20
1060.0
 30
0.0
  0
VERTEX
  8
0
 10
6000.0
 20
1000.0
 30
0.0
  0
VERTEX
  8
0
 10
6000.0
 20
1000.0
 30
0.0
  0
SEQEND
  0
POLYLINE
  8
0
 66
1
 10
0.0
 20
0.0
 30
0.0
 70
8
  0
VERTEX
  8
0
 10
7000.0
 20
1000.0
 30
0.0
  0
VERTEX
  8
0
 10
7077.333
 20
1016.667
 30
0.0
  0
VERTEX
  8
0
 10
7083.999
 20
1037.333
 30
0.0
  0
VERTEX
  8
0
 10
7086.666
 20
1052.667
 30
0.0
  0
VERTEX
  8
0
 10
6997.333
 20
1041.333
 30
0.0
  0
VERTEX
  8
0
 10
6992.0
 20
1031.333
 30
0.0
  0
VERTEX
  8
0
 10
7000.0
 20
1000.0
 30
0.0
  0
VERTEX
  8
0
 10
7000.0
 20
1000.0
 30
0.0
  0
SEQEND
  0
POLYLINE
  8
0
 66
1
 10
0.0
 20
0.0
 30
0.0
 70
8
  0
VERTEX
  8
0
 10
8000.0
 20
1000.0
 30
0.0
  0
VERTEX
  8
0
 10
8000.0
 20
1032.667
 30
0.0
  0
VERTEX
  8
0
 10
8080.667
 20
1036.667
 30
0.0
  0
VERTEX
  8
0
 10
8108.667
 20
1020.0
 30
0.0
  0
VERTEX
  8
0
 10
8114.0
 20
1010.0
 30
0.0
  0
VERTEX
  8
0
 10
8101.333
 20
1000.0
 30
0.0
  0
VERTEX
  8
0
 10
8000.0
 20
1000.0
 30
0.0
  0
VERTEX
  8
0
 10
8000.0
 20
1000.0
 30
0.0
  0
SEQEND
  0
POLYLINE
  8
0
 66
1
 10
0.0
 20
0.0
 30
0.0
 70
8
  0
VERTEX
  8
0
 10
9000.0
 20
1000.0
 30
0.0
  0
VERTEX
  8
0
 10
9044.666
 20
1053.333
 30
0.0
  0
VERTEX
  8
0
 10
9039.333
 20
1067.333
 30
0.0
  0
VERTEX
  8
0
 10
9011.333
 20
1086.666
 30
0.0
  0
VERTEX
  8
0
 10
8983.333
 20
1048.666
 30
0.0
  0
VERTEX
  8
0
 10
8984.666
 20
1040.0
 30
0.0
  0
VERTEX
  8
0
 10
8975.333
 20
1015.333
 30
0.0
  0
VERTEX
  8
0
 10
9000.0
 20
1000.0
 30
0.0
  0
VERTEX
  8
0
 10
9000.0
 20
1000.0
 30
0.0
  0
SEQEND
  0
POLYLINE
  8
0
 66
1
 10
0.0
 20
0.0
 30
0.0
 70
8
  0
VERTEX
  8
0
 10
10000.0
 20
1000.0
 30
0.0
  0
VERTEX
  8
0
 10
10020.0
 20
1002.666
 30
0.0
  0
VERTEX
  8
0
 10
10047.334
 20
992.0
 30
0.0
  0
VERTEX
  8
0
 10
10056.667
 20
1048.0
 30
0.0
  0
VERTEX
  8
0
 10
10042.0
 20
1053.333
 30
0.0
  0
VERTEX
  8
0
 10
10044.667
 20
1063.333
 30
0.0
  0
VERTEX
  8
0
 10
10004.0
 20
1068.666
 30
0.0
  0
VERTEX
  8
0
 10
10000.0
 20
1000.0
 30
0.0
  0
VERTEX
  8
0
 10
10000.0
 20
1000.0
 30
0.0
  0
SEQEND
  0
POLYLINE
  8
0
 66
1
 10
0.0
 20
0.0
 30
0.0
 70
8
  0
VERTEX
  8
0
 10
11000.0
 20
1000.0
 30
0.0
  0
VERTEX
  8
0
 10
11010.0
 20
1063.333
 30
0.0
  0
VERTEX
  8
0
 10
11017.333
 20
1061.333
 30
0.0
  0
VERTEX
  8
0
 10
11024.0
 20
1078.667
 30
0.0
  0
VERTEX
  8
0
 10
11041.333
 20
1064.0
 30
0.0
  0
VERTEX
  8
0
 10
11058.0
 20
1058.667
 30
0.0
  0
VERTEX
  8
0
 10
11050.0
 20
994.667
 30
0.0
  0
VERTEX
  8
0
 10
11000.0
 20
1000.0
 30
0.0
  0
VERTEX
  8
0
 10
11000.0
 20
1000.0
 30
0.0
  0
SEQEND
  0
POLYLINE
  8
0
 66
1
 10
0.0
 20
0.0
 30
0.0
 70
8
  0
VERTEX
  8
0
 10
12000.0
 20
1000.0
 30
0.0
  0
VERTEX
  8
0
 10
11988.667
 20
952.0
 30
0.0
  0
VERTEX
  8
0
 10
12030.667
 20
938.667
 30
0.0
  0
VERTEX
  8
0
 10
12038.667
 20
948.0
 30
0.0
  0
VERTEX
  8
0
 10
12052.0
 20
979.333
 30
0.0
  0
VERTEX
  8
0
 10
12009.334
 20
991.333
 30
0.0
  0
VERTEX
  8
0
 10
12010.667
 20
998.667
 30
0.0
  0
VERTEX
  8
0
 10
12000.0
 20
1000.0
 30
0.0
  0
VERTEX
  8
0
 10
12000.0
 20
1000.0
 30
0.0
  0
SEQEND
  0
POLYLINE
  8
0
 66
1
 10
0.0
 20
0.0
 30
0.0
 70
8
  0
VERTEX
  8
0
 10
13000.0
 20
1000.0
 30
0.0
  0
VERTEX
  8
0
 10
13010.667
 20
1055.333
 30
0.0
  0
VERTEX
  8
0
 10
12966.667
 20
1065.333
 30
0.0
  0
VERTEX
  8
0
 10
12948.667
 20
1058.0
 30
0.0
  0
VERTEX
  8
0
 10
12933.333
 20
1012.666
 30
0.0
  0
VERTEX
  8
0
 10
12951.333
 20
990.0
 30
0.0
  0
VERTEX
  8
0
 10
12961.333
 20
994.666
 30
0.0
  0
VERTEX
  8
0
 10
12971.333
 20
992.0
 30
0.0
  0
VERTEX
  8
0
 10
12988.0
 20
1002.0
 30
0.0
  0
VERTEX
  8
0
 10
13000.0
 20
1000.0
 30
0.0
  0
VERTEX
  8
0
 10
13000.0
 20
1000.0
 30
0.0
  0
SEQEND
  0
POLYLINE
  8
0
 66
1
 10
0.0
 20
0.0
 30
0.0
 70
8
  0
VERTEX
  8
0
 10
14000.0
 20
1000.0
 30
0.0
  0
VERTEX
  8
0
 10
14076.0
 20
1042.666
 30
0.0
  0
VERTEX
  8
0
 10
14048.0
 20
1088.666
 30
0.0
  0
VERTEX
  8
0
 10
14016.667
 20
1098.0
 30
0.0
  0
VERTEX
  8
0
 10
13965.334
 20
1066.0
 30
0.0
  0
VERTEX
  8
0
 10
13961.334
 20
1050.666
 30
0.0
  0
VERTEX
  8
0
 10
13982.0
 20
1016.666
 30
0.0
  0
VERTEX
  8
0
 10
13993.334
 20
1018.0
 30
0.0
  0
VERTEX
  8
0
 10
14000.0
 20
1000.0
 30
0.0
  0
VERTEX
  8
0
 10
14000.0
 20
1000.0
 30
0.0
  0
SEQEND
  0
POLYLINE
  8
0
 66
1
 10
0.0
 20
0.0
 30
0.0
 70
8
  0
VERTEX
  8
0
 10
15000.0
 20
1000.0
 30
0.0
  0
VERTEX
  8
0
 10
15069.999
 20
1000.667
 30
0.0
  0
VERTEX
  8
0
 10
15083.333
 20
1007.334
 30
0.0
  0
VERTEX
  8
0
 10
15099.333
 20
1005.334
 30
0.0
  0
VERTEX
  8
0
 10
15099.333
 20
1023.3340000000001
 30
0.0
  0
VERTEX
  8
0
 10
15089.333
 20
1031.334
 30
0.0
  0
VERTEX
  8
0
 10
15073.333
 20
1034.0
 30
0.0
  0
VERTEX
  8
0
 10
15068.666
 20
1037.334
 30
0.0
  0
VERTEX
  8
0
 10
15000.0
 20
1038.0
 30
0.0
  0
VERTEX
  8
0
 10
15000.0
 20
1000.0
 30
0.0
  0
VERTEX
  8
0
 10
15000.0
 20
1000.0
 30
0.0
  0
SEQEND
  0
POLYLINE
  8
0
 66
1
 10
0.0
 20
0.0
 30
0.0
 70
8
  0
VERTEX
  8
0
 10
16000.0
 20
1000.0
 30
0.0
  0
VERTEX
  8
0
 10
15992.667
 20
1018.666
 30
0.0
  0
VERTEX
  8
0
 10
15984.0
 20
1034.0
 30
0.0
  0
VERTEX
  8
0
 10
15943.334
 20
1021.333
 30
0.0
  0
VERTEX
  8
0
 10
15949.334
 20
999.333
 30
0.0
  0
VERTEX
  8
0
 10
15958.667
 20
972.0
 30
0.0
  0
VERTEX
  8
0
 10
15966.667
 20
973.333
 30
0.0
  0
VERTEX
  8
0
 10
15996.667
 20
998.666
 30
0.0
  0
VERTEX
  8
0
 10
16000.0
 20
1000.0
 30
0.0
  0
VERTEX
  8
0
 10
16000.0
 20
1000.0
 30
0.0
  0
SEQEND
  0
POLYLINE
  8
0
 66
1
 10
0.0
 20
0.0
 30
0.0
 70
8
  0
VERTEX
  8
0
 10
17000.0
 20
1000.0
 30
0.0
  0
VERTEX
  8
0
 10
16994.0
 20
1010.667
 30
0.0
  0
VERTEX
  8
0
 10
16992.667
 20
1021.334
 30
0.0
  0
VERTEX
  8
0
 10
16952.0
 20
1059.334
 30
0.0
  0
VERTEX
  8
0
 10
16944.667
 20
1046.0
 30
0.0
  0
VERTEX
  8
0
 10
16936.667
 20
1026.667
 30
0.0
  0
VERTEX
  8
0
 10
16982.0
 20
984.0
 30
0.0
  0
VERTEX
  8
0
 10
17000.0
 20
1000.0
 30
0.0
  0
VERTEX
  8
0
 10
17000.0
 20
1000.0
 30
0.0
  0
SEQEND
  0
POLYLINE
  8
0
 66
1
 10
0.0
 20
0.0
 30
0.0
 70
8
  0
VERTEX
  8
0
 10
18000.0
 20
1000.0
 30
0.0
  0
VERTEX
  8
0
 10
17975.333
 20
1054.666
 30
0.0
  0
VERTEX
  8
0
 10
17972.666
 20
1078.666
 30
0.0
  0
VERTEX
  8
0
 10
17920.666
 20
1079.333
 30
0.0
  0
VERTEX
  8
0
 10
17903.333
 20
1062.666
 30
0.0
  0
VERTEX
  8
0
 10
17904.0
 20
1016.666
 30
0.0
  0
VERTEX
  8
0
 10
17914.0
 20
1002.0
 30
0.0
  0
VERTEX
  8
0
 10
18000.0
 20
1000.0
 30
0.0
  0
VERTEX
  8
0
 10
18000.0
 20
1000.0
 30
0.0
  0
SEQEND
  0
POLYLINE
  8
0
 66
1
 10
0.0
 20
0.0
 30
0.0
 70
8
  0
VERTEX
  8
0
 10
19000.0
 20
1000.0
 30
0.0
  0
VERTEX
  8
0
 10
19030.0
 20
1011.333
 30
0.0
  0
VERTEX
  8
0
 10
19007.333
 20
1078.667
 30
0.0
  0
VERTEX
  8
0
 10
18962.0
 20
1066.0
 30
0.0
  0
VERTEX
  8
0
 10
19000.0
 20
1000.0
 30
0.0
  0
VERTEX
  8
0
 10
19000.0
 20
1000.0
 30
0.0
  0
SEQEND
  0
POLYLINE
  8
0
 66
1
 10
0.0
 20
0.0
 30
0.0
 70
8
  0
VERTEX
  8
0
 10
20000.0
 20
1000.0
 30
0.0
  0
VERTEX
  8
0
 10
20035.334
 20
1032.0
 30
0.0
  0
VERTEX
  8
0
 10
20018.667
 20
1060.0
 30
0.0
  0
VERTEX
  8
0
 10
20000.0
 20
1054.667
 30
0.0
  0
VERTEX
  8
0
 10
19974.667
 20
1035.333
 30
0.0
  0
VERTEX
  8
0
 10
20000.0
 20
1000.0
 30
0.0
  0
VERTEX
  8
0
 10
20000.0
 20
1000.0
 30
0.0
  0
SEQEND
  0
POLYLINE
  8
0
 66
1
 10
0.0
 20
0.0
 30
0.0
 70
8
  0
VERTEX
  8
0
 10
21000.0
 20
1000.0
 30
0.0
  0
VERTEX
  8
0
 10
21012.0
 20
1022.0
 30
0.0
  0
VERTEX
  8
0
 10
21018.0
 20
1048.0
 30
0.0
  0
VERTEX
  8
0
 10
21007.333
 20
1050.0
 30
0.0
  0
VERTEX
  8
0
 10
21006.0
 20
1057.334
 30
0.0
  0
VERTEX
  8
0
 10
20903.333
 20
1074.0
 30
0.0
  0
VERTEX
  8
0
 10
20894.666
 20
1020.0
 30
0.0
  0
VERTEX
  8
0
 10
20914.666
 20
1009.334
 30
0.0
  0
VERTEX
  8
0
 10
21000.0
 20
1000.0
 30
0.0
  0
VERTEX
  8
0
 10
21000.0
 20
1000.0
 30
0.0
  0
SEQEND
  0
POLYLINE
  8
0
 66
1
 10
0.0
 20
0.0
 30
0.0
 70
8
  0
VERTEX
  8
0
 10
22000.0
 20
1000.0
 30
0.0
  0
VERTEX
  8
0
 10
22046.667
 20
978.667
 30
0.0
  0
VERTEX
  8
0
 10
22062.667
 20
993.334
 30
0.0
  0
VERTEX
  8
0
 10
22082.0
 20
994.667
 30
0.0
  0
VERTEX
  8
0
 10
22090.0
 20
1021.334
 30
0.0
  0
VERTEX
  8
0
 10
22081.334
 20
1032.667
 30
0.0
  0
VERTEX
  8
0
 10
22074.667
 20
1046.0
 30
0.0
  0
VERTEX
  8
0
 10
22028.667
 20
1062.667
 30
0.0
  0
VERTEX
  8
0
 10
22000.0
 20
1000.0
 30
0.0
  0
VERTEX
  8
0
 10
22000.0
 20
1000.0
 30
0.0
  0
SEQEND
  0
POLYLINE
  8
0
 66
1
 10
0.0
 20
0.0
 30
0.0
 70
8
  0
VERTEX
  8
0
 10
23000.0
 20
1000.0
 30
0.0
  0
VERTEX
  8
0
 10
23028.667
 20
1007.333
 30
0.0
  0
VERTEX
  8
0
 10
23038.0
 20
1002.0
 30
0.0
  0
VERTEX
  8
0
 10
23052.667
 20
949.333
 30
0.0
  0
VERTEX
  8
0
 10
23052.0
 20
941.333
 30
0.0
  0
VERTEX
  8
0
 10
23028.0
 20
939.333
 30
0.0
  0
VERTEX
  8
0
 10
23016.667
 20
958.0
 30
0.0
  0
VERTEX
  8
0
 10
23008.667
 20
964.0
 30
0.0
  0
VERTEX
  8
0
 10
23000.0
 20
1000.0
 30
0.0
  0
VERTEX
  8
0
 10
23000.0
 20
1000.0
 30
0.0
  0
SEQEND
  0
POLYLINE
  8
0
 66
1
 10
0.0
 20
0.0
 30
0.0
 70
8
  0
VERTEX
  8
0
 10
24000.0
 20
1000.0
 30
0.0
  0
VERTEX
  8
0
 10
24018.667
 20
984.667
 30
0.0
  0
VERTEX
  8
0
 10
24036.0
 20
975.334
 30
0.0
  0
VERTEX
  8
0
 10
24058.667
 20
964.667
 30
0.0
  0
VERTEX
  8
0
 10
24072.0
 20
1006.0
 30
0.0
  0
VERTEX
  8
0
 10
24040.667
 20
1017.334
 30
0.0
  0
VERTEX
  8
0
 10
24034.667
 20
1014.0
 30
0.0
  0
VERTEX
  8
0
 10
24015.333
 20
1019.334
 30
0.0
  0
VERTEX
  8
0
 10
24004.0
 20
1013.334
 30
0.0
  0
VERTEX
  8
0
 10
24000.0
 20
1000.0
 30
0.0
  0
VERTEX
  8
0
 10
24000.0
 20
1000.0
 30
0.0
  0
SEQEND
  0
POLYLINE
  8
0
 66
1
 10
0.0
 20
0.0
 30
0.0
 70
8
  0
VERTEX
  8
0
 10
25000.0
 20
1000.0
 30
0.0
  0
VERTEX
  8
0
 10
25011.333
 20
1024.0
 30
0.0
  0
VERTEX
  8
0
 10
25018.0
 20
1023.3340000000001
 30
0.0
  0
VERTEX
  8
0
 10
25024.0
 20
1036.0
 30
0.0
  0
VERTEX
  8
0
 10
25054.0
 20
1022.0
 30
0.0
  0
VERTEX
  8
0
 10
25038.0
 20
992.0
 30
0.0
  0
VERTEX
  8
0
 10
25000.0
 20
1000.0
 30
0.0
  0
VERTEX
  8
0
 10
25000.0
 20
1000.0
 30
0.0
  0
SEQEND
  0
POLYLINE
  8
0
 66
1
 10
0.0
 20
0.0
 30
0.0
 70
8
  0
VERTEX
  8
0
 10
26000.0
 20
1000.0
 30
0.0
  0
VERTEX
  8
0
 10
26025.333
 20
1024.666
 30
0.0
  0
VERTEX
  8
0
 10
26050.666
 20
1001.333
 30
0.0
  0
VERTEX
  8
0
 10
26040.0
 20
981.333
 30
0.0
  0
VERTEX
  8
0
 10
26006.0
 20
988.666
 30
0.0
  0
VERTEX
  8
0
 10
26000.0
 20
1000.0
 30
0.0
  0
VERTEX
  8
0
 10
26000.0
 20
1000.0
 30
0.0
  0
SEQEND
  0
POLYLINE
  8
0
 66
1
 10
0.0
 20
0.0
 30
0.0
 70
8
  0
VERTEX
  8
0
 10
27000.0
 20
1000.0
 30
0.0
  0
VERTEX
  8
0
 10
26996.667
 20
1052.667
 30
0.0
  0
VERTEX
  8
0
 10
27040.0
 20
1056.0
 30
0.0
  0
VERTEX
  8
0
 10
27062.667
 20
1036.0
 30
0.0
  0
VERTEX
  8
0
 10
27094.0
 20
1032.667
 30
0.0
  0
VERTEX
  8
0
 10
27098.667
 20
1022.0
 30
0.0
  0
VERTEX
  8
0
 10
27108.667
 20
1018.667
 30
0.0
  0
VERTEX
  8
0
 10
27106.667
 20
1010.0
 30
0.0
  0
VERTEX
  8
0
 10
27087.333
 20
1004.0
 30
0.0
  0
VERTEX
  8
0
 10
27080.0
 20
999.333
 30
0.0
  0
VERTEX
  8
0
 10
27014.0
 20
994.667
 30
0.0
  0
VERTEX
  8
0
 10
27000.0
 20
1000.0
 30
0.0
  0
VERTEX
  8
0
 10
27000.0
 20
1000.0
 30
0.0
  0
SEQEND
  0
POLYLINE
  8
0
 66
1
 10
0.0
 20
0.0
 30
0.0
 70
8
  0
VERTEX
  8
0
 10
28000.0
 20
1000.0
 30
0.0
  0
VERTEX
  8
0
 10
28008.68645
 20
1066.70535
 30
0.0
  0
VERTEX
  8
0
 10
28026.65656
 20
1094.91597
 30
0.0
  0
VERTEX
  8
0
 10
28052.8304
 20
1107.54877
 30
0.0
  0
VERTEX
  8
0
 10
28040.3034
 20
1088.37558
 30
0.0
  0
VERTEX
  8
0
 10
28036.5397
 20
1046.03372
 30
0.0
  0
VERTEX
  8
0
 10
28045.70467
 20
1037.00718
 30
0.0
  0
VERTEX
  8
0
 10
28040.26048
 20
996.36689
 30
0.0
  0
VERTEX
  8
0
 10
28000.0
 20
1000.0
 30
0.0
  0
VERTEX
  8
0
 10
28000.0
 20
1000.0
 30
0.0
  0
SEQEND
  0
POLYLINE
  8
0
 66
1
 10
0.0
 20
0.0
 30
0.0
 70
8
  0
VERTEX
  8
0
 10
29000.0
 20
1000.0
 30
0.0
  0
VERTEX
  8
0
 10
29002.83156
 20
1070.39091
 30
0.0
  0
VERTEX
  8
0
 10
28961.78215
 20
1075.6657500000001
 30
0.0
  0
VERTEX
  8
0
 10
28960.72409
 20
1039.79275
 30
0.0
  0
VERTEX
  8
0
 10
28980.86656
 20
1003.09069
 30
0.0
  0
VERTEX
  8
0
 10
29000.0
 20
1000.0
 30
0.0
  0
VERTEX
  8
0
 10
29000.0
 20
1000.0
 30
0.0
  0
SEQEND
  0
POLYLINE
  8
0
 66
1
 10
0.0
 20
0.0
 30
0.0
 70
8
  0
VERTEX
  8
0
 10
30000.0
 20
1000.0
 30
0.0
  0
VERTEX
  8
0
 10
29915.43792
 20
1047.45237
 30
0.0
  0
VERTEX
  8
0
 10
29924.29985
 20
1075.24019
 30
0.0
  0
VERTEX
  8
0
 10
29941.87425
 20
1084.62753
 30
0.0
  0
VERTEX
  8
0
 10
29996.23538
 20
1032.9153900000001
 30
0.0
  0
VERTEX
  8
0
 10
30000.05609
 20
1013.44145
 30
0.0
  0
VERTEX
  8
0
 10
30000.0
 20
1000.0
 30
0.0
  0
VERTEX
  8
0
 10
30000.0
 20
1000.0
 30
0.0
  0
SEQEND
  0
POLYLINE
  8
0
 66
1
 10
0.0
 20
0.0
 30
0.0
 70
8
  0
VERTEX
  8
0
 10
31000.0
 20
1000.0
 30
0.0
  0
VERTEX
  8
0
 10
31026.20597
 20
1006.61312
 30
0.0
  0
VERTEX
  8
0
 10
31062.67683
 20
1146.00741
 30
0.0
  0
VERTEX
  8
0
 10
31050.2597
 20
1154.31909
 30
0.0
  0
VERTEX
  8
0
 10
31028.33832
 20
1138.29728
 30
0.0
  0
VERTEX
  8
0
 10
31000.0
 20
1000.0
 30
0.0
  0
VERTEX
  8
0
 10
31000.0
 20
1000.0
 30
0.0
  0
SEQEND
  0
POLYLINE
  8
0
 66
1
 10
0.0
 20
0.0
 30
0.0
 70
8
  0
VERTEX
  8
0
 10
32000.0
 20
1000.0
 30
0.0
  0
VERTEX
  8
0
 10
31990.4473
 20
1011.58127
 30
0.0
  0
VERTEX
  8
0
 10
31983.28326
 20
1020.26686
 30
0.0
  0
VERTEX
  8
0
 10
31981.74829
 20
1096.0715500000001
 30
0.0
  0
VERTEX
  8
0
 10
31987.53051
 20
1143.68082
 30
0.0
  0
VERTEX
  8
0
 10
32008.85718
 20
1129.45866
 30
0.0
  0
VERTEX
  8
0
 10
32016.37618
 20
1112.4553
 30
0.0
  0
VERTEX
  8
0
 10
32000.0
 20
1000.0
 30
0.0
  0
VERTEX
  8
0
 10
32000.0
 20
1000.0
 30
0.0
  0
SEQEND
  0
POLYLINE
  8
0
 66
1
 10
0.0
 20
0.0
 30
0.0
 70
8
  0
VERTEX
  8
0
 10
33000.0
 20
1000.0
 30
0.0
  0
VERTEX
  8
0
 10
32989.3589
 20
994.64518
 30
0.0
  0
VERTEX
  8
0
 10
32979.23662
 20
984.86543
 30
0.0
  0
VERTEX
  8
0
 10
32972.949
 20
979.58519
 30
0.0
  0
VERTEX
  8
0
 10
32960.32352
 20
1056.20901
 30
0.0
  0
VERTEX
  8
0
 10
32951.69465
 20
1133.88542
 30
0.0
  0
VERTEX
  8
0
 10
32976.33951
 20
1145.88574
 30
0.0
  0
VERTEX
  8
0
 10
32987.74264
 20
1141.64895
 30
0.0
  0
VERTEX
  8
0
 10
33000.0
 20
1000.0
 30
0.0
  0
VERTEX
  8
0
 10
33000.0
 20
1000.0
 30
0.0
  0
SEQEND
  0
POLYLINE
  8
0
 66
1
 10
0.0
 20
0.0
 30
0.0
 70
8
  0
VERTEX
  8
0
 10
34000.0
 20
1000.0
 30
0.0
  0
VERTEX
  8
0
 10
34062.98678
 20
1022.89966
 30
0.0
  0
VERTEX
  8
0
 10
34066.79588
 20
1045.44136
 30
0.0
  0
VERTEX
  8
0
 10
34067.7245
 20
1062.01761
 30
0.0
  0
VERTEX
  8
0
 10
33994.29659
 20
1044.03503
 30
0.0
  0
VERTEX
  8
0
 10
33990.69868
 20
1032.98917
 30
0.0
  0
VERTEX
  8
0
 10
34000.0
 20
1000.0
 30
0.0
  0
VERTEX
  8
0
 10
34000.0
 20
1000.0
 30
0.0
  0
SEQEND
  0
POLYLINE
  8
0
 66
1
 10
0.0
 20
0.0
 30
0.0
 70
8
  0
VERTEX
  8
0
 10
35000.0
 20
1000.0
 30
0.0
  0
VERTEX
  8
0
 10
34986.52343
 20
1032.274
 30
0.0
  0
VERTEX
  8
0
 10
35065.26851
 20
1069.79632
 30
0.0
  0
VERTEX
  8
0
 10
35100.05005
 20
1064.98234
 30
0.0
  0
VERTEX
  8
0
 10
35109.49053
 20
1057.32202
 30
0.0
  0
VERTEX
  8
0
 10
35100.99164
 20
1042.17082
 30
0.0
  0
VERTEX
  8
0
 10
35000.0
 20
1000.0
 30
0.0
  0
VERTEX
  8
0
 10
35000.0
 20
1000.0
 30
0.0
  0
SEQEND
  0
POLYLINE
  8
0
 66
1
 10
0.0
 20
0.0
 30
0.0
 70
8
  0
VERTEX
  8
0
 10
36000.0
 20
1000.0
 30
0.0
  0
VERTEX
  8
0
 10
36012.5438
 20
1076.65205
 30
0.0
  0
VERTEX
  8
0
 10
36001.38079
 20
1090.76873
 30
0.0
  0
VERTEX
  8
0
 10
35968.47783
 20
1102.99888
 30
0.0
  0
VERTEX
  8
0
 10
35962.78159
 20
1049.73031
 30
0.0
  0
VERTEX
  8
0
 10
35968.0236
 20
1040.29927
 30
0.0
  0
VERTEX
  8
0
 10
35971.81976
 20
1008.8337
 30
0.0
  0
VERTEX
  8
0
 10
36000.0
 20
1000.0
 30
0.0
  0
VERTEX
  8
0
 10
36000.0
 20
1000.0
 30
0.0
  0
SEQEND
  0
POLYLINE
  8
0
 66
1
 10
0.0
 20
0.0
 30
0.0
 70
8
  0
VERTEX
  8
0
 10
37000.0
 20
1000.0
 30
0.0
  0
VERTEX
  8
0
 10
37008.65761
 20
1016.56408
 30
0.0
  0
VERTEX
  8
0
 10
37031.88779
 20
1031.03305
 30
0.0
  0
VERTEX
  8
0
 10
36992.31397
 20
1070.02205
 30
0.0
  0
VERTEX
  8
0
 10
36980.15982
 20
1062.03546
 30
0.0
  0
VERTEX
  8
0
 10
36973.63233
 20
1069.75019
 30
0.0
  0
VERTEX
  8
0
 10
36947.46273
 20
1042.20886
 30
0.0
  0
VERTEX
  8
0
 10
37000.0
 20
1000.0
 30
0.0
  0
VERTEX
  8
0
 10
37000.0
 20
1000.0
 30
0.0
  0
SEQEND
  0
POLYLINE
  8
0
 66
1
 10
0.0
 20
0.0
 30
0.0
 70
8
  0
VERTEX
  8
0
 10
38000.0
 20
1000.0
 30
0.0
  0
VERTEX
  8
0
 10
37975.08614
 20
1057.96811
 30
0.0
  0
VERTEX
  8
0
 10
37983.41384
 20
1061.25071
 30
0.0
  0
VERTEX
  8
0
 10
37980.46963
 20
1079.74358
 30
0.0
  0
VERTEX
  8
0
 10
38005.61113
 20
1079.45418
 30
0.0
  0
VERTEX
  8
0
 10
38024.9712
 20
1086.27766
 30
0.0
  0
VERTEX
  8
0
 10
38052.22308
 20
1029.10645
 30
0.0
  0
VERTEX
  8
0
 10
38000.0
 20
1000.0
 30
0.0
  0
VERTEX
  8
0
 10
38000.0
 20
1000.0
 30
0.0
  0
SEQEND
  0
POLYLINE
  8
0
 66
1
 10
0.0
 20
0.0
 30
0.0
 70
8
  0
VERTEX
  8
0
 10
39000.0
 20
1000.0
 30
0.0
  0
VERTEX
  8
0
 10
39063.03692
 20
987.14512
 30
0.0
  0
VERTEX
  8
0
 10
39082.06775
 20
1025.65278
 30
0.0
  0
VERTEX
  8
0
 10
39070.00629
 20
1033.55459
 30
0.0
  0
VERTEX
  8
0
 10
39029.05758
 20
1047.4775
 30
0.0
  0
VERTEX
  8
0
 10
39011.7655
 20
1008.2854600000001
 30
0.0
  0
VERTEX
  8
0
 10
39002.12056
 20
1009.87809
 30
0.0
  0
VERTEX
  8
0
 10
39000.0
 20
1000.0
 30
0.0
  0
VERTEX
  8
0
 10
39000.0
 20
1000.0
 30
0.0
  0
SEQEND
  0
POLYLINE
  8
0
 66
1
 10
0.0
 20
0.0
 30
0.0
 70
8
  0
VERTEX
  8
0
 10
40000.0
 20
1000.0
 30
0.0
  0
VERTEX
  8
0
 10
39992.98086
 20
1066.69747
 30
0.0
  0
VERTEX
  8
0
 10
39948.91914
 20
1067.42418
 30
0.0
  0
VERTEX
  8
0
 10
39934.39502
 20
1054.49442
 30
0.0
  0
VERTEX
  8
0
 10
39934.00125
 20
998.22316
 30
0.0
  0
VERTEX
  8
0
 10
39957.71928
 20
976.41891
 30
0.0
  0
VERTEX
  8
0
 10
39965.60677
 20
984.28767
 30
0.0
  0
VERTEX
  8
0
 10
39975.74132
 20
983.6671699999999
 30
0.0
  0
VERTEX
  8
0
 10
39988.20606
 20
999.35612
 30
0.0
  0
VERTEX
  8
0
 10
40000.0
 20
1000.0
 30
0.0
  0
VERTEX
  8
0
 10
40000.0
 20
1000.0
 30
0.0
  0
SEQEND
  0
POLYLINE
  8
0
 66
1
 10
0.0
 20
0.0
 30
0.0
 70
8
  0
VERTEX
  8
0
 10
41000.0
 20
1000.0
 30
0.0
  0
VERTEX
  8
0
 10
40986.04823
 20
1094.79881
 30
0.0
  0
VERTEX
  8
0
 10
40936.39414
 20
1075.47893
 30
0.0
  0
VERTEX
  8
0
 10
40918.24283
 20
1043.20356
 30
0.0
  0
VERTEX
  8
0
 10
40930.49124
 20
978.36864
 30
0.0
  0
VERTEX
  8
0
 10
40942.84546
 20
970.06975
 30
0.0
  0
VERTEX
  8
0
 10
40979.53696
 20
984.31688
 30
0.0
  0
VERTEX
  8
0
 10
40981.92093
 20
997.1828
 30
0.0
  0
VERTEX
  8
0
 10
41000.0
 20
1000.0
 30
0.0
  0
VERTEX
  8
0
 10
41000.0
 20
1000.0
 30
0.0
  0
SEQEND
  0
POLYLINE
  8
0
 66
1
 10
0.0
 20
0.0
 30
0.0
 70
8
  0
VERTEX
  8
0
 10
42000.0
 20
1000.0
 30
0.0
  0
VERTEX
  8
0
 10
42018.74832
 20
1090.42481
 30
0.0
  0
VERTEX
  8
0
 10
42016.62489
 20
1108.86867
 30
0.0
  0
VERTEX
  8
0
 10
42022.78458
 20
1129.1363000000001
 30
0.0
  0
VERTEX
  8
0
 10
42007.11075
 20
1132.49133
 30
0.0
  0
VERTEX
  8
0
 10
41997.38326
 20
1121.08221
 30
0.0
  0
VERTEX
  8
0
 10
41990.64364
 20
1100.93872
 30
0.0
  0
VERTEX
  8
0
 10
41986.45178
 20
1095.5396
 30
0.0
  0
VERTEX
  8
0
 10
41966.9108
 20
1007.08286
 30
0.0
  0
VERTEX
  8
0
 10
42000.0
 20
1000.0
 30
0.0
  0
VERTEX
  8
0
 10
42000.0
 20
1000.0
 30
0.0
  0
SEQEND
  0
POLYLINE
  8
0
 66
1
 10
0.0
 20
0.0
 30
0.0
 70
8
  0
VERTEX
  8
0
 10
43000.0
 20
1000.0
 30
0.0
  0
VERTEX
  8
0
 10
42980.77976
 20
1004.0045
 30
0.0
  0
VERTEX
  8
0
 10
42963.09155
 20
1004.84258
 30
0.0
  0
VERTEX
  8
0
 10
42943.34198
 20
959.78809
 30
0.0
  0
VERTEX
  8
0
 10
42964.09645
 20
952.61694
 30
0.0
  0
VERTEX
  8
0
 10
42991.23167
 20
945.44994
 30
0.0
  0
VERTEX
  8
0
 10
42995.98311
 20
953.64233
 30
0.0
  0
VERTEX
  8
0
 10
42998.60241
 20
996.13606
 30
0.0
  0
VERTEX
  8
0
 10
43000.0
 20
1000.0
 30
0.0
  0
VERTEX
  8
0
 10
43000.0
 20
1000.0
 30
0.0
  0
SEQEND
  0
POLYLINE
  8
0
 66
1
 10
0.0
 20
0.0
 30
0.0
 70
8
  0
VERTEX
  8
0
 10
44000.0
 20
1000.0
 30
0.0
  0
VERTEX
  8
0
 10
43989.10462
 20
995.35027
 30
0.0
  0
VERTEX
  8
0
 10
43978.55898
 20
994.98112
 30
0.0
  0
VERTEX
  8
0
 10
43938.29957
 20
960.72167
 30
0.0
  0
VERTEX
  8
0
 10
43950.80745
 20
952.92896
 30
0.0
  0
VERTEX
  8
0
 10
43969.13991
 20
944.04448
 30
0.0
  0
VERTEX
  8
0
 10
44014.31918
 20
982.21018
 30
0.0
  0
VERTEX
  8
0
 10
44000.0
 20
1000.0
 30
0.0
  0
VERTEX
  8
0
 10
44000.0
 20
1000.0
 30
0.0
  0
SEQEND
  0
POLYLINE
  8
0
 66
1
 10
0.0
 20
0.0
 30
0.0
 70
8
  0
VERTEX
  8
0
 10
45000.0
 20
1000.0
 30
0.0
  0
VERTEX
  8
0
 10
44926.52029
 20
999.90931
 30
0.0
  0
VERTEX
  8
0
 10
44898.35288
 20
1008.9817
 30
0.0
  0
VERTEX
  8
0
 10
44871.53654
 20
951.26665
 30
0.0
  0
VERTEX
  8
0
 10
44881.47899
 20
923.54904
 30
0.0
  0
VERTEX
  8
0
 10
44933.23811
 20
901.19839
 30
0.0
  0
VERTEX
  8
0
 10
44954.64724
 20
904.99848
 30
0.0
  0
VERTEX
  8
0
 10
45000.0
 20
1000.0
 30
0.0
  0
VERTEX
  8
0
 10
45000.0
 20
1000.0
 30
0.0
  0
SEQEND
  0
POLYLINE
  8
0
 66
1
 10
0.0
 20
0.0
 30
0.0
 70
8
  0
VERTEX
  8
0
 10
46000.0
 20
1000.0
 30
0.0
  0
VERTEX
  8
0
 10
46000.40789
 20
1029.69988
 30
0.0
  0
VERTEX
  8
0
 10
45933.89801
 20
1033.72483
 30
0.0
  0
VERTEX
  8
0
 10
45929.39285
 20
990.39995
 30
0.0
  0
VERTEX
  8
0
 10
46000.0
 20
1000.0
 30
0.0
  0
VERTEX
  8
0
 10
46000.0
 20
1000.0
 30
0.0
  0
SEQEND
  0
POLYLINE
  8
0
 66
1
 10
0.0
 20
0.0
 30
0.0
 70
8
  0
VERTEX
  8
0
 10
47000.0
 20
1000.0
 30
0.0
  0
VERTEX
  8
0
 10
46964.09013
 20
1038.20003
 30
0.0
  0
VERTEX
  8
0
 10
46926.78564
 20
1027.39669
 30
0.0
  0
VERTEX
  8
0
 10
46931.19031
 20
1009.15323
 30
0.0
  0
VERTEX
  8
0
 10
46952.39394
 20
982.36963
 30
0.0
  0
VERTEX
  8
0
 10
47000.0
 20
1000.0
 30
0.0
  0
VERTEX
  8
0
 10
47000.0
 20
1000.0
 30
0.0
  0
SEQEND
  0
POLYLINE
  8
0
 66
1
 10
0.0
 20
0.0
 30
0.0
 70
8
  0
VERTEX
  8
0
 10
48000.0
 20
1000.0
 30
0.0
  0
VERTEX
  8
0
 10
47974.48352
 20
1012.40226
 30
0.0
  0
VERTEX
  8
0
 10
47943.91989
 20
1019.57331
 30
0.0
  0
VERTEX
  8
0
 10
47941.01418
 20
1009.94255
 30
0.0
  0
VERTEX
  8
0
 10
47932.24209
 20
1009.19711
 30
0.0
  0
VERTEX
  8
0
 10
47907.34206
 20
916.33668
 30
0.0
  0
VERTEX
  8
0
 10
47971.0095
 20
904.9149
 30
0.0
  0
VERTEX
  8
0
 10
47984.66714
 20
922.5248
 30
0.0
  0
VERTEX
  8
0
 10
48000.0
 20
1000.0
 30
0.0
  0
VERTEX
  8
0
 10
48000.0
 20
1000.0
 30
0.0
  0
SEQEND
  0
POLYLINE
  8
0
 66
1
 10
0.0
 20
0.0
 30
0.0
 70
8
  0
VERTEX
  8
0
 10
0.0
 20
1000.0
 30
0.0
  0
VERTEX
  8
0
 10
49.51969
 20
1013.15437
 30
0.0
  0
VERTEX
  8
0
 10
55.34904
 20
1033.03435
 30
0.0
  0
VERTEX
  8
0
 10
70.7053
 20
1045.59562
 30
0.0
  0
VERTEX
  8
0
 10
63.81411
 20
1069.0542599999999
 30
0.0
  0
VERTEX
  8
0
 10
50.87958999999999
 20
1071.76591
 30
0.0
  0
VERTEX
  8
0
 10
38.588390000000004
 20
1077.07846
 30
0.0
  0
VERTEX
  8
0
 10
-8.011610000000001
 20
1061.06268
 30
0.0
  0
VERTEX
  8
0
 10
0.0
 20
1000.0
 30
0.0
  0
VERTEX
  8
0
 10
0.0
 20
1000.0
 30
0.0
  0
SEQEND
  0
POLYLINE
  8
0
 66
1
 10
0.0
 20
0.0
 30
0.0
 70
8
  0
VERTEX
  8
0
 10
1000.0
 20
2000.0
 30
0.0
  0
VERTEX
  8
0
 10
1034.302
 20
2018.99884
 30
0.0
  0
VERTEX
  8
0
 10
1048.05025
 20
2015.59031
 30
0.0
  0
VERTEX
  8
0
 10
1084.45936
 20
1955.20071
 30
0.0
  0
VERTEX
  8
0
 10
1086.27837
 20
1945.0293
 30
0.0
  0
VERTEX
  8
0
 10
1056.17714
 20
1934.26713
 30
0.0
  0
VERTEX
  8
0
 10
1035.40761
 20
1953.5557
 30
0.0
  0
VERTEX
  8
0
 10
1023.14541
 20
1958.25279
 30
0.0
  0
VERTEX
  8
0
 10
1000.0
 20
2000.0
 30
0.0
  0
VERTEX
  8
0
 10
1000.0
 20
2000.0
 30
0.0
  0
SEQEND
  0
POLYLINE
  8
0
 66
1
 10
0.0
 20
0.0
 30
0.0
 70
8
  0
VERTEX
  8
0
 10
2000.0
 20
2000.0
 30
0.0
  0
VERTEX
  8
0
 10
2019.40511
 20
1982.99024
 30
0.0
  0
VERTEX
  8
0
 10
2036.6311
 20
1973.33541
 30
0.0
  0
VERTEX
  8
0
 10
2058.90962
 20
1962.63493
 30
0.0
  0
VERTEX
  8
0
 10
2064.32213
 20
2015.93803
 30
0.0
  0
VERTEX
  8
0
 10
2034.07726
 20
2026.45922
 30
0.0
  0
VERTEX
  8
0
 10
2029.17498
 20
2021.58331
 30
0.0
  0
VERTEX
  8
0
 10
2010.78056
 20
2025.99779
 30
0.0
  0
VERTEX
  8
0
 10
2001.47291
 20
2017.16029
 30
0.0
  0
VERTEX
  8
0
 10
2000.0
 20
2000.0
 30
0.0
  0
VERTEX
  8
0
 10
2000.0
 20
2000.0
 30
0.0
  0
SEQEND
  0
POLYLINE
  8
0
 66
1
 10
0.0
 20
0.0
 30
0.0
 70
8
  0
VERTEX
  8
0
 10
3000.0
 20
2000.0
 30
0.0
  0
VERTEX
  8
0
 10
2976.9612
 20
2022.99247
 30
0.0
  0
VERTEX
  8
0
 10
2980.37766
 20
2027.69636
 30
0.0
  0
VERTEX
  8
0
 10
2968.22649
 20
2039.84519
 30
0.0
  0
VERTEX
  8
0
 10
2996.2291
 20
2054.44598
 30
0.0
  0
VERTEX
  8
0
 10
3024.29816
 20
2024.30227
 30
0.0
  0
VERTEX
  8
0
 10
3000.0
 20
2000.0
 30
0.0
  0
VERTEX
  8
0
 10
3000.0
 20
2000.0
 30
0.0
  0
SEQEND
  0
POLYLINE
  8
0
 66
1
 10
0.0
 20
0.0
 30
0.0
 70
8
  0
VERTEX
  8
0
 10
4000.0
 20
2000.0
 30
0.0
  0
VERTEX
  8
0
 10
3994.86417
 20
2036.73347
 30
0.0
  0
VERTEX
  8
0
 10
4028.85947
 20
2049.44128
 30
0.0
  0
VERTEX
  8
0
 10
4038.86029
 20
2029.16268
 30
0.0
  0
VERTEX
  8
0
 10
4012.78633
 20
2000.10278
 30
0.0
  0
VERTEX
  8
0
 10
4000.0
 20
2000.0
 30
0.0
  0
VERTEX
  8
0
 10
4000.0
 20
2000.0
 30
0.0
  0
SEQEND
  0
POLYLINE
  8
0
 66
1
 10
0.0
 20
0.0
 30
0.0
 70
8
  0
VERTEX
  8
0
 10
5000.0
 20
2000.0
 30
0.0
  0
VERTEX
  8
0
 10
4990.12406
 20
2055.38873
 30
0.0
  0
VERTEX
  8
0
 10
5036.19921
 20
2064.16841
 30
0.0
  0
VERTEX
  8
0
 10
5062.90209
 20
2045.7271700000001
 30
0.0
  0
VERTEX
  8
0
 10
5096.90499
 20
2045.99171
 30
0.0
  0
VERTEX
  8
0
 10
5103.18653
 20
2035.25701
 30
0.0
  0
VERTEX
  8
0
 10
5114.31014
 20
2032.9375
 30
0.0
  0
VERTEX
  8
0
 10
5113.20213
 20
2023.51392
 30
0.0
  0
VERTEX
  8
0
 10
5093.18461
 20
2014.81594
 30
0.0
  0
VERTEX
  8
0
 10
5085.87848
 20
2008.98374
 30
0.0
  0
VERTEX
  8
0
 10
5015.65284
 20
1996.04633
 30
0.0
  0
VERTEX
  8
0
 10
5000.0
 20
2000.0
 30
0.0
  0
VERTEX
  8
0
 10
5000.0
 20
2000.0
 30
0.0
  0
SEQEND
  0
POLYLINE
  8
0
 66
1
 10
0.0
 20
0.0
 30
0.0
 70
8
  0
VERTEX
  8
0
 10
6000.0
 20
2000.0
 30
0.0
  0
VERTEX
  8
0
 10
6017.81481
 20
2077.51754
 30
0.0
  0
VERTEX
  8
0
 10
6041.05113
 20
2108.08723
 30
0.0
  0
VERTEX
  8
0
 10
6071.36551
 20
2118.96983
 30
0.0
  0
VERTEX
  8
0
 10
6055.2285
 20
2098.24188
 30
0.0
  0
VERTEX
  8
0
 10
6045.84257
 20
2048.76591
 30
0.0
  0
VERTEX
  8
0
 10
6054.78901
 20
2036.67525
 30
0.0
  0
VERTEX
  8
0
 10
6043.76843
 20
1989.47116
 30
0.0
  0
VERTEX
  8
0
 10
6000.0
 20
2000.0
 30
0.0
  0
VERTEX
  8
0
 10
6000.0
 20
2000.0
 30
0.0
  0
SEQEND
  0
POLYLINE
  8
0
 66
1
 10
0.0
 20
0.0
 30
0.0
 70
8
  0
VERTEX
  8
0
 10
7000.0
 20
2000.0
 30
0.0
  0
VERTEX
  8
0
 10
7032.87819
 20
2059.96861
 30
0.0
  0
VERTEX
  8
0
 10
7000.20224
 20
2081.70831
 30
0.0
  0
VERTEX
  8
0
 10
6983.77454
 20
2050.98587
 30
0.0
  0
VERTEX
  8
0
 10
6985.04306
 20
2010.68213
 30
0.0
  0
VERTEX
  8
0
 10
7000.0
 20
2000.0
 30
0.0
  0
VERTEX
  8
0
 10
7000.0
 20
2000.0
 30
0.0
  0
SEQEND
  0
POLYLINE
  8
0
 66
1
 10
0.0
 20
0.0
 30
0.0
 70
8
  0
VERTEX
  8
0
 10
8000.0
 20
2000.0
 30
0.0
  0
VERTEX
  8
0
 10
7898.98421
 20
2005.71071
 30
0.0
  0
VERTEX
  8
0
 10
7894.2785
 20
2035.77943
 30
0.0
  0
VERTEX
  8
0
 10
7906.2873
 20
2052.61178
 30
0.0
  0
VERTEX
  8
0
 10
7981.1248
 20
2029.08867
 30
0.0
  0
VERTEX
  8
0
 10
7993.77815
 20
2012.60817
 30
0.0
  0
VERTEX
  8
0
 10
8000.0
 20
2000.0
 30
0.0
  0
VERTEX
  8
0
 10
8000.0
 20
2000.0
 30
0.0
  0
SEQEND
  0
POLYLINE
  8
0
 66
1
 10
0.0
 20
0.0
 30
0.0
 70
8
  0
VERTEX
  8
0
 10
9000.0
 20
2000.0
 30
0.0
  0
VERTEX
  8
0
 10
9022.62557
 20
2008.56812
 30
0.0
  0
VERTEX
  8
0
 10
9030.14623
 20
2139.52414
 30
0.0
  0
VERTEX
  8
0
 10
9017.31861
 20
2145.92849
 30
0.0
  0
VERTEX
  8
0
 10
9000.32337
 20
2129.17044
 30
0.0
  0
VERTEX
  8
0
 10
9000.0
 20
2000.0
 30
0.0
  0
VERTEX
  8
0
 10
9000.0
 20
2000.0
 30
0.0
  0
SEQEND
  0
POLYLINE
  8
0
 66
1
 10
0.0
 20
0.0
 30
0.0
 70
8
  0
VERTEX
  8
0
 10
10000.0
 20
2000.0
 30
0.0
  0
VERTEX
  8
0
 10
9985.37292
 20
2009.90649
 30
0.0
  0
VERTEX
  8
0
 10
9974.40327
 20
2017.3361
 30
0.0
  0
VERTEX
  8
0
 10
9951.20153
 20
2105.04295
 30
0.0
  0
VERTEX
  8
0
 10
9944.65315
 20
2162.65639
 30
0.0
  0
VERTEX
  8
0
 10
9974.02805
 20
2154.0881
 30
0.0
  0
VERTEX
  8
0
 10
9987.76538
 20
2137.10465
 30
0.0
  0
VERTEX
  8
0
 10
10000.0
 20
2000.0
 30
0.0
  0
VERTEX
  8
0
 10
10000.0
 20
2000.0
 30
0.0
  0
SEQEND
  0
POLYLINE
  8
0
 66
1
 10
0.0
 20
0.0
 30
0.0
 70
8
  0
VERTEX
  8
0
 10
11000.0
 20
2000.0
 30
0.0
  0
VERTEX
  8
0
 10
10989.95847
 20
2007.4349
 30
0.0
  0
VERTEX
  8
0
 10
10976.49072
 20
2011.93938
 30
0.0
  0
VERTEX
  8
0
 10
10968.78903
 20
2015.17285
 30
0.0
  0
VERTEX
  8
0
 10
11026.21362
 20
2069.46562
 30
0.0
  0
VERTEX
  8
0
 10
11086.60861
 20
2120.44068
 30
0.0
  0
VERTEX
  8
0
 10
11109.52938
 20
2103.00138
 30
0.0
  0
VERTEX
  8
0
 10
11111.95447
 20
2089.56772
 30
0.0
  0
VERTEX
  8
0
 10
11000.0
 20
2000.0
 30
0.0
  0
VERTEX
  8
0
 10
11000.0
 20
2000.0
 30
0.0
  0
SEQEND
  0
POLYLINE
  8
0
 66
1
 10
0.0
 20
0.0
 30
0.0
 70
8
  0
VERTEX
  8
0
 10
12000.0
 20
2000.0
 30
0.0
  0
VERTEX
  8
0
 10
12091.85047
 20
2021.31086
 30
0.0
  0
VERTEX
  8
0
 10
12098.58854
 20
2040.41794
 30
0.0
  0
VERTEX
  8
0
 10
12100.85103
 20
2054.40834
 30
0.0
  0
VERTEX
  8
0
 10
11994.26215
 20
2036.90301
 30
0.0
  0
VERTEX
  8
0
 10
11988.4708
 20
2027.48452
 30
0.0
  0
VERTEX
  8
0
 10
12000.0
 20
2000.0
 30
0.0
  0
VERTEX
  8
0
 10
12000.0
 20
2000.0
 30
0.0
  0
SEQEND
  0
POLYLINE
  8
0
 66
1
 10
0.0
 20
0.0
 30
0.0
 70
8
  0
VERTEX
  8
0
 10
13000.0
 20
2000.0
 30
0.0
  0
VERTEX
  8
0
 10
12971.90048
 20
2003.11816
 30
0.0
  0
VERTEX
  8
0
 10
12978.17134
 20
2091.01646
 30
0.0
  0
VERTEX
  8
0
 10
12995.87892
 20
2119.80304
 30
0.0
  0
VERTEX
  8
0
 10
13005.12277
 20
2124.63434
 30
0.0
  0
VERTEX
  8
0
 10
13012.19958
 20
2109.93725
 30
0.0
  0
VERTEX
  8
0
 10
13000.0
 20
2000.0
 30
0.0
  0
VERTEX
  8
0
 10
13000.0
 20
2000.0
 30
0.0
  0
SEQEND
  0
POLYLINE
  8
0
 66
1
 10
0.0
 20
0.0
 30
0.0
 70
8
  0
VERTEX
  8
0
 10
14000.0
 20
2000.0
 30
0.0
  0
VERTEX
  8
0
 10
14043.23256
 20
2078.4510099999998
 30
0.0
  0
VERTEX
  8
0
 10
14033.28744
 20
2095.13469
 30
0.0
  0
VERTEX
  8
0
 10
13993.79423
 20
2113.44378
 30
0.0
  0
VERTEX
  8
0
 10
13967.76532
 20
2058.42376
 30
0.0
  0
VERTEX
  8
0
 10
13971.46449
 20
2047.64545
 30
0.0
  0
VERTEX
  8
0
 10
13965.60681
 20
2013.95704
 30
0.0
  0
VERTEX
  8
0
 10
14000.0
 20
2000.0
 30
0.0
  0
VERTEX
  8
0
 10
14000.0
 20
2000.0
 30
0.0
  0
SEQEND
  0
POLYLINE
  8
0
 66
1
 10
0.0
 20
0.0
 30
0.0
 70
8
  0
VERTEX
  8
0
 10
15000.0
 20
2000.0
 30
0.0
  0
VERTEX
  8
0
 10
15019.98161
 20
2015.16218
 30
0.0
  0
VERTEX
  8
0
 10
15054.12001
 20
2024.80157
 30
0.0
  0
VERTEX
  8
0
 10
15037.31113
 20
2074.2853
 30
0.0
  0
VERTEX
  8
0
 10
15019.17923
 20
2068.81074
 30
0.0
  0
VERTEX
  8
0
 10
15017.24077
 20
2078.30224
 30
0.0
  0
VERTEX
  8
0
 10
14971.47865
 20
2055.8011
 30
0.0
  0
VERTEX
  8
0
 10
15000.0
 20
2000.0
 30
0.0
  0
VERTEX
  8
0
 10
15000.0
 20
2000.0
 30
0.0
  0
SEQEND
  0
POLYLINE
  8
0
 66
1
 10
0.0
 20
0.0
 30
0.0
 70
8
  0
VERTEX
  8
0
 10
16000.0
 20
2000.0
 30
0.0
  0
VERTEX
  8
0
 10
15926.58759
 20
2041.02985
 30
0.0
  0
VERTEX
  8
0
 10
15931.72807
 20
2046.49328
 30
0.0
  0
VERTEX
  8
0
 10
15913.08544
 20
2061.19591
 30
0.0
  0
VERTEX
  8
0
 10
15937.33655
 20
2069.05735
 30
0.0
  0
VERTEX
  8
0
 10
15949.97862
 20
2081.07487
 30
0.0
  0
VERTEX
  8
0
 10
16024.94099
 20
2041.47334
 30
0.0
  0
VERTEX
  8
0
 10
16000.0
 20
2000.0
 30
0.0
  0
VERTEX
  8
0
 10
16000.0
 20
2000.0
 30
0.0
  0
SEQEND
  0
POLYLINE
  8
0
 66
1
 10
0.0
 20
0.0
 30
0.0
 70
8
  0
VERTEX
  8
0
 10
17000.0
 20
2000.0
 30
0.0
  0
VERTEX
  8
0
 10
17045.11534
 20
1980.75285
 30
0.0
  0
VERTEX
  8
0
 10
17065.38038
 20
2018.2279
 30
0.0
  0
VERTEX
  8
0
 10
17057.60114
 20
2027.46799
 30
0.0
  0
VERTEX
  8
0
 10
17029.16777
 20
2045.66126
 30
0.0
  0
VERTEX
  8
0
 10
17010.09545
 20
2007.31854
 30
0.0
  0
VERTEX
  8
0
 10
17003.13393
 20
2009.88129
 30
0.0
  0
VERTEX
  8
0
 10
17000.0
 20
2000.0
 30
0.0
  0
VERTEX
  8
0
 10
17000.0
 20
2000.0
 30
0.0
  0
SEQEND
  0
POLYLINE
  8
0
 66
1
 10
0.0
 20
0.0
 30
0.0
 70
8
  0
VERTEX
  8
0
 10
18000.0
 20
2000.0
 30
0.0
  0
VERTEX
  8
0
 10
17961.68644
 20
2046.4124
 30
0.0
  0
VERTEX
  8
0
 10
17922.18709
 20
2014.45282
 30
0.0
  0
VERTEX
  8
0
 10
17915.5004
 20
1993.73097
 30
0.0
  0
VERTEX
  8
0
 10
17942.21313
 20
1949.91224
 30
0.0
  0
VERTEX
  8
0
 10
17973.77349
 20
1950.5519199999999
 30
0.0
  0
VERTEX
  8
0
 10
17976.99737
 20
1962.46044
 30
0.0
  0
VERTEX
  8
0
 10
17986.30057
 20
1969.46071
 30
0.0
  0
VERTEX
  8
0
 10
17989.83047
 20
1990.79689
 30
0.0
  0
VERTEX
  8
0
 10
18000.0
 20
2000.0
 30
0.0
  0
VERTEX
  8
0
 10
18000.0
 20
2000.0
 30
0.0
  0
SEQEND
  0
POLYLINE
  8
0
 66
1
 10
0.0
 20
0.0
 30
0.0
 70
8
  0
VERTEX
  8
0
 10
19000.0
 20
2000.0
 30
0.0
  0
VERTEX
  8
0
 10
19066.44907
 20
2069.14448
 30
0.0
  0
VERTEX
  8
0
 10
19020.67058
 20
2093.07311
 30
0.0
  0
VERTEX
  8
0
 10
18983.98454
 20
2086.11789
 30
0.0
  0
VERTEX
  8
0
 10
18940.20055
 20
2036.86838
 30
0.0
  0
VERTEX
  8
0
 10
18941.21963
 20
2022.75259
 30
0.0
  0
VERTEX
  8
0
 10
18975.02422
 20
2005.05256
 30
0.0
  0
VERTEX
  8
0
 10
18986.66917
 20
2011.33886
 30
0.0
  0
VERTEX
  8
0
 10
19000.0
 20
2000.0
 30
0.0
  0
VERTEX
  8
0
 10
19000.0
 20
2000.0
 30
0.0
  0
SEQEND
  0
POLYLINE
  8
0
 66
1
 10
0.0
 20
0.0
 30
0.0
 70
8
  0
VERTEX
  8
0
 10
20000.0
 20
2000.0
 30
0.0
  0
VERTEX
  8
0
 10
20050.05364
 20
2065.43009
 30
0.0
  0
VERTEX
  8
0
 10
20055.10711
 20
2081.37199
 30
0.0
  0
VERTEX
  8
0
 10
20068.02297
 20
2095.18288
 30
0.0
  0
VERTEX
  8
0
 10
20055.68935
 20
2104.75608
 30
0.0
  0
VERTEX
  8
0
 10
20042.99182
 20
2099.71423
 30
0.0
  0
VERTEX
  8
0
 10
20029.61962
 20
2086.25756
 30
0.0
  0
VERTEX
  8
0
 10
20023.96749
 20
2083.692
 30
0.0
  0
VERTEX
  8
0
 10
19973.96235
 20
2020.2101
 30
0.0
  0
VERTEX
  8
0
 10
20000.0
 20
2000.0
 30
0.0
  0
VERTEX
  8
0
 10
20000.0
 20
2000.0
 30
0.0
  0
SEQEND
  0
POLYLINE
  8
0
 66
1
 10
0.0
 20
0.0
 30
0.0
 70
8
  0
VERTEX
  8
0
 10
21000.0
 20
2000.0
 30
0.0
  0
VERTEX
  8
0
 10
20982.32653
 20
2005.25332
 30
0.0
  0
VERTEX
  8
0
 10
20966.04352
 20
2007.5119
 30
0.0
  0
VERTEX
  8
0
 10
20947.56776
 20
1968.42446
 30
0.0
  0
VERTEX
  8
0
 10
20966.63374
 20
1960.17602
 30
0.0
  0
VERTEX
  8
0
 10
20991.57552
 20
1951.3901
 30
0.0
  0
VERTEX
  8
0
 10
20996.00351
 20
1958.39906
 30
0.0
  0
VERTEX
  8
0
 10
20998.68822
 20
1996.62268
 30
0.0
  0
VERTEX
  8
0
 10
21000.0
 20
2000.0
 30
0.0
  0
VERTEX
  8
0
 10
21000.0
 20
2000.0
 30
0.0
  0
SEQEND
  0
POLYLINE
  8
0
 66
1
 10
0.0
 20
0.0
 30
0.0
 70
8
  0
VERTEX
  8
0
 10
22000.0
 20
2000.0
 30
0.0
  0
VERTEX
  8
0
 10
21985.95112
 20
2002.97498
 30
0.0
  0
VERTEX
  8
0
 10
21976.2893
 20
2010.27315
 30
0.0
  0
VERTEX
  8
0
 10
21908.10628
 20
2002.9997
 30
0.0
  0
VERTEX
  8
0
 10
21911.7243
 20
1985.54046
 30
0.0
  0
VERTEX
  8
0
 10
21919.44433
 20
1962.6645
 30
0.0
  0
VERTEX
  8
0
 10
21995.69246
 20
1970.52691
 30
0.0
  0
VERTEX
  8
0
 10
22000.0
 20
2000.0
 30
0.0
  0
VERTEX
  8
0
 10
22000.0
 20
2000.0
 30
0.0
  0
SEQEND
  0
POLYLINE
  8
0
 66
1
 10
0.0
 20
0.0
 30
0.0
 70
8
  0
VERTEX
  8
0
 10
23000.0
 20
2000.0
 30
0.0
  0
VERTEX
  8
0
 10
22974.52205
 20
2054.59994
 30
0.0
  0
VERTEX
  8
0
 10
22971.07791
 20
2078.86166
 30
0.0
  0
VERTEX
  8
0
 10
22921.73514
 20
2077.68645
 30
0.0
  0
VERTEX
  8
0
 10
22905.93157
 20
2060.15436
 30
0.0
  0
VERTEX
  8
0
 10
22908.31737
 20
2013.49441
 30
0.0
  0
VERTEX
  8
0
 10
22918.36045
 20
1998.9666
 30
0.0
  0
VERTEX
  8
0
 10
23000.0
 20
2000.0
 30
0.0
  0
VERTEX
  8
0
 10
23000.0
 20
2000.0
 30
0.0
  0
SEQEND
  0
POLYLINE
  8
0
 66
1
 10
0.0
 20
0.0
 30
0.0
 70
8
  0
VERTEX
  8
0
 10
24000.0
 20
2000.0
 30
0.0
  0
VERTEX
  8
0
 10
24029.01267
 20
2024.98278
 30
0.0
  0
VERTEX
  8
0
 10
23978.39112
 20
2065.3086
 30
0.0
  0
VERTEX
  8
0
 10
23932.86417
 20
2031.03474
 30
0.0
  0
VERTEX
  8
0
 10
24000.0
 20
2000.0
 30
0.0
  0
VERTEX
  8
0
 10
24000.0
 20
2000.0
 30
0.0
  0
SEQEND
  0
POLYLINE
  8
0
 66
1
 10
0.0
 20
0.0
 30
0.0
 70
8
  0
VERTEX
  8
0
 10
25000.0
 20
2000.0
 30
0.0
  0
VERTEX
  8
0
 10
24991.3736
 20
2045.58065
 30
0.0
  0
VERTEX
  8
0
 10
24959.54567
 20
2046.38111
 30
0.0
  0
VERTEX
  8
0
 10
24954.46317
 20
2028.2894900000001
 30
0.0
  0
VERTEX
  8
0
 10
24957.64196
 20
1997.4775
 30
0.0
  0
VERTEX
  8
0
 10
25000.0
 20
2000.0
 30
0.0
  0
VERTEX
  8
0
 10
25000.0
 20
2000.0
 30
0.0
  0
SEQEND
  0
POLYLINE
  8
0
 66
1
 10
0.0
 20
0.0
 30
0.0
 70
8
  0
VERTEX
  8
0
 10
26000.0
 20
2000.0
 30
0.0
  0
VERTEX
  8
0
 10
26001.31783
 20
2030.95721
 30
0.0
  0
VERTEX
  8
0
 10
25995.23759
 20
2064.72936
 30
0.0
  0
VERTEX
  8
0
 10
25984.38145
 20
2063.50022
 30
0.0
  0
VERTEX
  8
0
 10
25979.8421
 20
2071.9861300000002
 30
0.0
  0
VERTEX
  8
0
 10
25876.51535
 20
2057.0053
 30
0.0
  0
VERTEX
  8
0
 10
25892.68572
 20
1988.16806
 30
0.0
  0
VERTEX
  8
0
 10
25916.14761
 20
1982.03793
 30
0.0
  0
VERTEX
  8
0
 10
26000.0
 20
2000.0
 30
0.0
  0
VERTEX
  8
0
 10
26000.0
 20
2000.0
 30
0.0
  0
SEQEND
  0
POLYLINE
  8
0
 66
1
 10
0.0
 20
0.0
 30
0.0
 70
8
  0
VERTEX
  8
0
 10
27000.0
 20
2000.0
 30
0.0
  0
VERTEX
  8
0
 10
27039.6651
 20
2021.2675
 30
0.0
  0
VERTEX
  8
0
 10
27035.65716
 20
2040.61643
 30
0.0
  0
VERTEX
  8
0
 10
27043.94248
 20
2055.00597
 30
0.0
  0
VERTEX
  8
0
 10
27026.45201
 20
2075.28542
 30
0.0
  0
VERTEX
  8
0
 10
27013.18154
 20
2075.37954
 30
0.0
  0
VERTEX
  8
0
 10
26999.27613
 20
2077.9829799999998
 30
0.0
  0
VERTEX
  8
0
 10
26963.67128
 20
2054.62726
 30
0.0
  0
VERTEX
  8
0
 10
27000.0
 20
2000.0
 30
0.0
  0
VERTEX
  8
0
 10
27000.0
 20
2000.0
 30
0.0
  0
SEQEND
  0
POLYLINE
  8
0
 66
1
 10
0.0
 20
0.0
 30
0.0
 70
8
  0
VERTEX
  8
0
 10
28000.0
 20
2000.0
 30
0.0
  0
VERTEX
  8
0
 10
28013.91058
 20
2028.31911
 30
0.0
  0
VERTEX
  8
0
 10
28025.59849
 20
2030.7636
 30
0.0
  0
VERTEX
  8
0
 10
28085.0327
 20
1995.74062
 30
0.0
  0
VERTEX
  8
0
 10
28091.96922
 20
1988.21081
 30
0.0
  0
VERTEX
  8
0
 10
28076.48504
 20
1968.13452
 30
0.0
  0
VERTEX
  8
0
 10
28050.98762
 20
1975.86492
 30
0.0
  0
VERTEX
  8
0
 10
28039.64423
 20
1975.02335
 30
0.0
  0
VERTEX
  8
0
 10
28000.0
 20
2000.0
 30
0.0
  0
VERTEX
  8
0
 10
28000.0
 20
2000.0
 30
0.0
  0
SEQEND
  0
POLYLINE
  8
0
 66
1
 10
0.0
 20
0.0
 30
0.0
 70
8
  0
VERTEX
  8
0
 10
29000.0
 20
2000.0
 30
0.0
  0
VERTEX
  8
0
 10
29028.23876
 20
2003.37369
 30
0.0
  0
VERTEX
  8
0
 10
29049.93076
 20
2010.51494
 30
0.0
  0
VERTEX
  8
0
 10
29076.87786
 20
2021.11102
 30
0.0
  0
VERTEX
  8
0
 10
29048.76633
 20
2066.25714
 30
0.0
  0
VERTEX
  8
0
 10
29014.66687
 20
2048.82175
 30
0.0
  0
VERTEX
  8
0
 10
29013.22002
 20
2040.98387
 30
0.0
  0
VERTEX
  8
0
 10
28993.71153
 20
2028.86883
 30
0.0
  0
VERTEX
  8
0
 10
28990.70404
 20
2014.30743
 30
0.0
  0
VERTEX
  8
0
 10
29000.0
 20
2000.0
 30
0.0
  0
VERTEX
  8
0
 10
29000.0
 20
2000.0
 30
0.0
  0
SEQEND
  0
POLYLINE
  8
0
 66
1
 10
0.0
 20
0.0
 30
0.0
 70
8
  0
VERTEX
  8
0
 10
30000.0
 20
2000.0
 30
0.0
  0
VERTEX
  8
0
 10
30007.3149
 20
2030.54695
 30
0.0
  0
VERTEX
  8
0
 10
30014.74224
 20
2031.0652
 30
0.0
  0
VERTEX
  8
0
 10
30018.62345
 20
2047.19007
 30
0.0
  0
VERTEX
  8
0
 10
30054.36984
 20
2036.5339
 30
0.0
  0
VERTEX
  8
0
 10
30043.22204
 20
1997.99144
 30
0.0
  0
VERTEX
  8
0
 10
30000.0
 20
2000.0
 30
0.0
  0
VERTEX
  8
0
 10
30000.0
 20
2000.0
 30
0.0
  0
SEQEND
  0
POLYLINE
  8
0
 66
1
 10
0.0
 20
0.0
 30
0.0
 70
8
  0
VERTEX
  8
0
 10
31000.0
 20
2000.0
 30
0.0
  0
VERTEX
  8
0
 10
31017.23375
 20
2042.76748
 30
0.0
  0
VERTEX
  8
0
 10
31059.77511
 20
2028.35545
 30
0.0
  0
VERTEX
  8
0
 10
31057.58859
 20
1998.89517
 30
0.0
  0
VERTEX
  8
0
 10
31013.13784
 20
1989.66808
 30
0.0
  0
VERTEX
  8
0
 10
31000.0
 20
2000.0
 30
0.0
  0
VERTEX
  8
0
 10
31000.0
 20
2000.0
 30
0.0
  0
SEQEND
  0
POLYLINE
  8
0
 66
1
 10
0.0
 20
0.0
 30
0.0
 70
8
  0
VERTEX
  8
0
 10
32000.0
 20
2000.0
 30
0.0
  0
VERTEX
  8
0
 10
31943.67761
 20
1998.35179
 30
0.0
  0
VERTEX
  8
0
 10
31941.25489
 20
2039.91129
 30
0.0
  0
VERTEX
  8
0
 10
31963.2041
 20
2061.01445
 30
0.0
  0
VERTEX
  8
0
 10
31967.58437
 20
2090.89706
 30
0.0
  0
VERTEX
  8
0
 10
31979.09638
 20
2095.05047
 30
0.0
  0
VERTEX
  8
0
 10
31982.91736
 20
2104.52118
 30
0.0
  0
VERTEX
  8
0
 10
31992.11909
 20
2102.35397
 30
0.0
  0
VERTEX
  8
0
 10
31998.01868
 20
2083.6792100000002
 30
0.0
  0
VERTEX
  8
0
 10
32002.80959
 20
2076.52629
 30
0.0
  0
VERTEX
  8
0
 10
32006.06134
 20
2013.23949
 30
0.0
  0
VERTEX
  8
0
 10
32000.0
 20
2000.0
 30
0.0
  0
VERTEX
  8
0
 10
32000.0
 20
2000.0
 30
0.0
  0
SEQEND
  0
POLYLINE
  8
0
 66
1
 10
0.0
 20
0.0
 30
0.0
 70
8
  0
VERTEX
  8
0
 10
33000.0
 20
2000.0
 30
0.0
  0
VERTEX
  8
0
 10
32979.34108
 20
2055.68567
 30
0.0
  0
VERTEX
  8
0
 10
32983.04537
 20
2088.172
 30
0.0
  0
VERTEX
  8
0
 10
33000.47865
 20
2114.04969
 30
0.0
  0
VERTEX
  8
0
 10
32997.68804
 20
2091.77445
 30
0.0
  0
VERTEX
  8
0
 10
33012.32448
 20
2057.52136
 30
0.0
  0
VERTEX
  8
0
 10
33024.11859
 20
2056.44932
 30
0.0
  0
VERTEX
  8
0
 10
33036.57281
 20
2022.4278
 30
0.0
  0
VERTEX
  8
0
 10
33000.0
 20
2000.0
 30
0.0
  0
VERTEX
  8
0
 10
33000.0
 20
2000.0
 30
0.0
  0
SEQEND
  0
POLYLINE
  8
0
 66
1
 10
0.0
 20
0.0
 30
0.0
 70
8
  0
VERTEX
  8
0
 10
34000.0
 20
2000.0
 30
0.0
  0
VERTEX
  8
0
 10
34072.73924
 20
2018.89985
 30
0.0
  0
VERTEX
  8
0
 10
34065.68098
 20
2059.34721
 30
0.0
  0
VERTEX
  8
0
 10
34028.72793
 20
2049.35119
 30
0.0
  0
VERTEX
  8
0
 10
33997.35552
 20
2019.04657
 30
0.0
  0
VERTEX
  8
0
 10
34000.0
 20
2000.0
 30
0.0
  0
VERTEX
  8
0
 10
34000.0
 20
2000.0
 30
0.0
  0
SEQEND
  0
POLYLINE
  8
0
 66
1
 10
0.0
 20
0.0
 30
0.0
 70
8
  0
VERTEX
  8
0
 10
35000.0
 20
2000.0
 30
0.0
  0
VERTEX
  8
0
 10
34922.21058
 20
1961.91708
 30
0.0
  0
VERTEX
  8
0
 10
34906.15552
 20
1982.43496
 30
0.0
  0
VERTEX
  8
0
 10
34908.09886
 20
2000.06039
 30
0.0
  0
VERTEX
  8
0
 10
34973.77635
 20
2013.84375
 30
0.0
  0
VERTEX
  8
0
 10
34990.09632
 20
2006.82197
 30
0.0
  0
VERTEX
  8
0
 10
35000.0
 20
2000.0
 30
0.0
  0
VERTEX
  8
0
 10
35000.0
 20
2000.0
 30
0.0
  0
SEQEND
  0
POLYLINE
  8
0
 66
1
 10
0.0
 20
0.0
 30
0.0
 70
8
  0
VERTEX
  8
0
 10
36000.0
 20
2000.0
 30
0.0
  0
VERTEX
  8
0
 10
36020.93374
 20
2007.22243
 30
0.0
  0
VERTEX
  8
0
 10
36029.09565
 20
2127.4904500000002
 30
0.0
  0
VERTEX
  8
0
 10
36017.33303
 20
2133.75747
 30
0.0
  0
VERTEX
  8
0
 10
36001.51163
 20
2118.83537
 30
0.0
  0
VERTEX
  8
0
 10
36000.0
 20
2000.0
 30
0.0
  0
VERTEX
  8
0
 10
36000.0
 20
2000.0
 30
0.0
  0
SEQEND
  0
POLYLINE
  8
0
 66
1
 10
0.0
 20
0.0
 30
0.0
 70
8
  0
VERTEX
  8
0
 10
37000.0
 20
2000.0
 30
0.0
  0
VERTEX
  8
0
 10
36995.98836
 20
2017.17426
 30
0.0
  0
VERTEX
  8
0
 10
36992.97995
 20
2030.05431
 30
0.0
  0
VERTEX
  8
0
 10
37030.7279
 20
2110.66402
 30
0.0
  0
VERTEX
  8
0
 10
37061.51523
 20
2157.77331
 30
0.0
  0
VERTEX
  8
0
 10
37076.5115
 20
2131.67922
 30
0.0
  0
VERTEX
  8
0
 10
37075.57372
 20
2109.85689
 30
0.0
  0
VERTEX
  8
0
 10
37000.0
 20
2000.0
 30
0.0
  0
VERTEX
  8
0
 10
37000.0
 20
2000.0
 30
0.0
  0
SEQEND
  0
POLYLINE
  8
0
 66
1
 10
0.0
 20
0.0
 30
0.0
 70
8
  0
VERTEX
  8
0
 10
38000.0
 20
2000.0
 30
0.0
  0
VERTEX
  8
0
 10
37990.34745
 20
1999.73567
 30
0.0
  0
VERTEX
  8
0
 10
37980.41035
 20
1996.11559
 30
0.0
  0
VERTEX
  8
0
 10
37974.36581
 20
1994.43816
 30
0.0
  0
VERTEX
  8
0
 10
37976.28536
 20
2053.77413
 30
0.0
  0
VERTEX
  8
0
 10
37981.67577
 20
2112.52028
 30
0.0
  0
VERTEX
  8
0
 10
38003.96644
 20
2112.84387
 30
0.0
  0
VERTEX
  8
0
 10
38012.70271
 20
2105.95638
 30
0.0
  0
VERTEX
  8
0
 10
38000.0
 20
2000.0
 30
0.0
  0
VERTEX
  8
0
 10
38000.0
 20
2000.0
 30
0.0
  0
SEQEND
  0
POLYLINE
  8
0
 66
1
 10
0.0
 20
0.0
 30
0.0
 70
8
  0
VERTEX
  8
0
 10
39000.0
 20
2000.0
 30
0.0
  0
VERTEX
  8
0
 10
39007.97301
 20
2070.52928
 30
0.0
  0
VERTEX
  8
0
 10
38988.28016
 20
2084.85207
 30
0.0
  0
VERTEX
  8
0
 10
38972.91264
 20
2093.61144
 30
0.0
  0
VERTEX
  8
0
 10
38955.30922
 20
2015.53276
 30
0.0
  0
VERTEX
  8
0
 10
38964.13968
 20
2006.87486
 30
0.0
  0
VERTEX
  8
0
 10
39000.0
 20
2000.0
 30
0.0
  0
VERTEX
  8
0
 10
39000.0
 20
2000.0
 30
0.0
  0
SEQEND
  0
POLYLINE
  8
0
 66
1
 10
0.0
 20
0.0
 30
0.0
 70
8
  0
VERTEX
  8
0
 10
40000.0
 20
2000.0
 30
0.0
  0
VERTEX
  8
0
 10
39996.35984
 20
2031.15212
 30
0.0
  0
VERTEX
  8
0
 10
40074.81785
 20
2044.18662
 30
0.0
  0
VERTEX
  8
0
 10
40104.06306
 20
2031.49284
 30
0.0
  0
VERTEX
  8
0
 10
40110.39381
 20
2022.56613
 30
0.0
  0
VERTEX
  8
0
 10
40099.11801
 20
2011.58206
 30
0.0
  0
VERTEX
  8
0
 10
40000.0
 20
2000.0
 30
0.0
  0
VERTEX
  8
0
 10
40000.0
 20
2000.0
 30
0.0
  0
SEQEND
  0
POLYLINE
  8
0
 66
1
 10
0.0
 20
0.0
 30
0.0
 70
8
  0
VERTEX
  8
0
 10
41000.0
 20
2000.0
 30
0.0
  0
VERTEX
  8
0
 10
41033.22059
 20
2079.51731
 30
0.0
  0
VERTEX
  8
0
 10
41022.05551
 20
2094.55567
 30
0.0
  0
VERTEX
  8
0
 10
40982.58112
 20
2108.2637
 30
0.0
  0
VERTEX
  8
0
 10
40963.37004
 20
2052.91561
 30
0.0
  0
VERTEX
  8
0
 10
40967.98684
 20
2042.93361
 30
0.0
  0
VERTEX
  8
0
 10
40965.82484
 20
2010.03027
 30
0.0
  0
VERTEX
  8
0
 10
41000.0
 20
2000.0
 30
0.0
  0
VERTEX
  8
0
 10
41000.0
 20
2000.0
 30
0.0
  0
SEQEND
  0
POLYLINE
  8
0
 66
1
 10
0.0
 20
0.0
 30
0.0
 70
8
  0
VERTEX
  8
0
 10
42000.0
 20
2000.0
 30
0.0
  0
VERTEX
  8
0
 10
42024.38392
 20
2003.96429
 30
0.0
  0
VERTEX
  8
0
 10
42058.31912
 20
1992.99672
 30
0.0
  0
VERTEX
  8
0
 10
42067.3649
 20
2057.54622
 30
0.0
  0
VERTEX
  8
0
 10
42049.17243
 20
2062.98444
 30
0.0
  0
VERTEX
  8
0
 10
42052.0131
 20
2074.55673
 30
0.0
  0
VERTEX
  8
0
 10
42001.97385
 20
2078.80996
 30
0.0
  0
VERTEX
  8
0
 10
42000.0
 20
2000.0
 30
0.0
  0
VERTEX
  8
0
 10
42000.0
 20
2000.0
 30
0.0
  0
SEQEND
  0
POLYLINE
  8
0
 66
1
 10
0.0
 20
0.0
 30
0.0
 70
8
  0
VERTEX
  8
0
 10
43000.0
 20
2000.0
 30
0.0
  0
VERTEX
  8
0
 10
42931.33839
 20
2033.52933
 30
0.0
  0
VERTEX
  8
0
 10
42935.91099
 20
2039.60339
 30
0.0
  0
VERTEX
  8
0
 10
42918.35394
 20
2052.4452
 30
0.0
  0
VERTEX
  8
0
 10
42940.43142
 20
2063.00384
 30
0.0
  0
VERTEX
  8
0
 10
42951.71694
 20
2076.50856
 30
0.0
  0
VERTEX
  8
0
 10
43021.76346
 20
2044.58943
 30
0.0
  0
VERTEX
  8
0
 10
43000.0
 20
2000.0
 30
0.0
  0
VERTEX
  8
0
 10
43000.0
 20
2000.0
 30
0.0
  0
SEQEND
  0
POLYLINE
  8
0
 66
1
 10
0.0
 20
0.0
 30
0.0
 70
8
  0
VERTEX
  8
0
 10
44000.0
 20
2000.0
 30
0.0
  0
VERTEX
  8
0
 10
44028.5473
 20
1961.47959
 30
0.0
  0
VERTEX
  8
0
 10
44067.56072
 20
1990.27923
 30
0.0
  0
VERTEX
  8
0
 10
44066.00083
 20
2002.84029
 30
0.0
  0
VERTEX
  8
0
 10
44051.45225
 20
2033.17788
 30
0.0
  0
VERTEX
  8
0
 10
44012.98977
 20
2003.00117
 30
0.0
  0
VERTEX
  8
0
 10
44008.35356
 20
2008.53805
 30
0.0
  0
VERTEX
  8
0
 10
44000.0
 20
2000.0
 30
0.0
  0
VERTEX
  8
0
 10
44000.0
 20
2000.0
 30
0.0
  0
SEQEND
  0
POLYLINE
  8
0
 66
1
 10
0.0
 20
0.0
 30
0.0
 70
8
  0
VERTEX
  8
0
 10
45000.0
 20
2000.0
 30
0.0
  0
VERTEX
  8
0
 10
44976.02676
 20
2049.73778
 30
0.0
  0
VERTEX
  8
0
 10
44940.26506
 20
2036.69977
 30
0.0
  0
VERTEX
  8
0
 10
44932.09179
 20
2022.15351
 30
0.0
  0
VERTEX
  8
0
 10
44947.22013
 20
1978.24088
 30
0.0
  0
VERTEX
  8
0
 10
44972.3481
 20
1968.5952
 30
0.0
  0
VERTEX
  8
0
 10
44976.55416
 20
1977.15395
 30
0.0
  0
VERTEX
  8
0
 10
44984.90409
 20
1979.79999
 30
0.0
  0
VERTEX
  8
0
 10
44990.65785
 20
1995.85769
 30
0.0
  0
VERTEX
  8
0
 10
45000.0
 20
2000.0
 30
0.0
  0
VERTEX
  8
0
 10
45000.0
 20
2000.0
 30
0.0
  0
SEQEND
  0
POLYLINE
  8
0
 66
1
 10
0.0
 20
0.0
 30
0.0
 70
8
  0
VERTEX
  8
0
 10
46000.0
 20
2000.0
 30
0.0
  0
VERTEX
  8
0
 10
46057.68168
 20
2079.18728
 30
0.0
  0
VERTEX
  8
0
 10
46007.44801
 20
2111.98839
 30
0.0
  0
VERTEX
  8
0
 10
45971.02395
 20
2106.37734
 30
0.0
  0
VERTEX
  8
0
 10
45933.55796
 20
2049.6964
 30
0.0
  0
VERTEX
  8
0
 10
45936.66824
 20
2032.38587
 30
0.0
  0
VERTEX
  8
0
 10
45973.76716
 20
2008.1274
 30
0.0
  0
VERTEX
  8
0
 10
45984.73081
 20
2014.887
 30
0.0
  0
VERTEX
  8
0
 10
46000.0
 20
2000.0
 30
0.0
  0
VERTEX
  8
0
 10
46000.0
 20
2000.0
 30
0.0
  0
SEQEND
  0
POLYLINE
  8
0
 66
1
 10
0.0
 20
0.0
 30
0.0
 70
8
  0
VERTEX
  8
0
 10
47000.0
 20
2000.0
 30
0.0
  0
VERTEX
  8
0
 10
47009.54241
 20
2080.54149
 30
0.0
  0
VERTEX
  8
0
 10
47005.72446
 20
2096.59228
 30
0.0
  0
VERTEX
  8
0
 10
47009.76045
 20
2114.7688200000002
 30
0.0
  0
VERTEX
  8
0
 10
46994.24929
 20
2116.719
 30
0.0
  0
VERTEX
  8
0
 10
46985.91011
 20
2106.08997
 30
0.0
  0
VERTEX
  8
0
 10
46981.30019
 20
2087.98559
 30
0.0
  0
VERTEX
  8
0
 10
46977.75265
 20
2082.98173
 30
0.0
  0
VERTEX
  8
0
 10
46967.25421
 20
2004.11704
 30
0.0
  0
VERTEX
  8
0
 10
47000.0
 20
2000.0
 30
0.0
  0
VERTEX
  8
0
 10
47000.0
 20
2000.0
 30
0.0
  0
SEQEND
  0
POLYLINE
  8
0
 66
1
 10
0.0
 20
0.0
 30
0.0
 70
8
  0
VERTEX
  8
0
 10
48000.0
 20
2000.0
 30
0.0
  0
VERTEX
  8
0
 10
47990.79442
 20
2020.99162
 30
0.0
  0
VERTEX
  8
0
 10
47980.36693
 20
2038.06837
 30
0.0
  0
VERTEX
  8
0
 10
47937.13481
 20
2020.92658
 30
0.0
  0
VERTEX
  8
0
 10
47945.11969
 20
1996.01784
 30
0.0
  0
VERTEX
  8
0
 10
47957.07664
 20
1965.19023
 30
0.0
  0
VERTEX
  8
0
 10
47965.65945
 20
1967.23025
 30
0.0
  0
VERTEX
  8
0
 10
47996.47659
 20
1998.25501
 30
0.0
  0
VERTEX
  8
0
 10
48000.0
 20
2000.0
 30
0.0
  0
VERTEX
  8
0
 10
48000.0
 20
2000.0
 30
0.0
  0
SEQEND
  0
POLYLINE
  8
0
 66
1
 10
0.0
 20
0.0
 30
0.0
 70
8
  0
VERTEX
  8
0
 10
0.0
 20
2000.0
 30
0.0
  0
VERTEX
  8
0
 10
-12.995540000000002
 20
2006.80709
 30
0.0
  0
VERTEX
  8
0
 10
-22.798630000000003
 20
2016.36006
 30
0.0
  0
VERTEX
  8
0
 10
-82.29091
 20
2029.2585100000001
 30
0.0
  0
VERTEX
  8
0
 10
-76.19276
 20
2012.02223
 30
0.0
  0
VERTEX
  8
0
 10
-65.55053
 20
1988.57997
 30
0.0
  0
VERTEX
  8
0
 10
1.0236
 20
1973.90409
 30
0.0
  0
VERTEX
  8
0
 10
0.0
 20
2000.0
 30
0.0
  0
VERTEX
  8
0
 10
0.0
 20
2000.0
 30
0.0
  0
SEQEND
  0
POLYLINE
  8
0
 66
1
 10
0.0
 20
0.0
 30
0.0
 70
8
  0
VERTEX
  8
0
 10
1000.0
 20
3000.0
 30
0.0
  0
VERTEX
  8
0
 10
975.32031
 20
3057.03316
 30
0.0
  0
VERTEX
  8
0
 10
971.5528
 20
3082.4754199999998
 30
0.0
  0
VERTEX
  8
0
 10
926.48769
 20
3080.61878
 30
0.0
  0
VERTEX
  8
0
 10
912.49249
 20
3062.00297
 30
0.0
  0
VERTEX
  8
0
 10
915.86504
 20
3013.01918
 30
0.0
  0
VERTEX
  8
0
 10
925.4147399999999
 20
2997.88511
 30
0.0
  0
VERTEX
  8
0
 10
1000.0
 20
3000.0
 30
0.0
  0
VERTEX
  8
0
 10
1000.0
 20
3000.0
 30
0.0
  0
SEQEND
  0
POLYLINE
  8
0
 66
1
 10
0.0
 20
0.0
 30
0.0
 70
8
  0
VERTEX
  8
0
 10
2000.0
 20
3000.0
 30
0.0
  0
VERTEX
  8
0
 10
2000.63407
 20
3035.05478
 30
0.0
  0
VERTEX
  8
0
 10
1935.87847
 20
3029.1308
 30
0.0
  0
VERTEX
  8
0
 10
1931.14464
 20
2977.36739
 30
0.0
  0
VERTEX
  8
0
 10
2000.0
 20
3000.0
 30
0.0
  0
VERTEX
  8
0
 10
2000.0
 20
3000.0
 30
0.0
  0
SEQEND
  0
POLYLINE
  8
0
 66
1
 10
0.0
 20
0.0
 30
0.0
 70
8
  0
VERTEX
  8
0
 10
3000.0
 20
3000.0
 30
0.0
  0
VERTEX
  8
0
 10
3004.38777
 20
3044.82547
 30
0.0
  0
VERTEX
  8
0
 10
2975.4103
 20
3059.15603
 30
0.0
  0
VERTEX
  8
0
 10
2965.86637
 20
3045.00112
 30
0.0
  0
VERTEX
  8
0
 10
2960.4673
 20
3015.83373
 30
0.0
  0
VERTEX
  8
0
 10
3000.0
 20
3000.0
 30
0.0
  0
VERTEX
  8
0
 10
3000.0
 20
3000.0
 30
0.0
  0
SEQEND
  0
POLYLINE
  8
0
 66
1
 10
0.0
 20
0.0
 30
0.0
 70
8
  0
VERTEX
  8
0
 10
4000.0
 20
3000.0
 30
0.0
  0
VERTEX
  8
0
 10
3999.09418
 20
3023.39522
 30
0.0
  0
VERTEX
  8
0
 10
3991.07478
 20
3046.38996
 30
0.0
  0
VERTEX
  8
0
 10
3981.00636
 20
3041.82842
 30
0.0
  0
VERTEX
  8
0
 10
3976.17472
 20
3046.59371
 30
0.0
  0
VERTEX
  8
0
 10
3880.57206
 20
3000.74445
 30
0.0
  0
VERTEX
  8
0
 10
3900.45046
 20
2955.14462
 30
0.0
  0
VERTEX
  8
0
 10
3922.81688
 20
2958.48841
 30
0.0
  0
VERTEX
  8
0
 10
4000.0
 20
3000.0
 30
0.0
  0
VERTEX
  8
0
 10
4000.0
 20
3000.0
 30
0.0
  0
SEQEND
  0
POLYLINE
  8
0
 66
1
 10
0.0
 20
0.0
 30
0.0
 70
8
  0
VERTEX
  8
0
 10
5000.0
 20
3000.0
 30
0.0
  0
VERTEX
  8
0
 10
5062.31613
 20
3016.22166
 30
0.0
  0
VERTEX
  8
0
 10
5067.00215
 20
3042.79637
 30
0.0
  0
VERTEX
  8
0
 10
5085.1006
 20
3059.23942
 30
0.0
  0
VERTEX
  8
0
 10
5072.77327
 20
3091.00881
 30
0.0
  0
VERTEX
  8
0
 10
5055.60772
 20
3095.04331
 30
0.0
  0
VERTEX
  8
0
 10
5038.90051
 20
3102.55815
 30
0.0
  0
VERTEX
  8
0
 10
4980.78426
 20
3082.39932
 30
0.0
  0
VERTEX
  8
0
 10
5000.0
 20
3000.0
 30
0.0
  0
VERTEX
  8
0
 10
5000.0
 20
3000.0
 30
0.0
  0
SEQEND
  0
POLYLINE
  8
0
 66
1
 10
0.0
 20
0.0
 30
0.0
 70
8
  0
VERTEX
  8
0
 10
6000.0
 20
3000.0
 30
0.0
  0
VERTEX
  8
0
 10
6006.92541
 20
3037.47619
 30
0.0
  0
VERTEX
  8
0
 10
6016.10483
 20
3047.0006
 30
0.0
  0
VERTEX
  8
0
 10
6070.2527
 20
3046.61492
 30
0.0
  0
VERTEX
  8
0
 10
6077.1141
 20
3043.0286
 30
0.0
  0
VERTEX
  8
0
 10
6067.60353
 20
3013.08855
 30
0.0
  0
VERTEX
  8
0
 10
6045.52219
 20
3005.74967
 30
0.0
  0
VERTEX
  8
0
 10
6036.37236
 20
2998.08091
 30
0.0
  0
VERTEX
  8
0
 10
6000.0
 20
3000.0
 30
0.0
  0
VERTEX
  8
0
 10
6000.0
 20
3000.0
 30
0.0
  0
SEQEND
  0
POLYLINE
  8
0
 66
1
 10
0.0
 20
0.0
 30
0.0
 70
8
  0
VERTEX
  8
0
 10
7000.0
 20
3000.0
 30
0.0
  0
VERTEX
  8
0
 10
7027.4365099999995
 20
2993.95699
 30
0.0
  0
VERTEX
  8
0
 10
7051.23397
 20
2992.89635
 30
0.0
  0
VERTEX
  8
0
 10
7081.82839
 20
2992.93647
 30
0.0
  0
VERTEX
  8
0
 10
7083.5318800000005
 20
3037.1336
 30
0.0
  0
VERTEX
  8
0
 10
7042.40806
 20
3033.913
 30
0.0
  0
VERTEX
  8
0
 10
7036.41694
 20
3028.18895
 30
0.0
  0
VERTEX
  8
0
 10
7011.6095
 20
3024.66176
 30
0.0
  0
VERTEX
  8
0
 10
7000.19149
 20
3014.12591
 30
0.0
  0
VERTEX
  8
0
 10
7000.0
 20
3000.0
 30
0.0
  0
VERTEX
  8
0
 10
7000.0
 20
3000.0
 30
0.0
  0
SEQEND
  0
POLYLINE
  8
0
 66
1
 10
0.0
 20
0.0
 30
0.0
 70
8
  0
VERTEX
  8
0
 10
8000.0
 20
3000.0
 30
0.0
  0
VERTEX
  8
0
 10
8006.83105
 20
3033.68501
 30
0.0
  0
VERTEX
  8
0
 10
8015.05531
 20
3034.62486
 30
0.0
  0
VERTEX
  8
0
 10
8018.6833
 20
3052.40722
 30
0.0
  0
VERTEX
  8
0
 10
8058.82059
 20
3042.58805
 30
0.0
  0
VERTEX
  8
0
 10
8048.07182
 20
2999.98941
 30
0.0
  0
VERTEX
  8
0
 10
8000.0
 20
3000.0
 30
0.0
  0
VERTEX
  8
0
 10
8000.0
 20
3000.0
 30
0.0
  0
SEQEND
  0
POLYLINE
  8
0
 66
1
 10
0.0
 20
0.0
 30
0.0
 70
8
  0
VERTEX
  8
0
 10
9000.0
 20
3000.0
 30
0.0
  0
VERTEX
  8
0
 10
9029.4238
 20
3021.68527
 30
0.0
  0
VERTEX
  8
0
 10
9059.00375
 20
3001.38545
 30
0.0
  0
VERTEX
  8
0
 10
9046.64668
 20
2983.8451
 30
0.0
  0
VERTEX
  8
0
 10
9007.02476
 20
2990.11205
 30
0.0
  0
VERTEX
  8
0
 10
9000.0
 20
3000.0
 30
0.0
  0
VERTEX
  8
0
 10
9000.0
 20
3000.0
 30
0.0
  0
SEQEND
  0
POLYLINE
  8
0
 66
1
 10
0.0
 20
0.0
 30
0.0
 70
8
  0
VERTEX
  8
0
 10
10000.0
 20
3000.0
 30
0.0
  0
VERTEX
  8
0
 10
9957.92427
 20
3049.31026
 30
0.0
  0
VERTEX
  8
0
 10
9985.13739
 20
3075.69763
 30
0.0
  0
VERTEX
  8
0
 10
10015.79902
 20
3068.40767
 30
0.0
  0
VERTEX
  8
0
 10
10039.81487
 20
3081.91653
 30
0.0
  0
VERTEX
  8
0
 10
10051.07565
 20
3074.06241
 30
0.0
  0
VERTEX
  8
0
 10
10060.45476
 20
3076.17242
 30
0.0
  0
VERTEX
  8
0
 10
10065.63029
 20
3066.69608
 30
0.0
  0
VERTEX
  8
0
 10
10056.89796
 20
3050.54488
 30
0.0
  0
VERTEX
  8
0
 10
10055.39256
 20
3042.09929
 30
0.0
  0
VERTEX
  8
0
 10
10013.63449
 20
3002.30717
 30
0.0
  0
VERTEX
  8
0
 10
10000.0
 20
3000.0
 30
0.0
  0
VERTEX
  8
0
 10
10000.0
 20
3000.0
 30
0.0
  0
SEQEND
  0
POLYLINE
  8
0
 66
1
 10
0.0
 20
0.0
 30
0.0
 70
8
  0
VERTEX
  8
0
 10
11000.0
 20
3000.0
 30
0.0
  0
VERTEX
  8
0
 10
10949.19004
 20
3063.79645
 30
0.0
  0
VERTEX
  8
0
 10
10939.72943
 20
3103.10073
 30
0.0
  0
VERTEX
  8
0
 10
10950.74298
 20
3136.32696
 30
0.0
  0
VERTEX
  8
0
 10
10956.9089
 20
3109.34359
 30
0.0
  0
VERTEX
  8
0
 10
10990.63336
 20
3070.35683
 30
0.0
  0
VERTEX
  8
0
 10
11006.20833
 20
3070.63757
 30
0.0
  0
VERTEX
  8
0
 10
11037.03649
 20
3031.63855
 30
0.0
  0
VERTEX
  8
0
 10
11000.0
 20
3000.0
 30
0.0
  0
VERTEX
  8
0
 10
11000.0
 20
3000.0
 30
0.0
  0
SEQEND
  0
POLYLINE
  8
0
 66
1
 10
0.0
 20
0.0
 30
0.0
 70
8
  0
VERTEX
  8
0
 10
12000.0
 20
3000.0
 30
0.0
  0
VERTEX
  8
0
 10
12018.11379
 20
3097.28181
 30
0.0
  0
VERTEX
  8
0
 10
11986.70462
 20
3104.72509
 30
0.0
  0
VERTEX
  8
0
 10
11977.77909
 20
3055.14638
 30
0.0
  0
VERTEX
  8
0
 10
11985.5024
 20
3004.34298
 30
0.0
  0
VERTEX
  8
0
 10
12000.0
 20
3000.0
 30
0.0
  0
VERTEX
  8
0
 10
12000.0
 20
3000.0
 30
0.0
  0
SEQEND
  0
POLYLINE
  8
0
 66
1
 10
0.0
 20
0.0
 30
0.0
 70
8
  0
VERTEX
  8
0
 10
13000.0
 20
3000.0
 30
0.0
  0
VERTEX
  8
0
 10
12934.71036
 20
3062.21051
 30
0.0
  0
VERTEX
  8
0
 10
12952.09859
 20
3083.0046
 30
0.0
  0
VERTEX
  8
0
 10
12971.86416
 20
3086.12421
 30
0.0
  0
VERTEX
  8
0
 10
13007.00912
 20
3028.4508299999998
 30
0.0
  0
VERTEX
  8
0
 10
13004.38038
 20
3011.19152
 30
0.0
  0
VERTEX
  8
0
 10
13000.0
 20
3000.0
 30
0.0
  0
VERTEX
  8
0
 10
13000.0
 20
3000.0
 30
0.0
  0
SEQEND
  0
POLYLINE
  8
0
 66
1
 10
0.0
 20
0.0
 30
0.0
 70
8
  0
VERTEX
  8
0
 10
14000.0
 20
3000.0
 30
0.0
  0
VERTEX
  8
0
 10
14020.61968
 20
3016.52414
 30
0.0
  0
VERTEX
  8
0
 10
14011.3162
 20
3154.28488
 30
0.0
  0
VERTEX
  8
0
 10
13998.20543
 20
3156.54426
 30
0.0
  0
VERTEX
  8
0
 10
13984.01878
 20
3133.47483
 30
0.0
  0
VERTEX
  8
0
 10
14000.0
 20
3000.0
 30
0.0
  0
VERTEX
  8
0
 10
14000.0
 20
3000.0
 30
0.0
  0
SEQEND
  0
POLYLINE
  8
0
 66
1
 10
0.0
 20
0.0
 30
0.0
 70
8
  0
VERTEX
  8
0
 10
15000.0
 20
3000.0
 30
0.0
  0
VERTEX
  8
0
 10
14984.02708
 20
3001.74128
 30
0.0
  0
VERTEX
  8
0
 10
14972.04802
 20
3003.04731
 30
0.0
  0
VERTEX
  8
0
 10
14910.70056
 20
3052.07555
 30
0.0
  0
VERTEX
  8
0
 10
14876.94978
 20
3087.03015
 30
0.0
  0
VERTEX
  8
0
 10
14903.36196
 20
3090.81212
 30
0.0
  0
VERTEX
  8
0
 10
14922.20457
 20
3084.2415
 30
0.0
  0
VERTEX
  8
0
 10
15000.0
 20
3000.0
 30
0.0
  0
VERTEX
  8
0
 10
15000.0
 20
3000.0
 30
0.0
  0
SEQEND
  0
POLYLINE
  8
0
 66
1
 10
0.0
 20
0.0
 30
0.0
 70
8
  0
VERTEX
  8
0
 10
16000.0
 20
3000.0
 30
0.0
  0
VERTEX
  8
0
 10
15989.69977
 20
2992.88664
 30
0.0
  0
VERTEX
  8
0
 10
15981.81434
 20
2982.32164
 30
0.0
  0
VERTEX
  8
0
 10
15976.59185
 20
2976.40313
 30
0.0
  0
VERTEX
  8
0
 10
15930.50355
 20
3035.22413
 30
0.0
  0
VERTEX
  8
0
 10
15888.67507
 20
3095.93977
 30
0.0
  0
VERTEX
  8
0
 10
15912.69435
 20
3112.08892
 30
0.0
  0
VERTEX
  8
0
 10
15927.80355
 20
3111.62594
 30
0.0
  0
VERTEX
  8
0
 10
16000.0
 20
3000.0
 30
0.0
  0
VERTEX
  8
0
 10
16000.0
 20
3000.0
 30
0.0
  0
SEQEND
  0
POLYLINE
  8
0
 66
1
 10
0.0
 20
0.0
 30
0.0
 70
8
  0
VERTEX
  8
0
 10
17000.0
 20
3000.0
 30
0.0
  0
VERTEX
  8
0
 10
17003.69925
 20
3084.82358
 30
0.0
  0
VERTEX
  8
0
 10
16980.79465
 20
3099.16386
 30
0.0
  0
VERTEX
  8
0
 10
16963.09738
 20
3107.48389
 30
0.0
  0
VERTEX
  8
0
 10
16949.25992
 20
3012.39259
 30
0.0
  0
VERTEX
  8
0
 10
16959.6938
 20
3003.308
 30
0.0
  0
VERTEX
  8
0
 10
17000.0
 20
3000.0
 30
0.0
  0
VERTEX
  8
0
 10
17000.0
 20
3000.0
 30
0.0
  0
SEQEND
  0
POLYLINE
  8
0
 66
1
 10
0.0
 20
0.0
 30
0.0
 70
8
  0
VERTEX
  8
0
 10
18000.0
 20
3000.0
 30
0.0
  0
VERTEX
  8
0
 10
17963.68887
 20
3006.25998
 30
0.0
  0
VERTEX
  8
0
 10
17976.37642
 20
3106.41125
 30
0.0
  0
VERTEX
  8
0
 10
18000.84992
 20
3137.7144
 30
0.0
  0
VERTEX
  8
0
 10
18013.09819
 20
3142.36855
 30
0.0
  0
VERTEX
  8
0
 10
18021.52325
 20
3124.84604
 30
0.0
  0
VERTEX
  8
0
 10
18000.0
 20
3000.0
 30
0.0
  0
VERTEX
  8
0
 10
18000.0
 20
3000.0
 30
0.0
  0
SEQEND
  0
POLYLINE
  8
0
 66
1
 10
0.0
 20
0.0
 30
0.0
 70
8
  0
VERTEX
  8
0
 10
19000.0
 20
3000.0
 30
0.0
  0
VERTEX
  8
0
 10
19010.57862
 20
3080.66147
 30
0.0
  0
VERTEX
  8
0
 10
18995.92886
 20
3088.41897
 30
0.0
  0
VERTEX
  8
0
 10
18954.61697
 20
3082.90142
 30
0.0
  0
VERTEX
  8
0
 10
18950.98706
 20
3028.43796
 30
0.0
  0
VERTEX
  8
0
 10
18958.04459
 20
3022.0881
 30
0.0
  0
VERTEX
  8
0
 10
18964.72215
 20
2993.68904
 30
0.0
  0
VERTEX
  8
0
 10
19000.0
 20
3000.0
 30
0.0
  0
VERTEX
  8
0
 10
19000.0
 20
3000.0
 30
0.0
  0
SEQEND
  0
POLYLINE
  8
0
 66
1
 10
0.0
 20
0.0
 30
0.0
 70
8
  0
VERTEX
  8
0
 10
20000.0
 20
3000.0
 30
0.0
  0
VERTEX
  8
0
 10
20019.10715
 20
3012.11807
 30
0.0
  0
VERTEX
  8
0
 10
20052.53234
 20
3012.10684
 30
0.0
  0
VERTEX
  8
0
 10
20033.47138
 20
3081.17843
 30
0.0
  0
VERTEX
  8
0
 10
20015.73532
 20
3080.73253
 30
0.0
  0
VERTEX
  8
0
 10
20013.35544
 20
3093.51844
 30
0.0
  0
VERTEX
  8
0
 10
19969.00924
 20
3081.33304
 30
0.0
  0
VERTEX
  8
0
 10
20000.0
 20
3000.0
 30
0.0
  0
VERTEX
  8
0
 10
20000.0
 20
3000.0
 30
0.0
  0
SEQEND
  0
POLYLINE
  8
0
 66
1
 10
0.0
 20
0.0
 30
0.0
 70
8
  0
VERTEX
  8
0
 10
21000.0
 20
3000.0
 30
0.0
  0
VERTEX
  8
0
 10
20939.60337
 20
3038.1509
 30
0.0
  0
VERTEX
  8
0
 10
20944.28479
 20
3042.75991
 30
0.0
  0
VERTEX
  8
0
 10
20929.17986
 20
3056.18886
 30
0.0
  0
VERTEX
  8
0
 10
20950.29331
 20
3062.2886
 30
0.0
  0
VERTEX
  8
0
 10
20961.72943
 20
3072.38456
 30
0.0
  0
VERTEX
  8
0
 10
21023.52572
 20
3035.43211
 30
0.0
  0
VERTEX
  8
0
 10
21000.0
 20
3000.0
 30
0.0
  0
VERTEX
  8
0
 10
21000.0
 20
3000.0
 30
0.0
  0
SEQEND
  0
POLYLINE
  8
0
 66
1
 10
0.0
 20
0.0
 30
0.0
 70
8
  0
VERTEX
  8
0
 10
22000.0
 20
3000.0
 30
0.0
  0
VERTEX
  8
0
 10
22005.88792
 20
2943.04199
 30
0.0
  0
VERTEX
  8
0
 10
22060.77191
 20
2946.93363
 30
0.0
  0
VERTEX
  8
0
 10
22066.46352
 20
2960.5393
 30
0.0
  0
VERTEX
  8
0
 10
22069.6201
 20
3000.31128
 30
0.0
  0
VERTEX
  8
0
 10
22014.48533
 20
2994.68449
 30
0.0
  0
VERTEX
  8
0
 10
22013.1156
 20
3003.21317
 30
0.0
  0
VERTEX
  8
0
 10
22000.0
 20
3000.0
 30
0.0
  0
VERTEX
  8
0
 10
22000.0
 20
3000.0
 30
0.0
  0
SEQEND
  0
POLYLINE
  8
0
 66
1
 10
0.0
 20
0.0
 30
0.0
 70
8
  0
VERTEX
  8
0
 10
23000.0
 20
3000.0
 30
0.0
  0
VERTEX
  8
0
 10
22994.64555
 20
3065.56689
 30
0.0
  0
VERTEX
  8
0
 10
22936.88252
 20
3060.31607
 30
0.0
  0
VERTEX
  8
0
 10
22917.08104
 20
3045.45121
 30
0.0
  0
VERTEX
  8
0
 10
22913.3129
 20
2989.27728
 30
0.0
  0
VERTEX
  8
0
 10
22943.16889
 20
2970.74804
 30
0.0
  0
VERTEX
  8
0
 10
22953.97125
 20
2979.66541
 30
0.0
  0
VERTEX
  8
0
 10
22967.23102
 20
2980.42101
 30
0.0
  0
VERTEX
  8
0
 10
22984.4902
 20
2997.75838
 30
0.0
  0
VERTEX
  8
0
 10
23000.0
 20
3000.0
 30
0.0
  0
VERTEX
  8
0
 10
23000.0
 20
3000.0
 30
0.0
  0
SEQEND
  0
POLYLINE
  8
0
 66
1
 10
0.0
 20
0.0
 30
0.0
 70
8
  0
VERTEX
  8
0
 10
24000.0
 20
3000.0
 30
0.0
  0
VERTEX
  8
0
 10
24060.06833
 20
3075.99488
 30
0.0
  0
VERTEX
  8
0
 10
24011.51666
 20
3097.73416
 30
0.0
  0
VERTEX
  8
0
 10
23975.22597
 20
3088.10059
 30
0.0
  0
VERTEX
  8
0
 10
23936.01591
 20
3034.20683
 30
0.0
  0
VERTEX
  8
0
 10
23938.45743
 20
3019.65957
 30
0.0
  0
VERTEX
  8
0
 10
23974.31288
 20
3003.57517
 30
0.0
  0
VERTEX
  8
0
 10
23985.42376
 20
3010.85583
 30
0.0
  0
VERTEX
  8
0
 10
24000.0
 20
3000.0
 30
0.0
  0
VERTEX
  8
0
 10
24000.0
 20
3000.0
 30
0.0
  0
SEQEND
  0
POLYLINE
  8
0
 66
1
 10
0.0
 20
0.0
 30
0.0
 70
8
  0
VERTEX
  8
0
 10
25000.0
 20
3000.0
 30
0.0
  0
VERTEX
  8
0
 10
25000.43817
 20
3077.71471
 30
0.0
  0
VERTEX
  8
0
 10
24993.60585
 20
3092.62024
 30
0.0
  0
VERTEX
  8
0
 10
24995.98216
 20
3110.35036
 30
0.0
  0
VERTEX
  8
0
 10
24976.94771
 20
3110.63047
 30
0.0
  0
VERTEX
  8
0
 10
24968.3246
 20
3099.65419
 30
0.0
  0
VERTEX
  8
0
 10
24965.24401
 20
3081.93443
 30
0.0
  0
VERTEX
  8
0
 10
24961.64217
 20
3076.80559
 30
0.0
  0
VERTEX
  8
0
 10
24959.81617
 20
3000.59135
 30
0.0
  0
VERTEX
  8
0
 10
25000.0
 20
3000.0
 30
0.0
  0
VERTEX
  8
0
 10
25000.0
 20
3000.0
 30
0.0
  0
SEQEND
  0
POLYLINE
  8
0
 66
1
 10
0.0
 20
0.0
 30
0.0
 70
8
  0
VERTEX
  8
0
 10
26000.0
 20
3000.0
 30
0.0
  0
VERTEX
  8
0
 10
25979.75781
 20
3012.7083
 30
0.0
  0
VERTEX
  8
0
 10
25961.41532
 20
3021.58981
 30
0.0
  0
VERTEX
  8
0
 10
25945.5586
 20
2986.05543
 30
0.0
  0
VERTEX
  8
0
 10
25967.70282
 20
2969.51909
 30
0.0
  0
VERTEX
  8
0
 10
25996.43299
 20
2950.08177
 30
0.0
  0
VERTEX
  8
0
 10
26000.51397
 20
2956.01481
 30
0.0
  0
VERTEX
  8
0
 10
25998.94582
 20
2996.81768
 30
0.0
  0
VERTEX
  8
0
 10
26000.0
 20
3000.0
 30
0.0
  0
VERTEX
  8
0
 10
26000.0
 20
3000.0
 30
0.0
  0
SEQEND
  0
POLYLINE
  8
0
 66
1
 10
0.0
 20
0.0
 30
0.0
 70
8
  0
VERTEX
  8
0
 10
27000.0
 20
3000.0
 30
0.0
  0
VERTEX
  8
0
 10
26991.83716
 20
3012.63092
 30
0.0
  0
VERTEX
  8
0
 10
26988.01796
 20
3026.08038
 30
0.0
  0
VERTEX
  8
0
 10
26940.98277
 20
3067.69287
 30
0.0
  0
VERTEX
  8
0
 10
26937.38109
 20
3049.30236
 30
0.0
  0
VERTEX
  8
0
 10
26934.60877
 20
3023.09955
 30
0.0
  0
VERTEX
  8
0
 10
26987.11484
 20
2976.31876
 30
0.0
  0
VERTEX
  8
0
 10
27000.0
 20
3000.0
 30
0.0
  0
VERTEX
  8
0
 10
27000.0
 20
3000.0
 30
0.0
  0
SEQEND
  0
POLYLINE
  8
0
 66
1
 10
0.0
 20
0.0
 30
0.0
 70
8
  0
VERTEX
  8
0
 10
28000.0
 20
3000.0
 30
0.0
  0
VERTEX
  8
0
 10
27934.42658
 20
2981.10663
 30
0.0
  0
VERTEX
  8
0
 10
27906.8147
 20
2981.76214
 30
0.0
  0
VERTEX
  8
0
 10
27898.56114
 20
2924.84335
 30
0.0
  0
VERTEX
  8
0
 10
27914.97051
 20
2903.35153
 30
0.0
  0
VERTEX
  8
0
 10
27967.25249
 20
2897.22141
 30
0.0
  0
VERTEX
  8
0
 10
27985.33239
 20
2905.99885
 30
0.0
  0
VERTEX
  8
0
 10
28000.0
 20
3000.0
 30
0.0
  0
VERTEX
  8
0
 10
28000.0
 20
3000.0
 30
0.0
  0
SEQEND
  0
POLYLINE
  8
0
 66
1
 10
0.0
 20
0.0
 30
0.0
 70
8
  0
VERTEX
  8
0
 10
29000.0
 20
3000.0
 30
0.0
  0
VERTEX
  8
0
 10
28990.48044
 20
3030.14354
 30
0.0
  0
VERTEX
  8
0
 10
28903.11892
 20
3023.00692
 30
0.0
  0
VERTEX
  8
0
 10
28911.94968
 20
2978.37566
 30
0.0
  0
VERTEX
  8
0
 10
29000.0
 20
3000.0
 30
0.0
  0
VERTEX
  8
0
 10
29000.0
 20
3000.0
 30
0.0
  0
SEQEND
  0
POLYLINE
  8
0
 66
1
 10
0.0
 20
0.0
 30
0.0
 70
8
  0
VERTEX
  8
0
 10
30000.0
 20
3000.0
 30
0.0
  0
VERTEX
  8
0
 10
30026.71414
 20
3054.26589
 30
0.0
  0
VERTEX
  8
0
 10
29993.66996
 20
3078.69127
 30
0.0
  0
VERTEX
  8
0
 10
29974.067
 20
3063.45567
 30
0.0
  0
VERTEX
  8
0
 10
29953.2022
 20
3028.73811
 30
0.0
  0
VERTEX
  8
0
 10
30000.0
 20
3000.0
 30
0.0
  0
VERTEX
  8
0
 10
30000.0
 20
3000.0
 30
0.0
  0
SEQEND
  0
POLYLINE
  8
0
 66
1
 10
0.0
 20
0.0
 30
0.0
 70
8
  0
VERTEX
  8
0
 10
31000.0
 20
3000.0
 30
0.0
  0
VERTEX
  8
0
 10
31012.35433
 20
3021.10508
 30
0.0
  0
VERTEX
  8
0
 10
31018.53004
 20
3046.04661
 30
0.0
  0
VERTEX
  8
0
 10
31007.54599
 20
3047.96404
 30
0.0
  0
VERTEX
  8
0
 10
31006.17269
 20
3054.99915
 30
0.0
  0
VERTEX
  8
0
 10
30900.45443
 20
3070.97563
 30
0.0
  0
VERTEX
  8
0
 10
30891.53519
 20
3019.17439
 30
0.0
  0
VERTEX
  8
0
 10
30912.13031
 20
3008.94494
 30
0.0
  0
VERTEX
  8
0
 10
31000.0
 20
3000.0
 30
0.0
  0
VERTEX
  8
0
 10
31000.0
 20
3000.0
 30
0.0
  0
SEQEND
  0
POLYLINE
  8
0
 66
1
 10
0.0
 20
0.0
 30
0.0
 70
8
  0
VERTEX
  8
0
 10
32000.0
 20
3000.0
 30
0.0
  0
VERTEX
  8
0
 10
32021.03576
 20
3054.14663
 30
0.0
  0
VERTEX
  8
0
 10
32007.74239
 20
3073.13754
 30
0.0
  0
VERTEX
  8
0
 10
32006.96898
 20
3095.76651
 30
0.0
  0
VERTEX
  8
0
 10
31982.2866
 20
3105.63709
 30
0.0
  0
VERTEX
  8
0
 10
31971.50362
 20
3095.72515
 30
0.0
  0
VERTEX
  8
0
 10
31958.90352
 20
3088.18915
 30
0.0
  0
VERTEX
  8
0
 10
31942.23675
 20
3034.73181
 30
0.0
  0
VERTEX
  8
0
 10
32000.0
 20
3000.0
 30
0.0
  0
VERTEX
  8
0
 10
32000.0
 20
3000.0
 30
0.0
  0
SEQEND
  0
POLYLINE
  8
0
 66
1
 10
0.0
 20
0.0
 30
0.0
 70
8
  0
VERTEX
  8
0
 10
33000.0
 20
3000.0
 30
0.0
  0
VERTEX
  8
0
 10
32999.9099
 20
3038.51996
 30
0.0
  0
VERTEX
  8
0
 10
33007.65133
 20
3049.53236
 30
0.0
  0
VERTEX
  8
0
 10
33064.39221
 20
3058.07133
 30
0.0
  0
VERTEX
  8
0
 10
33072.27477
 20
3055.62512
 30
0.0
  0
VERTEX
  8
0
 10
33068.18401
 20
3024.19565
 30
0.0
  0
VERTEX
  8
0
 10
33046.51292
 20
3013.23683
 30
0.0
  0
VERTEX
  8
0
 10
33038.43916
 20
3004.08013
 30
0.0
  0
VERTEX
  8
0
 10
33000.0
 20
3000.0
 30
0.0
  0
VERTEX
  8
0
 10
33000.0
 20
3000.0
 30
0.0
  0
SEQEND
  0
POLYLINE
  8
0
 66
1
 10
0.0
 20
0.0
 30
0.0
 70
8
  0
VERTEX
  8
0
 10
34000.0
 20
3000.0
 30
0.0
  0
VERTEX
  8
0
 10
34018.24126
 20
3016.18461
 30
0.0
  0
VERTEX
  8
0
 10
34029.57775
 20
3031.45379
 30
0.0
  0
VERTEX
  8
0
 10
34042.64621
 20
3051.49748
 30
0.0
  0
VERTEX
  8
0
 10
33995.96029
 20
3065.62845
 30
0.0
  0
VERTEX
  8
0
 10
33981.79148
 20
3037.75396
 30
0.0
  0
VERTEX
  8
0
 10
33985.36486
 20
3032.14557
 30
0.0
  0
VERTEX
  8
0
 10
33978.51749
 20
3014.86402
 30
0.0
  0
VERTEX
  8
0
 10
33984.92738
 20
3004.28532
 30
0.0
  0
VERTEX
  8
0
 10
34000.0
 20
3000.0
 30
0.0
  0
VERTEX
  8
0
 10
34000.0
 20
3000.0
 30
0.0
  0
SEQEND
  0
POLYLINE
  8
0
 66
1
 10
0.0
 20
0.0
 30
0.0
 70
8
  0
VERTEX
  8
0
 10
35000.0
 20
3000.0
 30
0.0
  0
VERTEX
  8
0
 10
34977.39832
 20
3017.6479
 30
0.0
  0
VERTEX
  8
0
 10
34979.87627
 20
3023.18932
 30
0.0
  0
VERTEX
  8
0
 10
34967.95327
 20
3032.51943
 30
0.0
  0
VERTEX
  8
0
 10
34990.84291
 20
3053.85216
 30
0.0
  0
VERTEX
  8
0
 10
35018.60889
 20
3030.20814
 30
0.0
  0
VERTEX
  8
0
 10
35000.0
 20
3000.0
 30
0.0
  0
VERTEX
  8
0
 10
35000.0
 20
3000.0
 30
0.0
  0
SEQEND
  0
POLYLINE
  8
0
 66
1
 10
0.0
 20
0.0
 30
0.0
 70
8
  0
VERTEX
  8
0
 10
36000.0
 20
3000.0
 30
0.0
  0
VERTEX
  8
0
 10
35994.93997
 20
3038.13935
 30
0.0
  0
VERTEX
  8
0
 10
36030.31449
 20
3051.01275
 30
0.0
  0
VERTEX
  8
0
 10
36040.54449
 20
3029.89377
 30
0.0
  0
VERTEX
  8
0
 10
36013.27071
 20
2999.99192
 30
0.0
  0
VERTEX
  8
0
 10
36000.0
 20
3000.0
 30
0.0
  0
VERTEX
  8
0
 10
36000.0
 20
3000.0
 30
0.0
  0
SEQEND
  0
POLYLINE
  8
0
 66
1
 10
0.0
 20
0.0
 30
0.0
 70
8
  0
VERTEX
  8
0
 10
37000.0
 20
3000.0
 30
0.0
  0
VERTEX
  8
0
 10
36957.7513
 20
3015.54115
 30
0.0
  0
VERTEX
  8
0
 10
36973.93905
 20
3057.698
 30
0.0
  0
VERTEX
  8
0
 10
36999.25292
 20
3072.03252
 30
0.0
  0
VERTEX
  8
0
 10
37015.40741
 20
3100.47675
 30
0.0
  0
VERTEX
  8
0
 10
37025.69346
 20
3101.10371
 30
0.0
  0
VERTEX
  8
0
 10
37032.60737
 20
3109.37634
 30
0.0
  0
VERTEX
  8
0
 10
37038.45601
 20
3104.40911
 30
0.0
  0
VERTEX
  8
0
 10
37034.72996
 20
3083.99815
 30
0.0
  0
VERTEX
  8
0
 10
37035.16948
 20
3075.40794
 30
0.0
  0
VERTEX
  8
0
 10
37010.19609
 20
3011.34502
 30
0.0
  0
VERTEX
  8
0
 10
37000.0
 20
3000.0
 30
0.0
  0
VERTEX
  8
0
 10
37000.0
 20
3000.0
 30
0.0
  0
SEQEND
  0
POLYLINE
  8
0
 66
1
 10
0.0
 20
0.0
 30
0.0
 70
8
  0
VERTEX
  8
0
 10
38000.0
 20
3000.0
 30
0.0
  0
VERTEX
  8
0
 10
37936.66806
 20
3059.09618
 30
0.0
  0
VERTEX
  8
0
 10
37920.59767
 20
3098.92313
 30
0.0
  0
VERTEX
  8
0
 10
37926.98522
 20
3135.56648
 30
0.0
  0
VERTEX
  8
0
 10
37937.67228
 20
3108.1728
 30
0.0
  0
VERTEX
  8
0
 10
37979.18433
 20
3072.47689
 30
0.0
  0
VERTEX
  8
0
 10
37995.50332
 20
3075.20946
 30
0.0
  0
VERTEX
  8
0
 10
38033.97448
 20
3039.04739
 30
0.0
  0
VERTEX
  8
0
 10
38000.0
 20
3000.0
 30
0.0
  0
VERTEX
  8
0
 10
38000.0
 20
3000.0
 30
0.0
  0
SEQEND
  0
POLYLINE
  8
0
 66
1
 10
0.0
 20
0.0
 30
0.0
 70
8
  0
VERTEX
  8
0
 10
39000.0
 20
3000.0
 30
0.0
  0
VERTEX
  8
0
 10
38994.75711
 20
3062.63445
 30
0.0
  0
VERTEX
  8
0
 10
38955.83251
 20
3062.97867
 30
0.0
  0
VERTEX
  8
0
 10
38958.86392
 20
3031.09914
 30
0.0
  0
VERTEX
  8
0
 10
38981.78613
 20
3000.72017
 30
0.0
  0
VERTEX
  8
0
 10
39000.0
 20
3000.0
 30
0.0
  0
VERTEX
  8
0
 10
39000.0
 20
3000.0
 30
0.0
  0
SEQEND
  0
POLYLINE
  8
0
 66
1
 10
0.0
 20
0.0
 30
0.0
 70
8
  0
VERTEX
  8
0
 10
40000.0
 20
3000.0
 30
0.0
  0
VERTEX
  8
0
 10
39913.22734
 20
2959.44086
 30
0.0
  0
VERTEX
  8
0
 10
39889.69109
 20
2976.13663
 30
0.0
  0
VERTEX
  8
0
 10
39888.55249
 20
2991.87847
 30
0.0
  0
VERTEX
  8
0
 10
39965.45716
 20
3009.89584
 30
0.0
  0
VERTEX
  8
0
 10
39986.63845
 20
3005.14505
 30
0.0
  0
VERTEX
  8
0
 10
40000.0
 20
3000.0
 30
0.0
  0
VERTEX
  8
0
 10
40000.0
 20
3000.0
 30
0.0
  0
SEQEND
  0
POLYLINE
  8
0
 66
1
 10
0.0
 20
0.0
 30
0.0
 70
8
  0
VERTEX
  8
0
 10
41000.0
 20
3000.0
 30
0.0
  0
VERTEX
  8
0
 10
41027.03577
 20
2991.55267
 30
0.0
  0
VERTEX
  8
0
 10
41119.28343
 20
3118.05836
 30
0.0
  0
VERTEX
  8
0
 10
41111.27496
 20
3134.21563
 30
0.0
  0
VERTEX
  8
0
 10
41084.25838
 20
3130.14163
 30
0.0
  0
VERTEX
  8
0
 10
41000.0
 20
3000.0
 30
0.0
  0
VERTEX
  8
0
 10
41000.0
 20
3000.0
 30
0.0
  0
SEQEND
  0
POLYLINE
  8
0
 66
1
 10
0.0
 20
0.0
 30
0.0
 70
8
  0
VERTEX
  8
0
 10
42000.0
 20
3000.0
 30
0.0
  0
VERTEX
  8
0
 10
41985.57825
 20
2999.89843
 30
0.0
  0
VERTEX
  8
0
 10
41974.76251
 20
2999.82243
 30
0.0
  0
VERTEX
  8
0
 10
41920.7134
 20
3053.38046
 30
0.0
  0
VERTEX
  8
0
 10
41891.23062
 20
3093.01523
 30
0.0
  0
VERTEX
  8
0
 10
41915.28878
 20
3101.67067
 30
0.0
  0
VERTEX
  8
0
 10
41932.15852
 20
3096.03577
 30
0.0
  0
VERTEX
  8
0
 10
42000.0
 20
3000.0
 30
0.0
  0
VERTEX
  8
0
 10
42000.0
 20
3000.0
 30
0.0
  0
SEQEND
  0
POLYLINE
  8
0
 66
1
 10
0.0
 20
0.0
 30
0.0
 70
8
  0
VERTEX
  8
0
 10
43000.0
 20
3000.0
 30
0.0
  0
VERTEX
  8
0
 10
42991.84102
 20
3008.08504
 30
0.0
  0
VERTEX
  8
0
 10
42981.14314
 20
3013.32664
 30
0.0
  0
VERTEX
  8
0
 10
42974.99596
 20
3016.99788
 30
0.0
  0
VERTEX
  8
0
 10
43017.31666
 20
3069.96026
 30
0.0
  0
VERTEX
  8
0
 10
43062.10098
 20
3119.38503
 30
0.0
  0
VERTEX
  8
0
 10
43080.74565
 20
3100.45018
 30
0.0
  0
VERTEX
  8
0
 10
43083.23761
 20
3086.57248
 30
0.0
  0
VERTEX
  8
0
 10
43000.0
 20
3000.0
 30
0.0
  0
VERTEX
  8
0
 10
43000.0
 20
3000.0
 30
0.0
  0
SEQEND
  0
POLYLINE
  8
0
 66
1
 10
0.0
 20
0.0
 30
0.0
 70
8
  0
VERTEX
  8
0
 10
44000.0
 20
3000.0
 30
0.0
  0
VERTEX
  8
0
 10
44036.61569
 20
3057.02206
 30
0.0
  0
VERTEX
  8
0
 10
44026.2362
 20
3076.74836
 30
0.0
  0
VERTEX
  8
0
 10
44017.10983
 20
3090.08292
 30
0.0
  0
VERTEX
  8
0
 10
43969.23792
 20
3030.31226
 30
0.0
  0
VERTEX
  8
0
 10
43972.94289
 20
3019.56289
 30
0.0
  0
VERTEX
  8
0
 10
44000.0
 20
3000.0
 30
0.0
  0
VERTEX
  8
0
 10
44000.0
 20
3000.0
 30
0.0
  0
SEQEND
  0
POLYLINE
  8
0
 66
1
 10
0.0
 20
0.0
 30
0.0
 70
8
  0
VERTEX
  8
0
 10
45000.0
 20
3000.0
 30
0.0
  0
VERTEX
  8
0
 10
44979.62908
 20
3019.72838
 30
0.0
  0
VERTEX
  8
0
 10
45026.54762
 20
3073.1663399999998
 30
0.0
  0
VERTEX
  8
0
 10
45054.09257
 20
3080.81087
 30
0.0
  0
VERTEX
  8
0
 10
45063.59526
 20
3078.14477
 30
0.0
  0
VERTEX
  8
0
 10
45062.07197
 20
3064.0936
 30
0.0
  0
VERTEX
  8
0
 10
45000.0
 20
3000.0
 30
0.0
  0
VERTEX
  8
0
 10
45000.0
 20
3000.0
 30
0.0
  0
SEQEND
  0
POLYLINE
  8
0
 66
1
 10
0.0
 20
0.0
 30
0.0
 70
8
  0
VERTEX
  8
0
 10
46000.0
 20
3000.0
 30
0.0
  0
VERTEX
  8
0
 10
45972.4364
 20
3081.87321
 30
0.0
  0
VERTEX
  8
0
 10
45954.09473
 20
3085.6931
 30
0.0
  0
VERTEX
  8
0
 10
45915.33071
 20
3069.58972
 30
0.0
  0
VERTEX
  8
0
 10
45937.46013
 20
3015.2171
 30
0.0
  0
VERTEX
  8
0
 10
45947.5322
 20
3010.81362
 30
0.0
  0
VERTEX
  8
0
 10
45967.65445
 20
2984.67964
 30
0.0
  0
VERTEX
  8
0
 10
46000.0
 20
3000.0
 30
0.0
  0
VERTEX
  8
0
 10
46000.0
 20
3000.0
 30
0.0
  0
SEQEND
  0
POLYLINE
  8
0
 66
1
 10
0.0
 20
0.0
 30
0.0
 70
8
  0
VERTEX
  8
0
 10
47000.0
 20
3000.0
 30
0.0
  0
VERTEX
  8
0
 10
47016.73153
 20
3011.86173
 30
0.0
  0
VERTEX
  8
0
 10
47046.70541
 20
3014.25712
 30
0.0
  0
VERTEX
  8
0
 10
47027.31862
 20
3072.65961
 30
0.0
  0
VERTEX
  8
0
 10
47011.4289
 20
3070.99753
 30
0.0
  0
VERTEX
  8
0
 10
47008.87011
 20
3081.89111
 30
0.0
  0
VERTEX
  8
0
 10
46969.5081
 20
3068.15504
 30
0.0
  0
VERTEX
  8
0
 10
47000.0
 20
3000.0
 30
0.0
  0
VERTEX
  8
0
 10
47000.0
 20
3000.0
 30
0.0
  0
SEQEND
  0
POLYLINE
  8
0
 66
1
 10
0.0
 20
0.0
 30
0.0
 70
8
  0
VERTEX
  8
0
 10
48000.0
 20
3000.0
 30
0.0
  0
VERTEX
  8
0
 10
47965.34132
 20
3053.59198
 30
0.0
  0
VERTEX
  8
0
 10
47973.64057
 20
3059.0848
 30
0.0
  0
VERTEX
  8
0
 10
47967.85652
 20
3077.44458
 30
0.0
  0
VERTEX
  8
0
 10
47994.39114
 20
3083.49142
 30
0.0
  0
VERTEX
  8
0
 10
48013.80221
 20
3095.42654
 30
0.0
  0
VERTEX
  8
0
 10
48050.809
 20
3043.24787
 30
0.0
  0
VERTEX
  8
0
 10
48000.0
 20
3000.0
 30
0.0
  0
VERTEX
  8
0
 10
48000.0
 20
3000.0
 30
0.0
  0
SEQEND
  0
POLYLINE
  8
0
 66
1
 10
0.0
 20
0.0
 30
0.0
 70
8
  0
VERTEX
  8
0
 10
0.0
 20
3000.0
 30
0.0
  0
VERTEX
  8
0
 10
43.59869
 20
2970.82998
 30
0.0
  0
VERTEX
  8
0
 10
71.44832
 20
3000.96681
 30
0.0
  0
VERTEX
  8
0
 10
64.99182
 20
3011.54802
 30
0.0
  0
VERTEX
  8
0
 10
38.60094
 20
3035.6163
 30
0.0
  0
VERTEX
  8
0
 10
11.83962
 20
3004.37188
 30
0.0
  0
VERTEX
  8
0
 10
5.03915
 20
3008.49122
 30
0.0
  0
VERTEX
  8
0
 10
0.0
 20
3000.0
 30
0.0
  0
VERTEX
  8
0
 10
0.0
 20
3000.0
 30
0.0
  0
SEQEND
  0
POLYLINE
  8
0
 66
1
 10
0.0
 20
0.0
 30
0.0
 70
8
  0
VERTEX
  8
0
 10
1000.0
 20
4000.0
 30
0.0
  0
VERTEX
  8
0
 10
998.65488
 20
4068.14667
 30
0.0
  0
VERTEX
  8
0
 10
941.08259
 20
4067.5622
 30
0.0
  0
VERTEX
  8
0
 10
920.55699
 20
4053.87229
 30
0.0
  0
VERTEX
  8
0
 10
913.4273499999999
 20
3996.18783
 30
0.0
  0
VERTEX
  8
0
 10
941.90102
 20
3974.55614
 30
0.0
  0
VERTEX
  8
0
 10
953.14725
 20
3982.85881
 30
0.0
  0
VERTEX
  8
0
 10
966.33606
 20
3982.5286
 30
0.0
  0
VERTEX
  8
0
 10
984.49115
 20
3998.98429
 30
0.0
  0
VERTEX
  8
0
 10
1000.0
 20
4000.0
 30
0.0
  0
VERTEX
  8
0
 10
1000.0
 20
4000.0
 30
0.0
  0
SEQEND
  0
POLYLINE
  8
0
 66
1
 10
0.0
 20
0.0
 30
0.0
 70
8
  0
VERTEX
  8
0
 10
2000.0
 20
4000.0
 30
0.0
  0
VERTEX
  8
0
 10
2074.25377
 20
4053.80636
 30
0.0
  0
VERTEX
  8
0
 10
2037.01561
 20
4091.75479
 30
0.0
  0
VERTEX
  8
0
 10
2002.09185
 20
4094.77396
 30
0.0
  0
VERTEX
  8
0
 10
1952.44775
 20
4055.45287
 30
0.0
  0
VERTEX
  8
0
 10
1950.63517
 20
4040.36961
 30
0.0
  0
VERTEX
  8
0
 10
1978.1274
 20
4012.31535
 30
0.0
  0
VERTEX
  8
0
 10
1990.00613
 20
4015.63236
 30
0.0
  0
VERTEX
  8
0
 10
2000.0
 20
4000.0
 30
0.0
  0
VERTEX
  8
0
 10
2000.0
 20
4000.0
 30
0.0
  0
SEQEND
  0
POLYLINE
  8
0
 66
1
 10
0.0
 20
0.0
 30
0.0
 70
8
  0
VERTEX
  8
0
 10
3000.0
 20
4000.0
 30
0.0
  0
VERTEX
  8
0
 10
3088.7573
 20
4012.52304
 30
0.0
  0
VERTEX
  8
0
 10
3104.61614
 20
4022.86329
 30
0.0
  0
VERTEX
  8
0
 10
3125.24886
 20
4023.10764
 30
0.0
  0
VERTEX
  8
0
 10
3122.36337
 20
4045.00165
 30
0.0
  0
VERTEX
  8
0
 10
3108.38586
 20
4053.05918
 30
0.0
  0
VERTEX
  8
0
 10
3087.64637
 20
4053.62491
 30
0.0
  0
VERTEX
  8
0
 10
3081.18713
 20
4056.89933
 30
0.0
  0
VERTEX
  8
0
 10
2993.9084
 20
4046.22068
 30
0.0
  0
VERTEX
  8
0
 10
3000.0
 20
4000.0
 30
0.0
  0
VERTEX
  8
0
 10
3000.0
 20
4000.0
 30
0.0
  0
SEQEND
  0
POLYLINE
  8
0
 66
1
 10
0.0
 20
0.0
 30
0.0
 70
8
  0
VERTEX
  8
0
 10
4000.0
 20
4000.0
 30
0.0
  0
VERTEX
  8
0
 10
3977.25604
 20
4004.04958
 30
0.0
  0
VERTEX
  8
0
 10
3957.4748
 20
4005.22109
 30
0.0
  0
VERTEX
  8
0
 10
3953.96114
 20
3965.25453
 30
0.0
  0
VERTEX
  8
0
 10
3979.67036
 20
3958.32662
 30
0.0
  0
VERTEX
  8
0
 10
4012.39158
 20
3951.25117
 30
0.0
  0
VERTEX
  8
0
 10
4014.30589
 20
3958.49089
 30
0.0
  0
VERTEX
  8
0
 10
4000.02421
 20
3996.56539
 30
0.0
  0
VERTEX
  8
0
 10
4000.0
 20
4000.0
 30
0.0
  0
VERTEX
  8
0
 10
4000.0
 20
4000.0
 30
0.0
  0
SEQEND
  0
POLYLINE
  8
0
 66
1
 10
0.0
 20
0.0
 30
0.0
 70
8
  0
VERTEX
  8
0
 10
5000.0
 20
4000.0
 30
0.0
  0
VERTEX
  8
0
 10
4989.67283
 20
4006.19521
 30
0.0
  0
VERTEX
  8
0
 10
4983.85071
 20
4014.63913
 30
0.0
  0
VERTEX
  8
0
 10
4928.43807
 20
4027.41312
 30
0.0
  0
VERTEX
  8
0
 10
4927.02884
 20
4012.52191
 30
0.0
  0
VERTEX
  8
0
 10
4927.52638
 20
3992.19935
 30
0.0
  0
VERTEX
  8
0
 10
4989.42742
 20
3977.6982
 30
0.0
  0
VERTEX
  8
0
 10
5000.0
 20
4000.0
 30
0.0
  0
VERTEX
  8
0
 10
5000.0
 20
4000.0
 30
0.0
  0
SEQEND
  0
POLYLINE
  8
0
 66
1
 10
0.0
 20
0.0
 30
0.0
 70
8
  0
VERTEX
  8
0
 10
6000.0
 20
4000.0
 30
0.0
  0
VERTEX
  8
0
 10
5947.09924
 20
4033.856
 30
0.0
  0
VERTEX
  8
0
 10
5932.20521
 20
4053.50131
 30
0.0
  0
VERTEX
  8
0
 10
5878.79399
 20
4023.62973
 30
0.0
  0
VERTEX
  8
0
 10
5869.5563
 20
3998.74848
 30
0.0
  0
VERTEX
  8
0
 10
5893.56675
 20
3958.49128
 30
0.0
  0
VERTEX
  8
0
 10
5911.2112
 20
3951.38954
 30
0.0
  0
VERTEX
  8
0
 10
6000.0
 20
4000.0
 30
0.0
  0
VERTEX
  8
0
 10
6000.0
 20
4000.0
 30
0.0
  0
SEQEND
  0
POLYLINE
  8
0
 66
1
 10
0.0
 20
0.0
 30
0.0
 70
8
  0
VERTEX
  8
0
 10
7000.0
 20
4000.0
 30
0.0
  0
VERTEX
  8
0
 10
7015.52985
 20
4029.40368
 30
0.0
  0
VERTEX
  8
0
 10
6957.82876
 20
4052.72793
 30
0.0
  0
VERTEX
  8
0
 10
6931.66141
 20
4010.97114
 30
0.0
  0
VERTEX
  8
0
 10
7000.0
 20
4000.0
 30
0.0
  0
VERTEX
  8
0
 10
7000.0
 20
4000.0
 30
0.0
  0
SEQEND
  0
POLYLINE
  8
0
 66
1
 10
0.0
 20
0.0
 30
0.0
 70
8
  0
VERTEX
  8
0
 10
8000.0
 20
4000.0
 30
0.0
  0
VERTEX
  8
0
 10
7961.15355
 20
4037.41824
 30
0.0
  0
VERTEX
  8
0
 10
7925.38822
 20
4021.75106
 30
0.0
  0
VERTEX
  8
0
 10
7931.38565
 20
4002.51546
 30
0.0
  0
VERTEX
  8
0
 10
7954.70758
 20
3975.85419
 30
0.0
  0
VERTEX
  8
0
 10
8000.0
 20
4000.0
 30
0.0
  0
VERTEX
  8
0
 10
8000.0
 20
4000.0
 30
0.0
  0
SEQEND
  0
POLYLINE
  8
0
 66
1
 10
0.0
 20
0.0
 30
0.0
 70
8
  0
VERTEX
  8
0
 10
9000.0
 20
4000.0
 30
0.0
  0
VERTEX
  8
0
 10
8989.68711
 20
4020.14572
 30
0.0
  0
VERTEX
  8
0
 10
8973.30055
 20
4036.9573
 30
0.0
  0
VERTEX
  8
0
 10
8966.32929
 20
4028.73349
 30
0.0
  0
VERTEX
  8
0
 10
8960.15446
 20
4030.88831
 30
0.0
  0
VERTEX
  8
0
 10
8894.99218
 20
3950.57576
 30
0.0
  0
VERTEX
  8
0
 10
8930.97303
 20
3918.90446
 30
0.0
  0
VERTEX
  8
0
 10
8949.22165
 20
3931.21657
 30
0.0
  0
VERTEX
  8
0
 10
9000.0
 20
4000.0
 30
0.0
  0
VERTEX
  8
0
 10
9000.0
 20
4000.0
 30
0.0
  0
SEQEND
  0
POLYLINE
  8
0
 66
1
 10
0.0
 20
0.0
 30
0.0
 70
8
  0
VERTEX
  8
0
 10
10000.0
 20
4000.0
 30
0.0
  0
VERTEX
  8
0
 10
10046.04272
 20
4019.74984
 30
0.0
  0
VERTEX
  8
0
 10
10045.8491
 20
4040.96895
 30
0.0
  0
VERTEX
  8
0
 10
10057.52967
 20
4055.83587
 30
0.0
  0
VERTEX
  8
0
 10
10043.37801
 20
4079.15298
 30
0.0
  0
VERTEX
  8
0
 10
10029.46909
 20
4080.3306000000002
 30
0.0
  0
VERTEX
  8
0
 10
10015.41419
 20
4084.26942
 30
0.0
  0
VERTEX
  8
0
 10
9973.19993
 20
4061.9354
 30
0.0
  0
VERTEX
  8
0
 10
10000.0
 20
4000.0
 30
0.0
  0
VERTEX
  8
0
 10
10000.0
 20
4000.0
 30
0.0
  0
SEQEND
  0
POLYLINE
  8
0
 66
1
 10
0.0
 20
0.0
 30
0.0
 70
8
  0
VERTEX
  8
0
 10
11000.0
 20
4000.0
 30
0.0
  0
VERTEX
  8
0
 10
11021.82584
 20
4018.65009
 30
0.0
  0
VERTEX
  8
0
 10
11032.32365
 20
4017.53762
 30
0.0
  0
VERTEX
  8
0
 10
11068.27896
 20
3974.57832
 30
0.0
  0
VERTEX
  8
0
 10
11071.2111
 20
3966.85865
 30
0.0
  0
VERTEX
  8
0
 10
11051.1199
 20
3955.09658
 30
0.0
  0
VERTEX
  8
0
 10
11033.01609
 20
3967.79211
 30
0.0
  0
VERTEX
  8
0
 10
11023.38992
 20
3970.07518
 30
0.0
  0
VERTEX
  8
0
 10
11000.0
 20
4000.0
 30
0.0
  0
VERTEX
  8
0
 10
11000.0
 20
4000.0
 30
0.0
  0
SEQEND
  0
POLYLINE
  8
0
 66
1
 10
0.0
 20
0.0
 30
0.0
 70
8
  0
VERTEX
  8
0
 10
12000.0
 20
4000.0
 30
0.0
  0
VERTEX
  8
0
 10
12020.12894
 20
4010.20977
 30
0.0
  0
VERTEX
  8
0
 10
12034.74604
 20
4021.56412
 30
0.0
  0
VERTEX
  8
0
 10
12052.58385
 20
4037.00042
 30
0.0
  0
VERTEX
  8
0
 10
12023.53465
 20
4064.27379
 30
0.0
  0
VERTEX
  8
0
 10
12001.71038
 20
4041.63231
 30
0.0
  0
VERTEX
  8
0
 10
12002.10301
 20
4035.19312
 30
0.0
  0
VERTEX
  8
0
 10
11990.01481
 20
4020.58797
 30
0.0
  0
VERTEX
  8
0
 10
11990.50944
 20
4008.53907
 30
0.0
  0
VERTEX
  8
0
 10
12000.0
 20
4000.0
 30
0.0
  0
VERTEX
  8
0
 10
12000.0
 20
4000.0
 30
0.0
  0
SEQEND
  0
POLYLINE
  8
0
 66
1
 10
0.0
 20
0.0
 30
0.0
 70
8
  0
VERTEX
  8
0
 10
13000.0
 20
4000.0
 30
0.0
  0
VERTEX
  8
0
 10
12996.2106
 20
4030.54657
 30
0.0
  0
VERTEX
  8
0
 10
13001.68793
 20
4032.24296
 30
0.0
  0
VERTEX
  8
0
 10
12999.7027
 20
4048.37084
 30
0.0
  0
VERTEX
  8
0
 10
13030.08485
 20
4043.89305
 30
0.0
  0
VERTEX
  8
0
 10
13033.41056
 20
4005.04163
 30
0.0
  0
VERTEX
  8
0
 10
13000.0
 20
4000.0
 30
0.0
  0
VERTEX
  8
0
 10
13000.0
 20
4000.0
 30
0.0
  0
SEQEND
  0
POLYLINE
  8
0
 66
1
 10
0.0
 20
0.0
 30
0.0
 70
8
  0
VERTEX
  8
0
 10
14000.0
 20
4000.0
 30
0.0
  0
VERTEX
  8
0
 10
14007.10692
 20
4032.72521
 30
0.0
  0
VERTEX
  8
0
 10
14038.9679
 20
4025.94531
 30
0.0
  0
VERTEX
  8
0
 10
14040.93422
 20
4004.25357
 30
0.0
  0
VERTEX
  8
0
 10
14010.54126
 20
3993.61425
 30
0.0
  0
VERTEX
  8
0
 10
14000.0
 20
4000.0
 30
0.0
  0
VERTEX
  8
0
 10
14000.0
 20
4000.0
 30
0.0
  0
SEQEND
  0
POLYLINE
  8
0
 66
1
 10
0.0
 20
0.0
 30
0.0
 70
8
  0
VERTEX
  8
0
 10
15000.0
 20
4000.0
 30
0.0
  0
VERTEX
  8
0
 10
14951.44576
 20
4026.07003
 30
0.0
  0
VERTEX
  8
0
 10
14977.96418
 20
4073.97833
 30
0.0
  0
VERTEX
  8
0
 10
15010.94606
 20
4086.81387
 30
0.0
  0
VERTEX
  8
0
 10
15035.16841
 20
4118.22628
 30
0.0
  0
VERTEX
  8
0
 10
15047.71523
 20
4117.18694
 30
0.0
  0
VERTEX
  8
0
 10
15057.44032
 20
4125.93644
 30
0.0
  0
VERTEX
  8
0
 10
15063.69864
 20
4118.93895
 30
0.0
  0
VERTEX
  8
0
 10
15055.83325
 20
4095.02629
 30
0.0
  0
VERTEX
  8
0
 10
15054.95182
 20
4084.61223
 30
0.0
  0
VERTEX
  8
0
 10
15014.20117
 20
4011.87441
 30
0.0
  0
VERTEX
  8
0
 10
15000.0
 20
4000.0
 30
0.0
  0
VERTEX
  8
0
 10
15000.0
 20
4000.0
 30
0.0
  0
SEQEND
  0
POLYLINE
  8
0
 66
1
 10
0.0
 20
0.0
 30
0.0
 70
8
  0
VERTEX
  8
0
 10
16000.0
 20
4000.0
 30
0.0
  0
VERTEX
  8
0
 10
16002.72992
 20
4072.2673
 30
0.0
  0
VERTEX
  8
0
 10
16020.86228
 20
4105.77902
 30
0.0
  0
VERTEX
  8
0
 10
16050.50849
 20
4124.52459
 30
0.0
  0
VERTEX
  8
0
 10
16037.81238
 20
4101.68382
 30
0.0
  0
VERTEX
  8
0
 10
16038.15789
 20
4056.17246
 30
0.0
  0
VERTEX
  8
0
 10
16050.06825
 20
4048.52615
 30
0.0
  0
VERTEX
  8
0
 10
16048.22459
 20
4004.46589
 30
0.0
  0
VERTEX
  8
0
 10
16000.0
 20
4000.0
 30
0.0
  0
VERTEX
  8
0
 10
16000.0
 20
4000.0
 30
0.0
  0
SEQEND
  0
POLYLINE
  8
0
 66
1
 10
0.0
 20
0.0
 30
0.0
 70
8
  0
VERTEX
  8
0
 10
17000.0
 20
4000.0
 30
0.0
  0
VERTEX
  8
0
 10
17062.56517
 20
4071.95526
 30
0.0
  0
VERTEX
  8
0
 10
17041.18068
 20
4092.35684
 30
0.0
  0
VERTEX
  8
0
 10
17009.53914
 20
4055.54658
 30
0.0
  0
VERTEX
  8
0
 10
16990.57825
 20
4010.16468
 30
0.0
  0
VERTEX
  8
0
 10
17000.0
 20
4000.0
 30
0.0
  0
VERTEX
  8
0
 10
17000.0
 20
4000.0
 30
0.0
  0
SEQEND
  0
POLYLINE
  8
0
 66
1
 10
0.0
 20
0.0
 30
0.0
 70
8
  0
VERTEX
  8
0
 10
18000.0
 20
4000.0
 30
0.0
  0
VERTEX
  8
0
 10
17944.57846
 20
4070.89074
 30
0.0
  0
VERTEX
  8
0
 10
17957.90167
 20
4094.48142
 30
0.0
  0
VERTEX
  8
0
 10
17973.83554
 20
4097.97475
 30
0.0
  0
VERTEX
  8
0
 10
18004.59871
 20
4032.32204
 30
0.0
  0
VERTEX
  8
0
 10
18003.12738
 20
4012.70998
 30
0.0
  0
VERTEX
  8
0
 10
18000.0
 20
4000.0
 30
0.0
  0
VERTEX
  8
0
 10
18000.0
 20
4000.0
 30
0.0
  0
SEQEND
  0
POLYLINE
  8
0
 66
1
 10
0.0
 20
0.0
 30
0.0
 70
8
  0
VERTEX
  8
0
 10
19000.0
 20
4000.0
 30
0.0
  0
VERTEX
  8
0
 10
19019.12028
 20
3999.28444
 30
0.0
  0
VERTEX
  8
0
 10
19062.23437
 20
4094.37553
 30
0.0
  0
VERTEX
  8
0
 10
19054.62555
 20
4103.16164
 30
0.0
  0
VERTEX
  8
0
 10
19037.30155
 20
4096.01816
 30
0.0
  0
VERTEX
  8
0
 10
19000.0
 20
4000.0
 30
0.0
  0
VERTEX
  8
0
 10
19000.0
 20
4000.0
 30
0.0
  0
SEQEND
  0
POLYLINE
  8
0
 66
1
 10
0.0
 20
0.0
 30
0.0
 70
8
  0
VERTEX
  8
0
 10
20000.0
 20
4000.0
 30
0.0
  0
VERTEX
  8
0
 10
19991.48015
 20
4009.67055
 30
0.0
  0
VERTEX
  8
0
 10
19985.0907
 20
4016.92316
 30
0.0
  0
VERTEX
  8
0
 10
19983.64954
 20
4082.7019099999998
 30
0.0
  0
VERTEX
  8
0
 10
19988.75328
 20
4124.28873
 30
0.0
  0
VERTEX
  8
0
 10
20007.76272
 20
4112.80326
 30
0.0
  0
VERTEX
  8
0
 10
20014.47645
 20
4098.34058
 30
0.0
  0
VERTEX
  8
0
 10
20000.0
 20
4000.0
 30
0.0
  0
VERTEX
  8
0
 10
20000.0
 20
4000.0
 30
0.0
  0
SEQEND
  0
POLYLINE
  8
0
 66
1
 10
0.0
 20
0.0
 30
0.0
 70
8
  0
VERTEX
  8
0
 10
21000.0
 20
4000.0
 30
0.0
  0
VERTEX
  8
0
 10
20992.57418
 20
4006.58407
 30
0.0
  0
VERTEX
  8
0
 10
20982.00522
 20
4011.28327
 30
0.0
  0
VERTEX
  8
0
 10
20976.03452
 20
4014.46745
 30
0.0
  0
VERTEX
  8
0
 10
21029.29196
 20
4049.97117
 30
0.0
  0
VERTEX
  8
0
 10
21084.62138
 20
4082.68212
 30
0.0
  0
VERTEX
  8
0
 10
21101.51931
 20
4067.29938
 30
0.0
  0
VERTEX
  8
0
 10
21102.01541
 20
4056.91484
 30
0.0
  0
VERTEX
  8
0
 10
21000.0
 20
4000.0
 30
0.0
  0
VERTEX
  8
0
 10
21000.0
 20
4000.0
 30
0.0
  0
SEQEND
  0
POLYLINE
  8
0
 66
1
 10
0.0
 20
0.0
 30
0.0
 70
8
  0
VERTEX
  8
0
 10
22000.0
 20
4000.0
 30
0.0
  0
VERTEX
  8
0
 10
22075.78837
 20
4070.5436
 30
0.0
  0
VERTEX
  8
0
 10
22071.0236
 20
4094.06939
 30
0.0
  0
VERTEX
  8
0
 10
22064.96599
 20
4109.89192
 30
0.0
  0
VERTEX
  8
0
 10
21972.76457
 20
4035.58628
 30
0.0
  0
VERTEX
  8
0
 10
21972.73801
 20
4022.69213
 30
0.0
  0
VERTEX
  8
0
 10
22000.0
 20
4000.0
 30
0.0
  0
VERTEX
  8
0
 10
22000.0
 20
4000.0
 30
0.0
  0
SEQEND
  0
POLYLINE
  8
0
 66
1
 10
0.0
 20
0.0
 30
0.0
 70
8
  0
VERTEX
  8
0
 10
23000.0
 20
4000.0
 30
0.0
  0
VERTEX
  8
0
 10
22994.89049
 20
4034.1861
 30
0.0
  0
VERTEX
  8
0
 10
23074.68596
 20
4050.39198
 30
0.0
  0
VERTEX
  8
0
 10
23105.20753
 20
4037.12209
 30
0.0
  0
VERTEX
  8
0
 10
23112.08839
 20
4027.45171
 30
0.0
  0
VERTEX
  8
0
 10
23101.02412
 20
4015.09923
 30
0.0
  0
VERTEX
  8
0
 10
23000.0
 20
4000.0
 30
0.0
  0
VERTEX
  8
0
 10
23000.0
 20
4000.0
 30
0.0
  0
SEQEND
  0
POLYLINE
  8
0
 66
1
 10
0.0
 20
0.0
 30
0.0
 70
8
  0
VERTEX
  8
0
 10
24000.0
 20
4000.0
 30
0.0
  0
VERTEX
  8
0
 10
23955.19325
 20
4077.27754
 30
0.0
  0
VERTEX
  8
0
 10
23935.86478
 20
4077.23813
 30
0.0
  0
VERTEX
  8
0
 10
23900.01995
 20
4052.59602
 30
0.0
  0
VERTEX
  8
0
 10
23933.64154
 20
4002.09268
 30
0.0
  0
VERTEX
  8
0
 10
23944.73283
 20
3999.772
 30
0.0
  0
VERTEX
  8
0
 10
23970.48015
 20
3977.52496
 30
0.0
  0
VERTEX
  8
0
 10
24000.0
 20
4000.0
 30
0.0
  0
VERTEX
  8
0
 10
24000.0
 20
4000.0
 30
0.0
  0
SEQEND
  0
POLYLINE
  8
0
 66
1
 10
0.0
 20
0.0
 30
0.0
 70
8
  0
VERTEX
  8
0
 10
25000.0
 20
4000.0
 30
0.0
  0
VERTEX
  8
0
 10
24999.14885
 20
4024.38471
 30
0.0
  0
VERTEX
  8
0
 10
25016.39658
 20
4055.7342399999998
 30
0.0
  0
VERTEX
  8
0
 10
24945.54953
 20
4074.67854
 30
0.0
  0
VERTEX
  8
0
 10
24936.79672
 20
4057.80296
 30
0.0
  0
VERTEX
  8
0
 10
24924.27447
 20
4062.38716
 30
0.0
  0
VERTEX
  8
0
 10
24912.16899
 20
4014.29029
 30
0.0
  0
VERTEX
  8
0
 10
25000.0
 20
4000.0
 30
0.0
  0
VERTEX
  8
0
 10
25000.0
 20
4000.0
 30
0.0
  0
SEQEND
  0
POLYLINE
  8
0
 66
1
 10
0.0
 20
0.0
 30
0.0
 70
8
  0
VERTEX
  8
0
 10
26000.0
 20
4000.0
 30
0.0
  0
VERTEX
  8
0
 10
25965.69742
 20
4072.06815
 30
0.0
  0
VERTEX
  8
0
 10
25973.73388
 20
4074.35689
 30
0.0
  0
VERTEX
  8
0
 10
25967.91803
 20
4096.42701
 30
0.0
  0
VERTEX
  8
0
 10
25993.72398
 20
4091.46299
 30
0.0
  0
VERTEX
  8
0
 10
26012.52924
 20
4095.84338
 30
0.0
  0
VERTEX
  8
0
 10
26049.10692
 20
4024.27264
 30
0.0
  0
VERTEX
  8
0
 10
26000.0
 20
4000.0
 30
0.0
  0
VERTEX
  8
0
 10
26000.0
 20
4000.0
 30
0.0
  0
SEQEND
  0
POLYLINE
  8
0
 66
1
 10
0.0
 20
0.0
 30
0.0
 70
8
  0
VERTEX
  8
0
 10
27000.0
 20
4000.0
 30
0.0
  0
VERTEX
  8
0
 10
27047.74334
 20
3968.0966
 30
0.0
  0
VERTEX
  8
0
 10
27076.5317
 20
3993.72909
 30
0.0
  0
VERTEX
  8
0
 10
27069.24203
 20
4004.36095
 30
0.0
  0
VERTEX
  8
0
 10
27040.1177
 20
4029.72117
 30
0.0
  0
VERTEX
  8
0
 10
27012.53442
 20
4002.93432
 30
0.0
  0
VERTEX
  8
0
 10
27005.10255
 20
4007.50436
 30
0.0
  0
VERTEX
  8
0
 10
27000.0
 20
4000.0
 30
0.0
  0
VERTEX
  8
0
 10
27000.0
 20
4000.0
 30
0.0
  0
SEQEND
  0
POLYLINE
  8
0
 66
1
 10
0.0
 20
0.0
 30
0.0
 70
8
  0
VERTEX
  8
0
 10
28000.0
 20
4000.0
 30
0.0
  0
VERTEX
  8
0
 10
27951.73744
 20
4013.06285
 30
0.0
  0
VERTEX
  8
0
 10
27941.44716
 20
3965.7956
 30
0.0
  0
VERTEX
  8
0
 10
27947.27685
 20
3946.14179
 30
0.0
  0
VERTEX
  8
0
 10
27986.59293
 20
3928.31359
 30
0.0
  0
VERTEX
  8
0
 10
28007.12642
 20
3947.13441
 30
0.0
  0
VERTEX
  8
0
 10
28003.36734
 20
3958.06964
 30
0.0
  0
VERTEX
  8
0
 10
28006.05166
 20
3968.80127
 30
0.0
  0
VERTEX
  8
0
 10
27997.83269
 20
3987.08874
 30
0.0
  0
VERTEX
  8
0
 10
28000.0
 20
4000.0
 30
0.0
  0
VERTEX
  8
0
 10
28000.0
 20
4000.0
 30
0.0
  0
SEQEND
  0
POLYLINE
  8
0
 66
1
 10
0.0
 20
0.0
 30
0.0
 70
8
  0
VERTEX
  8
0
 10
29000.0
 20
4000.0
 30
0.0
  0
VERTEX
  8
0
 10
29032.1004
 20
4084.16462
 30
0.0
  0
VERTEX
  8
0
 10
28978.34996
 20
4112.8653699999995
 30
0.0
  0
VERTEX
  8
0
 10
28946.8269
 20
4104.21351
 30
0.0
  0
VERTEX
  8
0
 10
28927.30658
 20
4044.28756
 30
0.0
  0
VERTEX
  8
0
 10
28934.50767
 20
4027.19573
 30
0.0
  0
VERTEX
  8
0
 10
28974.21243
 20
4005.9654
 30
0.0
  0
VERTEX
  8
0
 10
28982.41556
 20
4013.65196
 30
0.0
  0
VERTEX
  8
0
 10
29000.0
 20
4000.0
 30
0.0
  0
VERTEX
  8
0
 10
29000.0
 20
4000.0
 30
0.0
  0
SEQEND
  0
POLYLINE
  8
0
 66
1
 10
0.0
 20
0.0
 30
0.0
 70
8
  0
VERTEX
  8
0
 10
30000.0
 20
4000.0
 30
0.0
  0
VERTEX
  8
0
 10
30030.98764
 20
4049.6743500000002
 30
0.0
  0
VERTEX
  8
0
 10
30030.92255
 20
4062.96277
 30
0.0
  0
VERTEX
  8
0
 10
30039.96971
 20
4073.05782
 30
0.0
  0
VERTEX
  8
0
 10
30023.54424
 20
4083.58827
 30
0.0
  0
VERTEX
  8
0
 10
30011.73021
 20
4081.22778
 30
0.0
  0
VERTEX
  8
0
 10
30002.0753
 20
4071.52235
 30
0.0
  0
VERTEX
  8
0
 10
29996.92634
 20
4070.18693
 30
0.0
  0
VERTEX
  8
0
 10
29965.32399
 20
4022.23095
 30
0.0
  0
VERTEX
  8
0
 10
30000.0
 20
4000.0
 30
0.0
  0
VERTEX
  8
0
 10
30000.0
 20
4000.0
 30
0.0
  0
SEQEND
  0
POLYLINE
  8
0
 66
1
 10
0.0
 20
0.0
 30
0.0
 70
8
  0
VERTEX
  8
0
 10
31000.0
 20
4000.0
 30
0.0
  0
VERTEX
  8
0
 10
30976.73217
 20
3994.48854
 30
0.0
  0
VERTEX
  8
0
 10
30957.26466
 20
3987.01237
 30
0.0
  0
VERTEX
  8
0
 10
30966.95635
 20
3939.83369
 30
0.0
  0
VERTEX
  8
0
 10
30994.02703
 20
3943.38127
 30
0.0
  0
VERTEX
  8
0
 10
31027.91089
 20
3949.88455
 30
0.0
  0
VERTEX
  8
0
 10
31027.38809
 20
3959.00003
 30
0.0
  0
VERTEX
  8
0
 10
31001.14754
 20
3996.09092
 30
0.0
  0
VERTEX
  8
0
 10
31000.0
 20
4000.0
 30
0.0
  0
VERTEX
  8
0
 10
31000.0
 20
4000.0
 30
0.0
  0
SEQEND
  0
POLYLINE
  8
0
 66
1
 10
0.0
 20
0.0
 30
0.0
 70
8
  0
VERTEX
  8
0
 10
32000.0
 20
4000.0
 30
0.0
  0
VERTEX
  8
0
 10
31985.56252
 20
4002.36433
 30
0.0
  0
VERTEX
  8
0
 10
31973.76464
 20
4008.65895
 30
0.0
  0
VERTEX
  8
0
 10
31911.42102
 20
4000.83446
 30
0.0
  0
VERTEX
  8
0
 10
31921.07875
 20
3985.38736
 30
0.0
  0
VERTEX
  8
0
 10
31936.57021
 20
3965.20722
 30
0.0
  0
VERTEX
  8
0
 10
32006.3848
 20
3973.71599
 30
0.0
  0
VERTEX
  8
0
 10
32000.0
 20
4000.0
 30
0.0
  0
VERTEX
  8
0
 10
32000.0
 20
4000.0
 30
0.0
  0
SEQEND
  0
POLYLINE
  8
0
 66
1
 10
0.0
 20
0.0
 30
0.0
 70
8
  0
VERTEX
  8
0
 10
33000.0
 20
4000.0
 30
0.0
  0
VERTEX
  8
0
 10
32945.42989
 20
4047.19666
 30
0.0
  0
VERTEX
  8
0
 10
32930.89967
 20
4072.03916
 30
0.0
  0
VERTEX
  8
0
 10
32870.52188
 20
4046.50911
 30
0.0
  0
VERTEX
  8
0
 10
32858.45385
 20
4019.56932
 30
0.0
  0
VERTEX
  8
0
 10
32881.1698
 20
3969.71011
 30
0.0
  0
VERTEX
  8
0
 10
32899.71654
 20
3958.75591
 30
0.0
  0
VERTEX
  8
0
 10
33000.0
 20
4000.0
 30
0.0
  0
VERTEX
  8
0
 10
33000.0
 20
4000.0
 30
0.0
  0
SEQEND
  0
ENDSEC
  0
EOF
