  0
SECTION
  2
HEADER
  9
$ACADVER
  1
AC1009
  9
$INSBASE
 10
0.0
 20
0.0
 30
0.0
  9
$EXTMIN
 10
0.0
 20
0.0
 30
0.0
  9
$EXTMAX
 10
100.0
 20
100.0
 30
0.0
  9
$UNITMODE
 70
0
  9
$AUNITS
 70
0
  9
$ANGBASE
 50
0.0
  9
$ANGDIR
 70
0
  0
ENDSEC
  0
SECTION
  2
TABLES
  0
TABLE
  2
LTYPE
 70
19
  0
LTYPE
  2
CONTINUOUS
 70
0
  3
Solid
 72
65
 73
0
 40
0.0
  0
LTYPE
  2
CENTER
 70
0
  3
Center ____ _ ____ _ ____ _ ____ _ ____ _ ____
 72
65
 73
4
 40
2.0
 49
1.25
 49
-0.25
 49
0.25
 49
-0.25
  0
LTYPE
  2
CENTERX2
 70
0
  3
Center (2x) ________  __  ________  __  ________
 72
65
 73
4
 40
3.5
 49
2.5
 49
-0.25
 49
0.5
 49
-0.25
  0
LTYPE
  2
CENTER2
 70
0
  3
Center (.5x) ____ _ ____ _ ____ _ ____ _ ____
 72
65
 73
4
 40
1.0
 49
0.625
 49
-0.125
 49
0.125
 49
-0.125
  0
LTYPE
  2
DASHED
 70
0
  3
Dashed __ __ __ __ __ __ __ __ __ __ __ __ __ _
 72
65
 73
2
 40
0.6
 49
0.5
 49
-0.1
  0
LTYPE
  2
DASHEDX2
 70
0
  3
Dashed (2x) ____  ____  ____  ____  ____  ____
 72
65
 73
2
 40
1.2
 49
1.0
 49
-0.2
  0
LTYPE
  2
DASHED2
 70
0
  3
Dashed (.5x) _ _ _ _ _ _ _ _ _ _ _ _ _ _
 72
65
 73
2
 40
0.3
 49
0.25
 49
-0.05
  0
LTYPE
  2
PHANTOM
 70
0
  3
Phantom ______  __  __  ______  __  __  ______
 72
65
 73
6
 40
2.5
 49
1.25
 49
-0.25
 49
0.25
 49
-0.25
 49
0.25
 49
-0.25
  0
LTYPE
  2
PHANTOMX2
 70
0
  3
Phantom (2x)____________    ____    ____    ____________
 72
65
 73
6
 40
4.25
 49
2.5
 49
-0.25
 49
0.5
 49
-0.25
 49
0.5
 49
-0.25
  0
LTYPE
  2
PHANTOM2
 70
0
  3
Phantom (.5x) ___ _ _ ___ _ _ ___ _ _ ___ _ _ ___
 72
65
 73
6
 40
1.25
 49
0.625
 49
-0.125
 49
0.125
 49
-0.125
 49
0.125
 49
-0.125
  0
LTYPE
  2
DASHDOT
 70
0
  3
Dash dot __ . __ . __ . __ . __ . __ . __ . __
 72
65
 73
4
 40
1.4
 49
1.0
 49
-0.2
 49
0.0
 49
-0.2
  0
LTYPE
  2
DASHDOTX2
 70
0
  3
Dash dot (2x) ____  .  ____  .  ____  .  ____
 72
65
 73
4
 40
2.4
 49
2.0
 49
-0.2
 49
0.0
 49
-0.2
  0
LTYPE
  2
DASHDOT2
 70
0
  3
Dash dot (.5x) _ . _ . _ . _ . _ . _ . _ . _
 72
65
 73
4
 40
0.7
 49
0.5
 49
-0.1
 49
0.0
 49
-0.1
  0
LTYPE
  2
DOT
 70
0
  3
Dot .  .  .  .  .  .  .  .  .  .  .  .  .  .  .  .
 72
65
 73
2
 40
0.2
 49
0.0
 49
-0.2
  0
LTYPE
  2
DOTX2
 70
0
  3
Dot (2x) .    .    .    .    .    .    .    . 
 72
65
 73
2
 40
0.4
 49
0.0
 49
-0.4
  0
LTYPE
  2
DOT2
 70
0
  3
Dot (.5) . . . . . . . . . . . . . . . . . . . 
 72
65
 73
2
 40
0.1
 49
0.0
 49
-0.1
  0
LTYPE
  2
DIVIDE
 70
0
  3
Divide __ . . __ . . __ . . __ . . __ . . __
 72
65
 73
6
 40
1.6
 49
1.0
 49
-0.2
 49
0.0
 49
-0.2
 49
0.0
 49
-0.2
  0
LTYPE
  2
DIVIDEX2
 70
0
  3
Divide (2x) ____  . .  ____  . .  ____  . .  ____
 72
65
 73
6
 40
2.6
 49
2.0
 49
-0.2
 49
0.0
 49
-0.2
 49
0.0
 49
-0.2
  0
LTYPE
  2
DIVIDE2
 70
0
  3
Divide(.5x) _ . _ . _ . _ . _ . _ . _ . _
 72
65
 73
6
 40
0.8
 49
0.5
 49
-0.1
 49
0.0
 49
-0.1
 49
0.0
 49
-0.1
  0
ENDTAB
  0
TABLE
  2
LAYER
 70
5
  0
LAYER
  2
DIMENSIONS
 70
0
 62
1
  6
CONTINUOUS
  0
LAYER
  2
TABLEBACKGROUND
 70
0
 62
1
  6
CONTINUOUS
  0
LAYER
  2
TABLECONTENT
 70
0
 62
1
  6
CONTINUOUS
  0
LAYER
  2
TABLEGRID
 70
0
 62
1
  6
CONTINUOUS
  0
LAYER
  2
VIEWPORTS
 70
0
 62
7
  6
CONTINUOUS
  0
ENDTAB
  0
TABLE
  2
STYLE
 70
12
  0
STYLE
  2
STANDARD
 70
0
 40
0.0
 41
1.0
 42
1.0
 50
0.0
 71
0
  3
arial.ttf
  4

  0
STYLE
  2
ARIAL
 70
0
 40
0.0
 41
1.0
 42
1.0
 50
0.0
 71
0
  3
arial.ttf
  4

  0
STYLE
  2
ARIAL_BOLD
 70
0
 40
0.0
 41
1.0
 42
1.0
 50
0.0
 71
0
  3
arialbd.ttf
  4

  0
STYLE
  2
ARIAL_ITALIC
 70
0
 40
0.0
 41
1.0
 42
1.0
 50
0.0
 71
0
  3
ariali.ttf
  4

  0
STYLE
  2
ARIAL_BOLD_ITALIC
 70
0
 40
0.0
 41
1.0
 42
1.0
 50
0.0
 71
0
  3
arialbi.ttf
  4

  0
STYLE
  2
ARIAL_BLACK
 70
0
 40
0.0
 41
1.0
 42
1.0
 50
0.0
 71
0
  3
ariblk.ttf
  4

  0
STYLE
  2
ISOCPEUR
 70
0
 40
0.0
 41
1.0
 42
1.0
 50
0.0
 71
0
  3
isocpeur.ttf
  4

  0
STYLE
  2
ISOCPEUR_ITALIC
 70
0
 40
0.0
 41
1.0
 42
1.0
 50
0.0
 71
0
  3
isocpeui.ttf
  4

  0
STYLE
  2
TIMES
 70
0
 40
0.0
 41
1.0
 42
1.0
 50
0.0
 71
0
  3
times.ttf
  4

  0
STYLE
  2
TIMES_BOLD
 70
0
 40
0.0
 41
1.0
 42
1.0
 50
0.0
 71
0
  3
timesbd.ttf
  4

  0
STYLE
  2
TIMES_ITALIC
 70
0
 40
0.0
 41
1.0
 42
1.0
 50
0.0
 71
0
  3
timesi.ttf
  4

  0
STYLE
  2
TIMES_BOLD_ITALIC
 70
0
 40
0.0
 41
1.0
 42
1.0
 50
0.0
 71
0
  3
timesbi.ttf
  4

  0
ENDTAB
  0
TABLE
  2
VIEW
 70
0
  0
ENDTAB
  0
TABLE
  2
APPID
 70
1
  0
APPID
  2
DXFWRITE
 70
0
  0
ENDTAB
  0
TABLE
  2
VPORT
 70
0
  0
ENDTAB
  0
TABLE
  2
UCS
 70
0
  0
ENDTAB
  0
ENDSEC
  0
SECTION
  2
BLOCKS
  0
ENDSEC
  0
SECTION
  2
ENTITIES
  0
VIEWPORT
  8
VIEWPORTS
 67
1
 10
0.0
 20
0.0
 30
0.0
 40
1.0
 41
1.0
 68
1
 69
1
1001
ACAD
1000
MVIEW
1002
{
1070
16
1010
0.0
1020
0.0
1030
0.0
1010
0.0
1020
0.0
1030
0.0
1040
0.0
1040
1.0
1040
0.0
1040
0.0
1040
50.0
1040
0.0
1040
0.0
1070
0
1070
100
1070
1
1070
3
1070
0
1070
0
1070
0
1070
0
1040
0.0
1040
0.0
1040
0.0
1040
0.1
1040
0.1
1040
0.1
1040
0.1
1070
0
1002
{
1002
}
1002
}
  0
POLYLINE
  8
0
 66
1
 10
0.0
 20
0.0
 30
0.0
 70
8
  0
VERTEX
  8
0
 10
1024.59687
 20
1023.27453
 30
0.0
  0
VERTEX
  8
0
 10
970.37083
 20
1012.33148
 30
0.0
  0
VERTEX
  8
0
 10
997.09545
 20
953.97043
 30
0.0
  0
VERTEX
  8
0
 10
1008.10156
 20
957.11029
 30
0.0
  0
VERTEX
  8
0
 10
1024.59687
 20
1023.27453
 30
0.0
  0
SEQEND
  0
POLYLINE
  8
0
 66
1
 10
0.0
 20
0.0
 30
0.0
 70
8
  0
VERTEX
  8
0
 10
2049.43133
 20
1045.35111
 30
0.0
  0
VERTEX
  8
0
 10
1980.88721
 20
1003.0481
 30
0.0
  0
VERTEX
  8
0
 10
1991.69987
 20
964.45473
 30
0.0
  0
VERTEX
  8
0
 10
2010.43293
 20
956.3539499999999
 30
0.0
  0
VERTEX
  8
0
 10
2049.43133
 20
1045.35111
 30
0.0
  0
SEQEND
  0
POLYLINE
  8
0
 66
1
 10
0.0
 20
0.0
 30
0.0
 70
8
  0
VERTEX
  8
0
 10
3009.09762
 20
1010.60426
 30
0.0
  0
VERTEX
  8
0
 10
2960.9574
 20
1039.21621
 30
0.0
  0
VERTEX
  8
0
 10
2991.30745
 20
985.08126
 30
0.0
  0
VERTEX
  8
0
 10
3033.99575
 20
988.79055
 30
0.0
  0
VERTEX
  8
0
 10
3009.09762
 20
1010.60426
 30
0.0
  0
SEQEND
  0
POLYLINE
  8
0
 66
1
 10
0.0
 20
0.0
 30
0.0
 70
8
  0
VERTEX
  8
0
 10
4048.59148
 20
1005.71604
 30
0.0
  0
VERTEX
  8
0
 10
3968.39729
 20
1008.97733
 30
0.0
  0
VERTEX
  8
0
 10
3986.94954
 20
963.56204
 30
0.0
  0
VERTEX
  8
0
 10
4009.92854
 20
951.12471
 30
0.0
  0
VERTEX
  8
0
 10
4048.59148
 20
1005.71604
 30
0.0
  0
SEQEND
  0
POLYLINE
  8
0
 66
1
 10
0.0
 20
0.0
 30
0.0
 70
8
  0
VERTEX
  8
0
 10
5035.78363
 20
1014.49969
 30
0.0
  0
VERTEX
  8
0
 10
4990.79993
 20
1014.66395
 30
0.0
  0
VERTEX
  8
0
 10
4991.56779
 20
959.62705
 30
0.0
  0
VERTEX
  8
0
 10
5024.66962
 20
976.26904
 30
0.0
  0
VERTEX
  8
0
 10
5035.78363
 20
1014.49969
 30
0.0
  0
SEQEND
  0
POLYLINE
  8
0
 66
1
 10
0.0
 20
0.0
 30
0.0
 70
8
  0
VERTEX
  8
0
 10
6000.1894
 20
1023.95851
 30
0.0
  0
VERTEX
  8
0
 10
5964.34152
 20
1018.03983
 30
0.0
  0
VERTEX
  8
0
 10
5987.84901
 20
972.37569
 30
0.0
  0
VERTEX
  8
0
 10
6047.87058
 20
976.17401
 30
0.0
  0
VERTEX
  8
0
 10
6000.1894
 20
1023.95851
 30
0.0
  0
SEQEND
  0
POLYLINE
  8
0
 66
1
 10
0.0
 20
0.0
 30
0.0
 70
8
  0
VERTEX
  8
0
 10
7022.66182
 20
1033.8336199999999
 30
0.0
  0
VERTEX
  8
0
 10
6989.34572
 20
1048.74979
 30
0.0
  0
VERTEX
  8
0
 10
6990.70589
 20
980.92729
 30
0.0
  0
VERTEX
  8
0
 10
7003.5799
 20
967.5272199999999
 30
0.0
  0
VERTEX
  8
0
 10
7022.66182
 20
1033.8336199999999
 30
0.0
  0
SEQEND
  0
POLYLINE
  8
0
 66
1
 10
0.0
 20
0.0
 30
0.0
 70
8
  0
VERTEX
  8
0
 10
8034.73955
 20
1004.08573
 30
0.0
  0
VERTEX
  8
0
 10
7991.6357
 20
1019.97531
 30
0.0
  0
VERTEX
  8
0
 10
7951.73221
 20
954.20953
 30
0.0
  0
VERTEX
  8
0
 10
8037.89452
 20
963.43624
 30
0.0
  0
VERTEX
  8
0
 10
8034.73955
 20
1004.08573
 30
0.0
  0
SEQEND
  0
POLYLINE
  8
0
 66
1
 10
0.0
 20
0.0
 30
0.0
 70
8
  0
VERTEX
  8
0
 10
9047.40498
 20
1029.02219
 30
0.0
  0
VERTEX
  8
0
 10
8956.71224
 20
1041.16803
 30
0.0
  0
VERTEX
  8
0
 10
8991.7634
 20
951.1501
 30
0.0
  0
VERTEX
  8
0
 10
9018.96637
 20
969.79461
 30
0.0
  0
VERTEX
  8
0
 10
9047.40498
 20
1029.02219
 30
0.0
  0
SEQEND
  0
POLYLINE
  8
0
 66
1
 10
0.0
 20
0.0
 30
0.0
 70
8
  0
VERTEX
  8
0
 10
10012.53162
 20
1012.59102
 30
0.0
  0
VERTEX
  8
0
 10
9997.49761
 20
1038.6764699999999
 30
0.0
  0
VERTEX
  8
0
 10
9983.47166
 20
978.2333
 30
0.0
  0
VERTEX
  8
0
 10
10011.86367
 20
954.06798
 30
0.0
  0
VERTEX
  8
0
 10
10012.53162
 20
1012.59102
 30
0.0
  0
SEQEND
  0
POLYLINE
  8
0
 66
1
 10
0.0
 20
0.0
 30
0.0
 70
8
  0
VERTEX
  8
0
 10
11007.53275
 20
1012.38484
 30
0.0
  0
VERTEX
  8
0
 10
10976.5186
 20
1047.20158
 30
0.0
  0
VERTEX
  8
0
 10
10953.06026
 20
972.3023000000001
 30
0.0
  0
VERTEX
  8
0
 10
11036.58334
 20
969.53413
 30
0.0
  0
VERTEX
  8
0
 10
11007.53275
 20
1012.38484
 30
0.0
  0
SEQEND
  0
POLYLINE
  8
0
 66
1
 10
0.0
 20
0.0
 30
0.0
 70
8
  0
VERTEX
  8
0
 10
12039.98866
 20
1021.77054
 30
0.0
  0
VERTEX
  8
0
 10
11955.66073
 20
1002.29165
 30
0.0
  0
VERTEX
  8
0
 10
11986.25009
 20
983.85104
 30
0.0
  0
VERTEX
  8
0
 10
12046.63588
 20
986.64075
 30
0.0
  0
VERTEX
  8
0
 10
12039.98866
 20
1021.77054
 30
0.0
  0
SEQEND
  0
POLYLINE
  8
0
 66
1
 10
0.0
 20
0.0
 30
0.0
 70
8
  0
VERTEX
  8
0
 10
13014.73086
 20
1040.01622
 30
0.0
  0
VERTEX
  8
0
 10
12996.64716
 20
1011.5746
 30
0.0
  0
VERTEX
  8
0
 10
12981.77545
 20
951.35877
 30
0.0
  0
VERTEX
  8
0
 10
13028.97523
 20
980.79732
 30
0.0
  0
VERTEX
  8
0
 10
13014.73086
 20
1040.01622
 30
0.0
  0
SEQEND
  0
POLYLINE
  8
0
 66
1
 10
0.0
 20
0.0
 30
0.0
 70
8
  0
VERTEX
  8
0
 10
14006.85689
 20
1034.35115
 30
0.0
  0
VERTEX
  8
0
 10
13996.59467
 20
1032.97328
 30
0.0
  0
VERTEX
  8
0
 10
13996.16745
 20
970.42543
 30
0.0
  0
VERTEX
  8
0
 10
14023.23229
 20
986.95241
 30
0.0
  0
VERTEX
  8
0
 10
14006.85689
 20
1034.35115
 30
0.0
  0
SEQEND
  0
POLYLINE
  8
0
 66
1
 10
0.0
 20
0.0
 30
0.0
 70
8
  0
VERTEX
  8
0
 10
15016.287
 20
1012.42866
 30
0.0
  0
VERTEX
  8
0
 10
14951.40663
 20
1041.49394
 30
0.0
  0
VERTEX
  8
0
 10
14992.35908
 20
956.41439
 30
0.0
  0
VERTEX
  8
0
 10
15046.70522
 20
974.17634
 30
0.0
  0
VERTEX
  8
0
 10
15016.287
 20
1012.42866
 30
0.0
  0
SEQEND
  0
POLYLINE
  8
0
 66
1
 10
0.0
 20
0.0
 30
0.0
 70
8
  0
VERTEX
  8
0
 10
16003.21272
 20
1037.04082
 30
0.0
  0
VERTEX
  8
0
 10
15993.31283
 20
1033.41257
 30
0.0
  0
VERTEX
  8
0
 10
15969.57664
 20
962.06915
 30
0.0
  0
VERTEX
  8
0
 10
16046.91651
 20
968.03418
 30
0.0
  0
VERTEX
  8
0
 10
16003.21272
 20
1037.04082
 30
0.0
  0
SEQEND
  0
POLYLINE
  8
0
 66
1
 10
0.0
 20
0.0
 30
0.0
 70
8
  0
VERTEX
  8
0
 10
17020.26336
 20
1026.65146
 30
0.0
  0
VERTEX
  8
0
 10
16960.62498
 20
1007.92512
 30
0.0
  0
VERTEX
  8
0
 10
16958.0794
 20
981.06489
 30
0.0
  0
VERTEX
  8
0
 10
17038.88618
 20
950.87197
 30
0.0
  0
VERTEX
  8
0
 10
17020.26336
 20
1026.65146
 30
0.0
  0
SEQEND
  0
POLYLINE
  8
0
 66
1
 10
0.0
 20
0.0
 30
0.0
 70
8
  0
VERTEX
  8
0
 10
18013.26342
 20
1005.63841
 30
0.0
  0
VERTEX
  8
0
 10
17973.06326
 20
1025.87664
 30
0.0
  0
VERTEX
  8
0
 10
17969.11271
 20
988.76483
 30
0.0
  0
VERTEX
  8
0
 10
18032.30535
 20
985.6313
 30
0.0
  0
VERTEX
  8
0
 10
18013.26342
 20
1005.63841
 30
0.0
  0
SEQEND
  0
POLYLINE
  8
0
 66
1
 10
0.0
 20
0.0
 30
0.0
 70
8
  0
VERTEX
  8
0
 10
19001.19485
 20
1024.76664
 30
0.0
  0
VERTEX
  8
0
 10
18972.56731
 20
1028.98991
 30
0.0
  0
VERTEX
  8
0
 10
18987.04414
 20
971.62015
 30
0.0
  0
VERTEX
  8
0
 10
19044.31279
 20
962.5902
 30
0.0
  0
VERTEX
  8
0
 10
19001.19485
 20
1024.76664
 30
0.0
  0
SEQEND
  0
POLYLINE
  8
0
 66
1
 10
0.0
 20
0.0
 30
0.0
 70
8
  0
VERTEX
  8
0
 10
20017.57925
 20
1005.78025
 30
0.0
  0
VERTEX
  8
0
 10
19953.51784
 20
1002.17028
 30
0.0
  0
VERTEX
  8
0
 10
19994.31497
 20
974.80955
 30
0.0
  0
VERTEX
  8
0
 10
20026.62042
 20
973.5122
 30
0.0
  0
VERTEX
  8
0
 10
20017.57925
 20
1005.78025
 30
0.0
  0
SEQEND
  0
POLYLINE
  8
0
 66
1
 10
0.0
 20
0.0
 30
0.0
 70
8
  0
VERTEX
  8
0
 10
21031.31317
 20
1003.65962
 30
0.0
  0
VERTEX
  8
0
 10
20996.37058
 20
1039.6222
 30
0.0
  0
VERTEX
  8
0
 10
20966.86767
 20
995.86199
 30
0.0
  0
VERTEX
  8
0
 10
21040.13779
 20
952.52791
 30
0.0
  0
VERTEX
  8
0
 10
21031.31317
 20
1003.65962
 30
0.0
  0
SEQEND
  0
POLYLINE
  8
0
 66
1
 10
0.0
 20
0.0
 30
0.0
 70
8
  0
VERTEX
  8
0
 10
22043.36249
 20
1015.56364
 30
0.0
  0
VERTEX
  8
0
 10
21952.68604
 20
1012.82821
 30
0.0
  0
VERTEX
  8
0
 10
21957.13265
 20
961.28248
 30
0.0
  0
VERTEX
  8
0
 10
22018.88709
 20
992.68702
 30
0.0
  0
VERTEX
  8
0
 10
22043.36249
 20
1015.56364
 30
0.0
  0
SEQEND
  0
POLYLINE
  8
0
 66
1
 10
0.0
 20
0.0
 30
0.0
 70
8
  0
VERTEX
  8
0
 10
23003.22692
 20
1019.98659
 30
0.0
  0
VERTEX
  8
0
 10
22971.39616
 20
1005.58391
 30
0.0
  0
VERTEX
  8
0
 10
22996.60694
 20
976.60216
 30
0.0
  0
VERTEX
  8
0
 10
23006.89363
 20
955.50916
 30
0.0
  0
VERTEX
  8
0
 10
23003.22692
 20
1019.98659
 30
0.0
  0
SEQEND
  0
POLYLINE
  8
0
 66
1
 10
0.0
 20
0.0
 30
0.0
 70
8
  0
VERTEX
  8
0
 10
24025.25869
 20
1031.81579
 30
0.0
  0
VERTEX
  8
0
 10
23967.47062
 20
1003.51822
 30
0.0
  0
VERTEX
  8
0
 10
23970.4447
 20
972.48046
 30
0.0
  0
VERTEX
  8
0
 10
24000.2312
 20
984.85772
 30
0.0
  0
VERTEX
  8
0
 10
24025.25869
 20
1031.81579
 30
0.0
  0
SEQEND
  0
POLYLINE
  8
0
 66
1
 10
0.0
 20
0.0
 30
0.0
 70
8
  0
VERTEX
  8
0
 10
25027.99708
 20
1013.03248
 30
0.0
  0
VERTEX
  8
0
 10
24984.92291
 20
1036.31137
 30
0.0
  0
VERTEX
  8
0
 10
24960.761
 20
968.74669
 30
0.0
  0
VERTEX
  8
0
 10
25038.15858
 20
957.80754
 30
0.0
  0
VERTEX
  8
0
 10
25027.99708
 20
1013.03248
 30
0.0
  0
SEQEND
  0
POLYLINE
  8
0
 66
1
 10
0.0
 20
0.0
 30
0.0
 70
8
  0
VERTEX
  8
0
 10
26015.14634
 20
1012.67816
 30
0.0
  0
VERTEX
  8
0
 10
25994.9196
 20
1030.99261
 30
0.0
  0
VERTEX
  8
0
 10
25999.00738
 20
990.62712
 30
0.0
  0
VERTEX
  8
0
 10
26028.46196
 20
952.96958
 30
0.0
  0
VERTEX
  8
0
 10
26015.14634
 20
1012.67816
 30
0.0
  0
SEQEND
  0
POLYLINE
  8
0
 66
1
 10
0.0
 20
0.0
 30
0.0
 70
8
  0
VERTEX
  8
0
 10
27021.71914
 20
1013.11561
 30
0.0
  0
VERTEX
  8
0
 10
26989.00826
 20
1021.58104
 30
0.0
  0
VERTEX
  8
0
 10
26983.01404
 20
952.29808
 30
0.0
  0
VERTEX
  8
0
 10
27016.9777
 20
996.33148
 30
0.0
  0
VERTEX
  8
0
 10
27021.71914
 20
1013.11561
 30
0.0
  0
SEQEND
  0
POLYLINE
  8
0
 66
1
 10
0.0
 20
0.0
 30
0.0
 70
8
  0
VERTEX
  8
0
 10
28021.06158
 20
1000.11839
 30
0.0
  0
VERTEX
  8
0
 10
27993.02201
 20
1011.24748
 30
0.0
  0
VERTEX
  8
0
 10
27961.74032
 20
978.64376
 30
0.0
  0
VERTEX
  8
0
 10
28018.78499
 20
979.34414
 30
0.0
  0
VERTEX
  8
0
 10
28021.06158
 20
1000.11839
 30
0.0
  0
SEQEND
  0
POLYLINE
  8
0
 66
1
 10
0.0
 20
0.0
 30
0.0
 70
8
  0
VERTEX
  8
0
 10
29040.14465
 20
1001.8131
 30
0.0
  0
VERTEX
  8
0
 10
28977.38923
 20
1001.86132
 30
0.0
  0
VERTEX
  8
0
 10
28953.98114
 20
986.07614
 30
0.0
  0
VERTEX
  8
0
 10
29019.45796
 20
971.22261
 30
0.0
  0
VERTEX
  8
0
 10
29040.14465
 20
1001.8131
 30
0.0
  0
SEQEND
  0
POLYLINE
  8
0
 66
1
 10
0.0
 20
0.0
 30
0.0
 70
8
  0
VERTEX
  8
0
 10
30039.65123
 20
1001.18385
 30
0.0
  0
VERTEX
  8
0
 10
29990.91478
 20
1003.70269
 30
0.0
  0
VERTEX
  8
0
 10
29962.23453
 20
971.25085
 30
0.0
  0
VERTEX
  8
0
 10
30001.89704
 20
974.04662
 30
0.0
  0
VERTEX
  8
0
 10
30039.65123
 20
1001.18385
 30
0.0
  0
SEQEND
  0
POLYLINE
  8
0
 66
1
 10
0.0
 20
0.0
 30
0.0
 70
8
  0
VERTEX
  8
0
 10
31042.72904
 20
1005.49929
 30
0.0
  0
VERTEX
  8
0
 10
30974.22122
 20
1020.67183
 30
0.0
  0
VERTEX
  8
0
 10
30998.1134
 20
966.24197
 30
0.0
  0
VERTEX
  8
0
 10
31016.00073
 20
992.96971
 30
0.0
  0
VERTEX
  8
0
 10
31042.72904
 20
1005.49929
 30
0.0
  0
SEQEND
  0
POLYLINE
  8
0
 66
1
 10
0.0
 20
0.0
 30
0.0
 70
8
  0
VERTEX
  8
0
 10
32028.26865
 20
1007.49158
 30
0.0
  0
VERTEX
  8
0
 10
31969.01655
 20
1048.45041
 30
0.0
  0
VERTEX
  8
0
 10
31980.75239
 20
966.39343
 30
0.0
  0
VERTEX
  8
0
 10
32009.97412
 20
980.3629
 30
0.0
  0
VERTEX
  8
0
 10
32028.26865
 20
1007.49158
 30
0.0
  0
SEQEND
  0
POLYLINE
  8
0
 66
1
 10
0.0
 20
0.0
 30
0.0
 70
8
  0
VERTEX
  8
0
 10
33012.59322
 20
1044.75259
 30
0.0
  0
VERTEX
  8
0
 10
32957.93723
 20
1010.62041
 30
0.0
  0
VERTEX
  8
0
 10
32957.05831
 20
972.73906
 30
0.0
  0
VERTEX
  8
0
 10
33031.09049
 20
988.62369
 30
0.0
  0
VERTEX
  8
0
 10
33012.59322
 20
1044.75259
 30
0.0
  0
SEQEND
  0
POLYLINE
  8
0
 66
1
 10
0.0
 20
0.0
 30
0.0
 70
8
  0
VERTEX
  8
0
 10
34047.20095
 20
1004.30289
 30
0.0
  0
VERTEX
  8
0
 10
33960.00415
 20
1027.68646
 30
0.0
  0
VERTEX
  8
0
 10
33977.57496
 20
966.62332
 30
0.0
  0
VERTEX
  8
0
 10
34007.91811
 20
954.18742
 30
0.0
  0
VERTEX
  8
0
 10
34047.20095
 20
1004.30289
 30
0.0
  0
SEQEND
  0
POLYLINE
  8
0
 66
1
 10
0.0
 20
0.0
 30
0.0
 70
8
  0
VERTEX
  8
0
 10
35032.92022
 20
1042.43154
 30
0.0
  0
VERTEX
  8
0
 10
34967.79307
 20
1000.8857
 30
0.0
  0
VERTEX
  8
0
 10
34971.32408
 20
971.46942
 30
0.0
  0
VERTEX
  8
0
 10
35043.25361
 20
954.40279
 30
0.0
  0
VERTEX
  8
0
 10
35032.92022
 20
1042.43154
 30
0.0
  0
SEQEND
  0
POLYLINE
  8
0
 66
1
 10
0.0
 20
0.0
 30
0.0
 70
8
  0
VERTEX
  8
0
 10
36024.40709
 20
1041.68787
 30
0.0
  0
VERTEX
  8
0
 10
35970.53821
 20
1023.03568
 30
0.0
  0
VERTEX
  8
0
 10
35957.15223
 20
982.07191
 30
0.0
  0
VERTEX
  8
0
 10
36042.63577
 20
998.30145
 30
0.0
  0
VERTEX
  8
0
 10
36024.40709
 20
1041.68787
 30
0.0
  0
SEQEND
  0
POLYLINE
  8
0
 66
1
 10
0.0
 20
0.0
 30
0.0
 70
8
  0
VERTEX
  8
0
 10
37035.96099
 20
1047.57371
 30
0.0
  0
VERTEX
  8
0
 10
36989.07268
 20
1023.29789
 30
0.0
  0
VERTEX
  8
0
 10
36980.77875
 20
950.9629199999999
 30
0.0
  0
VERTEX
  8
0
 10
37019.68279
 20
971.81129
 30
0.0
  0
VERTEX
  8
0
 10
37035.96099
 20
1047.57371
 30
0.0
  0
SEQEND
  0
POLYLINE
  8
0
 66
1
 10
0.0
 20
0.0
 30
0.0
 70
8
  0
VERTEX
  8
0
 10
38040.95199
 20
1036.32643
 30
0.0
  0
VERTEX
  8
0
 10
37967.77758
 20
1040.52255
 30
0.0
  0
VERTEX
  8
0
 10
37951.36965
 20
956.1817599999999
 30
0.0
  0
VERTEX
  8
0
 10
38049.33805
 20
999.9968
 30
0.0
  0
VERTEX
  8
0
 10
38040.95199
 20
1036.32643
 30
0.0
  0
SEQEND
  0
POLYLINE
  8
0
 66
1
 10
0.0
 20
0.0
 30
0.0
 70
8
  0
VERTEX
  8
0
 10
39012.34933
 20
1044.78254
 30
0.0
  0
VERTEX
  8
0
 10
38954.16132
 20
1005.92889
 30
0.0
  0
VERTEX
  8
0
 10
38976.51031
 20
950.46839
 30
0.0
  0
VERTEX
  8
0
 10
39015.54328
 20
990.69091
 30
0.0
  0
VERTEX
  8
0
 10
39012.34933
 20
1044.78254
 30
0.0
  0
SEQEND
  0
POLYLINE
  8
0
 66
1
 10
0.0
 20
0.0
 30
0.0
 70
8
  0
VERTEX
  8
0
 10
40011.28603
 20
1035.82835
 30
0.0
  0
VERTEX
  8
0
 10
39986.77474
 20
1020.88422
 30
0.0
  0
VERTEX
  8
0
 10
39955.43419
 20
959.35472
 30
0.0
  0
VERTEX
  8
0
 10
40049.02493
 20
957.96413
 30
0.0
  0
VERTEX
  8
0
 10
40011.28603
 20
1035.82835
 30
0.0
  0
SEQEND
  0
POLYLINE
  8
0
 66
1
 10
0.0
 20
0.0
 30
0.0
 70
8
  0
VERTEX
  8
0
 10
41033.92865
 20
1001.71433
 30
0.0
  0
VERTEX
  8
0
 10
40957.40661
 20
1032.97821
 30
0.0
  0
VERTEX
  8
0
 10
40957.22296
 20
978.99871
 30
0.0
  0
VERTEX
  8
0
 10
41009.03083
 20
986.2065
 30
0.0
  0
VERTEX
  8
0
 10
41033.92865
 20
1001.71433
 30
0.0
  0
SEQEND
  0
POLYLINE
  8
0
 66
1
 10
0.0
 20
0.0
 30
0.0
 70
8
  0
VERTEX
  8
0
 10
42001.80774
 20
1038.45515
 30
0.0
  0
VERTEX
  8
0
 10
41988.57377
 20
1008.0943
 30
0.0
  0
VERTEX
  8
0
 10
41986.70919
 20
980.42603
 30
0.0
  0
VERTEX
  8
0
 10
42014.22756
 20
985.32809
 30
0.0
  0
VERTEX
  8
0
 10
42001.80774
 20
1038.45515
 30
0.0
  0
SEQEND
  0
POLYLINE
  8
0
 66
1
 10
0.0
 20
0.0
 30
0.0
 70
8
  0
VERTEX
  8
0
 10
43016.40053
 20
1003.9786
 30
0.0
  0
VERTEX
  8
0
 10
42981.53355
 20
1042.26428
 30
0.0
  0
VERTEX
  8
0
 10
42977.27267
 20
998.07735
 30
0.0
  0
VERTEX
  8
0
 10
43034.34589
 20
981.44829
 30
0.0
  0
VERTEX
  8
0
 10
43016.40053
 20
1003.9786
 30
0.0
  0
SEQEND
  0
POLYLINE
  8
0
 66
1
 10
0.0
 20
0.0
 30
0.0
 70
8
  0
VERTEX
  8
0
 10
44024.55391
 20
1011.86886
 30
0.0
  0
VERTEX
  8
0
 10
43991.83019
 20
1035.09451
 30
0.0
  0
VERTEX
  8
0
 10
43955.28485
 20
960.64815
 30
0.0
  0
VERTEX
  8
0
 10
44024.90662
 20
988.36943
 30
0.0
  0
VERTEX
  8
0
 10
44024.55391
 20
1011.86886
 30
0.0
  0
SEQEND
  0
POLYLINE
  8
0
 66
1
 10
0.0
 20
0.0
 30
0.0
 70
8
  0
VERTEX
  8
0
 10
45044.6125
 20
1037.35336
 30
0.0
  0
VERTEX
  8
0
 10
44991.74156
 20
1023.79112
 30
0.0
  0
VERTEX
  8
0
 10
44950.30244
 20
984.77371
 30
0.0
  0
VERTEX
  8
0
 10
45018.18836
 20
974.75776
 30
0.0
  0
VERTEX
  8
0
 10
45044.6125
 20
1037.35336
 30
0.0
  0
SEQEND
  0
POLYLINE
  8
0
 66
1
 10
0.0
 20
0.0
 30
0.0
 70
8
  0
VERTEX
  8
0
 10
46039.02711
 20
1042.10998
 30
0.0
  0
VERTEX
  8
0
 10
45995.28307
 20
1003.47638
 30
0.0
  0
VERTEX
  8
0
 10
45998.63931
 20
978.99024
 30
0.0
  0
VERTEX
  8
0
 10
46006.69261
 20
965.8362
 30
0.0
  0
VERTEX
  8
0
 10
46039.02711
 20
1042.10998
 30
0.0
  0
SEQEND
  0
POLYLINE
  8
0
 66
1
 10
0.0
 20
0.0
 30
0.0
 70
8
  0
VERTEX
  8
0
 10
47026.8509
 20
1022.558
 30
0.0
  0
VERTEX
  8
0
 10
46951.39708
 20
1047.83285
 30
0.0
  0
VERTEX
  8
0
 10
46999.92366
 20
954.16321
 30
0.0
  0
VERTEX
  8
0
 10
47000.48634
 20
959.10364
 30
0.0
  0
VERTEX
  8
0
 10
47026.8509
 20
1022.558
 30
0.0
  0
SEQEND
  0
POLYLINE
  8
0
 66
1
 10
0.0
 20
0.0
 30
0.0
 70
8
  0
VERTEX
  8
0
 10
48035.17532
 20
1048.65895
 30
0.0
  0
VERTEX
  8
0
 10
47968.11482
 20
1017.81746
 30
0.0
  0
VERTEX
  8
0
 10
47985.92196
 20
963.72651
 30
0.0
  0
VERTEX
  8
0
 10
48014.04129
 20
973.39889
 30
0.0
  0
VERTEX
  8
0
 10
48035.17532
 20
1048.65895
 30
0.0
  0
SEQEND
  0
POLYLINE
  8
0
 66
1
 10
0.0
 20
0.0
 30
0.0
 70
8
  0
VERTEX
  8
0
 10
32.796569999999996
 20
1048.83357
 30
0.0
  0
VERTEX
  8
0
 10
-25.14839
 20
1016.58526
 30
0.0
  0
VERTEX
  8
0
 10
-14.73669
 20
964.98932
 30
0.0
  0
VERTEX
  8
0
 10
4.17108
 20
994.60769
 30
0.0
  0
VERTEX
  8
0
 10
32.796569999999996
 20
1048.83357
 30
0.0
  0
SEQEND
  0
POLYLINE
  8
0
 66
1
 10
0.0
 20
0.0
 30
0.0
 70
8
  0
VERTEX
  8
0
 10
1007.04526
 20
2037.57118
 30
0.0
  0
VERTEX
  8
0
 10
975.04324
 20
2015.12278
 30
0.0
  0
VERTEX
  8
0
 10
967.8599
 20
1974.49
 30
0.0
  0
VERTEX
  8
0
 10
1023.56885
 20
1994.3445
 30
0.0
  0
VERTEX
  8
0
 10
1007.04526
 20
2037.57118
 30
0.0
  0
SEQEND
  0
POLYLINE
  8
0
 66
1
 10
0.0
 20
0.0
 30
0.0
 70
8
  0
VERTEX
  8
0
 10
2043.69262
 20
2006.80401
 30
0.0
  0
VERTEX
  8
0
 10
1952.93545
 20
2049.71851
 30
0.0
  0
VERTEX
  8
0
 10
1962.32302
 20
1993.22067
 30
0.0
  0
VERTEX
  8
0
 10
2015.82784
 20
1980.21187
 30
0.0
  0
VERTEX
  8
0
 10
2043.69262
 20
2006.80401
 30
0.0
  0
SEQEND
  0
POLYLINE
  8
0
 66
1
 10
0.0
 20
0.0
 30
0.0
 70
8
  0
VERTEX
  8
0
 10
3016.78586
 20
2019.38821
 30
0.0
  0
VERTEX
  8
0
 10
2986.87288
 20
2009.74885
 30
0.0
  0
VERTEX
  8
0
 10
2981.90317
 20
1974.59481
 30
0.0
  0
VERTEX
  8
0
 10
3009.63906
 20
1961.06342
 30
0.0
  0
VERTEX
  8
0
 10
3016.78586
 20
2019.38821
 30
0.0
  0
SEQEND
  0
POLYLINE
  8
0
 66
1
 10
0.0
 20
0.0
 30
0.0
 70
8
  0
VERTEX
  8
0
 10
4030.58768
 20
2017.36546
 30
0.0
  0
VERTEX
  8
0
 10
3987.56408
 20
2015.16278
 30
0.0
  0
VERTEX
  8
0
 10
3975.51929
 20
1977.55711
 30
0.0
  0
VERTEX
  8
0
 10
4046.23064
 20
1957.27817
 30
0.0
  0
VERTEX
  8
0
 10
4030.58768
 20
2017.36546
 30
0.0
  0
SEQEND
  0
POLYLINE
  8
0
 66
1
 10
0.0
 20
0.0
 30
0.0
 70
8
  0
VERTEX
  8
0
 10
5035.76154
 20
2018.11099
 30
0.0
  0
VERTEX
  8
0
 10
4958.6168
 20
2029.02458
 30
0.0
  0
VERTEX
  8
0
 10
4963.07535
 20
1999.69966
 30
0.0
  0
VERTEX
  8
0
 10
5025.06217
 20
1985.12886
 30
0.0
  0
VERTEX
  8
0
 10
5035.76154
 20
2018.11099
 30
0.0
  0
SEQEND
  0
POLYLINE
  8
0
 66
1
 10
0.0
 20
0.0
 30
0.0
 70
8
  0
VERTEX
  8
0
 10
6034.87526
 20
2024.77721
 30
0.0
  0
VERTEX
  8
0
 10
5995.40928
 20
2000.45271
 30
0.0
  0
VERTEX
  8
0
 10
5965.35173
 20
1974.58925
 30
0.0
  0
VERTEX
  8
0
 10
6041.51635
 20
1962.56112
 30
0.0
  0
VERTEX
  8
0
 10
6034.87526
 20
2024.77721
 30
0.0
  0
SEQEND
  0
POLYLINE
  8
0
 66
1
 10
0.0
 20
0.0
 30
0.0
 70
8
  0
VERTEX
  8
0
 10
7046.068
 20
2043.80815
 30
0.0
  0
VERTEX
  8
0
 10
6954.04628
 20
2017.46924
 30
0.0
  0
VERTEX
  8
0
 10
6977.52066
 20
1951.48844
 30
0.0
  0
VERTEX
  8
0
 10
7024.75039
 20
1986.46748
 30
0.0
  0
VERTEX
  8
0
 10
7046.068
 20
2043.80815
 30
0.0
  0
SEQEND
  0
POLYLINE
  8
0
 66
1
 10
0.0
 20
0.0
 30
0.0
 70
8
  0
VERTEX
  8
0
 10
8003.3032
 20
2002.85079
 30
0.0
  0
VERTEX
  8
0
 10
7988.2258
 20
2007.17918
 30
0.0
  0
VERTEX
  8
0
 10
7999.14944
 20
1996.84711
 30
0.0
  0
VERTEX
  8
0
 10
8033.39301
 20
1955.76675
 30
0.0
  0
VERTEX
  8
0
 10
8003.3032
 20
2002.85079
 30
0.0
  0
SEQEND
  0
POLYLINE
  8
0
 66
1
 10
0.0
 20
0.0
 30
0.0
 70
8
  0
VERTEX
  8
0
 10
9010.99036
 20
2029.07888
 30
0.0
  0
VERTEX
  8
0
 10
8975.48168
 20
2016.49267
 30
0.0
  0
VERTEX
  8
0
 10
8951.02325
 20
1969.4982
 30
0.0
  0
VERTEX
  8
0
 10
9013.70937
 20
1959.0885
 30
0.0
  0
VERTEX
  8
0
 10
9010.99036
 20
2029.07888
 30
0.0
  0
SEQEND
  0
POLYLINE
  8
0
 66
1
 10
0.0
 20
0.0
 30
0.0
 70
8
  0
VERTEX
  8
0
 10
10036.65669
 20
2017.09863
 30
0.0
  0
VERTEX
  8
0
 10
9969.40857
 20
2044.9243
 30
0.0
  0
VERTEX
  8
0
 10
9986.88065
 20
1968.82533
 30
0.0
  0
VERTEX
  8
0
 10
10046.2059
 20
1968.14674
 30
0.0
  0
VERTEX
  8
0
 10
10036.65669
 20
2017.09863
 30
0.0
  0
SEQEND
  0
POLYLINE
  8
0
 66
1
 10
0.0
 20
0.0
 30
0.0
 70
8
  0
VERTEX
  8
0
 10
11019.4857
 20
2048.99458
 30
0.0
  0
VERTEX
  8
0
 10
10963.46309
 20
2018.49102
 30
0.0
  0
VERTEX
  8
0
 10
10953.40509
 20
1961.34416
 30
0.0
  0
VERTEX
  8
0
 10
11004.72255
 20
1981.70686
 30
0.0
  0
VERTEX
  8
0
 10
11019.4857
 20
2048.99458
 30
0.0
  0
SEQEND
  0
POLYLINE
  8
0
 66
1
 10
0.0
 20
0.0
 30
0.0
 70
8
  0
VERTEX
  8
0
 10
12001.51952
 20
2017.28172
 30
0.0
  0
VERTEX
  8
0
 10
11985.64204
 20
2002.29874
 30
0.0
  0
VERTEX
  8
0
 10
11974.2514
 20
1987.95883
 30
0.0
  0
VERTEX
  8
0
 10
12003.32015
 20
1954.42062
 30
0.0
  0
VERTEX
  8
0
 10
12001.51952
 20
2017.28172
 30
0.0
  0
SEQEND
  0
POLYLINE
  8
0
 66
1
 10
0.0
 20
0.0
 30
0.0
 70
8
  0
VERTEX
  8
0
 10
13045.76708
 20
2009.73418
 30
0.0
  0
VERTEX
  8
0
 10
12965.95498
 20
2038.9589799999999
 30
0.0
  0
VERTEX
  8
0
 10
12985.0328
 20
1989.6742
 30
0.0
  0
VERTEX
  8
0
 10
13009.06551
 20
1953.62843
 30
0.0
  0
VERTEX
  8
0
 10
13045.76708
 20
2009.73418
 30
0.0
  0
SEQEND
  0
POLYLINE
  8
0
 66
1
 10
0.0
 20
0.0
 30
0.0
 70
8
  0
VERTEX
  8
0
 10
14021.6294
 20
2026.5713700000001
 30
0.0
  0
VERTEX
  8
0
 10
13956.60357
 20
2029.75409
 30
0.0
  0
VERTEX
  8
0
 10
13969.55167
 20
1981.29855
 30
0.0
  0
VERTEX
  8
0
 10
14034.83069
 20
1984.316
 30
0.0
  0
VERTEX
  8
0
 10
14021.6294
 20
2026.5713700000001
 30
0.0
  0
SEQEND
  0
POLYLINE
  8
0
 66
1
 10
0.0
 20
0.0
 30
0.0
 70
8
  0
VERTEX
  8
0
 10
15037.28763
 20
2039.30481
 30
0.0
  0
VERTEX
  8
0
 10
14979.39415
 20
2020.15976
 30
0.0
  0
VERTEX
  8
0
 10
14978.78609
 20
1960.68537
 30
0.0
  0
VERTEX
  8
0
 10
15044.53378
 20
1959.98409
 30
0.0
  0
VERTEX
  8
0
 10
15037.28763
 20
2039.30481
 30
0.0
  0
SEQEND
  0
POLYLINE
  8
0
 66
1
 10
0.0
 20
0.0
 30
0.0
 70
8
  0
VERTEX
  8
0
 10
16046.65696
 20
2013.61819
 30
0.0
  0
VERTEX
  8
0
 10
15997.97814
 20
2011.3731
 30
0.0
  0
VERTEX
  8
0
 10
15998.65619
 20
1985.27827
 30
0.0
  0
VERTEX
  8
0
 10
16011.14045
 20
1993.29656
 30
0.0
  0
VERTEX
  8
0
 10
16046.65696
 20
2013.61819
 30
0.0
  0
SEQEND
  0
POLYLINE
  8
0
 66
1
 10
0.0
 20
0.0
 30
0.0
 70
8
  0
VERTEX
  8
0
 10
17034.66853
 20
2021.06245
 30
0.0
  0
VERTEX
  8
0
 10
16969.98645
 20
2049.02829
 30
0.0
  0
VERTEX
  8
0
 10
16976.68926
 20
1993.23228
 30
0.0
  0
VERTEX
  8
0
 10
17027.8555
 20
1968.96941
 30
0.0
  0
VERTEX
  8
0
 10
17034.66853
 20
2021.06245
 30
0.0
  0
SEQEND
  0
POLYLINE
  8
0
 66
1
 10
0.0
 20
0.0
 30
0.0
 70
8
  0
VERTEX
  8
0
 10
18045.97059
 20
2028.59457
 30
0.0
  0
VERTEX
  8
0
 10
17975.41737
 20
2025.31267
 30
0.0
  0
VERTEX
  8
0
 10
17999.1084
 20
1958.36735
 30
0.0
  0
VERTEX
  8
0
 10
18005.92309
 20
1994.18338
 30
0.0
  0
VERTEX
  8
0
 10
18045.97059
 20
2028.59457
 30
0.0
  0
SEQEND
  0
POLYLINE
  8
0
 66
1
 10
0.0
 20
0.0
 30
0.0
 70
8
  0
VERTEX
  8
0
 10
19011.46567
 20
2006.63883
 30
0.0
  0
VERTEX
  8
0
 10
18966.19123
 20
2045.54599
 30
0.0
  0
VERTEX
  8
0
 10
18995.05777
 20
1983.88913
 30
0.0
  0
VERTEX
  8
0
 10
19001.12833
 20
1975.02613
 30
0.0
  0
VERTEX
  8
0
 10
19011.46567
 20
2006.63883
 30
0.0
  0
SEQEND
  0
POLYLINE
  8
0
 66
1
 10
0.0
 20
0.0
 30
0.0
 70
8
  0
VERTEX
  8
0
 10
20012.58291
 20
2021.78545
 30
0.0
  0
VERTEX
  8
0
 10
19983.01413
 20
2018.18272
 30
0.0
  0
VERTEX
  8
0
 10
19975.42873
 20
1959.20006
 30
0.0
  0
VERTEX
  8
0
 10
20023.60854
 20
1951.51037
 30
0.0
  0
VERTEX
  8
0
 10
20012.58291
 20
2021.78545
 30
0.0
  0
SEQEND
  0
POLYLINE
  8
0
 66
1
 10
0.0
 20
0.0
 30
0.0
 70
8
  0
VERTEX
  8
0
 10
21032.89449
 20
2022.13391
 30
0.0
  0
VERTEX
  8
0
 10
20954.04193
 20
2032.73976
 30
0.0
  0
VERTEX
  8
0
 10
20990.56558
 20
1951.69638
 30
0.0
  0
VERTEX
  8
0
 10
21034.68802
 20
1955.61205
 30
0.0
  0
VERTEX
  8
0
 10
21032.89449
 20
2022.13391
 30
0.0
  0
SEQEND
  0
POLYLINE
  8
0
 66
1
 10
0.0
 20
0.0
 30
0.0
 70
8
  0
VERTEX
  8
0
 10
22005.80128
 20
2027.16127
 30
0.0
  0
VERTEX
  8
0
 10
21975.0297
 20
2038.8357
 30
0.0
  0
VERTEX
  8
0
 10
21978.03035
 20
1965.61336
 30
0.0
  0
VERTEX
  8
0
 10
22007.68928
 20
1985.10574
 30
0.0
  0
VERTEX
  8
0
 10
22005.80128
 20
2027.16127
 30
0.0
  0
SEQEND
  0
POLYLINE
  8
0
 66
1
 10
0.0
 20
0.0
 30
0.0
 70
8
  0
VERTEX
  8
0
 10
23042.11364
 20
2037.33366
 30
0.0
  0
VERTEX
  8
0
 10
22965.5587
 20
2000.63387
 30
0.0
  0
VERTEX
  8
0
 10
22992.60246
 20
1994.79185
 30
0.0
  0
VERTEX
  8
0
 10
23016.86353
 20
1983.41082
 30
0.0
  0
VERTEX
  8
0
 10
23042.11364
 20
2037.33366
 30
0.0
  0
SEQEND
  0
POLYLINE
  8
0
 66
1
 10
0.0
 20
0.0
 30
0.0
 70
8
  0
VERTEX
  8
0
 10
24016.67541
 20
2008.96477
 30
0.0
  0
VERTEX
  8
0
 10
23958.83039
 20
2014.93487
 30
0.0
  0
VERTEX
  8
0
 10
23985.70026
 20
1981.05665
 30
0.0
  0
VERTEX
  8
0
 10
24039.41493
 20
1995.51179
 30
0.0
  0
VERTEX
  8
0
 10
24016.67541
 20
2008.96477
 30
0.0
  0
SEQEND
  0
POLYLINE
  8
0
 66
1
 10
0.0
 20
0.0
 30
0.0
 70
8
  0
VERTEX
  8
0
 10
25010.27122
 20
2018.39687
 30
0.0
  0
VERTEX
  8
0
 10
24981.83226
 20
2038.78466
 30
0.0
  0
VERTEX
  8
0
 10
24952.14435
 20
1958.93844
 30
0.0
  0
VERTEX
  8
0
 10
25004.24913
 20
1959.2949
 30
0.0
  0
VERTEX
  8
0
 10
25010.27122
 20
2018.39687
 30
0.0
  0
SEQEND
  0
POLYLINE
  8
0
 66
1
 10
0.0
 20
0.0
 30
0.0
 70
8
  0
VERTEX
  8
0
 10
26030.86082
 20
2022.59634
 30
0.0
  0
VERTEX
  8
0
 10
25961.71902
 20
2014.473
 30
0.0
  0
VERTEX
  8
0
 10
25971.63091
 20
1957.69137
 30
0.0
  0
VERTEX
  8
0
 10
26008.73209
 20
1986.81431
 30
0.0
  0
VERTEX
  8
0
 10
26030.86082
 20
2022.59634
 30
0.0
  0
SEQEND
  0
POLYLINE
  8
0
 66
1
 10
0.0
 20
0.0
 30
0.0
 70
8
  0
VERTEX
  8
0
 10
27020.23553
 20
2007.33389
 30
0.0
  0
VERTEX
  8
0
 10
26989.51798
 20
2048.35928
 30
0.0
  0
VERTEX
  8
0
 10
26955.8377
 20
1992.65339
 30
0.0
  0
VERTEX
  8
0
 10
27037.30843
 20
1985.98675
 30
0.0
  0
VERTEX
  8
0
 10
27020.23553
 20
2007.33389
 30
0.0
  0
SEQEND
  0
POLYLINE
  8
0
 66
1
 10
0.0
 20
0.0
 30
0.0
 70
8
  0
VERTEX
  8
0
 10
28004.10356
 20
2016.84422
 30
0.0
  0
VERTEX
  8
0
 10
27964.80621
 20
2041.44634
 30
0.0
  0
VERTEX
  8
0
 10
27957.99128
 20
1955.95344
 30
0.0
  0
VERTEX
  8
0
 10
28003.37178
 20
1977.54005
 30
0.0
  0
VERTEX
  8
0
 10
28004.10356
 20
2016.84422
 30
0.0
  0
SEQEND
  0
POLYLINE
  8
0
 66
1
 10
0.0
 20
0.0
 30
0.0
 70
8
  0
VERTEX
  8
0
 10
29040.51215
 20
2001.62911
 30
0.0
  0
VERTEX
  8
0
 10
28987.0677
 20
2016.6641300000001
 30
0.0
  0
VERTEX
  8
0
 10
28952.19459
 20
1957.70256
 30
0.0
  0
VERTEX
  8
0
 10
29038.87437
 20
1960.52087
 30
0.0
  0
VERTEX
  8
0
 10
29040.51215
 20
2001.62911
 30
0.0
  0
SEQEND
  0
POLYLINE
  8
0
 66
1
 10
0.0
 20
0.0
 30
0.0
 70
8
  0
VERTEX
  8
0
 10
30039.49411
 20
2032.38904
 30
0.0
  0
VERTEX
  8
0
 10
29961.74378
 20
2033.44638
 30
0.0
  0
VERTEX
  8
0
 10
29962.3423
 20
1955.63084
 30
0.0
  0
VERTEX
  8
0
 10
30033.21213
 20
1981.90316
 30
0.0
  0
VERTEX
  8
0
 10
30039.49411
 20
2032.38904
 30
0.0
  0
SEQEND
  0
POLYLINE
  8
0
 66
1
 10
0.0
 20
0.0
 30
0.0
 70
8
  0
VERTEX
  8
0
 10
31040.10071
 20
2021.2036
 30
0.0
  0
VERTEX
  8
0
 10
30992.13776
 20
2020.2504
 30
0.0
  0
VERTEX
  8
0
 10
30977.00656
 20
1978.85985
 30
0.0
  0
VERTEX
  8
0
 10
31021.18145
 20
1966.16451
 30
0.0
  0
VERTEX
  8
0
 10
31040.10071
 20
2021.2036
 30
0.0
  0
SEQEND
  0
POLYLINE
  8
0
 66
1
 10
0.0
 20
0.0
 30
0.0
 70
8
  0
VERTEX
  8
0
 10
32046.53092
 20
2002.27868
 30
0.0
  0
VERTEX
  8
0
 10
31971.31642
 20
2025.4095
 30
0.0
  0
VERTEX
  8
0
 10
31975.3787
 20
1979.65
 30
0.0
  0
VERTEX
  8
0
 10
32002.13806
 20
1955.2013
 30
0.0
  0
VERTEX
  8
0
 10
32046.53092
 20
2002.27868
 30
0.0
  0
SEQEND
  0
POLYLINE
  8
0
 66
1
 10
0.0
 20
0.0
 30
0.0
 70
8
  0
VERTEX
  8
0
 10
33049.2641
 20
2035.94333
 30
0.0
  0
VERTEX
  8
0
 10
32997.48033
 20
2012.68995
 30
0.0
  0
VERTEX
  8
0
 10
32971.78943
 20
1979.09962
 30
0.0
  0
VERTEX
  8
0
 10
33002.87977
 20
1966.45567
 30
0.0
  0
VERTEX
  8
0
 10
33049.2641
 20
2035.94333
 30
0.0
  0
SEQEND
  0
POLYLINE
  8
0
 66
1
 10
0.0
 20
0.0
 30
0.0
 70
8
  0
VERTEX
  8
0
 10
34001.34637
 20
2036.8287
 30
0.0
  0
VERTEX
  8
0
 10
33966.62266
 20
2044.59985
 30
0.0
  0
VERTEX
  8
0
 10
33980.29076
 20
1995.95774
 30
0.0
  0
VERTEX
  8
0
 10
34024.64801
 20
1971.82416
 30
0.0
  0
VERTEX
  8
0
 10
34001.34637
 20
2036.8287
 30
0.0
  0
SEQEND
  0
POLYLINE
  8
0
 66
1
 10
0.0
 20
0.0
 30
0.0
 70
8
  0
VERTEX
  8
0
 10
35035.31458
 20
2045.3753
 30
0.0
  0
VERTEX
  8
0
 10
34955.38107
 20
2005.59728
 30
0.0
  0
VERTEX
  8
0
 10
34962.87073
 20
1968.13162
 30
0.0
  0
VERTEX
  8
0
 10
35014.19226
 20
1969.9733
 30
0.0
  0
VERTEX
  8
0
 10
35035.31458
 20
2045.3753
 30
0.0
  0
SEQEND
  0
POLYLINE
  8
0
 66
1
 10
0.0
 20
0.0
 30
0.0
 70
8
  0
VERTEX
  8
0
 10
36027.87593
 20
2035.17714
 30
0.0
  0
VERTEX
  8
0
 10
35965.86802
 20
2013.73422
 30
0.0
  0
VERTEX
  8
0
 10
35986.036
 20
1953.14367
 30
0.0
  0
VERTEX
  8
0
 10
36049.24807
 20
1955.76029
 30
0.0
  0
VERTEX
  8
0
 10
36027.87593
 20
2035.17714
 30
0.0
  0
SEQEND
  0
POLYLINE
  8
0
 66
1
 10
0.0
 20
0.0
 30
0.0
 70
8
  0
VERTEX
  8
0
 10
37035.20768
 20
2021.85277
 30
0.0
  0
VERTEX
  8
0
 10
36996.27931
 20
2014.44904
 30
0.0
  0
VERTEX
  8
0
 10
36996.36423
 20
1962.5633
 30
0.0
  0
VERTEX
  8
0
 10
37044.51302
 20
1982.83665
 30
0.0
  0
VERTEX
  8
0
 10
37035.20768
 20
2021.85277
 30
0.0
  0
SEQEND
  0
POLYLINE
  8
0
 66
1
 10
0.0
 20
0.0
 30
0.0
 70
8
  0
VERTEX
  8
0
 10
38015.91055
 20
2042.11127
 30
0.0
  0
VERTEX
  8
0
 10
37999.14889
 20
2024.13347
 30
0.0
  0
VERTEX
  8
0
 10
37977.57463
 20
1968.25239
 30
0.0
  0
VERTEX
  8
0
 10
38020.37787
 20
1989.17897
 30
0.0
  0
VERTEX
  8
0
 10
38015.91055
 20
2042.11127
 30
0.0
  0
SEQEND
  0
POLYLINE
  8
0
 66
1
 10
0.0
 20
0.0
 30
0.0
 70
8
  0
VERTEX
  8
0
 10
39047.92829
 20
2020.27119
 30
0.0
  0
VERTEX
  8
0
 10
38981.6545
 20
2042.04818
 30
0.0
  0
VERTEX
  8
0
 10
38960.1073
 20
1971.43724
 30
0.0
  0
VERTEX
  8
0
 10
39041.82335
 20
1966.7913800000001
 30
0.0
  0
VERTEX
  8
0
 10
39047.92829
 20
2020.27119
 30
0.0
  0
SEQEND
  0
POLYLINE
  8
0
 66
1
 10
0.0
 20
0.0
 30
0.0
 70
8
  0
VERTEX
  8
0
 10
40006.61148
 20
2047.73213
 30
0.0
  0
VERTEX
  8
0
 10
39994.95073
 20
2000.94515
 30
0.0
  0
VERTEX
  8
0
 10
39957.59909
 20
1990.22851
 30
0.0
  0
VERTEX
  8
0
 10
40002.03084
 20
1969.49686
 30
0.0
  0
VERTEX
  8
0
 10
40006.61148
 20
2047.73213
 30
0.0
  0
SEQEND
  0
POLYLINE
  8
0
 66
1
 10
0.0
 20
0.0
 30
0.0
 70
8
  0
VERTEX
  8
0
 10
41037.65249
 20
2006.72212
 30
0.0
  0
VERTEX
  8
0
 10
40961.31733
 20
2008.34824
 30
0.0
  0
VERTEX
  8
0
 10
40996.6422
 20
1988.0717
 30
0.0
  0
VERTEX
  8
0
 10
41006.01307
 20
1975.8771
 30
0.0
  0
VERTEX
  8
0
 10
41037.65249
 20
2006.72212
 30
0.0
  0
SEQEND
  0
POLYLINE
  8
0
 66
1
 10
0.0
 20
0.0
 30
0.0
 70
8
  0
VERTEX
  8
0
 10
42043.96518
 20
2024.15707
 30
0.0
  0
VERTEX
  8
0
 10
41986.63838
 20
2000.95299
 30
0.0
  0
VERTEX
  8
0
 10
41999.63219
 20
1985.92232
 30
0.0
  0
VERTEX
  8
0
 10
42049.14901
 20
1997.76589
 30
0.0
  0
VERTEX
  8
0
 10
42043.96518
 20
2024.15707
 30
0.0
  0
SEQEND
  0
POLYLINE
  8
0
 66
1
 10
0.0
 20
0.0
 30
0.0
 70
8
  0
VERTEX
  8
0
 10
43011.47131
 20
2031.58076
 30
0.0
  0
VERTEX
  8
0
 10
42963.44679
 20
2005.25953
 30
0.0
  0
VERTEX
  8
0
 10
42965.96682
 20
1973.67078
 30
0.0
  0
VERTEX
  8
0
 10
43010.26698
 20
1958.02084
 30
0.0
  0
VERTEX
  8
0
 10
43011.47131
 20
2031.58076
 30
0.0
  0
SEQEND
  0
POLYLINE
  8
0
 66
1
 10
0.0
 20
0.0
 30
0.0
 70
8
  0
VERTEX
  8
0
 10
44035.35761
 20
2015.05027
 30
0.0
  0
VERTEX
  8
0
 10
43977.64137
 20
2027.18658
 30
0.0
  0
VERTEX
  8
0
 10
43981.56448
 20
1998.41304
 30
0.0
  0
VERTEX
  8
0
 10
44045.5274
 20
1993.97969
 30
0.0
  0
VERTEX
  8
0
 10
44035.35761
 20
2015.05027
 30
0.0
  0
SEQEND
  0
POLYLINE
  8
0
 66
1
 10
0.0
 20
0.0
 30
0.0
 70
8
  0
VERTEX
  8
0
 10
45007.92776
 20
2021.93224
 30
0.0
  0
VERTEX
  8
0
 10
44972.95316
 20
2014.32058
 30
0.0
  0
VERTEX
  8
0
 10
44989.10133
 20
1997.77988
 30
0.0
  0
VERTEX
  8
0
 10
45015.70426
 20
1978.39722
 30
0.0
  0
VERTEX
  8
0
 10
45007.92776
 20
2021.93224
 30
0.0
  0
SEQEND
  0
POLYLINE
  8
0
 66
1
 10
0.0
 20
0.0
 30
0.0
 70
8
  0
VERTEX
  8
0
 10
46031.19553
 20
2037.84953
 30
0.0
  0
VERTEX
  8
0
 10
45970.45816
 20
2031.40207
 30
0.0
  0
VERTEX
  8
0
 10
45991.20506
 20
1969.37127
 30
0.0
  0
VERTEX
  8
0
 10
46004.23274
 20
1958.59949
 30
0.0
  0
VERTEX
  8
0
 10
46031.19553
 20
2037.84953
 30
0.0
  0
SEQEND
  0
POLYLINE
  8
0
 66
1
 10
0.0
 20
0.0
 30
0.0
 70
8
  0
VERTEX
  8
0
 10
47036.24313
 20
2032.37325
 30
0.0
  0
VERTEX
  8
0
 10
46974.83972
 20
2026.05251
 30
0.0
  0
VERTEX
  8
0
 10
46994.87306
 20
1990.89155
 30
0.0
  0
VERTEX
  8
0
 10
47005.75581
 20
1992.82558
 30
0.0
  0
VERTEX
  8
0
 10
47036.24313
 20
2032.37325
 30
0.0
  0
SEQEND
  0
POLYLINE
  8
0
 66
1
 10
0.0
 20
0.0
 30
0.0
 70
8
  0
VERTEX
  8
0
 10
48002.28768
 20
2005.50547
 30
0.0
  0
VERTEX
  8
0
 10
47997.302
 20
2005.43261
 30
0.0
  0
VERTEX
  8
0
 10
47998.78451
 20
1974.94317
 30
0.0
  0
VERTEX
  8
0
 10
48036.40302
 20
1960.51943
 30
0.0
  0
VERTEX
  8
0
 10
48002.28768
 20
2005.50547
 30
0.0
  0
SEQEND
  0
POLYLINE
  8
0
 66
1
 10
0.0
 20
0.0
 30
0.0
 70
8
  0
VERTEX
  8
0
 10
19.729190000000003
 20
2022.4216
 30
0.0
  0
VERTEX
  8
0
 10
-10.176940000000002
 20
2028.96953
 30
0.0
  0
VERTEX
  8
0
 10
-9.19111
 20
1969.38296
 30
0.0
  0
VERTEX
  8
0
 10
10.04284
 20
1961.41306
 30
0.0
  0
VERTEX
  8
0
 10
19.729190000000003
 20
2022.4216
 30
0.0
  0
SEQEND
  0
POLYLINE
  8
0
 66
1
 10
0.0
 20
0.0
 30
0.0
 70
8
  0
VERTEX
  8
0
 10
1000.46012
 20
3034.98315
 30
0.0
  0
VERTEX
  8
0
 10
978.02417
 20
3020.238
 30
0.0
  0
VERTEX
  8
0
 10
993.71501
 20
2997.20284
 30
0.0
  0
VERTEX
  8
0
 10
1034.4017
 20
2950.77197
 30
0.0
  0
VERTEX
  8
0
 10
1000.46012
 20
3034.98315
 30
0.0
  0
SEQEND
  0
POLYLINE
  8
0
 66
1
 10
0.0
 20
0.0
 30
0.0
 70
8
  0
VERTEX
  8
0
 10
2031.98424
 20
3041.43264
 30
0.0
  0
VERTEX
  8
0
 10
1986.80215
 20
3025.82874
 30
0.0
  0
VERTEX
  8
0
 10
1985.17613
 20
2962.5276
 30
0.0
  0
VERTEX
  8
0
 10
2036.02574
 20
2989.83175
 30
0.0
  0
VERTEX
  8
0
 10
2031.98424
 20
3041.43264
 30
0.0
  0
SEQEND
  0
POLYLINE
  8
0
 66
1
 10
0.0
 20
0.0
 30
0.0
 70
8
  0
VERTEX
  8
0
 10
3004.38105
 20
3005.02959
 30
0.0
  0
VERTEX
  8
0
 10
2992.28444
 20
3049.99938
 30
0.0
  0
VERTEX
  8
0
 10
2957.75075
 20
2998.7176
 30
0.0
  0
VERTEX
  8
0
 10
3030.05661
 20
2992.76681
 30
0.0
  0
VERTEX
  8
0
 10
3004.38105
 20
3005.02959
 30
0.0
  0
SEQEND
  0
POLYLINE
  8
0
 66
1
 10
0.0
 20
0.0
 30
0.0
 70
8
  0
VERTEX
  8
0
 10
4047.56426
 20
3048.7020899999998
 30
0.0
  0
VERTEX
  8
0
 10
3992.58952
 20
3026.41554
 30
0.0
  0
VERTEX
  8
0
 10
3956.33334
 20
2990.43596
 30
0.0
  0
VERTEX
  8
0
 10
4034.95126
 20
2972.83321
 30
0.0
  0
VERTEX
  8
0
 10
4047.56426
 20
3048.7020899999998
 30
0.0
  0
SEQEND
  0
POLYLINE
  8
0
 66
1
 10
0.0
 20
0.0
 30
0.0
 70
8
  0
VERTEX
  8
0
 10
5038.07927
 20
3011.4008
 30
0.0
  0
VERTEX
  8
0
 10
4955.90883
 20
3008.668
 30
0.0
  0
VERTEX
  8
0
 10
4969.36547
 20
2954.48554
 30
0.0
  0
VERTEX
  8
0
 10
5035.84636
 20
2967.84759
 30
0.0
  0
VERTEX
  8
0
 10
5038.07927
 20
3011.4008
 30
0.0
  0
SEQEND
  0
POLYLINE
  8
0
 66
1
 10
0.0
 20
0.0
 30
0.0
 70
8
  0
VERTEX
  8
0
 10
6014.57067
 20
3026.36721
 30
0.0
  0
VERTEX
  8
0
 10
5972.10329
 20
3022.38242
 30
0.0
  0
VERTEX
  8
0
 10
5959.36117
 20
2986.64526
 30
0.0
  0
VERTEX
  8
0
 10
6031.51959
 20
2976.05007
 30
0.0
  0
VERTEX
  8
0
 10
6014.57067
 20
3026.36721
 30
0.0
  0
SEQEND
  0
POLYLINE
  8
0
 66
1
 10
0.0
 20
0.0
 30
0.0
 70
8
  0
VERTEX
  8
0
 10
7005.23223
 20
3026.41955
 30
0.0
  0
VERTEX
  8
0
 10
6963.04477
 20
3001.1566
 30
0.0
  0
VERTEX
  8
0
 10
6987.4398
 20
2986.21024
 30
0.0
  0
VERTEX
  8
0
 10
7009.87873
 20
2996.72432
 30
0.0
  0
VERTEX
  8
0
 10
7005.23223
 20
3026.41955
 30
0.0
  0
SEQEND
  0
POLYLINE
  8
0
 66
1
 10
0.0
 20
0.0
 30
0.0
 70
8
  0
VERTEX
  8
0
 10
8046.13815
 20
3025.77275
 30
0.0
  0
VERTEX
  8
0
 10
7982.04085
 20
3000.73194
 30
0.0
  0
VERTEX
  8
0
 10
7987.43629
 20
2954.15584
 30
0.0
  0
VERTEX
  8
0
 10
8026.67826
 20
2973.22996
 30
0.0
  0
VERTEX
  8
0
 10
8046.13815
 20
3025.77275
 30
0.0
  0
SEQEND
  0
POLYLINE
  8
0
 66
1
 10
0.0
 20
0.0
 30
0.0
 70
8
  0
VERTEX
  8
0
 10
9018.94932
 20
3018.41455
 30
0.0
  0
VERTEX
  8
0
 10
8997.79751
 20
3005.7693
 30
0.0
  0
VERTEX
  8
0
 10
8957.22107
 20
2971.25658
 30
0.0
  0
VERTEX
  8
0
 10
9033.19761
 20
2979.73622
 30
0.0
  0
VERTEX
  8
0
 10
9018.94932
 20
3018.41455
 30
0.0
  0
SEQEND
  0
POLYLINE
  8
0
 66
1
 10
0.0
 20
0.0
 30
0.0
 70
8
  0
VERTEX
  8
0
 10
10011.17783
 20
3024.70073
 30
0.0
  0
VERTEX
  8
0
 10
9975.80147
 20
3041.1935
 30
0.0
  0
VERTEX
  8
0
 10
9956.9463
 20
2964.9435
 30
0.0
  0
VERTEX
  8
0
 10
10016.74954
 20
2971.44477
 30
0.0
  0
VERTEX
  8
0
 10
10011.17783
 20
3024.70073
 30
0.0
  0
SEQEND
  0
POLYLINE
  8
0
 66
1
 10
0.0
 20
0.0
 30
0.0
 70
8
  0
VERTEX
  8
0
 10
11023.10489
 20
3011.02664
 30
0.0
  0
VERTEX
  8
0
 10
10991.62442
 20
3027.23445
 30
0.0
  0
VERTEX
  8
0
 10
10975.31953
 20
2957.00405
 30
0.0
  0
VERTEX
  8
0
 10
11013.06394
 20
2974.6829
 30
0.0
  0
VERTEX
  8
0
 10
11023.10489
 20
3011.02664
 30
0.0
  0
SEQEND
  0
POLYLINE
  8
0
 66
1
 10
0.0
 20
0.0
 30
0.0
 70
8
  0
VERTEX
  8
0
 10
12002.22526
 20
3026.10222
 30
0.0
  0
VERTEX
  8
0
 10
11967.52156
 20
3031.99804
 30
0.0
  0
VERTEX
  8
0
 10
11992.27413
 20
2959.42617
 30
0.0
  0
VERTEX
  8
0
 10
12033.58929
 20
2951.40629
 30
0.0
  0
VERTEX
  8
0
 10
12002.22526
 20
3026.10222
 30
0.0
  0
SEQEND
  0
POLYLINE
  8
0
 66
1
 10
0.0
 20
0.0
 30
0.0
 70
8
  0
VERTEX
  8
0
 10
13007.45568
 20
3029.08688
 30
0.0
  0
VERTEX
  8
0
 10
12970.81281
 20
3025.27215
 30
0.0
  0
VERTEX
  8
0
 10
12999.38493
 20
2997.5502
 30
0.0
  0
VERTEX
  8
0
 10
13031.07753
 20
2962.28753
 30
0.0
  0
VERTEX
  8
0
 10
13007.45568
 20
3029.08688
 30
0.0
  0
SEQEND
  0
POLYLINE
  8
0
 66
1
 10
0.0
 20
0.0
 30
0.0
 70
8
  0
VERTEX
  8
0
 10
14015.39032
 20
3046.04266
 30
0.0
  0
VERTEX
  8
0
 10
13981.30353
 20
3042.564
 30
0.0
  0
VERTEX
  8
0
 10
13995.20992
 20
2998.09914
 30
0.0
  0
VERTEX
  8
0
 10
14033.56136
 20
2950.94544
 30
0.0
  0
VERTEX
  8
0
 10
14015.39032
 20
3046.04266
 30
0.0
  0
SEQEND
  0
POLYLINE
  8
0
 66
1
 10
0.0
 20
0.0
 30
0.0
 70
8
  0
VERTEX
  8
0
 10
15044.26362
 20
3007.11027
 30
0.0
  0
VERTEX
  8
0
 10
14959.60568
 20
3028.06647
 30
0.0
  0
VERTEX
  8
0
 10
14975.53154
 20
2989.89388
 30
0.0
  0
VERTEX
  8
0
 10
15031.22339
 20
2964.78928
 30
0.0
  0
VERTEX
  8
0
 10
15044.26362
 20
3007.11027
 30
0.0
  0
SEQEND
  0
POLYLINE
  8
0
 66
1
 10
0.0
 20
0.0
 30
0.0
 70
8
  0
VERTEX
  8
0
 10
16005.22594
 20
3010.76357
 30
0.0
  0
VERTEX
  8
0
 10
15981.23365
 20
3022.61567
 30
0.0
  0
VERTEX
  8
0
 10
15998.04212
 20
2998.47742
 30
0.0
  0
VERTEX
  8
0
 10
16040.54148
 20
2991.11626
 30
0.0
  0
VERTEX
  8
0
 10
16005.22594
 20
3010.76357
 30
0.0
  0
SEQEND
  0
POLYLINE
  8
0
 66
1
 10
0.0
 20
0.0
 30
0.0
 70
8
  0
VERTEX
  8
0
 10
17025.22105
 20
3007.56042
 30
0.0
  0
VERTEX
  8
0
 10
16951.98484
 20
3008.09419
 30
0.0
  0
VERTEX
  8
0
 10
16983.17737
 20
2964.74588
 30
0.0
  0
VERTEX
  8
0
 10
17033.39723
 20
2961.35449
 30
0.0
  0
VERTEX
  8
0
 10
17025.22105
 20
3007.56042
 30
0.0
  0
SEQEND
  0
POLYLINE
  8
0
 66
1
 10
0.0
 20
0.0
 30
0.0
 70
8
  0
VERTEX
  8
0
 10
18047.81858
 20
3010.86223
 30
0.0
  0
VERTEX
  8
0
 10
17998.69596
 20
3020.3385
 30
0.0
  0
VERTEX
  8
0
 10
17976.04007
 20
2995.50508
 30
0.0
  0
VERTEX
  8
0
 10
18024.09364
 20
2984.66919
 30
0.0
  0
VERTEX
  8
0
 10
18047.81858
 20
3010.86223
 30
0.0
  0
SEQEND
  0
POLYLINE
  8
0
 66
1
 10
0.0
 20
0.0
 30
0.0
 70
8
  0
VERTEX
  8
0
 10
19007.1825
 20
3007.81954
 30
0.0
  0
VERTEX
  8
0
 10
18963.05112
 20
3043.13765
 30
0.0
  0
VERTEX
  8
0
 10
18993.0484
 20
2969.63102
 30
0.0
  0
VERTEX
  8
0
 10
19033.70442
 20
2994.20628
 30
0.0
  0
VERTEX
  8
0
 10
19007.1825
 20
3007.81954
 30
0.0
  0
SEQEND
  0
POLYLINE
  8
0
 66
1
 10
0.0
 20
0.0
 30
0.0
 70
8
  0
VERTEX
  8
0
 10
20019.65282
 20
3012.88847
 30
0.0
  0
VERTEX
  8
0
 10
19974.55309
 20
3025.65565
 30
0.0
  0
VERTEX
  8
0
 10
19953.22856
 20
2980.03525
 30
0.0
  0
VERTEX
  8
0
 10
20020.52069
 20
2979.82645
 30
0.0
  0
VERTEX
  8
0
 10
20019.65282
 20
3012.88847
 30
0.0
  0
SEQEND
  0
POLYLINE
  8
0
 66
1
 10
0.0
 20
0.0
 30
0.0
 70
8
  0
VERTEX
  8
0
 10
21032.13521
 20
3003.75136
 30
0.0
  0
VERTEX
  8
0
 10
20955.31811
 20
3011.21717
 30
0.0
  0
VERTEX
  8
0
 10
20950.27452
 20
2953.92009
 30
0.0
  0
VERTEX
  8
0
 10
21006.43196
 20
2977.70205
 30
0.0
  0
VERTEX
  8
0
 10
21032.13521
 20
3003.75136
 30
0.0
  0
SEQEND
  0
POLYLINE
  8
0
 66
1
 10
0.0
 20
0.0
 30
0.0
 70
8
  0
VERTEX
  8
0
 10
22034.43026
 20
3034.053
 30
0.0
  0
VERTEX
  8
0
 10
21954.11702
 20
3035.21327
 30
0.0
  0
VERTEX
  8
0
 10
21976.60494
 20
2974.68352
 30
0.0
  0
VERTEX
  8
0
 10
22024.8296
 20
2989.42495
 30
0.0
  0
VERTEX
  8
0
 10
22034.43026
 20
3034.053
 30
0.0
  0
SEQEND
  0
POLYLINE
  8
0
 66
1
 10
0.0
 20
0.0
 30
0.0
 70
8
  0
VERTEX
  8
0
 10
23046.45008
 20
3004.68749
 30
0.0
  0
VERTEX
  8
0
 10
22991.48257
 20
3020.43846
 30
0.0
  0
VERTEX
  8
0
 10
22984.52044
 20
2995.75056
 30
0.0
  0
VERTEX
  8
0
 10
23037.50945
 20
2950.83013
 30
0.0
  0
VERTEX
  8
0
 10
23046.45008
 20
3004.68749
 30
0.0
  0
SEQEND
  0
POLYLINE
  8
0
 66
1
 10
0.0
 20
0.0
 30
0.0
 70
8
  0
VERTEX
  8
0
 10
24031.30038
 20
3002.24955
 30
0.0
  0
VERTEX
  8
0
 10
23994.21124
 20
3027.56854
 30
0.0
  0
VERTEX
  8
0
 10
23983.91016
 20
2957.94471
 30
0.0
  0
VERTEX
  8
0
 10
24022.71902
 20
2993.61182
 30
0.0
  0
VERTEX
  8
0
 10
24031.30038
 20
3002.24955
 30
0.0
  0
SEQEND
  0
POLYLINE
  8
0
 66
1
 10
0.0
 20
0.0
 30
0.0
 70
8
  0
VERTEX
  8
0
 10
25036.16421
 20
3029.18942
 30
0.0
  0
VERTEX
  8
0
 10
24992.01326
 20
3046.63407
 30
0.0
  0
VERTEX
  8
0
 10
24993.77644
 20
2957.5247
 30
0.0
  0
VERTEX
  8
0
 10
25028.76429
 20
2999.10373
 30
0.0
  0
VERTEX
  8
0
 10
25036.16421
 20
3029.18942
 30
0.0
  0
SEQEND
  0
POLYLINE
  8
0
 66
1
 10
0.0
 20
0.0
 30
0.0
 70
8
  0
VERTEX
  8
0
 10
26039.88602
 20
3040.08135
 30
0.0
  0
VERTEX
  8
0
 10
25980.03448
 20
3048.42308
 30
0.0
  0
VERTEX
  8
0
 10
25986.59718
 20
2977.66061
 30
0.0
  0
VERTEX
  8
0
 10
26036.98905
 20
2996.15902
 30
0.0
  0
VERTEX
  8
0
 10
26039.88602
 20
3040.08135
 30
0.0
  0
SEQEND
  0
POLYLINE
  8
0
 66
1
 10
0.0
 20
0.0
 30
0.0
 70
8
  0
VERTEX
  8
0
 10
27017.47412
 20
3045.46373
 30
0.0
  0
VERTEX
  8
0
 10
26966.97708
 20
3040.67515
 30
0.0
  0
VERTEX
  8
0
 10
26974.42273
 20
2986.90223
 30
0.0
  0
VERTEX
  8
0
 10
27034.8192
 20
2953.57476
 30
0.0
  0
VERTEX
  8
0
 10
27017.47412
 20
3045.46373
 30
0.0
  0
SEQEND
  0
POLYLINE
  8
0
 66
1
 10
0.0
 20
0.0
 30
0.0
 70
8
  0
VERTEX
  8
0
 10
28011.64576
 20
3046.86649
 30
0.0
  0
VERTEX
  8
0
 10
27982.89248
 20
3044.26995
 30
0.0
  0
VERTEX
  8
0
 10
27987.71541
 20
2979.46331
 30
0.0
  0
VERTEX
  8
0
 10
28039.89852
 20
2951.54128
 30
0.0
  0
VERTEX
  8
0
 10
28011.64576
 20
3046.86649
 30
0.0
  0
SEQEND
  0
POLYLINE
  8
0
 66
1
 10
0.0
 20
0.0
 30
0.0
 70
8
  0
VERTEX
  8
0
 10
29003.66324
 20
3000.17537
 30
0.0
  0
VERTEX
  8
0
 10
28991.22609
 20
3028.05335
 30
0.0
  0
VERTEX
  8
0
 10
28983.73605
 20
2961.2964
 30
0.0
  0
VERTEX
  8
0
 10
29019.64733
 20
2976.81673
 30
0.0
  0
VERTEX
  8
0
 10
29003.66324
 20
3000.17537
 30
0.0
  0
SEQEND
  0
POLYLINE
  8
0
 66
1
 10
0.0
 20
0.0
 30
0.0
 70
8
  0
VERTEX
  8
0
 10
30020.3528
 20
3046.3938
 30
0.0
  0
VERTEX
  8
0
 10
29982.8631
 20
3018.79614
 30
0.0
  0
VERTEX
  8
0
 10
29980.3618
 20
2951.5138
 30
0.0
  0
VERTEX
  8
0
 10
30028.35945
 20
2961.6227
 30
0.0
  0
VERTEX
  8
0
 10
30020.3528
 20
3046.3938
 30
0.0
  0
SEQEND
  0
POLYLINE
  8
0
 66
1
 10
0.0
 20
0.0
 30
0.0
 70
8
  0
VERTEX
  8
0
 10
31045.01439
 20
3030.6451
 30
0.0
  0
VERTEX
  8
0
 10
30977.59953
 20
3046.79547
 30
0.0
  0
VERTEX
  8
0
 10
30997.68367
 20
2983.66316
 30
0.0
  0
VERTEX
  8
0
 10
31043.41838
 20
2971.16576
 30
0.0
  0
VERTEX
  8
0
 10
31045.01439
 20
3030.6451
 30
0.0
  0
SEQEND
  0
POLYLINE
  8
0
 66
1
 10
0.0
 20
0.0
 30
0.0
 70
8
  0
VERTEX
  8
0
 10
32030.92081
 20
3040.77011
 30
0.0
  0
VERTEX
  8
0
 10
31996.29026
 20
3030.07567
 30
0.0
  0
VERTEX
  8
0
 10
31997.76313
 20
2958.09542
 30
0.0
  0
VERTEX
  8
0
 10
32020.68284
 20
2961.9126
 30
0.0
  0
VERTEX
  8
0
 10
32030.92081
 20
3040.77011
 30
0.0
  0
SEQEND
  0
POLYLINE
  8
0
 66
1
 10
0.0
 20
0.0
 30
0.0
 70
8
  0
VERTEX
  8
0
 10
33041.41898
 20
3003.86672
 30
0.0
  0
VERTEX
  8
0
 10
32959.8245
 20
3009.89549
 30
0.0
  0
VERTEX
  8
0
 10
32975.79956
 20
2962.96735
 30
0.0
  0
VERTEX
  8
0
 10
33039.23752
 20
2980.09015
 30
0.0
  0
VERTEX
  8
0
 10
33041.41898
 20
3003.86672
 30
0.0
  0
SEQEND
  0
POLYLINE
  8
0
 66
1
 10
0.0
 20
0.0
 30
0.0
 70
8
  0
VERTEX
  8
0
 10
34029.53425
 20
3037.57724
 30
0.0
  0
VERTEX
  8
0
 10
33965.4344
 20
3004.73896
 30
0.0
  0
VERTEX
  8
0
 10
33965.08371
 20
2967.06752
 30
0.0
  0
VERTEX
  8
0
 10
34018.82242
 20
2982.16146
 30
0.0
  0
VERTEX
  8
0
 10
34029.53425
 20
3037.57724
 30
0.0
  0
SEQEND
  0
POLYLINE
  8
0
 66
1
 10
0.0
 20
0.0
 30
0.0
 70
8
  0
VERTEX
  8
0
 10
35037.11778
 20
3027.26732
 30
0.0
  0
VERTEX
  8
0
 10
34988.38586
 20
3038.11764
 30
0.0
  0
VERTEX
  8
0
 10
34969.90689
 20
2978.95747
 30
0.0
  0
VERTEX
  8
0
 10
35014.01261
 20
2955.6274
 30
0.0
  0
VERTEX
  8
0
 10
35037.11778
 20
3027.26732
 30
0.0
  0
SEQEND
  0
POLYLINE
  8
0
 66
1
 10
0.0
 20
0.0
 30
0.0
 70
8
  0
VERTEX
  8
0
 10
36033.216
 20
3030.68379
 30
0.0
  0
VERTEX
  8
0
 10
35996.40179
 20
3014.91756
 30
0.0
  0
VERTEX
  8
0
 10
35984.77486
 20
2995.98284
 30
0.0
  0
VERTEX
  8
0
 10
36030.15762
 20
2964.33978
 30
0.0
  0
VERTEX
  8
0
 10
36033.216
 20
3030.68379
 30
0.0
  0
SEQEND
  0
POLYLINE
  8
0
 66
1
 10
0.0
 20
0.0
 30
0.0
 70
8
  0
VERTEX
  8
0
 10
37021.26147
 20
3008.96144
 30
0.0
  0
VERTEX
  8
0
 10
36972.89567
 20
3033.72952
 30
0.0
  0
VERTEX
  8
0
 10
36998.46561
 20
2999.52495
 30
0.0
  0
VERTEX
  8
0
 10
37046.26202
 20
2976.49473
 30
0.0
  0
VERTEX
  8
0
 10
37021.26147
 20
3008.96144
 30
0.0
  0
SEQEND
  0
POLYLINE
  8
0
 66
1
 10
0.0
 20
0.0
 30
0.0
 70
8
  0
VERTEX
  8
0
 10
38028.73728
 20
3025.63392
 30
0.0
  0
VERTEX
  8
0
 10
37982.64606
 20
3034.33044
 30
0.0
  0
VERTEX
  8
0
 10
37965.4512
 20
2964.14312
 30
0.0
  0
VERTEX
  8
0
 10
38034.64951
 20
2954.28286
 30
0.0
  0
VERTEX
  8
0
 10
38028.73728
 20
3025.63392
 30
0.0
  0
SEQEND
  0
POLYLINE
  8
0
 66
1
 10
0.0
 20
0.0
 30
0.0
 70
8
  0
VERTEX
  8
0
 10
39010.59141
 20
3018.03215
 30
0.0
  0
VERTEX
  8
0
 10
38961.09704
 20
3026.89787
 30
0.0
  0
VERTEX
  8
0
 10
38985.15654
 20
2978.88316
 30
0.0
  0
VERTEX
  8
0
 10
39007.29919
 20
2985.66179
 30
0.0
  0
VERTEX
  8
0
 10
39010.59141
 20
3018.03215
 30
0.0
  0
SEQEND
  0
POLYLINE
  8
0
 66
1
 10
0.0
 20
0.0
 30
0.0
 70
8
  0
VERTEX
  8
0
 10
40048.6501
 20
3021.96127
 30
0.0
  0
VERTEX
  8
0
 10
39955.37584
 20
3038.82593
 30
0.0
  0
VERTEX
  8
0
 10
39996.65509
 20
2981.62139
 30
0.0
  0
VERTEX
  8
0
 10
40031.56239
 20
2998.98832
 30
0.0
  0
VERTEX
  8
0
 10
40048.6501
 20
3021.96127
 30
0.0
  0
SEQEND
  0
POLYLINE
  8
0
 66
1
 10
0.0
 20
0.0
 30
0.0
 70
8
  0
VERTEX
  8
0
 10
41045.8948
 20
3014.32767
 30
0.0
  0
VERTEX
  8
0
 10
40955.2775
 20
3043.68983
 30
0.0
  0
VERTEX
  8
0
 10
40989.58244
 20
2990.81963
 30
0.0
  0
VERTEX
  8
0
 10
41020.28579
 20
2992.75012
 30
0.0
  0
VERTEX
  8
0
 10
41045.8948
 20
3014.32767
 30
0.0
  0
SEQEND
  0
POLYLINE
  8
0
 66
1
 10
0.0
 20
0.0
 30
0.0
 70
8
  0
VERTEX
  8
0
 10
42027.3636
 20
3042.51019
 30
0.0
  0
VERTEX
  8
0
 10
41967.5538
 20
3048.01425
 30
0.0
  0
VERTEX
  8
0
 10
41953.65763
 20
2995.3388
 30
0.0
  0
VERTEX
  8
0
 10
42013.85183
 20
2973.32072
 30
0.0
  0
VERTEX
  8
0
 10
42027.3636
 20
3042.51019
 30
0.0
  0
SEQEND
  0
POLYLINE
  8
0
 66
1
 10
0.0
 20
0.0
 30
0.0
 70
8
  0
VERTEX
  8
0
 10
43025.12307
 20
3046.57567
 30
0.0
  0
VERTEX
  8
0
 10
42985.9723
 20
3024.40955
 30
0.0
  0
VERTEX
  8
0
 10
42955.1754
 20
2977.25692
 30
0.0
  0
VERTEX
  8
0
 10
43025.68379
 20
2954.22873
 30
0.0
  0
VERTEX
  8
0
 10
43025.12307
 20
3046.57567
 30
0.0
  0
SEQEND
  0
POLYLINE
  8
0
 66
1
 10
0.0
 20
0.0
 30
0.0
 70
8
  0
VERTEX
  8
0
 10
44044.12888
 20
3001.11875
 30
0.0
  0
VERTEX
  8
0
 10
43960.96588
 20
3001.99672
 30
0.0
  0
VERTEX
  8
0
 10
43980.86979
 20
2998.31987
 30
0.0
  0
VERTEX
  8
0
 10
44028.1258
 20
2990.75287
 30
0.0
  0
VERTEX
  8
0
 10
44044.12888
 20
3001.11875
 30
0.0
  0
SEQEND
  0
POLYLINE
  8
0
 66
1
 10
0.0
 20
0.0
 30
0.0
 70
8
  0
VERTEX
  8
0
 10
45026.99752
 20
3018.08658
 30
0.0
  0
VERTEX
  8
0
 10
44989.48881
 20
3044.55694
 30
0.0
  0
VERTEX
  8
0
 10
44973.66452
 20
2977.43736
 30
0.0
  0
VERTEX
  8
0
 10
45030.25215
 20
2955.05442
 30
0.0
  0
VERTEX
  8
0
 10
45026.99752
 20
3018.08658
 30
0.0
  0
SEQEND
  0
POLYLINE
  8
0
 66
1
 10
0.0
 20
0.0
 30
0.0
 70
8
  0
VERTEX
  8
0
 10
46010.49541
 20
3002.73421
 30
0.0
  0
VERTEX
  8
0
 10
45988.84689
 20
3026.28169
 30
0.0
  0
VERTEX
  8
0
 10
45966.18759
 20
2974.80112
 30
0.0
  0
VERTEX
  8
0
 10
46035.71602
 20
2991.2659400000002
 30
0.0
  0
VERTEX
  8
0
 10
46010.49541
 20
3002.73421
 30
0.0
  0
SEQEND
  0
POLYLINE
  8
0
 66
1
 10
0.0
 20
0.0
 30
0.0
 70
8
  0
VERTEX
  8
0
 10
47026.7961
 20
3045.00933
 30
0.0
  0
VERTEX
  8
0
 10
46959.39985
 20
3032.15807
 30
0.0
  0
VERTEX
  8
0
 10
46954.36807
 20
2986.84772
 30
0.0
  0
VERTEX
  8
0
 10
47021.08665
 20
2955.12109
 30
0.0
  0
VERTEX
  8
0
 10
47026.7961
 20
3045.00933
 30
0.0
  0
SEQEND
  0
POLYLINE
  8
0
 66
1
 10
0.0
 20
0.0
 30
0.0
 70
8
  0
VERTEX
  8
0
 10
48030.76499
 20
3001.61229
 30
0.0
  0
VERTEX
  8
0
 10
47966.28949
 20
3009.85353
 30
0.0
  0
VERTEX
  8
0
 10
47979.16577
 20
2989.41818
 30
0.0
  0
VERTEX
  8
0
 10
48009.40395
 20
2976.37036
 30
0.0
  0
VERTEX
  8
0
 10
48030.76499
 20
3001.61229
 30
0.0
  0
SEQEND
  0
POLYLINE
  8
0
 66
1
 10
0.0
 20
0.0
 30
0.0
 70
8
  0
VERTEX
  8
0
 10
24.26033
 20
3005.4644
 30
0.0
  0
VERTEX
  8
0
 10
-45.57644
 20
3027.838
 30
0.0
  0
VERTEX
  8
0
 10
-5.52879
 20
2996.42315
 30
0.0
  0
VERTEX
  8
0
 10
1.82367
 20
2992.90653
 30
0.0
  0
VERTEX
  8
0
 10
24.26033
 20
3005.4644
 30
0.0
  0
SEQEND
  0
POLYLINE
  8
0
 66
1
 10
0.0
 20
0.0
 30
0.0
 70
8
  0
VERTEX
  8
0
 10
1036.37567
 20
4020.78632
 30
0.0
  0
VERTEX
  8
0
 10
996.44318
 20
4018.63782
 30
0.0
  0
VERTEX
  8
0
 10
966.30183
 20
3971.06866
 30
0.0
  0
VERTEX
  8
0
 10
1007.56
 20
3992.77274
 30
0.0
  0
VERTEX
  8
0
 10
1036.37567
 20
4020.78632
 30
0.0
  0
SEQEND
  0
POLYLINE
  8
0
 66
1
 10
0.0
 20
0.0
 30
0.0
 70
8
  0
VERTEX
  8
0
 10
2018.55967
 20
4019.65463
 30
0.0
  0
VERTEX
  8
0
 10
1997.6429
 20
4022.87227
 30
0.0
  0
VERTEX
  8
0
 10
1958.07091
 20
3992.22
 30
0.0
  0
VERTEX
  8
0
 10
2036.53125
 20
3997.55157
 30
0.0
  0
VERTEX
  8
0
 10
2018.55967
 20
4019.65463
 30
0.0
  0
SEQEND
  0
POLYLINE
  8
0
 66
1
 10
0.0
 20
0.0
 30
0.0
 70
8
  0
VERTEX
  8
0
 10
3044.50323
 20
4047.86574
 30
0.0
  0
VERTEX
  8
0
 10
2955.80118
 20
4042.82401
 30
0.0
  0
VERTEX
  8
0
 10
2988.85668
 20
3994.28447
 30
0.0
  0
VERTEX
  8
0
 10
3034.6175
 20
3998.47878
 30
0.0
  0
VERTEX
  8
0
 10
3044.50323
 20
4047.86574
 30
0.0
  0
SEQEND
  0
POLYLINE
  8
0
 66
1
 10
0.0
 20
0.0
 30
0.0
 70
8
  0
VERTEX
  8
0
 10
4041.36728
 20
4000.89331
 30
0.0
  0
VERTEX
  8
0
 10
3991.84141
 20
4004.6827
 30
0.0
  0
VERTEX
  8
0
 10
3966.6281
 20
3951.50417
 30
0.0
  0
VERTEX
  8
0
 10
4013.24537
 20
3995.53862
 30
0.0
  0
VERTEX
  8
0
 10
4041.36728
 20
4000.89331
 30
0.0
  0
SEQEND
  0
POLYLINE
  8
0
 66
1
 10
0.0
 20
0.0
 30
0.0
 70
8
  0
VERTEX
  8
0
 10
5024.72175
 20
4023.94364
 30
0.0
  0
VERTEX
  8
0
 10
4977.95741
 20
4038.76568
 30
0.0
  0
VERTEX
  8
0
 10
4967.28481
 20
3987.96142
 30
0.0
  0
VERTEX
  8
0
 10
5020.05051
 20
3978.01003
 30
0.0
  0
VERTEX
  8
0
 10
5024.72175
 20
4023.94364
 30
0.0
  0
SEQEND
  0
POLYLINE
  8
0
 66
1
 10
0.0
 20
0.0
 30
0.0
 70
8
  0
VERTEX
  8
0
 10
6027.22311
 20
4002.9604
 30
0.0
  0
VERTEX
  8
0
 10
5975.53884
 20
4038.40651
 30
0.0
  0
VERTEX
  8
0
 10
5957.34193
 20
3960.7603
 30
0.0
  0
VERTEX
  8
0
 10
6021.54767
 20
3985.37939
 30
0.0
  0
VERTEX
  8
0
 10
6027.22311
 20
4002.9604
 30
0.0
  0
SEQEND
  0
POLYLINE
  8
0
 66
1
 10
0.0
 20
0.0
 30
0.0
 70
8
  0
VERTEX
  8
0
 10
7049.3937
 20
4008.6505
 30
0.0
  0
VERTEX
  8
0
 10
6959.00885
 20
4007.49992
 30
0.0
  0
VERTEX
  8
0
 10
6977.8576
 20
3965.63495
 30
0.0
  0
VERTEX
  8
0
 10
7019.68375
 20
3981.43495
 30
0.0
  0
VERTEX
  8
0
 10
7049.3937
 20
4008.6505
 30
0.0
  0
SEQEND
  0
POLYLINE
  8
0
 66
1
 10
0.0
 20
0.0
 30
0.0
 70
8
  0
VERTEX
  8
0
 10
8020.87805
 20
4049.45875
 30
0.0
  0
VERTEX
  8
0
 10
7973.07536
 20
4003.04934
 30
0.0
  0
VERTEX
  8
0
 10
7965.76632
 20
3983.01837
 30
0.0
  0
VERTEX
  8
0
 10
8032.54984
 20
3993.05961
 30
0.0
  0
VERTEX
  8
0
 10
8020.87805
 20
4049.45875
 30
0.0
  0
SEQEND
  0
POLYLINE
  8
0
 66
1
 10
0.0
 20
0.0
 30
0.0
 70
8
  0
VERTEX
  8
0
 10
9011.15508
 20
4001.85973
 30
0.0
  0
VERTEX
  8
0
 10
8965.86732
 20
4025.48357
 30
0.0
  0
VERTEX
  8
0
 10
8965.66904
 20
3952.25651
 30
0.0
  0
VERTEX
  8
0
 10
9037.18378
 20
3984.09588
 30
0.0
  0
VERTEX
  8
0
 10
9011.15508
 20
4001.85973
 30
0.0
  0
SEQEND
  0
POLYLINE
  8
0
 66
1
 10
0.0
 20
0.0
 30
0.0
 70
8
  0
VERTEX
  8
0
 10
10012.58927
 20
4036.91717
 30
0.0
  0
VERTEX
  8
0
 10
9972.63733
 20
4005.79151
 30
0.0
  0
VERTEX
  8
0
 10
9996.86801
 20
3950.91023
 30
0.0
  0
VERTEX
  8
0
 10
10015.77155
 20
3950.49876
 30
0.0
  0
VERTEX
  8
0
 10
10012.58927
 20
4036.91717
 30
0.0
  0
SEQEND
  0
POLYLINE
  8
0
 66
1
 10
0.0
 20
0.0
 30
0.0
 70
8
  0
VERTEX
  8
0
 10
11006.94959
 20
4031.96363
 30
0.0
  0
VERTEX
  8
0
 10
10958.40368
 20
4016.23161
 30
0.0
  0
VERTEX
  8
0
 10
10968.5749
 20
3960.35673
 30
0.0
  0
VERTEX
  8
0
 10
11025.47684
 20
3983.70159
 30
0.0
  0
VERTEX
  8
0
 10
11006.94959
 20
4031.96363
 30
0.0
  0
SEQEND
  0
POLYLINE
  8
0
 66
1
 10
0.0
 20
0.0
 30
0.0
 70
8
  0
VERTEX
  8
0
 10
12046.81559
 20
4002.3294
 30
0.0
  0
VERTEX
  8
0
 10
11966.90438
 20
4008.19834
 30
0.0
  0
VERTEX
  8
0
 10
11994.99266
 20
3988.77225
 30
0.0
  0
VERTEX
  8
0
 10
12030.00942
 20
3964.15712
 30
0.0
  0
VERTEX
  8
0
 10
12046.81559
 20
4002.3294
 30
0.0
  0
SEQEND
  0
POLYLINE
  8
0
 66
1
 10
0.0
 20
0.0
 30
0.0
 70
8
  0
VERTEX
  8
0
 10
13005.08587
 20
4031.20423
 30
0.0
  0
VERTEX
  8
0
 10
12950.57493
 20
4013.61546
 30
0.0
  0
VERTEX
  8
0
 10
12950.95211
 20
3972.62099
 30
0.0
  0
VERTEX
  8
0
 10
13016.50733
 20
3978.79224
 30
0.0
  0
VERTEX
  8
0
 10
13005.08587
 20
4031.20423
 30
0.0
  0
SEQEND
  0
POLYLINE
  8
0
 66
1
 10
0.0
 20
0.0
 30
0.0
 70
8
  0
VERTEX
  8
0
 10
14027.49464
 20
4024.04207
 30
0.0
  0
VERTEX
  8
0
 10
13992.22341
 20
4005.89992
 30
0.0
  0
VERTEX
  8
0
 10
13960.97577
 20
3977.59295
 30
0.0
  0
VERTEX
  8
0
 10
14014.80735
 20
3979.95763
 30
0.0
  0
VERTEX
  8
0
 10
14027.49464
 20
4024.04207
 30
0.0
  0
SEQEND
  0
POLYLINE
  8
0
 66
1
 10
0.0
 20
0.0
 30
0.0
 70
8
  0
VERTEX
  8
0
 10
15040.16513
 20
4022.05543
 30
0.0
  0
VERTEX
  8
0
 10
14966.8338
 20
4049.81147
 30
0.0
  0
VERTEX
  8
0
 10
14973.81287
 20
3954.27526
 30
0.0
  0
VERTEX
  8
0
 10
15030.11024
 20
3997.16925
 30
0.0
  0
VERTEX
  8
0
 10
15040.16513
 20
4022.05543
 30
0.0
  0
SEQEND
  0
POLYLINE
  8
0
 66
1
 10
0.0
 20
0.0
 30
0.0
 70
8
  0
VERTEX
  8
0
 10
16013.46359
 20
4020.84071
 30
0.0
  0
VERTEX
  8
0
 10
15952.30048
 20
4032.25579
 30
0.0
  0
VERTEX
  8
0
 10
15963.18897
 20
3958.70464
 30
0.0
  0
VERTEX
  8
0
 10
16046.60953
 20
3984.67834
 30
0.0
  0
VERTEX
  8
0
 10
16013.46359
 20
4020.84071
 30
0.0
  0
SEQEND
  0
POLYLINE
  8
0
 66
1
 10
0.0
 20
0.0
 30
0.0
 70
8
  0
VERTEX
  8
0
 10
17019.42888
 20
4046.9076
 30
0.0
  0
VERTEX
  8
0
 10
16995.52465
 20
4049.82071
 30
0.0
  0
VERTEX
  8
0
 10
16998.37127
 20
3964.58526
 30
0.0
  0
VERTEX
  8
0
 10
17023.70752
 20
3970.57435
 30
0.0
  0
VERTEX
  8
0
 10
17019.42888
 20
4046.9076
 30
0.0
  0
SEQEND
  0
POLYLINE
  8
0
 66
1
 10
0.0
 20
0.0
 30
0.0
 70
8
  0
VERTEX
  8
0
 10
18006.87651
 20
4035.111
 30
0.0
  0
VERTEX
  8
0
 10
17979.86026
 20
4006.40242
 30
0.0
  0
VERTEX
  8
0
 10
17999.90308
 20
3993.68306
 30
0.0
  0
VERTEX
  8
0
 10
18024.52117
 20
3954.58122
 30
0.0
  0
VERTEX
  8
0
 10
18006.87651
 20
4035.111
 30
0.0
  0
SEQEND
  0
POLYLINE
  8
0
 66
1
 10
0.0
 20
0.0
 30
0.0
 70
8
  0
VERTEX
  8
0
 10
19000.46081
 20
4025.24159
 30
0.0
  0
VERTEX
  8
0
 10
18985.02258
 20
4012.633
 30
0.0
  0
VERTEX
  8
0
 10
18970.54134
 20
3984.95323
 30
0.0
  0
VERTEX
  8
0
 10
19040.30868
 20
3991.91087
 30
0.0
  0
VERTEX
  8
0
 10
19000.46081
 20
4025.24159
 30
0.0
  0
SEQEND
  0
POLYLINE
  8
0
 66
1
 10
0.0
 20
0.0
 30
0.0
 70
8
  0
VERTEX
  8
0
 10
20034.01974
 20
4030.4937
 30
0.0
  0
VERTEX
  8
0
 10
19998.62561
 20
4018.00766
 30
0.0
  0
VERTEX
  8
0
 10
19961.94529
 20
3976.46184
 30
0.0
  0
VERTEX
  8
0
 10
20032.49624
 20
3965.74
 30
0.0
  0
VERTEX
  8
0
 10
20034.01974
 20
4030.4937
 30
0.0
  0
SEQEND
  0
POLYLINE
  8
0
 66
1
 10
0.0
 20
0.0
 30
0.0
 70
8
  0
VERTEX
  8
0
 10
21017.61844
 20
4000.91929
 30
0.0
  0
VERTEX
  8
0
 10
20998.57959
 20
4045.89621
 30
0.0
  0
VERTEX
  8
0
 10
20960.13241
 20
3957.71187
 30
0.0
  0
VERTEX
  8
0
 10
21026.10218
 20
3961.54587
 30
0.0
  0
VERTEX
  8
0
 10
21017.61844
 20
4000.91929
 30
0.0
  0
SEQEND
  0
POLYLINE
  8
0
 66
1
 10
0.0
 20
0.0
 30
0.0
 70
8
  0
VERTEX
  8
0
 10
22007.98292
 20
4016.78036
 30
0.0
  0
VERTEX
  8
0
 10
21998.39996
 20
4028.37604
 30
0.0
  0
VERTEX
  8
0
 10
21986.39914
 20
3956.52943
 30
0.0
  0
VERTEX
  8
0
 10
22030.53104
 20
3985.76076
 30
0.0
  0
VERTEX
  8
0
 10
22007.98292
 20
4016.78036
 30
0.0
  0
SEQEND
  0
POLYLINE
  8
0
 66
1
 10
0.0
 20
0.0
 30
0.0
 70
8
  0
VERTEX
  8
0
 10
23000.76304
 20
4038.76845
 30
0.0
  0
VERTEX
  8
0
 10
22991.19734
 20
4021.10851
 30
0.0
  0
VERTEX
  8
0
 10
22980.17825
 20
3959.98717
 30
0.0
  0
VERTEX
  8
0
 10
23036.09865
 20
3982.26229
 30
0.0
  0
VERTEX
  8
0
 10
23000.76304
 20
4038.76845
 30
0.0
  0
SEQEND
  0
POLYLINE
  8
0
 66
1
 10
0.0
 20
0.0
 30
0.0
 70
8
  0
VERTEX
  8
0
 10
24011.65965
 20
4039.80303
 30
0.0
  0
VERTEX
  8
0
 10
23958.05533
 20
4036.85785
 30
0.0
  0
VERTEX
  8
0
 10
23970.07459
 20
3967.77003
 30
0.0
  0
VERTEX
  8
0
 10
24036.53742
 20
3980.48377
 30
0.0
  0
VERTEX
  8
0
 10
24011.65965
 20
4039.80303
 30
0.0
  0
SEQEND
  0
POLYLINE
  8
0
 66
1
 10
0.0
 20
0.0
 30
0.0
 70
8
  0
VERTEX
  8
0
 10
25002.59476
 20
4038.8153
 30
0.0
  0
VERTEX
  8
0
 10
24993.29743
 20
4044.07538
 30
0.0
  0
VERTEX
  8
0
 10
24996.99808
 20
3976.75543
 30
0.0
  0
VERTEX
  8
0
 10
25000.30769
 20
3980.44412
 30
0.0
  0
VERTEX
  8
0
 10
25002.59476
 20
4038.8153
 30
0.0
  0
SEQEND
  0
POLYLINE
  8
0
 66
1
 10
0.0
 20
0.0
 30
0.0
 70
8
  0
VERTEX
  8
0
 10
26024.58331
 20
4005.571
 30
0.0
  0
VERTEX
  8
0
 10
25971.24303
 20
4042.99936
 30
0.0
  0
VERTEX
  8
0
 10
25982.24502
 20
3980.43619
 30
0.0
  0
VERTEX
  8
0
 10
26018.06629
 20
3990.85656
 30
0.0
  0
VERTEX
  8
0
 10
26024.58331
 20
4005.571
 30
0.0
  0
SEQEND
  0
POLYLINE
  8
0
 66
1
 10
0.0
 20
0.0
 30
0.0
 70
8
  0
VERTEX
  8
0
 10
27013.2631
 20
4019.67823
 30
0.0
  0
VERTEX
  8
0
 10
26974.23948
 20
4043.02722
 30
0.0
  0
VERTEX
  8
0
 10
26994.3673
 20
3993.95092
 30
0.0
  0
VERTEX
  8
0
 10
27022.88552
 20
3972.7239
 30
0.0
  0
VERTEX
  8
0
 10
27013.2631
 20
4019.67823
 30
0.0
  0
SEQEND
  0
POLYLINE
  8
0
 66
1
 10
0.0
 20
0.0
 30
0.0
 70
8
  0
VERTEX
  8
0
 10
28040.35488
 20
4005.7094
 30
0.0
  0
VERTEX
  8
0
 10
27991.80114
 20
4027.77306
 30
0.0
  0
VERTEX
  8
0
 10
27967.35311
 20
3978.27085
 30
0.0
  0
VERTEX
  8
0
 10
28048.56407
 20
3976.27456
 30
0.0
  0
VERTEX
  8
0
 10
28040.35488
 20
4005.7094
 30
0.0
  0
SEQEND
  0
POLYLINE
  8
0
 66
1
 10
0.0
 20
0.0
 30
0.0
 70
8
  0
VERTEX
  8
0
 10
29035.11212
 20
4044.96073
 30
0.0
  0
VERTEX
  8
0
 10
28972.96785
 20
4049.2544
 30
0.0
  0
VERTEX
  8
0
 10
28993.79004
 20
3957.71537
 30
0.0
  0
VERTEX
  8
0
 10
29026.88061
 20
3977.08158
 30
0.0
  0
VERTEX
  8
0
 10
29035.11212
 20
4044.96073
 30
0.0
  0
SEQEND
  0
POLYLINE
  8
0
 66
1
 10
0.0
 20
0.0
 30
0.0
 70
8
  0
VERTEX
  8
0
 10
30010.35086
 20
4034.12189
 30
0.0
  0
VERTEX
  8
0
 10
29977.32171
 20
4040.05513
 30
0.0
  0
VERTEX
  8
0
 10
29985.01615
 20
3953.10767
 30
0.0
  0
VERTEX
  8
0
 10
30006.17018
 20
3989.80681
 30
0.0
  0
VERTEX
  8
0
 10
30010.35086
 20
4034.12189
 30
0.0
  0
SEQEND
  0
POLYLINE
  8
0
 66
1
 10
0.0
 20
0.0
 30
0.0
 70
8
  0
VERTEX
  8
0
 10
31020.06724
 20
4027.27762
 30
0.0
  0
VERTEX
  8
0
 10
30971.61407
 20
4032.12198
 30
0.0
  0
VERTEX
  8
0
 10
30982.76644
 20
3977.51726
 30
0.0
  0
VERTEX
  8
0
 10
31023.05436
 20
3967.8291600000002
 30
0.0
  0
VERTEX
  8
0
 10
31020.06724
 20
4027.27762
 30
0.0
  0
SEQEND
  0
POLYLINE
  8
0
 66
1
 10
0.0
 20
0.0
 30
0.0
 70
8
  0
VERTEX
  8
0
 10
32000.48344
 20
4031.37694
 30
0.0
  0
VERTEX
  8
0
 10
31966.79474
 20
4041.75058
 30
0.0
  0
VERTEX
  8
0
 10
31955.10637
 20
3996.74042
 30
0.0
  0
VERTEX
  8
0
 10
32025.6172
 20
3985.10563
 30
0.0
  0
VERTEX
  8
0
 10
32000.48344
 20
4031.37694
 30
0.0
  0
SEQEND
  0
POLYLINE
  8
0
 66
1
 10
0.0
 20
0.0
 30
0.0
 70
8
  0
VERTEX
  8
0
 10
33041.88085
 20
4026.82501
 30
0.0
  0
VERTEX
  8
0
 10
32994.84025
 20
4023.96921
 30
0.0
  0
VERTEX
  8
0
 10
32979.74791
 20
3986.84015
 30
0.0
  0
VERTEX
  8
0
 10
33039.02999
 20
3985.46065
 30
0.0
  0
VERTEX
  8
0
 10
33041.88085
 20
4026.82501
 30
0.0
  0
SEQEND
  0
POLYLINE
  8
0
 66
1
 10
0.0
 20
0.0
 30
0.0
 70
8
  0
VERTEX
  8
0
 10
34001.51405
 20
4018.31194
 30
0.0
  0
VERTEX
  8
0
 10
33981.64395
 20
4002.00244
 30
0.0
  0
VERTEX
  8
0
 10
33985.01534
 20
3959.13991
 30
0.0
  0
VERTEX
  8
0
 10
34046.99521
 20
3985.38819
 30
0.0
  0
VERTEX
  8
0
 10
34001.51405
 20
4018.31194
 30
0.0
  0
SEQEND
  0
POLYLINE
  8
0
 66
1
 10
0.0
 20
0.0
 30
0.0
 70
8
  0
VERTEX
  8
0
 10
35013.42272
 20
4025.32939
 30
0.0
  0
VERTEX
  8
0
 10
34987.26798
 20
4008.69788
 30
0.0
  0
VERTEX
  8
0
 10
34981.81097
 20
3978.6722
 30
0.0
  0
VERTEX
  8
0
 10
35002.42689
 20
3957.1423
 30
0.0
  0
VERTEX
  8
0
 10
35013.42272
 20
4025.32939
 30
0.0
  0
SEQEND
  0
POLYLINE
  8
0
 66
1
 10
0.0
 20
0.0
 30
0.0
 70
8
  0
VERTEX
  8
0
 10
36008.16877
 20
4049.29538
 30
0.0
  0
VERTEX
  8
0
 10
35979.14582
 20
4008.08461
 30
0.0
  0
VERTEX
  8
0
 10
35966.46195
 20
3967.0392
 30
0.0
  0
VERTEX
  8
0
 10
36040.85172
 20
3956.98887
 30
0.0
  0
VERTEX
  8
0
 10
36008.16877
 20
4049.29538
 30
0.0
  0
SEQEND
  0
POLYLINE
  8
0
 66
1
 10
0.0
 20
0.0
 30
0.0
 70
8
  0
VERTEX
  8
0
 10
37028.29124
 20
4005.65595
 30
0.0
  0
VERTEX
  8
0
 10
36963.70576
 20
4019.53855
 30
0.0
  0
VERTEX
  8
0
 10
36991.4332
 20
3967.39168
 30
0.0
  0
VERTEX
  8
0
 10
37042.1847
 20
3979.01543
 30
0.0
  0
VERTEX
  8
0
 10
37028.29124
 20
4005.65595
 30
0.0
  0
SEQEND
  0
POLYLINE
  8
0
 66
1
 10
0.0
 20
0.0
 30
0.0
 70
8
  0
VERTEX
  8
0
 10
38023.09261
 20
4035.78826
 30
0.0
  0
VERTEX
  8
0
 10
37985.06112
 20
4015.23521
 30
0.0
  0
VERTEX
  8
0
 10
37970.51946
 20
3995.23656
 30
0.0
  0
VERTEX
  8
0
 10
38040.10652
 20
3968.62982
 30
0.0
  0
VERTEX
  8
0
 10
38023.09261
 20
4035.78826
 30
0.0
  0
SEQEND
  0
POLYLINE
  8
0
 66
1
 10
0.0
 20
0.0
 30
0.0
 70
8
  0
VERTEX
  8
0
 10
39008.23552
 20
4020.90558
 30
0.0
  0
VERTEX
  8
0
 10
38992.60242
 20
4038.90992
 30
0.0
  0
VERTEX
  8
0
 10
38956.48304
 20
3996.36715
 30
0.0
  0
VERTEX
  8
0
 10
39034.68939
 20
3966.32796
 30
0.0
  0
VERTEX
  8
0
 10
39008.23552
 20
4020.90558
 30
0.0
  0
SEQEND
  0
POLYLINE
  8
0
 66
1
 10
0.0
 20
0.0
 30
0.0
 70
8
  0
VERTEX
  8
0
 10
40045.18301
 20
4006.52739
 30
0.0
  0
VERTEX
  8
0
 10
39958.8624
 20
4002.61928
 30
0.0
  0
VERTEX
  8
0
 10
39998.43077
 20
3987.92096
 30
0.0
  0
VERTEX
  8
0
 10
40036.7887
 20
3978.70611
 30
0.0
  0
VERTEX
  8
0
 10
40045.18301
 20
4006.52739
 30
0.0
  0
SEQEND
  0
POLYLINE
  8
0
 66
1
 10
0.0
 20
0.0
 30
0.0
 70
8
  0
VERTEX
  8
0
 10
41026.41865
 20
4038.99036
 30
0.0
  0
VERTEX
  8
0
 10
40978.48313
 20
4009.27521
 30
0.0
  0
VERTEX
  8
0
 10
40983.03717
 20
3979.99686
 30
0.0
  0
VERTEX
  8
0
 10
41018.52715
 20
3999.94552
 30
0.0
  0
VERTEX
  8
0
 10
41026.41865
 20
4038.99036
 30
0.0
  0
SEQEND
  0
POLYLINE
  8
0
 66
1
 10
0.0
 20
0.0
 30
0.0
 70
8
  0
VERTEX
  8
0
 10
42039.45589
 20
4000.86413
 30
0.0
  0
VERTEX
  8
0
 10
41998.82277
 20
4044.76685
 30
0.0
  0
VERTEX
  8
0
 10
41990.37102
 20
3961.01475
 30
0.0
  0
VERTEX
  8
0
 10
42026.25703
 20
3973.67153
 30
0.0
  0
VERTEX
  8
0
 10
42039.45589
 20
4000.86413
 30
0.0
  0
SEQEND
  0
POLYLINE
  8
0
 66
1
 10
0.0
 20
0.0
 30
0.0
 70
8
  0
VERTEX
  8
0
 10
43033.09379
 20
4001.15139
 30
0.0
  0
VERTEX
  8
0
 10
42957.23944
 20
4028.63479
 30
0.0
  0
VERTEX
  8
0
 10
42959.38252
 20
3958.3159
 30
0.0
  0
VERTEX
  8
0
 10
43047.73066
 20
3980.31709
 30
0.0
  0
VERTEX
  8
0
 10
43033.09379
 20
4001.15139
 30
0.0
  0
SEQEND
  0
POLYLINE
  8
0
 66
1
 10
0.0
 20
0.0
 30
0.0
 70
8
  0
VERTEX
  8
0
 10
44024.04964
 20
4047.87132
 30
0.0
  0
VERTEX
  8
0
 10
43999.79818
 20
4024.47135
 30
0.0
  0
VERTEX
  8
0
 10
43965.44024
 20
3959.39446
 30
0.0
  0
VERTEX
  8
0
 10
44008.10967
 20
3975.57298
 30
0.0
  0
VERTEX
  8
0
 10
44024.04964
 20
4047.87132
 30
0.0
  0
SEQEND
  0
POLYLINE
  8
0
 66
1
 10
0.0
 20
0.0
 30
0.0
 70
8
  0
VERTEX
  8
0
 10
45042.97923
 20
4001.08602
 30
0.0
  0
VERTEX
  8
0
 10
44986.80416
 20
4007.27258
 30
0.0
  0
VERTEX
  8
0
 10
44979.64618
 20
3971.2817
 30
0.0
  0
VERTEX
  8
0
 10
45009.66387
 20
3993.73788
 30
0.0
  0
VERTEX
  8
0
 10
45042.97923
 20
4001.08602
 30
0.0
  0
SEQEND
  0
POLYLINE
  8
0
 66
1
 10
0.0
 20
0.0
 30
0.0
 70
8
  0
VERTEX
  8
0
 10
46028.64263
 20
4021.23524
 30
0.0
  0
VERTEX
  8
0
 10
45990.33473
 20
4027.47184
 30
0.0
  0
VERTEX
  8
0
 10
45992.66007
 20
3955.90311
 30
0.0
  0
VERTEX
  8
0
 10
46035.32791
 20
3993.40311
 30
0.0
  0
VERTEX
  8
0
 10
46028.64263
 20
4021.23524
 30
0.0
  0
SEQEND
  0
POLYLINE
  8
0
 66
1
 10
0.0
 20
0.0
 30
0.0
 70
8
  0
VERTEX
  8
0
 10
47012.69999
 20
4007.8619
 30
0.0
  0
VERTEX
  8
0
 10
46985.62243
 20
4036.34259
 30
0.0
  0
VERTEX
  8
0
 10
46968.0461
 20
3960.77265
 30
0.0
  0
VERTEX
  8
0
 10
47026.0541
 20
3983.44135
 30
0.0
  0
VERTEX
  8
0
 10
47012.69999
 20
4007.8619
 30
0.0
  0
SEQEND
  0
POLYLINE
  8
0
 66
1
 10
0.0
 20
0.0
 30
0.0
 70
8
  0
VERTEX
  8
0
 10
48019.88471
 20
4035.45406
 30
0.0
  0
VERTEX
  8
0
 10
47957.73799
 20
4008.12208
 30
0.0
  0
VERTEX
  8
0
 10
47959.39147
 20
3987.71521
 30
0.0
  0
VERTEX
  8
0
 10
48015.30649
 20
3975.80893
 30
0.0
  0
VERTEX
  8
0
 10
48019.88471
 20
4035.45406
 30
0.0
  0
SEQEND
  0
POLYLINE
  8
0
 66
1
 10
0.0
 20
0.0
 30
0.0
 70
8
  0
VERTEX
  8
0
 10
13.22571
 20
4046.15519
 30
0.0
  0
VERTEX
  8
0
 10
-11.754180000000002
 20
4037.31571
 30
0.0
  0
VERTEX
  8
0
 10
-2.9963699999999998
 20
3967.5077
 30
0.0
  0
VERTEX
  8
0
 10
26.834989999999998
 20
3986.2593
 30
0.0
  0
VERTEX
  8
0
 10
13.22571
 20
4046.15519
 30
0.0
  0
SEQEND
  0
POLYLINE
  8
0
 66
1
 10
0.0
 20
0.0
 30
0.0
 70
8
  0
VERTEX
  8
0
 10
1023.28279
 20
5011.81858
 30
0.0
  0
VERTEX
  8
0
 10
966.08239
 20
5026.85903
 30
0.0
  0
VERTEX
  8
0
 10
968.45925
 20
4985.05857
 30
0.0
  0
VERTEX
  8
0
 10
1030.27671
 20
4996.29309
 30
0.0
  0
VERTEX
  8
0
 10
1023.28279
 20
5011.81858
 30
0.0
  0
SEQEND
  0
POLYLINE
  8
0
 66
1
 10
0.0
 20
0.0
 30
0.0
 70
8
  0
VERTEX
  8
0
 10
2032.20044
 20
5046.51967
 30
0.0
  0
VERTEX
  8
0
 10
1952.44009
 20
5007.14718
 30
0.0
  0
VERTEX
  8
0
 10
1983.40966
 20
4979.14759
 30
0.0
  0
VERTEX
  8
0
 10
2031.26623
 20
4994.5421
 30
0.0
  0
VERTEX
  8
0
 10
2032.20044
 20
5046.51967
 30
0.0
  0
SEQEND
  0
POLYLINE
  8
0
 66
1
 10
0.0
 20
0.0
 30
0.0
 70
8
  0
VERTEX
  8
0
 10
3030.66003
 20
5034.44484
 30
0.0
  0
VERTEX
  8
0
 10
2965.41018
 20
5003.98302
 30
0.0
  0
VERTEX
  8
0
 10
2954.4069
 20
4958.77726
 30
0.0
  0
VERTEX
  8
0
 10
3025.45776
 20
4988.40123
 30
0.0
  0
VERTEX
  8
0
 10
3030.66003
 20
5034.44484
 30
0.0
  0
SEQEND
  0
POLYLINE
  8
0
 66
1
 10
0.0
 20
0.0
 30
0.0
 70
8
  0
VERTEX
  8
0
 10
4014.84079
 20
5026.85116
 30
0.0
  0
VERTEX
  8
0
 10
3989.35247
 20
5033.92307
 30
0.0
  0
VERTEX
  8
0
 10
3951.90905
 20
4983.90583
 30
0.0
  0
VERTEX
  8
0
 10
4038.12727
 20
4994.88946
 30
0.0
  0
VERTEX
  8
0
 10
4014.84079
 20
5026.85116
 30
0.0
  0
SEQEND
  0
POLYLINE
  8
0
 66
1
 10
0.0
 20
0.0
 30
0.0
 70
8
  0
VERTEX
  8
0
 10
5035.40119
 20
5011.68654
 30
0.0
  0
VERTEX
  8
0
 10
4954.74664
 20
5000.37558
 30
0.0
  0
VERTEX
  8
0
 10
4956.75951
 20
4980.88773
 30
0.0
  0
VERTEX
  8
0
 10
5011.55037
 20
4957.64125
 30
0.0
  0
VERTEX
  8
0
 10
5035.40119
 20
5011.68654
 30
0.0
  0
SEQEND
  0
POLYLINE
  8
0
 66
1
 10
0.0
 20
0.0
 30
0.0
 70
8
  0
VERTEX
  8
0
 10
6005.16544
 20
5041.82085
 30
0.0
  0
VERTEX
  8
0
 10
5976.45286
 20
5038.03774
 30
0.0
  0
VERTEX
  8
0
 10
5975.50445
 20
4952.33035
 30
0.0
  0
VERTEX
  8
0
 10
6035.91074
 20
4978.00231
 30
0.0
  0
VERTEX
  8
0
 10
6005.16544
 20
5041.82085
 30
0.0
  0
SEQEND
  0
POLYLINE
  8
0
 66
1
 10
0.0
 20
0.0
 30
0.0
 70
8
  0
VERTEX
  8
0
 10
7038.9784
 20
5006.78099
 30
0.0
  0
VERTEX
  8
0
 10
6995.56403
 20
5011.46658
 30
0.0
  0
VERTEX
  8
0
 10
6982.03216
 20
4973.54677
 30
0.0
  0
VERTEX
  8
0
 10
7031.01347
 20
4990.78611
 30
0.0
  0
VERTEX
  8
0
 10
7038.9784
 20
5006.78099
 30
0.0
  0
SEQEND
  0
POLYLINE
  8
0
 66
1
 10
0.0
 20
0.0
 30
0.0
 70
8
  0
VERTEX
  8
0
 10
8023.8769
 20
5044.39844
 30
0.0
  0
VERTEX
  8
0
 10
7961.97326
 20
5032.07075
 30
0.0
  0
VERTEX
  8
0
 10
7992.0281
 20
4995.30405
 30
0.0
  0
VERTEX
  8
0
 10
8044.42047
 20
4977.3546
 30
0.0
  0
VERTEX
  8
0
 10
8023.8769
 20
5044.39844
 30
0.0
  0
SEQEND
  0
POLYLINE
  8
0
 66
1
 10
0.0
 20
0.0
 30
0.0
 70
8
  0
VERTEX
  8
0
 10
9018.89674
 20
5037.62981
 30
0.0
  0
VERTEX
  8
0
 10
8969.57009
 20
5021.46971
 30
0.0
  0
VERTEX
  8
0
 10
8970.65372
 20
4951.60954
 30
0.0
  0
VERTEX
  8
0
 10
9007.07538
 20
4972.91781
 30
0.0
  0
VERTEX
  8
0
 10
9018.89674
 20
5037.62981
 30
0.0
  0
SEQEND
  0
POLYLINE
  8
0
 66
1
 10
0.0
 20
0.0
 30
0.0
 70
8
  0
VERTEX
  8
0
 10
10001.2965
 20
5022.63859
 30
0.0
  0
VERTEX
  8
0
 10
9987.35162
 20
5047.46912
 30
0.0
  0
VERTEX
  8
0
 10
9971.3856
 20
4956.34455
 30
0.0
  0
VERTEX
  8
0
 10
10035.81506
 20
4986.0174
 30
0.0
  0
VERTEX
  8
0
 10
10001.2965
 20
5022.63859
 30
0.0
  0
SEQEND
  0
POLYLINE
  8
0
 66
1
 10
0.0
 20
0.0
 30
0.0
 70
8
  0
VERTEX
  8
0
 10
11049.09972
 20
5045.49485
 30
0.0
  0
VERTEX
  8
0
 10
10962.6796
 20
5012.2615
 30
0.0
  0
VERTEX
  8
0
 10
10988.62526
 20
4962.73898
 30
0.0
  0
VERTEX
  8
0
 10
11037.29338
 20
4987.09054
 30
0.0
  0
VERTEX
  8
0
 10
11049.09972
 20
5045.49485
 30
0.0
  0
SEQEND
  0
POLYLINE
  8
0
 66
1
 10
0.0
 20
0.0
 30
0.0
 70
8
  0
VERTEX
  8
0
 10
12024.46608
 20
5009.7985
 30
0.0
  0
VERTEX
  8
0
 10
11978.58188
 20
5022.90275
 30
0.0
  0
VERTEX
  8
0
 10
11983.10532
 20
4993.92607
 30
0.0
  0
VERTEX
  8
0
 10
12039.83971
 20
4981.2119
 30
0.0
  0
VERTEX
  8
0
 10
12024.46608
 20
5009.7985
 30
0.0
  0
SEQEND
  0
POLYLINE
  8
0
 66
1
 10
0.0
 20
0.0
 30
0.0
 70
8
  0
VERTEX
  8
0
 10
13020.4334
 20
5027.0329
 30
0.0
  0
VERTEX
  8
0
 10
12968.33655
 20
5033.01948
 30
0.0
  0
VERTEX
  8
0
 10
12959.98752
 20
4989.95462
 30
0.0
  0
VERTEX
  8
0
 10
13044.88454
 20
4994.14965
 30
0.0
  0
VERTEX
  8
0
 10
13020.4334
 20
5027.0329
 30
0.0
  0
SEQEND
  0
POLYLINE
  8
0
 66
1
 10
0.0
 20
0.0
 30
0.0
 70
8
  0
VERTEX
  8
0
 10
14004.9626
 20
5025.73736
 30
0.0
  0
VERTEX
  8
0
 10
13981.15774
 20
5048.30038
 30
0.0
  0
VERTEX
  8
0
 10
13993.36924
 20
4982.55526
 30
0.0
  0
VERTEX
  8
0
 10
14038.56739
 20
4967.52769
 30
0.0
  0
VERTEX
  8
0
 10
14004.9626
 20
5025.73736
 30
0.0
  0
SEQEND
  0
POLYLINE
  8
0
 66
1
 10
0.0
 20
0.0
 30
0.0
 70
8
  0
VERTEX
  8
0
 10
15005.12519
 20
5015.63534
 30
0.0
  0
VERTEX
  8
0
 10
14990.86611
 20
5042.73925
 30
0.0
  0
VERTEX
  8
0
 10
14962.42326
 20
4985.73487
 30
0.0
  0
VERTEX
  8
0
 10
15031.07728
 20
4988.54624
 30
0.0
  0
VERTEX
  8
0
 10
15005.12519
 20
5015.63534
 30
0.0
  0
SEQEND
  0
POLYLINE
  8
0
 66
1
 10
0.0
 20
0.0
 30
0.0
 70
8
  0
VERTEX
  8
0
 10
16004.90756
 20
5004.13386
 30
0.0
  0
VERTEX
  8
0
 10
15955.48826
 20
5019.37595
 30
0.0
  0
VERTEX
  8
0
 10
15981.6766
 20
4972.00048
 30
0.0
  0
VERTEX
  8
0
 10
16014.60126
 20
4959.49657
 30
0.0
  0
VERTEX
  8
0
 10
16004.90756
 20
5004.13386
 30
0.0
  0
SEQEND
  0
POLYLINE
  8
0
 66
1
 10
0.0
 20
0.0
 30
0.0
 70
8
  0
VERTEX
  8
0
 10
17008.3142
 20
5024.03521
 30
0.0
  0
VERTEX
  8
0
 10
16952.66288
 20
5004.39011
 30
0.0
  0
VERTEX
  8
0
 10
16953.31344
 20
4953.6122
 30
0.0
  0
VERTEX
  8
0
 10
17044.70756
 20
4960.41964
 30
0.0
  0
VERTEX
  8
0
 10
17008.3142
 20
5024.03521
 30
0.0
  0
SEQEND
  0
POLYLINE
  8
0
 66
1
 10
0.0
 20
0.0
 30
0.0
 70
8
  0
VERTEX
  8
0
 10
18027.06186
 20
5007.99798
 30
0.0
  0
VERTEX
  8
0
 10
17987.22207
 20
5020.4798
 30
0.0
  0
VERTEX
  8
0
 10
17953.27744
 20
4978.46674
 30
0.0
  0
VERTEX
  8
0
 10
18010.8976
 20
4990.32792
 30
0.0
  0
VERTEX
  8
0
 10
18027.06186
 20
5007.99798
 30
0.0
  0
SEQEND
  0
POLYLINE
  8
0
 66
1
 10
0.0
 20
0.0
 30
0.0
 70
8
  0
VERTEX
  8
0
 10
19005.25226
 20
5012.70885
 30
0.0
  0
VERTEX
  8
0
 10
18968.22167
 20
5003.6501
 30
0.0
  0
VERTEX
  8
0
 10
18977.78466
 20
4997.53792
 30
0.0
  0
VERTEX
  8
0
 10
19045.66504
 20
4955.4824
 30
0.0
  0
VERTEX
  8
0
 10
19005.25226
 20
5012.70885
 30
0.0
  0
SEQEND
  0
POLYLINE
  8
0
 66
1
 10
0.0
 20
0.0
 30
0.0
 70
8
  0
VERTEX
  8
0
 10
20041.46789
 20
5025.07118
 30
0.0
  0
VERTEX
  8
0
 10
19964.02871
 20
5026.2783
 30
0.0
  0
VERTEX
  8
0
 10
19984.55257
 20
4977.72383
 30
0.0
  0
VERTEX
  8
0
 10
20027.84826
 20
4995.7651
 30
0.0
  0
VERTEX
  8
0
 10
20041.46789
 20
5025.07118
 30
0.0
  0
SEQEND
  0
POLYLINE
  8
0
 66
1
 10
0.0
 20
0.0
 30
0.0
 70
8
  0
VERTEX
  8
0
 10
21019.19129
 20
5017.31803
 30
0.0
  0
VERTEX
  8
0
 10
20951.45185
 20
5015.12593
 30
0.0
  0
VERTEX
  8
0
 10
20979.14027
 20
4958.01943
 30
0.0
  0
VERTEX
  8
0
 10
21024.86693
 20
4996.84868
 30
0.0
  0
VERTEX
  8
0
 10
21019.19129
 20
5017.31803
 30
0.0
  0
SEQEND
  0
POLYLINE
  8
0
 66
1
 10
0.0
 20
0.0
 30
0.0
 70
8
  0
VERTEX
  8
0
 10
22008.40986
 20
5049.73442
 30
0.0
  0
VERTEX
  8
0
 10
21993.72622
 20
5010.39686
 30
0.0
  0
VERTEX
  8
0
 10
21983.59176
 20
4976.7129
 30
0.0
  0
VERTEX
  8
0
 10
22028.22071
 20
4966.67966
 30
0.0
  0
VERTEX
  8
0
 10
22008.40986
 20
5049.73442
 30
0.0
  0
SEQEND
  0
POLYLINE
  8
0
 66
1
 10
0.0
 20
0.0
 30
0.0
 70
8
  0
VERTEX
  8
0
 10
23027.64245
 20
5033.89976
 30
0.0
  0
VERTEX
  8
0
 10
22958.62624
 20
5036.17716
 30
0.0
  0
VERTEX
  8
0
 10
22990.56705
 20
4964.10816
 30
0.0
  0
VERTEX
  8
0
 10
23013.30834
 20
4950.31926
 30
0.0
  0
VERTEX
  8
0
 10
23027.64245
 20
5033.89976
 30
0.0
  0
SEQEND
  0
POLYLINE
  8
0
 66
1
 10
0.0
 20
0.0
 30
0.0
 70
8
  0
VERTEX
  8
0
 10
24020.36198
 20
5039.85478
 30
0.0
  0
VERTEX
  8
0
 10
23989.86288
 20
5025.98397
 30
0.0
  0
VERTEX
  8
0
 10
23979.52202
 20
4957.67827
 30
0.0
  0
VERTEX
  8
0
 10
24024.7061
 20
4980.85728
 30
0.0
  0
VERTEX
  8
0
 10
24020.36198
 20
5039.85478
 30
0.0
  0
SEQEND
  0
POLYLINE
  8
0
 66
1
 10
0.0
 20
0.0
 30
0.0
 70
8
  0
VERTEX
  8
0
 10
25031.57074
 20
5044.12047
 30
0.0
  0
VERTEX
  8
0
 10
24966.15048
 20
5038.60483
 30
0.0
  0
VERTEX
  8
0
 10
24984.20626
 20
4998.98192
 30
0.0
  0
VERTEX
  8
0
 10
25044.93251
 20
4990.08027
 30
0.0
  0
VERTEX
  8
0
 10
25031.57074
 20
5044.12047
 30
0.0
  0
SEQEND
  0
POLYLINE
  8
0
 66
1
 10
0.0
 20
0.0
 30
0.0
 70
8
  0
VERTEX
  8
0
 10
26041.0447
 20
5012.58652
 30
0.0
  0
VERTEX
  8
0
 10
25961.56034
 20
5000.16786
 30
0.0
  0
VERTEX
  8
0
 10
25985.99451
 20
4997.50839
 30
0.0
  0
VERTEX
  8
0
 10
26028.89717
 20
4954.78987
 30
0.0
  0
VERTEX
  8
0
 10
26041.0447
 20
5012.58652
 30
0.0
  0
SEQEND
  0
POLYLINE
  8
0
 66
1
 10
0.0
 20
0.0
 30
0.0
 70
8
  0
VERTEX
  8
0
 10
27011.11109
 20
5045.33593
 30
0.0
  0
VERTEX
  8
0
 10
26964.70158
 20
5012.26015
 30
0.0
  0
VERTEX
  8
0
 10
26955.85656
 20
4984.62888
 30
0.0
  0
VERTEX
  8
0
 10
27000.28147
 20
4985.05227
 30
0.0
  0
VERTEX
  8
0
 10
27011.11109
 20
5045.33593
 30
0.0
  0
SEQEND
  0
POLYLINE
  8
0
 66
1
 10
0.0
 20
0.0
 30
0.0
 70
8
  0
VERTEX
  8
0
 10
28016.01236
 20
5013.59681
 30
0.0
  0
VERTEX
  8
0
 10
27960.17147
 20
5018.34852
 30
0.0
  0
VERTEX
  8
0
 10
27958.35687
 20
4997.6163
 30
0.0
  0
VERTEX
  8
0
 10
28001.68429
 20
4998.3873
 30
0.0
  0
VERTEX
  8
0
 10
28016.01236
 20
5013.59681
 30
0.0
  0
SEQEND
  0
POLYLINE
  8
0
 66
1
 10
0.0
 20
0.0
 30
0.0
 70
8
  0
VERTEX
  8
0
 10
29049.81084
 20
5001.05811
 30
0.0
  0
VERTEX
  8
0
 10
28961.20824
 20
5045.94911
 30
0.0
  0
VERTEX
  8
0
 10
28973.83754
 20
4997.11469
 30
0.0
  0
VERTEX
  8
0
 10
29022.05732
 20
4967.25769
 30
0.0
  0
VERTEX
  8
0
 10
29049.81084
 20
5001.05811
 30
0.0
  0
SEQEND
  0
POLYLINE
  8
0
 66
1
 10
0.0
 20
0.0
 30
0.0
 70
8
  0
VERTEX
  8
0
 10
30004.24806
 20
5045.68684
 30
0.0
  0
VERTEX
  8
0
 10
29981.63603
 20
5024.9678
 30
0.0
  0
VERTEX
  8
0
 10
29965.45777
 20
4996.80321
 30
0.0
  0
VERTEX
  8
0
 10
30010.74582
 20
4980.28072
 30
0.0
  0
VERTEX
  8
0
 10
30004.24806
 20
5045.68684
 30
0.0
  0
SEQEND
  0
POLYLINE
  8
0
 66
1
 10
0.0
 20
0.0
 30
0.0
 70
8
  0
VERTEX
  8
0
 10
31017.40152
 20
5008.43167
 30
0.0
  0
VERTEX
  8
0
 10
30969.79188
 20
5035.23306
 30
0.0
  0
VERTEX
  8
0
 10
30976.77449
 20
4990.20506
 30
0.0
  0
VERTEX
  8
0
 10
31012.53551
 20
4965.61504
 30
0.0
  0
VERTEX
  8
0
 10
31017.40152
 20
5008.43167
 30
0.0
  0
SEQEND
  0
POLYLINE
  8
0
 66
1
 10
0.0
 20
0.0
 30
0.0
 70
8
  0
VERTEX
  8
0
 10
32046.05067
 20
5013.31454
 30
0.0
  0
VERTEX
  8
0
 10
31953.41701
 20
5015.07364
 30
0.0
  0
VERTEX
  8
0
 10
31986.73121
 20
4980.49616
 30
0.0
  0
VERTEX
  8
0
 10
32045.92706
 20
4956.18708
 30
0.0
  0
VERTEX
  8
0
 10
32046.05067
 20
5013.31454
 30
0.0
  0
SEQEND
  0
POLYLINE
  8
0
 66
1
 10
0.0
 20
0.0
 30
0.0
 70
8
  0
VERTEX
  8
0
 10
33022.26605
 20
5047.76041
 30
0.0
  0
VERTEX
  8
0
 10
32975.24062
 20
5002.79153
 30
0.0
  0
VERTEX
  8
0
 10
32994.15904
 20
4966.49608
 30
0.0
  0
VERTEX
  8
0
 10
33035.14259
 20
4956.81485
 30
0.0
  0
VERTEX
  8
0
 10
33022.26605
 20
5047.76041
 30
0.0
  0
SEQEND
  0
POLYLINE
  8
0
 66
1
 10
0.0
 20
0.0
 30
0.0
 70
8
  0
VERTEX
  8
0
 10
34037.6546
 20
5039.74538
 30
0.0
  0
VERTEX
  8
0
 10
33973.92843
 20
5022.35165
 30
0.0
  0
VERTEX
  8
0
 10
33984.40261
 20
4964.51665
 30
0.0
  0
VERTEX
  8
0
 10
34024.54382
 20
4962.47707
 30
0.0
  0
VERTEX
  8
0
 10
34037.6546
 20
5039.74538
 30
0.0
  0
SEQEND
  0
POLYLINE
  8
0
 66
1
 10
0.0
 20
0.0
 30
0.0
 70
8
  0
VERTEX
  8
0
 10
35013.22436
 20
5036.29575
 30
0.0
  0
VERTEX
  8
0
 10
34995.37498
 20
5015.55333
 30
0.0
  0
VERTEX
  8
0
 10
34979.58377
 20
4965.13511
 30
0.0
  0
VERTEX
  8
0
 10
35017.55222
 20
4973.83215
 30
0.0
  0
VERTEX
  8
0
 10
35013.22436
 20
5036.29575
 30
0.0
  0
SEQEND
  0
POLYLINE
  8
0
 66
1
 10
0.0
 20
0.0
 30
0.0
 70
8
  0
VERTEX
  8
0
 10
36010.18765
 20
5004.68264
 30
0.0
  0
VERTEX
  8
0
 10
35976.23213
 20
5046.09549
 30
0.0
  0
VERTEX
  8
0
 10
35984.4807
 20
4976.4744
 30
0.0
  0
VERTEX
  8
0
 10
36022.74408
 20
4982.41102
 30
0.0
  0
VERTEX
  8
0
 10
36010.18765
 20
5004.68264
 30
0.0
  0
SEQEND
  0
POLYLINE
  8
0
 66
1
 10
0.0
 20
0.0
 30
0.0
 70
8
  0
VERTEX
  8
0
 10
37032.90107
 20
5035.35857
 30
0.0
  0
VERTEX
  8
0
 10
36991.1076
 20
5049.25431
 30
0.0
  0
VERTEX
  8
0
 10
36994.56442
 20
4967.74564
 30
0.0
  0
VERTEX
  8
0
 10
37045.455
 20
4980.27906
 30
0.0
  0
VERTEX
  8
0
 10
37032.90107
 20
5035.35857
 30
0.0
  0
SEQEND
  0
POLYLINE
  8
0
 66
1
 10
0.0
 20
0.0
 30
0.0
 70
8
  0
VERTEX
  8
0
 10
38023.25334
 20
5045.71986
 30
0.0
  0
VERTEX
  8
0
 10
37990.71603
 20
5018.22137
 30
0.0
  0
VERTEX
  8
0
 10
37957.46562
 20
4978.03834
 30
0.0
  0
VERTEX
  8
0
 10
38021.8429
 20
4968.23659
 30
0.0
  0
VERTEX
  8
0
 10
38023.25334
 20
5045.71986
 30
0.0
  0
SEQEND
  0
POLYLINE
  8
0
 66
1
 10
0.0
 20
0.0
 30
0.0
 70
8
  0
VERTEX
  8
0
 10
39020.9362
 20
5026.70993
 30
0.0
  0
VERTEX
  8
0
 10
38954.41251
 20
5020.06327
 30
0.0
  0
VERTEX
  8
0
 10
38965.75836
 20
4999.77102
 30
0.0
  0
VERTEX
  8
0
 10
39034.84181
 20
4984.73952
 30
0.0
  0
VERTEX
  8
0
 10
39020.9362
 20
5026.70993
 30
0.0
  0
SEQEND
  0
POLYLINE
  8
0
 66
1
 10
0.0
 20
0.0
 30
0.0
 70
8
  0
VERTEX
  8
0
 10
40049.91518
 20
5043.65149
 30
0.0
  0
VERTEX
  8
0
 10
39989.72384
 20
5005.95595
 30
0.0
  0
VERTEX
  8
0
 10
39959.6465
 20
4970.90368
 30
0.0
  0
VERTEX
  8
0
 10
40006.05009
 20
4966.24772
 30
0.0
  0
VERTEX
  8
0
 10
40049.91518
 20
5043.65149
 30
0.0
  0
SEQEND
  0
POLYLINE
  8
0
 66
1
 10
0.0
 20
0.0
 30
0.0
 70
8
  0
VERTEX
  8
0
 10
41040.82609
 20
5024.20127
 30
0.0
  0
VERTEX
  8
0
 10
40969.537
 20
5014.80725
 30
0.0
  0
VERTEX
  8
0
 10
40966.84871
 20
4973.46412
 30
0.0
  0
VERTEX
  8
0
 10
41016.80151
 20
4977.09687
 30
0.0
  0
VERTEX
  8
0
 10
41040.82609
 20
5024.20127
 30
0.0
  0
SEQEND
  0
POLYLINE
  8
0
 66
1
 10
0.0
 20
0.0
 30
0.0
 70
8
  0
VERTEX
  8
0
 10
42027.43402
 20
5018.70343
 30
0.0
  0
VERTEX
  8
0
 10
41952.4139
 20
5023.91462
 30
0.0
  0
VERTEX
  8
0
 10
41980.66175
 20
4990.3838
 30
0.0
  0
VERTEX
  8
0
 10
42035.71017
 20
4968.96964
 30
0.0
  0
VERTEX
  8
0
 10
42027.43402
 20
5018.70343
 30
0.0
  0
SEQEND
  0
POLYLINE
  8
0
 66
1
 10
0.0
 20
0.0
 30
0.0
 70
8
  0
VERTEX
  8
0
 10
43015.22058
 20
5039.10972
 30
0.0
  0
VERTEX
  8
0
 10
42997.07396
 20
5041.09393
 30
0.0
  0
VERTEX
  8
0
 10
42976.41326
 20
4986.32967
 30
0.0
  0
VERTEX
  8
0
 10
43018.98859
 20
4990.37732
 30
0.0
  0
VERTEX
  8
0
 10
43015.22058
 20
5039.10972
 30
0.0
  0
SEQEND
  0
POLYLINE
  8
0
 66
1
 10
0.0
 20
0.0
 30
0.0
 70
8
  0
VERTEX
  8
0
 10
44016.46446
 20
5025.47778
 30
0.0
  0
VERTEX
  8
0
 10
43980.24668
 20
5047.52247
 30
0.0
  0
VERTEX
  8
0
 10
43974.66265
 20
4977.24474
 30
0.0
  0
VERTEX
  8
0
 10
44014.68214
 20
4958.51085
 30
0.0
  0
VERTEX
  8
0
 10
44016.46446
 20
5025.47778
 30
0.0
  0
SEQEND
  0
POLYLINE
  8
0
 66
1
 10
0.0
 20
0.0
 30
0.0
 70
8
  0
VERTEX
  8
0
 10
45047.0622
 20
5031.79626
 30
0.0
  0
VERTEX
  8
0
 10
44961.78208
 20
5042.87481
 30
0.0
  0
VERTEX
  8
0
 10
44971.04996
 20
4950.84003
 30
0.0
  0
VERTEX
  8
0
 10
45029.77113
 20
4961.17103
 30
0.0
  0
VERTEX
  8
0
 10
45047.0622
 20
5031.79626
 30
0.0
  0
SEQEND
  0
POLYLINE
  8
0
 66
1
 10
0.0
 20
0.0
 30
0.0
 70
8
  0
VERTEX
  8
0
 10
46003.30655
 20
5008.49139
 30
0.0
  0
VERTEX
  8
0
 10
45997.81172
 20
5048.9839
 30
0.0
  0
VERTEX
  8
0
 10
45982.65596
 20
4985.73402
 30
0.0
  0
VERTEX
  8
0
 10
46003.52488
 20
4978.8995
 30
0.0
  0
VERTEX
  8
0
 10
46003.30655
 20
5008.49139
 30
0.0
  0
SEQEND
  0
POLYLINE
  8
0
 66
1
 10
0.0
 20
0.0
 30
0.0
 70
8
  0
VERTEX
  8
0
 10
47045.10236
 20
5031.53338
 30
0.0
  0
VERTEX
  8
0
 10
46974.79084
 20
5047.21575
 30
0.0
  0
VERTEX
  8
0
 10
46969.97903
 20
4999.25803
 30
0.0
  0
VERTEX
  8
0
 10
47006.5045
 20
4958.0595
 30
0.0
  0
VERTEX
  8
0
 10
47045.10236
 20
5031.53338
 30
0.0
  0
SEQEND
  0
POLYLINE
  8
0
 66
1
 10
0.0
 20
0.0
 30
0.0
 70
8
  0
VERTEX
  8
0
 10
48025.62226
 20
5021.91178
 30
0.0
  0
VERTEX
  8
0
 10
47977.12239
 20
5010.05374
 30
0.0
  0
VERTEX
  8
0
 10
47982.14673
 20
4983.89462
 30
0.0
  0
VERTEX
  8
0
 10
48005.2049
 20
4997.06
 30
0.0
  0
VERTEX
  8
0
 10
48025.62226
 20
5021.91178
 30
0.0
  0
SEQEND
  0
POLYLINE
  8
0
 66
1
 10
0.0
 20
0.0
 30
0.0
 70
8
  0
VERTEX
  8
0
 10
41.627210000000005
 20
5004.13145
 30
0.0
  0
VERTEX
  8
0
 10
-42.40633
 20
5046.25496
 30
0.0
  0
VERTEX
  8
0
 10
-44.465830000000004
 20
4965.71463
 30
0.0
  0
VERTEX
  8
0
 10
5.25995
 20
4964.84583
 30
0.0
  0
VERTEX
  8
0
 10
41.627210000000005
 20
5004.13145
 30
0.0
  0
SEQEND
  0
POLYLINE
  8
0
 66
1
 10
0.0
 20
0.0
 30
0.0
 70
8
  0
VERTEX
  8
0
 10
1028.24282
 20
6028.81842
 30
0.0
  0
VERTEX
  8
0
 10
974.51227
 20
6028.92408
 30
0.0
  0
VERTEX
  8
0
 10
994.42298
 20
5977.88809
 30
0.0
  0
VERTEX
  8
0
 10
1003.5643
 20
5989.75729
 30
0.0
  0
VERTEX
  8
0
 10
1028.24282
 20
6028.81842
 30
0.0
  0
SEQEND
  0
POLYLINE
  8
0
 66
1
 10
0.0
 20
0.0
 30
0.0
 70
8
  0
VERTEX
  8
0
 10
2039.72293
 20
6036.35817
 30
0.0
  0
VERTEX
  8
0
 10
1956.93882
 20
6034.852
 30
0.0
  0
VERTEX
  8
0
 10
1975.80642
 20
5957.29098
 30
0.0
  0
VERTEX
  8
0
 10
2034.82346
 20
5963.77238
 30
0.0
  0
VERTEX
  8
0
 10
2039.72293
 20
6036.35817
 30
0.0
  0
SEQEND
  0
POLYLINE
  8
0
 66
1
 10
0.0
 20
0.0
 30
0.0
 70
8
  0
VERTEX
  8
0
 10
3028.27913
 20
6013.66556
 30
0.0
  0
VERTEX
  8
0
 10
2985.42064
 20
6015.72529
 30
0.0
  0
VERTEX
  8
0
 10
2959.70589
 20
5959.09423
 30
0.0
  0
VERTEX
  8
0
 10
3045.9209
 20
5990.02352
 30
0.0
  0
VERTEX
  8
0
 10
3028.27913
 20
6013.66556
 30
0.0
  0
SEQEND
  0
POLYLINE
  8
0
 66
1
 10
0.0
 20
0.0
 30
0.0
 70
8
  0
VERTEX
  8
0
 10
4000.63437
 20
6040.56856
 30
0.0
  0
VERTEX
  8
0
 10
3991.91539
 20
6012.63094
 30
0.0
  0
VERTEX
  8
0
 10
3987.56837
 20
5964.42725
 30
0.0
  0
VERTEX
  8
0
 10
4008.69487
 20
5971.12005
 30
0.0
  0
VERTEX
  8
0
 10
4000.63437
 20
6040.56856
 30
0.0
  0
SEQEND
  0
POLYLINE
  8
0
 66
1
 10
0.0
 20
0.0
 30
0.0
 70
8
  0
VERTEX
  8
0
 10
5041.68712
 20
6044.25598
 30
0.0
  0
VERTEX
  8
0
 10
4959.65914
 20
6040.94267
 30
0.0
  0
VERTEX
  8
0
 10
4990.15092
 20
5950.07553
 30
0.0
  0
VERTEX
  8
0
 10
5018.84904
 20
5989.29654
 30
0.0
  0
VERTEX
  8
0
 10
5041.68712
 20
6044.25598
 30
0.0
  0
SEQEND
  0
POLYLINE
  8
0
 66
1
 10
0.0
 20
0.0
 30
0.0
 70
8
  0
VERTEX
  8
0
 10
6026.84267
 20
6019.30406
 30
0.0
  0
VERTEX
  8
0
 10
5956.10561
 20
6044.67069
 30
0.0
  0
VERTEX
  8
0
 10
5956.41014
 20
5973.95192
 30
0.0
  0
VERTEX
  8
0
 10
6003.502
 20
5955.7562
 30
0.0
  0
VERTEX
  8
0
 10
6026.84267
 20
6019.30406
 30
0.0
  0
SEQEND
  0
POLYLINE
  8
0
 66
1
 10
0.0
 20
0.0
 30
0.0
 70
8
  0
VERTEX
  8
0
 10
7034.73826
 20
6019.98636
 30
0.0
  0
VERTEX
  8
0
 10
6961.04387
 20
6021.12221
 30
0.0
  0
VERTEX
  8
0
 10
6995.01121
 20
5990.00297
 30
0.0
  0
VERTEX
  8
0
 10
7029.03709
 20
5977.13289
 30
0.0
  0
VERTEX
  8
0
 10
7034.73826
 20
6019.98636
 30
0.0
  0
SEQEND
  0
POLYLINE
  8
0
 66
1
 10
0.0
 20
0.0
 30
0.0
 70
8
  0
VERTEX
  8
0
 10
8006.9443
 20
6039.21874
 30
0.0
  0
VERTEX
  8
0
 10
7959.13217
 20
6008.83512
 30
0.0
  0
VERTEX
  8
0
 10
7999.44969
 20
5975.20492
 30
0.0
  0
VERTEX
  8
0
 10
8026.81894
 20
5985.4503
 30
0.0
  0
VERTEX
  8
0
 10
8006.9443
 20
6039.21874
 30
0.0
  0
SEQEND
  0
POLYLINE
  8
0
 66
1
 10
0.0
 20
0.0
 30
0.0
 70
8
  0
VERTEX
  8
0
 10
9032.49617
 20
6044.1768
 30
0.0
  0
VERTEX
  8
0
 10
8966.76889
 20
6015.68031
 30
0.0
  0
VERTEX
  8
0
 10
8983.59657
 20
5981.26985
 30
0.0
  0
VERTEX
  8
0
 10
9027.88817
 20
5964.68839
 30
0.0
  0
VERTEX
  8
0
 10
9032.49617
 20
6044.1768
 30
0.0
  0
SEQEND
  0
POLYLINE
  8
0
 66
1
 10
0.0
 20
0.0
 30
0.0
 70
8
  0
VERTEX
  8
0
 10
10033.27533
 20
6005.32303
 30
0.0
  0
VERTEX
  8
0
 10
9973.09506
 20
6002.90294
 30
0.0
  0
VERTEX
  8
0
 10
9966.43464
 20
5973.38567
 30
0.0
  0
VERTEX
  8
0
 10
10006.1345
 20
5996.07733
 30
0.0
  0
VERTEX
  8
0
 10
10033.27533
 20
6005.32303
 30
0.0
  0
SEQEND
  0
POLYLINE
  8
0
 66
1
 10
0.0
 20
0.0
 30
0.0
 70
8
  0
VERTEX
  8
0
 10
11002.41177
 20
6038.48549
 30
0.0
  0
VERTEX
  8
0
 10
10980.47957
 20
6024.26773
 30
0.0
  0
VERTEX
  8
0
 10
10956.80481
 20
5978.11748
 30
0.0
  0
VERTEX
  8
0
 10
11032.67049
 20
5995.50123
 30
0.0
  0
VERTEX
  8
0
 10
11002.41177
 20
6038.48549
 30
0.0
  0
SEQEND
  0
POLYLINE
  8
0
 66
1
 10
0.0
 20
0.0
 30
0.0
 70
8
  0
VERTEX
  8
0
 10
12005.75242
 20
6043.40399
 30
0.0
  0
VERTEX
  8
0
 10
11950.02333
 20
6001.43144
 30
0.0
  0
VERTEX
  8
0
 10
11986.01022
 20
5971.27245
 30
0.0
  0
VERTEX
  8
0
 10
12024.25402
 20
5965.51247
 30
0.0
  0
VERTEX
  8
0
 10
12005.75242
 20
6043.40399
 30
0.0
  0
SEQEND
  0
POLYLINE
  8
0
 66
1
 10
0.0
 20
0.0
 30
0.0
 70
8
  0
VERTEX
  8
0
 10
13042.2436
 20
6041.21815
 30
0.0
  0
VERTEX
  8
0
 10
12976.81188
 20
6019.88751
 30
0.0
  0
VERTEX
  8
0
 10
12983.2031
 20
5984.70748
 30
0.0
  0
VERTEX
  8
0
 10
13045.48667
 20
5962.00432
 30
0.0
  0
VERTEX
  8
0
 10
13042.2436
 20
6041.21815
 30
0.0
  0
SEQEND
  0
POLYLINE
  8
0
 66
1
 10
0.0
 20
0.0
 30
0.0
 70
8
  0
VERTEX
  8
0
 10
14031.91817
 20
6011.91553
 30
0.0
  0
VERTEX
  8
0
 10
13977.3784
 20
6038.15078
 30
0.0
  0
VERTEX
  8
0
 10
13991.41509
 20
5980.94372
 30
0.0
  0
VERTEX
  8
0
 10
14036.57865
 20
5952.7612
 30
0.0
  0
VERTEX
  8
0
 10
14031.91817
 20
6011.91553
 30
0.0
  0
SEQEND
  0
POLYLINE
  8
0
 66
1
 10
0.0
 20
0.0
 30
0.0
 70
8
  0
VERTEX
  8
0
 10
15012.41807
 20
6049.67707
 30
0.0
  0
VERTEX
  8
0
 10
14952.09105
 20
6039.12787
 30
0.0
  0
VERTEX
  8
0
 10
14987.84953
 20
5986.93717
 30
0.0
  0
VERTEX
  8
0
 10
15011.45913
 20
5998.61347
 30
0.0
  0
VERTEX
  8
0
 10
15012.41807
 20
6049.67707
 30
0.0
  0
SEQEND
  0
POLYLINE
  8
0
 66
1
 10
0.0
 20
0.0
 30
0.0
 70
8
  0
VERTEX
  8
0
 10
16018.41517
 20
6033.87575
 30
0.0
  0
VERTEX
  8
0
 10
15966.53851
 20
6042.03869
 30
0.0
  0
VERTEX
  8
0
 10
15968.1719
 20
5962.1608
 30
0.0
  0
VERTEX
  8
0
 10
16001.78876
 20
5980.99694
 30
0.0
  0
VERTEX
  8
0
 10
16018.41517
 20
6033.87575
 30
0.0
  0
SEQEND
  0
POLYLINE
  8
0
 66
1
 10
0.0
 20
0.0
 30
0.0
 70
8
  0
VERTEX
  8
0
 10
17027.16133
 20
6033.67079
 30
0.0
  0
VERTEX
  8
0
 10
16996.0861
 20
6042.63822
 30
0.0
  0
VERTEX
  8
0
 10
16980.15551
 20
5998.63553
 30
0.0
  0
VERTEX
  8
0
 10
17043.74242
 20
5997.58498
 30
0.0
  0
VERTEX
  8
0
 10
17027.16133
 20
6033.67079
 30
0.0
  0
SEQEND
  0
POLYLINE
  8
0
 66
1
 10
0.0
 20
0.0
 30
0.0
 70
8
  0
VERTEX
  8
0
 10
18042.6439
 20
6014.96487
 30
0.0
  0
VERTEX
  8
0
 10
17984.52814
 20
6019.56578
 30
0.0
  0
VERTEX
  8
0
 10
17969.05872
 20
5974.81005
 30
0.0
  0
VERTEX
  8
0
 10
18036.9538
 20
5971.51146
 30
0.0
  0
VERTEX
  8
0
 10
18042.6439
 20
6014.96487
 30
0.0
  0
SEQEND
  0
POLYLINE
  8
0
 66
1
 10
0.0
 20
0.0
 30
0.0
 70
8
  0
VERTEX
  8
0
 10
19011.94871
 20
6049.05224
 30
0.0
  0
VERTEX
  8
0
 10
18951.63875
 20
6047.24837
 30
0.0
  0
VERTEX
  8
0
 10
18986.25242
 20
5986.7169
 30
0.0
  0
VERTEX
  8
0
 10
19033.26207
 20
5966.47534
 30
0.0
  0
VERTEX
  8
0
 10
19011.94871
 20
6049.05224
 30
0.0
  0
SEQEND
  0
POLYLINE
  8
0
 66
1
 10
0.0
 20
0.0
 30
0.0
 70
8
  0
VERTEX
  8
0
 10
20041.30917
 20
6022.73449
 30
0.0
  0
VERTEX
  8
0
 10
19960.78353
 20
6026.47166
 30
0.0
  0
VERTEX
  8
0
 10
19960.42998
 20
5991.67354
 30
0.0
  0
VERTEX
  8
0
 10
20045.51318
 20
5986.07717
 30
0.0
  0
VERTEX
  8
0
 10
20041.30917
 20
6022.73449
 30
0.0
  0
SEQEND
  0
POLYLINE
  8
0
 66
1
 10
0.0
 20
0.0
 30
0.0
 70
8
  0
VERTEX
  8
0
 10
21016.79245
 20
6002.40248
 30
0.0
  0
VERTEX
  8
0
 10
20976.69024
 20
6037.80397
 30
0.0
  0
VERTEX
  8
0
 10
20999.33794
 20
5981.8725
 30
0.0
  0
VERTEX
  8
0
 10
21049.38729
 20
5989.5981
 30
0.0
  0
VERTEX
  8
0
 10
21016.79245
 20
6002.40248
 30
0.0
  0
SEQEND
  0
POLYLINE
  8
0
 66
1
 10
0.0
 20
0.0
 30
0.0
 70
8
  0
VERTEX
  8
0
 10
22004.63778
 20
6016.27916
 30
0.0
  0
VERTEX
  8
0
 10
21951.20095
 20
6034.79795
 30
0.0
  0
VERTEX
  8
0
 10
21953.49783
 20
5984.69439
 30
0.0
  0
VERTEX
  8
0
 10
22004.59369
 20
5987.97553
 30
0.0
  0
VERTEX
  8
0
 10
22004.63778
 20
6016.27916
 30
0.0
  0
SEQEND
  0
POLYLINE
  8
0
 66
1
 10
0.0
 20
0.0
 30
0.0
 70
8
  0
VERTEX
  8
0
 10
23037.13609
 20
6033.16237
 30
0.0
  0
VERTEX
  8
0
 10
22950.54262
 20
6002.60514
 30
0.0
  0
VERTEX
  8
0
 10
22986.55757
 20
5972.40542
 30
0.0
  0
VERTEX
  8
0
 10
23009.88806
 20
5997.38783
 30
0.0
  0
VERTEX
  8
0
 10
23037.13609
 20
6033.16237
 30
0.0
  0
SEQEND
  0
POLYLINE
  8
0
 66
1
 10
0.0
 20
0.0
 30
0.0
 70
8
  0
VERTEX
  8
0
 10
24026.44008
 20
6000.33057
 30
0.0
  0
VERTEX
  8
0
 10
23995.26248
 20
6042.8107
 30
0.0
  0
VERTEX
  8
0
 10
23970.35604
 20
5970.66576
 30
0.0
  0
VERTEX
  8
0
 10
24010.50116
 20
5965.8687
 30
0.0
  0
VERTEX
  8
0
 10
24026.44008
 20
6000.33057
 30
0.0
  0
SEQEND
  0
POLYLINE
  8
0
 66
1
 10
0.0
 20
0.0
 30
0.0
 70
8
  0
VERTEX
  8
0
 10
25007.97369
 20
6024.25477
 30
0.0
  0
VERTEX
  8
0
 10
24978.6073
 20
6019.13806
 30
0.0
  0
VERTEX
  8
0
 10
24950.59541
 20
5959.98366
 30
0.0
  0
VERTEX
  8
0
 10
25030.80015
 20
5965.71478
 30
0.0
  0
VERTEX
  8
0
 10
25007.97369
 20
6024.25477
 30
0.0
  0
SEQEND
  0
POLYLINE
  8
0
 66
1
 10
0.0
 20
0.0
 30
0.0
 70
8
  0
VERTEX
  8
0
 10
26035.52709
 20
6047.08845
 30
0.0
  0
VERTEX
  8
0
 10
25968.7078
 20
6003.36039
 30
0.0
  0
VERTEX
  8
0
 10
25985.28126
 20
5992.00307
 30
0.0
  0
VERTEX
  8
0
 10
26029.84901
 20
5964.19993
 30
0.0
  0
VERTEX
  8
0
 10
26035.52709
 20
6047.08845
 30
0.0
  0
SEQEND
  0
POLYLINE
  8
0
 66
1
 10
0.0
 20
0.0
 30
0.0
 70
8
  0
VERTEX
  8
0
 10
27029.4571
 20
6023.09774
 30
0.0
  0
VERTEX
  8
0
 10
26951.68179
 20
6010.22682
 30
0.0
  0
VERTEX
  8
0
 10
26955.69835
 20
5983.68504
 30
0.0
  0
VERTEX
  8
0
 10
27022.58004
 20
5975.39448
 30
0.0
  0
VERTEX
  8
0
 10
27029.4571
 20
6023.09774
 30
0.0
  0
SEQEND
  0
POLYLINE
  8
0
 66
1
 10
0.0
 20
0.0
 30
0.0
 70
8
  0
VERTEX
  8
0
 10
28026.47232
 20
6015.09686
 30
0.0
  0
VERTEX
  8
0
 10
27961.59471
 20
6007.43345
 30
0.0
  0
VERTEX
  8
0
 10
27960.63486
 20
5991.8218
 30
0.0
  0
VERTEX
  8
0
 10
28044.01683
 20
5956.74944
 30
0.0
  0
VERTEX
  8
0
 10
28026.47232
 20
6015.09686
 30
0.0
  0
SEQEND
  0
POLYLINE
  8
0
 66
1
 10
0.0
 20
0.0
 30
0.0
 70
8
  0
VERTEX
  8
0
 10
29015.86972
 20
6010.3863
 30
0.0
  0
VERTEX
  8
0
 10
28983.75557
 20
6021.96296
 30
0.0
  0
VERTEX
  8
0
 10
28952.51744
 20
5963.86179
 30
0.0
  0
VERTEX
  8
0
 10
29024.24689
 20
5986.73194
 30
0.0
  0
VERTEX
  8
0
 10
29015.86972
 20
6010.3863
 30
0.0
  0
SEQEND
  0
POLYLINE
  8
0
 66
1
 10
0.0
 20
0.0
 30
0.0
 70
8
  0
VERTEX
  8
0
 10
30016.61088
 20
6047.81416
 30
0.0
  0
VERTEX
  8
0
 10
29976.53373
 20
6049.33985
 30
0.0
  0
VERTEX
  8
0
 10
29995.82553
 20
5959.7441
 30
0.0
  0
VERTEX
  8
0
 10
30006.06171
 20
5960.34374
 30
0.0
  0
VERTEX
  8
0
 10
30016.61088
 20
6047.81416
 30
0.0
  0
SEQEND
  0
POLYLINE
  8
0
 66
1
 10
0.0
 20
0.0
 30
0.0
 70
8
  0
VERTEX
  8
0
 10
31007.39914
 20
6009.92819
 30
0.0
  0
VERTEX
  8
0
 10
30982.53265
 20
6043.37197
 30
0.0
  0
VERTEX
  8
0
 10
30972.30195
 20
5965.20929
 30
0.0
  0
VERTEX
  8
0
 10
31035.86896
 20
5990.12255
 30
0.0
  0
VERTEX
  8
0
 10
31007.39914
 20
6009.92819
 30
0.0
  0
SEQEND
  0
POLYLINE
  8
0
 66
1
 10
0.0
 20
0.0
 30
0.0
 70
8
  0
VERTEX
  8
0
 10
32005.63187
 20
6018.26321
 30
0.0
  0
VERTEX
  8
0
 10
31970.78417
 20
6003.0989
 30
0.0
  0
VERTEX
  8
0
 10
31985.04552
 20
5954.38312
 30
0.0
  0
VERTEX
  8
0
 10
32005.73966
 20
5998.19033
 30
0.0
  0
VERTEX
  8
0
 10
32005.63187
 20
6018.26321
 30
0.0
  0
SEQEND
  0
POLYLINE
  8
0
 66
1
 10
0.0
 20
0.0
 30
0.0
 70
8
  0
VERTEX
  8
0
 10
33033.09642
 20
6010.03475
 30
0.0
  0
VERTEX
  8
0
 10
32993.64657
 20
6022.08137
 30
0.0
  0
VERTEX
  8
0
 10
32999.74175
 20
5984.98462
 30
0.0
  0
VERTEX
  8
0
 10
33041.58798
 20
5985.78767
 30
0.0
  0
VERTEX
  8
0
 10
33033.09642
 20
6010.03475
 30
0.0
  0
SEQEND
  0
POLYLINE
  8
0
 66
1
 10
0.0
 20
0.0
 30
0.0
 70
8
  0
VERTEX
  8
0
 10
34033.33691
 20
6027.62392
 30
0.0
  0
VERTEX
  8
0
 10
33962.58064
 20
6044.25689
 30
0.0
  0
VERTEX
  8
0
 10
33954.45233
 20
5984.37086
 30
0.0
  0
VERTEX
  8
0
 10
34001.02499
 20
5950.57385
 30
0.0
  0
VERTEX
  8
0
 10
34033.33691
 20
6027.62392
 30
0.0
  0
SEQEND
  0
POLYLINE
  8
0
 66
1
 10
0.0
 20
0.0
 30
0.0
 70
8
  0
VERTEX
  8
0
 10
35017.90551
 20
6039.99836
 30
0.0
  0
VERTEX
  8
0
 10
34977.38269
 20
6047.91034
 30
0.0
  0
VERTEX
  8
0
 10
34994.94862
 20
5981.12195
 30
0.0
  0
VERTEX
  8
0
 10
35011.48769
 20
5968.6038
 30
0.0
  0
VERTEX
  8
0
 10
35017.90551
 20
6039.99836
 30
0.0
  0
SEQEND
  0
POLYLINE
  8
0
 66
1
 10
0.0
 20
0.0
 30
0.0
 70
8
  0
VERTEX
  8
0
 10
36006.41705
 20
6025.10519
 30
0.0
  0
VERTEX
  8
0
 10
35994.6093
 20
6000.42334
 30
0.0
  0
VERTEX
  8
0
 10
35989.39034
 20
5973.73448
 30
0.0
  0
VERTEX
  8
0
 10
36026.52589
 20
5953.35134
 30
0.0
  0
VERTEX
  8
0
 10
36006.41705
 20
6025.10519
 30
0.0
  0
SEQEND
  0
POLYLINE
  8
0
 66
1
 10
0.0
 20
0.0
 30
0.0
 70
8
  0
VERTEX
  8
0
 10
37019.84101
 20
6000.05017
 30
0.0
  0
VERTEX
  8
0
 10
36960.83215
 20
6037.01665
 30
0.0
  0
VERTEX
  8
0
 10
36990.73083
 20
5983.29954
 30
0.0
  0
VERTEX
  8
0
 10
37047.46066
 20
5983.80183
 30
0.0
  0
VERTEX
  8
0
 10
37019.84101
 20
6000.05017
 30
0.0
  0
SEQEND
  0
POLYLINE
  8
0
 66
1
 10
0.0
 20
0.0
 30
0.0
 70
8
  0
VERTEX
  8
0
 10
38030.66922
 20
6033.72312
 30
0.0
  0
VERTEX
  8
0
 10
37974.44361
 20
6038.02358
 30
0.0
  0
VERTEX
  8
0
 10
37955.27185
 20
5984.86764
 30
0.0
  0
VERTEX
  8
0
 10
38036.90225
 20
5977.51446
 30
0.0
  0
VERTEX
  8
0
 10
38030.66922
 20
6033.72312
 30
0.0
  0
SEQEND
  0
POLYLINE
  8
0
 66
1
 10
0.0
 20
0.0
 30
0.0
 70
8
  0
VERTEX
  8
0
 10
39021.54917
 20
6013.12947
 30
0.0
  0
VERTEX
  8
0
 10
38996.82415
 20
6037.42319
 30
0.0
  0
VERTEX
  8
0
 10
38982.69437
 20
5988.40817
 30
0.0
  0
VERTEX
  8
0
 10
39047.03907
 20
5965.74728
 30
0.0
  0
VERTEX
  8
0
 10
39021.54917
 20
6013.12947
 30
0.0
  0
SEQEND
  0
POLYLINE
  8
0
 66
1
 10
0.0
 20
0.0
 30
0.0
 70
8
  0
VERTEX
  8
0
 10
40025.01486
 20
6036.08626
 30
0.0
  0
VERTEX
  8
0
 10
39974.83663
 20
6033.88911
 30
0.0
  0
VERTEX
  8
0
 10
39991.49253
 20
5972.48867
 30
0.0
  0
VERTEX
  8
0
 10
40022.72671
 20
5982.22052
 30
0.0
  0
VERTEX
  8
0
 10
40025.01486
 20
6036.08626
 30
0.0
  0
SEQEND
  0
POLYLINE
  8
0
 66
1
 10
0.0
 20
0.0
 30
0.0
 70
8
  0
VERTEX
  8
0
 10
41012.60945
 20
6016.09458
 30
0.0
  0
VERTEX
  8
0
 10
40960.28598
 20
6000.94603
 30
0.0
  0
VERTEX
  8
0
 10
40986.51555
 20
5977.42263
 30
0.0
  0
VERTEX
  8
0
 10
41022.86284
 20
5988.17778
 30
0.0
  0
VERTEX
  8
0
 10
41012.60945
 20
6016.09458
 30
0.0
  0
SEQEND
  0
POLYLINE
  8
0
 66
1
 10
0.0
 20
0.0
 30
0.0
 70
8
  0
VERTEX
  8
0
 10
42045.25619
 20
6013.87904
 30
0.0
  0
VERTEX
  8
0
 10
41975.6959
 20
6024.40905
 30
0.0
  0
VERTEX
  8
0
 10
41989.27741
 20
5957.74785
 30
0.0
  0
VERTEX
  8
0
 10
42003.68145
 20
5994.63421
 30
0.0
  0
VERTEX
  8
0
 10
42045.25619
 20
6013.87904
 30
0.0
  0
SEQEND
  0
POLYLINE
  8
0
 66
1
 10
0.0
 20
0.0
 30
0.0
 70
8
  0
VERTEX
  8
0
 10
43019.30687
 20
6035.62695
 30
0.0
  0
VERTEX
  8
0
 10
42980.83174
 20
6004.26772
 30
0.0
  0
VERTEX
  8
0
 10
42993.94811
 20
5984.3776
 30
0.0
  0
VERTEX
  8
0
 10
43046.56402
 20
5956.74474
 30
0.0
  0
VERTEX
  8
0
 10
43019.30687
 20
6035.62695
 30
0.0
  0
SEQEND
  0
POLYLINE
  8
0
 66
1
 10
0.0
 20
0.0
 30
0.0
 70
8
  0
VERTEX
  8
0
 10
44023.296
 20
6012.14678
 30
0.0
  0
VERTEX
  8
0
 10
43957.46958
 20
6034.80599
 30
0.0
  0
VERTEX
  8
0
 10
43954.15291
 20
5998.21821
 30
0.0
  0
VERTEX
  8
0
 10
44033.6838
 20
5951.28447
 30
0.0
  0
VERTEX
  8
0
 10
44023.296
 20
6012.14678
 30
0.0
  0
SEQEND
  0
POLYLINE
  8
0
 66
1
 10
0.0
 20
0.0
 30
0.0
 70
8
  0
VERTEX
  8
0
 10
45019.79213
 20
6024.50926
 30
0.0
  0
VERTEX
  8
0
 10
44982.44042
 20
6003.32099
 30
0.0
  0
VERTEX
  8
0
 10
44971.85984
 20
5957.34949
 30
0.0
  0
VERTEX
  8
0
 10
45048.73116
 20
5998.45983
 30
0.0
  0
VERTEX
  8
0
 10
45019.79213
 20
6024.50926
 30
0.0
  0
SEQEND
  0
POLYLINE
  8
0
 66
1
 10
0.0
 20
0.0
 30
0.0
 70
8
  0
VERTEX
  8
0
 10
46045.44837
 20
6022.8751
 30
0.0
  0
VERTEX
  8
0
 10
45963.72736
 20
6012.16454
 30
0.0
  0
VERTEX
  8
0
 10
45982.91354
 20
5959.24015
 30
0.0
  0
VERTEX
  8
0
 10
46020.626
 20
5992.2378
 30
0.0
  0
VERTEX
  8
0
 10
46045.44837
 20
6022.8751
 30
0.0
  0
SEQEND
  0
POLYLINE
  8
0
 66
1
 10
0.0
 20
0.0
 30
0.0
 70
8
  0
VERTEX
  8
0
 10
47022.07268
 20
6037.01105
 30
0.0
  0
VERTEX
  8
0
 10
46959.17056
 20
6016.28544
 30
0.0
  0
VERTEX
  8
0
 10
46994.73062
 20
5964.41657
 30
0.0
  0
VERTEX
  8
0
 10
47012.12065
 20
5971.95791
 30
0.0
  0
VERTEX
  8
0
 10
47022.07268
 20
6037.01105
 30
0.0
  0
SEQEND
  0
POLYLINE
  8
0
 66
1
 10
0.0
 20
0.0
 30
0.0
 70
8
  0
VERTEX
  8
0
 10
48022.17205
 20
6023.48013
 30
0.0
  0
VERTEX
  8
0
 10
47996.49313
 20
6011.50834
 30
0.0
  0
VERTEX
  8
0
 10
47961.17215
 20
5999.28592
 30
0.0
  0
VERTEX
  8
0
 10
48002.03216
 20
5984.89386
 30
0.0
  0
VERTEX
  8
0
 10
48022.17205
 20
6023.48013
 30
0.0
  0
SEQEND
  0
POLYLINE
  8
0
 66
1
 10
0.0
 20
0.0
 30
0.0
 70
8
  0
VERTEX
  8
0
 10
17.22174
 20
6001.46593
 30
0.0
  0
VERTEX
  8
0
 10
-43.88418
 20
6009.23401
 30
0.0
  0
VERTEX
  8
0
 10
-43.62751
 20
5991.59526
 30
0.0
  0
VERTEX
  8
0
 10
38.35781
 20
5964.47896
 30
0.0
  0
VERTEX
  8
0
 10
17.22174
 20
6001.46593
 30
0.0
  0
SEQEND
  0
POLYLINE
  8
0
 66
1
 10
0.0
 20
0.0
 30
0.0
 70
8
  0
VERTEX
  8
0
 10
1006.14424
 20
7040.93184
 30
0.0
  0
VERTEX
  8
0
 10
961.78351
 20
7005.1457
 30
0.0
  0
VERTEX
  8
0
 10
984.82832
 20
6952.12643
 30
0.0
  0
VERTEX
  8
0
 10
1036.90372
 20
6962.3166
 30
0.0
  0
VERTEX
  8
0
 10
1006.14424
 20
7040.93184
 30
0.0
  0
SEQEND
  0
POLYLINE
  8
0
 66
1
 10
0.0
 20
0.0
 30
0.0
 70
8
  0
VERTEX
  8
0
 10
2007.12848
 20
7046.58276
 30
0.0
  0
VERTEX
  8
0
 10
1997.08254
 20
7029.36931
 30
0.0
  0
VERTEX
  8
0
 10
1957.2999
 20
6978.54852
 30
0.0
  0
VERTEX
  8
0
 10
2001.16263
 20
6975.13905
 30
0.0
  0
VERTEX
  8
0
 10
2007.12848
 20
7046.58276
 30
0.0
  0
SEQEND
  0
POLYLINE
  8
0
 66
1
 10
0.0
 20
0.0
 30
0.0
 70
8
  0
VERTEX
  8
0
 10
3008.97609
 20
7038.13848
 30
0.0
  0
VERTEX
  8
0
 10
2965.48616
 20
7000.49233
 30
0.0
  0
VERTEX
  8
0
 10
2954.77589
 20
6995.36523
 30
0.0
  0
VERTEX
  8
0
 10
3002.00507
 20
6992.90625
 30
0.0
  0
VERTEX
  8
0
 10
3008.97609
 20
7038.13848
 30
0.0
  0
SEQEND
  0
POLYLINE
  8
0
 66
1
 10
0.0
 20
0.0
 30
0.0
 70
8
  0
VERTEX
  8
0
 10
4036.18861
 20
7046.91399
 30
0.0
  0
VERTEX
  8
0
 10
3992.94502
 20
7000.9447
 30
0.0
  0
VERTEX
  8
0
 10
3972.89896
 20
6961.47
 30
0.0
  0
VERTEX
  8
0
 10
4019.70944
 20
6952.29891
 30
0.0
  0
VERTEX
  8
0
 10
4036.18861
 20
7046.91399
 30
0.0
  0
SEQEND
  0
POLYLINE
  8
0
 66
1
 10
0.0
 20
0.0
 30
0.0
 70
8
  0
VERTEX
  8
0
 10
5004.00886
 20
7022.55285
 30
0.0
  0
VERTEX
  8
0
 10
4960.02654
 20
7037.37108
 30
0.0
  0
VERTEX
  8
0
 10
4970.13068
 20
6960.03694
 30
0.0
  0
VERTEX
  8
0
 10
5015.47028
 20
6968.0385
 30
0.0
  0
VERTEX
  8
0
 10
5004.00886
 20
7022.55285
 30
0.0
  0
SEQEND
  0
POLYLINE
  8
0
 66
1
 10
0.0
 20
0.0
 30
0.0
 70
8
  0
VERTEX
  8
0
 10
6011.34215
 20
7027.68104
 30
0.0
  0
VERTEX
  8
0
 10
5988.45772
 20
7020.10738
 30
0.0
  0
VERTEX
  8
0
 10
5991.27174
 20
6991.67551
 30
0.0
  0
VERTEX
  8
0
 10
6027.82617
 20
6959.60547
 30
0.0
  0
VERTEX
  8
0
 10
6011.34215
 20
7027.68104
 30
0.0
  0
SEQEND
  0
ENDSEC
  0
EOF
