  0
SECTION
  2
HEADER
  9
$ACADVER
  1
AC1009
  9
$INSBASE
 10
0.0
 20
0.0
 30
0.0
  9
$EXTMIN
 10
0.0
 20
0.0
 30
0.0
  9
$EXTMAX
 10
100.0
 20
100.0
 30
0.0
  9
$UNITMODE
 70
0
  9
$AUNITS
 70
0
  9
$ANGBASE
 50
0.0
  9
$ANGDIR
 70
0
  0
ENDSEC
  0
SECTION
  2
TABLES
  0
TABLE
  2
LTYPE
 70
19
  0
LTYPE
  2
CONTINUOUS
 70
0
  3
Solid
 72
65
 73
0
 40
0.0
  0
LTYPE
  2
CENTER
 70
0
  3
Center ____ _ ____ _ ____ _ ____ _ ____ _ ____
 72
65
 73
4
 40
2.0
 49
1.25
 49
-0.25
 49
0.25
 49
-0.25
  0
LTYPE
  2
CENTERX2
 70
0
  3
Center (2x) ________  __  ________  __  ________
 72
65
 73
4
 40
3.5
 49
2.5
 49
-0.25
 49
0.5
 49
-0.25
  0
LTYPE
  2
CENTER2
 70
0
  3
Center (.5x) ____ _ ____ _ ____ _ ____ _ ____
 72
65
 73
4
 40
1.0
 49
0.625
 49
-0.125
 49
0.125
 49
-0.125
  0
LTYPE
  2
DASHED
 70
0
  3
Dashed __ __ __ __ __ __ __ __ __ __ __ __ __ _
 72
65
 73
2
 40
0.6
 49
0.5
 49
-0.1
  0
LTYPE
  2
DASHEDX2
 70
0
  3
Dashed (2x) ____  ____  ____  ____  ____  ____
 72
65
 73
2
 40
1.2
 49
1.0
 49
-0.2
  0
LTYPE
  2
DASHED2
 70
0
  3
Dashed (.5x) _ _ _ _ _ _ _ _ _ _ _ _ _ _
 72
65
 73
2
 40
0.3
 49
0.25
 49
-0.05
  0
LTYPE
  2
PHANTOM
 70
0
  3
Phantom ______  __  __  ______  __  __  ______
 72
65
 73
6
 40
2.5
 49
1.25
 49
-0.25
 49
0.25
 49
-0.25
 49
0.25
 49
-0.25
  0
LTYPE
  2
PHANTOMX2
 70
0
  3
Phantom (2x)____________    ____    ____    ____________
 72
65
 73
6
 40
4.25
 49
2.5
 49
-0.25
 49
0.5
 49
-0.25
 49
0.5
 49
-0.25
  0
LTYPE
  2
PHANTOM2
 70
0
  3
Phantom (.5x) ___ _ _ ___ _ _ ___ _ _ ___ _ _ ___
 72
65
 73
6
 40
1.25
 49
0.625
 49
-0.125
 49
0.125
 49
-0.125
 49
0.125
 49
-0.125
  0
LTYPE
  2
DASHDOT
 70
0
  3
Dash dot __ . __ . __ . __ . __ . __ . __ . __
 72
65
 73
4
 40
1.4
 49
1.0
 49
-0.2
 49
0.0
 49
-0.2
  0
LTYPE
  2
DASHDOTX2
 70
0
  3
Dash dot (2x) ____  .  ____  .  ____  .  ____
 72
65
 73
4
 40
2.4
 49
2.0
 49
-0.2
 49
0.0
 49
-0.2
  0
LTYPE
  2
DASHDOT2
 70
0
  3
Dash dot (.5x) _ . _ . _ . _ . _ . _ . _ . _
 72
65
 73
4
 40
0.7
 49
0.5
 49
-0.1
 49
0.0
 49
-0.1
  0
LTYPE
  2
DOT
 70
0
  3
Dot .  .  .  .  .  .  .  .  .  .  .  .  .  .  .  .
 72
65
 73
2
 40
0.2
 49
0.0
 49
-0.2
  0
LTYPE
  2
DOTX2
 70
0
  3
Dot (2x) .    .    .    .    .    .    .    . 
 72
65
 73
2
 40
0.4
 49
0.0
 49
-0.4
  0
LTYPE
  2
DOT2
 70
0
  3
Dot (.5) . . . . . . . . . . . . . . . . . . . 
 72
65
 73
2
 40
0.1
 49
0.0
 49
-0.1
  0
LTYPE
  2
DIVIDE
 70
0
  3
Divide __ . . __ . . __ . . __ . . __ . . __
 72
65
 73
6
 40
1.6
 49
1.0
 49
-0.2
 49
0.0
 49
-0.2
 49
0.0
 49
-0.2
  0
LTYPE
  2
DIVIDEX2
 70
0
  3
Divide (2x) ____  . .  ____  . .  ____  . .  ____
 72
65
 73
6
 40
2.6
 49
2.0
 49
-0.2
 49
0.0
 49
-0.2
 49
0.0
 49
-0.2
  0
LTYPE
  2
DIVIDE2
 70
0
  3
Divide(.5x) _ . _ . _ . _ . _ . _ . _ . _
 72
65
 73
6
 40
0.8
 49
0.5
 49
-0.1
 49
0.0
 49
-0.1
 49
0.0
 49
-0.1
  0
ENDTAB
  0
TABLE
  2
LAYER
 70
5
  0
LAYER
  2
DIMENSIONS
 70
0
 62
1
  6
CONTINUOUS
  0
LAYER
  2
TABLEBACKGROUND
 70
0
 62
1
  6
CONTINUOUS
  0
LAYER
  2
TABLECONTENT
 70
0
 62
1
  6
CONTINUOUS
  0
LAYER
  2
TABLEGRID
 70
0
 62
1
  6
CONTINUOUS
  0
LAYER
  2
VIEWPORTS
 70
0
 62
7
  6
CONTINUOUS
  0
ENDTAB
  0
TABLE
  2
STYLE
 70
12
  0
STYLE
  2
STANDARD
 70
0
 40
0.0
 41
1.0
 42
1.0
 50
0.0
 71
0
  3
arial.ttf
  4

  0
STYLE
  2
ARIAL
 70
0
 40
0.0
 41
1.0
 42
1.0
 50
0.0
 71
0
  3
arial.ttf
  4

  0
STYLE
  2
ARIAL_BOLD
 70
0
 40
0.0
 41
1.0
 42
1.0
 50
0.0
 71
0
  3
arialbd.ttf
  4

  0
STYLE
  2
ARIAL_ITALIC
 70
0
 40
0.0
 41
1.0
 42
1.0
 50
0.0
 71
0
  3
ariali.ttf
  4

  0
STYLE
  2
ARIAL_BOLD_ITALIC
 70
0
 40
0.0
 41
1.0
 42
1.0
 50
0.0
 71
0
  3
arialbi.ttf
  4

  0
STYLE
  2
ARIAL_BLACK
 70
0
 40
0.0
 41
1.0
 42
1.0
 50
0.0
 71
0
  3
ariblk.ttf
  4

  0
STYLE
  2
ISOCPEUR
 70
0
 40
0.0
 41
1.0
 42
1.0
 50
0.0
 71
0
  3
isocpeur.ttf
  4

  0
STYLE
  2
ISOCPEUR_ITALIC
 70
0
 40
0.0
 41
1.0
 42
1.0
 50
0.0
 71
0
  3
isocpeui.ttf
  4

  0
STYLE
  2
TIMES
 70
0
 40
0.0
 41
1.0
 42
1.0
 50
0.0
 71
0
  3
times.ttf
  4

  0
STYLE
  2
TIMES_BOLD
 70
0
 40
0.0
 41
1.0
 42
1.0
 50
0.0
 71
0
  3
timesbd.ttf
  4

  0
STYLE
  2
TIMES_ITALIC
 70
0
 40
0.0
 41
1.0
 42
1.0
 50
0.0
 71
0
  3
timesi.ttf
  4

  0
STYLE
  2
TIMES_BOLD_ITALIC
 70
0
 40
0.0
 41
1.0
 42
1.0
 50
0.0
 71
0
  3
timesbi.ttf
  4

  0
ENDTAB
  0
TABLE
  2
VIEW
 70
0
  0
ENDTAB
  0
TABLE
  2
APPID
 70
1
  0
APPID
  2
DXFWRITE
 70
0
  0
ENDTAB
  0
TABLE
  2
VPORT
 70
0
  0
ENDTAB
  0
TABLE
  2
UCS
 70
0
  0
ENDTAB
  0
ENDSEC
  0
SECTION
  2
BLOCKS
  0
ENDSEC
  0
SECTION
  2
ENTITIES
  0
VIEWPORT
  8
VIEWPORTS
 67
1
 10
0.0
 20
0.0
 30
0.0
 40
1.0
 41
1.0
 68
1
 69
1
1001
ACAD
1000
MVIEW
1002
{
1070
16
1010
0.0
1020
0.0
1030
0.0
1010
0.0
1020
0.0
1030
0.0
1040
0.0
1040
1.0
1040
0.0
1040
0.0
1040
50.0
1040
0.0
1040
0.0
1070
0
1070
100
1070
1
1070
3
1070
0
1070
0
1070
0
1070
0
1040
0.0
1040
0.0
1040
0.0
1040
0.1
1040
0.1
1040
0.1
1040
0.1
1070
0
1002
{
1002
}
1002
}
  0
POLYLINE
  8
0
 66
1
 10
0.0
 20
0.0
 30
0.0
 70
8
  0
VERTEX
  8
0
 10
1000.0
 20
1000.0
 30
0.0
  0
VERTEX
  8
0
 10
997.67972
 20
1022.62837
 30
0.0
  0
VERTEX
  8
0
 10
962.86684
 20
1022.62837
 30
0.0
  0
VERTEX
  8
0
 10
962.86684
 20
1000.58138
 30
0.0
  0
VERTEX
  8
0
 10
1000.0
 20
1000.0
 30
0.0
  0
VERTEX
  8
0
 10
1000.0
 20
1000.0
 30
0.0
  0
SEQEND
  0
POLYLINE
  8
0
 66
1
 10
0.0
 20
0.0
 30
0.0
 70
8
  0
VERTEX
  8
0
 10
2000.0
 20
1000.0
 30
0.0
  0
VERTEX
  8
0
 10
2000.0
 20
1030.75022
 30
0.0
  0
VERTEX
  8
0
 10
1963.44648
 20
1032.4908599999999
 30
0.0
  0
VERTEX
  8
0
 10
1950.10096
 20
1001.74065
 30
0.0
  0
VERTEX
  8
0
 10
1969.24804
 20
997.09834
 30
0.0
  0
VERTEX
  8
0
 10
1990.13577
 20
995.3577
 30
0.0
  0
VERTEX
  8
0
 10
2000.0
 20
1000.0
 30
0.0
  0
VERTEX
  8
0
 10
2000.0
 20
1000.0
 30
0.0
  0
SEQEND
  0
POLYLINE
  8
0
 66
1
 10
0.0
 20
0.0
 30
0.0
 70
8
  0
VERTEX
  8
0
 10
3000.0
 20
1000.0
 30
0.0
  0
VERTEX
  8
0
 10
2997.09834
 20
1026.10966
 30
0.0
  0
VERTEX
  8
0
 10
2920.51
 20
1026.69103
 30
0.0
  0
VERTEX
  8
0
 10
2901.36292
 20
1013.92516
 30
0.0
  0
VERTEX
  8
0
 10
2900.20366
 20
1001.74065
 30
0.0
  0
VERTEX
  8
0
 10
2937.33682
 20
1002.90166
 30
0.0
  0
VERTEX
  8
0
 10
2970.98869
 20
1002.32202
 30
0.0
  0
VERTEX
  8
0
 10
2980.27328
 20
994.19844
 30
0.0
  0
VERTEX
  8
0
 10
2994.77807
 20
994.19844
 30
0.0
  0
VERTEX
  8
0
 10
3000.0
 20
1000.0
 30
0.0
  0
VERTEX
  8
0
 10
3000.0
 20
1000.0
 30
0.0
  0
SEQEND
  0
POLYLINE
  8
0
 66
1
 10
0.0
 20
0.0
 30
0.0
 70
8
  0
VERTEX
  8
0
 10
4000.0
 20
1000.0
 30
0.0
  0
VERTEX
  8
0
 10
4001.16101
 20
1012.76415
 30
0.0
  0
VERTEX
  8
0
 10
4034.23325
 20
1017.40644
 30
0.0
  0
VERTEX
  8
0
 10
4049.31941
 20
1017.40644
 30
0.0
  0
VERTEX
  8
0
 10
4069.04613
 20
1009.28285
 30
0.0
  0
VERTEX
  8
0
 10
4067.88512
 20
992.45779
 30
0.0
  0
VERTEX
  8
0
 10
4002.90166
 20
990.71715
 30
0.0
  0
VERTEX
  8
0
 10
4000.0
 20
1000.0
 30
0.0
  0
VERTEX
  8
0
 10
4000.0
 20
1000.0
 30
0.0
  0
SEQEND
  0
POLYLINE
  8
0
 66
1
 10
0.0
 20
0.0
 30
0.0
 70
8
  0
VERTEX
  8
0
 10
5000.0
 20
1000.0
 30
0.0
  0
VERTEX
  8
0
 10
4998.25935
 20
1058.02089
 30
0.0
  0
VERTEX
  8
0
 10
4975.63099
 20
1071.36641
 30
0.0
  0
VERTEX
  8
0
 10
4945.4604
 20
1074.26632
 30
0.0
  0
VERTEX
  8
0
 10
4925.15231
 20
1087.03221
 30
0.0
  0
VERTEX
  8
0
 10
4920.51
 20
1113.7215
 30
0.0
  0
VERTEX
  8
0
 10
4881.05657
 20
1114.30113
 30
0.0
  0
VERTEX
  8
0
 10
4881.05657
 20
1067.30374
 30
0.0
  0
VERTEX
  8
0
 10
4881.05657
 20
1002.89992
 30
0.0
  0
VERTEX
  8
0
 10
4909.48651
 20
997.67798
 30
0.0
  0
VERTEX
  8
0
 10
4904.84421
 20
961.70583
 30
0.0
  0
VERTEX
  8
0
 10
4964.91384
 20
959.39947
 30
0.0
  0
VERTEX
  8
0
 10
4969.82941
 20
997.67798
 30
0.0
  0
VERTEX
  8
0
 10
5000.0
 20
1000.0
 30
0.0
  0
VERTEX
  8
0
 10
5000.0
 20
1000.0
 30
0.0
  0
SEQEND
  0
POLYLINE
  8
0
 66
1
 10
0.0
 20
0.0
 30
0.0
 70
8
  0
VERTEX
  8
0
 10
6000.0
 20
1000.0
 30
0.0
  0
VERTEX
  8
0
 10
6002.32202
 20
1053.38033
 30
0.0
  0
VERTEX
  8
0
 10
5956.4839
 20
1053.95996
 30
0.0
  0
VERTEX
  8
0
 10
5956.4839
 20
1003.48129
 30
0.0
  0
VERTEX
  8
0
 10
5980.27328
 20
1003.48129
 30
0.0
  0
VERTEX
  8
0
 10
6000.0
 20
1000.0
 30
0.0
  0
VERTEX
  8
0
 10
6000.0
 20
1000.0
 30
0.0
  0
SEQEND
  0
POLYLINE
  8
0
 66
1
 10
0.0
 20
0.0
 30
0.0
 70
8
  0
VERTEX
  8
0
 10
7000.0
 20
1000.0
 30
0.0
  0
VERTEX
  8
0
 10
7054.5396
 20
997.67798
 30
0.0
  0
VERTEX
  8
0
 10
7053.37859
 20
1019.72672
 30
0.0
  0
VERTEX
  8
0
 10
7041.19408
 20
1029.59095
 30
0.0
  0
VERTEX
  8
0
 10
7015.08442
 20
1029.59095
 30
0.0
  0
VERTEX
  8
0
 10
7002.89992
 20
1016.2454299999999
 30
0.0
  0
VERTEX
  8
0
 10
7000.0
 20
1000.0
 30
0.0
  0
VERTEX
  8
0
 10
7000.0
 20
1000.0
 30
0.0
  0
SEQEND
  0
POLYLINE
  8
0
 66
1
 10
0.0
 20
0.0
 30
0.0
 70
8
  0
VERTEX
  8
0
 10
8000.0
 20
1000.0
 30
0.0
  0
VERTEX
  8
0
 10
8062.08355
 20
998.25935
 30
0.0
  0
VERTEX
  8
0
 10
8060.92254
 20
1011.60487
 30
0.0
  0
VERTEX
  8
0
 10
8050.47868
 20
1026.10966
 30
0.0
  0
VERTEX
  8
0
 10
8025.53002
 20
1026.10966
 30
0.0
  0
VERTEX
  8
0
 10
8000.0
 20
1000.0
 30
0.0
  0
VERTEX
  8
0
 10
8000.0
 20
1000.0
 30
0.0
  0
SEQEND
  0
POLYLINE
  8
0
 66
1
 10
0.0
 20
0.0
 30
0.0
 70
8
  0
VERTEX
  8
0
 10
9000.0
 20
1000.0
 30
0.0
  0
VERTEX
  8
0
 10
8979.11227
 20
1000.58138
 30
0.0
  0
VERTEX
  8
0
 10
8974.46998
 20
1012.18451
 30
0.0
  0
VERTEX
  8
0
 10
8980.27154
 20
1024.95039
 30
0.0
  0
VERTEX
  8
0
 10
9007.54221
 20
1034.23325
 30
0.0
  0
VERTEX
  8
0
 10
9019.72672
 20
1020.88773
 30
0.0
  0
VERTEX
  8
0
 10
9017.40644
 20
999.42036
 30
0.0
  0
VERTEX
  8
0
 10
9000.0
 20
1000.0
 30
0.0
  0
VERTEX
  8
0
 10
9000.0
 20
1000.0
 30
0.0
  0
SEQEND
  0
POLYLINE
  8
0
 66
1
 10
0.0
 20
0.0
 30
0.0
 70
8
  0
VERTEX
  8
0
 10
10000.0
 20
1000.0
 30
0.0
  0
VERTEX
  8
0
 10
9985.49521
 20
1002.90166
 30
0.0
  0
VERTEX
  8
0
 10
9972.1497
 20
994.77807
 30
0.0
  0
VERTEX
  8
0
 10
9921.67102
 20
994.77807
 30
0.0
  0
VERTEX
  8
0
 10
9919.93037
 20
972.72933
 30
0.0
  0
VERTEX
  8
0
 10
9936.1758
 20
969.24804
 30
0.0
  0
VERTEX
  8
0
 10
9935.01653
 20
958.22454
 30
0.0
  0
VERTEX
  8
0
 10
9998.83899
 20
954.16362
 30
0.0
  0
VERTEX
  8
0
 10
10000.0
 20
1000.0
 30
0.0
  0
VERTEX
  8
0
 10
10000.0
 20
1000.0
 30
0.0
  0
SEQEND
  0
POLYLINE
  8
0
 66
1
 10
0.0
 20
0.0
 30
0.0
 70
8
  0
VERTEX
  8
0
 10
11000.0
 20
1000.0
 30
0.0
  0
VERTEX
  8
0
 10
11043.5161
 20
1000.0
 30
0.0
  0
VERTEX
  8
0
 10
11041.19582
 20
983.7545700000001
 30
0.0
  0
VERTEX
  8
0
 10
11038.875540000001
 20
944.88077
 30
0.0
  0
VERTEX
  8
0
 10
11013.92516
 20
941.39947
 30
0.0
  0
VERTEX
  8
0
 10
10995.93907
 20
953.00261
 30
0.0
  0
VERTEX
  8
0
 10
11001.74065
 20
973.31071
 30
0.0
  0
VERTEX
  8
0
 10
10995.35944
 20
982.01393
 30
0.0
  0
VERTEX
  8
0
 10
11000.0
 20
1000.0
 30
0.0
  0
VERTEX
  8
0
 10
11000.0
 20
1000.0
 30
0.0
  0
SEQEND
  0
POLYLINE
  8
0
 66
1
 10
0.0
 20
0.0
 30
0.0
 70
8
  0
VERTEX
  8
0
 10
12000.0
 20
1000.0
 30
0.0
  0
VERTEX
  8
0
 10
12002.89992
 20
1023.208
 30
0.0
  0
VERTEX
  8
0
 10
12064.98347
 20
1025.53002
 30
0.0
  0
VERTEX
  8
0
 10
12067.30374
 20
1004.06093
 30
0.0
  0
VERTEX
  8
0
 10
12031.3316
 20
1000.57964
 30
0.0
  0
VERTEX
  8
0
 10
12000.0
 20
1000.0
 30
0.0
  0
VERTEX
  8
0
 10
12000.0
 20
1000.0
 30
0.0
  0
SEQEND
  0
POLYLINE
  8
0
 66
1
 10
0.0
 20
0.0
 30
0.0
 70
8
  0
VERTEX
  8
0
 10
13000.0
 20
1000.0
 30
0.0
  0
VERTEX
  8
0
 10
12991.87816
 20
1007.54395
 30
0.0
  0
VERTEX
  8
0
 10
12991.29678
 20
1018.56745
 30
0.0
  0
VERTEX
  8
0
 10
13017.40644
 20
1019.72846
 30
0.0
  0
VERTEX
  8
0
 10
13020.88773
 20
1004.6423
 30
0.0
  0
VERTEX
  8
0
 10
13000.0
 20
1000.0
 30
0.0
  0
VERTEX
  8
0
 10
13000.0
 20
1000.0
 30
0.0
  0
SEQEND
  0
POLYLINE
  8
0
 66
1
 10
0.0
 20
0.0
 30
0.0
 70
8
  0
VERTEX
  8
0
 10
14000.0
 20
1000.0
 30
0.0
  0
VERTEX
  8
0
 10
13999.42036
 20
1019.14708
 30
0.0
  0
VERTEX
  8
0
 10
13959.96518
 20
1025.52828
 30
0.0
  0
VERTEX
  8
0
 10
13957.06527
 20
1010.44387
 30
0.0
  0
VERTEX
  8
0
 10
13969.82941
 20
1000.57964
 30
0.0
  0
VERTEX
  8
0
 10
13985.49521
 20
998.25935
 30
0.0
  0
VERTEX
  8
0
 10
14000.0
 20
1000.0
 30
0.0
  0
VERTEX
  8
0
 10
14000.0
 20
1000.0
 30
0.0
  0
SEQEND
  0
POLYLINE
  8
0
 66
1
 10
0.0
 20
0.0
 30
0.0
 70
8
  0
VERTEX
  8
0
 10
15000.0
 20
1000.0
 30
0.0
  0
VERTEX
  8
0
 10
14975.63099
 20
1008.70322
 30
0.0
  0
VERTEX
  8
0
 10
14978.53264
 20
1017.98607
 30
0.0
  0
VERTEX
  8
0
 10
14995.35944
 20
1020.88773
 30
0.0
  0
VERTEX
  8
0
 10
15019.72846
 20
1023.78764
 30
0.0
  0
VERTEX
  8
0
 10
15021.46911
 20
1012.76415
 30
0.0
  0
VERTEX
  8
0
 10
15015.08616
 20
1002.32028
 30
0.0
  0
VERTEX
  8
0
 10
15000.0
 20
1000.0
 30
0.0
  0
VERTEX
  8
0
 10
15000.0
 20
1000.0
 30
0.0
  0
SEQEND
  0
POLYLINE
  8
0
 66
1
 10
0.0
 20
0.0
 30
0.0
 70
8
  0
VERTEX
  8
0
 10
16000.0
 20
1000.0
 30
0.0
  0
VERTEX
  8
0
 10
16000.0
 20
1019.72672
 30
0.0
  0
VERTEX
  8
0
 10
15977.953
 20
1021.46736
 30
0.0
  0
VERTEX
  8
0
 10
15961.70583
 20
1016.2454299999999
 30
0.0
  0
VERTEX
  8
0
 10
15961.1262
 20
998.83899
 30
0.0
  0
VERTEX
  8
0
 10
16000.0
 20
1000.0
 30
0.0
  0
VERTEX
  8
0
 10
16000.0
 20
1000.0
 30
0.0
  0
SEQEND
  0
POLYLINE
  8
0
 66
1
 10
0.0
 20
0.0
 30
0.0
 70
8
  0
VERTEX
  8
0
 10
17000.0
 20
1000.0
 30
0.0
  0
VERTEX
  8
0
 10
16996.51871
 20
1023.78938
 30
0.0
  0
VERTEX
  8
0
 10
16979.69365
 20
1023.20975
 30
0.0
  0
VERTEX
  8
0
 10
16970.40905
 20
1006.38294
 30
0.0
  0
VERTEX
  8
0
 10
16983.17494
 20
998.25935
 30
0.0
  0
VERTEX
  8
0
 10
17000.0
 20
1000.0
 30
0.0
  0
VERTEX
  8
0
 10
17000.0
 20
1000.0
 30
0.0
  0
SEQEND
  0
POLYLINE
  8
0
 66
1
 10
0.0
 20
0.0
 30
0.0
 70
8
  0
VERTEX
  8
0
 10
18000.0
 20
1000.0
 30
0.0
  0
VERTEX
  8
0
 10
17998.25935
 20
1007.54221
 30
0.0
  0
VERTEX
  8
0
 10
17979.6919
 20
1015.08442
 30
0.0
  0
VERTEX
  8
0
 10
17982.01218
 20
1025.52828
 30
0.0
  0
VERTEX
  8
0
 10
18001.74065
 20
1035.97215
 30
0.0
  0
VERTEX
  8
0
 10
18017.98607
 20
1023.78764
 30
0.0
  0
VERTEX
  8
0
 10
18039.45344
 20
1023.208
 30
0.0
  0
VERTEX
  8
0
 10
18042.93473
 20
1014.50479
 30
0.0
  0
VERTEX
  8
0
 10
18043.5161
 20
1005.22193
 30
0.0
  0
VERTEX
  8
0
 10
18024.36901
 20
1004.06093
 30
0.0
  0
VERTEX
  8
0
 10
18000.0
 20
1000.0
 30
0.0
  0
VERTEX
  8
0
 10
18000.0
 20
1000.0
 30
0.0
  0
SEQEND
  0
POLYLINE
  8
0
 66
1
 10
0.0
 20
0.0
 30
0.0
 70
8
  0
VERTEX
  8
0
 10
19000.0
 20
1000.0
 30
0.0
  0
VERTEX
  8
0
 10
19031.3316
 20
1028.43168
 30
0.0
  0
VERTEX
  8
0
 10
19058.60053
 20
1029.59095
 30
0.0
  0
VERTEX
  8
0
 10
19071.94604
 20
1016.82681
 30
0.0
  0
VERTEX
  8
0
 10
19058.02089
 20
997.67972
 30
0.0
  0
VERTEX
  8
0
 10
19025.52828
 20
998.25935
 30
0.0
  0
VERTEX
  8
0
 10
19000.0
 20
1000.0
 30
0.0
  0
VERTEX
  8
0
 10
19000.0
 20
1000.0
 30
0.0
  0
SEQEND
  0
POLYLINE
  8
0
 66
1
 10
0.0
 20
0.0
 30
0.0
 70
8
  0
VERTEX
  8
0
 10
20000.0
 20
1000.0
 30
0.0
  0
VERTEX
  8
0
 10
19997.67972
 20
1026.69103
 30
0.0
  0
VERTEX
  8
0
 10
19969.82941
 20
1024.95039
 30
0.0
  0
VERTEX
  8
0
 10
19970.40905
 20
999.42036
 30
0.0
  0
VERTEX
  8
0
 10
20000.0
 20
1000.0
 30
0.0
  0
VERTEX
  8
0
 10
20000.0
 20
1000.0
 30
0.0
  0
SEQEND
  0
POLYLINE
  8
0
 66
1
 10
0.0
 20
0.0
 30
0.0
 70
8
  0
VERTEX
  8
0
 10
21000.0
 20
1000.0
 30
0.0
  0
VERTEX
  8
0
 10
21012.18451
 20
1029.59095
 30
0.0
  0
VERTEX
  8
0
 10
20990.71541
 20
1026.68929
 30
0.0
  0
VERTEX
  8
0
 10
20984.3342
 20
1018.56745
 30
0.0
  0
VERTEX
  8
0
 10
20984.3342
 20
1005.22193
 30
0.0
  0
VERTEX
  8
0
 10
20992.45605
 20
999.42036
 30
0.0
  0
VERTEX
  8
0
 10
21000.0
 20
1000.0
 30
0.0
  0
VERTEX
  8
0
 10
21000.0
 20
1000.0
 30
0.0
  0
SEQEND
  0
POLYLINE
  8
0
 66
1
 10
0.0
 20
0.0
 30
0.0
 70
8
  0
VERTEX
  8
0
 10
22000.0
 20
1000.0
 30
0.0
  0
VERTEX
  8
0
 10
21996.51871
 20
1022.04874
 30
0.0
  0
VERTEX
  8
0
 10
22002.90166
 20
1028.43168
 30
0.0
  0
VERTEX
  8
0
 10
22019.14708
 20
1026.69103
 30
0.0
  0
VERTEX
  8
0
 10
22030.17232
 20
1017.40644
 30
0.0
  0
VERTEX
  8
0
 10
22025.53002
 20
1010.44387
 30
0.0
  0
VERTEX
  8
0
 10
22024.36901
 20
1004.6423
 30
0.0
  0
VERTEX
  8
0
 10
22011.60487
 20
998.25935
 30
0.0
  0
VERTEX
  8
0
 10
22000.0
 20
1000.0
 30
0.0
  0
VERTEX
  8
0
 10
22000.0
 20
1000.0
 30
0.0
  0
SEQEND
  0
POLYLINE
  8
0
 66
1
 10
0.0
 20
0.0
 30
0.0
 70
8
  0
VERTEX
  8
0
 10
23000.0
 20
1000.0
 30
0.0
  0
VERTEX
  8
0
 10
23002.90166
 20
1028.42994
 30
0.0
  0
VERTEX
  8
0
 10
22968.6684
 20
1030.75022
 30
0.0
  0
VERTEX
  8
0
 10
22951.8416
 20
1012.18451
 30
0.0
  0
VERTEX
  8
0
 10
22948.94169
 20
1002.32028
 30
0.0
  0
VERTEX
  8
0
 10
23000.0
 20
1000.0
 30
0.0
  0
VERTEX
  8
0
 10
23000.0
 20
1000.0
 30
0.0
  0
SEQEND
  0
POLYLINE
  8
0
 66
1
 10
0.0
 20
0.0
 30
0.0
 70
8
  0
VERTEX
  8
0
 10
24000.0
 20
1000.0
 30
0.0
  0
VERTEX
  8
0
 10
24045.25675
 20
996.51871
 30
0.0
  0
VERTEX
  8
0
 10
24045.25675
 20
982.01393
 30
0.0
  0
VERTEX
  8
0
 10
24037.13316
 20
959.96518
 30
0.0
  0
VERTEX
  8
0
 10
24020.88773
 20
957.64491
 30
0.0
  0
VERTEX
  8
0
 10
23998.83899
 20
954.16362
 30
0.0
  0
VERTEX
  8
0
 10
24000.0
 20
1000.0
 30
0.0
  0
VERTEX
  8
0
 10
24000.0
 20
1000.0
 30
0.0
  0
SEQEND
  0
POLYLINE
  8
0
 66
1
 10
0.0
 20
0.0
 30
0.0
 70
8
  0
VERTEX
  8
0
 10
25000.0
 20
1000.0
 30
0.0
  0
VERTEX
  8
0
 10
25024.95039
 20
994.19844
 30
0.0
  0
VERTEX
  8
0
 10
25040.61619
 20
986.07484
 30
0.0
  0
VERTEX
  8
0
 10
25044.67711
 20
960.54656
 30
0.0
  0
VERTEX
  8
0
 10
25008.70322
 20
955.90427
 30
0.0
  0
VERTEX
  8
0
 10
25001.74065
 20
961.70583
 30
0.0
  0
VERTEX
  8
0
 10
25000.0
 20
1000.0
 30
0.0
  0
VERTEX
  8
0
 10
25000.0
 20
1000.0
 30
0.0
  0
SEQEND
  0
POLYLINE
  8
0
 66
1
 10
0.0
 20
0.0
 30
0.0
 70
8
  0
VERTEX
  8
0
 10
26000.0
 20
1000.0
 30
0.0
  0
VERTEX
  8
0
 10
25995.64839
 20
1043.5161
 30
0.0
  0
VERTEX
  8
0
 10
26009.57354
 20
1051.349
 30
0.0
  0
VERTEX
  8
0
 10
26021.75805
 20
1048.73804
 30
0.0
  0
VERTEX
  8
0
 10
26027.8503
 20
1020.0174
 30
0.0
  0
VERTEX
  8
0
 10
26036.55352
 20
1011.31419
 30
0.0
  0
VERTEX
  8
0
 10
26035.68321
 20
996.51871
 30
0.0
  0
VERTEX
  8
0
 10
26000.0
 20
1000.0
 30
0.0
  0
VERTEX
  8
0
 10
26000.0
 20
1000.0
 30
0.0
  0
SEQEND
  0
POLYLINE
  8
0
 66
1
 10
0.0
 20
0.0
 30
0.0
 70
8
  0
VERTEX
  8
0
 10
27000.0
 20
1000.0
 30
0.0
  0
VERTEX
  8
0
 10
27059.1819
 20
1001.74065
 30
0.0
  0
VERTEX
  8
0
 10
27061.79286
 20
978.24195
 30
0.0
  0
VERTEX
  8
0
 10
27007.8329
 20
973.02001
 30
0.0
  0
VERTEX
  8
0
 10
27000.0
 20
1000.0
 30
0.0
  0
VERTEX
  8
0
 10
27000.0
 20
1000.0
 30
0.0
  0
SEQEND
  0
POLYLINE
  8
0
 66
1
 10
0.0
 20
0.0
 30
0.0
 70
8
  0
VERTEX
  8
0
 10
28000.0
 20
1000.0
 30
0.0
  0
VERTEX
  8
0
 10
28000.0
 20
1011.31419
 30
0.0
  0
VERTEX
  8
0
 10
27981.72324
 20
1012.18451
 30
0.0
  0
VERTEX
  8
0
 10
27982.59356
 20
996.51871
 30
0.0
  0
VERTEX
  8
0
 10
28000.0
 20
1000.0
 30
0.0
  0
VERTEX
  8
0
 10
28000.0
 20
1000.0
 30
0.0
  0
SEQEND
  0
POLYLINE
  8
0
 66
1
 10
0.0
 20
0.0
 30
0.0
 70
8
  0
VERTEX
  8
0
 10
29000.0
 20
1000.0
 30
0.0
  0
VERTEX
  8
0
 10
29030.46127
 20
1000.0
 30
0.0
  0
VERTEX
  8
0
 10
29038.29417
 20
993.03743
 30
0.0
  0
VERTEX
  8
0
 10
29037.42385
 20
944.29939
 30
0.0
  0
VERTEX
  8
0
 10
28975.63099
 20
949.52132
 30
0.0
  0
VERTEX
  8
0
 10
28979.9826
 20
963.44648
 30
0.0
  0
VERTEX
  8
0
 10
29003.48129
 20
962.57615
 30
0.0
  0
VERTEX
  8
0
 10
29000.0
 20
1000.0
 30
0.0
  0
VERTEX
  8
0
 10
29000.0
 20
1000.0
 30
0.0
  0
SEQEND
  0
POLYLINE
  8
0
 66
1
 10
0.0
 20
0.0
 30
0.0
 70
8
  0
VERTEX
  8
0
 10
30000.0
 20
1000.0
 30
0.0
  0
VERTEX
  8
0
 10
29994.77807
 20
1034.81288
 30
0.0
  0
VERTEX
  8
0
 10
30031.3316
 20
1040.90514
 30
0.0
  0
VERTEX
  8
0
 10
30052.21932
 20
1021.75805
 30
0.0
  0
VERTEX
  8
0
 10
30057.44125
 20
1006.96257
 30
0.0
  0
VERTEX
  8
0
 10
30048.73804
 20
993.90775
 30
0.0
  0
VERTEX
  8
0
 10
30024.36901
 20
1002.61097
 30
0.0
  0
VERTEX
  8
0
 10
30000.0
 20
1000.0
 30
0.0
  0
VERTEX
  8
0
 10
30000.0
 20
1000.0
 30
0.0
  0
SEQEND
  0
POLYLINE
  8
0
 66
1
 10
0.0
 20
0.0
 30
0.0
 70
8
  0
VERTEX
  8
0
 10
31000.0
 20
1000.0
 30
0.0
  0
VERTEX
  8
0
 10
30997.38903
 20
1007.8329
 30
0.0
  0
VERTEX
  8
0
 10
31016.53612
 20
1017.40644
 30
0.0
  0
VERTEX
  8
0
 10
31023.4987
 20
1025.23934
 30
0.0
  0
VERTEX
  8
0
 10
31033.94256
 20
1008.70322
 30
0.0
  0
VERTEX
  8
0
 10
31034.81288
 20
998.25935
 30
0.0
  0
VERTEX
  8
0
 10
31000.0
 20
1000.0
 30
0.0
  0
VERTEX
  8
0
 10
31000.0
 20
1000.0
 30
0.0
  0
SEQEND
  0
POLYLINE
  8
0
 66
1
 10
0.0
 20
0.0
 30
0.0
 70
8
  0
VERTEX
  8
0
 10
32000.0
 20
1000.0
 30
0.0
  0
VERTEX
  8
0
 10
32001.74065
 20
1015.6658
 30
0.0
  0
VERTEX
  8
0
 10
32050.47868
 20
1020.0174
 30
0.0
  0
VERTEX
  8
0
 10
32047.86771
 20
993.90775
 30
0.0
  0
VERTEX
  8
0
 10
32040.90514
 20
1000.0
 30
0.0
  0
VERTEX
  8
0
 10
32000.0
 20
1000.0
 30
0.0
  0
VERTEX
  8
0
 10
32000.0
 20
1000.0
 30
0.0
  0
SEQEND
  0
POLYLINE
  8
0
 66
1
 10
0.0
 20
0.0
 30
0.0
 70
8
  0
VERTEX
  8
0
 10
33000.0
 20
1000.0
 30
0.0
  0
VERTEX
  8
0
 10
32999.12968
 20
1021.75805
 30
0.0
  0
VERTEX
  8
0
 10
33013.92516
 20
1026.10966
 30
0.0
  0
VERTEX
  8
0
 10
33014.79548
 20
1001.74065
 30
0.0
  0
VERTEX
  8
0
 10
33000.0
 20
1000.0
 30
0.0
  0
VERTEX
  8
0
 10
33000.0
 20
1000.0
 30
0.0
  0
SEQEND
  0
POLYLINE
  8
0
 66
1
 10
0.0
 20
0.0
 30
0.0
 70
8
  0
VERTEX
  8
0
 10
34000.0
 20
1000.0
 30
0.0
  0
VERTEX
  8
0
 10
34000.0
 20
1006.09225
 30
0.0
  0
VERTEX
  8
0
 10
34031.3316
 20
1008.70322
 30
0.0
  0
VERTEX
  8
0
 10
34032.20191
 20
1002.61097
 30
0.0
  0
VERTEX
  8
0
 10
34020.88773
 20
1000.87032
 30
0.0
  0
VERTEX
  8
0
 10
34020.0174
 20
994.77807
 30
0.0
  0
VERTEX
  8
0
 10
34006.96257
 20
993.90775
 30
0.0
  0
VERTEX
  8
0
 10
34000.0
 20
1000.0
 30
0.0
  0
VERTEX
  8
0
 10
34000.0
 20
1000.0
 30
0.0
  0
SEQEND
  0
POLYLINE
  8
0
 66
1
 10
0.0
 20
0.0
 30
0.0
 70
8
  0
VERTEX
  8
0
 10
35000.0
 20
1000.0
 30
0.0
  0
VERTEX
  8
0
 10
35006.09225
 20
993.90775
 30
0.0
  0
VERTEX
  8
0
 10
35033.07224
 20
993.03743
 30
0.0
  0
VERTEX
  8
0
 10
35037.42385
 20
1024.36901
 30
0.0
  0
VERTEX
  8
0
 10
35003.48129
 20
1025.23934
 30
0.0
  0
VERTEX
  8
0
 10
35000.0
 20
1000.0
 30
0.0
  0
VERTEX
  8
0
 10
35000.0
 20
1000.0
 30
0.0
  0
SEQEND
  0
POLYLINE
  8
0
 66
1
 10
0.0
 20
0.0
 30
0.0
 70
8
  0
VERTEX
  8
0
 10
36000.0
 20
1000.0
 30
0.0
  0
VERTEX
  8
0
 10
35996.51871
 20
1046.12707
 30
0.0
  0
VERTEX
  8
0
 10
35966.92776
 20
1043.5161
 30
0.0
  0
VERTEX
  8
0
 10
35947.78068
 20
1036.55352
 30
0.0
  0
VERTEX
  8
0
 10
35946.91035
 20
1000.87032
 30
0.0
  0
VERTEX
  8
0
 10
36000.0
 20
1000.0
 30
0.0
  0
VERTEX
  8
0
 10
36000.0
 20
1000.0
 30
0.0
  0
SEQEND
  0
POLYLINE
  8
0
 66
1
 10
0.0
 20
0.0
 30
0.0
 70
8
  0
VERTEX
  8
0
 10
37000.0
 20
1000.0
 30
0.0
  0
VERTEX
  8
0
 10
37002.61097
 20
1028.72063
 30
0.0
  0
VERTEX
  8
0
 10
37009.57354
 20
1033.94256
 30
0.0
  0
VERTEX
  8
0
 10
37011.31419
 20
1040.03482
 30
0.0
  0
VERTEX
  8
0
 10
37033.07224
 20
1033.94256
 30
0.0
  0
VERTEX
  8
0
 10
37046.99739
 20
1036.55352
 30
0.0
  0
VERTEX
  8
0
 10
37046.99739
 20
997.38903
 30
0.0
  0
VERTEX
  8
0
 10
37000.0
 20
1000.0
 30
0.0
  0
VERTEX
  8
0
 10
37000.0
 20
1000.0
 30
0.0
  0
SEQEND
  0
POLYLINE
  8
0
 66
1
 10
0.0
 20
0.0
 30
0.0
 70
8
  0
VERTEX
  8
0
 10
38000.0
 20
1000.0
 30
0.0
  0
VERTEX
  8
0
 10
38002.61097
 20
1044.38643
 30
0.0
  0
VERTEX
  8
0
 10
38033.94256
 20
1044.38643
 30
0.0
  0
VERTEX
  8
0
 10
38033.94256
 20
1006.96257
 30
0.0
  0
VERTEX
  8
0
 10
38008.70322
 20
1006.96257
 30
0.0
  0
VERTEX
  8
0
 10
38000.0
 20
1000.0
 30
0.0
  0
VERTEX
  8
0
 10
38000.0
 20
1000.0
 30
0.0
  0
SEQEND
  0
POLYLINE
  8
0
 66
1
 10
0.0
 20
0.0
 30
0.0
 70
8
  0
VERTEX
  8
0
 10
39000.0
 20
1000.0
 30
0.0
  0
VERTEX
  8
0
 10
39000.87032
 20
1028.72063
 30
0.0
  0
VERTEX
  8
0
 10
39009.57354
 20
1033.07224
 30
0.0
  0
VERTEX
  8
0
 10
39031.3316
 20
1030.46127
 30
0.0
  0
VERTEX
  8
0
 10
39053.95996
 20
1015.6658
 30
0.0
  0
VERTEX
  8
0
 10
39053.08965
 20
997.38903
 30
0.0
  0
VERTEX
  8
0
 10
39000.0
 20
1000.0
 30
0.0
  0
VERTEX
  8
0
 10
39000.0
 20
1000.0
 30
0.0
  0
SEQEND
  0
POLYLINE
  8
0
 66
1
 10
0.0
 20
0.0
 30
0.0
 70
8
  0
VERTEX
  8
0
 10
40000.0
 20
1000.0
 30
0.0
  0
VERTEX
  8
0
 10
40002.61097
 20
1038.29417
 30
0.0
  0
VERTEX
  8
0
 10
39994.77807
 20
1045.25675
 30
0.0
  0
VERTEX
  8
0
 10
39949.52132
 20
1040.90514
 30
0.0
  0
VERTEX
  8
0
 10
39935.59617
 20
1040.03482
 30
0.0
  0
VERTEX
  8
0
 10
39935.59617
 20
1011.31419
 30
0.0
  0
VERTEX
  8
0
 10
39943.42907
 20
997.38903
 30
0.0
  0
VERTEX
  8
0
 10
40000.0
 20
1000.0
 30
0.0
  0
VERTEX
  8
0
 10
40000.0
 20
1000.0
 30
0.0
  0
SEQEND
  0
POLYLINE
  8
0
 66
1
 10
0.0
 20
0.0
 30
0.0
 70
8
  0
VERTEX
  8
0
 10
41000.0
 20
1000.0
 30
0.0
  0
VERTEX
  8
0
 10
41014.79548
 20
977.37163
 30
0.0
  0
VERTEX
  8
0
 10
41071.36641
 20
992.1671
 30
0.0
  0
VERTEX
  8
0
 10
41073.10705
 20
1013.05483
 30
0.0
  0
VERTEX
  8
0
 10
41077.45866
 20
1019.14708
 30
0.0
  0
VERTEX
  8
0
 10
41077.45866
 20
1062.66318
 30
0.0
  0
VERTEX
  8
0
 10
41050.47868
 20
1082.68059
 30
0.0
  0
VERTEX
  8
0
 10
40996.51871
 20
1083.55092
 30
0.0
  0
VERTEX
  8
0
 10
41000.0
 20
1000.0
 30
0.0
  0
VERTEX
  8
0
 10
41000.0
 20
1000.0
 30
0.0
  0
SEQEND
  0
POLYLINE
  8
0
 66
1
 10
0.0
 20
0.0
 30
0.0
 70
8
  0
VERTEX
  8
0
 10
42000.0
 20
1000.0
 30
0.0
  0
VERTEX
  8
0
 10
42002.61097
 20
1029.59095
 30
0.0
  0
VERTEX
  8
0
 10
42046.12707
 20
1033.07224
 30
0.0
  0
VERTEX
  8
0
 10
42046.99739
 20
1005.22193
 30
0.0
  0
VERTEX
  8
0
 10
42040.90514
 20
997.38903
 30
0.0
  0
VERTEX
  8
0
 10
42000.0
 20
1000.0
 30
0.0
  0
VERTEX
  8
0
 10
42000.0
 20
1000.0
 30
0.0
  0
SEQEND
  0
POLYLINE
  8
0
 66
1
 10
0.0
 20
0.0
 30
0.0
 70
8
  0
VERTEX
  8
0
 10
43000.0
 20
1000.0
 30
0.0
  0
VERTEX
  8
0
 10
43000.0
 20
1051.349
 30
0.0
  0
VERTEX
  8
0
 10
43031.3316
 20
1054.83029
 30
0.0
  0
VERTEX
  8
0
 10
43043.5161
 20
1047.86771
 30
0.0
  0
VERTEX
  8
0
 10
43054.83029
 20
996.51871
 30
0.0
  0
VERTEX
  8
0
 10
43000.0
 20
1000.0
 30
0.0
  0
VERTEX
  8
0
 10
43000.0
 20
1000.0
 30
0.0
  0
SEQEND
  0
POLYLINE
  8
0
 66
1
 10
0.0
 20
0.0
 30
0.0
 70
8
  0
VERTEX
  8
0
 10
44000.0
 20
1000.0
 30
0.0
  0
VERTEX
  8
0
 10
44046.99739
 20
999.12968
 30
0.0
  0
VERTEX
  8
0
 10
44052.21932
 20
986.07484
 30
0.0
  0
VERTEX
  8
0
 10
44068.75544
 20
986.07484
 30
0.0
  0
VERTEX
  8
0
 10
44067.01479
 20
937.33682
 30
0.0
  0
VERTEX
  8
0
 10
44030.46127
 20
926.0226299999999
 30
0.0
  0
VERTEX
  8
0
 10
44013.92516
 20
952.13229
 30
0.0
  0
VERTEX
  8
0
 10
44006.96257
 20
979.9826
 30
0.0
  0
VERTEX
  8
0
 10
44000.0
 20
1000.0
 30
0.0
  0
VERTEX
  8
0
 10
44000.0
 20
1000.0
 30
0.0
  0
SEQEND
  0
POLYLINE
  8
0
 66
1
 10
0.0
 20
0.0
 30
0.0
 70
8
  0
VERTEX
  8
0
 10
45000.0
 20
1000.0
 30
0.0
  0
VERTEX
  8
0
 10
45021.75805
 20
1026.97999
 30
0.0
  0
VERTEX
  8
0
 10
45042.64578
 20
1032.20191
 30
0.0
  0
VERTEX
  8
0
 10
45083.55092
 20
1067.01479
 30
0.0
  0
VERTEX
  8
0
 10
45079.19931
 20
981.72324
 30
0.0
  0
VERTEX
  8
0
 10
45037.42385
 20
977.37163
 30
0.0
  0
VERTEX
  8
0
 10
45000.0
 20
1000.0
 30
0.0
  0
VERTEX
  8
0
 10
45000.0
 20
1000.0
 30
0.0
  0
SEQEND
  0
POLYLINE
  8
0
 66
1
 10
0.0
 20
0.0
 30
0.0
 70
8
  0
VERTEX
  8
0
 10
46000.0
 20
1000.0
 30
0.0
  0
VERTEX
  8
0
 10
45994.77807
 20
1018.27676
 30
0.0
  0
VERTEX
  8
0
 10
45967.79809
 20
1015.6658
 30
0.0
  0
VERTEX
  8
0
 10
45969.53873
 20
995.64839
 30
0.0
  0
VERTEX
  8
0
 10
46000.0
 20
1000.0
 30
0.0
  0
VERTEX
  8
0
 10
46000.0
 20
1000.0
 30
0.0
  0
SEQEND
  0
POLYLINE
  8
0
 66
1
 10
0.0
 20
0.0
 30
0.0
 70
8
  0
VERTEX
  8
0
 10
47000.0
 20
1000.0
 30
0.0
  0
VERTEX
  8
0
 10
47000.87032
 20
1020.88773
 30
0.0
  0
VERTEX
  8
0
 10
47056.57093
 20
1020.0174
 30
0.0
  0
VERTEX
  8
0
 10
47055.70061
 20
1003.48129
 30
0.0
  0
VERTEX
  8
0
 10
47000.0
 20
1000.0
 30
0.0
  0
VERTEX
  8
0
 10
47000.0
 20
1000.0
 30
0.0
  0
SEQEND
  0
POLYLINE
  8
0
 66
1
 10
0.0
 20
0.0
 30
0.0
 70
8
  0
VERTEX
  8
0
 10
48000.0
 20
1000.0
 30
0.0
  0
VERTEX
  8
0
 10
48000.87032
 20
1016.53612
 30
0.0
  0
VERTEX
  8
0
 10
47946.91035
 20
1014.79548
 30
0.0
  0
VERTEX
  8
0
 10
47946.04004
 20
996.51871
 30
0.0
  0
VERTEX
  8
0
 10
48000.0
 20
1000.0
 30
0.0
  0
VERTEX
  8
0
 10
48000.0
 20
1000.0
 30
0.0
  0
SEQEND
  0
POLYLINE
  8
0
 66
1
 10
0.0
 20
0.0
 30
0.0
 70
8
  0
VERTEX
  8
0
 10
0.0
 20
1000.0
 30
0.0
  0
VERTEX
  8
0
 10
7.8329
 20
1026.10966
 30
0.0
  0
VERTEX
  8
0
 10
52.219319999999996
 20
1026.97999
 30
0.0
  0
VERTEX
  8
0
 10
56.57093
 20
1014.79548
 30
0.0
  0
VERTEX
  8
0
 10
52.219319999999996
 20
988.68581
 30
0.0
  0
VERTEX
  8
0
 10
0.0
 20
1000.0
 30
0.0
  0
VERTEX
  8
0
 10
0.0
 20
1000.0
 30
0.0
  0
SEQEND
  0
POLYLINE
  8
0
 66
1
 10
0.0
 20
0.0
 30
0.0
 70
8
  0
VERTEX
  8
0
 10
1000.0
 20
2000.0
 30
0.0
  0
VERTEX
  8
0
 10
989.55613
 20
2016.53612
 30
0.0
  0
VERTEX
  8
0
 10
991.29678
 20
2054.83029
 30
0.0
  0
VERTEX
  8
0
 10
1007.8329
 20
2053.08965
 30
0.0
  0
VERTEX
  8
0
 10
1016.53612
 20
2077.4586600000002
 30
0.0
  0
VERTEX
  8
0
 10
1054.83029
 20
2088.77285
 30
0.0
  0
VERTEX
  8
0
 10
1070.49608
 20
2066.14447
 30
0.0
  0
VERTEX
  8
0
 10
1087.03221
 20
2055.70061
 30
0.0
  0
VERTEX
  8
0
 10
1085.2915600000001
 20
2014.79548
 30
0.0
  0
VERTEX
  8
0
 10
1071.36641
 20
2000.0
 30
0.0
  0
VERTEX
  8
0
 10
1057.44125
 20
1996.51871
 30
0.0
  0
VERTEX
  8
0
 10
1046.99739
 20
1993.03743
 30
0.0
  0
VERTEX
  8
0
 10
1000.0
 20
2000.0
 30
0.0
  0
VERTEX
  8
0
 10
1000.0
 20
2000.0
 30
0.0
  0
SEQEND
  0
POLYLINE
  8
0
 66
1
 10
0.0
 20
0.0
 30
0.0
 70
8
  0
VERTEX
  8
0
 10
2000.0
 20
2000.0
 30
0.0
  0
VERTEX
  8
0
 10
2014.79548
 20
2003.48129
 30
0.0
  0
VERTEX
  8
0
 10
2023.4987
 20
2013.92516
 30
0.0
  0
VERTEX
  8
0
 10
2019.14708
 20
2021.75805
 30
0.0
  0
VERTEX
  8
0
 10
1939.94778
 20
2024.36901
 30
0.0
  0
VERTEX
  8
0
 10
1926.89295
 20
2011.31419
 30
0.0
  0
VERTEX
  8
0
 10
1951.26196
 20
2005.22193
 30
0.0
  0
VERTEX
  8
0
 10
1961.70583
 20
1996.51871
 30
0.0
  0
VERTEX
  8
0
 10
2000.0
 20
2000.0
 30
0.0
  0
VERTEX
  8
0
 10
2000.0
 20
2000.0
 30
0.0
  0
SEQEND
  0
POLYLINE
  8
0
 66
1
 10
0.0
 20
0.0
 30
0.0
 70
8
  0
VERTEX
  8
0
 10
3000.0
 20
2000.0
 30
0.0
  0
VERTEX
  8
0
 10
3005.22193
 20
2038.29417
 30
0.0
  0
VERTEX
  8
0
 10
3020.88773
 20
2046.99739
 30
0.0
  0
VERTEX
  8
0
 10
3033.94256
 20
2047.86771
 30
0.0
  0
VERTEX
  8
0
 10
3063.53351
 20
2065.27415
 30
0.0
  0
VERTEX
  8
0
 10
3084.42123
 20
2062.66318
 30
0.0
  0
VERTEX
  8
0
 10
3093.99478
 20
2053.95996
 30
0.0
  0
VERTEX
  8
0
 10
3091.38381
 20
2017.40644
 30
0.0
  0
VERTEX
  8
0
 10
3079.19931
 20
2013.92516
 30
0.0
  0
VERTEX
  8
0
 10
3066.14447
 20
1995.64839
 30
0.0
  0
VERTEX
  8
0
 10
3000.0
 20
2000.0
 30
0.0
  0
VERTEX
  8
0
 10
3000.0
 20
2000.0
 30
0.0
  0
SEQEND
  0
POLYLINE
  8
0
 66
1
 10
0.0
 20
0.0
 30
0.0
 70
8
  0
VERTEX
  8
0
 10
4000.0
 20
2000.0
 30
0.0
  0
VERTEX
  8
0
 10
4002.61097
 20
2094.8651
 30
0.0
  0
VERTEX
  8
0
 10
3993.03743
 20
2113.14186
 30
0.0
  0
VERTEX
  8
0
 10
3954.74325
 20
2113.14186
 30
0.0
  0
VERTEX
  8
0
 10
3932.11488
 20
2096.60574
 30
0.0
  0
VERTEX
  8
0
 10
3926.02263
 20
2056.57093
 30
0.0
  0
VERTEX
  8
0
 10
3925.15231
 20
2009.57354
 30
0.0
  0
VERTEX
  8
0
 10
3980.85292
 20
2005.22193
 30
0.0
  0
VERTEX
  8
0
 10
4000.0
 20
2000.0
 30
0.0
  0
VERTEX
  8
0
 10
4000.0
 20
2000.0
 30
0.0
  0
SEQEND
  0
POLYLINE
  8
0
 66
1
 10
0.0
 20
0.0
 30
0.0
 70
8
  0
VERTEX
  8
0
 10
5000.0
 20
2000.0
 30
0.0
  0
VERTEX
  8
0
 10
5004.35161
 20
2022.62837
 30
0.0
  0
VERTEX
  8
0
 10
5011.31419
 20
2027.8503
 30
0.0
  0
VERTEX
  8
0
 10
5011.31419
 20
2040.03482
 30
0.0
  0
VERTEX
  8
0
 10
5049.60835
 20
2040.90514
 30
0.0
  0
VERTEX
  8
0
 10
5058.31157
 20
2030.46127
 30
0.0
  0
VERTEX
  8
0
 10
5059.1819
 20
2005.22193
 30
0.0
  0
VERTEX
  8
0
 10
5000.0
 20
2000.0
 30
0.0
  0
VERTEX
  8
0
 10
5000.0
 20
2000.0
 30
0.0
  0
SEQEND
  0
POLYLINE
  8
0
 66
1
 10
0.0
 20
0.0
 30
0.0
 70
8
  0
VERTEX
  8
0
 10
6000.0
 20
2000.0
 30
0.0
  0
VERTEX
  8
0
 10
6020.0174
 20
2032.20191
 30
0.0
  0
VERTEX
  8
0
 10
6057.44125
 20
2032.20191
 30
0.0
  0
VERTEX
  8
0
 10
6064.40383
 20
2032.20191
 30
0.0
  0
VERTEX
  8
0
 10
6061.79286
 20
2004.35161
 30
0.0
  0
VERTEX
  8
0
 10
6000.0
 20
2000.0
 30
0.0
  0
VERTEX
  8
0
 10
6000.0
 20
2000.0
 30
0.0
  0
SEQEND
  0
POLYLINE
  8
0
 66
1
 10
0.0
 20
0.0
 30
0.0
 70
8
  0
VERTEX
  8
0
 10
7000.0
 20
2000.0
 30
0.0
  0
VERTEX
  8
0
 10
6993.90775
 20
2081.81027
 30
0.0
  0
VERTEX
  8
0
 10
7008.70322
 20
2097.47607
 30
0.0
  0
VERTEX
  8
0
 10
7026.10966
 20
2098.34639
 30
0.0
  0
VERTEX
  8
0
 10
7040.90514
 20
2089.64317
 30
0.0
  0
VERTEX
  8
0
 10
7069.62576
 20
2052.21932
 30
0.0
  0
VERTEX
  8
0
 10
7069.62576
 20
2028.72063
 30
0.0
  0
VERTEX
  8
0
 10
7048.73804
 20
2000.87032
 30
0.0
  0
VERTEX
  8
0
 10
7000.0
 20
2000.0
 30
0.0
  0
VERTEX
  8
0
 10
7000.0
 20
2000.0
 30
0.0
  0
SEQEND
  0
POLYLINE
  8
0
 66
1
 10
0.0
 20
0.0
 30
0.0
 70
8
  0
VERTEX
  8
0
 10
8000.0
 20
2000.0
 30
0.0
  0
VERTEX
  8
0
 10
8019.14708
 20
2023.4987
 30
0.0
  0
VERTEX
  8
0
 10
8092.25414
 20
2014.79548
 30
0.0
  0
VERTEX
  8
0
 10
8109.66057
 20
2007.8329
 30
0.0
  0
VERTEX
  8
0
 10
8096.60574
 20
1990.42646
 30
0.0
  0
VERTEX
  8
0
 10
8052.21932
 20
2000.0
 30
0.0
  0
VERTEX
  8
0
 10
8000.0
 20
2000.0
 30
0.0
  0
VERTEX
  8
0
 10
8000.0
 20
2000.0
 30
0.0
  0
SEQEND
  0
POLYLINE
  8
0
 66
1
 10
0.0
 20
0.0
 30
0.0
 70
8
  0
VERTEX
  8
0
 10
9000.0
 20
2000.0
 30
0.0
  0
VERTEX
  8
0
 10
8996.51871
 20
2080.06963
 30
0.0
  0
VERTEX
  8
0
 10
8980.85292
 20
2088.77285
 30
0.0
  0
VERTEX
  8
0
 10
8933.85553
 20
2053.08965
 30
0.0
  0
VERTEX
  8
0
 10
8907.745859999999
 20
2047.86771
 30
0.0
  0
VERTEX
  8
0
 10
8907.745859999999
 20
1998.25935
 30
0.0
  0
VERTEX
  8
0
 10
8945.16971
 20
1990.42646
 30
0.0
  0
VERTEX
  8
0
 10
8989.55613
 20
1987.81549
 30
0.0
  0
VERTEX
  8
0
 10
9000.0
 20
2000.0
 30
0.0
  0
VERTEX
  8
0
 10
9000.0
 20
2000.0
 30
0.0
  0
SEQEND
  0
POLYLINE
  8
0
 66
1
 10
0.0
 20
0.0
 30
0.0
 70
8
  0
VERTEX
  8
0
 10
10000.0
 20
2000.0
 30
0.0
  0
VERTEX
  8
0
 10
9928.63359
 20
1999.12968
 30
0.0
  0
VERTEX
  8
0
 10
9932.11488
 20
1943.42907
 30
0.0
  0
VERTEX
  8
0
 10
9953.87293
 20
1945.16971
 30
0.0
  0
VERTEX
  8
0
 10
9961.70583
 20
1932.11488
 30
0.0
  0
VERTEX
  8
0
 10
9978.24195
 20
1929.50392
 30
0.0
  0
VERTEX
  8
0
 10
10003.48129
 20
1962.57615
 30
0.0
  0
VERTEX
  8
0
 10
10000.0
 20
2000.0
 30
0.0
  0
VERTEX
  8
0
 10
10000.0
 20
2000.0
 30
0.0
  0
SEQEND
  0
POLYLINE
  8
0
 66
1
 10
0.0
 20
0.0
 30
0.0
 70
8
  0
VERTEX
  8
0
 10
11000.0
 20
2000.0
 30
0.0
  0
VERTEX
  8
0
 10
10998.25935
 20
2040.90514
 30
0.0
  0
VERTEX
  8
0
 10
10948.651
 20
2058.31157
 30
0.0
  0
VERTEX
  8
0
 10
10920.80069
 20
2046.99739
 30
0.0
  0
VERTEX
  8
0
 10
10922.54134
 20
2014.79548
 30
0.0
  0
VERTEX
  8
0
 10
10930.37424
 20
1996.51871
 30
0.0
  0
VERTEX
  8
0
 10
11000.0
 20
2000.0
 30
0.0
  0
VERTEX
  8
0
 10
11000.0
 20
2000.0
 30
0.0
  0
SEQEND
  0
POLYLINE
  8
0
 66
1
 10
0.0
 20
0.0
 30
0.0
 70
8
  0
VERTEX
  8
0
 10
12000.0
 20
2000.0
 30
0.0
  0
VERTEX
  8
0
 10
12004.35161
 20
2034.81288
 30
0.0
  0
VERTEX
  8
0
 10
11968.6684
 20
2036.55352
 30
0.0
  0
VERTEX
  8
0
 10
11957.35422
 20
2023.4987
 30
0.0
  0
VERTEX
  8
0
 10
11969.53873
 20
1992.1671
 30
0.0
  0
VERTEX
  8
0
 10
12000.0
 20
2000.0
 30
0.0
  0
VERTEX
  8
0
 10
12000.0
 20
2000.0
 30
0.0
  0
SEQEND
  0
POLYLINE
  8
0
 66
1
 10
0.0
 20
0.0
 30
0.0
 70
8
  0
VERTEX
  8
0
 10
13000.0
 20
2000.0
 30
0.0
  0
VERTEX
  8
0
 10
13002.61097
 20
2042.64578
 30
0.0
  0
VERTEX
  8
0
 10
12986.94517
 20
2060.05222
 30
0.0
  0
VERTEX
  8
0
 10
12960.83551
 20
2060.92254
 30
0.0
  0
VERTEX
  8
0
 10
12945.16971
 20
2046.99739
 30
0.0
  0
VERTEX
  8
0
 10
12947.78068
 20
2018.27676
 30
0.0
  0
VERTEX
  8
0
 10
12964.31679
 20
1998.25935
 30
0.0
  0
VERTEX
  8
0
 10
13000.0
 20
2000.0
 30
0.0
  0
VERTEX
  8
0
 10
13000.0
 20
2000.0
 30
0.0
  0
SEQEND
  0
POLYLINE
  8
0
 66
1
 10
0.0
 20
0.0
 30
0.0
 70
8
  0
VERTEX
  8
0
 10
14000.0
 20
2000.0
 30
0.0
  0
VERTEX
  8
0
 10
14000.0
 20
2056.57093
 30
0.0
  0
VERTEX
  8
0
 10
14008.70322
 20
2074.84769
 30
0.0
  0
VERTEX
  8
0
 10
14032.20191
 20
2071.36641
 30
0.0
  0
VERTEX
  8
0
 10
14072.23673
 20
2075.71802
 30
0.0
  0
VERTEX
  8
0
 10
14073.10705
 20
2022.62837
 30
0.0
  0
VERTEX
  8
0
 10
14061.79286
 20
1991.29678
 30
0.0
  0
VERTEX
  8
0
 10
14000.0
 20
2000.0
 30
0.0
  0
VERTEX
  8
0
 10
14000.0
 20
2000.0
 30
0.0
  0
SEQEND
  0
POLYLINE
  8
0
 66
1
 10
0.0
 20
0.0
 30
0.0
 70
8
  0
VERTEX
  8
0
 10
15000.0
 20
2000.0
 30
0.0
  0
VERTEX
  8
0
 10
15001.74065
 20
2051.349
 30
0.0
  0
VERTEX
  8
0
 10
15013.92516
 20
2059.1819
 30
0.0
  0
VERTEX
  8
0
 10
15059.1819
 20
2057.44125
 30
0.0
  0
VERTEX
  8
0
 10
15058.31157
 20
2026.97999
 30
0.0
  0
VERTEX
  8
0
 10
15068.75544
 20
2019.14708
 30
0.0
  0
VERTEX
  8
0
 10
15067.01479
 20
1996.51871
 30
0.0
  0
VERTEX
  8
0
 10
15000.0
 20
2000.0
 30
0.0
  0
VERTEX
  8
0
 10
15000.0
 20
2000.0
 30
0.0
  0
SEQEND
  0
POLYLINE
  8
0
 66
1
 10
0.0
 20
0.0
 30
0.0
 70
8
  0
VERTEX
  8
0
 10
16000.0
 20
2000.0
 30
0.0
  0
VERTEX
  8
0
 10
15997.38903
 20
2050.47868
 30
0.0
  0
VERTEX
  8
0
 10
16065.27416
 20
2052.21932
 30
0.0
  0
VERTEX
  8
0
 10
16066.14447
 20
1999.12968
 30
0.0
  0
VERTEX
  8
0
 10
16000.0
 20
2000.0
 30
0.0
  0
VERTEX
  8
0
 10
16000.0
 20
2000.0
 30
0.0
  0
SEQEND
  0
POLYLINE
  8
0
 66
1
 10
0.0
 20
0.0
 30
0.0
 70
8
  0
VERTEX
  8
0
 10
17000.0
 20
2000.0
 30
0.0
  0
VERTEX
  8
0
 10
17057.44125
 20
1997.38903
 30
0.0
  0
VERTEX
  8
0
 10
17068.75544
 20
1990.42646
 30
0.0
  0
VERTEX
  8
0
 10
17059.1819
 20
1931.24456
 30
0.0
  0
VERTEX
  8
0
 10
17028.72063
 20
1912.09748
 30
0.0
  0
VERTEX
  8
0
 10
16996.51871
 20
1919.06005
 30
0.0
  0
VERTEX
  8
0
 10
17000.0
 20
2000.0
 30
0.0
  0
VERTEX
  8
0
 10
17000.0
 20
2000.0
 30
0.0
  0
SEQEND
  0
POLYLINE
  8
0
 66
1
 10
0.0
 20
0.0
 30
0.0
 70
8
  0
VERTEX
  8
0
 10
18000.0
 20
2000.0
 30
0.0
  0
VERTEX
  8
0
 10
18057.44125
 20
1990.42646
 30
0.0
  0
VERTEX
  8
0
 10
18057.44125
 20
2040.03482
 30
0.0
  0
VERTEX
  8
0
 10
18050.47868
 20
2058.31157
 30
0.0
  0
VERTEX
  8
0
 10
18017.40644
 20
2060.05222
 30
0.0
  0
VERTEX
  8
0
 10
18000.0
 20
2040.03482
 30
0.0
  0
VERTEX
  8
0
 10
18000.0
 20
2000.0
 30
0.0
  0
VERTEX
  8
0
 10
18000.0
 20
2000.0
 30
0.0
  0
SEQEND
  0
POLYLINE
  8
0
 66
1
 10
0.0
 20
0.0
 30
0.0
 70
8
  0
VERTEX
  8
0
 10
19000.0
 20
2000.0
 30
0.0
  0
VERTEX
  8
0
 10
18983.46388
 20
1986.07484
 30
0.0
  0
VERTEX
  8
0
 10
18984.3342
 20
1938.20714
 30
0.0
  0
VERTEX
  8
0
 10
19102.698
 20
1926.02263
 30
0.0
  0
VERTEX
  8
0
 10
19122.71541
 20
1927.76327
 30
0.0
  0
VERTEX
  8
0
 10
19119.23412
 20
1965.18712
 30
0.0
  0
VERTEX
  8
0
 10
19100.95735
 20
1992.1671
 30
0.0
  0
VERTEX
  8
0
 10
19056.57093
 20
1993.03743
 30
0.0
  0
VERTEX
  8
0
 10
19000.0
 20
2000.0
 30
0.0
  0
VERTEX
  8
0
 10
19000.0
 20
2000.0
 30
0.0
  0
SEQEND
  0
POLYLINE
  8
0
 66
1
 10
0.0
 20
0.0
 30
0.0
 70
8
  0
VERTEX
  8
0
 10
20000.0
 20
2000.0
 30
0.0
  0
VERTEX
  8
0
 10
19993.90775
 20
2013.92516
 30
0.0
  0
VERTEX
  8
0
 10
19994.77807
 20
2027.8503
 30
0.0
  0
VERTEX
  8
0
 10
20122.71541
 20
2026.10966
 30
0.0
  0
VERTEX
  8
0
 10
20122.71541
 20
2000.0
 30
0.0
  0
VERTEX
  8
0
 10
20000.0
 20
2000.0
 30
0.0
  0
VERTEX
  8
0
 10
20000.0
 20
2000.0
 30
0.0
  0
SEQEND
  0
POLYLINE
  8
0
 66
1
 10
0.0
 20
0.0
 30
0.0
 70
8
  0
VERTEX
  8
0
 10
21000.0
 20
2000.0
 30
0.0
  0
VERTEX
  8
0
 10
21003.48129
 20
2076.58834
 30
0.0
  0
VERTEX
  8
0
 10
21013.92516
 20
2087.90252
 30
0.0
  0
VERTEX
  8
0
 10
21071.36641
 20
2080.06963
 30
0.0
  0
VERTEX
  8
0
 10
21083.55092
 20
2058.31157
 30
0.0
  0
VERTEX
  8
0
 10
21080.93995
 20
1993.90775
 30
0.0
  0
VERTEX
  8
0
 10
21000.0
 20
2000.0
 30
0.0
  0
VERTEX
  8
0
 10
21000.0
 20
2000.0
 30
0.0
  0
SEQEND
  0
POLYLINE
  8
0
 66
1
 10
0.0
 20
0.0
 30
0.0
 70
8
  0
VERTEX
  8
0
 10
22000.0
 20
2000.0
 30
0.0
  0
VERTEX
  8
0
 10
22002.61097
 20
2069.62576
 30
0.0
  0
VERTEX
  8
0
 10
22030.46127
 20
2079.19931
 30
0.0
  0
VERTEX
  8
0
 10
22090.51349
 20
2076.58834
 30
0.0
  0
VERTEX
  8
0
 10
22089.64317
 20
1999.12968
 30
0.0
  0
VERTEX
  8
0
 10
22000.0
 20
2000.0
 30
0.0
  0
VERTEX
  8
0
 10
22000.0
 20
2000.0
 30
0.0
  0
SEQEND
  0
POLYLINE
  8
0
 66
1
 10
0.0
 20
0.0
 30
0.0
 70
8
  0
VERTEX
  8
0
 10
23000.0
 20
2000.0
 30
0.0
  0
VERTEX
  8
0
 10
22999.12968
 20
2032.20191
 30
0.0
  0
VERTEX
  8
0
 10
23016.53612
 20
2049.60835
 30
0.0
  0
VERTEX
  8
0
 10
23117.49348
 20
2049.60835
 30
0.0
  0
VERTEX
  8
0
 10
23120.10444
 20
1998.25935
 30
0.0
  0
VERTEX
  8
0
 10
23000.0
 20
2000.0
 30
0.0
  0
VERTEX
  8
0
 10
23000.0
 20
2000.0
 30
0.0
  0
SEQEND
  0
POLYLINE
  8
0
 66
1
 10
0.0
 20
0.0
 30
0.0
 70
8
  0
VERTEX
  8
0
 10
24000.0
 20
2000.0
 30
0.0
  0
VERTEX
  8
0
 10
24001.74065
 20
2031.3316
 30
0.0
  0
VERTEX
  8
0
 10
24011.31419
 20
2041.77546
 30
0.0
  0
VERTEX
  8
0
 10
24020.0174
 20
2028.72063
 30
0.0
  0
VERTEX
  8
0
 10
24033.07224
 20
2039.1644900000001
 30
0.0
  0
VERTEX
  8
0
 10
24040.90514
 20
1997.38903
 30
0.0
  0
VERTEX
  8
0
 10
24000.0
 20
2000.0
 30
0.0
  0
VERTEX
  8
0
 10
24000.0
 20
2000.0
 30
0.0
  0
SEQEND
  0
POLYLINE
  8
0
 66
1
 10
0.0
 20
0.0
 30
0.0
 70
8
  0
VERTEX
  8
0
 10
25000.0
 20
2000.0
 30
0.0
  0
VERTEX
  8
0
 10
25046.99739
 20
1993.90775
 30
0.0
  0
VERTEX
  8
0
 10
25055.70061
 20
2025.23934
 30
0.0
  0
VERTEX
  8
0
 10
25047.86771
 20
2034.81288
 30
0.0
  0
VERTEX
  8
0
 10
25034.81288
 20
2036.55352
 30
0.0
  0
VERTEX
  8
0
 10
25023.4987
 20
2044.38643
 30
0.0
  0
VERTEX
  8
0
 10
25004.35161
 20
2039.1644900000001
 30
0.0
  0
VERTEX
  8
0
 10
25000.0
 20
2000.0
 30
0.0
  0
VERTEX
  8
0
 10
25000.0
 20
2000.0
 30
0.0
  0
SEQEND
  0
POLYLINE
  8
0
 66
1
 10
0.0
 20
0.0
 30
0.0
 70
8
  0
VERTEX
  8
0
 10
26000.0
 20
2000.0
 30
0.0
  0
VERTEX
  8
0
 10
25998.25935
 20
2029.59095
 30
0.0
  0
VERTEX
  8
0
 10
26020.0174
 20
2036.55352
 30
0.0
  0
VERTEX
  8
0
 10
26027.8503
 20
2033.07224
 30
0.0
  0
VERTEX
  8
0
 10
26027.8503
 20
1998.25935
 30
0.0
  0
VERTEX
  8
0
 10
26000.0
 20
2000.0
 30
0.0
  0
VERTEX
  8
0
 10
26000.0
 20
2000.0
 30
0.0
  0
SEQEND
  0
POLYLINE
  8
0
 66
1
 10
0.0
 20
0.0
 30
0.0
 70
8
  0
VERTEX
  8
0
 10
27000.0
 20
2000.0
 30
0.0
  0
VERTEX
  8
0
 10
27000.0
 20
2014.79548
 30
0.0
  0
VERTEX
  8
0
 10
27006.96257
 20
2052.21932
 30
0.0
  0
VERTEX
  8
0
 10
27000.0
 20
2094.8651
 30
0.0
  0
VERTEX
  8
0
 10
26926.89295
 20
2095.73543
 30
0.0
  0
VERTEX
  8
0
 10
26900.78329
 20
2080.06963
 30
0.0
  0
VERTEX
  8
0
 10
26899.04265
 20
2033.94256
 30
0.0
  0
VERTEX
  8
0
 10
26908.61619
 20
2014.79548
 30
0.0
  0
VERTEX
  8
0
 10
26908.61619
 20
1998.25935
 30
0.0
  0
VERTEX
  8
0
 10
27000.0
 20
2000.0
 30
0.0
  0
VERTEX
  8
0
 10
27000.0
 20
2000.0
 30
0.0
  0
SEQEND
  0
POLYLINE
  8
0
 66
1
 10
0.0
 20
0.0
 30
0.0
 70
8
  0
VERTEX
  8
0
 10
28000.0
 20
2000.0
 30
0.0
  0
VERTEX
  8
0
 10
27995.64839
 20
2026.10966
 30
0.0
  0
VERTEX
  8
0
 10
28045.25675
 20
2024.36901
 30
0.0
  0
VERTEX
  8
0
 10
28050.47868
 20
2020.0174
 30
0.0
  0
VERTEX
  8
0
 10
28049.60835
 20
2001.74065
 30
0.0
  0
VERTEX
  8
0
 10
28044.38643
 20
1979.9826
 30
0.0
  0
VERTEX
  8
0
 10
28000.0
 20
2000.0
 30
0.0
  0
VERTEX
  8
0
 10
28000.0
 20
2000.0
 30
0.0
  0
SEQEND
  0
POLYLINE
  8
0
 66
1
 10
0.0
 20
0.0
 30
0.0
 70
8
  0
VERTEX
  8
0
 10
29000.0
 20
2000.0
 30
0.0
  0
VERTEX
  8
0
 10
29006.96257
 20
2046.99739
 30
0.0
  0
VERTEX
  8
0
 10
29049.60835
 20
2053.08965
 30
0.0
  0
VERTEX
  8
0
 10
29047.86771
 20
2011.31419
 30
0.0
  0
VERTEX
  8
0
 10
29033.07224
 20
2010.44387
 30
0.0
  0
VERTEX
  8
0
 10
29018.27676
 20
1994.77807
 30
0.0
  0
VERTEX
  8
0
 10
29000.0
 20
2000.0
 30
0.0
  0
VERTEX
  8
0
 10
29000.0
 20
2000.0
 30
0.0
  0
SEQEND
  0
POLYLINE
  8
0
 66
1
 10
0.0
 20
0.0
 30
0.0
 70
8
  0
VERTEX
  8
0
 10
30000.0
 20
2000.0
 30
0.0
  0
VERTEX
  8
0
 10
30031.3316
 20
1993.90775
 30
0.0
  0
VERTEX
  8
0
 10
30041.77546
 20
2003.48129
 30
0.0
  0
VERTEX
  8
0
 10
30039.16449
 20
2075.71802
 30
0.0
  0
VERTEX
  8
0
 10
30012.18451
 20
2082.68059
 30
0.0
  0
VERTEX
  8
0
 10
30003.48129
 20
2069.62576
 30
0.0
  0
VERTEX
  8
0
 10
30000.0
 20
2000.0
 30
0.0
  0
VERTEX
  8
0
 10
30000.0
 20
2000.0
 30
0.0
  0
SEQEND
  0
POLYLINE
  8
0
 66
1
 10
0.0
 20
0.0
 30
0.0
 70
8
  0
VERTEX
  8
0
 10
31000.0
 20
2000.0
 30
0.0
  0
VERTEX
  8
0
 10
31032.20191
 20
2002.61097
 30
0.0
  0
VERTEX
  8
0
 10
31034.81288
 20
2018.27676
 30
0.0
  0
VERTEX
  8
0
 10
31040.03482
 20
2024.36901
 30
0.0
  0
VERTEX
  8
0
 10
31039.16449
 20
2046.12707
 30
0.0
  0
VERTEX
  8
0
 10
31029.59095
 20
2067.01479
 30
0.0
  0
VERTEX
  8
0
 10
31000.87032
 20
2064.40383
 30
0.0
  0
VERTEX
  8
0
 10
31000.0
 20
2000.0
 30
0.0
  0
VERTEX
  8
0
 10
31000.0
 20
2000.0
 30
0.0
  0
SEQEND
  0
POLYLINE
  8
0
 66
1
 10
0.0
 20
0.0
 30
0.0
 70
8
  0
VERTEX
  8
0
 10
32000.0
 20
2000.0
 30
0.0
  0
VERTEX
  8
0
 10
32033.07224
 20
2003.48129
 30
0.0
  0
VERTEX
  8
0
 10
32034.81288
 20
2137.51088
 30
0.0
  0
VERTEX
  8
0
 10
32053.08965
 20
2139.25152
 30
0.0
  0
VERTEX
  8
0
 10
32055.70061
 20
2150.56571
 30
0.0
  0
VERTEX
  8
0
 10
32041.77546
 20
2155.78765
 30
0.0
  0
VERTEX
  8
0
 10
32026.97999
 20
2156.65797
 30
0.0
  0
VERTEX
  8
0
 10
32011.31419
 20
2129.67799
 30
0.0
  0
VERTEX
  8
0
 10
32006.96257
 20
2088.77285
 30
0.0
  0
VERTEX
  8
0
 10
31996.51871
 20
2073.10705
 30
0.0
  0
VERTEX
  8
0
 10
32000.0
 20
2000.0
 30
0.0
  0
VERTEX
  8
0
 10
32000.0
 20
2000.0
 30
0.0
  0
SEQEND
  0
POLYLINE
  8
0
 66
1
 10
0.0
 20
0.0
 30
0.0
 70
8
  0
VERTEX
  8
0
 10
33000.0
 20
2000.0
 30
0.0
  0
VERTEX
  8
0
 10
33002.32028
 20
2100.95735
 30
0.0
  0
VERTEX
  8
0
 10
32961.70583
 20
2098.63708
 30
0.0
  0
VERTEX
  8
0
 10
32960.54482
 20
2091.6745
 30
0.0
  0
VERTEX
  8
0
 10
32939.65709
 20
2091.6745
 30
0.0
  0
VERTEX
  8
0
 10
32939.65709
 20
2077.74935
 30
0.0
  0
VERTEX
  8
0
 10
32923.41166
 20
2073.10705
 30
0.0
  0
VERTEX
  8
0
 10
32914.1288
 20
2064.98347
 30
0.0
  0
VERTEX
  8
0
 10
32916.44908
 20
2009.28285
 30
0.0
  0
VERTEX
  8
0
 10
32936.1758
 20
2000.0
 30
0.0
  0
VERTEX
  8
0
 10
33000.0
 20
2000.0
 30
0.0
  0
VERTEX
  8
0
 10
33000.0
 20
2000.0
 30
0.0
  0
SEQEND
  0
POLYLINE
  8
0
 66
1
 10
0.0
 20
0.0
 30
0.0
 70
8
  0
VERTEX
  8
0
 10
34000.0
 20
2000.0
 30
0.0
  0
VERTEX
  8
0
 10
34026.68929
 20
1988.39687
 30
0.0
  0
VERTEX
  8
0
 10
34054.5396
 20
1976.792
 30
0.0
  0
VERTEX
  8
0
 10
34095.15405
 20
1983.75457
 30
0.0
  0
VERTEX
  8
0
 10
34109.0792
 20
2002.32202
 30
0.0
  0
VERTEX
  8
0
 10
34112.56049
 20
2048.73804
 30
0.0
  0
VERTEX
  8
0
 10
34098.63534
 20
2062.66318
 30
0.0
  0
VERTEX
  8
0
 10
34084.71018
 20
2062.66318
 30
0.0
  0
VERTEX
  8
0
 10
34073.10705
 20
2055.70061
 30
0.0
  0
VERTEX
  8
0
 10
34051.05831
 20
2058.02263
 30
0.0
  0
VERTEX
  8
0
 10
34029.00958
 20
2068.46649
 30
0.0
  0
VERTEX
  8
0
 10
33997.67798
 20
2054.54134
 30
0.0
  0
VERTEX
  8
0
 10
34000.0
 20
2000.0
 30
0.0
  0
VERTEX
  8
0
 10
34000.0
 20
2000.0
 30
0.0
  0
SEQEND
  0
POLYLINE
  8
0
 66
1
 10
0.0
 20
0.0
 30
0.0
 70
8
  0
VERTEX
  8
0
 10
35000.0
 20
2000.0
 30
0.0
  0
VERTEX
  8
0
 10
35008.12184
 20
2074.26806
 30
0.0
  0
VERTEX
  8
0
 10
35012.76415
 20
2100.95735
 30
0.0
  0
VERTEX
  8
0
 10
34995.3577
 20
2110.24021
 30
0.0
  0
VERTEX
  8
0
 10
34960.54482
 20
2107.91993
 30
0.0
  0
VERTEX
  8
0
 10
34916.44908
 20
2076.58834
 30
0.0
  0
VERTEX
  8
0
 10
34918.76936
 20
2012.76415
 30
0.0
  0
VERTEX
  8
0
 10
34976.79025
 20
1995.3577
 30
0.0
  0
VERTEX
  8
0
 10
35000.0
 20
2000.0
 30
0.0
  0
VERTEX
  8
0
 10
35000.0
 20
2000.0
 30
0.0
  0
SEQEND
  0
POLYLINE
  8
0
 66
1
 10
0.0
 20
0.0
 30
0.0
 70
8
  0
VERTEX
  8
0
 10
36000.0
 20
2000.0
 30
0.0
  0
VERTEX
  8
0
 10
36044.09573
 20
1993.6188
 30
0.0
  0
VERTEX
  8
0
 10
36076.58834
 20
2029.59095
 30
0.0
  0
VERTEX
  8
0
 10
36058.02089
 20
2055.12098
 30
0.0
  0
VERTEX
  8
0
 10
36048.73804
 20
2079.49
 30
0.0
  0
VERTEX
  8
0
 10
35885.11749
 20
2073.68843
 30
0.0
  0
VERTEX
  8
0
 10
35888.59878
 20
1992.45779
 30
0.0
  0
VERTEX
  8
0
 10
36000.0
 20
2000.0
 30
0.0
  0
VERTEX
  8
0
 10
36000.0
 20
2000.0
 30
0.0
  0
SEQEND
  0
POLYLINE
  8
0
 66
1
 10
0.0
 20
0.0
 30
0.0
 70
8
  0
VERTEX
  8
0
 10
37000.0
 20
2000.0
 30
0.0
  0
VERTEX
  8
0
 10
37001.15927
 20
2034.81288
 30
0.0
  0
VERTEX
  8
0
 10
37060.34116
 20
2041.77546
 30
0.0
  0
VERTEX
  8
0
 10
37069.62576
 20
2025.52828
 30
0.0
  0
VERTEX
  8
0
 10
37097.47607
 20
2018.56571
 30
0.0
  0
VERTEX
  8
0
 10
37089.35248
 20
2005.80156
 30
0.0
  0
VERTEX
  8
0
 10
37000.0
 20
2000.0
 30
0.0
  0
VERTEX
  8
0
 10
37000.0
 20
2000.0
 30
0.0
  0
SEQEND
  0
POLYLINE
  8
0
 66
1
 10
0.0
 20
0.0
 30
0.0
 70
8
  0
VERTEX
  8
0
 10
38000.0
 20
2000.0
 30
0.0
  0
VERTEX
  8
0
 10
38004.6423
 20
2066.14447
 30
0.0
  0
VERTEX
  8
0
 10
37924.57267
 20
2071.94604
 30
0.0
  0
VERTEX
  8
0
 10
37918.76936
 20
2061.50218
 30
0.0
  0
VERTEX
  8
0
 10
37921.09139
 20
2027.8503
 30
0.0
  0
VERTEX
  8
0
 10
37940.8181
 20
2025.52828
 30
0.0
  0
VERTEX
  8
0
 10
37944.29939
 20
2000.0
 30
0.0
  0
VERTEX
  8
0
 10
38000.0
 20
2000.0
 30
0.0
  0
VERTEX
  8
0
 10
38000.0
 20
2000.0
 30
0.0
  0
SEQEND
  0
POLYLINE
  8
0
 66
1
 10
0.0
 20
0.0
 30
0.0
 70
8
  0
VERTEX
  8
0
 10
39000.0
 20
2000.0
 30
0.0
  0
VERTEX
  8
0
 10
38995.35944
 20
2098.63534
 30
0.0
  0
VERTEX
  8
0
 10
38912.96779
 20
2100.95735
 30
0.0
  0
VERTEX
  8
0
 10
38907.16623
 20
2080.06963
 30
0.0
  0
VERTEX
  8
0
 10
38928.05396
 20
2069.62576
 30
0.0
  0
VERTEX
  8
0
 10
38928.05396
 20
2053.37859
 30
0.0
  0
VERTEX
  8
0
 10
38917.6101
 20
2038.29417
 30
0.0
  0
VERTEX
  8
0
 10
38922.25239
 20
2009.28285
 30
0.0
  0
VERTEX
  8
0
 10
38918.77111
 20
1984.91384
 30
0.0
  0
VERTEX
  8
0
 10
38980.27328
 20
1988.39513
 30
0.0
  0
VERTEX
  8
0
 10
39000.0
 20
2000.0
 30
0.0
  0
VERTEX
  8
0
 10
39000.0
 20
2000.0
 30
0.0
  0
SEQEND
  0
POLYLINE
  8
0
 66
1
 10
0.0
 20
0.0
 30
0.0
 70
8
  0
VERTEX
  8
0
 10
40000.0
 20
2000.0
 30
0.0
  0
VERTEX
  8
0
 10
39940.8181
 20
1998.84073
 30
0.0
  0
VERTEX
  8
0
 10
39932.69451
 20
1915.28982
 30
0.0
  0
VERTEX
  8
0
 10
39988.39513
 20
1915.28982
 30
0.0
  0
VERTEX
  8
0
 10
40001.15927
 20
1938.49782
 30
0.0
  0
VERTEX
  8
0
 10
40000.0
 20
2000.0
 30
0.0
  0
VERTEX
  8
0
 10
40000.0
 20
2000.0
 30
0.0
  0
SEQEND
  0
POLYLINE
  8
0
 66
1
 10
0.0
 20
0.0
 30
0.0
 70
8
  0
VERTEX
  8
0
 10
41000.0
 20
2000.0
 30
0.0
  0
VERTEX
  8
0
 10
41081.22889
 20
2002.32028
 30
0.0
  0
VERTEX
  8
0
 10
41088.19147
 20
2073.10705
 30
0.0
  0
VERTEX
  8
0
 10
41008.12184
 20
2080.06963
 30
0.0
  0
VERTEX
  8
0
 10
40996.51871
 20
2073.10705
 30
0.0
  0
VERTEX
  8
0
 10
41000.0
 20
2000.0
 30
0.0
  0
VERTEX
  8
0
 10
41000.0
 20
2000.0
 30
0.0
  0
SEQEND
  0
POLYLINE
  8
0
 66
1
 10
0.0
 20
0.0
 30
0.0
 70
8
  0
VERTEX
  8
0
 10
42000.0
 20
2000.0
 30
0.0
  0
VERTEX
  8
0
 10
42002.32028
 20
2006.96257
 30
0.0
  0
VERTEX
  8
0
 10
42004.64056
 20
2041.77546
 30
0.0
  0
VERTEX
  8
0
 10
41987.23412
 20
2041.77546
 30
0.0
  0
VERTEX
  8
0
 10
41974.46998
 20
2032.49261
 30
0.0
  0
VERTEX
  8
0
 10
41951.26196
 20
2032.49261
 30
0.0
  0
VERTEX
  8
0
 10
41951.26196
 20
1997.67972
 30
0.0
  0
VERTEX
  8
0
 10
42000.0
 20
2000.0
 30
0.0
  0
VERTEX
  8
0
 10
42000.0
 20
2000.0
 30
0.0
  0
SEQEND
  0
POLYLINE
  8
0
 66
1
 10
0.0
 20
0.0
 30
0.0
 70
8
  0
VERTEX
  8
0
 10
43000.0
 20
2000.0
 30
0.0
  0
VERTEX
  8
0
 10
42995.35944
 20
2042.93647
 30
0.0
  0
VERTEX
  8
0
 10
42953.58398
 20
2042.93647
 30
0.0
  0
VERTEX
  8
0
 10
42952.42298
 20
2005.80156
 30
0.0
  0
VERTEX
  8
0
 10
43000.0
 20
2000.0
 30
0.0
  0
VERTEX
  8
0
 10
43000.0
 20
2000.0
 30
0.0
  0
SEQEND
  0
POLYLINE
  8
0
 66
1
 10
0.0
 20
0.0
 30
0.0
 70
8
  0
VERTEX
  8
0
 10
44000.0
 20
2000.0
 30
0.0
  0
VERTEX
  8
0
 10
43998.84073
 20
2042.93647
 30
0.0
  0
VERTEX
  8
0
 10
44025.53002
 20
2042.93647
 30
0.0
  0
VERTEX
  8
0
 10
44031.3316
 20
2034.81288
 30
0.0
  0
VERTEX
  8
0
 10
44031.3316
 20
2008.12358
 30
0.0
  0
VERTEX
  8
0
 10
44018.56745
 20
1996.51871
 30
0.0
  0
VERTEX
  8
0
 10
44000.0
 20
2000.0
 30
0.0
  0
VERTEX
  8
0
 10
44000.0
 20
2000.0
 30
0.0
  0
SEQEND
  0
POLYLINE
  8
0
 66
1
 10
0.0
 20
0.0
 30
0.0
 70
8
  0
VERTEX
  8
0
 10
45000.0
 20
2000.0
 30
0.0
  0
VERTEX
  8
0
 10
44997.67972
 20
2030.17059
 30
0.0
  0
VERTEX
  8
0
 10
45000.0
 20
2044.09573
 30
0.0
  0
VERTEX
  8
0
 10
45026.68929
 20
2042.93647
 30
0.0
  0
VERTEX
  8
0
 10
45030.17059
 20
2003.48129
 30
0.0
  0
VERTEX
  8
0
 10
45000.0
 20
2000.0
 30
0.0
  0
VERTEX
  8
0
 10
45000.0
 20
2000.0
 30
0.0
  0
SEQEND
  0
POLYLINE
  8
0
 66
1
 10
0.0
 20
0.0
 30
0.0
 70
8
  0
VERTEX
  8
0
 10
46000.0
 20
2000.0
 30
0.0
  0
VERTEX
  8
0
 10
45989.55613
 20
2010.44387
 30
0.0
  0
VERTEX
  8
0
 10
45997.67972
 20
2027.8503
 30
0.0
  0
VERTEX
  8
0
 10
46045.25675
 20
2026.68929
 30
0.0
  0
VERTEX
  8
0
 10
46056.86162
 20
2005.80156
 30
0.0
  0
VERTEX
  8
0
 10
46045.25675
 20
2001.16101
 30
0.0
  0
VERTEX
  8
0
 10
46000.0
 20
2000.0
 30
0.0
  0
VERTEX
  8
0
 10
46000.0
 20
2000.0
 30
0.0
  0
SEQEND
  0
POLYLINE
  8
0
 66
1
 10
0.0
 20
0.0
 30
0.0
 70
8
  0
VERTEX
  8
0
 10
47000.0
 20
2000.0
 30
0.0
  0
VERTEX
  8
0
 10
46997.67972
 20
2044.09573
 30
0.0
  0
VERTEX
  8
0
 10
47035.97389
 20
2051.05831
 30
0.0
  0
VERTEX
  8
0
 10
47055.70061
 20
2039.45344
 30
0.0
  0
VERTEX
  8
0
 10
47059.1819
 20
2016.24543
 30
0.0
  0
VERTEX
  8
0
 10
47041.77546
 20
2002.32028
 30
0.0
  0
VERTEX
  8
0
 10
47000.0
 20
2000.0
 30
0.0
  0
VERTEX
  8
0
 10
47000.0
 20
2000.0
 30
0.0
  0
SEQEND
  0
POLYLINE
  8
0
 66
1
 10
0.0
 20
0.0
 30
0.0
 70
8
  0
VERTEX
  8
0
 10
48000.0
 20
2000.0
 30
0.0
  0
VERTEX
  8
0
 10
47990.71541
 20
2034.81288
 30
0.0
  0
VERTEX
  8
0
 10
48015.08442
 20
2044.09747
 30
0.0
  0
VERTEX
  8
0
 10
48042.93473
 20
2034.81288
 30
0.0
  0
VERTEX
  8
0
 10
48051.05831
 20
2003.48129
 30
0.0
  0
VERTEX
  8
0
 10
48039.45344
 20
2003.48129
 30
0.0
  0
VERTEX
  8
0
 10
48000.0
 20
2000.0
 30
0.0
  0
VERTEX
  8
0
 10
48000.0
 20
2000.0
 30
0.0
  0
SEQEND
  0
POLYLINE
  8
0
 66
1
 10
0.0
 20
0.0
 30
0.0
 70
8
  0
VERTEX
  8
0
 10
0.0
 20
2000.0
 30
0.0
  0
VERTEX
  8
0
 10
8.12184
 20
2053.38033
 30
0.0
  0
VERTEX
  8
0
 10
5.80156
 20
2118.36379
 30
0.0
  0
VERTEX
  8
0
 10
30.17059
 20
2142.73281
 30
0.0
  0
VERTEX
  8
0
 10
62.66318
 20
2140.41253
 30
0.0
  0
VERTEX
  8
0
 10
62.66318
 20
2062.66318
 30
0.0
  0
VERTEX
  8
0
 10
73.10705
 20
2017.40644
 30
0.0
  0
VERTEX
  8
0
 10
60.34116
 20
2016.24543
 30
0.0
  0
VERTEX
  8
0
 10
52.219319999999996
 20
1988.39513
 30
0.0
  0
VERTEX
  8
0
 10
0.0
 20
2000.0
 30
0.0
  0
VERTEX
  8
0
 10
0.0
 20
2000.0
 30
0.0
  0
SEQEND
  0
POLYLINE
  8
0
 66
1
 10
0.0
 20
0.0
 30
0.0
 70
8
  0
VERTEX
  8
0
 10
1000.0
 20
3000.0
 30
0.0
  0
VERTEX
  8
0
 10
997.67972
 20
3069.62576
 30
0.0
  0
VERTEX
  8
0
 10
1041.77546
 20
3041.77546
 30
0.0
  0
VERTEX
  8
0
 10
1044.09573
 20
2996.51871
 30
0.0
  0
VERTEX
  8
0
 10
1000.0
 20
3000.0
 30
0.0
  0
VERTEX
  8
0
 10
1000.0
 20
3000.0
 30
0.0
  0
SEQEND
  0
POLYLINE
  8
0
 66
1
 10
0.0
 20
0.0
 30
0.0
 70
8
  0
VERTEX
  8
0
 10
2000.0
 20
3000.0
 30
0.0
  0
VERTEX
  8
0
 10
1997.67798
 20
3022.04874
 30
0.0
  0
VERTEX
  8
0
 10
1912.96779
 20
3022.04874
 30
0.0
  0
VERTEX
  8
0
 10
1915.28807
 20
2994.19844
 30
0.0
  0
VERTEX
  8
0
 10
2000.0
 20
3000.0
 30
0.0
  0
VERTEX
  8
0
 10
2000.0
 20
3000.0
 30
0.0
  0
SEQEND
  0
POLYLINE
  8
0
 66
1
 10
0.0
 20
0.0
 30
0.0
 70
8
  0
VERTEX
  8
0
 10
3000.0
 20
3000.0
 30
0.0
  0
VERTEX
  8
0
 10
2981.43255
 20
3022.04874
 30
0.0
  0
VERTEX
  8
0
 10
2983.75283
 20
3071.94604
 30
0.0
  0
VERTEX
  8
0
 10
2998.83899
 20
3083.55092
 30
0.0
  0
VERTEX
  8
0
 10
3067.30374
 20
3071.94604
 30
0.0
  0
VERTEX
  8
0
 10
3146.2141
 20
3078.90861
 30
0.0
  0
VERTEX
  8
0
 10
3162.45953
 20
3041.77546
 30
0.0
  0
VERTEX
  8
0
 10
3128.80766
 20
3005.80156
 30
0.0
  0
VERTEX
  8
0
 10
3093.99478
 20
2990.71715
 30
0.0
  0
VERTEX
  8
0
 10
3000.0
 20
3000.0
 30
0.0
  0
VERTEX
  8
0
 10
3000.0
 20
3000.0
 30
0.0
  0
SEQEND
  0
POLYLINE
  8
0
 66
1
 10
0.0
 20
0.0
 30
0.0
 70
8
  0
VERTEX
  8
0
 10
4000.0
 20
3000.0
 30
0.0
  0
VERTEX
  8
0
 10
3998.84073
 20
3048.73804
 30
0.0
  0
VERTEX
  8
0
 10
3914.1288
 20
3054.5396
 30
0.0
  0
VERTEX
  8
0
 10
3888.59878
 20
3076.58834
 30
0.0
  0
VERTEX
  8
0
 10
3878.15492
 20
3073.10705
 30
0.0
  0
VERTEX
  8
0
 10
3878.15492
 20
2991.87642
 30
0.0
  0
VERTEX
  8
0
 10
3945.4604
 20
2993.03743
 30
0.0
  0
VERTEX
  8
0
 10
4000.0
 20
3000.0
 30
0.0
  0
VERTEX
  8
0
 10
4000.0
 20
3000.0
 30
0.0
  0
SEQEND
  0
POLYLINE
  8
0
 66
1
 10
0.0
 20
0.0
 30
0.0
 70
8
  0
VERTEX
  8
0
 10
5000.0
 20
3000.0
 30
0.0
  0
VERTEX
  8
0
 10
5002.32028
 20
3075.42907
 30
0.0
  0
VERTEX
  8
0
 10
4987.23412
 20
3106.76066
 30
0.0
  0
VERTEX
  8
0
 10
4945.45866
 20
3106.76066
 30
0.0
  0
VERTEX
  8
0
 10
4940.8181
 20
2980.27328
 30
0.0
  0
VERTEX
  8
0
 10
5000.0
 20
3000.0
 30
0.0
  0
VERTEX
  8
0
 10
5000.0
 20
3000.0
 30
0.0
  0
SEQEND
  0
POLYLINE
  8
0
 66
1
 10
0.0
 20
0.0
 30
0.0
 70
8
  0
VERTEX
  8
0
 10
6000.0
 20
3000.0
 30
0.0
  0
VERTEX
  8
0
 10
6000.0
 20
3018.56745
 30
0.0
  0
VERTEX
  8
0
 10
5983.75457
 20
3016.24717
 30
0.0
  0
VERTEX
  8
0
 10
5986.07484
 20
2997.67972
 30
0.0
  0
VERTEX
  8
0
 10
6000.0
 20
3000.0
 30
0.0
  0
VERTEX
  8
0
 10
6000.0
 20
3000.0
 30
0.0
  0
SEQEND
  0
POLYLINE
  8
0
 66
1
 10
0.0
 20
0.0
 30
0.0
 70
8
  0
VERTEX
  8
0
 10
7000.0
 20
3000.0
 30
0.0
  0
VERTEX
  8
0
 10
6999.42036
 20
3036.55352
 30
0.0
  0
VERTEX
  8
0
 10
6972.1497
 20
3035.39252
 30
0.0
  0
VERTEX
  8
0
 10
6972.72933
 20
2998.25935
 30
0.0
  0
VERTEX
  8
0
 10
7000.0
 20
3000.0
 30
0.0
  0
VERTEX
  8
0
 10
7000.0
 20
3000.0
 30
0.0
  0
SEQEND
  0
POLYLINE
  8
0
 66
1
 10
0.0
 20
0.0
 30
0.0
 70
8
  0
VERTEX
  8
0
 10
8000.0
 20
3000.0
 30
0.0
  0
VERTEX
  8
0
 10
8000.57964
 20
3049.89731
 30
0.0
  0
VERTEX
  8
0
 10
8078.90861
 20
3052.21932
 30
0.0
  0
VERTEX
  8
0
 10
8129.96867
 20
3025.52828
 30
0.0
  0
VERTEX
  8
0
 10
8119.52481
 20
2988.39513
 30
0.0
  0
VERTEX
  8
0
 10
8078.90861
 20
3000.0
 30
0.0
  0
VERTEX
  8
0
 10
8000.0
 20
3000.0
 30
0.0
  0
VERTEX
  8
0
 10
8000.0
 20
3000.0
 30
0.0
  0
SEQEND
  0
POLYLINE
  8
0
 66
1
 10
0.0
 20
0.0
 30
0.0
 70
8
  0
VERTEX
  8
0
 10
9000.0
 20
3000.0
 30
0.0
  0
VERTEX
  8
0
 10
9005.80156
 20
2986.07484
 30
0.0
  0
VERTEX
  8
0
 10
9033.65187
 20
3000.0
 30
0.0
  0
VERTEX
  8
0
 10
9082.3899
 20
3002.32028
 30
0.0
  0
VERTEX
  8
0
 10
9071.94604
 20
3013.92516
 30
0.0
  0
VERTEX
  8
0
 10
9051.05831
 20
3026.68929
 30
0.0
  0
VERTEX
  8
0
 10
9048.73804
 20
3049.89731
 30
0.0
  0
VERTEX
  8
0
 10
8997.67798
 20
3039.4534400000002
 30
0.0
  0
VERTEX
  8
0
 10
9000.0
 20
3000.0
 30
0.0
  0
VERTEX
  8
0
 10
9000.0
 20
3000.0
 30
0.0
  0
SEQEND
  0
POLYLINE
  8
0
 66
1
 10
0.0
 20
0.0
 30
0.0
 70
8
  0
VERTEX
  8
0
 10
10000.0
 20
3000.0
 30
0.0
  0
VERTEX
  8
0
 10
10000.0
 20
3042.93647
 30
0.0
  0
VERTEX
  8
0
 10
9944.29939
 20
3042.93647
 30
0.0
  0
VERTEX
  8
0
 10
9948.93994
 20
3002.32202
 30
0.0
  0
VERTEX
  8
0
 10
10000.0
 20
3000.0
 30
0.0
  0
VERTEX
  8
0
 10
10000.0
 20
3000.0
 30
0.0
  0
SEQEND
  0
POLYLINE
  8
0
 66
1
 10
0.0
 20
0.0
 30
0.0
 70
8
  0
VERTEX
  8
0
 10
11000.0
 20
3000.0
 30
0.0
  0
VERTEX
  8
0
 10
11000.58138
 20
3061.50218
 30
0.0
  0
VERTEX
  8
0
 10
10956.4839
 20
3062.66318
 30
0.0
  0
VERTEX
  8
0
 10
10951.84334
 20
3017.40644
 30
0.0
  0
VERTEX
  8
0
 10
10975.05135
 20
3017.40644
 30
0.0
  0
VERTEX
  8
0
 10
10973.89034
 20
3000.0
 30
0.0
  0
VERTEX
  8
0
 10
11000.0
 20
3000.0
 30
0.0
  0
VERTEX
  8
0
 10
11000.0
 20
3000.0
 30
0.0
  0
SEQEND
  0
POLYLINE
  8
0
 66
1
 10
0.0
 20
0.0
 30
0.0
 70
8
  0
VERTEX
  8
0
 10
12000.0
 20
3000.0
 30
0.0
  0
VERTEX
  8
0
 10
12005.8033
 20
3032.49261
 30
0.0
  0
VERTEX
  8
0
 10
12063.8242
 20
3034.81288
 30
0.0
  0
VERTEX
  8
0
 10
12064.9852
 20
3008.12358
 30
0.0
  0
VERTEX
  8
0
 10
12048.73804
 20
2976.792
 30
0.0
  0
VERTEX
  8
0
 10
12006.96257
 20
2987.23585
 30
0.0
  0
VERTEX
  8
0
 10
12000.0
 20
3000.0
 30
0.0
  0
VERTEX
  8
0
 10
12000.0
 20
3000.0
 30
0.0
  0
SEQEND
  0
POLYLINE
  8
0
 66
1
 10
0.0
 20
0.0
 30
0.0
 70
8
  0
VERTEX
  8
0
 10
13000.0
 20
3000.0
 30
0.0
  0
VERTEX
  8
0
 10
13021.46736
 20
3027.8503
 30
0.0
  0
VERTEX
  8
0
 10
13040.03482
 20
3024.36901
 30
0.0
  0
VERTEX
  8
0
 10
13043.5161
 20
3013.92516
 30
0.0
  0
VERTEX
  8
0
 10
13041.19408
 20
2939.65709
 30
0.0
  0
VERTEX
  8
0
 10
13026.10966
 20
2921.08964
 30
0.0
  0
VERTEX
  8
0
 10
13019.14708
 20
2919.93037
 30
0.0
  0
VERTEX
  8
0
 10
13016.82506
 20
2938.49609
 30
0.0
  0
VERTEX
  8
0
 10
13000.57964
 20
2952.42123
 30
0.0
  0
VERTEX
  8
0
 10
13000.0
 20
3000.0
 30
0.0
  0
VERTEX
  8
0
 10
13000.0
 20
3000.0
 30
0.0
  0
SEQEND
  0
POLYLINE
  8
0
 66
1
 10
0.0
 20
0.0
 30
0.0
 70
8
  0
VERTEX
  8
0
 10
14000.0
 20
3000.0
 30
0.0
  0
VERTEX
  8
0
 10
13998.83899
 20
2951.26196
 30
0.0
  0
VERTEX
  8
0
 10
14035.97215
 20
2951.26196
 30
0.0
  0
VERTEX
  8
0
 10
14037.13316
 20
3000.0
 30
0.0
  0
VERTEX
  8
0
 10
14000.0
 20
3000.0
 30
0.0
  0
VERTEX
  8
0
 10
14000.0
 20
3000.0
 30
0.0
  0
SEQEND
  0
POLYLINE
  8
0
 66
1
 10
0.0
 20
0.0
 30
0.0
 70
8
  0
VERTEX
  8
0
 10
15000.0
 20
3000.0
 30
0.0
  0
VERTEX
  8
0
 10
14986.07484
 20
2994.77807
 30
0.0
  0
VERTEX
  8
0
 10
14984.91558
 20
2969.24804
 30
0.0
  0
VERTEX
  8
0
 10
14995.35944
 20
2959.96518
 30
0.0
  0
VERTEX
  8
0
 10
15100.95735
 20
2964.60574
 30
0.0
  0
VERTEX
  8
0
 10
15098.63708
 20
2999.41862
 30
0.0
  0
VERTEX
  8
0
 10
15000.0
 20
3000.0
 30
0.0
  0
VERTEX
  8
0
 10
15000.0
 20
3000.0
 30
0.0
  0
SEQEND
  0
POLYLINE
  8
0
 66
1
 10
0.0
 20
0.0
 30
0.0
 70
8
  0
VERTEX
  8
0
 10
16000.0
 20
3000.0
 30
0.0
  0
VERTEX
  8
0
 10
15987.23585
 20
3018.56571
 30
0.0
  0
VERTEX
  8
0
 10
16006.96257
 20
3040.61445
 30
0.0
  0
VERTEX
  8
0
 10
16037.13316
 20
3040.61445
 30
0.0
  0
VERTEX
  8
0
 10
16035.97389
 20
3000.0
 30
0.0
  0
VERTEX
  8
0
 10
16000.0
 20
3000.0
 30
0.0
  0
VERTEX
  8
0
 10
16000.0
 20
3000.0
 30
0.0
  0
SEQEND
  0
POLYLINE
  8
0
 66
1
 10
0.0
 20
0.0
 30
0.0
 70
8
  0
VERTEX
  8
0
 10
17000.0
 20
3000.0
 30
0.0
  0
VERTEX
  8
0
 10
16997.67972
 20
3040.61445
 30
0.0
  0
VERTEX
  8
0
 10
16987.23585
 20
3053.38033
 30
0.0
  0
VERTEX
  8
0
 10
16943.14012
 20
3032.49261
 30
0.0
  0
VERTEX
  8
0
 10
16937.33682
 20
3004.6423
 30
0.0
  0
VERTEX
  8
0
 10
16952.42298
 20
2988.39513
 30
0.0
  0
VERTEX
  8
0
 10
17000.0
 20
3000.0
 30
0.0
  0
VERTEX
  8
0
 10
17000.0
 20
3000.0
 30
0.0
  0
SEQEND
  0
POLYLINE
  8
0
 66
1
 10
0.0
 20
0.0
 30
0.0
 70
8
  0
VERTEX
  8
0
 10
18000.0
 20
3000.0
 30
0.0
  0
VERTEX
  8
0
 10
18052.21932
 20
2995.3577
 30
0.0
  0
VERTEX
  8
0
 10
18051.06006
 20
2964.02611
 30
0.0
  0
VERTEX
  8
0
 10
18034.81288
 20
2944.29939
 30
0.0
  0
VERTEX
  8
0
 10
18029.01131
 20
2914.1288
 30
0.0
  0
VERTEX
  8
0
 10
17997.67972
 20
2918.7693600000002
 30
0.0
  0
VERTEX
  8
0
 10
17994.19844
 20
2955.90427
 30
0.0
  0
VERTEX
  8
0
 10
18000.0
 20
3000.0
 30
0.0
  0
VERTEX
  8
0
 10
18000.0
 20
3000.0
 30
0.0
  0
SEQEND
  0
POLYLINE
  8
0
 66
1
 10
0.0
 20
0.0
 30
0.0
 70
8
  0
VERTEX
  8
0
 10
19000.0
 20
3000.0
 30
0.0
  0
VERTEX
  8
0
 10
19008.12358
 20
3026.68929
 30
0.0
  0
VERTEX
  8
0
 10
18958.22454
 20
3030.17059
 30
0.0
  0
VERTEX
  8
0
 10
18957.06353
 20
3001.15927
 30
0.0
  0
VERTEX
  8
0
 10
19000.0
 20
3000.0
 30
0.0
  0
VERTEX
  8
0
 10
19000.0
 20
3000.0
 30
0.0
  0
SEQEND
  0
POLYLINE
  8
0
 66
1
 10
0.0
 20
0.0
 30
0.0
 70
8
  0
VERTEX
  8
0
 10
20000.0
 20
3000.0
 30
0.0
  0
VERTEX
  8
0
 10
20000.0
 20
3035.97389
 30
0.0
  0
VERTEX
  8
0
 10
20019.72672
 20
3046.41775
 30
0.0
  0
VERTEX
  8
0
 10
20037.13316
 20
3067.30549
 30
0.0
  0
VERTEX
  8
0
 10
20055.70061
 20
3067.30549
 30
0.0
  0
VERTEX
  8
0
 10
20074.26806
 20
3045.25675
 30
0.0
  0
VERTEX
  8
0
 10
20078.90861
 20
3026.68929
 30
0.0
  0
VERTEX
  8
0
 10
20075.42733
 20
2997.67972
 30
0.0
  0
VERTEX
  8
0
 10
20000.0
 20
3000.0
 30
0.0
  0
VERTEX
  8
0
 10
20000.0
 20
3000.0
 30
0.0
  0
SEQEND
  0
POLYLINE
  8
0
 66
1
 10
0.0
 20
0.0
 30
0.0
 70
8
  0
VERTEX
  8
0
 10
21000.0
 20
3000.0
 30
0.0
  0
VERTEX
  8
0
 10
21002.32028
 20
3044.09573
 30
0.0
  0
VERTEX
  8
0
 10
21049.89904
 20
3045.25675
 30
0.0
  0
VERTEX
  8
0
 10
21047.57702
 20
3013.92516
 30
0.0
  0
VERTEX
  8
0
 10
21023.208
 20
3000.0
 30
0.0
  0
VERTEX
  8
0
 10
21000.0
 20
3000.0
 30
0.0
  0
VERTEX
  8
0
 10
21000.0
 20
3000.0
 30
0.0
  0
SEQEND
  0
POLYLINE
  8
0
 66
1
 10
0.0
 20
0.0
 30
0.0
 70
8
  0
VERTEX
  8
0
 10
22000.0
 20
3000.0
 30
0.0
  0
VERTEX
  8
0
 10
22001.15927
 20
3034.81288
 30
0.0
  0
VERTEX
  8
0
 10
22073.10705
 20
3035.97389
 30
0.0
  0
VERTEX
  8
0
 10
22078.90861
 20
3000.0
 30
0.0
  0
VERTEX
  8
0
 10
22000.0
 20
3000.0
 30
0.0
  0
VERTEX
  8
0
 10
22000.0
 20
3000.0
 30
0.0
  0
SEQEND
  0
POLYLINE
  8
0
 66
1
 10
0.0
 20
0.0
 30
0.0
 70
8
  0
VERTEX
  8
0
 10
23000.0
 20
3000.0
 30
0.0
  0
VERTEX
  8
0
 10
23004.64056
 20
3031.3316
 30
0.0
  0
VERTEX
  8
0
 10
22988.39513
 20
3038.29417
 30
0.0
  0
VERTEX
  8
0
 10
22938.49609
 20
3033.65187
 30
0.0
  0
VERTEX
  8
0
 10
22959.38381
 20
2996.51871
 30
0.0
  0
VERTEX
  8
0
 10
23000.0
 20
3000.0
 30
0.0
  0
VERTEX
  8
0
 10
23000.0
 20
3000.0
 30
0.0
  0
SEQEND
  0
POLYLINE
  8
0
 66
1
 10
0.0
 20
0.0
 30
0.0
 70
8
  0
VERTEX
  8
0
 10
24000.0
 20
3000.0
 30
0.0
  0
VERTEX
  8
0
 10
24000.0
 20
3025.52828
 30
0.0
  0
VERTEX
  8
0
 10
24052.21932
 20
3027.8503
 30
0.0
  0
VERTEX
  8
0
 10
24056.86162
 20
3013.92516
 30
0.0
  0
VERTEX
  8
0
 10
24039.45518
 20
2996.51871
 30
0.0
  0
VERTEX
  8
0
 10
24000.0
 20
3000.0
 30
0.0
  0
VERTEX
  8
0
 10
24000.0
 20
3000.0
 30
0.0
  0
SEQEND
  0
POLYLINE
  8
0
 66
1
 10
0.0
 20
0.0
 30
0.0
 70
8
  0
VERTEX
  8
0
 10
25000.0
 20
3000.0
 30
0.0
  0
VERTEX
  8
0
 10
24997.67972
 20
3020.88773
 30
0.0
  0
VERTEX
  8
0
 10
24997.67972
 20
3041.77546
 30
0.0
  0
VERTEX
  8
0
 10
25041.77546
 20
3041.77546
 30
0.0
  0
VERTEX
  8
0
 10
25038.29417
 20
3008.12358
 30
0.0
  0
VERTEX
  8
0
 10
25000.0
 20
3000.0
 30
0.0
  0
VERTEX
  8
0
 10
25000.0
 20
3000.0
 30
0.0
  0
SEQEND
  0
POLYLINE
  8
0
 66
1
 10
0.0
 20
0.0
 30
0.0
 70
8
  0
VERTEX
  8
0
 10
26000.0
 20
3000.0
 30
0.0
  0
VERTEX
  8
0
 10
25968.6684
 20
2998.84073
 30
0.0
  0
VERTEX
  8
0
 10
25967.50739
 20
3024.36901
 30
0.0
  0
VERTEX
  8
0
 10
26011.60487
 20
3026.69103
 30
0.0
  0
VERTEX
  8
0
 10
26011.60487
 20
3004.6423
 30
0.0
  0
VERTEX
  8
0
 10
26000.0
 20
3000.0
 30
0.0
  0
VERTEX
  8
0
 10
26000.0
 20
3000.0
 30
0.0
  0
SEQEND
  0
POLYLINE
  8
0
 66
1
 10
0.0
 20
0.0
 30
0.0
 70
8
  0
VERTEX
  8
0
 10
27000.0
 20
3000.0
 30
0.0
  0
VERTEX
  8
0
 10
27001.16101
 20
3030.17059
 30
0.0
  0
VERTEX
  8
0
 10
26993.03743
 20
3041.77546
 30
0.0
  0
VERTEX
  8
0
 10
26957.06353
 20
3034.81288
 30
0.0
  0
VERTEX
  8
0
 10
26964.02611
 20
2994.19844
 30
0.0
  0
VERTEX
  8
0
 10
27000.0
 20
3000.0
 30
0.0
  0
VERTEX
  8
0
 10
27000.0
 20
3000.0
 30
0.0
  0
SEQEND
  0
POLYLINE
  8
0
 66
1
 10
0.0
 20
0.0
 30
0.0
 70
8
  0
VERTEX
  8
0
 10
28000.0
 20
3000.0
 30
0.0
  0
VERTEX
  8
0
 10
28002.97302
 20
3016.51697
 30
0.0
  0
VERTEX
  8
0
 10
27975.63099
 20
3014.50653
 30
0.0
  0
VERTEX
  8
0
 10
27975.63099
 20
2998.25935
 30
0.0
  0
VERTEX
  8
0
 10
28000.0
 20
3000.0
 30
0.0
  0
VERTEX
  8
0
 10
28000.0
 20
3000.0
 30
0.0
  0
SEQEND
  0
POLYLINE
  8
0
 66
1
 10
0.0
 20
0.0
 30
0.0
 70
8
  0
VERTEX
  8
0
 10
29000.0
 20
3000.0
 30
0.0
  0
VERTEX
  8
0
 10
28996.51871
 20
3026.69103
 30
0.0
  0
VERTEX
  8
0
 10
28961.70583
 20
3022.04874
 30
0.0
  0
VERTEX
  8
0
 10
28965.18712
 20
3005.8033
 30
0.0
  0
VERTEX
  8
0
 10
28979.11227
 20
2997.67972
 30
0.0
  0
VERTEX
  8
0
 10
29000.0
 20
3000.0
 30
0.0
  0
VERTEX
  8
0
 10
29000.0
 20
3000.0
 30
0.0
  0
SEQEND
  0
POLYLINE
  8
0
 66
1
 10
0.0
 20
0.0
 30
0.0
 70
8
  0
VERTEX
  8
0
 10
30000.0
 20
3000.0
 30
0.0
  0
VERTEX
  8
0
 10
30004.6423
 20
3009.28285
 30
0.0
  0
VERTEX
  8
0
 10
29995.3577
 20
3015.08442
 30
0.0
  0
VERTEX
  8
0
 10
29926.89295
 20
3013.92516
 30
0.0
  0
VERTEX
  8
0
 10
29924.57267
 20
3000.0
 30
0.0
  0
VERTEX
  8
0
 10
30000.0
 20
3000.0
 30
0.0
  0
VERTEX
  8
0
 10
30000.0
 20
3000.0
 30
0.0
  0
SEQEND
  0
POLYLINE
  8
0
 66
1
 10
0.0
 20
0.0
 30
0.0
 70
8
  0
VERTEX
  8
0
 10
31000.0
 20
3000.0
 30
0.0
  0
VERTEX
  8
0
 10
31002.32028
 20
3032.49261
 30
0.0
  0
VERTEX
  8
0
 10
31018.56571
 20
3046.41775
 30
0.0
  0
VERTEX
  8
0
 10
31046.41602
 20
3046.41775
 30
0.0
  0
VERTEX
  8
0
 10
31044.09573
 20
2998.83899
 30
0.0
  0
VERTEX
  8
0
 10
31000.0
 20
3000.0
 30
0.0
  0
VERTEX
  8
0
 10
31000.0
 20
3000.0
 30
0.0
  0
SEQEND
  0
POLYLINE
  8
0
 66
1
 10
0.0
 20
0.0
 30
0.0
 70
8
  0
VERTEX
  8
0
 10
32000.0
 20
3000.0
 30
0.0
  0
VERTEX
  8
0
 10
32005.80156
 20
3010.44387
 30
0.0
  0
VERTEX
  8
0
 10
32025.53002
 20
3011.60487
 30
0.0
  0
VERTEX
  8
0
 10
32030.17059
 20
2998.84073
 30
0.0
  0
VERTEX
  8
0
 10
32033.65187
 20
2964.02785
 30
0.0
  0
VERTEX
  8
0
 10
32001.16101
 20
2964.02785
 30
0.0
  0
VERTEX
  8
0
 10
32000.0
 20
3000.0
 30
0.0
  0
VERTEX
  8
0
 10
32000.0
 20
3000.0
 30
0.0
  0
SEQEND
  0
POLYLINE
  8
0
 66
1
 10
0.0
 20
0.0
 30
0.0
 70
8
  0
VERTEX
  8
0
 10
33000.0
 20
3000.0
 30
0.0
  0
VERTEX
  8
0
 10
33016.24543
 20
2984.91384
 30
0.0
  0
VERTEX
  8
0
 10
33041.77546
 20
2984.91384
 30
0.0
  0
VERTEX
  8
0
 10
33058.02089
 20
3017.40644
 30
0.0
  0
VERTEX
  8
0
 10
33049.89731
 20
3032.49261
 30
0.0
  0
VERTEX
  8
0
 10
33002.32028
 20
3032.49261
 30
0.0
  0
VERTEX
  8
0
 10
33000.0
 20
3000.0
 30
0.0
  0
VERTEX
  8
0
 10
33000.0
 20
3000.0
 30
0.0
  0
SEQEND
  0
POLYLINE
  8
0
 66
1
 10
0.0
 20
0.0
 30
0.0
 70
8
  0
VERTEX
  8
0
 10
34000.0
 20
3000.0
 30
0.0
  0
VERTEX
  8
0
 10
34002.32202
 20
3048.73804
 30
0.0
  0
VERTEX
  8
0
 10
33994.19844
 20
3056.86162
 30
0.0
  0
VERTEX
  8
0
 10
33946.62141
 20
3054.5396
 30
0.0
  0
VERTEX
  8
0
 10
33946.62141
 20
3013.92516
 30
0.0
  0
VERTEX
  8
0
 10
34000.0
 20
3000.0
 30
0.0
  0
VERTEX
  8
0
 10
34000.0
 20
3000.0
 30
0.0
  0
SEQEND
  0
POLYLINE
  8
0
 66
1
 10
0.0
 20
0.0
 30
0.0
 70
8
  0
VERTEX
  8
0
 10
35000.0
 20
3000.0
 30
0.0
  0
VERTEX
  8
0
 10
34998.84073
 20
3025.52828
 30
0.0
  0
VERTEX
  8
0
 10
35023.20975
 20
3030.17059
 30
0.0
  0
VERTEX
  8
0
 10
35054.54134
 20
3025.52828
 30
0.0
  0
VERTEX
  8
0
 10
35061.50391
 20
3004.64056
 30
0.0
  0
VERTEX
  8
0
 10
35020.88773
 20
2996.51871
 30
0.0
  0
VERTEX
  8
0
 10
35000.0
 20
3000.0
 30
0.0
  0
VERTEX
  8
0
 10
35000.0
 20
3000.0
 30
0.0
  0
SEQEND
  0
POLYLINE
  8
0
 66
1
 10
0.0
 20
0.0
 30
0.0
 70
8
  0
VERTEX
  8
0
 10
36000.0
 20
3000.0
 30
0.0
  0
VERTEX
  8
0
 10
35990.71715
 20
3009.28459
 30
0.0
  0
VERTEX
  8
0
 10
35990.71715
 20
3038.29417
 30
0.0
  0
VERTEX
  8
0
 10
36040.61445
 20
3047.57877
 30
0.0
  0
VERTEX
  8
0
 10
36061.50218
 20
3040.61619
 30
0.0
  0
VERTEX
  8
0
 10
36062.66318
 20
3009.28459
 30
0.0
  0
VERTEX
  8
0
 10
36049.89904
 20
2997.67972
 30
0.0
  0
VERTEX
  8
0
 10
36000.0
 20
3000.0
 30
0.0
  0
VERTEX
  8
0
 10
36000.0
 20
3000.0
 30
0.0
  0
SEQEND
  0
POLYLINE
  8
0
 66
1
 10
0.0
 20
0.0
 30
0.0
 70
8
  0
VERTEX
  8
0
 10
37000.0
 20
3000.0
 30
0.0
  0
VERTEX
  8
0
 10
36991.87816
 20
3006.96257
 30
0.0
  0
VERTEX
  8
0
 10
36993.03743
 20
3046.41775
 30
0.0
  0
VERTEX
  8
0
 10
36997.67972
 20
3062.66318
 30
0.0
  0
VERTEX
  8
0
 10
37056.86162
 20
3061.50391
 30
0.0
  0
VERTEX
  8
0
 10
37068.46649
 20
3029.01131
 30
0.0
  0
VERTEX
  8
0
 10
37068.46649
 20
2996.51871
 30
0.0
  0
VERTEX
  8
0
 10
37000.0
 20
3000.0
 30
0.0
  0
VERTEX
  8
0
 10
37000.0
 20
3000.0
 30
0.0
  0
SEQEND
  0
POLYLINE
  8
0
 66
1
 10
0.0
 20
0.0
 30
0.0
 70
8
  0
VERTEX
  8
0
 10
38000.0
 20
3000.0
 30
0.0
  0
VERTEX
  8
0
 10
38009.28285
 20
3027.8503
 30
0.0
  0
VERTEX
  8
0
 10
38027.8503
 20
3027.8503
 30
0.0
  0
VERTEX
  8
0
 10
38037.13316
 20
3035.97389
 30
0.0
  0
VERTEX
  8
0
 10
38053.38033
 20
3032.49261
 30
0.0
  0
VERTEX
  8
0
 10
38080.06963
 20
3022.04874
 30
0.0
  0
VERTEX
  8
0
 10
38078.90861
 20
2996.51871
 30
0.0
  0
VERTEX
  8
0
 10
38000.0
 20
3000.0
 30
0.0
  0
VERTEX
  8
0
 10
38000.0
 20
3000.0
 30
0.0
  0
SEQEND
  0
POLYLINE
  8
0
 66
1
 10
0.0
 20
0.0
 30
0.0
 70
8
  0
VERTEX
  8
0
 10
39000.0
 20
3000.0
 30
0.0
  0
VERTEX
  8
0
 10
39000.0
 20
3035.97389
 30
0.0
  0
VERTEX
  8
0
 10
39008.12358
 20
3044.09573
 30
0.0
  0
VERTEX
  8
0
 10
39039.45518
 20
3041.77546
 30
0.0
  0
VERTEX
  8
0
 10
39048.73804
 20
3031.3316
 30
0.0
  0
VERTEX
  8
0
 10
39044.09573
 20
3000.0
 30
0.0
  0
VERTEX
  8
0
 10
39000.0
 20
3000.0
 30
0.0
  0
VERTEX
  8
0
 10
39000.0
 20
3000.0
 30
0.0
  0
SEQEND
  0
POLYLINE
  8
0
 66
1
 10
0.0
 20
0.0
 30
0.0
 70
8
  0
VERTEX
  8
0
 10
40000.0
 20
3000.0
 30
0.0
  0
VERTEX
  8
0
 10
40016.24543
 20
3015.08616
 30
0.0
  0
VERTEX
  8
0
 10
40013.92516
 20
3040.61445
 30
0.0
  0
VERTEX
  8
0
 10
39997.67972
 20
3048.73804
 30
0.0
  0
VERTEX
  8
0
 10
39932.69451
 20
3045.25675
 30
0.0
  0
VERTEX
  8
0
 10
39925.73194
 20
3035.97389
 30
0.0
  0
VERTEX
  8
0
 10
39958.22454
 20
3000.0
 30
0.0
  0
VERTEX
  8
0
 10
40000.0
 20
3000.0
 30
0.0
  0
VERTEX
  8
0
 10
40000.0
 20
3000.0
 30
0.0
  0
SEQEND
  0
POLYLINE
  8
0
 66
1
 10
0.0
 20
0.0
 30
0.0
 70
8
  0
VERTEX
  8
0
 10
41000.0
 20
3000.0
 30
0.0
  0
VERTEX
  8
0
 10
41002.32202
 20
3038.29417
 30
0.0
  0
VERTEX
  8
0
 10
41061.50391
 20
3040.61445
 30
0.0
  0
VERTEX
  8
0
 10
41066.14447
 20
3010.44387
 30
0.0
  0
VERTEX
  8
0
 10
41000.0
 20
3000.0
 30
0.0
  0
VERTEX
  8
0
 10
41000.0
 20
3000.0
 30
0.0
  0
SEQEND
  0
POLYLINE
  8
0
 66
1
 10
0.0
 20
0.0
 30
0.0
 70
8
  0
VERTEX
  8
0
 10
42000.0
 20
3000.0
 30
0.0
  0
VERTEX
  8
0
 10
42001.16101
 20
3044.09573
 30
0.0
  0
VERTEX
  8
0
 10
42017.40644
 20
3041.77546
 30
0.0
  0
VERTEX
  8
0
 10
42029.01131
 20
3033.65187
 30
0.0
  0
VERTEX
  8
0
 10
42023.20975
 20
2990.71715
 30
0.0
  0
VERTEX
  8
0
 10
42000.0
 20
3000.0
 30
0.0
  0
VERTEX
  8
0
 10
42000.0
 20
3000.0
 30
0.0
  0
SEQEND
  0
POLYLINE
  8
0
 66
1
 10
0.0
 20
0.0
 30
0.0
 70
8
  0
VERTEX
  8
0
 10
43000.0
 20
3000.0
 30
0.0
  0
VERTEX
  8
0
 10
43000.0
 20
3033.65361
 30
0.0
  0
VERTEX
  8
0
 10
43024.36901
 20
3033.65361
 30
0.0
  0
VERTEX
  8
0
 10
43037.1349
 20
3019.72846
 30
0.0
  0
VERTEX
  8
0
 10
43027.8503
 20
3003.48129
 30
0.0
  0
VERTEX
  8
0
 10
43000.0
 20
3000.0
 30
0.0
  0
VERTEX
  8
0
 10
43000.0
 20
3000.0
 30
0.0
  0
SEQEND
  0
POLYLINE
  8
0
 66
1
 10
0.0
 20
0.0
 30
0.0
 70
8
  0
VERTEX
  8
0
 10
44000.0
 20
3000.0
 30
0.0
  0
VERTEX
  8
0
 10
43996.51871
 20
3015.08442
 30
0.0
  0
VERTEX
  8
0
 10
44035.97389
 20
3016.24543
 30
0.0
  0
VERTEX
  8
0
 10
44039.45518
 20
3006.96257
 30
0.0
  0
VERTEX
  8
0
 10
44029.01131
 20
3004.64056
 30
0.0
  0
VERTEX
  8
0
 10
44030.17232
 20
2996.51871
 30
0.0
  0
VERTEX
  8
0
 10
44000.0
 20
3000.0
 30
0.0
  0
VERTEX
  8
0
 10
44000.0
 20
3000.0
 30
0.0
  0
SEQEND
  0
POLYLINE
  8
0
 66
1
 10
0.0
 20
0.0
 30
0.0
 70
8
  0
VERTEX
  8
0
 10
45000.0
 20
3000.0
 30
0.0
  0
VERTEX
  8
0
 10
45012.76588
 20
2993.03743
 30
0.0
  0
VERTEX
  8
0
 10
45052.21932
 20
2990.71715
 30
0.0
  0
VERTEX
  8
0
 10
45063.8242
 20
3002.32028
 30
0.0
  0
VERTEX
  8
0
 10
45084.71193
 20
3015.08616
 30
0.0
  0
VERTEX
  8
0
 10
45074.26806
 20
3023.208
 30
0.0
  0
VERTEX
  8
0
 10
45061.50391
 20
3023.208
 30
0.0
  0
VERTEX
  8
0
 10
45061.50391
 20
3033.65187
 30
0.0
  0
VERTEX
  8
0
 10
45001.16101
 20
3032.49261
 30
0.0
  0
VERTEX
  8
0
 10
44998.84073
 20
3017.40644
 30
0.0
  0
VERTEX
  8
0
 10
45000.0
 20
3000.0
 30
0.0
  0
VERTEX
  8
0
 10
45000.0
 20
3000.0
 30
0.0
  0
SEQEND
  0
POLYLINE
  8
0
 66
1
 10
0.0
 20
0.0
 30
0.0
 70
8
  0
VERTEX
  8
0
 10
46000.0
 20
3000.0
 30
0.0
  0
VERTEX
  8
0
 10
46023.20975
 20
2974.47172
 30
0.0
  0
VERTEX
  8
0
 10
46058.02263
 20
2976.792
 30
0.0
  0
VERTEX
  8
0
 10
46067.30549
 20
2984.91558
 30
0.0
  0
VERTEX
  8
0
 10
46067.30549
 20
3031.3316
 30
0.0
  0
VERTEX
  8
0
 10
46063.8242
 20
3040.61619
 30
0.0
  0
VERTEX
  8
0
 10
46002.32202
 20
3035.97389
 30
0.0
  0
VERTEX
  8
0
 10
46000.0
 20
3000.0
 30
0.0
  0
VERTEX
  8
0
 10
46000.0
 20
3000.0
 30
0.0
  0
SEQEND
  0
POLYLINE
  8
0
 66
1
 10
0.0
 20
0.0
 30
0.0
 70
8
  0
VERTEX
  8
0
 10
47000.0
 20
3000.0
 30
0.0
  0
VERTEX
  8
0
 10
46998.84073
 20
3027.8503
 30
0.0
  0
VERTEX
  8
0
 10
47008.12358
 20
3033.65361
 30
0.0
  0
VERTEX
  8
0
 10
47015.08616
 20
3026.69103
 30
0.0
  0
VERTEX
  8
0
 10
47015.08616
 20
2995.35944
 30
0.0
  0
VERTEX
  8
0
 10
47000.0
 20
3000.0
 30
0.0
  0
VERTEX
  8
0
 10
47000.0
 20
3000.0
 30
0.0
  0
SEQEND
  0
POLYLINE
  8
0
 66
1
 10
0.0
 20
0.0
 30
0.0
 70
8
  0
VERTEX
  8
0
 10
48000.0
 20
3000.0
 30
0.0
  0
VERTEX
  8
0
 10
48005.80156
 20
3031.3316
 30
0.0
  0
VERTEX
  8
0
 10
48017.40644
 20
3039.4534400000002
 30
0.0
  0
VERTEX
  8
0
 10
48040.61445
 20
3035.97215
 30
0.0
  0
VERTEX
  8
0
 10
48033.65187
 20
2997.67798
 30
0.0
  0
VERTEX
  8
0
 10
48000.0
 20
3000.0
 30
0.0
  0
VERTEX
  8
0
 10
48000.0
 20
3000.0
 30
0.0
  0
SEQEND
  0
POLYLINE
  8
0
 66
1
 10
0.0
 20
0.0
 30
0.0
 70
8
  0
VERTEX
  8
0
 10
0.0
 20
3000.0
 30
0.0
  0
VERTEX
  8
0
 10
0.0
 20
3032.49261
 30
0.0
  0
VERTEX
  8
0
 10
-9.28285
 20
3049.89904
 30
0.0
  0
VERTEX
  8
0
 10
6.96257
 20
3059.1819
 30
0.0
  0
VERTEX
  8
0
 10
51.058310000000006
 20
3061.50391
 30
0.0
  0
VERTEX
  8
0
 10
53.38033
 20
3017.40644
 30
0.0
  0
VERTEX
  8
0
 10
41.77546
 20
3011.60487
 30
0.0
  0
VERTEX
  8
0
 10
41.77546
 20
2990.71715
 30
0.0
  0
VERTEX
  8
0
 10
9.28285
 20
2990.71715
 30
0.0
  0
VERTEX
  8
0
 10
0.0
 20
3000.0
 30
0.0
  0
VERTEX
  8
0
 10
0.0
 20
3000.0
 30
0.0
  0
SEQEND
  0
POLYLINE
  8
0
 66
1
 10
0.0
 20
0.0
 30
0.0
 70
8
  0
VERTEX
  8
0
 10
1000.0
 20
4000.0
 30
0.0
  0
VERTEX
  8
0
 10
997.67972
 20
4022.04874
 30
0.0
  0
VERTEX
  8
0
 10
1042.79026
 20
4025.24108
 30
0.0
  0
VERTEX
  8
0
 10
1039.45518
 20
4012.76588
 30
0.0
  0
VERTEX
  8
0
 10
1039.45518
 20
4003.48129
 30
0.0
  0
VERTEX
  8
0
 10
1000.0
 20
4000.0
 30
0.0
  0
VERTEX
  8
0
 10
1000.0
 20
4000.0
 30
0.0
  0
SEQEND
  0
POLYLINE
  8
0
 66
1
 10
0.0
 20
0.0
 30
0.0
 70
8
  0
VERTEX
  8
0
 10
2000.0
 20
4000.0
 30
0.0
  0
VERTEX
  8
0
 10
1998.83899
 20
4023.208
 30
0.0
  0
VERTEX
  8
0
 10
1972.1497
 20
4020.88773
 30
0.0
  0
VERTEX
  8
0
 10
1973.30897
 20
3998.83899
 30
0.0
  0
VERTEX
  8
0
 10
2000.0
 20
4000.0
 30
0.0
  0
VERTEX
  8
0
 10
2000.0
 20
4000.0
 30
0.0
  0
SEQEND
  0
POLYLINE
  8
0
 66
1
 10
0.0
 20
0.0
 30
0.0
 70
8
  0
VERTEX
  8
0
 10
3000.0
 20
4000.0
 30
0.0
  0
VERTEX
  8
0
 10
3005.80156
 20
4018.56745
 30
0.0
  0
VERTEX
  8
0
 10
2995.43951
 20
4042.67363
 30
0.0
  0
VERTEX
  8
0
 10
2916.44908
 20
4033.65187
 30
0.0
  0
VERTEX
  8
0
 10
2885.11749
 20
4027.8503
 30
0.0
  0
VERTEX
  8
0
 10
2925.73194
 20
4015.08616
 30
0.0
  0
VERTEX
  8
0
 10
2974.46998
 20
4012.76415
 30
0.0
  0
VERTEX
  8
0
 10
3000.0
 20
4000.0
 30
0.0
  0
VERTEX
  8
0
 10
3000.0
 20
4000.0
 30
0.0
  0
SEQEND
  0
POLYLINE
  8
0
 66
1
 10
0.0
 20
0.0
 30
0.0
 70
8
  0
VERTEX
  8
0
 10
4000.0
 20
4000.0
 30
0.0
  0
VERTEX
  8
0
 10
4074.26632
 20
4000.0
 30
0.0
  0
VERTEX
  8
0
 10
4080.06963
 20
4016.24543
 30
0.0
  0
VERTEX
  8
0
 10
4073.10705
 20
4033.65187
 30
0.0
  0
VERTEX
  8
0
 10
4000.0
 20
4033.65187
 30
0.0
  0
VERTEX
  8
0
 10
3993.03743
 20
4020.88773
 30
0.0
  0
VERTEX
  8
0
 10
4000.0
 20
4000.0
 30
0.0
  0
VERTEX
  8
0
 10
4000.0
 20
4000.0
 30
0.0
  0
SEQEND
  0
POLYLINE
  8
0
 66
1
 10
0.0
 20
0.0
 30
0.0
 70
8
  0
VERTEX
  8
0
 10
5000.0
 20
4000.0
 30
0.0
  0
VERTEX
  8
0
 10
4996.63011
 20
4032.30635
 30
0.0
  0
VERTEX
  8
0
 10
4961.81723
 20
4034.62838
 30
0.0
  0
VERTEX
  8
0
 10
4962.97824
 20
3999.81549
 30
0.0
  0
VERTEX
  8
0
 10
5000.0
 20
4000.0
 30
0.0
  0
VERTEX
  8
0
 10
5000.0
 20
4000.0
 30
0.0
  0
SEQEND
  0
POLYLINE
  8
0
 66
1
 10
0.0
 20
0.0
 30
0.0
 70
8
  0
VERTEX
  8
0
 10
6000.0
 20
4000.0
 30
0.0
  0
VERTEX
  8
0
 10
6005.80156
 20
4006.96257
 30
0.0
  0
VERTEX
  8
0
 10
6000.0
 20
4025.52828
 30
0.0
  0
VERTEX
  8
0
 10
5962.86684
 20
4029.00958
 30
0.0
  0
VERTEX
  8
0
 10
5960.54482
 20
4008.12184
 30
0.0
  0
VERTEX
  8
0
 10
6000.0
 20
4000.0
 30
0.0
  0
VERTEX
  8
0
 10
6000.0
 20
4000.0
 30
0.0
  0
SEQEND
  0
POLYLINE
  8
0
 66
1
 10
0.0
 20
0.0
 30
0.0
 70
8
  0
VERTEX
  8
0
 10
7000.0
 20
4000.0
 30
0.0
  0
VERTEX
  8
0
 10
7000.0
 20
4016.24543
 30
0.0
  0
VERTEX
  8
0
 10
6959.38381
 20
4019.72672
 30
0.0
  0
VERTEX
  8
0
 10
6957.06353
 20
4001.16101
 30
0.0
  0
VERTEX
  8
0
 10
7000.0
 20
4000.0
 30
0.0
  0
VERTEX
  8
0
 10
7000.0
 20
4000.0
 30
0.0
  0
SEQEND
  0
POLYLINE
  8
0
 66
1
 10
0.0
 20
0.0
 30
0.0
 70
8
  0
VERTEX
  8
0
 10
8000.0
 20
4000.0
 30
0.0
  0
VERTEX
  8
0
 10
7998.83899
 20
4046.41602
 30
0.0
  0
VERTEX
  8
0
 10
7969.82941
 20
4046.41602
 30
0.0
  0
VERTEX
  8
0
 10
7960.54482
 20
4034.81288
 30
0.0
  0
VERTEX
  8
0
 10
7960.54482
 20
4010.44387
 30
0.0
  0
VERTEX
  8
0
 10
8000.0
 20
4000.0
 30
0.0
  0
VERTEX
  8
0
 10
8000.0
 20
4000.0
 30
0.0
  0
SEQEND
  0
POLYLINE
  8
0
 66
1
 10
0.0
 20
0.0
 30
0.0
 70
8
  0
VERTEX
  8
0
 10
9000.0
 20
4000.0
 30
0.0
  0
VERTEX
  8
0
 10
8986.07484
 20
4017.40644
 30
0.0
  0
VERTEX
  8
0
 10
9012.76588
 20
4032.49261
 30
0.0
  0
VERTEX
  8
0
 10
9084.71193
 20
4026.69103
 30
0.0
  0
VERTEX
  8
0
 10
9075.42907
 20
4001.16101
 30
0.0
  0
VERTEX
  8
0
 10
9000.0
 20
4000.0
 30
0.0
  0
VERTEX
  8
0
 10
9000.0
 20
4000.0
 30
0.0
  0
SEQEND
  0
POLYLINE
  8
0
 66
1
 10
0.0
 20
0.0
 30
0.0
 70
8
  0
VERTEX
  8
0
 10
10000.0
 20
4000.0
 30
0.0
  0
VERTEX
  8
0
 10
10000.0
 20
4029.00958
 30
0.0
  0
VERTEX
  8
0
 10
10105.59966
 20
4025.52828
 30
0.0
  0
VERTEX
  8
0
 10
10124.16536
 20
4010.44387
 30
0.0
  0
VERTEX
  8
0
 10
10118.36379
 20
4001.15927
 30
0.0
  0
VERTEX
  8
0
 10
10000.0
 20
4000.0
 30
0.0
  0
VERTEX
  8
0
 10
10000.0
 20
4000.0
 30
0.0
  0
SEQEND
  0
POLYLINE
  8
0
 66
1
 10
0.0
 20
0.0
 30
0.0
 70
8
  0
VERTEX
  8
0
 10
11000.0
 20
4000.0
 30
0.0
  0
VERTEX
  8
0
 10
11007.10705
 20
4023.06179
 30
0.0
  0
VERTEX
  8
0
 10
11051.20452
 20
4023.06179
 30
0.0
  0
VERTEX
  8
0
 10
11048.8825
 20
4004.49609
 30
0.0
  0
VERTEX
  8
0
 10
11000.0
 20
4000.0
 30
0.0
  0
VERTEX
  8
0
 10
11000.0
 20
4000.0
 30
0.0
  0
SEQEND
  0
POLYLINE
  8
0
 66
1
 10
0.0
 20
0.0
 30
0.0
 70
8
  0
VERTEX
  8
0
 10
12000.0
 20
4000.0
 30
0.0
  0
VERTEX
  8
0
 10
11996.51871
 20
4022.04874
 30
0.0
  0
VERTEX
  8
0
 10
11970.98869
 20
4022.04874
 30
0.0
  0
VERTEX
  8
0
 10
11969.82941
 20
3996.51871
 30
0.0
  0
VERTEX
  8
0
 10
12000.0
 20
4000.0
 30
0.0
  0
VERTEX
  8
0
 10
12000.0
 20
4000.0
 30
0.0
  0
SEQEND
  0
POLYLINE
  8
0
 66
1
 10
0.0
 20
0.0
 30
0.0
 70
8
  0
VERTEX
  8
0
 10
13000.0
 20
4000.0
 30
0.0
  0
VERTEX
  8
0
 10
12982.59356
 20
4020.88773
 30
0.0
  0
VERTEX
  8
0
 10
12865.39077
 20
4022.04874
 30
0.0
  0
VERTEX
  8
0
 10
12856.10618
 20
4004.6423
 30
0.0
  0
VERTEX
  8
0
 10
12864.22977
 20
3997.67972
 30
0.0
  0
VERTEX
  8
0
 10
13000.0
 20
4000.0
 30
0.0
  0
VERTEX
  8
0
 10
13000.0
 20
4000.0
 30
0.0
  0
SEQEND
  0
POLYLINE
  8
0
 66
1
 10
0.0
 20
0.0
 30
0.0
 70
8
  0
VERTEX
  8
0
 10
14000.0
 20
4000.0
 30
0.0
  0
VERTEX
  8
0
 10
13990.71715
 20
4030.17059
 30
0.0
  0
VERTEX
  8
0
 10
13948.94169
 20
4030.17059
 30
0.0
  0
VERTEX
  8
0
 10
13936.17755
 20
4022.04874
 30
0.0
  0
VERTEX
  8
0
 10
13936.17755
 20
4006.96257
 30
0.0
  0
VERTEX
  8
0
 10
13969.82941
 20
3996.51871
 30
0.0
  0
VERTEX
  8
0
 10
14000.0
 20
4000.0
 30
0.0
  0
VERTEX
  8
0
 10
14000.0
 20
4000.0
 30
0.0
  0
SEQEND
  0
POLYLINE
  8
0
 66
1
 10
0.0
 20
0.0
 30
0.0
 70
8
  0
VERTEX
  8
0
 10
15000.0
 20
4000.0
 30
0.0
  0
VERTEX
  8
0
 10
15059.1819
 20
4000.0
 30
0.0
  0
VERTEX
  8
0
 10
15059.1819
 20
4030.17059
 30
0.0
  0
VERTEX
  8
0
 10
15047.57702
 20
4040.61445
 30
0.0
  0
VERTEX
  8
0
 10
15009.28285
 20
4040.61445
 30
0.0
  0
VERTEX
  8
0
 10
15000.0
 20
4031.3316
 30
0.0
  0
VERTEX
  8
0
 10
15000.0
 20
4000.0
 30
0.0
  0
VERTEX
  8
0
 10
15000.0
 20
4000.0
 30
0.0
  0
SEQEND
  0
POLYLINE
  8
0
 66
1
 10
0.0
 20
0.0
 30
0.0
 70
8
  0
VERTEX
  8
0
 10
16000.0
 20
4000.0
 30
0.0
  0
VERTEX
  8
0
 10
16000.0
 20
4054.5396
 30
0.0
  0
VERTEX
  8
0
 10
15990.71715
 20
4062.66318
 30
0.0
  0
VERTEX
  8
0
 10
15973.31071
 20
4059.1819
 30
0.0
  0
VERTEX
  8
0
 10
15930.37424
 20
4032.49261
 30
0.0
  0
VERTEX
  8
0
 10
15926.89295
 20
4005.80156
 30
0.0
  0
VERTEX
  8
0
 10
16000.0
 20
4000.0
 30
0.0
  0
VERTEX
  8
0
 10
16000.0
 20
4000.0
 30
0.0
  0
SEQEND
  0
POLYLINE
  8
0
 66
1
 10
0.0
 20
0.0
 30
0.0
 70
8
  0
VERTEX
  8
0
 10
17000.0
 20
4000.0
 30
0.0
  0
VERTEX
  8
0
 10
17002.32202
 20
4041.77546
 30
0.0
  0
VERTEX
  8
0
 10
16967.50914
 20
4060.34291
 30
0.0
  0
VERTEX
  8
0
 10
16947.78068
 20
4044.09747
 30
0.0
  0
VERTEX
  8
0
 10
16947.78068
 20
3995.35944
 30
0.0
  0
VERTEX
  8
0
 10
17000.0
 20
4000.0
 30
0.0
  0
VERTEX
  8
0
 10
17000.0
 20
4000.0
 30
0.0
  0
SEQEND
  0
POLYLINE
  8
0
 66
1
 10
0.0
 20
0.0
 30
0.0
 70
8
  0
VERTEX
  8
0
 10
18000.0
 20
4000.0
 30
0.0
  0
VERTEX
  8
0
 10
18004.64056
 20
4023.208
 30
0.0
  0
VERTEX
  8
0
 10
18019.72672
 20
4038.29417
 30
0.0
  0
VERTEX
  8
0
 10
18051.05831
 20
4039.45518
 30
0.0
  0
VERTEX
  8
0
 10
18046.41602
 20
3996.51871
 30
0.0
  0
VERTEX
  8
0
 10
18000.0
 20
4000.0
 30
0.0
  0
VERTEX
  8
0
 10
18000.0
 20
4000.0
 30
0.0
  0
SEQEND
  0
POLYLINE
  8
0
 66
1
 10
0.0
 20
0.0
 30
0.0
 70
8
  0
VERTEX
  8
0
 10
19000.0
 20
4000.0
 30
0.0
  0
VERTEX
  8
0
 10
19008.12358
 20
4032.49086
 30
0.0
  0
VERTEX
  8
0
 10
19060.34291
 20
4027.8503
 30
0.0
  0
VERTEX
  8
0
 10
19060.34291
 20
4011.60313
 30
0.0
  0
VERTEX
  8
0
 10
19053.38033
 20
3995.3577
 30
0.0
  0
VERTEX
  8
0
 10
19000.0
 20
4000.0
 30
0.0
  0
VERTEX
  8
0
 10
19000.0
 20
4000.0
 30
0.0
  0
SEQEND
  0
POLYLINE
  8
0
 66
1
 10
0.0
 20
0.0
 30
0.0
 70
8
  0
VERTEX
  8
0
 10
20000.0
 20
4000.0
 30
0.0
  0
VERTEX
  8
0
 10
20006.96257
 20
4019.72672
 30
0.0
  0
VERTEX
  8
0
 10
19994.1967
 20
4024.36901
 30
0.0
  0
VERTEX
  8
0
 10
19937.33682
 20
4026.68929
 30
0.0
  0
VERTEX
  8
0
 10
19938.49609
 20
3996.51871
 30
0.0
  0
VERTEX
  8
0
 10
20000.0
 20
4000.0
 30
0.0
  0
VERTEX
  8
0
 10
20000.0
 20
4000.0
 30
0.0
  0
SEQEND
  0
POLYLINE
  8
0
 66
1
 10
0.0
 20
0.0
 30
0.0
 70
8
  0
VERTEX
  8
0
 10
21000.0
 20
4000.0
 30
0.0
  0
VERTEX
  8
0
 10
21004.64056
 20
4030.17059
 30
0.0
  0
VERTEX
  8
0
 10
21039.45344
 20
4030.17059
 30
0.0
  0
VERTEX
  8
0
 10
21033.65187
 20
3996.51871
 30
0.0
  0
VERTEX
  8
0
 10
21000.0
 20
4000.0
 30
0.0
  0
VERTEX
  8
0
 10
21000.0
 20
4000.0
 30
0.0
  0
SEQEND
  0
POLYLINE
  8
0
 66
1
 10
0.0
 20
0.0
 30
0.0
 70
8
  0
VERTEX
  8
0
 10
22000.0
 20
4000.0
 30
0.0
  0
VERTEX
  8
0
 10
21998.83899
 20
4024.36901
 30
0.0
  0
VERTEX
  8
0
 10
22022.047
 20
4024.36901
 30
0.0
  0
VERTEX
  8
0
 10
22023.208
 20
4000.0
 30
0.0
  0
VERTEX
  8
0
 10
22000.0
 20
4000.0
 30
0.0
  0
VERTEX
  8
0
 10
22000.0
 20
4000.0
 30
0.0
  0
SEQEND
  0
POLYLINE
  8
0
 66
1
 10
0.0
 20
0.0
 30
0.0
 70
8
  0
VERTEX
  8
0
 10
23000.0
 20
4000.0
 30
0.0
  0
VERTEX
  8
0
 10
23003.48129
 20
4019.72672
 30
0.0
  0
VERTEX
  8
0
 10
22991.87816
 20
4035.97215
 30
0.0
  0
VERTEX
  8
0
 10
22975.63099
 20
4026.68929
 30
0.0
  0
VERTEX
  8
0
 10
22973.31071
 20
4016.24543
 30
0.0
  0
VERTEX
  8
0
 10
22976.792
 20
4002.32028
 30
0.0
  0
VERTEX
  8
0
 10
23000.0
 20
4000.0
 30
0.0
  0
VERTEX
  8
0
 10
23000.0
 20
4000.0
 30
0.0
  0
SEQEND
  0
POLYLINE
  8
0
 66
1
 10
0.0
 20
0.0
 30
0.0
 70
8
  0
VERTEX
  8
0
 10
24000.0
 20
4000.0
 30
0.0
  0
VERTEX
  8
0
 10
24004.6423
 20
4027.8503
 30
0.0
  0
VERTEX
  8
0
 10
23972.1497
 20
4027.8503
 30
0.0
  0
VERTEX
  8
0
 10
23970.99042
 20
4017.40644
 30
0.0
  0
VERTEX
  8
0
 10
23975.63099
 20
4000.0
 30
0.0
  0
VERTEX
  8
0
 10
24000.0
 20
4000.0
 30
0.0
  0
VERTEX
  8
0
 10
24000.0
 20
4000.0
 30
0.0
  0
SEQEND
  0
POLYLINE
  8
0
 66
1
 10
0.0
 20
0.0
 30
0.0
 70
8
  0
VERTEX
  8
0
 10
25000.0
 20
4000.0
 30
0.0
  0
VERTEX
  8
0
 10
25008.12184
 20
4034.81288
 30
0.0
  0
VERTEX
  8
0
 10
25022.047
 20
4034.81288
 30
0.0
  0
VERTEX
  8
0
 10
25044.09573
 20
4023.208
 30
0.0
  0
VERTEX
  8
0
 10
25045.25675
 20
3995.3577
 30
0.0
  0
VERTEX
  8
0
 10
25000.0
 20
4000.0
 30
0.0
  0
VERTEX
  8
0
 10
25000.0
 20
4000.0
 30
0.0
  0
SEQEND
  0
POLYLINE
  8
0
 66
1
 10
0.0
 20
0.0
 30
0.0
 70
8
  0
VERTEX
  8
0
 10
26000.0
 20
4000.0
 30
0.0
  0
VERTEX
  8
0
 10
25991.87642
 20
4010.44387
 30
0.0
  0
VERTEX
  8
0
 10
25991.87642
 20
4042.93647
 30
0.0
  0
VERTEX
  8
0
 10
26030.17059
 20
4042.93647
 30
0.0
  0
VERTEX
  8
0
 10
26038.29417
 20
4015.08616
 30
0.0
  0
VERTEX
  8
0
 10
26034.81288
 20
3996.51871
 30
0.0
  0
VERTEX
  8
0
 10
26025.53002
 20
4001.16101
 30
0.0
  0
VERTEX
  8
0
 10
26000.0
 20
4000.0
 30
0.0
  0
VERTEX
  8
0
 10
26000.0
 20
4000.0
 30
0.0
  0
SEQEND
  0
POLYLINE
  8
0
 66
1
 10
0.0
 20
0.0
 30
0.0
 70
8
  0
VERTEX
  8
0
 10
27000.0
 20
4000.0
 30
0.0
  0
VERTEX
  8
0
 10
26997.67798
 20
4102.11837
 30
0.0
  0
VERTEX
  8
0
 10
26947.78068
 20
4100.95735
 30
0.0
  0
VERTEX
  8
0
 10
26947.78068
 20
4000.0
 30
0.0
  0
VERTEX
  8
0
 10
27000.0
 20
4000.0
 30
0.0
  0
VERTEX
  8
0
 10
27000.0
 20
4000.0
 30
0.0
  0
SEQEND
  0
POLYLINE
  8
0
 66
1
 10
0.0
 20
0.0
 30
0.0
 70
8
  0
VERTEX
  8
0
 10
28000.0
 20
4000.0
 30
0.0
  0
VERTEX
  8
0
 10
28060.34291
 20
3996.51871
 30
0.0
  0
VERTEX
  8
0
 10
28062.66318
 20
4062.66318
 30
0.0
  0
VERTEX
  8
0
 10
28002.32028
 20
4063.8242
 30
0.0
  0
VERTEX
  8
0
 10
28000.0
 20
4000.0
 30
0.0
  0
VERTEX
  8
0
 10
28000.0
 20
4000.0
 30
0.0
  0
SEQEND
  0
POLYLINE
  8
0
 66
1
 10
0.0
 20
0.0
 30
0.0
 70
8
  0
VERTEX
  8
0
 10
29000.0
 20
4000.0
 30
0.0
  0
VERTEX
  8
0
 10
29001.16101
 20
4055.70061
 30
0.0
  0
VERTEX
  8
0
 10
29070.78677
 20
4052.21932
 30
0.0
  0
VERTEX
  8
0
 10
29071.94778
 20
3998.83899
 30
0.0
  0
VERTEX
  8
0
 10
29000.0
 20
4000.0
 30
0.0
  0
VERTEX
  8
0
 10
29000.0
 20
4000.0
 30
0.0
  0
SEQEND
  0
POLYLINE
  8
0
 66
1
 10
0.0
 20
0.0
 30
0.0
 70
8
  0
VERTEX
  8
0
 10
30000.0
 20
4000.0
 30
0.0
  0
VERTEX
  8
0
 10
29991.87816
 20
4042.93473
 30
0.0
  0
VERTEX
  8
0
 10
30004.6423
 20
4053.37859
 30
0.0
  0
VERTEX
  8
0
 10
30032.49261
 20
4053.37859
 30
0.0
  0
VERTEX
  8
0
 10
30029.01131
 20
4010.44387
 30
0.0
  0
VERTEX
  8
0
 10
30000.0
 20
4000.0
 30
0.0
  0
VERTEX
  8
0
 10
30000.0
 20
4000.0
 30
0.0
  0
SEQEND
  0
POLYLINE
  8
0
 66
1
 10
0.0
 20
0.0
 30
0.0
 70
8
  0
VERTEX
  8
0
 10
31000.0
 20
4000.0
 30
0.0
  0
VERTEX
  8
0
 10
31001.16101
 20
4093.99478
 30
0.0
  0
VERTEX
  8
0
 10
30975.63099
 20
4095.15579
 30
0.0
  0
VERTEX
  8
0
 10
30973.31071
 20
4000.0
 30
0.0
  0
VERTEX
  8
0
 10
31000.0
 20
4000.0
 30
0.0
  0
VERTEX
  8
0
 10
31000.0
 20
4000.0
 30
0.0
  0
SEQEND
  0
POLYLINE
  8
0
 66
1
 10
0.0
 20
0.0
 30
0.0
 70
8
  0
VERTEX
  8
0
 10
32000.0
 20
4000.0
 30
0.0
  0
VERTEX
  8
0
 10
32001.15927
 20
4039.4534400000002
 30
0.0
  0
VERTEX
  8
0
 10
31952.42123
 20
4040.61445
 30
0.0
  0
VERTEX
  8
0
 10
31955.90253
 20
3996.51871
 30
0.0
  0
VERTEX
  8
0
 10
32000.0
 20
4000.0
 30
0.0
  0
VERTEX
  8
0
 10
32000.0
 20
4000.0
 30
0.0
  0
SEQEND
  0
POLYLINE
  8
0
 66
1
 10
0.0
 20
0.0
 30
0.0
 70
8
  0
VERTEX
  8
0
 10
33000.0
 20
4000.0
 30
0.0
  0
VERTEX
  8
0
 10
32989.55613
 20
4081.2306399999998
 30
0.0
  0
VERTEX
  8
0
 10
32968.6684
 20
4081.2306399999998
 30
0.0
  0
VERTEX
  8
0
 10
32968.6684
 20
4048.73804
 30
0.0
  0
VERTEX
  8
0
 10
32962.86684
 20
4049.89904
 30
0.0
  0
VERTEX
  8
0
 10
32958.22454
 20
4002.32028
 30
0.0
  0
VERTEX
  8
0
 10
33000.0
 20
4000.0
 30
0.0
  0
VERTEX
  8
0
 10
33000.0
 20
4000.0
 30
0.0
  0
SEQEND
  0
POLYLINE
  8
0
 66
1
 10
0.0
 20
0.0
 30
0.0
 70
8
  0
VERTEX
  8
0
 10
34000.0
 20
4000.0
 30
0.0
  0
VERTEX
  8
0
 10
34035.97389
 20
3998.83899
 30
0.0
  0
VERTEX
  8
0
 10
34049.89904
 20
4012.76415
 30
0.0
  0
VERTEX
  8
0
 10
34048.73804
 20
4042.93647
 30
0.0
  0
VERTEX
  8
0
 10
33998.83899
 20
4045.25675
 30
0.0
  0
VERTEX
  8
0
 10
33994.19844
 20
4037.13316
 30
0.0
  0
VERTEX
  8
0
 10
33990.71715
 20
4009.28285
 30
0.0
  0
VERTEX
  8
0
 10
34000.0
 20
4000.0
 30
0.0
  0
VERTEX
  8
0
 10
34000.0
 20
4000.0
 30
0.0
  0
SEQEND
  0
POLYLINE
  8
0
 66
1
 10
0.0
 20
0.0
 30
0.0
 70
8
  0
VERTEX
  8
0
 10
35000.0
 20
4000.0
 30
0.0
  0
VERTEX
  8
0
 10
35000.0
 20
4082.3899
 30
0.0
  0
VERTEX
  8
0
 10
34954.74325
 20
4084.71193
 30
0.0
  0
VERTEX
  8
0
 10
34944.29939
 20
4030.17059
 30
0.0
  0
VERTEX
  8
0
 10
34967.50739
 20
3996.51871
 30
0.0
  0
VERTEX
  8
0
 10
35000.0
 20
4000.0
 30
0.0
  0
VERTEX
  8
0
 10
35000.0
 20
4000.0
 30
0.0
  0
SEQEND
  0
POLYLINE
  8
0
 66
1
 10
0.0
 20
0.0
 30
0.0
 70
8
  0
VERTEX
  8
0
 10
36000.0
 20
4000.0
 30
0.0
  0
VERTEX
  8
0
 10
36041.77546
 20
4004.64056
 30
0.0
  0
VERTEX
  8
0
 10
36044.09573
 20
4037.13316
 30
0.0
  0
VERTEX
  8
0
 10
36018.56571
 20
4047.57702
 30
0.0
  0
VERTEX
  8
0
 10
35997.67798
 20
4033.65187
 30
0.0
  0
VERTEX
  8
0
 10
36000.0
 20
4000.0
 30
0.0
  0
VERTEX
  8
0
 10
36000.0
 20
4000.0
 30
0.0
  0
SEQEND
  0
POLYLINE
  8
0
 66
1
 10
0.0
 20
0.0
 30
0.0
 70
8
  0
VERTEX
  8
0
 10
37000.0
 20
4000.0
 30
0.0
  0
VERTEX
  8
0
 10
37000.0
 20
4040.61619
 30
0.0
  0
VERTEX
  8
0
 10
37031.3316
 20
4040.61619
 30
0.0
  0
VERTEX
  8
0
 10
37033.65187
 20
4012.76588
 30
0.0
  0
VERTEX
  8
0
 10
37000.0
 20
4000.0
 30
0.0
  0
VERTEX
  8
0
 10
37000.0
 20
4000.0
 30
0.0
  0
SEQEND
  0
POLYLINE
  8
0
 66
1
 10
0.0
 20
0.0
 30
0.0
 70
8
  0
VERTEX
  8
0
 10
38000.0
 20
4000.0
 30
0.0
  0
VERTEX
  8
0
 10
38005.8033
 20
4052.21932
 30
0.0
  0
VERTEX
  8
0
 10
38077.74935
 20
4060.34291
 30
0.0
  0
VERTEX
  8
0
 10
38095.15579
 20
4033.65361
 30
0.0
  0
VERTEX
  8
0
 10
38088.19321
 20
4003.48129
 30
0.0
  0
VERTEX
  8
0
 10
38073.10705
 20
3990.71715
 30
0.0
  0
VERTEX
  8
0
 10
38035.97389
 20
3990.71715
 30
0.0
  0
VERTEX
  8
0
 10
38000.0
 20
4000.0
 30
0.0
  0
VERTEX
  8
0
 10
38000.0
 20
4000.0
 30
0.0
  0
SEQEND
  0
POLYLINE
  8
0
 66
1
 10
0.0
 20
0.0
 30
0.0
 70
8
  0
VERTEX
  8
0
 10
39000.0
 20
4000.0
 30
0.0
  0
VERTEX
  8
0
 10
39027.8503
 20
3984.91384
 30
0.0
  0
VERTEX
  8
0
 10
39054.5396
 20
3986.07484
 30
0.0
  0
VERTEX
  8
0
 10
39051.05831
 20
4017.40644
 30
0.0
  0
VERTEX
  8
0
 10
39045.25675
 20
4025.52828
 30
0.0
  0
VERTEX
  8
0
 10
39009.28285
 20
4025.52828
 30
0.0
  0
VERTEX
  8
0
 10
39003.48129
 20
4018.56571
 30
0.0
  0
VERTEX
  8
0
 10
39000.0
 20
4000.0
 30
0.0
  0
VERTEX
  8
0
 10
39000.0
 20
4000.0
 30
0.0
  0
SEQEND
  0
POLYLINE
  8
0
 66
1
 10
0.0
 20
0.0
 30
0.0
 70
8
  0
VERTEX
  8
0
 10
40000.0
 20
4000.0
 30
0.0
  0
VERTEX
  8
0
 10
40026.68929
 20
4026.68929
 30
0.0
  0
VERTEX
  8
0
 10
40027.8503
 20
4045.25675
 30
0.0
  0
VERTEX
  8
0
 10
40003.48129
 20
4063.8242
 30
0.0
  0
VERTEX
  8
0
 10
39962.86684
 20
4066.14447
 30
0.0
  0
VERTEX
  8
0
 10
39940.8181
 20
4041.77546
 30
0.0
  0
VERTEX
  8
0
 10
39939.65709
 20
4004.6423
 30
0.0
  0
VERTEX
  8
0
 10
40000.0
 20
4000.0
 30
0.0
  0
VERTEX
  8
0
 10
40000.0
 20
4000.0
 30
0.0
  0
SEQEND
  0
POLYLINE
  8
0
 66
1
 10
0.0
 20
0.0
 30
0.0
 70
8
  0
VERTEX
  8
0
 10
41000.0
 20
4000.0
 30
0.0
  0
VERTEX
  8
0
 10
41013.92516
 20
4016.24543
 30
0.0
  0
VERTEX
  8
0
 10
41018.56571
 20
4033.65187
 30
0.0
  0
VERTEX
  8
0
 10
40953.58225
 20
4032.49261
 30
0.0
  0
VERTEX
  8
0
 10
40943.13838
 20
4025.53002
 30
0.0
  0
VERTEX
  8
0
 10
40943.13838
 20
4000.0
 30
0.0
  0
VERTEX
  8
0
 10
41000.0
 20
4000.0
 30
0.0
  0
VERTEX
  8
0
 10
41000.0
 20
4000.0
 30
0.0
  0
SEQEND
  0
POLYLINE
  8
0
 66
1
 10
0.0
 20
0.0
 30
0.0
 70
8
  0
VERTEX
  8
0
 10
42000.0
 20
4000.0
 30
0.0
  0
VERTEX
  8
0
 10
41998.83899
 20
4071.94604
 30
0.0
  0
VERTEX
  8
0
 10
42008.12358
 20
4085.8712
 30
0.0
  0
VERTEX
  8
0
 10
42068.46476
 20
4087.03221
 30
0.0
  0
VERTEX
  8
0
 10
42059.1819
 20
4002.32028
 30
0.0
  0
VERTEX
  8
0
 10
42000.0
 20
4000.0
 30
0.0
  0
VERTEX
  8
0
 10
42000.0
 20
4000.0
 30
0.0
  0
SEQEND
  0
POLYLINE
  8
0
 66
1
 10
0.0
 20
0.0
 30
0.0
 70
8
  0
VERTEX
  8
0
 10
43000.0
 20
4000.0
 30
0.0
  0
VERTEX
  8
0
 10
42993.03743
 20
4009.28285
 30
0.0
  0
VERTEX
  8
0
 10
43003.48129
 20
4024.36901
 30
0.0
  0
VERTEX
  8
0
 10
43061.50218
 20
4020.88773
 30
0.0
  0
VERTEX
  8
0
 10
43063.82245
 20
4002.32028
 30
0.0
  0
VERTEX
  8
0
 10
43054.5396
 20
3995.3577
 30
0.0
  0
VERTEX
  8
0
 10
43000.0
 20
4000.0
 30
0.0
  0
VERTEX
  8
0
 10
43000.0
 20
4000.0
 30
0.0
  0
SEQEND
  0
POLYLINE
  8
0
 66
1
 10
0.0
 20
0.0
 30
0.0
 70
8
  0
VERTEX
  8
0
 10
44000.0
 20
4000.0
 30
0.0
  0
VERTEX
  8
0
 10
44002.32028
 20
4082.3899
 30
0.0
  0
VERTEX
  8
0
 10
43988.39513
 20
4095.15405
 30
0.0
  0
VERTEX
  8
0
 10
43911.80679
 20
4092.83377
 30
0.0
  0
VERTEX
  8
0
 10
43972.1497
 20
3998.83899
 30
0.0
  0
VERTEX
  8
0
 10
44000.0
 20
4000.0
 30
0.0
  0
VERTEX
  8
0
 10
44000.0
 20
4000.0
 30
0.0
  0
SEQEND
  0
POLYLINE
  8
0
 66
1
 10
0.0
 20
0.0
 30
0.0
 70
8
  0
VERTEX
  8
0
 10
45000.0
 20
4000.0
 30
0.0
  0
VERTEX
  8
0
 10
45000.0
 20
4025.53002
 30
0.0
  0
VERTEX
  8
0
 10
44962.86684
 20
4026.69103
 30
0.0
  0
VERTEX
  8
0
 10
44961.70583
 20
4001.16101
 30
0.0
  0
VERTEX
  8
0
 10
45000.0
 20
4000.0
 30
0.0
  0
VERTEX
  8
0
 10
45000.0
 20
4000.0
 30
0.0
  0
SEQEND
  0
POLYLINE
  8
0
 66
1
 10
0.0
 20
0.0
 30
0.0
 70
8
  0
VERTEX
  8
0
 10
46000.0
 20
4000.0
 30
0.0
  0
VERTEX
  8
0
 10
46003.48129
 20
4092.83551
 30
0.0
  0
VERTEX
  8
0
 10
45940.8181
 20
4092.83551
 30
0.0
  0
VERTEX
  8
0
 10
45931.53524
 20
4081.2306399999998
 30
0.0
  0
VERTEX
  8
0
 10
45937.33682
 20
4061.50391
 30
0.0
  0
VERTEX
  8
0
 10
45935.01653
 20
4032.49261
 30
0.0
  0
VERTEX
  8
0
 10
45973.31071
 20
3997.67972
 30
0.0
  0
VERTEX
  8
0
 10
46000.0
 20
4000.0
 30
0.0
  0
VERTEX
  8
0
 10
46000.0
 20
4000.0
 30
0.0
  0
SEQEND
  0
POLYLINE
  8
0
 66
1
 10
0.0
 20
0.0
 30
0.0
 70
8
  0
VERTEX
  8
0
 10
47000.0
 20
4000.0
 30
0.0
  0
VERTEX
  8
0
 10
47004.6423
 20
4135.77023
 30
0.0
  0
VERTEX
  8
0
 10
47134.60923
 20
4132.28895
 30
0.0
  0
VERTEX
  8
0
 10
47155.49696
 20
4073.10705
 30
0.0
  0
VERTEX
  8
0
 10
47155.49696
 20
4035.97389
 30
0.0
  0
VERTEX
  8
0
 10
47133.44996
 20
4016.24543
 30
0.0
  0
VERTEX
  8
0
 10
47096.31506
 20
4016.24543
 30
0.0
  0
VERTEX
  8
0
 10
47083.55092
 20
3997.67972
 30
0.0
  0
VERTEX
  8
0
 10
47054.5396
 20
3977.95126
 30
0.0
  0
VERTEX
  8
0
 10
47025.53002
 20
3977.95126
 30
0.0
  0
VERTEX
  8
0
 10
47000.0
 20
4000.0
 30
0.0
  0
VERTEX
  8
0
 10
47000.0
 20
4000.0
 30
0.0
  0
SEQEND
  0
POLYLINE
  8
0
 66
1
 10
0.0
 20
0.0
 30
0.0
 70
8
  0
VERTEX
  8
0
 10
48000.0
 20
4000.0
 30
0.0
  0
VERTEX
  8
0
 10
48002.32028
 20
4067.30374
 30
0.0
  0
VERTEX
  8
0
 10
48068.46476
 20
4067.30374
 30
0.0
  0
VERTEX
  8
0
 10
48068.46476
 20
4058.02089
 30
0.0
  0
VERTEX
  8
0
 10
48047.57702
 20
4045.25675
 30
0.0
  0
VERTEX
  8
0
 10
48033.65187
 20
4003.48129
 30
0.0
  0
VERTEX
  8
0
 10
48000.0
 20
4000.0
 30
0.0
  0
VERTEX
  8
0
 10
48000.0
 20
4000.0
 30
0.0
  0
SEQEND
  0
POLYLINE
  8
0
 66
1
 10
0.0
 20
0.0
 30
0.0
 70
8
  0
VERTEX
  8
0
 10
0.0
 20
4000.0
 30
0.0
  0
VERTEX
  8
0
 10
2.3202800000000003
 20
4041.77546
 30
0.0
  0
VERTEX
  8
0
 10
47.577020000000005
 20
4041.77546
 30
0.0
  0
VERTEX
  8
0
 10
40.61445
 20
4002.32028
 30
0.0
  0
VERTEX
  8
0
 10
0.0
 20
4000.0
 30
0.0
  0
VERTEX
  8
0
 10
0.0
 20
4000.0
 30
0.0
  0
SEQEND
  0
POLYLINE
  8
0
 66
1
 10
0.0
 20
0.0
 30
0.0
 70
8
  0
VERTEX
  8
0
 10
1000.0
 20
5000.0
 30
0.0
  0
VERTEX
  8
0
 10
1056.82506
 20
4996.65274
 30
0.0
  0
VERTEX
  8
0
 10
1062.66318
 20
5017.40644
 30
0.0
  0
VERTEX
  8
0
 10
1035.97215
 20
5042.93473
 30
0.0
  0
VERTEX
  8
0
 10
1000.0
 20
5033.65187
 30
0.0
  0
VERTEX
  8
0
 10
1000.0
 20
5000.0
 30
0.0
  0
VERTEX
  8
0
 10
1000.0
 20
5000.0
 30
0.0
  0
SEQEND
  0
POLYLINE
  8
0
 66
1
 10
0.0
 20
0.0
 30
0.0
 70
8
  0
VERTEX
  8
0
 10
2000.0
 20
5000.0
 30
0.0
  0
VERTEX
  8
0
 10
2000.0
 20
5035.97389
 30
0.0
  0
VERTEX
  8
0
 10
2027.8503
 20
5054.54134
 30
0.0
  0
VERTEX
  8
0
 10
2046.41602
 20
5054.54134
 30
0.0
  0
VERTEX
  8
0
 10
2047.57702
 20
5010.44387
 30
0.0
  0
VERTEX
  8
0
 10
2000.0
 20
5000.0
 30
0.0
  0
VERTEX
  8
0
 10
2000.0
 20
5000.0
 30
0.0
  0
SEQEND
  0
POLYLINE
  8
0
 66
1
 10
0.0
 20
0.0
 30
0.0
 70
8
  0
VERTEX
  8
0
 10
3000.0
 20
5000.0
 30
0.0
  0
VERTEX
  8
0
 10
3047.57877
 20
5000.0
 30
0.0
  0
VERTEX
  8
0
 10
3048.73804
 20
5029.01131
 30
0.0
  0
VERTEX
  8
0
 10
3030.17232
 20
5047.57702
 30
0.0
  0
VERTEX
  8
0
 10
3000.0
 20
5056.86162
 30
0.0
  0
VERTEX
  8
0
 10
2994.19844
 20
5047.57702
 30
0.0
  0
VERTEX
  8
0
 10
3000.0
 20
5000.0
 30
0.0
  0
VERTEX
  8
0
 10
3000.0
 20
5000.0
 30
0.0
  0
SEQEND
  0
POLYLINE
  8
0
 66
1
 10
0.0
 20
0.0
 30
0.0
 70
8
  0
VERTEX
  8
0
 10
4000.0
 20
5000.0
 30
0.0
  0
VERTEX
  8
0
 10
4012.76588
 20
5052.21932
 30
0.0
  0
VERTEX
  8
0
 10
4054.54134
 20
5049.89731
 30
0.0
  0
VERTEX
  8
0
 10
4074.26806
 20
5018.56571
 30
0.0
  0
VERTEX
  8
0
 10
4074.26806
 20
5002.32028
 30
0.0
  0
VERTEX
  8
0
 10
4047.57877
 20
4994.1967
 30
0.0
  0
VERTEX
  8
0
 10
4004.6423
 20
5001.15927
 30
0.0
  0
VERTEX
  8
0
 10
4000.0
 20
5000.0
 30
0.0
  0
VERTEX
  8
0
 10
4000.0
 20
5000.0
 30
0.0
  0
SEQEND
  0
POLYLINE
  8
0
 66
1
 10
0.0
 20
0.0
 30
0.0
 70
8
  0
VERTEX
  8
0
 10
5000.0
 20
5000.0
 30
0.0
  0
VERTEX
  8
0
 10
4996.51871
 20
5039.45518
 30
0.0
  0
VERTEX
  8
0
 10
5023.208
 20
5055.70061
 30
0.0
  0
VERTEX
  8
0
 10
5045.25675
 20
5049.89904
 30
0.0
  0
VERTEX
  8
0
 10
5055.70061
 20
5031.3316
 30
0.0
  0
VERTEX
  8
0
 10
5053.38033
 20
5001.16101
 30
0.0
  0
VERTEX
  8
0
 10
5000.0
 20
5000.0
 30
0.0
  0
VERTEX
  8
0
 10
5000.0
 20
5000.0
 30
0.0
  0
SEQEND
  0
POLYLINE
  8
0
 66
1
 10
0.0
 20
0.0
 30
0.0
 70
8
  0
VERTEX
  8
0
 10
6000.0
 20
5000.0
 30
0.0
  0
VERTEX
  8
0
 10
6002.32028
 20
5040.61619
 30
0.0
  0
VERTEX
  8
0
 10
5969.82768
 20
5040.61619
 30
0.0
  0
VERTEX
  8
0
 10
5960.54482
 20
5006.96257
 30
0.0
  0
VERTEX
  8
0
 10
6000.0
 20
5000.0
 30
0.0
  0
VERTEX
  8
0
 10
6000.0
 20
5000.0
 30
0.0
  0
SEQEND
  0
POLYLINE
  8
0
 66
1
 10
0.0
 20
0.0
 30
0.0
 70
8
  0
VERTEX
  8
0
 10
7000.0
 20
5000.0
 30
0.0
  0
VERTEX
  8
0
 10
7001.16101
 20
5070.78677
 30
0.0
  0
VERTEX
  8
0
 10
7015.08616
 20
5068.46476
 30
0.0
  0
VERTEX
  8
0
 10
7023.20975
 20
5049.89904
 30
0.0
  0
VERTEX
  8
0
 10
7055.70061
 20
5031.3316
 30
0.0
  0
VERTEX
  8
0
 10
7033.65361
 20
4996.51871
 30
0.0
  0
VERTEX
  8
0
 10
7000.0
 20
5000.0
 30
0.0
  0
VERTEX
  8
0
 10
7000.0
 20
5000.0
 30
0.0
  0
SEQEND
  0
POLYLINE
  8
0
 66
1
 10
0.0
 20
0.0
 30
0.0
 70
8
  0
VERTEX
  8
0
 10
8000.0
 20
5000.0
 30
0.0
  0
VERTEX
  8
0
 10
7995.3577
 20
5011.60313
 30
0.0
  0
VERTEX
  8
0
 10
8003.48129
 20
5060.34116
 30
0.0
  0
VERTEX
  8
0
 10
8027.8503
 20
5060.34116
 30
0.0
  0
VERTEX
  8
0
 10
8061.50218
 20
5049.89731
 30
0.0
  0
VERTEX
  8
0
 10
8080.06963
 20
4998.83899
 30
0.0
  0
VERTEX
  8
0
 10
8064.98347
 20
4990.71541
 30
0.0
  0
VERTEX
  8
0
 10
8000.0
 20
5000.0
 30
0.0
  0
VERTEX
  8
0
 10
8000.0
 20
5000.0
 30
0.0
  0
SEQEND
  0
POLYLINE
  8
0
 66
1
 10
0.0
 20
0.0
 30
0.0
 70
8
  0
VERTEX
  8
0
 10
9000.0
 20
5000.0
 30
0.0
  0
VERTEX
  8
0
 10
8995.35944
 20
5006.96257
 30
0.0
  0
VERTEX
  8
0
 10
9000.0
 20
5052.21932
 30
0.0
  0
VERTEX
  8
0
 10
9032.49261
 20
5064.98347
 30
0.0
  0
VERTEX
  8
0
 10
9062.66318
 20
5051.05831
 30
0.0
  0
VERTEX
  8
0
 10
9059.1819
 20
5008.12184
 30
0.0
  0
VERTEX
  8
0
 10
9051.06006
 20
5000.0
 30
0.0
  0
VERTEX
  8
0
 10
9000.0
 20
5000.0
 30
0.0
  0
VERTEX
  8
0
 10
9000.0
 20
5000.0
 30
0.0
  0
SEQEND
  0
POLYLINE
  8
0
 66
1
 10
0.0
 20
0.0
 30
0.0
 70
8
  0
VERTEX
  8
0
 10
10000.0
 20
5000.0
 30
0.0
  0
VERTEX
  8
0
 10
9997.67798
 20
5033.65361
 30
0.0
  0
VERTEX
  8
0
 10
10008.12184
 20
5052.21932
 30
0.0
  0
VERTEX
  8
0
 10
10034.81288
 20
5069.62576
 30
0.0
  0
VERTEX
  8
0
 10
10064.98347
 20
5067.30549
 30
0.0
  0
VERTEX
  8
0
 10
10076.58834
 20
5055.70061
 30
0.0
  0
VERTEX
  8
0
 10
10071.94604
 20
4995.35944
 30
0.0
  0
VERTEX
  8
0
 10
10000.0
 20
5000.0
 30
0.0
  0
VERTEX
  8
0
 10
10000.0
 20
5000.0
 30
0.0
  0
SEQEND
  0
POLYLINE
  8
0
 66
1
 10
0.0
 20
0.0
 30
0.0
 70
8
  0
VERTEX
  8
0
 10
11000.0
 20
5000.0
 30
0.0
  0
VERTEX
  8
0
 10
11003.48129
 20
5015.08616
 30
0.0
  0
VERTEX
  8
0
 10
11032.49086
 20
5027.8503
 30
0.0
  0
VERTEX
  8
0
 10
11132.28895
 20
5027.8503
 30
0.0
  0
VERTEX
  8
0
 10
11132.28895
 20
4996.51871
 30
0.0
  0
VERTEX
  8
0
 10
11000.0
 20
5000.0
 30
0.0
  0
VERTEX
  8
0
 10
11000.0
 20
5000.0
 30
0.0
  0
SEQEND
  0
POLYLINE
  8
0
 66
1
 10
0.0
 20
0.0
 30
0.0
 70
8
  0
VERTEX
  8
0
 10
12000.0
 20
5000.0
 30
0.0
  0
VERTEX
  8
0
 10
12006.96257
 20
4984.91384
 30
0.0
  0
VERTEX
  8
0
 10
12056.86162
 20
4981.43255
 30
0.0
  0
VERTEX
  8
0
 10
12080.06963
 20
4995.3577
 30
0.0
  0
VERTEX
  8
0
 10
12098.63708
 20
5012.76415
 30
0.0
  0
VERTEX
  8
0
 10
12112.56223
 20
5040.61445
 30
0.0
  0
VERTEX
  8
0
 10
12112.56223
 20
5083.55092
 30
0.0
  0
VERTEX
  8
0
 10
12017.40644
 20
5087.03221
 30
0.0
  0
VERTEX
  8
0
 10
12000.0
 20
5075.42733
 30
0.0
  0
VERTEX
  8
0
 10
12000.0
 20
5000.0
 30
0.0
  0
VERTEX
  8
0
 10
12000.0
 20
5000.0
 30
0.0
  0
SEQEND
  0
POLYLINE
  8
0
 66
1
 10
0.0
 20
0.0
 30
0.0
 70
8
  0
VERTEX
  8
0
 10
13000.0
 20
5000.0
 30
0.0
  0
VERTEX
  8
0
 10
13002.32202
 20
5048.73804
 30
0.0
  0
VERTEX
  8
0
 10
13020.88773
 20
5052.21932
 30
0.0
  0
VERTEX
  8
0
 10
13026.69103
 20
5058.02089
 30
0.0
  0
VERTEX
  8
0
 10
13056.86162
 20
5056.86162
 30
0.0
  0
VERTEX
  8
0
 10
13062.66318
 20
5033.65187
 30
0.0
  0
VERTEX
  8
0
 10
13053.38033
 20
5032.49261
 30
0.0
  0
VERTEX
  8
0
 10
13053.38033
 20
5008.12358
 30
0.0
  0
VERTEX
  8
0
 10
13026.69103
 20
4994.19844
 30
0.0
  0
VERTEX
  8
0
 10
13000.0
 20
5000.0
 30
0.0
  0
VERTEX
  8
0
 10
13000.0
 20
5000.0
 30
0.0
  0
SEQEND
  0
POLYLINE
  8
0
 66
1
 10
0.0
 20
0.0
 30
0.0
 70
8
  0
VERTEX
  8
0
 10
14000.0
 20
5000.0
 30
0.0
  0
VERTEX
  8
0
 10
13975.63099
 20
5029.01131
 30
0.0
  0
VERTEX
  8
0
 10
13977.953
 20
5074.26806
 30
0.0
  0
VERTEX
  8
0
 10
13967.50914
 20
5093.99478
 30
0.0
  0
VERTEX
  8
0
 10
13984.91558
 20
5105.59966
 30
0.0
  0
VERTEX
  8
0
 10
14044.09747
 20
5107.91993
 30
0.0
  0
VERTEX
  8
0
 10
14056.86162
 20
5092.83377
 30
0.0
  0
VERTEX
  8
0
 10
14049.89904
 20
5027.8503
 30
0.0
  0
VERTEX
  8
0
 10
14000.0
 20
5000.0
 30
0.0
  0
VERTEX
  8
0
 10
14000.0
 20
5000.0
 30
0.0
  0
SEQEND
  0
POLYLINE
  8
0
 66
1
 10
0.0
 20
0.0
 30
0.0
 70
8
  0
VERTEX
  8
0
 10
15000.0
 20
5000.0
 30
0.0
  0
VERTEX
  8
0
 10
15006.96257
 20
5023.20975
 30
0.0
  0
VERTEX
  8
0
 10
14995.35944
 20
5044.09747
 30
0.0
  0
VERTEX
  8
0
 10
14943.14012
 20
5044.09747
 30
0.0
  0
VERTEX
  8
0
 10
14937.33682
 20
5023.20975
 30
0.0
  0
VERTEX
  8
0
 10
14947.78068
 20
4997.67972
 30
0.0
  0
VERTEX
  8
0
 10
15000.0
 20
5000.0
 30
0.0
  0
VERTEX
  8
0
 10
15000.0
 20
5000.0
 30
0.0
  0
SEQEND
  0
POLYLINE
  8
0
 66
1
 10
0.0
 20
0.0
 30
0.0
 70
8
  0
VERTEX
  8
0
 10
16000.0
 20
5000.0
 30
0.0
  0
VERTEX
  8
0
 10
15901.36292
 20
4996.51871
 30
0.0
  0
VERTEX
  8
0
 10
15928.05222
 20
4916.44908
 30
0.0
  0
VERTEX
  8
0
 10
15939.65709
 20
4908.3255
 30
0.0
  0
VERTEX
  8
0
 10
15973.30897
 20
4924.57093
 30
0.0
  0
VERTEX
  8
0
 10
15973.30897
 20
4951.26196
 30
0.0
  0
VERTEX
  8
0
 10
15970.98869
 20
4961.70583
 30
0.0
  0
VERTEX
  8
0
 10
15998.83899
 20
4974.46998
 30
0.0
  0
VERTEX
  8
0
 10
16000.0
 20
5000.0
 30
0.0
  0
VERTEX
  8
0
 10
16000.0
 20
5000.0
 30
0.0
  0
SEQEND
  0
POLYLINE
  8
0
 66
1
 10
0.0
 20
0.0
 30
0.0
 70
8
  0
VERTEX
  8
0
 10
17000.0
 20
5000.0
 30
0.0
  0
VERTEX
  8
0
 10
17026.68929
 20
5000.0
 30
0.0
  0
VERTEX
  8
0
 10
17034.81288
 20
5026.68929
 30
0.0
  0
VERTEX
  8
0
 10
17055.70061
 20
5031.3316
 30
0.0
  0
VERTEX
  8
0
 10
17053.37859
 20
5083.55092
 30
0.0
  0
VERTEX
  8
0
 10
16988.39513
 20
5082.3899
 30
0.0
  0
VERTEX
  8
0
 10
17000.0
 20
5000.0
 30
0.0
  0
VERTEX
  8
0
 10
17000.0
 20
5000.0
 30
0.0
  0
SEQEND
  0
POLYLINE
  8
0
 66
1
 10
0.0
 20
0.0
 30
0.0
 70
8
  0
VERTEX
  8
0
 10
18000.0
 20
5000.0
 30
0.0
  0
VERTEX
  8
0
 10
18029.01131
 20
5033.65361
 30
0.0
  0
VERTEX
  8
0
 10
18026.68929
 20
5088.19321
 30
0.0
  0
VERTEX
  8
0
 10
17980.27328
 20
5085.87293
 30
0.0
  0
VERTEX
  8
0
 10
17977.95126
 20
5003.48129
 30
0.0
  0
VERTEX
  8
0
 10
18000.0
 20
5000.0
 30
0.0
  0
VERTEX
  8
0
 10
18000.0
 20
5000.0
 30
0.0
  0
SEQEND
  0
POLYLINE
  8
0
 66
1
 10
0.0
 20
0.0
 30
0.0
 70
8
  0
VERTEX
  8
0
 10
19000.0
 20
5000.0
 30
0.0
  0
VERTEX
  8
0
 10
19030.17059
 20
4997.67798
 30
0.0
  0
VERTEX
  8
0
 10
19048.73804
 20
5023.208
 30
0.0
  0
VERTEX
  8
0
 10
19048.73804
 20
5035.97215
 30
0.0
  0
VERTEX
  8
0
 10
19012.76415
 20
5035.97215
 30
0.0
  0
VERTEX
  8
0
 10
18996.51871
 20
5020.88773
 30
0.0
  0
VERTEX
  8
0
 10
19000.0
 20
5000.0
 30
0.0
  0
VERTEX
  8
0
 10
19000.0
 20
5000.0
 30
0.0
  0
SEQEND
  0
POLYLINE
  8
0
 66
1
 10
0.0
 20
0.0
 30
0.0
 70
8
  0
VERTEX
  8
0
 10
20000.0
 20
5000.0
 30
0.0
  0
VERTEX
  8
0
 10
19993.03743
 20
5118.36379
 30
0.0
  0
VERTEX
  8
0
 10
20004.64056
 20
5132.28895
 30
0.0
  0
VERTEX
  8
0
 10
20059.1819
 20
5135.77023
 30
0.0
  0
VERTEX
  8
0
 10
20071.94604
 20
5110.24195
 30
0.0
  0
VERTEX
  8
0
 10
20073.10705
 20
5084.71193
 30
0.0
  0
VERTEX
  8
0
 10
20063.82245
 20
5071.94778
 30
0.0
  0
VERTEX
  8
0
 10
20058.02089
 20
5053.38033
 30
0.0
  0
VERTEX
  8
0
 10
20080.06963
 20
5040.61619
 30
0.0
  0
VERTEX
  8
0
 10
20091.67276
 20
5020.88773
 30
0.0
  0
VERTEX
  8
0
 10
20070.78503
 20
5002.32202
 30
0.0
  0
VERTEX
  8
0
 10
20000.0
 20
5000.0
 30
0.0
  0
VERTEX
  8
0
 10
20000.0
 20
5000.0
 30
0.0
  0
SEQEND
  0
POLYLINE
  8
0
 66
1
 10
0.0
 20
0.0
 30
0.0
 70
8
  0
VERTEX
  8
0
 10
21000.0
 20
5000.0
 30
0.0
  0
VERTEX
  8
0
 10
20995.35944
 20
5076.58834
 30
0.0
  0
VERTEX
  8
0
 10
20930.37424
 20
5074.26632
 30
0.0
  0
VERTEX
  8
0
 10
20930.37424
 20
5062.66318
 30
0.0
  0
VERTEX
  8
0
 10
20966.34813
 20
4996.51871
 30
0.0
  0
VERTEX
  8
0
 10
21000.0
 20
5000.0
 30
0.0
  0
VERTEX
  8
0
 10
21000.0
 20
5000.0
 30
0.0
  0
SEQEND
  0
POLYLINE
  8
0
 66
1
 10
0.0
 20
0.0
 30
0.0
 70
8
  0
VERTEX
  8
0
 10
22000.0
 20
5000.0
 30
0.0
  0
VERTEX
  8
0
 10
21995.3577
 20
5083.55092
 30
0.0
  0
VERTEX
  8
0
 10
21976.792
 20
5083.55092
 30
0.0
  0
VERTEX
  8
0
 10
21946.61967
 20
5035.97389
 30
0.0
  0
VERTEX
  8
0
 10
21947.78068
 20
4998.84073
 30
0.0
  0
VERTEX
  8
0
 10
22000.0
 20
5000.0
 30
0.0
  0
VERTEX
  8
0
 10
22000.0
 20
5000.0
 30
0.0
  0
SEQEND
  0
POLYLINE
  8
0
 66
1
 10
0.0
 20
0.0
 30
0.0
 70
8
  0
VERTEX
  8
0
 10
23000.0
 20
5000.0
 30
0.0
  0
VERTEX
  8
0
 10
23008.12184
 20
5070.78677
 30
0.0
  0
VERTEX
  8
0
 10
23012.76415
 20
5077.74935
 30
0.0
  0
VERTEX
  8
0
 10
23066.14447
 20
5076.58834
 30
0.0
  0
VERTEX
  8
0
 10
23054.5396
 20
5063.8242
 30
0.0
  0
VERTEX
  8
0
 10
23074.26632
 20
5000.0
 30
0.0
  0
VERTEX
  8
0
 10
23000.0
 20
5000.0
 30
0.0
  0
VERTEX
  8
0
 10
23000.0
 20
5000.0
 30
0.0
  0
SEQEND
  0
POLYLINE
  8
0
 66
1
 10
0.0
 20
0.0
 30
0.0
 70
8
  0
VERTEX
  8
0
 10
24000.0
 20
5000.0
 30
0.0
  0
VERTEX
  8
0
 10
24000.0
 20
5034.81288
 30
0.0
  0
VERTEX
  8
0
 10
23995.3577
 20
5044.09573
 30
0.0
  0
VERTEX
  8
0
 10
23938.49782
 20
5046.41775
 30
0.0
  0
VERTEX
  8
0
 10
23922.25065
 20
5025.53002
 30
0.0
  0
VERTEX
  8
0
 10
23928.05396
 20
5003.48129
 30
0.0
  0
VERTEX
  8
0
 10
24000.0
 20
5000.0
 30
0.0
  0
VERTEX
  8
0
 10
24000.0
 20
5000.0
 30
0.0
  0
SEQEND
  0
POLYLINE
  8
0
 66
1
 10
0.0
 20
0.0
 30
0.0
 70
8
  0
VERTEX
  8
0
 10
25000.0
 20
5000.0
 30
0.0
  0
VERTEX
  8
0
 10
25076.58834
 20
4996.51871
 30
0.0
  0
VERTEX
  8
0
 10
25077.74935
 20
5031.3316
 30
0.0
  0
VERTEX
  8
0
 10
25068.46649
 20
5045.25675
 30
0.0
  0
VERTEX
  8
0
 10
25059.1819
 20
5045.25675
 30
0.0
  0
VERTEX
  8
0
 10
25052.21932
 20
5041.77546
 30
0.0
  0
VERTEX
  8
0
 10
25041.77546
 20
5048.73804
 30
0.0
  0
VERTEX
  8
0
 10
25013.92516
 20
5047.57877
 30
0.0
  0
VERTEX
  8
0
 10
24998.84073
 20
5031.3316
 30
0.0
  0
VERTEX
  8
0
 10
25000.0
 20
5000.0
 30
0.0
  0
VERTEX
  8
0
 10
25000.0
 20
5000.0
 30
0.0
  0
SEQEND
  0
POLYLINE
  8
0
 66
1
 10
0.0
 20
0.0
 30
0.0
 70
8
  0
VERTEX
  8
0
 10
26000.0
 20
5000.0
 30
0.0
  0
VERTEX
  8
0
 10
25997.67972
 20
5026.68929
 30
0.0
  0
VERTEX
  8
0
 10
25977.953
 20
5037.13316
 30
0.0
  0
VERTEX
  8
0
 10
25958.22454
 20
5039.45344
 30
0.0
  0
VERTEX
  8
0
 10
25931.53524
 20
5029.00958
 30
0.0
  0
VERTEX
  8
0
 10
25921.09139
 20
5018.56571
 30
0.0
  0
VERTEX
  8
0
 10
25925.73368
 20
4998.83899
 30
0.0
  0
VERTEX
  8
0
 10
26000.0
 20
5000.0
 30
0.0
  0
VERTEX
  8
0
 10
26000.0
 20
5000.0
 30
0.0
  0
SEQEND
  0
POLYLINE
  8
0
 66
1
 10
0.0
 20
0.0
 30
0.0
 70
8
  0
VERTEX
  8
0
 10
27000.0
 20
5000.0
 30
0.0
  0
VERTEX
  8
0
 10
27000.0
 20
5034.81288
 30
0.0
  0
VERTEX
  8
0
 10
27071.94778
 20
5031.3316
 30
0.0
  0
VERTEX
  8
0
 10
27051.06006
 20
4998.83899
 30
0.0
  0
VERTEX
  8
0
 10
27000.0
 20
5000.0
 30
0.0
  0
VERTEX
  8
0
 10
27000.0
 20
5000.0
 30
0.0
  0
SEQEND
  0
POLYLINE
  8
0
 66
1
 10
0.0
 20
0.0
 30
0.0
 70
8
  0
VERTEX
  8
0
 10
28000.0
 20
5000.0
 30
0.0
  0
VERTEX
  8
0
 10
28003.48129
 20
5030.17232
 30
0.0
  0
VERTEX
  8
0
 10
27935.01653
 20
5032.49261
 30
0.0
  0
VERTEX
  8
0
 10
27929.21323
 20
5001.16101
 30
0.0
  0
VERTEX
  8
0
 10
27962.86684
 20
4998.84073
 30
0.0
  0
VERTEX
  8
0
 10
27973.31071
 20
4991.87816
 30
0.0
  0
VERTEX
  8
0
 10
28000.0
 20
5000.0
 30
0.0
  0
VERTEX
  8
0
 10
28000.0
 20
5000.0
 30
0.0
  0
SEQEND
  0
POLYLINE
  8
0
 66
1
 10
0.0
 20
0.0
 30
0.0
 70
8
  0
VERTEX
  8
0
 10
29000.0
 20
5000.0
 30
0.0
  0
VERTEX
  8
0
 10
29000.0
 20
5034.81288
 30
0.0
  0
VERTEX
  8
0
 10
28958.22454
 20
5032.49086
 30
0.0
  0
VERTEX
  8
0
 10
28953.58398
 20
5024.36901
 30
0.0
  0
VERTEX
  8
0
 10
28948.94169
 20
5000.0
 30
0.0
  0
VERTEX
  8
0
 10
28955.90427
 20
4995.3577
 30
0.0
  0
VERTEX
  8
0
 10
29000.0
 20
5000.0
 30
0.0
  0
VERTEX
  8
0
 10
29000.0
 20
5000.0
 30
0.0
  0
SEQEND
  0
POLYLINE
  8
0
 66
1
 10
0.0
 20
0.0
 30
0.0
 70
8
  0
VERTEX
  8
0
 10
30000.0
 20
5000.0
 30
0.0
  0
VERTEX
  8
0
 10
30006.96257
 20
5019.72846
 30
0.0
  0
VERTEX
  8
0
 10
29968.6684
 20
5030.17232
 30
0.0
  0
VERTEX
  8
0
 10
29946.62141
 20
5013.92516
 30
0.0
  0
VERTEX
  8
0
 10
29953.58398
 20
5000.0
 30
0.0
  0
VERTEX
  8
0
 10
29967.50914
 20
4988.39687
 30
0.0
  0
VERTEX
  8
0
 10
30000.0
 20
5000.0
 30
0.0
  0
VERTEX
  8
0
 10
30000.0
 20
5000.0
 30
0.0
  0
SEQEND
  0
POLYLINE
  8
0
 66
1
 10
0.0
 20
0.0
 30
0.0
 70
8
  0
VERTEX
  8
0
 10
31000.0
 20
5000.0
 30
0.0
  0
VERTEX
  8
0
 10
31010.44387
 20
5041.77546
 30
0.0
  0
VERTEX
  8
0
 10
31020.88773
 20
5051.05831
 30
0.0
  0
VERTEX
  8
0
 10
31060.34291
 20
5051.05831
 30
0.0
  0
VERTEX
  8
0
 10
31073.10705
 20
5029.01131
 30
0.0
  0
VERTEX
  8
0
 10
31073.10705
 20
5011.60487
 30
0.0
  0
VERTEX
  8
0
 10
31046.41775
 20
4995.3577
 30
0.0
  0
VERTEX
  8
0
 10
31000.0
 20
5000.0
 30
0.0
  0
VERTEX
  8
0
 10
31000.0
 20
5000.0
 30
0.0
  0
SEQEND
  0
POLYLINE
  8
0
 66
1
 10
0.0
 20
0.0
 30
0.0
 70
8
  0
VERTEX
  8
0
 10
32000.0
 20
5000.0
 30
0.0
  0
VERTEX
  8
0
 10
31997.67972
 20
5054.54134
 30
0.0
  0
VERTEX
  8
0
 10
32009.28459
 20
5068.46649
 30
0.0
  0
VERTEX
  8
0
 10
32102.11837
 20
5069.62576
 30
0.0
  0
VERTEX
  8
0
 10
32083.55092
 20
5040.61619
 30
0.0
  0
VERTEX
  8
0
 10
32034.81288
 20
5001.16101
 30
0.0
  0
VERTEX
  8
0
 10
32000.0
 20
5000.0
 30
0.0
  0
VERTEX
  8
0
 10
32000.0
 20
5000.0
 30
0.0
  0
SEQEND
  0
POLYLINE
  8
0
 66
1
 10
0.0
 20
0.0
 30
0.0
 70
8
  0
VERTEX
  8
0
 10
33000.0
 20
5000.0
 30
0.0
  0
VERTEX
  8
0
 10
32997.67798
 20
5012.76415
 30
0.0
  0
VERTEX
  8
0
 10
33024.94865
 20
5038.29417
 30
0.0
  0
VERTEX
  8
0
 10
33034.23151
 20
5037.71453
 30
0.0
  0
VERTEX
  8
0
 10
33041.19408
 20
5032.49261
 30
0.0
  0
VERTEX
  8
0
 10
33040.61445
 20
4995.3577
 30
0.0
  0
VERTEX
  8
0
 10
33000.0
 20
5000.0
 30
0.0
  0
VERTEX
  8
0
 10
33000.0
 20
5000.0
 30
0.0
  0
SEQEND
  0
POLYLINE
  8
0
 66
1
 10
0.0
 20
0.0
 30
0.0
 70
8
  0
VERTEX
  8
0
 10
34000.0
 20
5000.0
 30
0.0
  0
VERTEX
  8
0
 10
34041.19582
 20
5004.06266
 30
0.0
  0
VERTEX
  8
0
 10
34054.54134
 20
5023.78938
 30
0.0
  0
VERTEX
  8
0
 10
34042.93647
 20
5042.93647
 30
0.0
  0
VERTEX
  8
0
 10
33997.10008
 20
5042.35684
 30
0.0
  0
VERTEX
  8
0
 10
33988.9765
 20
5029.01131
 30
0.0
  0
VERTEX
  8
0
 10
33986.07484
 20
5012.76588
 30
0.0
  0
VERTEX
  8
0
 10
34000.0
 20
5000.0
 30
0.0
  0
VERTEX
  8
0
 10
34000.0
 20
5000.0
 30
0.0
  0
SEQEND
  0
POLYLINE
  8
0
 66
1
 10
0.0
 20
0.0
 30
0.0
 70
8
  0
VERTEX
  8
0
 10
35000.0
 20
5000.0
 30
0.0
  0
VERTEX
  8
0
 10
35045.25675
 20
5000.57964
 30
0.0
  0
VERTEX
  8
0
 10
35049.31767
 20
5024.36901
 30
0.0
  0
VERTEX
  8
0
 10
35031.91123
 20
5032.49086
 30
0.0
  0
VERTEX
  8
0
 10
35008.12358
 20
5029.59095
 30
0.0
  0
VERTEX
  8
0
 10
34995.93907
 20
5020.30635
 30
0.0
  0
VERTEX
  8
0
 10
35000.0
 20
5000.0
 30
0.0
  0
VERTEX
  8
0
 10
35000.0
 20
5000.0
 30
0.0
  0
SEQEND
  0
POLYLINE
  8
0
 66
1
 10
0.0
 20
0.0
 30
0.0
 70
8
  0
VERTEX
  8
0
 10
36000.0
 20
5000.0
 30
0.0
  0
VERTEX
  8
0
 10
35998.83899
 20
5047.57702
 30
0.0
  0
VERTEX
  8
0
 10
36003.48129
 20
5058.02089
 30
0.0
  0
VERTEX
  8
0
 10
36033.65187
 20
5058.60053
 30
0.0
  0
VERTEX
  8
0
 10
36048.15666
 20
5044.09573
 30
0.0
  0
VERTEX
  8
0
 10
36049.31767
 20
5026.10966
 30
0.0
  0
VERTEX
  8
0
 10
36048.73804
 20
5004.06093
 30
0.0
  0
VERTEX
  8
0
 10
36037.71279
 20
4982.59356
 30
0.0
  0
VERTEX
  8
0
 10
36004.06093
 20
4984.3342
 30
0.0
  0
VERTEX
  8
0
 10
36000.0
 20
5000.0
 30
0.0
  0
VERTEX
  8
0
 10
36000.0
 20
5000.0
 30
0.0
  0
SEQEND
  0
POLYLINE
  8
0
 66
1
 10
0.0
 20
0.0
 30
0.0
 70
8
  0
VERTEX
  8
0
 10
37000.0
 20
5000.0
 30
0.0
  0
VERTEX
  8
0
 10
37015.6658
 20
5026.10966
 30
0.0
  0
VERTEX
  8
0
 10
37020.3081
 20
5036.55352
 30
0.0
  0
VERTEX
  8
0
 10
36997.67972
 20
5045.25675
 30
0.0
  0
VERTEX
  8
0
 10
36967.50739
 20
5041.19582
 30
0.0
  0
VERTEX
  8
0
 10
36955.90427
 20
5019.72672
 30
0.0
  0
VERTEX
  8
0
 10
36956.4839
 20
4990.71715
 30
0.0
  0
VERTEX
  8
0
 10
37000.0
 20
5000.0
 30
0.0
  0
VERTEX
  8
0
 10
37000.0
 20
5000.0
 30
0.0
  0
SEQEND
  0
POLYLINE
  8
0
 66
1
 10
0.0
 20
0.0
 30
0.0
 70
8
  0
VERTEX
  8
0
 10
38000.0
 20
5000.0
 30
0.0
  0
VERTEX
  8
0
 10
38024.94865
 20
5000.0
 30
0.0
  0
VERTEX
  8
0
 10
38025.52828
 20
5013.34377
 30
0.0
  0
VERTEX
  8
0
 10
38019.14708
 20
5030.17059
 30
0.0
  0
VERTEX
  8
0
 10
38006.3812
 20
5027.26893
 30
0.0
  0
VERTEX
  8
0
 10
37988.39513
 20
5016.82506
 30
0.0
  0
VERTEX
  8
0
 10
37988.39513
 20
5000.57964
 30
0.0
  0
VERTEX
  8
0
 10
38000.0
 20
5000.0
 30
0.0
  0
VERTEX
  8
0
 10
38000.0
 20
5000.0
 30
0.0
  0
SEQEND
  0
POLYLINE
  8
0
 66
1
 10
0.0
 20
0.0
 30
0.0
 70
8
  0
VERTEX
  8
0
 10
39000.0
 20
5000.0
 30
0.0
  0
VERTEX
  8
0
 10
38991.29678
 20
5013.92516
 30
0.0
  0
VERTEX
  8
0
 10
38998.83899
 20
5017.40644
 30
0.0
  0
VERTEX
  8
0
 10
39003.48129
 20
5030.75022
 30
0.0
  0
VERTEX
  8
0
 10
39075.42733
 20
5023.208
 30
0.0
  0
VERTEX
  8
0
 10
39076.58834
 20
4991.87642
 30
0.0
  0
VERTEX
  8
0
 10
39044.67711
 20
4994.1967
 30
0.0
  0
VERTEX
  8
0
 10
39037.13316
 20
4999.41862
 30
0.0
  0
VERTEX
  8
0
 10
39029.59095
 20
4997.09834
 30
0.0
  0
VERTEX
  8
0
 10
39000.0
 20
5000.0
 30
0.0
  0
VERTEX
  8
0
 10
39000.0
 20
5000.0
 30
0.0
  0
SEQEND
  0
POLYLINE
  8
0
 66
1
 10
0.0
 20
0.0
 30
0.0
 70
8
  0
VERTEX
  8
0
 10
40000.0
 20
5000.0
 30
0.0
  0
VERTEX
  8
0
 10
39998.25935
 20
5024.94865
 30
0.0
  0
VERTEX
  8
0
 10
40036.55352
 20
5053.37859
 30
0.0
  0
VERTEX
  8
0
 10
40070.20539
 20
5031.3316
 30
0.0
  0
VERTEX
  8
0
 10
40092.25414
 20
5027.8503
 30
0.0
  0
VERTEX
  8
0
 10
40099.79634
 20
5001.74065
 30
0.0
  0
VERTEX
  8
0
 10
40000.0
 20
5000.0
 30
0.0
  0
VERTEX
  8
0
 10
40000.0
 20
5000.0
 30
0.0
  0
SEQEND
  0
POLYLINE
  8
0
 66
1
 10
0.0
 20
0.0
 30
0.0
 70
8
  0
VERTEX
  8
0
 10
41000.0
 20
5000.0
 30
0.0
  0
VERTEX
  8
0
 10
40998.84073
 20
5030.17059
 30
0.0
  0
VERTEX
  8
0
 10
41026.69103
 20
5028.42994
 30
0.0
  0
VERTEX
  8
0
 10
41033.65361
 20
5020.88773
 30
0.0
  0
VERTEX
  8
0
 10
41048.1584
 20
5022.62837
 30
0.0
  0
VERTEX
  8
0
 10
41053.95996
 20
5029.59095
 30
0.0
  0
VERTEX
  8
0
 10
41091.09486
 20
5025.52828
 30
0.0
  0
VERTEX
  8
0
 10
41099.21671
 20
5032.49086
 30
0.0
  0
VERTEX
  8
0
 10
41110.82159
 20
5033.65187
 30
0.0
  0
VERTEX
  8
0
 10
41123.58573
 20
5023.78764
 30
0.0
  0
VERTEX
  8
0
 10
41119.52481
 20
4998.83899
 30
0.0
  0
VERTEX
  8
0
 10
41103.85901
 20
4983.17319
 30
0.0
  0
VERTEX
  8
0
 10
41006.38294
 20
4989.55613
 30
0.0
  0
VERTEX
  8
0
 10
41000.0
 20
5000.0
 30
0.0
  0
VERTEX
  8
0
 10
41000.0
 20
5000.0
 30
0.0
  0
SEQEND
  0
POLYLINE
  8
0
 66
1
 10
0.0
 20
0.0
 30
0.0
 70
8
  0
VERTEX
  8
0
 10
42000.0
 20
5000.0
 30
0.0
  0
VERTEX
  8
0
 10
42052.21932
 20
4995.3577
 30
0.0
  0
VERTEX
  8
0
 10
42053.37859
 20
5080.06963
 30
0.0
  0
VERTEX
  8
0
 10
42041.77546
 20
5140.9921699999995
 30
0.0
  0
VERTEX
  8
0
 10
42009.86249
 20
5144.47346
 30
0.0
  0
VERTEX
  8
0
 10
42000.0
 20
5000.0
 30
0.0
  0
VERTEX
  8
0
 10
42000.0
 20
5000.0
 30
0.0
  0
SEQEND
  0
POLYLINE
  8
0
 66
1
 10
0.0
 20
0.0
 30
0.0
 70
8
  0
VERTEX
  8
0
 10
43000.0
 20
5000.0
 30
0.0
  0
VERTEX
  8
0
 10
43022.62837
 20
4993.61706
 30
0.0
  0
VERTEX
  8
0
 10
43025.52828
 20
4984.3342
 30
0.0
  0
VERTEX
  8
0
 10
43049.89731
 20
4991.87642
 30
0.0
  0
VERTEX
  8
0
 10
43050.47868
 20
5005.22193
 30
0.0
  0
VERTEX
  8
0
 10
43070.78503
 20
5020.88773
 30
0.0
  0
VERTEX
  8
0
 10
43075.42733
 20
5071.94604
 30
0.0
  0
VERTEX
  8
0
 10
43082.96954
 20
5099.21671
 30
0.0
  0
VERTEX
  8
0
 10
43073.10705
 20
5104.43865
 30
0.0
  0
VERTEX
  8
0
 10
43070.20539
 20
5117.20278
 30
0.0
  0
VERTEX
  8
0
 10
43003.48129
 20
5118.94343
 30
0.0
  0
VERTEX
  8
0
 10
42994.1967
 20
5102.11837
 30
0.0
  0
VERTEX
  8
0
 10
42997.09834
 20
5080.06963
 30
0.0
  0
VERTEX
  8
0
 10
42980.27154
 20
5082.3899
 30
0.0
  0
VERTEX
  8
0
 10
42977.37163
 20
5068.46476
 30
0.0
  0
VERTEX
  8
0
 10
42996.51871
 20
5059.1819
 30
0.0
  0
VERTEX
  8
0
 10
43000.0
 20
5000.0
 30
0.0
  0
VERTEX
  8
0
 10
43000.0
 20
5000.0
 30
0.0
  0
SEQEND
  0
POLYLINE
  8
0
 66
1
 10
0.0
 20
0.0
 30
0.0
 70
8
  0
VERTEX
  8
0
 10
44000.0
 20
5000.0
 30
0.0
  0
VERTEX
  8
0
 10
44027.8503
 20
4999.42036
 30
0.0
  0
VERTEX
  8
0
 10
44031.3316
 20
4990.71715
 30
0.0
  0
VERTEX
  8
0
 10
44087.61358
 20
4986.07484
 30
0.0
  0
VERTEX
  8
0
 10
44100.37772
 20
4996.51871
 30
0.0
  0
VERTEX
  8
0
 10
44119.52481
 20
4993.6188
 30
0.0
  0
VERTEX
  8
0
 10
44138.67189
 20
4997.67972
 30
0.0
  0
VERTEX
  8
0
 10
44127.06701
 20
5012.18451
 30
0.0
  0
VERTEX
  8
0
 10
44108.50131
 20
5015.08616
 30
0.0
  0
VERTEX
  8
0
 10
43999.42036
 20
5018.56745
 30
0.0
  0
VERTEX
  8
0
 10
43991.29678
 20
5007.54395
 30
0.0
  0
VERTEX
  8
0
 10
44000.0
 20
5000.0
 30
0.0
  0
VERTEX
  8
0
 10
44000.0
 20
5000.0
 30
0.0
  0
SEQEND
  0
POLYLINE
  8
0
 66
1
 10
0.0
 20
0.0
 30
0.0
 70
8
  0
VERTEX
  8
0
 10
45000.0
 20
5000.0
 30
0.0
  0
VERTEX
  8
0
 10
45004.6423
 20
5029.59095
 30
0.0
  0
VERTEX
  8
0
 10
44912.96779
 20
5031.3316
 30
0.0
  0
VERTEX
  8
0
 10
44906.58485
 20
5022.62837
 30
0.0
  0
VERTEX
  8
0
 10
44906.00522
 20
4950.68059
 30
0.0
  0
VERTEX
  8
0
 10
44933.85553
 20
4958.22454
 30
0.0
  0
VERTEX
  8
0
 10
44968.08877
 20
4969.24804
 30
0.0
  0
VERTEX
  8
0
 10
44982.01393
 20
4997.09834
 30
0.0
  0
VERTEX
  8
0
 10
45000.0
 20
5000.0
 30
0.0
  0
VERTEX
  8
0
 10
45000.0
 20
5000.0
 30
0.0
  0
SEQEND
  0
POLYLINE
  8
0
 66
1
 10
0.0
 20
0.0
 30
0.0
 70
8
  0
VERTEX
  8
0
 10
46000.0
 20
5000.0
 30
0.0
  0
VERTEX
  8
0
 10
46002.89992
 20
5069.62576
 30
0.0
  0
VERTEX
  8
0
 10
45937.91645
 20
5067.88512
 30
0.0
  0
VERTEX
  8
0
 10
45922.25065
 20
5056.28025
 30
0.0
  0
VERTEX
  8
0
 10
45919.93037
 20
4997.67798
 30
0.0
  0
VERTEX
  8
0
 10
45930.37424
 20
4988.97476
 30
0.0
  0
VERTEX
  8
0
 10
45987.23412
 20
4987.23412
 30
0.0
  0
VERTEX
  8
0
 10
46000.0
 20
5000.0
 30
0.0
  0
VERTEX
  8
0
 10
46000.0
 20
5000.0
 30
0.0
  0
SEQEND
  0
POLYLINE
  8
0
 66
1
 10
0.0
 20
0.0
 30
0.0
 70
8
  0
VERTEX
  8
0
 10
47000.0
 20
5000.0
 30
0.0
  0
VERTEX
  8
0
 10
47004.6423
 20
5031.3316
 30
0.0
  0
VERTEX
  8
0
 10
46974.47172
 20
5040.03482
 30
0.0
  0
VERTEX
  8
0
 10
46958.80592
 20
5038.29417
 30
0.0
  0
VERTEX
  8
0
 10
46927.47433
 20
5037.13316
 30
0.0
  0
VERTEX
  8
0
 10
46930.37424
 20
5015.6658
 30
0.0
  0
VERTEX
  8
0
 10
46943.14012
 20
5003.48129
 30
0.0
  0
VERTEX
  8
0
 10
46958.80592
 20
4994.77807
 30
0.0
  0
VERTEX
  8
0
 10
46990.71715
 20
4993.03743
 30
0.0
  0
VERTEX
  8
0
 10
47000.0
 20
5000.0
 30
0.0
  0
VERTEX
  8
0
 10
47000.0
 20
5000.0
 30
0.0
  0
SEQEND
  0
POLYLINE
  8
0
 66
1
 10
0.0
 20
0.0
 30
0.0
 70
8
  0
VERTEX
  8
0
 10
48000.0
 20
5000.0
 30
0.0
  0
VERTEX
  8
0
 10
47998.84073
 20
5033.65187
 30
0.0
  0
VERTEX
  8
0
 10
47968.6684
 20
5037.71279
 30
0.0
  0
VERTEX
  8
0
 10
47954.74325
 20
5023.208
 30
0.0
  0
VERTEX
  8
0
 10
47956.4839
 20
5000.57964
 30
0.0
  0
VERTEX
  8
0
 10
47963.44648
 20
4988.39513
 30
0.0
  0
VERTEX
  8
0
 10
47988.9765
 20
4988.39513
 30
0.0
  0
VERTEX
  8
0
 10
48000.0
 20
5000.0
 30
0.0
  0
VERTEX
  8
0
 10
48000.0
 20
5000.0
 30
0.0
  0
SEQEND
  0
POLYLINE
  8
0
 66
1
 10
0.0
 20
0.0
 30
0.0
 70
8
  0
VERTEX
  8
0
 10
0.0
 20
5000.0
 30
0.0
  0
VERTEX
  8
0
 10
0.57964
 20
5034.23325
 30
0.0
  0
VERTEX
  8
0
 10
-57.441250000000004
 20
5031.91123
 30
0.0
  0
VERTEX
  8
0
 10
-56.86162
 20
5022.62837
 30
0.0
  0
VERTEX
  8
0
 10
-73.10705
 20
5014.50479
 30
0.0
  0
VERTEX
  8
0
 10
-76.58834
 20
4994.77807
 30
0.0
  0
VERTEX
  8
0
 10
-64.40383
 20
4983.17319
 30
0.0
  0
VERTEX
  8
0
 10
-45.25675
 20
4991.87642
 30
0.0
  0
VERTEX
  8
0
 10
0.0
 20
5000.0
 30
0.0
  0
VERTEX
  8
0
 10
0.0
 20
5000.0
 30
0.0
  0
SEQEND
  0
POLYLINE
  8
0
 66
1
 10
0.0
 20
0.0
 30
0.0
 70
8
  0
VERTEX
  8
0
 10
1000.0
 20
6000.0
 30
0.0
  0
VERTEX
  8
0
 10
997.67972
 20
6044.67711
 30
0.0
  0
VERTEX
  8
0
 10
1008.12358
 20
6053.95996
 30
0.0
  0
VERTEX
  8
0
 10
1041.77546
 20
6053.95996
 30
0.0
  0
VERTEX
  8
0
 10
1051.05831
 20
6034.23325
 30
0.0
  0
VERTEX
  8
0
 10
1047.57702
 20
6009.86423
 30
0.0
  0
VERTEX
  8
0
 10
1033.65187
 20
5993.03743
 30
0.0
  0
VERTEX
  8
0
 10
1018.56745
 20
5991.87816
 30
0.0
  0
VERTEX
  8
0
 10
1014.50479
 20
5998.84073
 30
0.0
  0
VERTEX
  8
0
 10
1000.0
 20
6000.0
 30
0.0
  0
VERTEX
  8
0
 10
1000.0
 20
6000.0
 30
0.0
  0
SEQEND
  0
POLYLINE
  8
0
 66
1
 10
0.0
 20
0.0
 30
0.0
 70
8
  0
VERTEX
  8
0
 10
2000.0
 20
6000.0
 30
0.0
  0
VERTEX
  8
0
 10
1998.25935
 20
5921.09139
 30
0.0
  0
VERTEX
  8
0
 10
1976.21236
 20
5909.48651
 30
0.0
  0
VERTEX
  8
0
 10
1962.28721
 20
5914.1288
 30
0.0
  0
VERTEX
  8
0
 10
1956.4839
 20
5923.41166
 30
0.0
  0
VERTEX
  8
0
 10
1922.83202
 20
5926.31331
 30
0.0
  0
VERTEX
  8
0
 10
1919.93037
 20
5945.4604
 30
0.0
  0
VERTEX
  8
0
 10
1914.7084399999999
 20
5945.4604
 30
0.0
  0
VERTEX
  8
0
 10
1911.80853
 20
5986.65623
 30
0.0
  0
VERTEX
  8
0
 10
1922.25239
 20
5996.51871
 30
0.0
  0
VERTEX
  8
0
 10
1923.99304
 20
6002.90166
 30
0.0
  0
VERTEX
  8
0
 10
2000.0
 20
6000.0
 30
0.0
  0
VERTEX
  8
0
 10
2000.0
 20
6000.0
 30
0.0
  0
SEQEND
  0
POLYLINE
  8
0
 66
1
 10
0.0
 20
0.0
 30
0.0
 70
8
  0
VERTEX
  8
0
 10
3000.0
 20
6000.0
 30
0.0
  0
VERTEX
  8
0
 10
2953.58225
 20
5997.67972
 30
0.0
  0
VERTEX
  8
0
 10
2944.29939
 20
5968.08877
 30
0.0
  0
VERTEX
  8
0
 10
2946.61967
 20
5950.10269
 30
0.0
  0
VERTEX
  8
0
 10
2960.54482
 20
5951.26196
 30
0.0
  0
VERTEX
  8
0
 10
2964.02611
 20
5932.69626
 30
0.0
  0
VERTEX
  8
0
 10
2987.81549
 20
5933.27589
 30
0.0
  0
VERTEX
  8
0
 10
2995.3577
 20
5958.22454
 30
0.0
  0
VERTEX
  8
0
 10
3002.32028
 20
5958.22454
 30
0.0
  0
VERTEX
  8
0
 10
3000.0
 20
6000.0
 30
0.0
  0
VERTEX
  8
0
 10
3000.0
 20
6000.0
 30
0.0
  0
SEQEND
  0
POLYLINE
  8
0
 66
1
 10
0.0
 20
0.0
 30
0.0
 70
8
  0
VERTEX
  8
0
 10
4000.0
 20
6000.0
 30
0.0
  0
VERTEX
  8
0
 10
4022.047
 20
6000.0
 30
0.0
  0
VERTEX
  8
0
 10
4026.68929
 20
6016.24717
 30
0.0
  0
VERTEX
  8
0
 10
4017.40644
 20
6024.95039
 30
0.0
  0
VERTEX
  8
0
 10
4002.32028
 20
6021.46911
 30
0.0
  0
VERTEX
  8
0
 10
4000.0
 20
6000.0
 30
0.0
  0
VERTEX
  8
0
 10
4000.0
 20
6000.0
 30
0.0
  0
SEQEND
  0
POLYLINE
  8
0
 66
1
 10
0.0
 20
0.0
 30
0.0
 70
8
  0
VERTEX
  8
0
 10
5000.0
 20
6000.0
 30
0.0
  0
VERTEX
  8
0
 10
5001.32811
 20
6000.22628
 30
0.0
  0
VERTEX
  8
0
 10
5024.73281
 20
6004.17581
 30
0.0
  0
VERTEX
  8
0
 10
5030.83377
 20
5991.32811
 30
0.0
  0
VERTEX
  8
0
 10
5039.5074
 20
5993.8973
 30
0.0
  0
VERTEX
  8
0
 10
5043.68321
 20
6017.66579
 30
0.0
  0
VERTEX
  8
0
 10
5042.07659
 20
6036.61793
 30
0.0
  0
VERTEX
  8
0
 10
5027.62402
 20
6053.96344
 30
0.0
  0
VERTEX
  8
0
 10
5009.31419
 20
6052.35684
 30
0.0
  0
VERTEX
  8
0
 10
5000.0
 20
6024.09051
 30
0.0
  0
VERTEX
  8
0
 10
5000.0
 20
6000.0
 30
0.0
  0
VERTEX
  8
0
 10
5000.0
 20
6000.0
 30
0.0
  0
SEQEND
  0
ENDSEC
  0
EOF
