  0
SECTION
  2
HEADER
  9
$ACADVER
  1
AC1009
  9
$INSBASE
 10
0.0
 20
0.0
 30
0.0
  9
$EXTMIN
 10
0.0
 20
0.0
 30
0.0
  9
$EXTMAX
 10
100.0
 20
100.0
 30
0.0
  9
$UNITMODE
 70
0
  9
$AUNITS
 70
0
  9
$ANGBASE
 50
0.0
  9
$ANGDIR
 70
0
  0
ENDSEC
  0
SECTION
  2
TABLES
  0
TABLE
  2
LTYPE
 70
19
  0
LTYPE
  2
CONTINUOUS
 70
0
  3
Solid
 72
65
 73
0
 40
0.0
  0
LTYPE
  2
CENTER
 70
0
  3
Center ____ _ ____ _ ____ _ ____ _ ____ _ ____
 72
65
 73
4
 40
2.0
 49
1.25
 49
-0.25
 49
0.25
 49
-0.25
  0
LTYPE
  2
CENTERX2
 70
0
  3
Center (2x) ________  __  ________  __  ________
 72
65
 73
4
 40
3.5
 49
2.5
 49
-0.25
 49
0.5
 49
-0.25
  0
LTYPE
  2
CENTER2
 70
0
  3
Center (.5x) ____ _ ____ _ ____ _ ____ _ ____
 72
65
 73
4
 40
1.0
 49
0.625
 49
-0.125
 49
0.125
 49
-0.125
  0
LTYPE
  2
DASHED
 70
0
  3
Dashed __ __ __ __ __ __ __ __ __ __ __ __ __ _
 72
65
 73
2
 40
0.6
 49
0.5
 49
-0.1
  0
LTYPE
  2
DASHEDX2
 70
0
  3
Dashed (2x) ____  ____  ____  ____  ____  ____
 72
65
 73
2
 40
1.2
 49
1.0
 49
-0.2
  0
LTYPE
  2
DASHED2
 70
0
  3
Dashed (.5x) _ _ _ _ _ _ _ _ _ _ _ _ _ _
 72
65
 73
2
 40
0.3
 49
0.25
 49
-0.05
  0
LTYPE
  2
PHANTOM
 70
0
  3
Phantom ______  __  __  ______  __  __  ______
 72
65
 73
6
 40
2.5
 49
1.25
 49
-0.25
 49
0.25
 49
-0.25
 49
0.25
 49
-0.25
  0
LTYPE
  2
PHANTOMX2
 70
0
  3
Phantom (2x)____________    ____    ____    ____________
 72
65
 73
6
 40
4.25
 49
2.5
 49
-0.25
 49
0.5
 49
-0.25
 49
0.5
 49
-0.25
  0
LTYPE
  2
PHANTOM2
 70
0
  3
Phantom (.5x) ___ _ _ ___ _ _ ___ _ _ ___ _ _ ___
 72
65
 73
6
 40
1.25
 49
0.625
 49
-0.125
 49
0.125
 49
-0.125
 49
0.125
 49
-0.125
  0
LTYPE
  2
DASHDOT
 70
0
  3
Dash dot __ . __ . __ . __ . __ . __ . __ . __
 72
65
 73
4
 40
1.4
 49
1.0
 49
-0.2
 49
0.0
 49
-0.2
  0
LTYPE
  2
DASHDOTX2
 70
0
  3
Dash dot (2x) ____  .  ____  .  ____  .  ____
 72
65
 73
4
 40
2.4
 49
2.0
 49
-0.2
 49
0.0
 49
-0.2
  0
LTYPE
  2
DASHDOT2
 70
0
  3
Dash dot (.5x) _ . _ . _ . _ . _ . _ . _ . _
 72
65
 73
4
 40
0.7
 49
0.5
 49
-0.1
 49
0.0
 49
-0.1
  0
LTYPE
  2
DOT
 70
0
  3
Dot .  .  .  .  .  .  .  .  .  .  .  .  .  .  .  .
 72
65
 73
2
 40
0.2
 49
0.0
 49
-0.2
  0
LTYPE
  2
DOTX2
 70
0
  3
Dot (2x) .    .    .    .    .    .    .    . 
 72
65
 73
2
 40
0.4
 49
0.0
 49
-0.4
  0
LTYPE
  2
DOT2
 70
0
  3
Dot (.5) . . . . . . . . . . . . . . . . . . . 
 72
65
 73
2
 40
0.1
 49
0.0
 49
-0.1
  0
LTYPE
  2
DIVIDE
 70
0
  3
Divide __ . . __ . . __ . . __ . . __ . . __
 72
65
 73
6
 40
1.6
 49
1.0
 49
-0.2
 49
0.0
 49
-0.2
 49
0.0
 49
-0.2
  0
LTYPE
  2
DIVIDEX2
 70
0
  3
Divide (2x) ____  . .  ____  . .  ____  . .  ____
 72
65
 73
6
 40
2.6
 49
2.0
 49
-0.2
 49
0.0
 49
-0.2
 49
0.0
 49
-0.2
  0
LTYPE
  2
DIVIDE2
 70
0
  3
Divide(.5x) _ . _ . _ . _ . _ . _ . _ . _
 72
65
 73
6
 40
0.8
 49
0.5
 49
-0.1
 49
0.0
 49
-0.1
 49
0.0
 49
-0.1
  0
ENDTAB
  0
TABLE
  2
LAYER
 70
5
  0
LAYER
  2
DIMENSIONS
 70
0
 62
1
  6
CONTINUOUS
  0
LAYER
  2
TABLEBACKGROUND
 70
0
 62
1
  6
CONTINUOUS
  0
LAYER
  2
TABLECONTENT
 70
0
 62
1
  6
CONTINUOUS
  0
LAYER
  2
TABLEGRID
 70
0
 62
1
  6
CONTINUOUS
  0
LAYER
  2
VIEWPORTS
 70
0
 62
7
  6
CONTINUOUS
  0
ENDTAB
  0
TABLE
  2
STYLE
 70
12
  0
STYLE
  2
STANDARD
 70
0
 40
0.0
 41
1.0
 42
1.0
 50
0.0
 71
0
  3
arial.ttf
  4

  0
STYLE
  2
ARIAL
 70
0
 40
0.0
 41
1.0
 42
1.0
 50
0.0
 71
0
  3
arial.ttf
  4

  0
STYLE
  2
ARIAL_BOLD
 70
0
 40
0.0
 41
1.0
 42
1.0
 50
0.0
 71
0
  3
arialbd.ttf
  4

  0
STYLE
  2
ARIAL_ITALIC
 70
0
 40
0.0
 41
1.0
 42
1.0
 50
0.0
 71
0
  3
ariali.ttf
  4

  0
STYLE
  2
ARIAL_BOLD_ITALIC
 70
0
 40
0.0
 41
1.0
 42
1.0
 50
0.0
 71
0
  3
arialbi.ttf
  4

  0
STYLE
  2
ARIAL_BLACK
 70
0
 40
0.0
 41
1.0
 42
1.0
 50
0.0
 71
0
  3
ariblk.ttf
  4

  0
STYLE
  2
ISOCPEUR
 70
0
 40
0.0
 41
1.0
 42
1.0
 50
0.0
 71
0
  3
isocpeur.ttf
  4

  0
STYLE
  2
ISOCPEUR_ITALIC
 70
0
 40
0.0
 41
1.0
 42
1.0
 50
0.0
 71
0
  3
isocpeui.ttf
  4

  0
STYLE
  2
TIMES
 70
0
 40
0.0
 41
1.0
 42
1.0
 50
0.0
 71
0
  3
times.ttf
  4

  0
STYLE
  2
TIMES_BOLD
 70
0
 40
0.0
 41
1.0
 42
1.0
 50
0.0
 71
0
  3
timesbd.ttf
  4

  0
STYLE
  2
TIMES_ITALIC
 70
0
 40
0.0
 41
1.0
 42
1.0
 50
0.0
 71
0
  3
timesi.ttf
  4

  0
STYLE
  2
TIMES_BOLD_ITALIC
 70
0
 40
0.0
 41
1.0
 42
1.0
 50
0.0
 71
0
  3
timesbi.ttf
  4

  0
ENDTAB
  0
TABLE
  2
VIEW
 70
0
  0
ENDTAB
  0
TABLE
  2
APPID
 70
1
  0
APPID
  2
DXFWRITE
 70
0
  0
ENDTAB
  0
TABLE
  2
VPORT
 70
0
  0
ENDTAB
  0
TABLE
  2
UCS
 70
0
  0
ENDTAB
  0
ENDSEC
  0
SECTION
  2
BLOCKS
  0
ENDSEC
  0
SECTION
  2
ENTITIES
  0
VIEWPORT
  8
VIEWPORTS
 67
1
 10
0.0
 20
0.0
 30
0.0
 40
1.0
 41
1.0
 68
1
 69
1
1001
ACAD
1000
MVIEW
1002
{
1070
16
1010
0.0
1020
0.0
1030
0.0
1010
0.0
1020
0.0
1030
0.0
1040
0.0
1040
1.0
1040
0.0
1040
0.0
1040
50.0
1040
0.0
1040
0.0
1070
0
1070
100
1070
1
1070
3
1070
0
1070
0
1070
0
1070
0
1040
0.0
1040
0.0
1040
0.0
1040
0.1
1040
0.1
1040
0.1
1040
0.1
1070
0
1002
{
1002
}
1002
}
  0
POLYLINE
  8
0
 66
1
 10
0.0
 20
0.0
 30
0.0
 70
8
  0
VERTEX
  8
0
 10
1029.18585
 20
1004.91538
 30
0.0
  0
VERTEX
  8
0
 10
990.04729
 20
1026.46494
 30
0.0
  0
VERTEX
  8
0
 10
965.3855599999999
 20
1001.00982
 30
0.0
  0
VERTEX
  8
0
 10
989.69432
 20
986.0654
 30
0.0
  0
VERTEX
  8
0
 10
998.97551
 20
992.16212
 30
0.0
  0
VERTEX
  8
0
 10
1028.23694
 20
957.49479
 30
0.0
  0
VERTEX
  8
0
 10
1029.18585
 20
1004.91538
 30
0.0
  0
SEQEND
  0
POLYLINE
  8
0
 66
1
 10
0.0
 20
0.0
 30
0.0
 70
8
  0
VERTEX
  8
0
 10
2009.22731
 20
1009.57863
 30
0.0
  0
VERTEX
  8
0
 10
1988.63719
 20
1038.9205
 30
0.0
  0
VERTEX
  8
0
 10
1990.02693
 20
1011.77766
 30
0.0
  0
VERTEX
  8
0
 10
1953.63209
 20
985.28757
 30
0.0
  0
VERTEX
  8
0
 10
2002.47588
 20
986.1215
 30
0.0
  0
VERTEX
  8
0
 10
2010.68723
 20
988.63005
 30
0.0
  0
VERTEX
  8
0
 10
2009.22731
 20
1009.57863
 30
0.0
  0
SEQEND
  0
POLYLINE
  8
0
 66
1
 10
0.0
 20
0.0
 30
0.0
 70
8
  0
VERTEX
  8
0
 10
3052.47503
 20
1010.88204
 30
0.0
  0
VERTEX
  8
0
 10
2995.02323
 20
1009.49027
 30
0.0
  0
VERTEX
  8
0
 10
2965.14467
 20
1011.17426
 30
0.0
  0
VERTEX
  8
0
 10
2986.64126
 20
995.88786
 30
0.0
  0
VERTEX
  8
0
 10
2994.08049
 20
982.94777
 30
0.0
  0
VERTEX
  8
0
 10
3030.45506
 20
971.90028
 30
0.0
  0
VERTEX
  8
0
 10
3052.47503
 20
1010.88204
 30
0.0
  0
SEQEND
  0
POLYLINE
  8
0
 66
1
 10
0.0
 20
0.0
 30
0.0
 70
8
  0
VERTEX
  8
0
 10
4009.96999
 20
1009.00131
 30
0.0
  0
VERTEX
  8
0
 10
4006.87332
 20
1044.84933
 30
0.0
  0
VERTEX
  8
0
 10
3979.26414
 20
1021.22052
 30
0.0
  0
VERTEX
  8
0
 10
3975.79464
 20
984.522
 30
0.0
  0
VERTEX
  8
0
 10
4002.31447
 20
995.35531
 30
0.0
  0
VERTEX
  8
0
 10
4024.58887
 20
984.70351
 30
0.0
  0
VERTEX
  8
0
 10
4009.96999
 20
1009.00131
 30
0.0
  0
SEQEND
  0
POLYLINE
  8
0
 66
1
 10
0.0
 20
0.0
 30
0.0
 70
8
  0
VERTEX
  8
0
 10
5027.58667
 20
1002.0376
 30
0.0
  0
VERTEX
  8
0
 10
4994.38214
 20
1038.42512
 30
0.0
  0
VERTEX
  8
0
 10
4985.19923
 20
1005.09843
 30
0.0
  0
VERTEX
  8
0
 10
4946.44038
 20
995.48256
 30
0.0
  0
VERTEX
  8
0
 10
4995.08064
 20
986.57908
 30
0.0
  0
VERTEX
  8
0
 10
5019.3687
 20
985.70494
 30
0.0
  0
VERTEX
  8
0
 10
5027.58667
 20
1002.0376
 30
0.0
  0
SEQEND
  0
POLYLINE
  8
0
 66
1
 10
0.0
 20
0.0
 30
0.0
 70
8
  0
VERTEX
  8
0
 10
6033.465
 20
1041.44336
 30
0.0
  0
VERTEX
  8
0
 10
5983.81816
 20
1048.14375
 30
0.0
  0
VERTEX
  8
0
 10
5972.5893
 20
1032.99385
 30
0.0
  0
VERTEX
  8
0
 10
5977.75529
 20
964.8899
 30
0.0
  0
VERTEX
  8
0
 10
5993.05126
 20
948.0577499999999
 30
0.0
  0
VERTEX
  8
0
 10
6030.99384
 20
985.9682
 30
0.0
  0
VERTEX
  8
0
 10
6033.465
 20
1041.44336
 30
0.0
  0
SEQEND
  0
POLYLINE
  8
0
 66
1
 10
0.0
 20
0.0
 30
0.0
 70
8
  0
VERTEX
  8
0
 10
7017.01092
 20
1004.24102
 30
0.0
  0
VERTEX
  8
0
 10
6992.7891
 20
1016.04515
 30
0.0
  0
VERTEX
  8
0
 10
6995.28993
 20
1005.83962
 30
0.0
  0
VERTEX
  8
0
 10
6957.73659
 20
988.98009
 30
0.0
  0
VERTEX
  8
0
 10
6999.13905
 20
978.48889
 30
0.0
  0
VERTEX
  8
0
 10
7026.69128
 20
997.99207
 30
0.0
  0
VERTEX
  8
0
 10
7017.01092
 20
1004.24102
 30
0.0
  0
SEQEND
  0
POLYLINE
  8
0
 66
1
 10
0.0
 20
0.0
 30
0.0
 70
8
  0
VERTEX
  8
0
 10
8031.74797
 20
1041.10721
 30
0.0
  0
VERTEX
  8
0
 10
8014.99469
 20
1029.05683
 30
0.0
  0
VERTEX
  8
0
 10
7969.9743
 20
1028.76858
 30
0.0
  0
VERTEX
  8
0
 10
7966.47762
 20
988.4208
 30
0.0
  0
VERTEX
  8
0
 10
8019.03461
 20
959.23649
 30
0.0
  0
VERTEX
  8
0
 10
8019.18033
 20
981.32443
 30
0.0
  0
VERTEX
  8
0
 10
8031.74797
 20
1041.10721
 30
0.0
  0
SEQEND
  0
POLYLINE
  8
0
 66
1
 10
0.0
 20
0.0
 30
0.0
 70
8
  0
VERTEX
  8
0
 10
9016.32081
 20
1011.08776
 30
0.0
  0
VERTEX
  8
0
 10
9005.75179
 20
1044.64725
 30
0.0
  0
VERTEX
  8
0
 10
8994.84702
 20
1006.57393
 30
0.0
  0
VERTEX
  8
0
 10
8987.40304
 20
989.2281
 30
0.0
  0
VERTEX
  8
0
 10
8989.8257
 20
979.12267
 30
0.0
  0
VERTEX
  8
0
 10
9050.04763
 20
980.69673
 30
0.0
  0
VERTEX
  8
0
 10
9016.32081
 20
1011.08776
 30
0.0
  0
SEQEND
  0
POLYLINE
  8
0
 66
1
 10
0.0
 20
0.0
 30
0.0
 70
8
  0
VERTEX
  8
0
 10
10004.76648
 20
1007.43603
 30
0.0
  0
VERTEX
  8
0
 10
9988.76483
 20
1032.69819
 30
0.0
  0
VERTEX
  8
0
 10
9982.2266
 20
1021.93556
 30
0.0
  0
VERTEX
  8
0
 10
9988.74812
 20
985.88935
 30
0.0
  0
VERTEX
  8
0
 10
10009.03402
 20
980.72507
 30
0.0
  0
VERTEX
  8
0
 10
10015.16493
 20
991.41029
 30
0.0
  0
VERTEX
  8
0
 10
10004.76648
 20
1007.43603
 30
0.0
  0
SEQEND
  0
POLYLINE
  8
0
 66
1
 10
0.0
 20
0.0
 30
0.0
 70
8
  0
VERTEX
  8
0
 10
11004.66809
 20
1006.75705
 30
0.0
  0
VERTEX
  8
0
 10
10994.35281
 20
1041.6598
 30
0.0
  0
VERTEX
  8
0
 10
10990.55559
 20
1006.88427
 30
0.0
  0
VERTEX
  8
0
 10
10967.22996
 20
979.95881
 30
0.0
  0
VERTEX
  8
0
 10
11010.03856
 20
966.02882
 30
0.0
  0
VERTEX
  8
0
 10
11027.22151
 20
966.8029
 30
0.0
  0
VERTEX
  8
0
 10
11004.66809
 20
1006.75705
 30
0.0
  0
SEQEND
  0
POLYLINE
  8
0
 66
1
 10
0.0
 20
0.0
 30
0.0
 70
8
  0
VERTEX
  8
0
 10
12039.8838
 20
1024.71488
 30
0.0
  0
VERTEX
  8
0
 10
11999.77675
 20
1023.93407
 30
0.0
  0
VERTEX
  8
0
 10
11959.76994
 20
1017.53679
 30
0.0
  0
VERTEX
  8
0
 10
11947.31452
 20
987.58694
 30
0.0
  0
VERTEX
  8
0
 10
12002.57975
 20
981.9197
 30
0.0
  0
VERTEX
  8
0
 10
12007.77475
 20
992.73852
 30
0.0
  0
VERTEX
  8
0
 10
12039.8838
 20
1024.71488
 30
0.0
  0
SEQEND
  0
POLYLINE
  8
0
 66
1
 10
0.0
 20
0.0
 30
0.0
 70
8
  0
VERTEX
  8
0
 10
13003.78926
 20
1004.9008
 30
0.0
  0
VERTEX
  8
0
 10
12992.72645
 20
1028.86431
 30
0.0
  0
VERTEX
  8
0
 10
12974.88669
 20
1020.52318
 30
0.0
  0
VERTEX
  8
0
 10
12966.25065
 20
995.96326
 30
0.0
  0
VERTEX
  8
0
 10
13007.54554
 20
983.70652
 30
0.0
  0
VERTEX
  8
0
 10
13017.9649
 20
971.86681
 30
0.0
  0
VERTEX
  8
0
 10
13003.78926
 20
1004.9008
 30
0.0
  0
SEQEND
  0
POLYLINE
  8
0
 66
1
 10
0.0
 20
0.0
 30
0.0
 70
8
  0
VERTEX
  8
0
 10
14010.65519
 20
1000.79794
 30
0.0
  0
VERTEX
  8
0
 10
13991.29711
 20
1028.90887
 30
0.0
  0
VERTEX
  8
0
 10
13970.46082
 20
1011.28219
 30
0.0
  0
VERTEX
  8
0
 10
13968.62648
 20
997.3198
 30
0.0
  0
VERTEX
  8
0
 10
14010.83649
 20
965.34143
 30
0.0
  0
VERTEX
  8
0
 10
14008.6387
 20
999.39851
 30
0.0
  0
VERTEX
  8
0
 10
14010.65519
 20
1000.79794
 30
0.0
  0
SEQEND
  0
POLYLINE
  8
0
 66
1
 10
0.0
 20
0.0
 30
0.0
 70
8
  0
VERTEX
  8
0
 10
15044.74969
 20
1018.34111
 30
0.0
  0
VERTEX
  8
0
 10
15007.4934
 20
1019.14974
 30
0.0
  0
VERTEX
  8
0
 10
14970.89208
 20
1043.46814
 30
0.0
  0
VERTEX
  8
0
 10
14983.66092
 20
992.86701
 30
0.0
  0
VERTEX
  8
0
 10
15003.13278
 20
952.23527
 30
0.0
  0
VERTEX
  8
0
 10
15026.05875
 20
964.89781
 30
0.0
  0
VERTEX
  8
0
 10
15044.74969
 20
1018.34111
 30
0.0
  0
SEQEND
  0
POLYLINE
  8
0
 66
1
 10
0.0
 20
0.0
 30
0.0
 70
8
  0
VERTEX
  8
0
 10
16006.57898
 20
1005.21157
 30
0.0
  0
VERTEX
  8
0
 10
16012.38126
 20
1025.55664
 30
0.0
  0
VERTEX
  8
0
 10
15989.23168
 20
1005.04992
 30
0.0
  0
VERTEX
  8
0
 10
15958.24734
 20
973.42822
 30
0.0
  0
VERTEX
  8
0
 10
15984.9956
 20
973.72346
 30
0.0
  0
VERTEX
  8
0
 10
16027.30259
 20
975.30241
 30
0.0
  0
VERTEX
  8
0
 10
16006.57898
 20
1005.21157
 30
0.0
  0
SEQEND
  0
POLYLINE
  8
0
 66
1
 10
0.0
 20
0.0
 30
0.0
 70
8
  0
VERTEX
  8
0
 10
17023.32141
 20
1023.34351
 30
0.0
  0
VERTEX
  8
0
 10
16993.89553
 20
1016.96779
 30
0.0
  0
VERTEX
  8
0
 10
16985.1097
 20
1013.46731
 30
0.0
  0
VERTEX
  8
0
 10
16960.08887
 20
989.33553
 30
0.0
  0
VERTEX
  8
0
 10
16982.00276
 20
959.58727
 30
0.0
  0
VERTEX
  8
0
 10
17033.26442
 20
985.58539
 30
0.0
  0
VERTEX
  8
0
 10
17023.32141
 20
1023.34351
 30
0.0
  0
SEQEND
  0
POLYLINE
  8
0
 66
1
 10
0.0
 20
0.0
 30
0.0
 70
8
  0
VERTEX
  8
0
 10
18005.83972
 20
1001.34501
 30
0.0
  0
VERTEX
  8
0
 10
18001.13628
 20
1014.32789
 30
0.0
  0
VERTEX
  8
0
 10
17974.35036
 20
1021.4895
 30
0.0
  0
VERTEX
  8
0
 10
17971.12235
 20
956.719
 30
0.0
  0
VERTEX
  8
0
 10
17995.37574
 20
973.68406
 30
0.0
  0
VERTEX
  8
0
 10
18010.21616
 20
985.03986
 30
0.0
  0
VERTEX
  8
0
 10
18005.83972
 20
1001.34501
 30
0.0
  0
SEQEND
  0
POLYLINE
  8
0
 66
1
 10
0.0
 20
0.0
 30
0.0
 70
8
  0
VERTEX
  8
0
 10
19024.13543
 20
1009.83293
 30
0.0
  0
VERTEX
  8
0
 10
19000.50179
 20
1005.09373
 30
0.0
  0
VERTEX
  8
0
 10
18988.31182
 20
1002.61889
 30
0.0
  0
VERTEX
  8
0
 10
18983.76384
 20
999.39345
 30
0.0
  0
VERTEX
  8
0
 10
18997.49526
 20
956.8129
 30
0.0
  0
VERTEX
  8
0
 10
19014.04319
 20
977.69664
 30
0.0
  0
VERTEX
  8
0
 10
19024.13543
 20
1009.83293
 30
0.0
  0
SEQEND
  0
POLYLINE
  8
0
 66
1
 10
0.0
 20
0.0
 30
0.0
 70
8
  0
VERTEX
  8
0
 10
20050.12838
 20
1009.49049
 30
0.0
  0
VERTEX
  8
0
 10
20008.18591
 20
1017.06175
 30
0.0
  0
VERTEX
  8
0
 10
19976.42437
 20
1006.51008
 30
0.0
  0
VERTEX
  8
0
 10
19971.97224
 20
981.14909
 30
0.0
  0
VERTEX
  8
0
 10
19979.20181
 20
960.48838
 30
0.0
  0
VERTEX
  8
0
 10
20005.38878
 20
996.96667
 30
0.0
  0
VERTEX
  8
0
 10
20050.12838
 20
1009.49049
 30
0.0
  0
SEQEND
  0
POLYLINE
  8
0
 66
1
 10
0.0
 20
0.0
 30
0.0
 70
8
  0
VERTEX
  8
0
 10
21045.16091
 20
1015.44518
 30
0.0
  0
VERTEX
  8
0
 10
21003.8828
 20
1009.75494
 30
0.0
  0
VERTEX
  8
0
 10
20972.48937
 20
1013.80213
 30
0.0
  0
VERTEX
  8
0
 10
20974.63312
 20
996.05484
 30
0.0
  0
VERTEX
  8
0
 10
21000.78681
 20
993.1585
 30
0.0
  0
VERTEX
  8
0
 10
21038.71081
 20
998.08741
 30
0.0
  0
VERTEX
  8
0
 10
21045.16091
 20
1015.44518
 30
0.0
  0
SEQEND
  0
POLYLINE
  8
0
 66
1
 10
0.0
 20
0.0
 30
0.0
 70
8
  0
VERTEX
  8
0
 10
22015.70437
 20
1018.47482
 30
0.0
  0
VERTEX
  8
0
 10
22011.5886
 20
1036.82624
 30
0.0
  0
VERTEX
  8
0
 10
21985.22393
 20
1002.4273
 30
0.0
  0
VERTEX
  8
0
 10
21979.1449
 20
986.88315
 30
0.0
  0
VERTEX
  8
0
 10
22002.04858
 20
982.52646
 30
0.0
  0
VERTEX
  8
0
 10
22034.19955
 20
963.86538
 30
0.0
  0
VERTEX
  8
0
 10
22015.70437
 20
1018.47482
 30
0.0
  0
SEQEND
  0
POLYLINE
  8
0
 66
1
 10
0.0
 20
0.0
 30
0.0
 70
8
  0
VERTEX
  8
0
 10
23051.50841
 20
1008.47487
 30
0.0
  0
VERTEX
  8
0
 10
22996.20744
 20
1008.49472
 30
0.0
  0
VERTEX
  8
0
 10
22958.03629
 20
1016.23802
 30
0.0
  0
VERTEX
  8
0
 10
22979.01982
 20
974.93536
 30
0.0
  0
VERTEX
  8
0
 10
23003.81881
 20
972.84213
 30
0.0
  0
VERTEX
  8
0
 10
23019.79136
 20
967.1203399999999
 30
0.0
  0
VERTEX
  8
0
 10
23051.50841
 20
1008.47487
 30
0.0
  0
SEQEND
  0
POLYLINE
  8
0
 66
1
 10
0.0
 20
0.0
 30
0.0
 70
8
  0
VERTEX
  8
0
 10
24027.66472
 20
1019.20236
 30
0.0
  0
VERTEX
  8
0
 10
24001.64842
 20
1033.49004
 30
0.0
  0
VERTEX
  8
0
 10
23952.39979
 20
1007.914
 30
0.0
  0
VERTEX
  8
0
 10
23952.8127
 20
981.73974
 30
0.0
  0
VERTEX
  8
0
 10
24010.20728
 20
972.42123
 30
0.0
  0
VERTEX
  8
0
 10
24024.74377
 20
960.4083
 30
0.0
  0
VERTEX
  8
0
 10
24027.66472
 20
1019.20236
 30
0.0
  0
SEQEND
  0
POLYLINE
  8
0
 66
1
 10
0.0
 20
0.0
 30
0.0
 70
8
  0
VERTEX
  8
0
 10
25037.64145
 20
1016.15313
 30
0.0
  0
VERTEX
  8
0
 10
24997.00784
 20
1052.48849
 30
0.0
  0
VERTEX
  8
0
 10
24984.40229
 20
1003.2235
 30
0.0
  0
VERTEX
  8
0
 10
24979.25887
 20
980.74963
 30
0.0
  0
VERTEX
  8
0
 10
25003.38035
 20
976.0158
 30
0.0
  0
VERTEX
  8
0
 10
25052.82
 20
988.59593
 30
0.0
  0
VERTEX
  8
0
 10
25037.64145
 20
1016.15313
 30
0.0
  0
SEQEND
  0
POLYLINE
  8
0
 66
1
 10
0.0
 20
0.0
 30
0.0
 70
8
  0
VERTEX
  8
0
 10
26031.45522
 20
1043.43713
 30
0.0
  0
VERTEX
  8
0
 10
26019.07787
 20
1044.93613
 30
0.0
  0
VERTEX
  8
0
 10
25954.06109
 20
1029.02137
 30
0.0
  0
VERTEX
  8
0
 10
25997.38191
 20
995.73647
 30
0.0
  0
VERTEX
  8
0
 10
25996.49396
 20
983.00861
 30
0.0
  0
VERTEX
  8
0
 10
26032.65026
 20
962.41993
 30
0.0
  0
VERTEX
  8
0
 10
26031.45522
 20
1043.43713
 30
0.0
  0
SEQEND
  0
POLYLINE
  8
0
 66
1
 10
0.0
 20
0.0
 30
0.0
 70
8
  0
VERTEX
  8
0
 10
27008.66655
 20
1013.78861
 30
0.0
  0
VERTEX
  8
0
 10
26986.30251
 20
1038.46209
 30
0.0
  0
VERTEX
  8
0
 10
26982.86997
 20
1006.2227
 30
0.0
  0
VERTEX
  8
0
 10
26974.13191
 20
999.08631
 30
0.0
  0
VERTEX
  8
0
 10
27017.16384
 20
953.50085
 30
0.0
  0
VERTEX
  8
0
 10
27042.58903
 20
983.57846
 30
0.0
  0
VERTEX
  8
0
 10
27008.66655
 20
1013.78861
 30
0.0
  0
SEQEND
  0
POLYLINE
  8
0
 66
1
 10
0.0
 20
0.0
 30
0.0
 70
8
  0
VERTEX
  8
0
 10
28046.46027
 20
1011.13949
 30
0.0
  0
VERTEX
  8
0
 10
28009.08405
 20
1024.36282
 30
0.0
  0
VERTEX
  8
0
 10
27989.96112
 20
1009.80229
 30
0.0
  0
VERTEX
  8
0
 10
27982.71298
 20
992.62743
 30
0.0
  0
VERTEX
  8
0
 10
27998.44412
 20
993.37244
 30
0.0
  0
VERTEX
  8
0
 10
28031.94243
 20
970.53764
 30
0.0
  0
VERTEX
  8
0
 10
28046.46027
 20
1011.13949
 30
0.0
  0
SEQEND
  0
POLYLINE
  8
0
 66
1
 10
0.0
 20
0.0
 30
0.0
 70
8
  0
VERTEX
  8
0
 10
29016.26626
 20
1013.90653
 30
0.0
  0
VERTEX
  8
0
 10
29001.26649
 20
1008.88883
 30
0.0
  0
VERTEX
  8
0
 10
28979.89089
 20
1012.09538
 30
0.0
  0
VERTEX
  8
0
 10
28954.14072
 20
988.56153
 30
0.0
  0
VERTEX
  8
0
 10
28990.35335
 20
974.00488
 30
0.0
  0
VERTEX
  8
0
 10
29006.5615
 20
997.79328
 30
0.0
  0
VERTEX
  8
0
 10
29016.26626
 20
1013.90653
 30
0.0
  0
SEQEND
  0
POLYLINE
  8
0
 66
1
 10
0.0
 20
0.0
 30
0.0
 70
8
  0
VERTEX
  8
0
 10
30048.99781
 20
1008.41493
 30
0.0
  0
VERTEX
  8
0
 10
30001.49098
 20
1044.32677
 30
0.0
  0
VERTEX
  8
0
 10
29970.10177
 20
1000.70818
 30
0.0
  0
VERTEX
  8
0
 10
29984.18044
 20
994.86997
 30
0.0
  0
VERTEX
  8
0
 10
29992.63449
 20
950.93729
 30
0.0
  0
VERTEX
  8
0
 10
30036.59968
 20
978.68637
 30
0.0
  0
VERTEX
  8
0
 10
30048.99781
 20
1008.41493
 30
0.0
  0
SEQEND
  0
POLYLINE
  8
0
 66
1
 10
0.0
 20
0.0
 30
0.0
 70
8
  0
VERTEX
  8
0
 10
31043.60956
 20
1006.04922
 30
0.0
  0
VERTEX
  8
0
 10
30991.56589
 20
1046.34885
 30
0.0
  0
VERTEX
  8
0
 10
30991.44574
 20
1004.60906
 30
0.0
  0
VERTEX
  8
0
 10
30992.42203
 20
996.20219
 30
0.0
  0
VERTEX
  8
0
 10
31002.9224
 20
994.35041
 30
0.0
  0
VERTEX
  8
0
 10
31025.95965
 20
998.38621
 30
0.0
  0
VERTEX
  8
0
 10
31043.60956
 20
1006.04922
 30
0.0
  0
SEQEND
  0
POLYLINE
  8
0
 66
1
 10
0.0
 20
0.0
 30
0.0
 70
8
  0
VERTEX
  8
0
 10
32004.0206
 20
1003.09903
 30
0.0
  0
VERTEX
  8
0
 10
32007.93107
 20
1050.21432
 30
0.0
  0
VERTEX
  8
0
 10
31996.01297
 20
1003.76875
 30
0.0
  0
VERTEX
  8
0
 10
31966.32595
 20
968.81452
 30
0.0
  0
VERTEX
  8
0
 10
31990.66812
 20
960.92351
 30
0.0
  0
VERTEX
  8
0
 10
32047.10685
 20
974.3051
 30
0.0
  0
VERTEX
  8
0
 10
32004.0206
 20
1003.09903
 30
0.0
  0
SEQEND
  0
POLYLINE
  8
0
 66
1
 10
0.0
 20
0.0
 30
0.0
 70
8
  0
VERTEX
  8
0
 10
33037.6572
 20
1003.24285
 30
0.0
  0
VERTEX
  8
0
 10
33021.58413
 20
1049.31712
 30
0.0
  0
VERTEX
  8
0
 10
32981.30913
 20
1023.65537
 30
0.0
  0
VERTEX
  8
0
 10
32984.56053
 20
984.91536
 30
0.0
  0
VERTEX
  8
0
 10
32999.81019
 20
980.26422
 30
0.0
  0
VERTEX
  8
0
 10
33029.66114
 20
973.14723
 30
0.0
  0
VERTEX
  8
0
 10
33037.6572
 20
1003.24285
 30
0.0
  0
SEQEND
  0
POLYLINE
  8
0
 66
1
 10
0.0
 20
0.0
 30
0.0
 70
8
  0
VERTEX
  8
0
 10
34021.01706
 20
1030.6214
 30
0.0
  0
VERTEX
  8
0
 10
33985.3634
 20
1026.76995
 30
0.0
  0
VERTEX
  8
0
 10
33972.47568
 20
1007.65447
 30
0.0
  0
VERTEX
  8
0
 10
33989.44819
 20
998.51712
 30
0.0
  0
VERTEX
  8
0
 10
33990.43957
 20
952.25517
 30
0.0
  0
VERTEX
  8
0
 10
34009.47032
 20
992.95389
 30
0.0
  0
VERTEX
  8
0
 10
34021.01706
 20
1030.6214
 30
0.0
  0
SEQEND
  0
POLYLINE
  8
0
 66
1
 10
0.0
 20
0.0
 30
0.0
 70
8
  0
VERTEX
  8
0
 10
35021.358
 20
1004.29648
 30
0.0
  0
VERTEX
  8
0
 10
34993.30014
 20
1023.44987
 30
0.0
  0
VERTEX
  8
0
 10
34983.42804
 20
1007.34594
 30
0.0
  0
VERTEX
  8
0
 10
34986.18437
 20
994.83695
 30
0.0
  0
VERTEX
  8
0
 10
34993.89541
 20
977.72451
 30
0.0
  0
VERTEX
  8
0
 10
35022.5571
 20
979.61243
 30
0.0
  0
VERTEX
  8
0
 10
35021.358
 20
1004.29648
 30
0.0
  0
SEQEND
  0
POLYLINE
  8
0
 66
1
 10
0.0
 20
0.0
 30
0.0
 70
8
  0
VERTEX
  8
0
 10
36019.40618
 20
1022.19263
 30
0.0
  0
VERTEX
  8
0
 10
35997.96673
 20
1027.36746
 30
0.0
  0
VERTEX
  8
0
 10
35950.86104
 20
1014.48933
 30
0.0
  0
VERTEX
  8
0
 10
35952.27908
 20
999.70483
 30
0.0
  0
VERTEX
  8
0
 10
35999.69648
 20
959.23959
 30
0.0
  0
VERTEX
  8
0
 10
36017.05226
 20
984.40071
 30
0.0
  0
VERTEX
  8
0
 10
36019.40618
 20
1022.19263
 30
0.0
  0
SEQEND
  0
POLYLINE
  8
0
 66
1
 10
0.0
 20
0.0
 30
0.0
 70
8
  0
VERTEX
  8
0
 10
37026.16615
 20
1030.08936
 30
0.0
  0
VERTEX
  8
0
 10
36992.70658
 20
1028.8702
 30
0.0
  0
VERTEX
  8
0
 10
36990.4557
 20
1000.94252
 30
0.0
  0
VERTEX
  8
0
 10
36996.62005
 20
995.72122
 30
0.0
  0
VERTEX
  8
0
 10
37016.26876
 20
963.84322
 30
0.0
  0
VERTEX
  8
0
 10
37023.50402
 20
980.70299
 30
0.0
  0
VERTEX
  8
0
 10
37026.16615
 20
1030.08936
 30
0.0
  0
SEQEND
  0
POLYLINE
  8
0
 66
1
 10
0.0
 20
0.0
 30
0.0
 70
8
  0
VERTEX
  8
0
 10
38026.6754
 20
1006.59831
 30
0.0
  0
VERTEX
  8
0
 10
38019.63688
 20
1049.77831
 30
0.0
  0
VERTEX
  8
0
 10
37984.67578
 20
1025.50007
 30
0.0
  0
VERTEX
  8
0
 10
37981.50654
 20
998.79747
 30
0.0
  0
VERTEX
  8
0
 10
38001.35666
 20
991.8083799999999
 30
0.0
  0
VERTEX
  8
0
 10
38007.77806
 20
998.93388
 30
0.0
  0
VERTEX
  8
0
 10
38026.6754
 20
1006.59831
 30
0.0
  0
SEQEND
  0
POLYLINE
  8
0
 66
1
 10
0.0
 20
0.0
 30
0.0
 70
8
  0
VERTEX
  8
0
 10
39015.35723
 20
1004.45502
 30
0.0
  0
VERTEX
  8
0
 10
38989.31329
 20
1032.35993
 30
0.0
  0
VERTEX
  8
0
 10
38971.73338
 20
1008.50465
 30
0.0
  0
VERTEX
  8
0
 10
38979.82623
 20
992.58693
 30
0.0
  0
VERTEX
  8
0
 10
39005.73381
 20
946.32866
 30
0.0
  0
VERTEX
  8
0
 10
39035.23798
 20
995.67998
 30
0.0
  0
VERTEX
  8
0
 10
39015.35723
 20
1004.45502
 30
0.0
  0
SEQEND
  0
POLYLINE
  8
0
 66
1
 10
0.0
 20
0.0
 30
0.0
 70
8
  0
VERTEX
  8
0
 10
40013.22714
 20
1012.3836
 30
0.0
  0
VERTEX
  8
0
 10
40005.14743
 20
1035.80658
 30
0.0
  0
VERTEX
  8
0
 10
39948.99036
 20
1004.47891
 30
0.0
  0
VERTEX
  8
0
 10
39974.2215
 20
973.6631
 30
0.0
  0
VERTEX
  8
0
 10
39989.87419
 20
977.70611
 30
0.0
  0
VERTEX
  8
0
 10
40042.30695
 20
966.45097
 30
0.0
  0
VERTEX
  8
0
 10
40013.22714
 20
1012.3836
 30
0.0
  0
SEQEND
  0
POLYLINE
  8
0
 66
1
 10
0.0
 20
0.0
 30
0.0
 70
8
  0
VERTEX
  8
0
 10
41006.50428
 20
1000.44545
 30
0.0
  0
VERTEX
  8
0
 10
40991.01413
 20
1020.38944
 30
0.0
  0
VERTEX
  8
0
 10
40980.7479
 20
1002.02173
 30
0.0
  0
VERTEX
  8
0
 10
40992.84744
 20
998.54657
 30
0.0
  0
VERTEX
  8
0
 10
41005.43091
 20
969.73482
 30
0.0
  0
VERTEX
  8
0
 10
41016.53293
 20
995.86917
 30
0.0
  0
VERTEX
  8
0
 10
41006.50428
 20
1000.44545
 30
0.0
  0
SEQEND
  0
POLYLINE
  8
0
 66
1
 10
0.0
 20
0.0
 30
0.0
 70
8
  0
VERTEX
  8
0
 10
42012.50941
 20
1015.5629
 30
0.0
  0
VERTEX
  8
0
 10
41998.63501
 20
1015.2649
 30
0.0
  0
VERTEX
  8
0
 10
41987.15762
 20
1005.73687
 30
0.0
  0
VERTEX
  8
0
 10
41952.39188
 20
980.69959
 30
0.0
  0
VERTEX
  8
0
 10
42005.12684
 20
973.86878
 30
0.0
  0
VERTEX
  8
0
 10
42023.64816
 20
979.08311
 30
0.0
  0
VERTEX
  8
0
 10
42012.50941
 20
1015.5629
 30
0.0
  0
SEQEND
  0
POLYLINE
  8
0
 66
1
 10
0.0
 20
0.0
 30
0.0
 70
8
  0
VERTEX
  8
0
 10
43025.71388
 20
1033.57142
 30
0.0
  0
VERTEX
  8
0
 10
42986.88484
 20
1042.31914
 30
0.0
  0
VERTEX
  8
0
 10
42974.48945
 20
1002.20712
 30
0.0
  0
VERTEX
  8
0
 10
42975.82332
 20
993.03571
 30
0.0
  0
VERTEX
  8
0
 10
42987.84944
 20
976.77215
 30
0.0
  0
VERTEX
  8
0
 10
43030.45941
 20
967.81288
 30
0.0
  0
VERTEX
  8
0
 10
43025.71388
 20
1033.57142
 30
0.0
  0
SEQEND
  0
POLYLINE
  8
0
 66
1
 10
0.0
 20
0.0
 30
0.0
 70
8
  0
VERTEX
  8
0
 10
44005.16999
 20
1003.67629
 30
0.0
  0
VERTEX
  8
0
 10
43990.7858
 20
1017.43689
 30
0.0
  0
VERTEX
  8
0
 10
43986.38628
 20
1008.67067
 30
0.0
  0
VERTEX
  8
0
 10
43988.41006
 20
998.37404
 30
0.0
  0
VERTEX
  8
0
 10
44001.98585
 20
960.38121
 30
0.0
  0
VERTEX
  8
0
 10
44023.92184
 20
989.65607
 30
0.0
  0
VERTEX
  8
0
 10
44005.16999
 20
1003.67629
 30
0.0
  0
SEQEND
  0
POLYLINE
  8
0
 66
1
 10
0.0
 20
0.0
 30
0.0
 70
8
  0
VERTEX
  8
0
 10
45050.59182
 20
1006.20225
 30
0.0
  0
VERTEX
  8
0
 10
45013.20002
 20
1030.89263
 30
0.0
  0
VERTEX
  8
0
 10
44979.62562
 20
1021.44799
 30
0.0
  0
VERTEX
  8
0
 10
44969.97021
 20
995.86837
 30
0.0
  0
VERTEX
  8
0
 10
45001.01236
 20
994.19603
 30
0.0
  0
VERTEX
  8
0
 10
45046.35498
 20
994.91861
 30
0.0
  0
VERTEX
  8
0
 10
45050.59182
 20
1006.20225
 30
0.0
  0
SEQEND
  0
POLYLINE
  8
0
 66
1
 10
0.0
 20
0.0
 30
0.0
 70
8
  0
VERTEX
  8
0
 10
46009.34007
 20
1003.40751
 30
0.0
  0
VERTEX
  8
0
 10
46003.13656
 20
1020.87655
 30
0.0
  0
VERTEX
  8
0
 10
45994.74732
 20
1003.15686
 30
0.0
  0
VERTEX
  8
0
 10
45979.99959
 20
977.67476
 30
0.0
  0
VERTEX
  8
0
 10
45999.34284
 20
982.42937
 30
0.0
  0
VERTEX
  8
0
 10
46026.75388
 20
998.69983
 30
0.0
  0
VERTEX
  8
0
 10
46009.34007
 20
1003.40751
 30
0.0
  0
SEQEND
  0
POLYLINE
  8
0
 66
1
 10
0.0
 20
0.0
 30
0.0
 70
8
  0
VERTEX
  8
0
 10
47028.62888
 20
1024.827
 30
0.0
  0
VERTEX
  8
0
 10
46989.6698
 20
1025.09056
 30
0.0
  0
VERTEX
  8
0
 10
46969.44252
 20
1040.77947
 30
0.0
  0
VERTEX
  8
0
 10
46968.01243
 20
979.97288
 30
0.0
  0
VERTEX
  8
0
 10
46999.86521
 20
985.56622
 30
0.0
  0
VERTEX
  8
0
 10
47051.6809
 20
986.94779
 30
0.0
  0
VERTEX
  8
0
 10
47028.62888
 20
1024.827
 30
0.0
  0
SEQEND
  0
POLYLINE
  8
0
 66
1
 10
0.0
 20
0.0
 30
0.0
 70
8
  0
VERTEX
  8
0
 10
48020.4648
 20
1017.56571
 30
0.0
  0
VERTEX
  8
0
 10
48019.24637
 20
1034.364
 30
0.0
  0
VERTEX
  8
0
 10
47992.06109
 20
1009.89907
 30
0.0
  0
VERTEX
  8
0
 10
47980.22007
 20
997.87021
 30
0.0
  0
VERTEX
  8
0
 10
47991.737
 20
953.61663
 30
0.0
  0
VERTEX
  8
0
 10
48032.22685
 20
972.54878
 30
0.0
  0
VERTEX
  8
0
 10
48020.4648
 20
1017.56571
 30
0.0
  0
SEQEND
  0
POLYLINE
  8
0
 66
1
 10
0.0
 20
0.0
 30
0.0
 70
8
  0
VERTEX
  8
0
 10
14.917720000000001
 20
1015.72529
 30
0.0
  0
VERTEX
  8
0
 10
5.83628
 20
1012.68671
 30
0.0
  0
VERTEX
  8
0
 10
-30.96532
 20
1034.2459
 30
0.0
  0
VERTEX
  8
0
 10
-18.521069999999998
 20
992.62647
 30
0.0
  0
VERTEX
  8
0
 10
-2.87336
 20
980.91535
 30
0.0
  0
VERTEX
  8
0
 10
23.20826
 20
994.1127
 30
0.0
  0
VERTEX
  8
0
 10
14.917720000000001
 20
1015.72529
 30
0.0
  0
SEQEND
  0
POLYLINE
  8
0
 66
1
 10
0.0
 20
0.0
 30
0.0
 70
8
  0
VERTEX
  8
0
 10
1037.26252
 20
2037.48632
 30
0.0
  0
VERTEX
  8
0
 10
1010.30038
 20
2044.89509
 30
0.0
  0
VERTEX
  8
0
 10
991.72439
 20
2004.13048
 30
0.0
  0
VERTEX
  8
0
 10
970.57502
 20
1965.02677
 30
0.0
  0
VERTEX
  8
0
 10
987.91376
 20
1966.23728
 30
0.0
  0
VERTEX
  8
0
 10
1019.70304
 20
1980.6778
 30
0.0
  0
VERTEX
  8
0
 10
1037.26252
 20
2037.48632
 30
0.0
  0
SEQEND
  0
POLYLINE
  8
0
 66
1
 10
0.0
 20
0.0
 30
0.0
 70
8
  0
VERTEX
  8
0
 10
2018.1456
 20
2017.53766
 30
0.0
  0
VERTEX
  8
0
 10
2002.87183
 20
2011.9949
 30
0.0
  0
VERTEX
  8
0
 10
1991.15484
 20
2012.70653
 30
0.0
  0
VERTEX
  8
0
 10
1949.81935
 20
1981.85845
 30
0.0
  0
VERTEX
  8
0
 10
2009.82549
 20
1951.82957
 30
0.0
  0
VERTEX
  8
0
 10
2012.11592
 20
1997.62442
 30
0.0
  0
VERTEX
  8
0
 10
2018.1456
 20
2017.53766
 30
0.0
  0
SEQEND
  0
POLYLINE
  8
0
 66
1
 10
0.0
 20
0.0
 30
0.0
 70
8
  0
VERTEX
  8
0
 10
3045.35124
 20
2012.37276
 30
0.0
  0
VERTEX
  8
0
 10
3008.80023
 20
2048.25061
 30
0.0
  0
VERTEX
  8
0
 10
2991.64464
 20
2000.52415
 30
0.0
  0
VERTEX
  8
0
 10
2982.31643
 20
1978.99191
 30
0.0
  0
VERTEX
  8
0
 10
3012.4469
 20
1956.22294
 30
0.0
  0
VERTEX
  8
0
 10
3006.44824
 20
1998.46207
 30
0.0
  0
VERTEX
  8
0
 10
3045.35124
 20
2012.37276
 30
0.0
  0
SEQEND
  0
POLYLINE
  8
0
 66
1
 10
0.0
 20
0.0
 30
0.0
 70
8
  0
VERTEX
  8
0
 10
4034.48522
 20
2028.11575
 30
0.0
  0
VERTEX
  8
0
 10
4005.62048
 20
2036.96418
 30
0.0
  0
VERTEX
  8
0
 10
3957.79895
 20
2009.49584
 30
0.0
  0
VERTEX
  8
0
 10
3965.16149
 20
1983.73955
 30
0.0
  0
VERTEX
  8
0
 10
3984.90587
 20
1960.10205
 30
0.0
  0
VERTEX
  8
0
 10
4039.88749
 20
1970.90872
 30
0.0
  0
VERTEX
  8
0
 10
4034.48522
 20
2028.11575
 30
0.0
  0
SEQEND
  0
POLYLINE
  8
0
 66
1
 10
0.0
 20
0.0
 30
0.0
 70
8
  0
VERTEX
  8
0
 10
5023.24943
 20
2015.59155
 30
0.0
  0
VERTEX
  8
0
 10
5000.00766
 20
2026.14014
 30
0.0
  0
VERTEX
  8
0
 10
4977.54562
 20
2013.46363
 30
0.0
  0
VERTEX
  8
0
 10
4964.52559
 20
1984.19614
 30
0.0
  0
VERTEX
  8
0
 10
4976.22394
 20
1954.282
 30
0.0
  0
VERTEX
  8
0
 10
5007.22227
 20
1999.09561
 30
0.0
  0
VERTEX
  8
0
 10
5023.24943
 20
2015.59155
 30
0.0
  0
SEQEND
  0
POLYLINE
  8
0
 66
1
 10
0.0
 20
0.0
 30
0.0
 70
8
  0
VERTEX
  8
0
 10
6054.16869
 20
2003.21643
 30
0.0
  0
VERTEX
  8
0
 10
5993.18439
 20
2040.37206
 30
0.0
  0
VERTEX
  8
0
 10
5996.06106
 20
2006.40548
 30
0.0
  0
VERTEX
  8
0
 10
5987.15921
 20
1987.83248
 30
0.0
  0
VERTEX
  8
0
 10
6005.41572
 20
1967.23399
 30
0.0
  0
VERTEX
  8
0
 10
6025.68627
 20
1996.67662
 30
0.0
  0
VERTEX
  8
0
 10
6054.16869
 20
2003.21643
 30
0.0
  0
SEQEND
  0
POLYLINE
  8
0
 66
1
 10
0.0
 20
0.0
 30
0.0
 70
8
  0
VERTEX
  8
0
 10
7014.99054
 20
2019.64255
 30
0.0
  0
VERTEX
  8
0
 10
7003.59042
 20
2008.29888
 30
0.0
  0
VERTEX
  8
0
 10
6971.5274
 20
2008.2653
 30
0.0
  0
VERTEX
  8
0
 10
6973.71678
 20
1979.75577
 30
0.0
  0
VERTEX
  8
0
 10
6990.75773
 20
1960.75912
 30
0.0
  0
VERTEX
  8
0
 10
7045.8145700000005
 20
1979.05492
 30
0.0
  0
VERTEX
  8
0
 10
7014.99054
 20
2019.64255
 30
0.0
  0
SEQEND
  0
POLYLINE
  8
0
 66
1
 10
0.0
 20
0.0
 30
0.0
 70
8
  0
VERTEX
  8
0
 10
8017.3667
 20
2027.91459
 30
0.0
  0
VERTEX
  8
0
 10
7984.81758
 20
2037.19807
 30
0.0
  0
VERTEX
  8
0
 10
7962.88046
 20
2012.38757
 30
0.0
  0
VERTEX
  8
0
 10
7983.13128
 20
1991.85033
 30
0.0
  0
VERTEX
  8
0
 10
7991.80307
 20
1982.89902
 30
0.0
  0
VERTEX
  8
0
 10
8037.95609
 20
1964.66709
 30
0.0
  0
VERTEX
  8
0
 10
8017.3667
 20
2027.91459
 30
0.0
  0
SEQEND
  0
POLYLINE
  8
0
 66
1
 10
0.0
 20
0.0
 30
0.0
 70
8
  0
VERTEX
  8
0
 10
9008.63444
 20
2000.15137
 30
0.0
  0
VERTEX
  8
0
 10
9001.12753
 20
2042.42172
 30
0.0
  0
VERTEX
  8
0
 10
8958.72996
 20
2027.35549
 30
0.0
  0
VERTEX
  8
0
 10
8982.40773
 20
1986.51942
 30
0.0
  0
VERTEX
  8
0
 10
8997.8309
 20
1979.20226
 30
0.0
  0
VERTEX
  8
0
 10
9031.99053
 20
1965.41564
 30
0.0
  0
VERTEX
  8
0
 10
9008.63444
 20
2000.15137
 30
0.0
  0
SEQEND
  0
POLYLINE
  8
0
 66
1
 10
0.0
 20
0.0
 30
0.0
 70
8
  0
VERTEX
  8
0
 10
10034.47833
 20
2040.15779
 30
0.0
  0
VERTEX
  8
0
 10
9995.96564
 20
2024.94708
 30
0.0
  0
VERTEX
  8
0
 10
9985.69088
 20
2018.44618
 30
0.0
  0
VERTEX
  8
0
 10
9973.91192
 20
1960.84718
 30
0.0
  0
VERTEX
  8
0
 10
9981.71054
 20
1959.00182
 30
0.0
  0
VERTEX
  8
0
 10
10017.34394
 20
1971.26594
 30
0.0
  0
VERTEX
  8
0
 10
10034.47833
 20
2040.15779
 30
0.0
  0
SEQEND
  0
POLYLINE
  8
0
 66
1
 10
0.0
 20
0.0
 30
0.0
 70
8
  0
VERTEX
  8
0
 10
11033.13775
 20
2033.89301
 30
0.0
  0
VERTEX
  8
0
 10
11005.08825
 20
2013.86747
 30
0.0
  0
VERTEX
  8
0
 10
10996.07225
 20
2005.83143
 30
0.0
  0
VERTEX
  8
0
 10
10965.56279
 20
1991.36569
 30
0.0
  0
VERTEX
  8
0
 10
10983.39976
 20
1960.71047
 30
0.0
  0
VERTEX
  8
0
 10
11009.99101
 20
1993.86911
 30
0.0
  0
VERTEX
  8
0
 10
11033.13775
 20
2033.89301
 30
0.0
  0
SEQEND
  0
POLYLINE
  8
0
 66
1
 10
0.0
 20
0.0
 30
0.0
 70
8
  0
VERTEX
  8
0
 10
12025.95061
 20
2041.52294
 30
0.0
  0
VERTEX
  8
0
 10
12013.4017
 20
2025.89459
 30
0.0
  0
VERTEX
  8
0
 10
11987.35229
 20
2013.31108
 30
0.0
  0
VERTEX
  8
0
 10
11995.26237
 20
1996.39543
 30
0.0
  0
VERTEX
  8
0
 10
12001.21962
 20
1994.77258
 30
0.0
  0
VERTEX
  8
0
 10
12011.26907
 20
1984.6063
 30
0.0
  0
VERTEX
  8
0
 10
12025.95061
 20
2041.52294
 30
0.0
  0
SEQEND
  0
POLYLINE
  8
0
 66
1
 10
0.0
 20
0.0
 30
0.0
 70
8
  0
VERTEX
  8
0
 10
13034.96758
 20
2017.34526
 30
0.0
  0
VERTEX
  8
0
 10
12998.86282
 20
2031.30857
 30
0.0
  0
VERTEX
  8
0
 10
12988.00993
 20
2009.45087
 30
0.0
  0
VERTEX
  8
0
 10
12953.04593
 20
1998.46483
 30
0.0
  0
VERTEX
  8
0
 10
13016.23605
 20
1963.0523699999999
 30
0.0
  0
VERTEX
  8
0
 10
13012.09558
 20
1984.00907
 30
0.0
  0
VERTEX
  8
0
 10
13034.96758
 20
2017.34526
 30
0.0
  0
SEQEND
  0
POLYLINE
  8
0
 66
1
 10
0.0
 20
0.0
 30
0.0
 70
8
  0
VERTEX
  8
0
 10
14012.25748
 20
2004.10868
 30
0.0
  0
VERTEX
  8
0
 10
14002.11717
 20
2026.8489
 30
0.0
  0
VERTEX
  8
0
 10
13970.54225
 20
2012.61908
 30
0.0
  0
VERTEX
  8
0
 10
13986.25803
 20
1986.419
 30
0.0
  0
VERTEX
  8
0
 10
14001.34678
 20
1984.15847
 30
0.0
  0
VERTEX
  8
0
 10
14006.64883
 20
1997.18519
 30
0.0
  0
VERTEX
  8
0
 10
14012.25748
 20
2004.10868
 30
0.0
  0
SEQEND
  0
POLYLINE
  8
0
 66
1
 10
0.0
 20
0.0
 30
0.0
 70
8
  0
VERTEX
  8
0
 10
15011.98402
 20
2006.83256
 30
0.0
  0
VERTEX
  8
0
 10
14999.53864
 20
2035.62575
 30
0.0
  0
VERTEX
  8
0
 10
14994.56664
 20
2007.46472
 30
0.0
  0
VERTEX
  8
0
 10
14954.4135
 20
1991.3468
 30
0.0
  0
VERTEX
  8
0
 10
14983.74721
 20
1962.09429
 30
0.0
  0
VERTEX
  8
0
 10
15023.24794
 20
1970.73751
 30
0.0
  0
VERTEX
  8
0
 10
15011.98402
 20
2006.83256
 30
0.0
  0
SEQEND
  0
POLYLINE
  8
0
 66
1
 10
0.0
 20
0.0
 30
0.0
 70
8
  0
VERTEX
  8
0
 10
16005.33372
 20
2004.96605
 30
0.0
  0
VERTEX
  8
0
 10
15997.00099
 20
2010.0683
 30
0.0
  0
VERTEX
  8
0
 10
15993.8295
 20
2004.60263
 30
0.0
  0
VERTEX
  8
0
 10
15990.66005
 20
1995.35192
 30
0.0
  0
VERTEX
  8
0
 10
15998.08022
 20
1994.08842
 30
0.0
  0
VERTEX
  8
0
 10
16027.05709
 20
1986.9108
 30
0.0
  0
VERTEX
  8
0
 10
16005.33372
 20
2004.96605
 30
0.0
  0
SEQEND
  0
POLYLINE
  8
0
 66
1
 10
0.0
 20
0.0
 30
0.0
 70
8
  0
VERTEX
  8
0
 10
17012.76232
 20
2006.20572
 30
0.0
  0
VERTEX
  8
0
 10
17003.79665
 20
2035.4141
 30
0.0
  0
VERTEX
  8
0
 10
16990.85995
 20
2011.94765
 30
0.0
  0
VERTEX
  8
0
 10
16956.48537
 20
1997.49046
 30
0.0
  0
VERTEX
  8
0
 10
17001.00384
 20
1994.63295
 30
0.0
  0
VERTEX
  8
0
 10
17039.96091
 20
1998.66674
 30
0.0
  0
VERTEX
  8
0
 10
17012.76232
 20
2006.20572
 30
0.0
  0
SEQEND
  0
POLYLINE
  8
0
 66
1
 10
0.0
 20
0.0
 30
0.0
 70
8
  0
VERTEX
  8
0
 10
18027.26313
 20
2024.9911299999999
 30
0.0
  0
VERTEX
  8
0
 10
18014.34961
 20
2044.15971
 30
0.0
  0
VERTEX
  8
0
 10
17989.51806
 20
2014.87583
 30
0.0
  0
VERTEX
  8
0
 10
17969.3365
 20
1996.81235
 30
0.0
  0
VERTEX
  8
0
 10
17992.92948
 20
1981.47991
 30
0.0
  0
VERTEX
  8
0
 10
18042.46592
 20
1999.25821
 30
0.0
  0
VERTEX
  8
0
 10
18027.26313
 20
2024.9911299999999
 30
0.0
  0
SEQEND
  0
POLYLINE
  8
0
 66
1
 10
0.0
 20
0.0
 30
0.0
 70
8
  0
VERTEX
  8
0
 10
19046.70005
 20
2007.18313
 30
0.0
  0
VERTEX
  8
0
 10
18999.87169
 20
2006.28108
 30
0.0
  0
VERTEX
  8
0
 10
18965.32605
 20
2005.16556
 30
0.0
  0
VERTEX
  8
0
 10
18988.00335
 20
1997.60598
 30
0.0
  0
VERTEX
  8
0
 10
19010.24802
 20
1948.4444
 30
0.0
  0
VERTEX
  8
0
 10
19047.44111
 20
1974.8354199999999
 30
0.0
  0
VERTEX
  8
0
 10
19046.70005
 20
2007.18313
 30
0.0
  0
SEQEND
  0
POLYLINE
  8
0
 66
1
 10
0.0
 20
0.0
 30
0.0
 70
8
  0
VERTEX
  8
0
 10
20031.86342
 20
2028.99217
 30
0.0
  0
VERTEX
  8
0
 10
19997.73451
 20
2016.24357
 30
0.0
  0
VERTEX
  8
0
 10
19963.98419
 20
2033.35873
 30
0.0
  0
VERTEX
  8
0
 10
19988.29818
 20
1992.93731
 30
0.0
  0
VERTEX
  8
0
 10
20001.81411
 20
1964.41168
 30
0.0
  0
VERTEX
  8
0
 10
20042.08006
 20
1972.0539899999999
 30
0.0
  0
VERTEX
  8
0
 10
20031.86342
 20
2028.99217
 30
0.0
  0
SEQEND
  0
POLYLINE
  8
0
 66
1
 10
0.0
 20
0.0
 30
0.0
 70
8
  0
VERTEX
  8
0
 10
21033.04642
 20
2031.47756
 30
0.0
  0
VERTEX
  8
0
 10
21008.79617
 20
2016.10975
 30
0.0
  0
VERTEX
  8
0
 10
20974.25753
 20
2025.90378
 30
0.0
  0
VERTEX
  8
0
 10
20972.20972
 20
1991.88833
 30
0.0
  0
VERTEX
  8
0
 10
20996.77985
 20
1990.28767
 30
0.0
  0
VERTEX
  8
0
 10
21017.5083
 20
1973.91078
 30
0.0
  0
VERTEX
  8
0
 10
21033.04642
 20
2031.47756
 30
0.0
  0
SEQEND
  0
POLYLINE
  8
0
 66
1
 10
0.0
 20
0.0
 30
0.0
 70
8
  0
VERTEX
  8
0
 10
22043.6116
 20
2026.70466
 30
0.0
  0
VERTEX
  8
0
 10
21999.14687
 20
2030.76093
 30
0.0
  0
VERTEX
  8
0
 10
21981.81944
 20
2014.02105
 30
0.0
  0
VERTEX
  8
0
 10
21994.67535
 20
1997.87793
 30
0.0
  0
VERTEX
  8
0
 10
21991.91689
 20
1984.40682
 30
0.0
  0
VERTEX
  8
0
 10
22030.46238
 20
1959.29162
 30
0.0
  0
VERTEX
  8
0
 10
22043.6116
 20
2026.70466
 30
0.0
  0
SEQEND
  0
POLYLINE
  8
0
 66
1
 10
0.0
 20
0.0
 30
0.0
 70
8
  0
VERTEX
  8
0
 10
23041.96733
 20
2022.83788
 30
0.0
  0
VERTEX
  8
0
 10
22989.23258
 20
2031.97938
 30
0.0
  0
VERTEX
  8
0
 10
22962.2934
 20
2006.10487
 30
0.0
  0
VERTEX
  8
0
 10
22981.03965
 20
1983.30378
 30
0.0
  0
VERTEX
  8
0
 10
22997.12528
 20
1984.07963
 30
0.0
  0
VERTEX
  8
0
 10
23026.6252
 20
1986.83822
 30
0.0
  0
VERTEX
  8
0
 10
23041.96733
 20
2022.83788
 30
0.0
  0
SEQEND
  0
POLYLINE
  8
0
 66
1
 10
0.0
 20
0.0
 30
0.0
 70
8
  0
VERTEX
  8
0
 10
24027.09378
 20
2007.47073
 30
0.0
  0
VERTEX
  8
0
 10
24000.0352
 20
2016.0266
 30
0.0
  0
VERTEX
  8
0
 10
23992.78855
 20
2011.26505
 30
0.0
  0
VERTEX
  8
0
 10
23972.31208
 20
1983.49428
 30
0.0
  0
VERTEX
  8
0
 10
24004.29714
 20
1970.63225
 30
0.0
  0
VERTEX
  8
0
 10
24044.42463
 20
1981.83237
 30
0.0
  0
VERTEX
  8
0
 10
24027.09378
 20
2007.47073
 30
0.0
  0
SEQEND
  0
POLYLINE
  8
0
 66
1
 10
0.0
 20
0.0
 30
0.0
 70
8
  0
VERTEX
  8
0
 10
25010.49516
 20
2007.19719
 30
0.0
  0
VERTEX
  8
0
 10
25000.14227
 20
2045.5736
 30
0.0
  0
VERTEX
  8
0
 10
24980.28358
 20
2033.17222
 30
0.0
  0
VERTEX
  8
0
 10
24946.47449
 20
1997.29716
 30
0.0
  0
VERTEX
  8
0
 10
25001.44706
 20
1987.62865
 30
0.0
  0
VERTEX
  8
0
 10
25032.84727
 20
1990.89109
 30
0.0
  0
VERTEX
  8
0
 10
25010.49516
 20
2007.19719
 30
0.0
  0
SEQEND
  0
POLYLINE
  8
0
 66
1
 10
0.0
 20
0.0
 30
0.0
 70
8
  0
VERTEX
  8
0
 10
26015.71046
 20
2012.99794
 30
0.0
  0
VERTEX
  8
0
 10
25976.12792
 20
2045.11626
 30
0.0
  0
VERTEX
  8
0
 10
25976.52103
 20
2003.20325
 30
0.0
  0
VERTEX
  8
0
 10
25952.94505
 20
1993.05983
 30
0.0
  0
VERTEX
  8
0
 10
26002.97086
 20
1990.67156
 30
0.0
  0
VERTEX
  8
0
 10
26006.15518
 20
1996.87979
 30
0.0
  0
VERTEX
  8
0
 10
26015.71046
 20
2012.99794
 30
0.0
  0
SEQEND
  0
POLYLINE
  8
0
 66
1
 10
0.0
 20
0.0
 30
0.0
 70
8
  0
VERTEX
  8
0
 10
27027.29479
 20
2011.10785
 30
0.0
  0
VERTEX
  8
0
 10
27000.87313
 20
2015.08087
 30
0.0
  0
VERTEX
  8
0
 10
26980.63845
 20
2030.61477
 30
0.0
  0
VERTEX
  8
0
 10
26959.80905
 20
1998.7393
 30
0.0
  0
VERTEX
  8
0
 10
27003.13263
 20
1990.26571
 30
0.0
  0
VERTEX
  8
0
 10
27010.23402
 20
1988.01022
 30
0.0
  0
VERTEX
  8
0
 10
27027.29479
 20
2011.10785
 30
0.0
  0
SEQEND
  0
POLYLINE
  8
0
 66
1
 10
0.0
 20
0.0
 30
0.0
 70
8
  0
VERTEX
  8
0
 10
28023.34989
 20
2019.18578
 30
0.0
  0
VERTEX
  8
0
 10
27996.62189
 20
2012.09763
 30
0.0
  0
VERTEX
  8
0
 10
27947.08795
 20
2003.30491
 30
0.0
  0
VERTEX
  8
0
 10
27987.23209
 20
1997.09512
 30
0.0
  0
VERTEX
  8
0
 10
27989.60012
 20
1980.81486
 30
0.0
  0
VERTEX
  8
0
 10
28032.56603
 20
1976.33889
 30
0.0
  0
VERTEX
  8
0
 10
28023.34989
 20
2019.18578
 30
0.0
  0
SEQEND
  0
POLYLINE
  8
0
 66
1
 10
0.0
 20
0.0
 30
0.0
 70
8
  0
VERTEX
  8
0
 10
29020.97208
 20
2019.97122
 30
0.0
  0
VERTEX
  8
0
 10
28996.61243
 20
2008.87006
 30
0.0
  0
VERTEX
  8
0
 10
28982.0071
 20
2022.86252
 30
0.0
  0
VERTEX
  8
0
 10
28983.51776
 20
1988.09715
 30
0.0
  0
VERTEX
  8
0
 10
29002.06755
 20
1987.99422
 30
0.0
  0
VERTEX
  8
0
 10
29007.68576
 20
1989.7399
 30
0.0
  0
VERTEX
  8
0
 10
29020.97208
 20
2019.97122
 30
0.0
  0
SEQEND
  0
POLYLINE
  8
0
 66
1
 10
0.0
 20
0.0
 30
0.0
 70
8
  0
VERTEX
  8
0
 10
30022.48379
 20
2010.11141
 30
0.0
  0
VERTEX
  8
0
 10
30001.93046
 20
2017.78401
 30
0.0
  0
VERTEX
  8
0
 10
29971.78616
 20
2011.44524
 30
0.0
  0
VERTEX
  8
0
 10
29969.43579
 20
1997.63394
 30
0.0
  0
VERTEX
  8
0
 10
30019.99944
 20
1952.24746
 30
0.0
  0
VERTEX
  8
0
 10
30017.10106
 20
1981.8123
 30
0.0
  0
VERTEX
  8
0
 10
30022.48379
 20
2010.11141
 30
0.0
  0
SEQEND
  0
POLYLINE
  8
0
 66
1
 10
0.0
 20
0.0
 30
0.0
 70
8
  0
VERTEX
  8
0
 10
31032.05707
 20
2044.35338
 30
0.0
  0
VERTEX
  8
0
 10
30989.77118
 20
2050.04526
 30
0.0
  0
VERTEX
  8
0
 10
30990.34701
 20
2006.12452
 30
0.0
  0
VERTEX
  8
0
 10
30976.32919
 20
1986.40328
 30
0.0
  0
VERTEX
  8
0
 10
30999.51755
 20
1960.57269
 30
0.0
  0
VERTEX
  8
0
 10
31026.37305
 20
1971.19724
 30
0.0
  0
VERTEX
  8
0
 10
31032.05707
 20
2044.35338
 30
0.0
  0
SEQEND
  0
POLYLINE
  8
0
 66
1
 10
0.0
 20
0.0
 30
0.0
 70
8
  0
VERTEX
  8
0
 10
32036.8468
 20
2035.90854
 30
0.0
  0
VERTEX
  8
0
 10
31995.44895
 20
2008.55192
 30
0.0
  0
VERTEX
  8
0
 10
31987.56318
 20
2005.29591
 30
0.0
  0
VERTEX
  8
0
 10
31974.58884
 20
1998.82187
 30
0.0
  0
VERTEX
  8
0
 10
31991.94234
 20
1981.17218
 30
0.0
  0
VERTEX
  8
0
 10
32008.20666
 20
1995.7335
 30
0.0
  0
VERTEX
  8
0
 10
32036.8468
 20
2035.90854
 30
0.0
  0
SEQEND
  0
POLYLINE
  8
0
 66
1
 10
0.0
 20
0.0
 30
0.0
 70
8
  0
VERTEX
  8
0
 10
33020.80519
 20
2003.45336
 30
0.0
  0
VERTEX
  8
0
 10
32980.09258
 20
2042.63679
 30
0.0
  0
VERTEX
  8
0
 10
32983.18574
 20
2022.03689
 30
0.0
  0
VERTEX
  8
0
 10
32992.69824
 20
1991.26073
 30
0.0
  0
VERTEX
  8
0
 10
33002.82981
 20
1958.93317
 30
0.0
  0
VERTEX
  8
0
 10
33017.63831
 20
1970.71166
 30
0.0
  0
VERTEX
  8
0
 10
33020.80519
 20
2003.45336
 30
0.0
  0
SEQEND
  0
POLYLINE
  8
0
 66
1
 10
0.0
 20
0.0
 30
0.0
 70
8
  0
VERTEX
  8
0
 10
34032.47975
 20
2030.98098
 30
0.0
  0
VERTEX
  8
0
 10
34019.38504
 20
2040.70072
 30
0.0
  0
VERTEX
  8
0
 10
33980.70292
 20
2015.83983
 30
0.0
  0
VERTEX
  8
0
 10
33968.33318
 20
1956.974
 30
0.0
  0
VERTEX
  8
0
 10
34002.86838
 20
1981.82209
 30
0.0
  0
VERTEX
  8
0
 10
34026.74163
 20
1994.31427
 30
0.0
  0
VERTEX
  8
0
 10
34032.47975
 20
2030.98098
 30
0.0
  0
SEQEND
  0
POLYLINE
  8
0
 66
1
 10
0.0
 20
0.0
 30
0.0
 70
8
  0
VERTEX
  8
0
 10
35028.69897
 20
2010.55171
 30
0.0
  0
VERTEX
  8
0
 10
34993.15065
 20
2016.75159
 30
0.0
  0
VERTEX
  8
0
 10
34972.09243
 20
2028.4031
 30
0.0
  0
VERTEX
  8
0
 10
34953.10626
 20
1978.89236
 30
0.0
  0
VERTEX
  8
0
 10
35004.88904
 20
1984.08842
 30
0.0
  0
VERTEX
  8
0
 10
35051.80373
 20
1997.44941
 30
0.0
  0
VERTEX
  8
0
 10
35028.69897
 20
2010.55171
 30
0.0
  0
SEQEND
  0
POLYLINE
  8
0
 66
1
 10
0.0
 20
0.0
 30
0.0
 70
8
  0
VERTEX
  8
0
 10
36007.96365
 20
2003.41056
 30
0.0
  0
VERTEX
  8
0
 10
36000.23872
 20
2005.16986
 30
0.0
  0
VERTEX
  8
0
 10
35988.85436
 20
2008.09293
 30
0.0
  0
VERTEX
  8
0
 10
35980.92091
 20
1973.00903
 30
0.0
  0
VERTEX
  8
0
 10
35996.38855
 20
1979.04498
 30
0.0
  0
VERTEX
  8
0
 10
36034.52301
 20
1973.20137
 30
0.0
  0
VERTEX
  8
0
 10
36007.96365
 20
2003.41056
 30
0.0
  0
SEQEND
  0
POLYLINE
  8
0
 66
1
 10
0.0
 20
0.0
 30
0.0
 70
8
  0
VERTEX
  8
0
 10
37022.0625
 20
2010.96755
 30
0.0
  0
VERTEX
  8
0
 10
36977.21092
 20
2048.38834
 30
0.0
  0
VERTEX
  8
0
 10
36981.96158
 20
2028.06186
 30
0.0
  0
VERTEX
  8
0
 10
36959.05483
 20
1985.67928
 30
0.0
  0
VERTEX
  8
0
 10
37018.11385
 20
1953.38103
 30
0.0
  0
VERTEX
  8
0
 10
37032.04426
 20
1984.38786
 30
0.0
  0
VERTEX
  8
0
 10
37022.0625
 20
2010.96755
 30
0.0
  0
SEQEND
  0
POLYLINE
  8
0
 66
1
 10
0.0
 20
0.0
 30
0.0
 70
8
  0
VERTEX
  8
0
 10
38032.71101
 20
2014.84233
 30
0.0
  0
VERTEX
  8
0
 10
37988.19772
 20
2044.22227
 30
0.0
  0
VERTEX
  8
0
 10
37991.45394
 20
2001.68064
 30
0.0
  0
VERTEX
  8
0
 10
37965.03549
 20
1997.20971
 30
0.0
  0
VERTEX
  8
0
 10
38002.16497
 20
1993.09456
 30
0.0
  0
VERTEX
  8
0
 10
38031.18809
 20
1964.96655
 30
0.0
  0
VERTEX
  8
0
 10
38032.71101
 20
2014.84233
 30
0.0
  0
SEQEND
  0
POLYLINE
  8
0
 66
1
 10
0.0
 20
0.0
 30
0.0
 70
8
  0
VERTEX
  8
0
 10
39022.10879
 20
2019.07531
 30
0.0
  0
VERTEX
  8
0
 10
39017.36924
 20
2038.27602
 30
0.0
  0
VERTEX
  8
0
 10
38958.12227
 20
2014.25534
 30
0.0
  0
VERTEX
  8
0
 10
38980.60325
 20
1984.37096
 30
0.0
  0
VERTEX
  8
0
 10
38995.31941
 20
1965.78441
 30
0.0
  0
VERTEX
  8
0
 10
39033.11186
 20
1973.23386
 30
0.0
  0
VERTEX
  8
0
 10
39022.10879
 20
2019.07531
 30
0.0
  0
SEQEND
  0
POLYLINE
  8
0
 66
1
 10
0.0
 20
0.0
 30
0.0
 70
8
  0
VERTEX
  8
0
 10
40040.37606
 20
2011.98668
 30
0.0
  0
VERTEX
  8
0
 10
39987.72488
 20
2029.84128
 30
0.0
  0
VERTEX
  8
0
 10
39984.46921
 20
2005.90118
 30
0.0
  0
VERTEX
  8
0
 10
39965.20884
 20
1974.53031
 30
0.0
  0
VERTEX
  8
0
 10
39984.7517
 20
1968.39279
 30
0.0
  0
VERTEX
  8
0
 10
40019.23208
 20
1982.44037
 30
0.0
  0
VERTEX
  8
0
 10
40040.37606
 20
2011.98668
 30
0.0
  0
SEQEND
  0
POLYLINE
  8
0
 66
1
 10
0.0
 20
0.0
 30
0.0
 70
8
  0
VERTEX
  8
0
 10
41017.15504
 20
2010.71263
 30
0.0
  0
VERTEX
  8
0
 10
40998.46506
 20
2008.88556
 30
0.0
  0
VERTEX
  8
0
 10
40981.46797
 20
2029.87678
 30
0.0
  0
VERTEX
  8
0
 10
40959.34173
 20
1999.60219
 30
0.0
  0
VERTEX
  8
0
 10
41010.92764
 20
1976.12006
 30
0.0
  0
VERTEX
  8
0
 10
41011.80578
 20
1992.54714
 30
0.0
  0
VERTEX
  8
0
 10
41017.15504
 20
2010.71263
 30
0.0
  0
SEQEND
  0
POLYLINE
  8
0
 66
1
 10
0.0
 20
0.0
 30
0.0
 70
8
  0
VERTEX
  8
0
 10
42025.50568
 20
2022.08313
 30
0.0
  0
VERTEX
  8
0
 10
41987.56633
 20
2027.99716
 30
0.0
  0
VERTEX
  8
0
 10
41984.89852
 20
2016.48162
 30
0.0
  0
VERTEX
  8
0
 10
41963.35068
 20
1985.72728
 30
0.0
  0
VERTEX
  8
0
 10
42010.8384
 20
1961.96532
 30
0.0
  0
VERTEX
  8
0
 10
42035.98691
 20
1980.65503
 30
0.0
  0
VERTEX
  8
0
 10
42025.50568
 20
2022.08313
 30
0.0
  0
SEQEND
  0
POLYLINE
  8
0
 66
1
 10
0.0
 20
0.0
 30
0.0
 70
8
  0
VERTEX
  8
0
 10
43012.03688
 20
2015.77581
 30
0.0
  0
VERTEX
  8
0
 10
42992.8825
 20
2025.12828
 30
0.0
  0
VERTEX
  8
0
 10
42993.13182
 20
2010.20285
 30
0.0
  0
VERTEX
  8
0
 10
42982.03059
 20
1992.85391
 30
0.0
  0
VERTEX
  8
0
 10
43006.76466
 20
1946.77808
 30
0.0
  0
VERTEX
  8
0
 10
43013.96416
 20
1976.93678
 30
0.0
  0
VERTEX
  8
0
 10
43012.03688
 20
2015.77581
 30
0.0
  0
SEQEND
  0
POLYLINE
  8
0
 66
1
 10
0.0
 20
0.0
 30
0.0
 70
8
  0
VERTEX
  8
0
 10
44046.51737
 20
2020.64983
 30
0.0
  0
VERTEX
  8
0
 10
44007.06639
 20
2017.98958
 30
0.0
  0
VERTEX
  8
0
 10
43955.98044
 20
2023.12152
 30
0.0
  0
VERTEX
  8
0
 10
43968.80838
 20
1962.61307
 30
0.0
  0
VERTEX
  8
0
 10
44002.22203
 20
1984.74341
 30
0.0
  0
VERTEX
  8
0
 10
44014.15625
 20
1999.17305
 30
0.0
  0
VERTEX
  8
0
 10
44046.51737
 20
2020.64983
 30
0.0
  0
SEQEND
  0
POLYLINE
  8
0
 66
1
 10
0.0
 20
0.0
 30
0.0
 70
8
  0
VERTEX
  8
0
 10
45049.21464
 20
2014.62729
 30
0.0
  0
VERTEX
  8
0
 10
45000.20178
 20
2009.65909
 30
0.0
  0
VERTEX
  8
0
 10
44981.29301
 20
2002.33239
 30
0.0
  0
VERTEX
  8
0
 10
44971.73271
 20
1985.69835
 30
0.0
  0
VERTEX
  8
0
 10
45000.16134
 20
1969.87737
 30
0.0
  0
VERTEX
  8
0
 10
45051.29409
 20
1994.61792
 30
0.0
  0
VERTEX
  8
0
 10
45049.21464
 20
2014.62729
 30
0.0
  0
SEQEND
  0
POLYLINE
  8
0
 66
1
 10
0.0
 20
0.0
 30
0.0
 70
8
  0
VERTEX
  8
0
 10
46041.11472
 20
2026.89287
 30
0.0
  0
VERTEX
  8
0
 10
46002.00099
 20
2005.78231
 30
0.0
  0
VERTEX
  8
0
 10
45961.17187
 20
2020.7697
 30
0.0
  0
VERTEX
  8
0
 10
45993.48309
 20
1997.45364
 30
0.0
  0
VERTEX
  8
0
 10
45992.70504
 20
1976.9989
 30
0.0
  0
VERTEX
  8
0
 10
46006.62414
 20
1999.13699
 30
0.0
  0
VERTEX
  8
0
 10
46041.11472
 20
2026.89287
 30
0.0
  0
SEQEND
  0
POLYLINE
  8
0
 66
1
 10
0.0
 20
0.0
 30
0.0
 70
8
  0
VERTEX
  8
0
 10
47030.51248
 20
2007.13454
 30
0.0
  0
VERTEX
  8
0
 10
46999.51301
 20
2027.55834
 30
0.0
  0
VERTEX
  8
0
 10
46966.8952
 20
2012.11553
 30
0.0
  0
VERTEX
  8
0
 10
46956.63068
 20
1975.22777
 30
0.0
  0
VERTEX
  8
0
 10
47003.26
 20
1984.8514
 30
0.0
  0
VERTEX
  8
0
 10
47005.00305
 20
1994.10191
 30
0.0
  0
VERTEX
  8
0
 10
47030.51248
 20
2007.13454
 30
0.0
  0
SEQEND
  0
POLYLINE
  8
0
 66
1
 10
0.0
 20
0.0
 30
0.0
 70
8
  0
VERTEX
  8
0
 10
48028.84461
 20
2013.37837
 30
0.0
  0
VERTEX
  8
0
 10
47980.49426
 20
2046.04844
 30
0.0
  0
VERTEX
  8
0
 10
47958.24479
 20
2018.32693
 30
0.0
  0
VERTEX
  8
0
 10
47962.86242
 20
1998.76639
 30
0.0
  0
VERTEX
  8
0
 10
48008.59923
 20
1950.10365
 30
0.0
  0
VERTEX
  8
0
 10
48012.05821
 20
1986.43147
 30
0.0
  0
VERTEX
  8
0
 10
48028.84461
 20
2013.37837
 30
0.0
  0
SEQEND
  0
POLYLINE
  8
0
 66
1
 10
0.0
 20
0.0
 30
0.0
 70
8
  0
VERTEX
  8
0
 10
15.26504
 20
2020.84192
 30
0.0
  0
VERTEX
  8
0
 10
-0.77443
 20
2015.56256
 30
0.0
  0
VERTEX
  8
0
 10
-8.57264
 20
2011.57512
 30
0.0
  0
VERTEX
  8
0
 10
-28.552
 20
1997.89291
 30
0.0
  0
VERTEX
  8
0
 10
-13.66834
 20
1974.12832
 30
0.0
  0
VERTEX
  8
0
 10
6.49568
 20
1991.79575
 30
0.0
  0
VERTEX
  8
0
 10
15.26504
 20
2020.84192
 30
0.0
  0
SEQEND
  0
POLYLINE
  8
0
 66
1
 10
0.0
 20
0.0
 30
0.0
 70
8
  0
VERTEX
  8
0
 10
1040.87517
 20
3006.41608
 30
0.0
  0
VERTEX
  8
0
 10
1009.43893
 20
3023.99669
 30
0.0
  0
VERTEX
  8
0
 10
993.2663
 20
3005.27981
 30
0.0
  0
VERTEX
  8
0
 10
978.27241
 20
2990.69093
 30
0.0
  0
VERTEX
  8
0
 10
982.29996
 20
2965.58696
 30
0.0
  0
VERTEX
  8
0
 10
1028.45375
 20
2981.51434
 30
0.0
  0
VERTEX
  8
0
 10
1040.87517
 20
3006.41608
 30
0.0
  0
SEQEND
  0
POLYLINE
  8
0
 66
1
 10
0.0
 20
0.0
 30
0.0
 70
8
  0
VERTEX
  8
0
 10
2028.79253
 20
3037.05846
 30
0.0
  0
VERTEX
  8
0
 10
1995.5176
 20
3011.96815
 30
0.0
  0
VERTEX
  8
0
 10
1971.5968
 20
3030.30021
 30
0.0
  0
VERTEX
  8
0
 10
1992.60311
 20
2999.12527
 30
0.0
  0
VERTEX
  8
0
 10
2009.31727
 20
2951.3815
 30
0.0
  0
VERTEX
  8
0
 10
2027.85401
 20
2955.06738
 30
0.0
  0
VERTEX
  8
0
 10
2028.79253
 20
3037.05846
 30
0.0
  0
SEQEND
  0
POLYLINE
  8
0
 66
1
 10
0.0
 20
0.0
 30
0.0
 70
8
  0
VERTEX
  8
0
 10
3044.65279
 20
3012.4921
 30
0.0
  0
VERTEX
  8
0
 10
3002.46594
 20
3005.35259
 30
0.0
  0
VERTEX
  8
0
 10
2988.70064
 20
3006.74335
 30
0.0
  0
VERTEX
  8
0
 10
2991.47088
 20
2995.41646
 30
0.0
  0
VERTEX
  8
0
 10
2997.33017
 20
2961.72109
 30
0.0
  0
VERTEX
  8
0
 10
3051.84831
 20
2986.82594
 30
0.0
  0
VERTEX
  8
0
 10
3044.65279
 20
3012.4921
 30
0.0
  0
SEQEND
  0
POLYLINE
  8
0
 66
1
 10
0.0
 20
0.0
 30
0.0
 70
8
  0
VERTEX
  8
0
 10
4033.0297
 20
3018.20644
 30
0.0
  0
VERTEX
  8
0
 10
3995.49833
 20
3016.43315
 30
0.0
  0
VERTEX
  8
0
 10
3975.30494
 20
3004.205
 30
0.0
  0
VERTEX
  8
0
 10
3981.35407
 20
2980.48621
 30
0.0
  0
VERTEX
  8
0
 10
3997.43046
 20
2967.8795
 30
0.0
  0
VERTEX
  8
0
 10
4005.84573
 20
2994.59671
 30
0.0
  0
VERTEX
  8
0
 10
4033.0297
 20
3018.20644
 30
0.0
  0
SEQEND
  0
POLYLINE
  8
0
 66
1
 10
0.0
 20
0.0
 30
0.0
 70
8
  0
VERTEX
  8
0
 10
5049.98514
 20
3021.45137
 30
0.0
  0
VERTEX
  8
0
 10
5001.92178
 20
3013.51455
 30
0.0
  0
VERTEX
  8
0
 10
4962.49455
 20
3026.61818
 30
0.0
  0
VERTEX
  8
0
 10
4993.44303
 20
2989.3579
 30
0.0
  0
VERTEX
  8
0
 10
5000.83887
 20
2972.87056
 30
0.0
  0
VERTEX
  8
0
 10
5021.78327
 20
2967.21134
 30
0.0
  0
VERTEX
  8
0
 10
5049.98514
 20
3021.45137
 30
0.0
  0
SEQEND
  0
POLYLINE
  8
0
 66
1
 10
0.0
 20
0.0
 30
0.0
 70
8
  0
VERTEX
  8
0
 10
6029.93266
 20
3025.3637
 30
0.0
  0
VERTEX
  8
0
 10
5999.97292
 20
3021.98162
 30
0.0
  0
VERTEX
  8
0
 10
5964.60166
 20
3012.52789
 30
0.0
  0
VERTEX
  8
0
 10
5993.38141
 20
2990.06184
 30
0.0
  0
VERTEX
  8
0
 10
6003.87457
 20
2984.31644
 30
0.0
  0
VERTEX
  8
0
 10
6005.15875
 20
2995.47859
 30
0.0
  0
VERTEX
  8
0
 10
6029.93266
 20
3025.3637
 30
0.0
  0
SEQEND
  0
POLYLINE
  8
0
 66
1
 10
0.0
 20
0.0
 30
0.0
 70
8
  0
VERTEX
  8
0
 10
7016.66953
 20
3005.6133
 30
0.0
  0
VERTEX
  8
0
 10
6980.0558
 20
3036.8684
 30
0.0
  0
VERTEX
  8
0
 10
6979.98642
 20
3025.43225
 30
0.0
  0
VERTEX
  8
0
 10
6991.46347
 20
2993.39816
 30
0.0
  0
VERTEX
  8
0
 10
7002.65874
 20
2992.31492
 30
0.0
  0
VERTEX
  8
0
 10
7040.91686
 20
2964.62327
 30
0.0
  0
VERTEX
  8
0
 10
7016.66953
 20
3005.6133
 30
0.0
  0
SEQEND
  0
POLYLINE
  8
0
 66
1
 10
0.0
 20
0.0
 30
0.0
 70
8
  0
VERTEX
  8
0
 10
8028.28648
 20
3022.94914
 30
0.0
  0
VERTEX
  8
0
 10
8015.50731
 20
3041.86341
 30
0.0
  0
VERTEX
  8
0
 10
7982.12549
 20
3024.68481
 30
0.0
  0
VERTEX
  8
0
 10
7979.26847
 20
2995.11885
 30
0.0
  0
VERTEX
  8
0
 10
8004.88629
 20
2948.41532
 30
0.0
  0
VERTEX
  8
0
 10
8006.98223
 20
2997.77096
 30
0.0
  0
VERTEX
  8
0
 10
8028.28648
 20
3022.94914
 30
0.0
  0
SEQEND
  0
POLYLINE
  8
0
 66
1
 10
0.0
 20
0.0
 30
0.0
 70
8
  0
VERTEX
  8
0
 10
9009.50862
 20
3003.36319
 30
0.0
  0
VERTEX
  8
0
 10
9003.13957
 20
3036.06784
 30
0.0
  0
VERTEX
  8
0
 10
8951.7491
 20
3025.17815
 30
0.0
  0
VERTEX
  8
0
 10
8983.62025
 20
2991.15471
 30
0.0
  0
VERTEX
  8
0
 10
8980.78639
 20
2949.48256
 30
0.0
  0
VERTEX
  8
0
 10
9019.46898
 20
2974.12802
 30
0.0
  0
VERTEX
  8
0
 10
9009.50862
 20
3003.36319
 30
0.0
  0
SEQEND
  0
POLYLINE
  8
0
 66
1
 10
0.0
 20
0.0
 30
0.0
 70
8
  0
VERTEX
  8
0
 10
10034.14734
 20
3027.78655
 30
0.0
  0
VERTEX
  8
0
 10
9986.80597
 20
3024.02216
 30
0.0
  0
VERTEX
  8
0
 10
9982.69276
 20
3009.63277
 30
0.0
  0
VERTEX
  8
0
 10
9985.26463
 20
2979.75182
 30
0.0
  0
VERTEX
  8
0
 10
10004.35249
 20
2955.04509
 30
0.0
  0
VERTEX
  8
0
 10
10014.86994
 20
2977.39733
 30
0.0
  0
VERTEX
  8
0
 10
10034.14734
 20
3027.78655
 30
0.0
  0
SEQEND
  0
POLYLINE
  8
0
 66
1
 10
0.0
 20
0.0
 30
0.0
 70
8
  0
VERTEX
  8
0
 10
11010.59049
 20
3015.12436
 30
0.0
  0
VERTEX
  8
0
 10
11005.33748
 20
3025.28347
 30
0.0
  0
VERTEX
  8
0
 10
10957.95325
 20
3031.76964
 30
0.0
  0
VERTEX
  8
0
 10
10978.8183
 20
2969.35152
 30
0.0
  0
VERTEX
  8
0
 10
10982.51589
 20
2962.02015
 30
0.0
  0
VERTEX
  8
0
 10
11046.28501
 20
2999.02112
 30
0.0
  0
VERTEX
  8
0
 10
11010.59049
 20
3015.12436
 30
0.0
  0
SEQEND
  0
POLYLINE
  8
0
 66
1
 10
0.0
 20
0.0
 30
0.0
 70
8
  0
VERTEX
  8
0
 10
12006.06666
 20
3002.67128
 30
0.0
  0
VERTEX
  8
0
 10
12015.4303
 20
3037.35314
 30
0.0
  0
VERTEX
  8
0
 10
11985.59665
 20
3024.83274
 30
0.0
  0
VERTEX
  8
0
 10
11965.86527
 20
2995.53397
 30
0.0
  0
VERTEX
  8
0
 10
11999.77925
 20
2988.12554
 30
0.0
  0
VERTEX
  8
0
 10
12039.86057
 20
2995.5248
 30
0.0
  0
VERTEX
  8
0
 10
12006.06666
 20
3002.67128
 30
0.0
  0
SEQEND
  0
POLYLINE
  8
0
 66
1
 10
0.0
 20
0.0
 30
0.0
 70
8
  0
VERTEX
  8
0
 10
13003.68476
 20
3004.03027
 30
0.0
  0
VERTEX
  8
0
 10
13010.56849
 20
3028.3348
 30
0.0
  0
VERTEX
  8
0
 10
12981.21034
 20
3006.78571
 30
0.0
  0
VERTEX
  8
0
 10
12985.73144
 20
2989.63992
 30
0.0
  0
VERTEX
  8
0
 10
12983.62216
 20
2969.68227
 30
0.0
  0
VERTEX
  8
0
 10
13015.63396
 20
2987.45199
 30
0.0
  0
VERTEX
  8
0
 10
13003.68476
 20
3004.03027
 30
0.0
  0
SEQEND
  0
POLYLINE
  8
0
 66
1
 10
0.0
 20
0.0
 30
0.0
 70
8
  0
VERTEX
  8
0
 10
14043.03629
 20
3001.25932
 30
0.0
  0
VERTEX
  8
0
 10
13988.32085
 20
3026.0389
 30
0.0
  0
VERTEX
  8
0
 10
13963.45835
 20
3008.40692
 30
0.0
  0
VERTEX
  8
0
 10
13974.71169
 20
2969.96919
 30
0.0
  0
VERTEX
  8
0
 10
14000.31602
 20
2977.38377
 30
0.0
  0
VERTEX
  8
0
 10
14005.72752
 20
2998.50551
 30
0.0
  0
VERTEX
  8
0
 10
14043.03629
 20
3001.25932
 30
0.0
  0
SEQEND
  0
POLYLINE
  8
0
 66
1
 10
0.0
 20
0.0
 30
0.0
 70
8
  0
VERTEX
  8
0
 10
15010.49986
 20
3007.63605
 30
0.0
  0
VERTEX
  8
0
 10
15004.97271
 20
3021.2051
 30
0.0
  0
VERTEX
  8
0
 10
14996.61056
 20
3005.66325
 30
0.0
  0
VERTEX
  8
0
 10
14976.70917
 20
2976.09399
 30
0.0
  0
VERTEX
  8
0
 10
14993.75638
 20
2982.47832
 30
0.0
  0
VERTEX
  8
0
 10
15039.66009
 20
2972.13474
 30
0.0
  0
VERTEX
  8
0
 10
15010.49986
 20
3007.63605
 30
0.0
  0
SEQEND
  0
POLYLINE
  8
0
 66
1
 10
0.0
 20
0.0
 30
0.0
 70
8
  0
VERTEX
  8
0
 10
16016.12218
 20
3018.87312
 30
0.0
  0
VERTEX
  8
0
 10
15989.49788
 20
3043.77054
 30
0.0
  0
VERTEX
  8
0
 10
15962.65796
 20
3017.16597
 30
0.0
  0
VERTEX
  8
0
 10
15982.09011
 20
2985.99146
 30
0.0
  0
VERTEX
  8
0
 10
16003.77994
 20
2983.77484
 30
0.0
  0
VERTEX
  8
0
 10
16035.795
 20
2973.05506
 30
0.0
  0
VERTEX
  8
0
 10
16016.12218
 20
3018.87312
 30
0.0
  0
SEQEND
  0
POLYLINE
  8
0
 66
1
 10
0.0
 20
0.0
 30
0.0
 70
8
  0
VERTEX
  8
0
 10
17007.59461
 20
3000.04812
 30
0.0
  0
VERTEX
  8
0
 10
17005.28211
 20
3043.49575
 30
0.0
  0
VERTEX
  8
0
 10
16989.96807
 20
3006.02581
 30
0.0
  0
VERTEX
  8
0
 10
16951.24728
 20
2994.38172
 30
0.0
  0
VERTEX
  8
0
 10
17000.54888
 20
2992.01692
 30
0.0
  0
VERTEX
  8
0
 10
17027.87644
 20
2995.45466
 30
0.0
  0
VERTEX
  8
0
 10
17007.59461
 20
3000.04812
 30
0.0
  0
SEQEND
  0
POLYLINE
  8
0
 66
1
 10
0.0
 20
0.0
 30
0.0
 70
8
  0
VERTEX
  8
0
 10
18019.627
 20
3011.5139
 30
0.0
  0
VERTEX
  8
0
 10
17991.28839
 20
3022.96712
 30
0.0
  0
VERTEX
  8
0
 10
17986.23225
 20
3018.50683
 30
0.0
  0
VERTEX
  8
0
 10
17985.96617
 20
2998.24257
 30
0.0
  0
VERTEX
  8
0
 10
17999.04575
 20
2981.76185
 30
0.0
  0
VERTEX
  8
0
 10
18021.82704
 20
2988.48499
 30
0.0
  0
VERTEX
  8
0
 10
18019.627
 20
3011.5139
 30
0.0
  0
SEQEND
  0
POLYLINE
  8
0
 66
1
 10
0.0
 20
0.0
 30
0.0
 70
8
  0
VERTEX
  8
0
 10
19024.4988
 20
3038.16901
 30
0.0
  0
VERTEX
  8
0
 10
19000.37449
 20
3010.70286
 30
0.0
  0
VERTEX
  8
0
 10
18987.48817
 20
3004.20285
 30
0.0
  0
VERTEX
  8
0
 10
18980.3012
 20
2973.80781
 30
0.0
  0
VERTEX
  8
0
 10
19001.24683
 20
2962.37377
 30
0.0
  0
VERTEX
  8
0
 10
19026.71476
 20
2999.12321
 30
0.0
  0
VERTEX
  8
0
 10
19024.4988
 20
3038.16901
 30
0.0
  0
SEQEND
  0
POLYLINE
  8
0
 66
1
 10
0.0
 20
0.0
 30
0.0
 70
8
  0
VERTEX
  8
0
 10
20010.00934
 20
3005.0474
 30
0.0
  0
VERTEX
  8
0
 10
19985.96629
 20
3045.15408
 30
0.0
  0
VERTEX
  8
0
 10
19976.42725
 20
3021.46389
 30
0.0
  0
VERTEX
  8
0
 10
19984.11982
 20
2977.03791
 30
0.0
  0
VERTEX
  8
0
 10
19994.07127
 20
2985.84024
 30
0.0
  0
VERTEX
  8
0
 10
20026.19184
 20
2970.93956
 30
0.0
  0
VERTEX
  8
0
 10
20010.00934
 20
3005.0474
 30
0.0
  0
SEQEND
  0
POLYLINE
  8
0
 66
1
 10
0.0
 20
0.0
 30
0.0
 70
8
  0
VERTEX
  8
0
 10
21022.29439
 20
3011.4598
 30
0.0
  0
VERTEX
  8
0
 10
20995.52926
 20
3031.96649
 30
0.0
  0
VERTEX
  8
0
 10
20983.01999
 20
3028.74544
 30
0.0
  0
VERTEX
  8
0
 10
20970.36274
 20
2977.64661
 30
0.0
  0
VERTEX
  8
0
 10
21003.54791
 20
2978.05134
 30
0.0
  0
VERTEX
  8
0
 10
21027.00184
 20
2994.8812
 30
0.0
  0
VERTEX
  8
0
 10
21022.29439
 20
3011.4598
 30
0.0
  0
SEQEND
  0
POLYLINE
  8
0
 66
1
 10
0.0
 20
0.0
 30
0.0
 70
8
  0
VERTEX
  8
0
 10
22049.61219
 20
3005.29195
 30
0.0
  0
VERTEX
  8
0
 10
22000.24739
 20
3008.25587
 30
0.0
  0
VERTEX
  8
0
 10
21975.26241
 20
3018.04064
 30
0.0
  0
VERTEX
  8
0
 10
21980.83184
 20
2994.67388
 30
0.0
  0
VERTEX
  8
0
 10
22012.96567
 20
2954.94775
 30
0.0
  0
VERTEX
  8
0
 10
22023.33452
 20
2978.35902
 30
0.0
  0
VERTEX
  8
0
 10
22049.61219
 20
3005.29195
 30
0.0
  0
SEQEND
  0
POLYLINE
  8
0
 66
1
 10
0.0
 20
0.0
 30
0.0
 70
8
  0
VERTEX
  8
0
 10
23003.69387
 20
3005.36546
 30
0.0
  0
VERTEX
  8
0
 10
23005.14809
 20
3022.7364
 30
0.0
  0
VERTEX
  8
0
 10
22983.24478
 20
3016.27168
 30
0.0
  0
VERTEX
  8
0
 10
22993.92891
 20
2996.51057
 30
0.0
  0
VERTEX
  8
0
 10
22994.8356
 20
2980.69416
 30
0.0
  0
VERTEX
  8
0
 10
23029.63954
 20
2965.00507
 30
0.0
  0
VERTEX
  8
0
 10
23003.69387
 20
3005.36546
 30
0.0
  0
SEQEND
  0
POLYLINE
  8
0
 66
1
 10
0.0
 20
0.0
 30
0.0
 70
8
  0
VERTEX
  8
0
 10
24021.08296
 20
3009.65607
 30
0.0
  0
VERTEX
  8
0
 10
24009.20304
 20
3024.66693
 30
0.0
  0
VERTEX
  8
0
 10
23993.04005
 20
3002.59186
 30
0.0
  0
VERTEX
  8
0
 10
23962.75179
 20
2969.9511899999998
 30
0.0
  0
VERTEX
  8
0
 10
24004.11417
 20
2987.4904
 30
0.0
  0
VERTEX
  8
0
 10
24053.58982
 20
2991.27536
 30
0.0
  0
VERTEX
  8
0
 10
24021.08296
 20
3009.65607
 30
0.0
  0
SEQEND
  0
POLYLINE
  8
0
 66
1
 10
0.0
 20
0.0
 30
0.0
 70
8
  0
VERTEX
  8
0
 10
25021.49787
 20
3025.41945
 30
0.0
  0
VERTEX
  8
0
 10
25000.97285
 20
3010.61144
 30
0.0
  0
VERTEX
  8
0
 10
24965.27021
 20
3022.33957
 30
0.0
  0
VERTEX
  8
0
 10
24981.8304
 20
2983.50739
 30
0.0
  0
VERTEX
  8
0
 10
24997.09317
 20
2986.74826
 30
0.0
  0
VERTEX
  8
0
 10
25027.93856
 20
2974.82418
 30
0.0
  0
VERTEX
  8
0
 10
25021.49787
 20
3025.41945
 30
0.0
  0
SEQEND
  0
POLYLINE
  8
0
 66
1
 10
0.0
 20
0.0
 30
0.0
 70
8
  0
VERTEX
  8
0
 10
26034.08114
 20
3005.23289
 30
0.0
  0
VERTEX
  8
0
 10
25997.32297
 20
3009.38926
 30
0.0
  0
VERTEX
  8
0
 10
25955.40654
 20
3006.78392
 30
0.0
  0
VERTEX
  8
0
 10
25963.73156
 20
2997.28139
 30
0.0
  0
VERTEX
  8
0
 10
26002.51037
 20
2987.00473
 30
0.0
  0
VERTEX
  8
0
 10
26024.30172
 20
2991.02643
 30
0.0
  0
VERTEX
  8
0
 10
26034.08114
 20
3005.23289
 30
0.0
  0
SEQEND
  0
POLYLINE
  8
0
 66
1
 10
0.0
 20
0.0
 30
0.0
 70
8
  0
VERTEX
  8
0
 10
27036.45528
 20
3034.48691
 30
0.0
  0
VERTEX
  8
0
 10
27000.97926
 20
3011.48572
 30
0.0
  0
VERTEX
  8
0
 10
26959.5794
 20
3022.24531
 30
0.0
  0
VERTEX
  8
0
 10
26994.70803
 20
2994.51835
 30
0.0
  0
VERTEX
  8
0
 10
26999.472
 20
2993.45202
 30
0.0
  0
VERTEX
  8
0
 10
27011.19242
 20
2987.09948
 30
0.0
  0
VERTEX
  8
0
 10
27036.45528
 20
3034.48691
 30
0.0
  0
SEQEND
  0
POLYLINE
  8
0
 66
1
 10
0.0
 20
0.0
 30
0.0
 70
8
  0
VERTEX
  8
0
 10
28021.95638
 20
3000.53243
 30
0.0
  0
VERTEX
  8
0
 10
27990.30088
 20
3023.04527
 30
0.0
  0
VERTEX
  8
0
 10
27984.45286
 20
3017.65824
 30
0.0
  0
VERTEX
  8
0
 10
27996.48902
 20
2996.36395
 30
0.0
  0
VERTEX
  8
0
 10
28000.7629
 20
2955.55066
 30
0.0
  0
VERTEX
  8
0
 10
28005.13224
 20
2997.16307
 30
0.0
  0
VERTEX
  8
0
 10
28021.95638
 20
3000.53243
 30
0.0
  0
SEQEND
  0
POLYLINE
  8
0
 66
1
 10
0.0
 20
0.0
 30
0.0
 70
8
  0
VERTEX
  8
0
 10
29021.12386
 20
3031.70047
 30
0.0
  0
VERTEX
  8
0
 10
29000.72559
 20
3006.10844
 30
0.0
  0
VERTEX
  8
0
 10
28959.33041
 20
3025.04107
 30
0.0
  0
VERTEX
  8
0
 10
28981.42991
 20
2971.95626
 30
0.0
  0
VERTEX
  8
0
 10
28977.35566
 20
2960.39964
 30
0.0
  0
VERTEX
  8
0
 10
29039.96403
 20
2975.8695
 30
0.0
  0
VERTEX
  8
0
 10
29021.12386
 20
3031.70047
 30
0.0
  0
SEQEND
  0
POLYLINE
  8
0
 66
1
 10
0.0
 20
0.0
 30
0.0
 70
8
  0
VERTEX
  8
0
 10
30038.10784
 20
3010.61917
 30
0.0
  0
VERTEX
  8
0
 10
30016.654
 20
3042.45597
 30
0.0
  0
VERTEX
  8
0
 10
29989.3917
 20
3007.70243
 30
0.0
  0
VERTEX
  8
0
 10
29975.57165
 20
2983.59252
 30
0.0
  0
VERTEX
  8
0
 10
29984.69925
 20
2954.5259
 30
0.0
  0
VERTEX
  8
0
 10
30003.69559
 20
2995.16449
 30
0.0
  0
VERTEX
  8
0
 10
30038.10784
 20
3010.61917
 30
0.0
  0
SEQEND
  0
POLYLINE
  8
0
 66
1
 10
0.0
 20
0.0
 30
0.0
 70
8
  0
VERTEX
  8
0
 10
31025.12398
 20
3022.37437
 30
0.0
  0
VERTEX
  8
0
 10
31009.91939
 20
3024.28773
 30
0.0
  0
VERTEX
  8
0
 10
30989.63262
 20
3010.37245
 30
0.0
  0
VERTEX
  8
0
 10
30967.95288
 20
2994.76526
 30
0.0
  0
VERTEX
  8
0
 10
30997.21689
 20
2987.97801
 30
0.0
  0
VERTEX
  8
0
 10
31046.92249
 20
2985.55063
 30
0.0
  0
VERTEX
  8
0
 10
31025.12398
 20
3022.37437
 30
0.0
  0
SEQEND
  0
POLYLINE
  8
0
 66
1
 10
0.0
 20
0.0
 30
0.0
 70
8
  0
VERTEX
  8
0
 10
32023.81809
 20
3028.25401
 30
0.0
  0
VERTEX
  8
0
 10
32015.42795
 20
3041.4492
 30
0.0
  0
VERTEX
  8
0
 10
31969.63377
 20
3006.49995
 30
0.0
  0
VERTEX
  8
0
 10
31979.12768
 20
2994.60359
 30
0.0
  0
VERTEX
  8
0
 10
31994.85237
 20
2975.65353
 30
0.0
  0
VERTEX
  8
0
 10
32034.50952
 20
2978.89019
 30
0.0
  0
VERTEX
  8
0
 10
32023.81809
 20
3028.25401
 30
0.0
  0
SEQEND
  0
POLYLINE
  8
0
 66
1
 10
0.0
 20
0.0
 30
0.0
 70
8
  0
VERTEX
  8
0
 10
33015.51243
 20
3009.5677
 30
0.0
  0
VERTEX
  8
0
 10
33012.19005
 20
3049.68154
 30
0.0
  0
VERTEX
  8
0
 10
32985.8738
 20
3009.0085
 30
0.0
  0
VERTEX
  8
0
 10
32958.93161
 20
2989.80166
 30
0.0
  0
VERTEX
  8
0
 10
33001.39169
 20
2992.12566
 30
0.0
  0
VERTEX
  8
0
 10
33033.00915
 20
2982.22168
 30
0.0
  0
VERTEX
  8
0
 10
33015.51243
 20
3009.5677
 30
0.0
  0
SEQEND
  0
POLYLINE
  8
0
 66
1
 10
0.0
 20
0.0
 30
0.0
 70
8
  0
VERTEX
  8
0
 10
34020.36946
 20
3030.33663
 30
0.0
  0
VERTEX
  8
0
 10
34007.33003
 20
3018.54539
 30
0.0
  0
VERTEX
  8
0
 10
33973.14477
 20
3022.87451
 30
0.0
  0
VERTEX
  8
0
 10
33992.08373
 20
2996.37467
 30
0.0
  0
VERTEX
  8
0
 10
34004.46537
 20
2963.06854
 30
0.0
  0
VERTEX
  8
0
 10
34030.60192
 20
2958.55366
 30
0.0
  0
VERTEX
  8
0
 10
34020.36946
 20
3030.33663
 30
0.0
  0
SEQEND
  0
POLYLINE
  8
0
 66
1
 10
0.0
 20
0.0
 30
0.0
 70
8
  0
VERTEX
  8
0
 10
35030.86999
 20
3017.85165
 30
0.0
  0
VERTEX
  8
0
 10
35011.07974
 20
3037.85676
 30
0.0
  0
VERTEX
  8
0
 10
34970.80566
 20
3026.74031
 30
0.0
  0
VERTEX
  8
0
 10
34992.35586
 20
2995.28176
 30
0.0
  0
VERTEX
  8
0
 10
34984.84034
 20
2951.73151
 30
0.0
  0
VERTEX
  8
0
 10
35043.44322
 20
2984.21304
 30
0.0
  0
VERTEX
  8
0
 10
35030.86999
 20
3017.85165
 30
0.0
  0
SEQEND
  0
POLYLINE
  8
0
 66
1
 10
0.0
 20
0.0
 30
0.0
 70
8
  0
VERTEX
  8
0
 10
36031.65491
 20
3042.62177
 30
0.0
  0
VERTEX
  8
0
 10
36010.40547
 20
3018.34912
 30
0.0
  0
VERTEX
  8
0
 10
35957.4009
 20
3006.72891
 30
0.0
  0
VERTEX
  8
0
 10
35990.66263
 20
2996.12231
 30
0.0
  0
VERTEX
  8
0
 10
35988.61299
 20
2961.23672
 30
0.0
  0
VERTEX
  8
0
 10
36016.43219
 20
2997.09763
 30
0.0
  0
VERTEX
  8
0
 10
36031.65491
 20
3042.62177
 30
0.0
  0
SEQEND
  0
POLYLINE
  8
0
 66
1
 10
0.0
 20
0.0
 30
0.0
 70
8
  0
VERTEX
  8
0
 10
37007.50975
 20
3006.85126
 30
0.0
  0
VERTEX
  8
0
 10
37003.30088
 20
3046.7043400000002
 30
0.0
  0
VERTEX
  8
0
 10
36972.30149
 20
3006.90883
 30
0.0
  0
VERTEX
  8
0
 10
36957.38127
 20
2994.00914
 30
0.0
  0
VERTEX
  8
0
 10
36987.64413
 20
2973.21717
 30
0.0
  0
VERTEX
  8
0
 10
37036.27576
 20
2961.81413
 30
0.0
  0
VERTEX
  8
0
 10
37007.50975
 20
3006.85126
 30
0.0
  0
SEQEND
  0
POLYLINE
  8
0
 66
1
 10
0.0
 20
0.0
 30
0.0
 70
8
  0
VERTEX
  8
0
 10
38016.27709
 20
3016.20426
 30
0.0
  0
VERTEX
  8
0
 10
37995.70766
 20
3031.15897
 30
0.0
  0
VERTEX
  8
0
 10
37977.13783
 20
3027.82609
 30
0.0
  0
VERTEX
  8
0
 10
37985.85253
 20
2998.62748
 30
0.0
  0
VERTEX
  8
0
 10
38011.01166
 20
2973.30509
 30
0.0
  0
VERTEX
  8
0
 10
38041.29778
 20
2972.89468
 30
0.0
  0
VERTEX
  8
0
 10
38016.27709
 20
3016.20426
 30
0.0
  0
SEQEND
  0
POLYLINE
  8
0
 66
1
 10
0.0
 20
0.0
 30
0.0
 70
8
  0
VERTEX
  8
0
 10
39023.64349
 20
3003.46984
 30
0.0
  0
VERTEX
  8
0
 10
38998.54422
 20
3042.60495
 30
0.0
  0
VERTEX
  8
0
 10
38981.47218
 20
3030.19931
 30
0.0
  0
VERTEX
  8
0
 10
38976.35553
 20
2988.10107
 30
0.0
  0
VERTEX
  8
0
 10
38991.06716
 20
2966.83569
 30
0.0
  0
VERTEX
  8
0
 10
39053.26128
 20
2996.28828
 30
0.0
  0
VERTEX
  8
0
 10
39023.64349
 20
3003.46984
 30
0.0
  0
SEQEND
  0
POLYLINE
  8
0
 66
1
 10
0.0
 20
0.0
 30
0.0
 70
8
  0
VERTEX
  8
0
 10
40024.16466
 20
3023.36658
 30
0.0
  0
VERTEX
  8
0
 10
40013.02832
 20
3046.87874
 30
0.0
  0
VERTEX
  8
0
 10
39971.945
 20
3029.64433
 30
0.0
  0
VERTEX
  8
0
 10
39986.3377
 20
2986.8212
 30
0.0
  0
VERTEX
  8
0
 10
40013.09359
 20
2947.50869
 30
0.0
  0
VERTEX
  8
0
 10
40035.85025
 20
2964.44034
 30
0.0
  0
VERTEX
  8
0
 10
40024.16466
 20
3023.36658
 30
0.0
  0
SEQEND
  0
POLYLINE
  8
0
 66
1
 10
0.0
 20
0.0
 30
0.0
 70
8
  0
VERTEX
  8
0
 10
41020.09174
 20
3021.55394
 30
0.0
  0
VERTEX
  8
0
 10
41002.01607
 20
3014.66053
 30
0.0
  0
VERTEX
  8
0
 10
40978.59714
 20
3015.48659
 30
0.0
  0
VERTEX
  8
0
 10
40976.31105
 20
2985.25561
 30
0.0
  0
VERTEX
  8
0
 10
41002.80587
 20
2978.28585
 30
0.0
  0
VERTEX
  8
0
 10
41010.33583
 20
2996.02478
 30
0.0
  0
VERTEX
  8
0
 10
41020.09174
 20
3021.55394
 30
0.0
  0
SEQEND
  0
POLYLINE
  8
0
 66
1
 10
0.0
 20
0.0
 30
0.0
 70
8
  0
VERTEX
  8
0
 10
42041.66567
 20
3017.03218
 30
0.0
  0
VERTEX
  8
0
 10
41993.17084
 20
3013.4062
 30
0.0
  0
VERTEX
  8
0
 10
41969.4087
 20
3039.40355
 30
0.0
  0
VERTEX
  8
0
 10
41989.84241
 20
2996.18509
 30
0.0
  0
VERTEX
  8
0
 10
42002.66398
 20
2990.40018
 30
0.0
  0
VERTEX
  8
0
 10
42028.56251
 20
2988.6436
 30
0.0
  0
VERTEX
  8
0
 10
42041.66567
 20
3017.03218
 30
0.0
  0
SEQEND
  0
POLYLINE
  8
0
 66
1
 10
0.0
 20
0.0
 30
0.0
 70
8
  0
VERTEX
  8
0
 10
43008.12117
 20
3006.04699
 30
0.0
  0
VERTEX
  8
0
 10
43005.85542
 20
3019.78715
 30
0.0
  0
VERTEX
  8
0
 10
42991.73408
 20
3011.4648
 30
0.0
  0
VERTEX
  8
0
 10
42952.43366
 20
2995.94056
 30
0.0
  0
VERTEX
  8
0
 10
43016.30979
 20
2960.67101
 30
0.0
  0
VERTEX
  8
0
 10
43015.35818
 20
2988.36936
 30
0.0
  0
VERTEX
  8
0
 10
43008.12117
 20
3006.04699
 30
0.0
  0
SEQEND
  0
POLYLINE
  8
0
 66
1
 10
0.0
 20
0.0
 30
0.0
 70
8
  0
VERTEX
  8
0
 10
44013.09022
 20
3019.30354
 30
0.0
  0
VERTEX
  8
0
 10
44013.852
 20
3029.95147
 30
0.0
  0
VERTEX
  8
0
 10
43980.47066
 20
3001.67764
 30
0.0
  0
VERTEX
  8
0
 10
43973.72987
 20
2962.84569
 30
0.0
  0
VERTEX
  8
0
 10
44005.1498
 20
2987.72207
 30
0.0
  0
VERTEX
  8
0
 10
44028.25702
 20
2993.32284
 30
0.0
  0
VERTEX
  8
0
 10
44013.09022
 20
3019.30354
 30
0.0
  0
SEQEND
  0
POLYLINE
  8
0
 66
1
 10
0.0
 20
0.0
 30
0.0
 70
8
  0
VERTEX
  8
0
 10
45031.25775
 20
3007.13554
 30
0.0
  0
VERTEX
  8
0
 10
45004.14302
 20
3012.32001
 30
0.0
  0
VERTEX
  8
0
 10
44989.50084
 20
3014.34651
 30
0.0
  0
VERTEX
  8
0
 10
44975.388
 20
2993.40687
 30
0.0
  0
VERTEX
  8
0
 10
45006.74975
 20
2948.71975
 30
0.0
  0
VERTEX
  8
0
 10
45014.95491
 20
2978.08277
 30
0.0
  0
VERTEX
  8
0
 10
45031.25775
 20
3007.13554
 30
0.0
  0
SEQEND
  0
POLYLINE
  8
0
 66
1
 10
0.0
 20
0.0
 30
0.0
 70
8
  0
VERTEX
  8
0
 10
46020.08253
 20
3018.36753
 30
0.0
  0
VERTEX
  8
0
 10
45999.86867
 20
3007.46093
 30
0.0
  0
VERTEX
  8
0
 10
45962.21395
 20
3033.75145
 30
0.0
  0
VERTEX
  8
0
 10
45955.60274
 20
2978.07111
 30
0.0
  0
VERTEX
  8
0
 10
46002.31932
 20
2953.59003
 30
0.0
  0
VERTEX
  8
0
 10
46017.24691
 20
2975.36627
 30
0.0
  0
VERTEX
  8
0
 10
46020.08253
 20
3018.36753
 30
0.0
  0
SEQEND
  0
POLYLINE
  8
0
 66
1
 10
0.0
 20
0.0
 30
0.0
 70
8
  0
VERTEX
  8
0
 10
47021.08759
 20
3011.85461
 30
0.0
  0
VERTEX
  8
0
 10
47009.882
 20
3020.01101
 30
0.0
  0
VERTEX
  8
0
 10
46965.63461
 20
3041.0661
 30
0.0
  0
VERTEX
  8
0
 10
46989.54017
 20
2982.80566
 30
0.0
  0
VERTEX
  8
0
 10
46990.0635
 20
2976.12551
 30
0.0
  0
VERTEX
  8
0
 10
47031.59928
 20
2965.23421
 30
0.0
  0
VERTEX
  8
0
 10
47021.08759
 20
3011.85461
 30
0.0
  0
SEQEND
  0
POLYLINE
  8
0
 66
1
 10
0.0
 20
0.0
 30
0.0
 70
8
  0
VERTEX
  8
0
 10
48014.09547
 20
3016.11306
 30
0.0
  0
VERTEX
  8
0
 10
47993.78646
 20
3027.59623
 30
0.0
  0
VERTEX
  8
0
 10
47978.14804
 20
3025.02213
 30
0.0
  0
VERTEX
  8
0
 10
47971.68067
 20
2974.18403
 30
0.0
  0
VERTEX
  8
0
 10
47991.93947
 20
2968.36841
 30
0.0
  0
VERTEX
  8
0
 10
48038.88854
 20
2999.06539
 30
0.0
  0
VERTEX
  8
0
 10
48014.09547
 20
3016.11306
 30
0.0
  0
SEQEND
  0
POLYLINE
  8
0
 66
1
 10
0.0
 20
0.0
 30
0.0
 70
8
  0
VERTEX
  8
0
 10
22.14914
 20
3012.355
 30
0.0
  0
VERTEX
  8
0
 10
5.786099999999999
 20
3044.48002
 30
0.0
  0
VERTEX
  8
0
 10
-13.95981
 20
3005.85284
 30
0.0
  0
VERTEX
  8
0
 10
-19.04914
 20
2975.56361
 30
0.0
  0
VERTEX
  8
0
 10
4.3989899999999995
 20
2974.90465
 30
0.0
  0
VERTEX
  8
0
 10
45.825509999999994
 20
2988.19454
 30
0.0
  0
VERTEX
  8
0
 10
22.14914
 20
3012.355
 30
0.0
  0
SEQEND
  0
POLYLINE
  8
0
 66
1
 10
0.0
 20
0.0
 30
0.0
 70
8
  0
VERTEX
  8
0
 10
1014.61103
 20
4014.79518
 30
0.0
  0
VERTEX
  8
0
 10
1002.991
 20
4005.22219
 30
0.0
  0
VERTEX
  8
0
 10
963.76435
 20
4034.35452
 30
0.0
  0
VERTEX
  8
0
 10
985.09991
 20
3999.23474
 30
0.0
  0
VERTEX
  8
0
 10
1003.29101
 20
3954.07306
 30
0.0
  0
VERTEX
  8
0
 10
1017.46813
 20
3997.96279
 30
0.0
  0
VERTEX
  8
0
 10
1014.61103
 20
4014.79518
 30
0.0
  0
SEQEND
  0
POLYLINE
  8
0
 66
1
 10
0.0
 20
0.0
 30
0.0
 70
8
  0
VERTEX
  8
0
 10
2016.11082
 20
4000.0934
 30
0.0
  0
VERTEX
  8
0
 10
2010.77602
 20
4049.16893
 30
0.0
  0
VERTEX
  8
0
 10
1969.63509
 20
4026.49405
 30
0.0
  0
VERTEX
  8
0
 10
1983.41215
 20
3995.22965
 30
0.0
  0
VERTEX
  8
0
 10
2014.36624
 20
3953.00332
 30
0.0
  0
VERTEX
  8
0
 10
2015.97603
 20
3987.36081
 30
0.0
  0
VERTEX
  8
0
 10
2016.11082
 20
4000.0934
 30
0.0
  0
SEQEND
  0
POLYLINE
  8
0
 66
1
 10
0.0
 20
0.0
 30
0.0
 70
8
  0
VERTEX
  8
0
 10
3032.53296
 20
4033.42436
 30
0.0
  0
VERTEX
  8
0
 10
2996.97091
 20
4006.73377
 30
0.0
  0
VERTEX
  8
0
 10
2994.16106
 20
4003.25369
 30
0.0
  0
VERTEX
  8
0
 10
2993.39897
 20
3999.60728
 30
0.0
  0
VERTEX
  8
0
 10
2996.20297
 20
3945.32084
 30
0.0
  0
VERTEX
  8
0
 10
3005.64182
 20
3997.79307
 30
0.0
  0
VERTEX
  8
0
 10
3032.53296
 20
4033.42436
 30
0.0
  0
SEQEND
  0
POLYLINE
  8
0
 66
1
 10
0.0
 20
0.0
 30
0.0
 70
8
  0
VERTEX
  8
0
 10
4009.0225
 20
4002.03001
 30
0.0
  0
VERTEX
  8
0
 10
4005.94113
 20
4050.33746
 30
0.0
  0
VERTEX
  8
0
 10
3981.96302
 20
4014.85068
 30
0.0
  0
VERTEX
  8
0
 10
3970.4829
 20
3994.82222
 30
0.0
  0
VERTEX
  8
0
 10
4003.88995
 20
3960.64957
 30
0.0
  0
VERTEX
  8
0
 10
4007.77661
 20
3997.4093
 30
0.0
  0
VERTEX
  8
0
 10
4009.0225
 20
4002.03001
 30
0.0
  0
SEQEND
  0
POLYLINE
  8
0
 66
1
 10
0.0
 20
0.0
 30
0.0
 70
8
  0
VERTEX
  8
0
 10
5016.20243
 20
4023.11192
 30
0.0
  0
VERTEX
  8
0
 10
5003.12984
 20
4014.46009
 30
0.0
  0
VERTEX
  8
0
 10
4987.45912
 20
4012.25644
 30
0.0
  0
VERTEX
  8
0
 10
4963.74986
 20
3984.60188
 30
0.0
  0
VERTEX
  8
0
 10
5020.92192
 20
3953.43343
 30
0.0
  0
VERTEX
  8
0
 10
5018.12267
 20
3997.35594
 30
0.0
  0
VERTEX
  8
0
 10
5016.20243
 20
4023.11192
 30
0.0
  0
SEQEND
  0
POLYLINE
  8
0
 66
1
 10
0.0
 20
0.0
 30
0.0
 70
8
  0
VERTEX
  8
0
 10
6020.43106
 20
4018.05571
 30
0.0
  0
VERTEX
  8
0
 10
5981.12806
 20
4049.26977
 30
0.0
  0
VERTEX
  8
0
 10
5971.33235
 20
4007.98666
 30
0.0
  0
VERTEX
  8
0
 10
5994.6762
 20
3994.31095
 30
0.0
  0
VERTEX
  8
0
 10
6000.14464
 20
3989.16
 30
0.0
  0
VERTEX
  8
0
 10
6032.06141
 20
3978.67824
 30
0.0
  0
VERTEX
  8
0
 10
6020.43106
 20
4018.05571
 30
0.0
  0
SEQEND
  0
POLYLINE
  8
0
 66
1
 10
0.0
 20
0.0
 30
0.0
 70
8
  0
VERTEX
  8
0
 10
7020.50403
 20
4001.95898
 30
0.0
  0
VERTEX
  8
0
 10
7008.17288
 20
4039.6498
 30
0.0
  0
VERTEX
  8
0
 10
6976.07095
 20
4017.32738
 30
0.0
  0
VERTEX
  8
0
 10
6967.97607
 20
3972.0238
 30
0.0
  0
VERTEX
  8
0
 10
6997.05852
 20
3982.01459
 30
0.0
  0
VERTEX
  8
0
 10
7036.07538
 20
3979.9026
 30
0.0
  0
VERTEX
  8
0
 10
7020.50403
 20
4001.95898
 30
0.0
  0
SEQEND
  0
POLYLINE
  8
0
 66
1
 10
0.0
 20
0.0
 30
0.0
 70
8
  0
VERTEX
  8
0
 10
8013.55174
 20
4006.85677
 30
0.0
  0
VERTEX
  8
0
 10
8001.55558
 20
4009.55687
 30
0.0
  0
VERTEX
  8
0
 10
7973.1748
 20
4010.39228
 30
0.0
  0
VERTEX
  8
0
 10
7961.86387
 20
3965.99434
 30
0.0
  0
VERTEX
  8
0
 10
7993.14817
 20
3980.65849
 30
0.0
  0
VERTEX
  8
0
 10
8028.51024
 20
3999.06423
 30
0.0
  0
VERTEX
  8
0
 10
8013.55174
 20
4006.85677
 30
0.0
  0
SEQEND
  0
POLYLINE
  8
0
 66
1
 10
0.0
 20
0.0
 30
0.0
 70
8
  0
VERTEX
  8
0
 10
9010.2454
 20
4001.98317
 30
0.0
  0
VERTEX
  8
0
 10
9005.50577
 20
4036.84528
 30
0.0
  0
VERTEX
  8
0
 10
8950.28266
 20
4008.5961
 30
0.0
  0
VERTEX
  8
0
 10
8977.76487
 20
3989.19612
 30
0.0
  0
VERTEX
  8
0
 10
8997.9183
 20
3971.82345
 30
0.0
  0
VERTEX
  8
0
 10
9046.85254
 20
3980.57468
 30
0.0
  0
VERTEX
  8
0
 10
9010.2454
 20
4001.98317
 30
0.0
  0
SEQEND
  0
POLYLINE
  8
0
 66
1
 10
0.0
 20
0.0
 30
0.0
 70
8
  0
VERTEX
  8
0
 10
10019.5406
 20
4017.05437
 30
0.0
  0
VERTEX
  8
0
 10
10006.58887
 20
4031.01784
 30
0.0
  0
VERTEX
  8
0
 10
9949.42184
 20
4000.97123
 30
0.0
  0
VERTEX
  8
0
 10
9984.40074
 20
3980.3829
 30
0.0
  0
VERTEX
  8
0
 10
9987.95568
 20
3962.65243
 30
0.0
  0
VERTEX
  8
0
 10
10003.14893
 20
3995.82549
 30
0.0
  0
VERTEX
  8
0
 10
10019.5406
 20
4017.05437
 30
0.0
  0
SEQEND
  0
POLYLINE
  8
0
 66
1
 10
0.0
 20
0.0
 30
0.0
 70
8
  0
VERTEX
  8
0
 10
11036.7167
 20
4026.62374
 30
0.0
  0
VERTEX
  8
0
 10
11007.39574
 20
4033.28456
 30
0.0
  0
VERTEX
  8
0
 10
10989.67568
 20
4003.93865
 30
0.0
  0
VERTEX
  8
0
 10
10966.89211
 20
3979.86032
 30
0.0
  0
VERTEX
  8
0
 10
10991.9052
 20
3954.89452
 30
0.0
  0
VERTEX
  8
0
 10
11024.49737
 20
3984.10683
 30
0.0
  0
VERTEX
  8
0
 10
11036.7167
 20
4026.62374
 30
0.0
  0
SEQEND
  0
POLYLINE
  8
0
 66
1
 10
0.0
 20
0.0
 30
0.0
 70
8
  0
VERTEX
  8
0
 10
12024.05083
 20
4021.76058
 30
0.0
  0
VERTEX
  8
0
 10
11997.26909
 20
4023.54559
 30
0.0
  0
VERTEX
  8
0
 10
11960.94531
 20
4035.21405
 30
0.0
  0
VERTEX
  8
0
 10
11979.96854
 20
3979.14824
 30
0.0
  0
VERTEX
  8
0
 10
11989.12236
 20
3978.22783
 30
0.0
  0
VERTEX
  8
0
 10
12014.32231
 20
3997.08371
 30
0.0
  0
VERTEX
  8
0
 10
12024.05083
 20
4021.76058
 30
0.0
  0
SEQEND
  0
POLYLINE
  8
0
 66
1
 10
0.0
 20
0.0
 30
0.0
 70
8
  0
VERTEX
  8
0
 10
13026.25362
 20
4011.31144
 30
0.0
  0
VERTEX
  8
0
 10
12991.79307
 20
4016.76983
 30
0.0
  0
VERTEX
  8
0
 10
12979.24665
 20
4012.03124
 30
0.0
  0
VERTEX
  8
0
 10
12986.9539
 20
3993.3953
 30
0.0
  0
VERTEX
  8
0
 10
12995.29023
 20
3979.05863
 30
0.0
  0
VERTEX
  8
0
 10
13029.91346
 20
3994.16222
 30
0.0
  0
VERTEX
  8
0
 10
13026.25362
 20
4011.31144
 30
0.0
  0
SEQEND
  0
POLYLINE
  8
0
 66
1
 10
0.0
 20
0.0
 30
0.0
 70
8
  0
VERTEX
  8
0
 10
14042.57903
 20
4029.95829
 30
0.0
  0
VERTEX
  8
0
 10
13989.96987
 20
4035.40284
 30
0.0
  0
VERTEX
  8
0
 10
13975.89433
 20
4035.87067
 30
0.0
  0
VERTEX
  8
0
 10
13952.85539
 20
3991.6703
 30
0.0
  0
VERTEX
  8
0
 10
13984.36682
 20
3969.8635
 30
0.0
  0
VERTEX
  8
0
 10
14054.12009
 20
3997.92186
 30
0.0
  0
VERTEX
  8
0
 10
14042.57903
 20
4029.95829
 30
0.0
  0
SEQEND
  0
POLYLINE
  8
0
 66
1
 10
0.0
 20
0.0
 30
0.0
 70
8
  0
VERTEX
  8
0
 10
15019.39969
 20
4011.0864
 30
0.0
  0
VERTEX
  8
0
 10
14991.64072
 20
4017.35801
 30
0.0
  0
VERTEX
  8
0
 10
14992.24734
 20
4003.5454
 30
0.0
  0
VERTEX
  8
0
 10
14973.90255
 20
3999.60117
 30
0.0
  0
VERTEX
  8
0
 10
14980.96837
 20
3953.65301
 30
0.0
  0
VERTEX
  8
0
 10
15035.92044
 20
3993.33592
 30
0.0
  0
VERTEX
  8
0
 10
15019.39969
 20
4011.0864
 30
0.0
  0
SEQEND
  0
POLYLINE
  8
0
 66
1
 10
0.0
 20
0.0
 30
0.0
 70
8
  0
VERTEX
  8
0
 10
16030.44649
 20
4003.27625
 30
0.0
  0
VERTEX
  8
0
 10
16012.02093
 20
4024.07783
 30
0.0
  0
VERTEX
  8
0
 10
15972.62349
 20
4005.26192
 30
0.0
  0
VERTEX
  8
0
 10
15985.00072
 20
3998.72067
 30
0.0
  0
VERTEX
  8
0
 10
16007.83107
 20
3978.53035
 30
0.0
  0
VERTEX
  8
0
 10
16021.01104
 20
3998.00678
 30
0.0
  0
VERTEX
  8
0
 10
16030.44649
 20
4003.27625
 30
0.0
  0
SEQEND
  0
POLYLINE
  8
0
 66
1
 10
0.0
 20
0.0
 30
0.0
 70
8
  0
VERTEX
  8
0
 10
17042.80603
 20
4024.78936
 30
0.0
  0
VERTEX
  8
0
 10
16997.17039
 20
4039.18334
 30
0.0
  0
VERTEX
  8
0
 10
16993.88551
 20
4008.23891
 30
0.0
  0
VERTEX
  8
0
 10
16963.938
 20
3982.33961
 30
0.0
  0
VERTEX
  8
0
 10
16985.53476
 20
3970.06937
 30
0.0
  0
VERTEX
  8
0
 10
17022.66681
 20
3974.90217
 30
0.0
  0
VERTEX
  8
0
 10
17042.80603
 20
4024.78936
 30
0.0
  0
SEQEND
  0
POLYLINE
  8
0
 66
1
 10
0.0
 20
0.0
 30
0.0
 70
8
  0
VERTEX
  8
0
 10
18033.70583
 20
4029.39484
 30
0.0
  0
VERTEX
  8
0
 10
17990.87334
 20
4040.3386
 30
0.0
  0
VERTEX
  8
0
 10
17957.0374
 20
4021.54279
 30
0.0
  0
VERTEX
  8
0
 10
17961.71591
 20
3988.93151
 30
0.0
  0
VERTEX
  8
0
 10
17993.53402
 20
3971.53149
 30
0.0
  0
VERTEX
  8
0
 10
18035.76274
 20
3968.42188
 30
0.0
  0
VERTEX
  8
0
 10
18033.70583
 20
4029.39484
 30
0.0
  0
SEQEND
  0
POLYLINE
  8
0
 66
1
 10
0.0
 20
0.0
 30
0.0
 70
8
  0
VERTEX
  8
0
 10
19044.66772
 20
4007.50674
 30
0.0
  0
VERTEX
  8
0
 10
19011.95517
 20
4044.3217
 30
0.0
  0
VERTEX
  8
0
 10
18964.2019
 20
4036.21371
 30
0.0
  0
VERTEX
  8
0
 10
18988.86608
 20
3989.98347
 30
0.0
  0
VERTEX
  8
0
 10
18998.09697
 20
3994.69674
 30
0.0
  0
VERTEX
  8
0
 10
19040.98402
 20
3980.08007
 30
0.0
  0
VERTEX
  8
0
 10
19044.66772
 20
4007.50674
 30
0.0
  0
SEQEND
  0
POLYLINE
  8
0
 66
1
 10
0.0
 20
0.0
 30
0.0
 70
8
  0
VERTEX
  8
0
 10
20043.21333
 20
4017.67188
 30
0.0
  0
VERTEX
  8
0
 10
20014.70487
 20
4047.00977
 30
0.0
  0
VERTEX
  8
0
 10
19960.08802
 20
4021.51344
 30
0.0
  0
VERTEX
  8
0
 10
19957.64055
 20
3982.21218
 30
0.0
  0
VERTEX
  8
0
 10
20005.51336
 20
3986.21239
 30
0.0
  0
VERTEX
  8
0
 10
20054.48067
 20
3993.0319
 30
0.0
  0
VERTEX
  8
0
 10
20043.21333
 20
4017.67188
 30
0.0
  0
SEQEND
  0
POLYLINE
  8
0
 66
1
 10
0.0
 20
0.0
 30
0.0
 70
8
  0
VERTEX
  8
0
 10
21033.77273
 20
4034.9339
 30
0.0
  0
VERTEX
  8
0
 10
21002.74693
 20
4030.92633
 30
0.0
  0
VERTEX
  8
0
 10
20995.01626
 20
4006.88813
 30
0.0
  0
VERTEX
  8
0
 10
20951.79622
 20
3989.93278
 30
0.0
  0
VERTEX
  8
0
 10
21002.95447
 20
3960.37172
 30
0.0
  0
VERTEX
  8
0
 10
21020.95133
 20
3986.3853
 30
0.0
  0
VERTEX
  8
0
 10
21033.77273
 20
4034.9339
 30
0.0
  0
SEQEND
  0
POLYLINE
  8
0
 66
1
 10
0.0
 20
0.0
 30
0.0
 70
8
  0
VERTEX
  8
0
 10
22010.16821
 20
4006.26687
 30
0.0
  0
VERTEX
  8
0
 10
22009.82019
 20
4043.11451
 30
0.0
  0
VERTEX
  8
0
 10
21957.36926
 20
4016.92565
 30
0.0
  0
VERTEX
  8
0
 10
21991.50675
 20
3989.07868
 30
0.0
  0
VERTEX
  8
0
 10
22000.8886
 20
3994.52129
 30
0.0
  0
VERTEX
  8
0
 10
22022.31615
 20
3980.25826
 30
0.0
  0
VERTEX
  8
0
 10
22010.16821
 20
4006.26687
 30
0.0
  0
SEQEND
  0
POLYLINE
  8
0
 66
1
 10
0.0
 20
0.0
 30
0.0
 70
8
  0
VERTEX
  8
0
 10
23018.20088
 20
4011.2621
 30
0.0
  0
VERTEX
  8
0
 10
23010.61596
 20
4021.22314
 30
0.0
  0
VERTEX
  8
0
 10
22969.17309
 20
4011.46006
 30
0.0
  0
VERTEX
  8
0
 10
22965.59379
 20
3978.99431
 30
0.0
  0
VERTEX
  8
0
 10
22985.19156
 20
3964.70537
 30
0.0
  0
VERTEX
  8
0
 10
23005.86613
 20
3991.50568
 30
0.0
  0
VERTEX
  8
0
 10
23018.20088
 20
4011.2621
 30
0.0
  0
SEQEND
  0
POLYLINE
  8
0
 66
1
 10
0.0
 20
0.0
 30
0.0
 70
8
  0
VERTEX
  8
0
 10
24005.79638
 20
4004.61911
 30
0.0
  0
VERTEX
  8
0
 10
24018.16527
 20
4039.50964
 30
0.0
  0
VERTEX
  8
0
 10
23985.31584
 20
4019.63739
 30
0.0
  0
VERTEX
  8
0
 10
23981.66737
 20
3977.1852
 30
0.0
  0
VERTEX
  8
0
 10
24023.34523
 20
3957.83632
 30
0.0
  0
VERTEX
  8
0
 10
24014.12165
 20
3977.12536
 30
0.0
  0
VERTEX
  8
0
 10
24005.79638
 20
4004.61911
 30
0.0
  0
SEQEND
  0
POLYLINE
  8
0
 66
1
 10
0.0
 20
0.0
 30
0.0
 70
8
  0
VERTEX
  8
0
 10
25016.86522
 20
4008.72791
 30
0.0
  0
VERTEX
  8
0
 10
25003.83721
 20
4033.50856
 30
0.0
  0
VERTEX
  8
0
 10
24977.64919
 20
4018.8743
 30
0.0
  0
VERTEX
  8
0
 10
24962.45477
 20
3987.76808
 30
0.0
  0
VERTEX
  8
0
 10
25018.97003
 20
3956.73228
 30
0.0
  0
VERTEX
  8
0
 10
25044.60865
 20
3987.90928
 30
0.0
  0
VERTEX
  8
0
 10
25016.86522
 20
4008.72791
 30
0.0
  0
SEQEND
  0
POLYLINE
  8
0
 66
1
 10
0.0
 20
0.0
 30
0.0
 70
8
  0
VERTEX
  8
0
 10
26026.92859
 20
4025.25475
 30
0.0
  0
VERTEX
  8
0
 10
25992.65332
 20
4015.23683
 30
0.0
  0
VERTEX
  8
0
 10
25980.58711
 20
4019.64924
 30
0.0
  0
VERTEX
  8
0
 10
25977.5302
 20
3963.16118
 30
0.0
  0
VERTEX
  8
0
 10
26006.06846
 20
3987.84585
 30
0.0
  0
VERTEX
  8
0
 10
26023.35897
 20
3994.24991
 30
0.0
  0
VERTEX
  8
0
 10
26026.92859
 20
4025.25475
 30
0.0
  0
SEQEND
  0
POLYLINE
  8
0
 66
1
 10
0.0
 20
0.0
 30
0.0
 70
8
  0
VERTEX
  8
0
 10
27013.23667
 20
4010.90548
 30
0.0
  0
VERTEX
  8
0
 10
26993.93911
 20
4017.01563
 30
0.0
  0
VERTEX
  8
0
 10
26984.78747
 20
4006.28346
 30
0.0
  0
VERTEX
  8
0
 10
26995.45656
 20
3995.51169
 30
0.0
  0
VERTEX
  8
0
 10
26989.04722
 20
3979.30442
 30
0.0
  0
VERTEX
  8
0
 10
27030.81062
 20
3976.29284
 30
0.0
  0
VERTEX
  8
0
 10
27013.23667
 20
4010.90548
 30
0.0
  0
SEQEND
  0
POLYLINE
  8
0
 66
1
 10
0.0
 20
0.0
 30
0.0
 70
8
  0
VERTEX
  8
0
 10
28019.96987
 20
4025.21021
 30
0.0
  0
VERTEX
  8
0
 10
28017.64649
 20
4034.40976
 30
0.0
  0
VERTEX
  8
0
 10
27991.21302
 20
4001.49886
 30
0.0
  0
VERTEX
  8
0
 10
27954.60643
 20
3985.54924
 30
0.0
  0
VERTEX
  8
0
 10
27994.94351
 20
3975.67552
 30
0.0
  0
VERTEX
  8
0
 10
28005.08875
 20
3996.17754
 30
0.0
  0
VERTEX
  8
0
 10
28019.96987
 20
4025.21021
 30
0.0
  0
SEQEND
  0
POLYLINE
  8
0
 66
1
 10
0.0
 20
0.0
 30
0.0
 70
8
  0
VERTEX
  8
0
 10
29019.54014
 20
4030.16552
 30
0.0
  0
VERTEX
  8
0
 10
28986.88265
 20
4027.19133
 30
0.0
  0
VERTEX
  8
0
 10
28969.7082
 20
4029.02633
 30
0.0
  0
VERTEX
  8
0
 10
28967.75676
 20
3990.95259
 30
0.0
  0
VERTEX
  8
0
 10
29002.72415
 20
3983.27165
 30
0.0
  0
VERTEX
  8
0
 10
29050.64872
 20
3981.12273
 30
0.0
  0
VERTEX
  8
0
 10
29019.54014
 20
4030.16552
 30
0.0
  0
SEQEND
  0
POLYLINE
  8
0
 66
1
 10
0.0
 20
0.0
 30
0.0
 70
8
  0
VERTEX
  8
0
 10
30027.41202
 20
4037.32452
 30
0.0
  0
VERTEX
  8
0
 10
30006.50793
 20
4026.96013
 30
0.0
  0
VERTEX
  8
0
 10
29966.22013
 20
4028.53096
 30
0.0
  0
VERTEX
  8
0
 10
29968.56685
 20
3998.44345
 30
0.0
  0
VERTEX
  8
0
 10
29998.06016
 20
3955.47222
 30
0.0
  0
VERTEX
  8
0
 10
30012.84852
 20
3996.46303
 30
0.0
  0
VERTEX
  8
0
 10
30027.41202
 20
4037.32452
 30
0.0
  0
SEQEND
  0
POLYLINE
  8
0
 66
1
 10
0.0
 20
0.0
 30
0.0
 70
8
  0
VERTEX
  8
0
 10
31003.03531
 20
4004.77973
 30
0.0
  0
VERTEX
  8
0
 10
30995.56266
 20
4022.69783
 30
0.0
  0
VERTEX
  8
0
 10
30945.83034
 20
4004.86066
 30
0.0
  0
VERTEX
  8
0
 10
30985.35697
 20
3995.22506
 30
0.0
  0
VERTEX
  8
0
 10
30995.99112
 20
3991.23555
 30
0.0
  0
VERTEX
  8
0
 10
31014.83212
 20
3984.74187
 30
0.0
  0
VERTEX
  8
0
 10
31003.03531
 20
4004.77973
 30
0.0
  0
SEQEND
  0
POLYLINE
  8
0
 66
1
 10
0.0
 20
0.0
 30
0.0
 70
8
  0
VERTEX
  8
0
 10
32041.2654
 20
4008.52155
 30
0.0
  0
VERTEX
  8
0
 10
32017.27645
 20
4034.02779
 30
0.0
  0
VERTEX
  8
0
 10
31952.27895
 20
4026.23562
 30
0.0
  0
VERTEX
  8
0
 10
31992.39504
 20
3999.94823
 30
0.0
  0
VERTEX
  8
0
 10
31992.3785
 20
3983.20607
 30
0.0
  0
VERTEX
  8
0
 10
32032.14913
 20
3994.62967
 30
0.0
  0
VERTEX
  8
0
 10
32041.2654
 20
4008.52155
 30
0.0
  0
SEQEND
  0
POLYLINE
  8
0
 66
1
 10
0.0
 20
0.0
 30
0.0
 70
8
  0
VERTEX
  8
0
 10
33031.33561
 20
4014.77441
 30
0.0
  0
VERTEX
  8
0
 10
33004.43225
 20
4034.04695
 30
0.0
  0
VERTEX
  8
0
 10
32984.50568
 20
4000.46056
 30
0.0
  0
VERTEX
  8
0
 10
32973.42224
 20
3971.27925
 30
0.0
  0
VERTEX
  8
0
 10
33001.4336
 20
3987.10576
 30
0.0
  0
VERTEX
  8
0
 10
33027.56935
 20
3990.21365
 30
0.0
  0
VERTEX
  8
0
 10
33031.33561
 20
4014.77441
 30
0.0
  0
SEQEND
  0
POLYLINE
  8
0
 66
1
 10
0.0
 20
0.0
 30
0.0
 70
8
  0
VERTEX
  8
0
 10
34033.10761
 20
4023.37374
 30
0.0
  0
VERTEX
  8
0
 10
33988.95325
 20
4050.90359
 30
0.0
  0
VERTEX
  8
0
 10
33967.17281
 20
4015.47574
 30
0.0
  0
VERTEX
  8
0
 10
33992.56783
 20
3996.17131
 30
0.0
  0
VERTEX
  8
0
 10
34008.95687
 20
3982.4329
 30
0.0
  0
VERTEX
  8
0
 10
34008.70804
 20
3990.35168
 30
0.0
  0
VERTEX
  8
0
 10
34033.10761
 20
4023.37374
 30
0.0
  0
SEQEND
  0
POLYLINE
  8
0
 66
1
 10
0.0
 20
0.0
 30
0.0
 70
8
  0
VERTEX
  8
0
 10
35034.66736
 20
4035.05463
 30
0.0
  0
VERTEX
  8
0
 10
35007.71791
 20
4019.86861
 30
0.0
  0
VERTEX
  8
0
 10
34973.18754
 20
4006.46143
 30
0.0
  0
VERTEX
  8
0
 10
34970.81342
 20
3995.03711
 30
0.0
  0
VERTEX
  8
0
 10
35011.75911
 20
3970.80701
 30
0.0
  0
VERTEX
  8
0
 10
35019.85138
 20
3996.86852
 30
0.0
  0
VERTEX
  8
0
 10
35034.66736
 20
4035.05463
 30
0.0
  0
SEQEND
  0
POLYLINE
  8
0
 66
1
 10
0.0
 20
0.0
 30
0.0
 70
8
  0
VERTEX
  8
0
 10
36018.32129
 20
4009.99379
 30
0.0
  0
VERTEX
  8
0
 10
36003.81176
 20
4014.90666
 30
0.0
  0
VERTEX
  8
0
 10
35983.82135
 20
4013.76871
 30
0.0
  0
VERTEX
  8
0
 10
35985.08704
 20
3977.53658
 30
0.0
  0
VERTEX
  8
0
 10
35997.88481
 20
3947.56009
 30
0.0
  0
VERTEX
  8
0
 10
36041.11838
 20
3998.7229
 30
0.0
  0
VERTEX
  8
0
 10
36018.32129
 20
4009.99379
 30
0.0
  0
SEQEND
  0
POLYLINE
  8
0
 66
1
 10
0.0
 20
0.0
 30
0.0
 70
8
  0
VERTEX
  8
0
 10
37008.5872
 20
4003.22968
 30
0.0
  0
VERTEX
  8
0
 10
36983.64988
 20
4042.19918
 30
0.0
  0
VERTEX
  8
0
 10
36990.17182
 20
4005.07625
 30
0.0
  0
VERTEX
  8
0
 10
36966.32462
 20
3970.67168
 30
0.0
  0
VERTEX
  8
0
 10
37002.64676
 20
3987.88665
 30
0.0
  0
VERTEX
  8
0
 10
37009.92201
 20
3988.84632
 30
0.0
  0
VERTEX
  8
0
 10
37008.5872
 20
4003.22968
 30
0.0
  0
SEQEND
  0
POLYLINE
  8
0
 66
1
 10
0.0
 20
0.0
 30
0.0
 70
8
  0
VERTEX
  8
0
 10
38010.55767
 20
4001.25384
 30
0.0
  0
VERTEX
  8
0
 10
38010.87284
 20
4020.56595
 30
0.0
  0
VERTEX
  8
0
 10
37968.04527
 20
4012.23186
 30
0.0
  0
VERTEX
  8
0
 10
37992.07344
 20
3998.33814
 30
0.0
  0
VERTEX
  8
0
 10
37992.36281
 20
3981.56486
 30
0.0
  0
VERTEX
  8
0
 10
38041.99095
 20
3971.73643
 30
0.0
  0
VERTEX
  8
0
 10
38010.55767
 20
4001.25384
 30
0.0
  0
SEQEND
  0
POLYLINE
  8
0
 66
1
 10
0.0
 20
0.0
 30
0.0
 70
8
  0
VERTEX
  8
0
 10
39003.77258
 20
4003.66289
 30
0.0
  0
VERTEX
  8
0
 10
38992.42989
 20
4018.5286
 30
0.0
  0
VERTEX
  8
0
 10
38953.68925
 20
4005.07493
 30
0.0
  0
VERTEX
  8
0
 10
38981.77437
 20
3993.92216
 30
0.0
  0
VERTEX
  8
0
 10
38981.53662
 20
3966.40205
 30
0.0
  0
VERTEX
  8
0
 10
39032.60994
 20
3999.04518
 30
0.0
  0
VERTEX
  8
0
 10
39003.77258
 20
4003.66289
 30
0.0
  0
SEQEND
  0
POLYLINE
  8
0
 66
1
 10
0.0
 20
0.0
 30
0.0
 70
8
  0
VERTEX
  8
0
 10
40022.26744
 20
4005.36875
 30
0.0
  0
VERTEX
  8
0
 10
39994.47904
 20
4044.65839
 30
0.0
  0
VERTEX
  8
0
 10
39983.16008
 20
4021.88911
 30
0.0
  0
VERTEX
  8
0
 10
39954.00574
 20
3973.846
 30
0.0
  0
VERTEX
  8
0
 10
39995.96967
 20
3990.79203
 30
0.0
  0
VERTEX
  8
0
 10
40012.11886
 20
3979.42588
 30
0.0
  0
VERTEX
  8
0
 10
40022.26744
 20
4005.36875
 30
0.0
  0
SEQEND
  0
POLYLINE
  8
0
 66
1
 10
0.0
 20
0.0
 30
0.0
 70
8
  0
VERTEX
  8
0
 10
41010.80057
 20
4011.26984
 30
0.0
  0
VERTEX
  8
0
 10
40992.60592
 20
4030.37861
 30
0.0
  0
VERTEX
  8
0
 10
40979.34308
 20
4023.8154
 30
0.0
  0
VERTEX
  8
0
 10
40951.3763
 20
3982.58393
 30
0.0
  0
VERTEX
  8
0
 10
41010.89097
 20
3977.67373
 30
0.0
  0
VERTEX
  8
0
 10
41003.81798
 20
3996.69437
 30
0.0
  0
VERTEX
  8
0
 10
41010.80057
 20
4011.26984
 30
0.0
  0
SEQEND
  0
POLYLINE
  8
0
 66
1
 10
0.0
 20
0.0
 30
0.0
 70
8
  0
VERTEX
  8
0
 10
42025.8544
 20
4024.57324
 30
0.0
  0
VERTEX
  8
0
 10
42002.34177
 20
4038.65225
 30
0.0
  0
VERTEX
  8
0
 10
41974.83945
 20
4017.33895
 30
0.0
  0
VERTEX
  8
0
 10
41958.53972
 20
3988.50767
 30
0.0
  0
VERTEX
  8
0
 10
41978.00385
 20
3955.40114
 30
0.0
  0
VERTEX
  8
0
 10
42019.36783
 20
3994.50461
 30
0.0
  0
VERTEX
  8
0
 10
42025.8544
 20
4024.57324
 30
0.0
  0
SEQEND
  0
POLYLINE
  8
0
 66
1
 10
0.0
 20
0.0
 30
0.0
 70
8
  0
VERTEX
  8
0
 10
43019.37677
 20
4011.04907
 30
0.0
  0
VERTEX
  8
0
 10
42997.12195
 20
4016.3403
 30
0.0
  0
VERTEX
  8
0
 10
42966.52293
 20
4039.84157
 30
0.0
  0
VERTEX
  8
0
 10
42966.88112
 20
3978.9307
 30
0.0
  0
VERTEX
  8
0
 10
42998.33369
 20
3970.03143
 30
0.0
  0
VERTEX
  8
0
 10
43031.92089
 20
3974.13232
 30
0.0
  0
VERTEX
  8
0
 10
43019.37677
 20
4011.04907
 30
0.0
  0
SEQEND
  0
POLYLINE
  8
0
 66
1
 10
0.0
 20
0.0
 30
0.0
 70
8
  0
VERTEX
  8
0
 10
44015.69319
 20
4007.98854
 30
0.0
  0
VERTEX
  8
0
 10
44005.83207
 20
4020.27235
 30
0.0
  0
VERTEX
  8
0
 10
43955.5821
 20
4005.13752
 30
0.0
  0
VERTEX
  8
0
 10
43994.29523
 20
3998.32345
 30
0.0
  0
VERTEX
  8
0
 10
43999.57381
 20
3981.52047
 30
0.0
  0
VERTEX
  8
0
 10
44023.58936
 20
3985.71529
 30
0.0
  0
VERTEX
  8
0
 10
44015.69319
 20
4007.98854
 30
0.0
  0
SEQEND
  0
POLYLINE
  8
0
 66
1
 10
0.0
 20
0.0
 30
0.0
 70
8
  0
VERTEX
  8
0
 10
45014.5133
 20
4006.04681
 30
0.0
  0
VERTEX
  8
0
 10
45019.94278
 20
4042.83749
 30
0.0
  0
VERTEX
  8
0
 10
44994.7583
 20
4006.92041
 30
0.0
  0
VERTEX
  8
0
 10
44990.16612
 20
3996.72214
 30
0.0
  0
VERTEX
  8
0
 10
45010.25159
 20
3977.96073
 30
0.0
  0
VERTEX
  8
0
 10
45040.13133
 20
3993.6734
 30
0.0
  0
VERTEX
  8
0
 10
45014.5133
 20
4006.04681
 30
0.0
  0
SEQEND
  0
POLYLINE
  8
0
 66
1
 10
0.0
 20
0.0
 30
0.0
 70
8
  0
VERTEX
  8
0
 10
46021.75613
 20
4018.09238
 30
0.0
  0
VERTEX
  8
0
 10
45992.08666
 20
4015.21154
 30
0.0
  0
VERTEX
  8
0
 10
45961.86416
 20
4028.36897
 30
0.0
  0
VERTEX
  8
0
 10
45965.15829
 20
3980.74974
 30
0.0
  0
VERTEX
  8
0
 10
45991.8007
 20
3949.81834
 30
0.0
  0
VERTEX
  8
0
 10
46003.78435
 20
3994.37227
 30
0.0
  0
VERTEX
  8
0
 10
46021.75613
 20
4018.09238
 30
0.0
  0
SEQEND
  0
POLYLINE
  8
0
 66
1
 10
0.0
 20
0.0
 30
0.0
 70
8
  0
VERTEX
  8
0
 10
47024.31525
 20
4022.51752
 30
0.0
  0
VERTEX
  8
0
 10
47012.85088
 20
4045.88492
 30
0.0
  0
VERTEX
  8
0
 10
46958.74204
 20
4034.42119
 30
0.0
  0
VERTEX
  8
0
 10
46995.63198
 20
3995.13234
 30
0.0
  0
VERTEX
  8
0
 10
46995.02338
 20
3949.79769
 30
0.0
  0
VERTEX
  8
0
 10
47017.60257
 20
3978.38587
 30
0.0
  0
VERTEX
  8
0
 10
47024.31525
 20
4022.51752
 30
0.0
  0
SEQEND
  0
POLYLINE
  8
0
 66
1
 10
0.0
 20
0.0
 30
0.0
 70
8
  0
VERTEX
  8
0
 10
48026.23358
 20
4006.68801
 30
0.0
  0
VERTEX
  8
0
 10
47997.73566
 20
4041.94998
 30
0.0
  0
VERTEX
  8
0
 10
47961.9329
 20
4025.51929
 30
0.0
  0
VERTEX
  8
0
 10
47981.15514
 20
3990.10347
 30
0.0
  0
VERTEX
  8
0
 10
47995.52046
 20
3990.75912
 30
0.0
  0
VERTEX
  8
0
 10
48027.97678
 20
3970.60078
 30
0.0
  0
VERTEX
  8
0
 10
48026.23358
 20
4006.68801
 30
0.0
  0
SEQEND
  0
POLYLINE
  8
0
 66
1
 10
0.0
 20
0.0
 30
0.0
 70
8
  0
VERTEX
  8
0
 10
27.113529999999997
 20
4034.43453
 30
0.0
  0
VERTEX
  8
0
 10
1.8701100000000002
 20
4005.39939
 30
0.0
  0
VERTEX
  8
0
 10
-6.95457
 20
4001.04179
 30
0.0
  0
VERTEX
  8
0
 10
-19.805680000000002
 20
3996.53709
 30
0.0
  0
VERTEX
  8
0
 10
5.84959
 20
3978.56199
 30
0.0
  0
VERTEX
  8
0
 10
6.14649
 20
3997.99278
 30
0.0
  0
VERTEX
  8
0
 10
27.113529999999997
 20
4034.43453
 30
0.0
  0
SEQEND
  0
POLYLINE
  8
0
 66
1
 10
0.0
 20
0.0
 30
0.0
 70
8
  0
VERTEX
  8
0
 10
1008.07752
 20
5007.67772
 30
0.0
  0
VERTEX
  8
0
 10
988.52565
 20
5044.47553
 30
0.0
  0
VERTEX
  8
0
 10
973.14931
 20
5033.86305
 30
0.0
  0
VERTEX
  8
0
 10
994.17597
 20
4991.69242
 30
0.0
  0
VERTEX
  8
0
 10
990.98136
 20
4981.95671
 30
0.0
  0
VERTEX
  8
0
 10
1047.78462
 20
4977.36718
 30
0.0
  0
VERTEX
  8
0
 10
1008.07752
 20
5007.67772
 30
0.0
  0
SEQEND
  0
POLYLINE
  8
0
 66
1
 10
0.0
 20
0.0
 30
0.0
 70
8
  0
VERTEX
  8
0
 10
2036.14879
 20
5031.12178
 30
0.0
  0
VERTEX
  8
0
 10
2012.99279
 20
5023.04058
 30
0.0
  0
VERTEX
  8
0
 10
1993.87865
 20
5000.71211
 30
0.0
  0
VERTEX
  8
0
 10
1970.27499
 20
4997.15402
 30
0.0
  0
VERTEX
  8
0
 10
1993.51758
 20
4987.61818
 30
0.0
  0
VERTEX
  8
0
 10
2026.77803
 20
4966.17892
 30
0.0
  0
VERTEX
  8
0
 10
2036.14879
 20
5031.12178
 30
0.0
  0
SEQEND
  0
POLYLINE
  8
0
 66
1
 10
0.0
 20
0.0
 30
0.0
 70
8
  0
VERTEX
  8
0
 10
3037.84171
 20
5016.26367
 30
0.0
  0
VERTEX
  8
0
 10
2977.00874
 20
5046.54528
 30
0.0
  0
VERTEX
  8
0
 10
2993.13208
 20
5009.90728
 30
0.0
  0
VERTEX
  8
0
 10
2994.6851
 20
4997.33706
 30
0.0
  0
VERTEX
  8
0
 10
3009.47577
 20
4969.32938
 30
0.0
  0
VERTEX
  8
0
 10
3041.86415
 20
4988.073
 30
0.0
  0
VERTEX
  8
0
 10
3037.84171
 20
5016.26367
 30
0.0
  0
SEQEND
  0
POLYLINE
  8
0
 66
1
 10
0.0
 20
0.0
 30
0.0
 70
8
  0
VERTEX
  8
0
 10
4033.88877
 20
5008.21101
 30
0.0
  0
VERTEX
  8
0
 10
4004.91316
 20
5044.69382
 30
0.0
  0
VERTEX
  8
0
 10
3986.7602
 20
5015.61219
 30
0.0
  0
VERTEX
  8
0
 10
3963.58036
 20
4993.69425
 30
0.0
  0
VERTEX
  8
0
 10
4000.80824
 20
4983.67784
 30
0.0
  0
VERTEX
  8
0
 10
4031.92667
 20
4993.01874
 30
0.0
  0
VERTEX
  8
0
 10
4033.88877
 20
5008.21101
 30
0.0
  0
SEQEND
  0
POLYLINE
  8
0
 66
1
 10
0.0
 20
0.0
 30
0.0
 70
8
  0
VERTEX
  8
0
 10
5014.10799
 20
5013.44174
 30
0.0
  0
VERTEX
  8
0
 10
5005.21149
 20
5014.77729
 30
0.0
  0
VERTEX
  8
0
 10
4970.59992
 20
5012.64908
 30
0.0
  0
VERTEX
  8
0
 10
4959.15474
 20
4977.18516
 30
0.0
  0
VERTEX
  8
0
 10
4995.81446
 20
4974.58347
 30
0.0
  0
VERTEX
  8
0
 10
5030.61135
 20
4984.36986
 30
0.0
  0
VERTEX
  8
0
 10
5014.10799
 20
5013.44174
 30
0.0
  0
SEQEND
  0
POLYLINE
  8
0
 66
1
 10
0.0
 20
0.0
 30
0.0
 70
8
  0
VERTEX
  8
0
 10
6014.70545
 20
5008.23654
 30
0.0
  0
VERTEX
  8
0
 10
5997.85422
 20
5046.1179
 30
0.0
  0
VERTEX
  8
0
 10
5965.64075
 20
5005.49148
 30
0.0
  0
VERTEX
  8
0
 10
5979.45717
 20
4999.5014
 30
0.0
  0
VERTEX
  8
0
 10
5997.26645
 20
4994.00384
 30
0.0
  0
VERTEX
  8
0
 10
6014.55082
 20
4976.71155
 30
0.0
  0
VERTEX
  8
0
 10
6014.70545
 20
5008.23654
 30
0.0
  0
SEQEND
  0
POLYLINE
  8
0
 66
1
 10
0.0
 20
0.0
 30
0.0
 70
8
  0
VERTEX
  8
0
 10
7014.46973
 20
5009.50519
 30
0.0
  0
VERTEX
  8
0
 10
7025.6131
 20
5044.57666
 30
0.0
  0
VERTEX
  8
0
 10
6980.98536
 20
5016.49512
 30
0.0
  0
VERTEX
  8
0
 10
6970.42273
 20
4959.91547
 30
0.0
  0
VERTEX
  8
0
 10
7001.48104
 20
4959.78391
 30
0.0
  0
VERTEX
  8
0
 10
7004.23818
 20
4994.09795
 30
0.0
  0
VERTEX
  8
0
 10
7014.46973
 20
5009.50519
 30
0.0
  0
SEQEND
  0
POLYLINE
  8
0
 66
1
 10
0.0
 20
0.0
 30
0.0
 70
8
  0
VERTEX
  8
0
 10
8022.3325
 20
5032.67027
 30
0.0
  0
VERTEX
  8
0
 10
7997.46147
 20
5022.91097
 30
0.0
  0
VERTEX
  8
0
 10
7983.22345
 20
5007.18352
 30
0.0
  0
VERTEX
  8
0
 10
7984.80268
 20
4980.56927
 30
0.0
  0
VERTEX
  8
0
 10
7994.85289
 20
4971.43022
 30
0.0
  0
VERTEX
  8
0
 10
8047.72297
 20
4988.55951
 30
0.0
  0
VERTEX
  8
0
 10
8022.3325
 20
5032.67027
 30
0.0
  0
SEQEND
  0
POLYLINE
  8
0
 66
1
 10
0.0
 20
0.0
 30
0.0
 70
8
  0
VERTEX
  8
0
 10
9025.72972
 20
5016.9016
 30
0.0
  0
VERTEX
  8
0
 10
8995.42852
 20
5012.2826
 30
0.0
  0
VERTEX
  8
0
 10
8957.43684
 20
5017.33527
 30
0.0
  0
VERTEX
  8
0
 10
8976.10596
 20
4971.59095
 30
0.0
  0
VERTEX
  8
0
 10
9006.21434
 20
4969.59148
 30
0.0
  0
VERTEX
  8
0
 10
9030.4282
 20
4995.94075
 30
0.0
  0
VERTEX
  8
0
 10
9025.72972
 20
5016.9016
 30
0.0
  0
SEQEND
  0
POLYLINE
  8
0
 66
1
 10
0.0
 20
0.0
 30
0.0
 70
8
  0
VERTEX
  8
0
 10
10034.02341
 20
5007.98113
 30
0.0
  0
VERTEX
  8
0
 10
10001.44363
 20
5008.60611
 30
0.0
  0
VERTEX
  8
0
 10
9953.27338
 20
5015.47701
 30
0.0
  0
VERTEX
  8
0
 10
9989.39434
 20
4990.21638
 30
0.0
  0
VERTEX
  8
0
 10
9987.73755
 20
4961.68748
 30
0.0
  0
VERTEX
  8
0
 10
10038.54195
 20
4998.23949
 30
0.0
  0
VERTEX
  8
0
 10
10034.02341
 20
5007.98113
 30
0.0
  0
SEQEND
  0
POLYLINE
  8
0
 66
1
 10
0.0
 20
0.0
 30
0.0
 70
8
  0
VERTEX
  8
0
 10
11038.25696
 20
5022.46479
 30
0.0
  0
VERTEX
  8
0
 10
11002.56443
 20
5008.23005
 30
0.0
  0
VERTEX
  8
0
 10
10987.84516
 20
5013.97695
 30
0.0
  0
VERTEX
  8
0
 10
10957.05862
 20
4992.36758
 30
0.0
  0
VERTEX
  8
0
 10
10981.30638
 20
4955.09956
 30
0.0
  0
VERTEX
  8
0
 10
11041.20148
 20
4982.8639
 30
0.0
  0
VERTEX
  8
0
 10
11038.25696
 20
5022.46479
 30
0.0
  0
SEQEND
  0
POLYLINE
  8
0
 66
1
 10
0.0
 20
0.0
 30
0.0
 70
8
  0
VERTEX
  8
0
 10
12036.0414
 20
5002.45484
 30
0.0
  0
VERTEX
  8
0
 10
12011.3691
 20
5030.12148
 30
0.0
  0
VERTEX
  8
0
 10
11964.97969
 20
5039.5095
 30
0.0
  0
VERTEX
  8
0
 10
11969.13746
 20
4980.40153
 30
0.0
  0
VERTEX
  8
0
 10
11993.56806
 20
4959.85288
 30
0.0
  0
VERTEX
  8
0
 10
12015.88737
 20
4973.0989
 30
0.0
  0
VERTEX
  8
0
 10
12036.0414
 20
5002.45484
 30
0.0
  0
SEQEND
  0
POLYLINE
  8
0
 66
1
 10
0.0
 20
0.0
 30
0.0
 70
8
  0
VERTEX
  8
0
 10
13012.59755
 20
5017.18756
 30
0.0
  0
VERTEX
  8
0
 10
13017.13205
 20
5036.16539
 30
0.0
  0
VERTEX
  8
0
 10
12972.50623
 20
5004.68788
 30
0.0
  0
VERTEX
  8
0
 10
12980.79976
 20
4980.01505
 30
0.0
  0
VERTEX
  8
0
 10
12991.25532
 20
4975.35677
 30
0.0
  0
VERTEX
  8
0
 10
13007.52668
 20
4995.04744
 30
0.0
  0
VERTEX
  8
0
 10
13012.59755
 20
5017.18756
 30
0.0
  0
SEQEND
  0
POLYLINE
  8
0
 66
1
 10
0.0
 20
0.0
 30
0.0
 70
8
  0
VERTEX
  8
0
 10
14005.56195
 20
5008.39198
 30
0.0
  0
VERTEX
  8
0
 10
13999.84281
 20
5014.2442
 30
0.0
  0
VERTEX
  8
0
 10
13949.87217
 20
5018.92551
 30
0.0
  0
VERTEX
  8
0
 10
13960.3149
 20
4996.64675
 30
0.0
  0
VERTEX
  8
0
 10
13989.3416
 20
4949.53158
 30
0.0
  0
VERTEX
  8
0
 10
14026.11092
 20
4986.20339
 30
0.0
  0
VERTEX
  8
0
 10
14005.56195
 20
5008.39198
 30
0.0
  0
SEQEND
  0
POLYLINE
  8
0
 66
1
 10
0.0
 20
0.0
 30
0.0
 70
8
  0
VERTEX
  8
0
 10
15031.70278
 20
5029.82698
 30
0.0
  0
VERTEX
  8
0
 10
14990.97136
 20
5041.22751
 30
0.0
  0
VERTEX
  8
0
 10
14957.96416
 20
5034.18551
 30
0.0
  0
VERTEX
  8
0
 10
14983.46733
 20
4997.72035
 30
0.0
  0
VERTEX
  8
0
 10
14994.47747
 20
4988.13322
 30
0.0
  0
VERTEX
  8
0
 10
15008.74789
 20
4987.13034
 30
0.0
  0
VERTEX
  8
0
 10
15031.70278
 20
5029.82698
 30
0.0
  0
SEQEND
  0
POLYLINE
  8
0
 66
1
 10
0.0
 20
0.0
 30
0.0
 70
8
  0
VERTEX
  8
0
 10
16018.03372
 20
5005.49083
 30
0.0
  0
VERTEX
  8
0
 10
15999.07436
 20
5028.90401
 30
0.0
  0
VERTEX
  8
0
 10
15981.28278
 20
5023.51919
 30
0.0
  0
VERTEX
  8
0
 10
15969.33775
 20
4991.55298
 30
0.0
  0
VERTEX
  8
0
 10
15992.79346
 20
4966.18203
 30
0.0
  0
VERTEX
  8
0
 10
16009.62127
 20
4999.55387
 30
0.0
  0
VERTEX
  8
0
 10
16018.03372
 20
5005.49083
 30
0.0
  0
SEQEND
  0
POLYLINE
  8
0
 66
1
 10
0.0
 20
0.0
 30
0.0
 70
8
  0
VERTEX
  8
0
 10
17027.52956
 20
5003.07215
 30
0.0
  0
VERTEX
  8
0
 10
16997.79723
 20
5037.02746
 30
0.0
  0
VERTEX
  8
0
 10
16966.15138
 20
5006.67998
 30
0.0
  0
VERTEX
  8
0
 10
16965.23248
 20
4998.34393
 30
0.0
  0
VERTEX
  8
0
 10
17021.65151
 20
4954.66278
 30
0.0
  0
VERTEX
  8
0
 10
17029.69388
 20
4954.49534
 30
0.0
  0
VERTEX
  8
0
 10
17027.52956
 20
5003.07215
 30
0.0
  0
SEQEND
  0
POLYLINE
  8
0
 66
1
 10
0.0
 20
0.0
 30
0.0
 70
8
  0
VERTEX
  8
0
 10
18014.26628
 20
5000.03242
 30
0.0
  0
VERTEX
  8
0
 10
18003.21701
 20
5010.21035
 30
0.0
  0
VERTEX
  8
0
 10
17983.9858
 20
5008.3498
 30
0.0
  0
VERTEX
  8
0
 10
17984.37102
 20
4980.65092
 30
0.0
  0
VERTEX
  8
0
 10
18007.7239
 20
4973.68266
 30
0.0
  0
VERTEX
  8
0
 10
18031.15803
 20
4957.0502
 30
0.0
  0
VERTEX
  8
0
 10
18014.26628
 20
5000.03242
 30
0.0
  0
SEQEND
  0
POLYLINE
  8
0
 66
1
 10
0.0
 20
0.0
 30
0.0
 70
8
  0
VERTEX
  8
0
 10
19018.20579
 20
5002.05053
 30
0.0
  0
VERTEX
  8
0
 10
19004.47984
 20
5009.67714
 30
0.0
  0
VERTEX
  8
0
 10
18955.12348
 20
5020.02059
 30
0.0
  0
VERTEX
  8
0
 10
18987.66563
 20
4995.55096
 30
0.0
  0
VERTEX
  8
0
 10
18998.72242
 20
4969.04025
 30
0.0
  0
VERTEX
  8
0
 10
19028.24568
 20
4980.67226
 30
0.0
  0
VERTEX
  8
0
 10
19018.20579
 20
5002.05053
 30
0.0
  0
SEQEND
  0
POLYLINE
  8
0
 66
1
 10
0.0
 20
0.0
 30
0.0
 70
8
  0
VERTEX
  8
0
 10
20021.00713
 20
5008.58766
 30
0.0
  0
VERTEX
  8
0
 10
19996.51707
 20
5032.43857
 30
0.0
  0
VERTEX
  8
0
 10
19970.55286
 20
5023.87642
 30
0.0
  0
VERTEX
  8
0
 10
19966.40533
 20
4991.05466
 30
0.0
  0
VERTEX
  8
0
 10
20001.87272
 20
4953.17534
 30
0.0
  0
VERTEX
  8
0
 10
20018.04759
 20
4988.15329
 30
0.0
  0
VERTEX
  8
0
 10
20021.00713
 20
5008.58766
 30
0.0
  0
SEQEND
  0
POLYLINE
  8
0
 66
1
 10
0.0
 20
0.0
 30
0.0
 70
8
  0
VERTEX
  8
0
 10
21014.91494
 20
5019.77624
 30
0.0
  0
VERTEX
  8
0
 10
21005.09611
 20
5018.50599
 30
0.0
  0
VERTEX
  8
0
 10
20982.60974
 20
5002.55403
 30
0.0
  0
VERTEX
  8
0
 10
20964.38229
 20
4999.46306
 30
0.0
  0
VERTEX
  8
0
 10
21002.56589
 20
4961.20439
 30
0.0
  0
VERTEX
  8
0
 10
21030.0087
 20
4992.47232
 30
0.0
  0
VERTEX
  8
0
 10
21014.91494
 20
5019.77624
 30
0.0
  0
SEQEND
  0
POLYLINE
  8
0
 66
1
 10
0.0
 20
0.0
 30
0.0
 70
8
  0
VERTEX
  8
0
 10
22024.65564
 20
5017.62651
 30
0.0
  0
VERTEX
  8
0
 10
22005.08444
 20
5017.87317
 30
0.0
  0
VERTEX
  8
0
 10
21984.60754
 20
5015.44739
 30
0.0
  0
VERTEX
  8
0
 10
21988.27426
 20
4986.29813
 30
0.0
  0
VERTEX
  8
0
 10
21988.3263
 20
4973.51472
 30
0.0
  0
VERTEX
  8
0
 10
22047.04854
 20
4989.89704
 30
0.0
  0
VERTEX
  8
0
 10
22024.65564
 20
5017.62651
 30
0.0
  0
SEQEND
  0
POLYLINE
  8
0
 66
1
 10
0.0
 20
0.0
 30
0.0
 70
8
  0
VERTEX
  8
0
 10
23046.37394
 20
5028.85331
 30
0.0
  0
VERTEX
  8
0
 10
23008.52984
 20
5040.22766
 30
0.0
  0
VERTEX
  8
0
 10
22987.03715
 20
5014.71792
 30
0.0
  0
VERTEX
  8
0
 10
22986.55684
 20
4993.78331
 30
0.0
  0
VERTEX
  8
0
 10
23007.05544
 20
4955.26218
 30
0.0
  0
VERTEX
  8
0
 10
23013.83859
 20
4995.31707
 30
0.0
  0
VERTEX
  8
0
 10
23046.37394
 20
5028.85331
 30
0.0
  0
SEQEND
  0
POLYLINE
  8
0
 66
1
 10
0.0
 20
0.0
 30
0.0
 70
8
  0
VERTEX
  8
0
 10
24035.70162
 20
5003.00642
 30
0.0
  0
VERTEX
  8
0
 10
23987.11098
 20
5023.2818
 30
0.0
  0
VERTEX
  8
0
 10
23951.57527
 20
5020.80888
 30
0.0
  0
VERTEX
  8
0
 10
23966.98993
 20
4956.98981
 30
0.0
  0
VERTEX
  8
0
 10
24004.23238
 20
4970.07881
 30
0.0
  0
VERTEX
  8
0
 10
24025.93904
 20
4978.95354
 30
0.0
  0
VERTEX
  8
0
 10
24035.70162
 20
5003.00642
 30
0.0
  0
SEQEND
  0
POLYLINE
  8
0
 66
1
 10
0.0
 20
0.0
 30
0.0
 70
8
  0
VERTEX
  8
0
 10
25023.93714
 20
5029.02827
 30
0.0
  0
VERTEX
  8
0
 10
24997.5525
 20
5040.69297
 30
0.0
  0
VERTEX
  8
0
 10
24964.63871
 20
5031.88247
 30
0.0
  0
VERTEX
  8
0
 10
24965.11112
 20
4997.07485
 30
0.0
  0
VERTEX
  8
0
 10
24994.14257
 20
4980.48482
 30
0.0
  0
VERTEX
  8
0
 10
25037.24724
 20
4967.69501
 30
0.0
  0
VERTEX
  8
0
 10
25023.93714
 20
5029.02827
 30
0.0
  0
SEQEND
  0
POLYLINE
  8
0
 66
1
 10
0.0
 20
0.0
 30
0.0
 70
8
  0
VERTEX
  8
0
 10
26046.6726
 20
5020.91505
 30
0.0
  0
VERTEX
  8
0
 10
25997.37201
 20
5005.06911
 30
0.0
  0
VERTEX
  8
0
 10
25995.85369
 20
5006.97521
 30
0.0
  0
VERTEX
  8
0
 10
25976.48249
 20
4997.26849
 30
0.0
  0
VERTEX
  8
0
 10
26000.28233
 20
4963.80282
 30
0.0
  0
VERTEX
  8
0
 10
26004.46546
 20
4993.79877
 30
0.0
  0
VERTEX
  8
0
 10
26046.6726
 20
5020.91505
 30
0.0
  0
SEQEND
  0
POLYLINE
  8
0
 66
1
 10
0.0
 20
0.0
 30
0.0
 70
8
  0
VERTEX
  8
0
 10
27016.45372
 20
5022.10434
 30
0.0
  0
VERTEX
  8
0
 10
27008.25766
 20
5019.43162
 30
0.0
  0
VERTEX
  8
0
 10
26958.79247
 20
5026.32995
 30
0.0
  0
VERTEX
  8
0
 10
26955.29656
 20
4970.83066
 30
0.0
  0
VERTEX
  8
0
 10
26986.16613
 20
4950.8558
 30
0.0
  0
VERTEX
  8
0
 10
27011.81566
 20
4980.45612
 30
0.0
  0
VERTEX
  8
0
 10
27016.45372
 20
5022.10434
 30
0.0
  0
SEQEND
  0
POLYLINE
  8
0
 66
1
 10
0.0
 20
0.0
 30
0.0
 70
8
  0
VERTEX
  8
0
 10
28026.10293
 20
5001.52698
 30
0.0
  0
VERTEX
  8
0
 10
28022.21207
 20
5043.51222
 30
0.0
  0
VERTEX
  8
0
 10
27946.84033
 20
5013.71196
 30
0.0
  0
VERTEX
  8
0
 10
27985.07143
 20
4991.90693
 30
0.0
  0
VERTEX
  8
0
 10
27993.2815
 20
4948.65627
 30
0.0
  0
VERTEX
  8
0
 10
28035.68451
 20
4996.2299
 30
0.0
  0
VERTEX
  8
0
 10
28026.10293
 20
5001.52698
 30
0.0
  0
SEQEND
  0
POLYLINE
  8
0
 66
1
 10
0.0
 20
0.0
 30
0.0
 70
8
  0
VERTEX
  8
0
 10
29030.86526
 20
5029.83232
 30
0.0
  0
VERTEX
  8
0
 10
28994.08356
 20
5026.78894
 30
0.0
  0
VERTEX
  8
0
 10
28969.12891
 20
5037.11876
 30
0.0
  0
VERTEX
  8
0
 10
28982.60925
 20
4980.55253
 30
0.0
  0
VERTEX
  8
0
 10
29012.38046
 20
4975.16859
 30
0.0
  0
VERTEX
  8
0
 10
29020.4439
 20
4986.64755
 30
0.0
  0
VERTEX
  8
0
 10
29030.86526
 20
5029.83232
 30
0.0
  0
SEQEND
  0
POLYLINE
  8
0
 66
1
 10
0.0
 20
0.0
 30
0.0
 70
8
  0
VERTEX
  8
0
 10
30033.71589
 20
5016.02597
 30
0.0
  0
VERTEX
  8
0
 10
29996.2871
 20
5007.6979
 30
0.0
  0
VERTEX
  8
0
 10
29961.98459
 20
5014.69947
 30
0.0
  0
VERTEX
  8
0
 10
29961.83761
 20
4992.46637
 30
0.0
  0
VERTEX
  8
0
 10
29982.8625
 20
4968.08088
 30
0.0
  0
VERTEX
  8
0
 10
30021.73505
 20
4982.26582
 30
0.0
  0
VERTEX
  8
0
 10
30033.71589
 20
5016.02597
 30
0.0
  0
SEQEND
  0
POLYLINE
  8
0
 66
1
 10
0.0
 20
0.0
 30
0.0
 70
8
  0
VERTEX
  8
0
 10
31026.3819
 20
5032.42042
 30
0.0
  0
VERTEX
  8
0
 10
31007.31926
 20
5032.21232
 30
0.0
  0
VERTEX
  8
0
 10
30977.92279
 20
5028.45779
 30
0.0
  0
VERTEX
  8
0
 10
30963.14131
 20
4991.73103
 30
0.0
  0
VERTEX
  8
0
 10
31000.62715
 20
4980.01267
 30
0.0
  0
VERTEX
  8
0
 10
31007.93906
 20
4995.58563
 30
0.0
  0
VERTEX
  8
0
 10
31026.3819
 20
5032.42042
 30
0.0
  0
SEQEND
  0
POLYLINE
  8
0
 66
1
 10
0.0
 20
0.0
 30
0.0
 70
8
  0
VERTEX
  8
0
 10
32024.6383
 20
5015.05748
 30
0.0
  0
VERTEX
  8
0
 10
32005.95992
 20
5037.24591
 30
0.0
  0
VERTEX
  8
0
 10
31990.7592
 20
5014.86807
 30
0.0
  0
VERTEX
  8
0
 10
31974.53136
 20
4986.57194
 30
0.0
  0
VERTEX
  8
0
 10
32009.93845
 20
4951.90258
 30
0.0
  0
VERTEX
  8
0
 10
32014.36986
 20
4996.78429
 30
0.0
  0
VERTEX
  8
0
 10
32024.6383
 20
5015.05748
 30
0.0
  0
SEQEND
  0
POLYLINE
  8
0
 66
1
 10
0.0
 20
0.0
 30
0.0
 70
8
  0
VERTEX
  8
0
 10
33008.9799
 20
5010.97982
 30
0.0
  0
VERTEX
  8
0
 10
33008.92504
 20
5036.01576
 30
0.0
  0
VERTEX
  8
0
 10
32973.61814
 20
5001.64883
 30
0.0
  0
VERTEX
  8
0
 10
32986.20559
 20
4985.09834
 30
0.0
  0
VERTEX
  8
0
 10
32999.6643
 20
4983.08496
 30
0.0
  0
VERTEX
  8
0
 10
33022.56698
 20
4994.37693
 30
0.0
  0
VERTEX
  8
0
 10
33008.9799
 20
5010.97982
 30
0.0
  0
SEQEND
  0
POLYLINE
  8
0
 66
1
 10
0.0
 20
0.0
 30
0.0
 70
8
  0
VERTEX
  8
0
 10
34004.60447
 20
5003.42936
 30
0.0
  0
VERTEX
  8
0
 10
34008.78487
 20
5030.41683
 30
0.0
  0
VERTEX
  8
0
 10
33963.47625
 20
5026.85319
 30
0.0
  0
VERTEX
  8
0
 10
33958.94084
 20
4968.80908
 30
0.0
  0
VERTEX
  8
0
 10
33999.77788
 20
4990.28134
 30
0.0
  0
VERTEX
  8
0
 10
34042.9416
 20
4971.38504
 30
0.0
  0
VERTEX
  8
0
 10
34004.60447
 20
5003.42936
 30
0.0
  0
SEQEND
  0
POLYLINE
  8
0
 66
1
 10
0.0
 20
0.0
 30
0.0
 70
8
  0
VERTEX
  8
0
 10
35051.80015
 20
5003.85026
 30
0.0
  0
VERTEX
  8
0
 10
35006.05191
 20
5028.71933
 30
0.0
  0
VERTEX
  8
0
 10
34960.79378
 20
5027.91575
 30
0.0
  0
VERTEX
  8
0
 10
34979.45812
 20
4988.79899
 30
0.0
  0
VERTEX
  8
0
 10
35007.16738
 20
4963.89902
 30
0.0
  0
VERTEX
  8
0
 10
35038.29886
 20
4999.20564
 30
0.0
  0
VERTEX
  8
0
 10
35051.80015
 20
5003.85026
 30
0.0
  0
SEQEND
  0
POLYLINE
  8
0
 66
1
 10
0.0
 20
0.0
 30
0.0
 70
8
  0
VERTEX
  8
0
 10
36040.94712
 20
5013.16258
 30
0.0
  0
VERTEX
  8
0
 10
36008.40494
 20
5037.45428
 30
0.0
  0
VERTEX
  8
0
 10
35958.60122
 20
5010.9129
 30
0.0
  0
VERTEX
  8
0
 10
35985.07731
 20
4981.61593
 30
0.0
  0
VERTEX
  8
0
 10
36018.3277
 20
4953.72808
 30
0.0
  0
VERTEX
  8
0
 10
36004.87864
 20
4995.86145
 30
0.0
  0
VERTEX
  8
0
 10
36040.94712
 20
5013.16258
 30
0.0
  0
SEQEND
  0
POLYLINE
  8
0
 66
1
 10
0.0
 20
0.0
 30
0.0
 70
8
  0
VERTEX
  8
0
 10
37031.7346
 20
5041.11412
 30
0.0
  0
VERTEX
  8
0
 10
37003.71206
 20
5033.90099
 30
0.0
  0
VERTEX
  8
0
 10
36989.4751
 20
5015.96138
 30
0.0
  0
VERTEX
  8
0
 10
36969.85435
 20
4967.98051
 30
0.0
  0
VERTEX
  8
0
 10
37009.34073
 20
4957.57654
 30
0.0
  0
VERTEX
  8
0
 10
37013.91876
 20
4978.2435
 30
0.0
  0
VERTEX
  8
0
 10
37031.7346
 20
5041.11412
 30
0.0
  0
SEQEND
  0
POLYLINE
  8
0
 66
1
 10
0.0
 20
0.0
 30
0.0
 70
8
  0
VERTEX
  8
0
 10
38005.96355
 20
5002.18596
 30
0.0
  0
VERTEX
  8
0
 10
37994.08191
 20
5043.73253
 30
0.0
  0
VERTEX
  8
0
 10
37967.51367
 20
5022.10553
 30
0.0
  0
VERTEX
  8
0
 10
37995.59107
 20
4993.98462
 30
0.0
  0
VERTEX
  8
0
 10
37995.9373
 20
4966.17923
 30
0.0
  0
VERTEX
  8
0
 10
38047.56109
 20
4993.92408
 30
0.0
  0
VERTEX
  8
0
 10
38005.96355
 20
5002.18596
 30
0.0
  0
SEQEND
  0
POLYLINE
  8
0
 66
1
 10
0.0
 20
0.0
 30
0.0
 70
8
  0
VERTEX
  8
0
 10
39047.18835
 20
5023.28931
 30
0.0
  0
VERTEX
  8
0
 10
39002.32343
 20
5025.51166
 30
0.0
  0
VERTEX
  8
0
 10
38991.55164
 20
5008.32561
 30
0.0
  0
VERTEX
  8
0
 10
38974.0657
 20
4988.73649
 30
0.0
  0
VERTEX
  8
0
 10
38984.30368
 20
4951.3488
 30
0.0
  0
VERTEX
  8
0
 10
39005.5447
 20
4991.91272
 30
0.0
  0
VERTEX
  8
0
 10
39047.18835
 20
5023.28931
 30
0.0
  0
SEQEND
  0
POLYLINE
  8
0
 66
1
 10
0.0
 20
0.0
 30
0.0
 70
8
  0
VERTEX
  8
0
 10
40028.15458
 20
5003.77946
 30
0.0
  0
VERTEX
  8
0
 10
39996.33029
 20
5030.34524
 30
0.0
  0
VERTEX
  8
0
 10
39974.94461
 20
5020.31516
 30
0.0
  0
VERTEX
  8
0
 10
39955.25205
 20
4986.5940200000005
 30
0.0
  0
VERTEX
  8
0
 10
40000.05321
 20
4994.64493
 30
0.0
  0
VERTEX
  8
0
 10
40029.85787
 20
4978.06929
 30
0.0
  0
VERTEX
  8
0
 10
40028.15458
 20
5003.77946
 30
0.0
  0
SEQEND
  0
POLYLINE
  8
0
 66
1
 10
0.0
 20
0.0
 30
0.0
 70
8
  0
VERTEX
  8
0
 10
41046.43933
 20
5010.84897
 30
0.0
  0
VERTEX
  8
0
 10
41003.64393
 20
5032.86824
 30
0.0
  0
VERTEX
  8
0
 10
40968.00319
 20
5012.52523
 30
0.0
  0
VERTEX
  8
0
 10
40974.14249
 20
4973.27495
 30
0.0
  0
VERTEX
  8
0
 10
41002.15114
 20
4984.93641
 30
0.0
  0
VERTEX
  8
0
 10
41035.85787
 20
4966.47317
 30
0.0
  0
VERTEX
  8
0
 10
41046.43933
 20
5010.84897
 30
0.0
  0
SEQEND
  0
POLYLINE
  8
0
 66
1
 10
0.0
 20
0.0
 30
0.0
 70
8
  0
VERTEX
  8
0
 10
42005.88719
 20
5002.80455
 30
0.0
  0
VERTEX
  8
0
 10
41996.8643
 20
5044.55368
 30
0.0
  0
VERTEX
  8
0
 10
41959.0819
 20
5029.21947
 30
0.0
  0
VERTEX
  8
0
 10
41992.3425
 20
4993.11974
 30
0.0
  0
VERTEX
  8
0
 10
42000.35439
 20
4962.62929
 30
0.0
  0
VERTEX
  8
0
 10
42026.42026
 20
4982.50552
 30
0.0
  0
VERTEX
  8
0
 10
42005.88719
 20
5002.80455
 30
0.0
  0
SEQEND
  0
POLYLINE
  8
0
 66
1
 10
0.0
 20
0.0
 30
0.0
 70
8
  0
VERTEX
  8
0
 10
43009.55801
 20
5005.86377
 30
0.0
  0
VERTEX
  8
0
 10
43002.73599
 20
5025.24662
 30
0.0
  0
VERTEX
  8
0
 10
42993.71297
 20
5010.62642
 30
0.0
  0
VERTEX
  8
0
 10
42968.29302
 20
4985.26075
 30
0.0
  0
VERTEX
  8
0
 10
43014.38662
 20
4968.52752
 30
0.0
  0
VERTEX
  8
0
 10
43022.64982
 20
4963.58432
 30
0.0
  0
VERTEX
  8
0
 10
43009.55801
 20
5005.86377
 30
0.0
  0
SEQEND
  0
POLYLINE
  8
0
 66
1
 10
0.0
 20
0.0
 30
0.0
 70
8
  0
VERTEX
  8
0
 10
44013.34165
 20
5013.76723
 30
0.0
  0
VERTEX
  8
0
 10
44001.98081
 20
5030.29147
 30
0.0
  0
VERTEX
  8
0
 10
43970.09769
 20
5026.48312
 30
0.0
  0
VERTEX
  8
0
 10
43964.72467
 20
4993.91154
 30
0.0
  0
VERTEX
  8
0
 10
44002.43288
 20
4984.11706
 30
0.0
  0
VERTEX
  8
0
 10
44034.65819
 20
4994.49478
 30
0.0
  0
VERTEX
  8
0
 10
44013.34165
 20
5013.76723
 30
0.0
  0
SEQEND
  0
POLYLINE
  8
0
 66
1
 10
0.0
 20
0.0
 30
0.0
 70
8
  0
VERTEX
  8
0
 10
45016.20168
 20
5005.51011
 30
0.0
  0
VERTEX
  8
0
 10
44999.22766
 20
5042.11481
 30
0.0
  0
VERTEX
  8
0
 10
44974.61781
 20
5008.1316
 30
0.0
  0
VERTEX
  8
0
 10
44992.55974
 20
4992.80119
 30
0.0
  0
VERTEX
  8
0
 10
44987.02535
 20
4973.5647
 30
0.0
  0
VERTEX
  8
0
 10
45015.42279
 20
4990.46212
 30
0.0
  0
VERTEX
  8
0
 10
45016.20168
 20
5005.51011
 30
0.0
  0
SEQEND
  0
POLYLINE
  8
0
 66
1
 10
0.0
 20
0.0
 30
0.0
 70
8
  0
VERTEX
  8
0
 10
46037.41277
 20
5005.47512
 30
0.0
  0
VERTEX
  8
0
 10
46003.68843
 20
5007.08367
 30
0.0
  0
VERTEX
  8
0
 10
45955.21244
 20
5024.27341
 30
0.0
  0
VERTEX
  8
0
 10
45975.64068
 20
4998.18767
 30
0.0
  0
VERTEX
  8
0
 10
45999.89813
 20
4993.8101
 30
0.0
  0
VERTEX
  8
0
 10
46007.74437
 20
4991.36674
 30
0.0
  0
VERTEX
  8
0
 10
46037.41277
 20
5005.47512
 30
0.0
  0
SEQEND
  0
POLYLINE
  8
0
 66
1
 10
0.0
 20
0.0
 30
0.0
 70
8
  0
VERTEX
  8
0
 10
47037.67161
 20
5022.44192
 30
0.0
  0
VERTEX
  8
0
 10
47025.50852
 20
5045.60153
 30
0.0
  0
VERTEX
  8
0
 10
46972.4333
 20
5009.87978
 30
0.0
  0
VERTEX
  8
0
 10
46957.6498
 20
4982.1534
 30
0.0
  0
VERTEX
  8
0
 10
46982.69319
 20
4951.11034
 30
0.0
  0
VERTEX
  8
0
 10
47030.92678
 20
4956.67719
 30
0.0
  0
VERTEX
  8
0
 10
47037.67161
 20
5022.44192
 30
0.0
  0
SEQEND
  0
POLYLINE
  8
0
 66
1
 10
0.0
 20
0.0
 30
0.0
 70
8
  0
VERTEX
  8
0
 10
48024.85501
 20
5008.19815
 30
0.0
  0
VERTEX
  8
0
 10
47992.54505
 20
5014.49634
 30
0.0
  0
VERTEX
  8
0
 10
47979.755
 20
5000.3917
 30
0.0
  0
VERTEX
  8
0
 10
47983.88912
 20
4983.57031
 30
0.0
  0
VERTEX
  8
0
 10
48022.29474
 20
4951.08082
 30
0.0
  0
VERTEX
  8
0
 10
48048.84314
 20
4986.89896
 30
0.0
  0
VERTEX
  8
0
 10
48024.85501
 20
5008.19815
 30
0.0
  0
SEQEND
  0
POLYLINE
  8
0
 66
1
 10
0.0
 20
0.0
 30
0.0
 70
8
  0
VERTEX
  8
0
 10
41.07300000000001
 20
5034.99414
 30
0.0
  0
VERTEX
  8
0
 10
6.53637
 20
5016.80566
 30
0.0
  0
VERTEX
  8
0
 10
-29.75893
 20
5046.19547
 30
0.0
  0
VERTEX
  8
0
 10
-19.719340000000003
 20
4986.10415
 30
0.0
  0
VERTEX
  8
0
 10
12.46333
 20
4946.50649
 30
0.0
  0
VERTEX
  8
0
 10
27.12042
 20
4994.43175
 30
0.0
  0
VERTEX
  8
0
 10
41.07300000000001
 20
5034.99414
 30
0.0
  0
SEQEND
  0
POLYLINE
  8
0
 66
1
 10
0.0
 20
0.0
 30
0.0
 70
8
  0
VERTEX
  8
0
 10
1026.83876
 20
6002.41782
 30
0.0
  0
VERTEX
  8
0
 10
1001.87241
 20
6048.89699
 30
0.0
  0
VERTEX
  8
0
 10
967.22104
 20
6031.05031
 30
0.0
  0
VERTEX
  8
0
 10
969.92722
 20
5984.47427
 30
0.0
  0
VERTEX
  8
0
 10
980.50965
 20
5948.95531
 30
0.0
  0
VERTEX
  8
0
 10
1041.25404
 20
5996.41693
 30
0.0
  0
VERTEX
  8
0
 10
1026.83876
 20
6002.41782
 30
0.0
  0
SEQEND
  0
POLYLINE
  8
0
 66
1
 10
0.0
 20
0.0
 30
0.0
 70
8
  0
VERTEX
  8
0
 10
2026.82066
 20
6042.50419
 30
0.0
  0
VERTEX
  8
0
 10
2020.9286299999999
 20
6046.01998
 30
0.0
  0
VERTEX
  8
0
 10
1981.83536
 20
6015.35532
 30
0.0
  0
VERTEX
  8
0
 10
1994.57582
 20
5995.59217
 30
0.0
  0
VERTEX
  8
0
 10
2007.62702
 20
5971.35492
 30
0.0
  0
VERTEX
  8
0
 10
2045.82325
 20
5984.41798
 30
0.0
  0
VERTEX
  8
0
 10
2026.82066
 20
6042.50419
 30
0.0
  0
SEQEND
  0
POLYLINE
  8
0
 66
1
 10
0.0
 20
0.0
 30
0.0
 70
8
  0
VERTEX
  8
0
 10
3036.22084
 20
6032.71059
 30
0.0
  0
VERTEX
  8
0
 10
2974.47978
 20
6047.02368
 30
0.0
  0
VERTEX
  8
0
 10
2994.35731
 20
6003.00564
 30
0.0
  0
VERTEX
  8
0
 10
2975.26926
 20
5960.3949
 30
0.0
  0
VERTEX
  8
0
 10
2988.48224
 20
5950.90083
 30
0.0
  0
VERTEX
  8
0
 10
3051.50344
 20
5997.41606
 30
0.0
  0
VERTEX
  8
0
 10
3036.22084
 20
6032.71059
 30
0.0
  0
SEQEND
  0
POLYLINE
  8
0
 66
1
 10
0.0
 20
0.0
 30
0.0
 70
8
  0
VERTEX
  8
0
 10
4007.87539
 20
6000.18449
 30
0.0
  0
VERTEX
  8
0
 10
3985.66515
 20
6040.74868
 30
0.0
  0
VERTEX
  8
0
 10
3995.13555
 20
6005.86255
 30
0.0
  0
VERTEX
  8
0
 10
3971.65077
 20
5964.90651
 30
0.0
  0
VERTEX
  8
0
 10
4001.12072
 20
5965.08256
 30
0.0
  0
VERTEX
  8
0
 10
4015.80868
 20
5981.26057
 30
0.0
  0
VERTEX
  8
0
 10
4007.87539
 20
6000.18449
 30
0.0
  0
SEQEND
  0
POLYLINE
  8
0
 66
1
 10
0.0
 20
0.0
 30
0.0
 70
8
  0
VERTEX
  8
0
 10
5007.96273
 20
6013.21346
 30
0.0
  0
VERTEX
  8
0
 10
4980.18482
 20
6037.52919
 30
0.0
  0
VERTEX
  8
0
 10
4959.48721
 20
6030.97747
 30
0.0
  0
VERTEX
  8
0
 10
4976.86554
 20
5979.34771
 30
0.0
  0
VERTEX
  8
0
 10
5001.2711
 20
5989.55739
 30
0.0
  0
VERTEX
  8
0
 10
5027.52508
 20
5996.96857
 30
0.0
  0
VERTEX
  8
0
 10
5007.96273
 20
6013.21346
 30
0.0
  0
SEQEND
  0
POLYLINE
  8
0
 66
1
 10
0.0
 20
0.0
 30
0.0
 70
8
  0
VERTEX
  8
0
 10
6041.89542
 20
6011.1897
 30
0.0
  0
VERTEX
  8
0
 10
6000.93027
 20
6017.21939
 30
0.0
  0
VERTEX
  8
0
 10
5974.88992
 20
6009.96096
 30
0.0
  0
VERTEX
  8
0
 10
5991.92191
 20
5991.29366
 30
0.0
  0
VERTEX
  8
0
 10
6003.0259
 20
5963.81899
 30
0.0
  0
VERTEX
  8
0
 10
6034.71359
 20
5967.2679
 30
0.0
  0
VERTEX
  8
0
 10
6041.89542
 20
6011.1897
 30
0.0
  0
SEQEND
  0
POLYLINE
  8
0
 66
1
 10
0.0
 20
0.0
 30
0.0
 70
8
  0
VERTEX
  8
0
 10
7014.12493
 20
6005.49863
 30
0.0
  0
VERTEX
  8
0
 10
6996.48799
 20
6008.01407
 30
0.0
  0
VERTEX
  8
0
 10
6978.67951
 20
6011.69766
 30
0.0
  0
VERTEX
  8
0
 10
6959.50007
 20
5965.19345
 30
0.0
  0
VERTEX
  8
0
 10
6997.44115
 20
5995.50841
 30
0.0
  0
VERTEX
  8
0
 10
7045.12836
 20
5997.88587
 30
0.0
  0
VERTEX
  8
0
 10
7014.12493
 20
6005.49863
 30
0.0
  0
SEQEND
  0
POLYLINE
  8
0
 66
1
 10
0.0
 20
0.0
 30
0.0
 70
8
  0
VERTEX
  8
0
 10
8005.28952
 20
6004.48549
 30
0.0
  0
VERTEX
  8
0
 10
8004.15997
 20
6016.92066
 30
0.0
  0
VERTEX
  8
0
 10
7966.83701
 20
6006.87018
 30
0.0
  0
VERTEX
  8
0
 10
7964.02547
 20
5978.34567
 30
0.0
  0
VERTEX
  8
0
 10
7986.65805
 20
5946.95787
 30
0.0
  0
VERTEX
  8
0
 10
8015.10493
 20
5987.32674
 30
0.0
  0
VERTEX
  8
0
 10
8005.28952
 20
6004.48549
 30
0.0
  0
SEQEND
  0
POLYLINE
  8
0
 66
1
 10
0.0
 20
0.0
 30
0.0
 70
8
  0
VERTEX
  8
0
 10
9017.40528
 20
6012.07388
 30
0.0
  0
VERTEX
  8
0
 10
8986.80173
 20
6035.87114
 30
0.0
  0
VERTEX
  8
0
 10
8956.0727
 20
6015.8696
 30
0.0
  0
VERTEX
  8
0
 10
8985.02312
 20
5986.23208
 30
0.0
  0
VERTEX
  8
0
 10
8996.30571
 20
5983.34134
 30
0.0
  0
VERTEX
  8
0
 10
9006.66632
 20
5993.29712
 30
0.0
  0
VERTEX
  8
0
 10
9017.40528
 20
6012.07388
 30
0.0
  0
SEQEND
  0
POLYLINE
  8
0
 66
1
 10
0.0
 20
0.0
 30
0.0
 70
8
  0
VERTEX
  8
0
 10
10015.27381
 20
6000.28047
 30
0.0
  0
VERTEX
  8
0
 10
10000.10327
 20
6005.46948
 30
0.0
  0
VERTEX
  8
0
 10
9986.58017
 20
6014.07382
 30
0.0
  0
VERTEX
  8
0
 10
9991.55621
 20
5998.69881
 30
0.0
  0
VERTEX
  8
0
 10
10016.18451
 20
5966.64309
 30
0.0
  0
VERTEX
  8
0
 10
10011.91906
 20
5997.38017
 30
0.0
  0
VERTEX
  8
0
 10
10015.27381
 20
6000.28047
 30
0.0
  0
SEQEND
  0
POLYLINE
  8
0
 66
1
 10
0.0
 20
0.0
 30
0.0
 70
8
  0
VERTEX
  8
0
 10
11039.4479
 20
6011.73322
 30
0.0
  0
VERTEX
  8
0
 10
11004.45596
 20
6021.63212
 30
0.0
  0
VERTEX
  8
0
 10
10956.52262
 20
6024.81108
 30
0.0
  0
VERTEX
  8
0
 10
10994.2645
 20
5996.13611
 30
0.0
  0
VERTEX
  8
0
 10
11005.4652
 20
5960.03668
 30
0.0
  0
VERTEX
  8
0
 10
11019.47987
 20
5985.20959
 30
0.0
  0
VERTEX
  8
0
 10
11039.4479
 20
6011.73322
 30
0.0
  0
SEQEND
  0
POLYLINE
  8
0
 66
1
 10
0.0
 20
0.0
 30
0.0
 70
8
  0
VERTEX
  8
0
 10
12033.5796
 20
6032.40654
 30
0.0
  0
VERTEX
  8
0
 10
12017.25004
 20
6036.03504
 30
0.0
  0
VERTEX
  8
0
 10
11992.51564
 20
6005.4674
 30
0.0
  0
VERTEX
  8
0
 10
11983.99099
 20
5986.70595
 30
0.0
  0
VERTEX
  8
0
 10
12002.10701
 20
5978.70324
 30
0.0
  0
VERTEX
  8
0
 10
12036.24086
 20
5998.73365
 30
0.0
  0
VERTEX
  8
0
 10
12033.5796
 20
6032.40654
 30
0.0
  0
SEQEND
  0
POLYLINE
  8
0
 66
1
 10
0.0
 20
0.0
 30
0.0
 70
8
  0
VERTEX
  8
0
 10
13024.50685
 20
6015.19796
 30
0.0
  0
VERTEX
  8
0
 10
13006.83042
 20
6017.48674
 30
0.0
  0
VERTEX
  8
0
 10
12973.24399
 20
6000.98298
 30
0.0
  0
VERTEX
  8
0
 10
12955.09403
 20
5999.49849
 30
0.0
  0
VERTEX
  8
0
 10
12981.05347
 20
5963.94941
 30
0.0
  0
VERTEX
  8
0
 10
13027.47214
 20
5985.2447
 30
0.0
  0
VERTEX
  8
0
 10
13024.50685
 20
6015.19796
 30
0.0
  0
SEQEND
  0
POLYLINE
  8
0
 66
1
 10
0.0
 20
0.0
 30
0.0
 70
8
  0
VERTEX
  8
0
 10
14043.53559
 20
6006.97478
 30
0.0
  0
VERTEX
  8
0
 10
13980.71403
 20
6050.76558
 30
0.0
  0
VERTEX
  8
0
 10
13969.59379
 20
6002.53534
 30
0.0
  0
VERTEX
  8
0
 10
13960.52168
 20
5985.1283
 30
0.0
  0
VERTEX
  8
0
 10
13981.22516
 20
5956.75941
 30
0.0
  0
VERTEX
  8
0
 10
14014.92339
 20
5990.42955
 30
0.0
  0
VERTEX
  8
0
 10
14043.53559
 20
6006.97478
 30
0.0
  0
SEQEND
  0
POLYLINE
  8
0
 66
1
 10
0.0
 20
0.0
 30
0.0
 70
8
  0
VERTEX
  8
0
 10
15005.40613
 20
6006.06489
 30
0.0
  0
VERTEX
  8
0
 10
14986.76598
 20
6038.39097
 30
0.0
  0
VERTEX
  8
0
 10
14960.70768
 20
6007.9435
 30
0.0
  0
VERTEX
  8
0
 10
14991.06356
 20
5993.21421
 30
0.0
  0
VERTEX
  8
0
 10
14994.80768
 20
5980.91838
 30
0.0
  0
VERTEX
  8
0
 10
15041.3942
 20
5992.90637
 30
0.0
  0
VERTEX
  8
0
 10
15005.40613
 20
6006.06489
 30
0.0
  0
SEQEND
  0
POLYLINE
  8
0
 66
1
 10
0.0
 20
0.0
 30
0.0
 70
8
  0
VERTEX
  8
0
 10
16008.921
 20
6008.93153
 30
0.0
  0
VERTEX
  8
0
 10
16008.25925
 20
6017.17899
 30
0.0
  0
VERTEX
  8
0
 10
15992.78555
 20
6002.82407
 30
0.0
  0
VERTEX
  8
0
 10
15955.52573
 20
5998.51908
 30
0.0
  0
VERTEX
  8
0
 10
16003.80734
 20
5973.79329
 30
0.0
  0
VERTEX
  8
0
 10
16009.62792
 20
5994.46097
 30
0.0
  0
VERTEX
  8
0
 10
16008.921
 20
6008.93153
 30
0.0
  0
SEQEND
  0
POLYLINE
  8
0
 66
1
 10
0.0
 20
0.0
 30
0.0
 70
8
  0
VERTEX
  8
0
 10
17010.26414
 20
6003.4195
 30
0.0
  0
VERTEX
  8
0
 10
17006.5669
 20
6011.96459
 30
0.0
  0
VERTEX
  8
0
 10
16991.80844
 20
6005.47383
 30
0.0
  0
VERTEX
  8
0
 10
16981.05896
 20
5979.96921
 30
0.0
  0
VERTEX
  8
0
 10
17001.03758
 20
5989.5489
 30
0.0
  0
VERTEX
  8
0
 10
17007.03924
 20
5994.85043
 30
0.0
  0
VERTEX
  8
0
 10
17010.26414
 20
6003.4195
 30
0.0
  0
SEQEND
  0
POLYLINE
  8
0
 66
1
 10
0.0
 20
0.0
 30
0.0
 70
8
  0
VERTEX
  8
0
 10
18047.969830000002
 20
6018.43913
 30
0.0
  0
VERTEX
  8
0
 10
18023.37826
 20
6047.22994
 30
0.0
  0
VERTEX
  8
0
 10
17980.937
 20
6029.39745
 30
0.0
  0
VERTEX
  8
0
 10
17991.62274
 20
5995.79435
 30
0.0
  0
VERTEX
  8
0
 10
17999.50471
 20
5945.26247
 30
0.0
  0
VERTEX
  8
0
 10
18035.73244
 20
5959.37888
 30
0.0
  0
VERTEX
  8
0
 10
18047.969830000002
 20
6018.43913
 30
0.0
  0
SEQEND
  0
POLYLINE
  8
0
 66
1
 10
0.0
 20
0.0
 30
0.0
 70
8
  0
VERTEX
  8
0
 10
19006.46788
 20
6004.6679
 30
0.0
  0
VERTEX
  8
0
 10
19016.2366
 20
6046.8839
 30
0.0
  0
VERTEX
  8
0
 10
18990.96807
 20
6000.26874
 30
0.0
  0
VERTEX
  8
0
 10
18985.19894
 20
5984.76017
 30
0.0
  0
VERTEX
  8
0
 10
18993.03107
 20
5980.47187
 30
0.0
  0
VERTEX
  8
0
 10
19027.43774
 20
5961.38959
 30
0.0
  0
VERTEX
  8
0
 10
19006.46788
 20
6004.6679
 30
0.0
  0
SEQEND
  0
POLYLINE
  8
0
 66
1
 10
0.0
 20
0.0
 30
0.0
 70
8
  0
VERTEX
  8
0
 10
20025.87273
 20
6008.65007
 30
0.0
  0
VERTEX
  8
0
 10
19998.24151
 20
6008.34019
 30
0.0
  0
VERTEX
  8
0
 10
19985.71279
 20
6011.92244
 30
0.0
  0
VERTEX
  8
0
 10
19980.75816
 20
5994.24503
 30
0.0
  0
VERTEX
  8
0
 10
19985.46893
 20
5971.4139
 30
0.0
  0
VERTEX
  8
0
 10
20028.05029
 20
5973.51484
 30
0.0
  0
VERTEX
  8
0
 10
20025.87273
 20
6008.65007
 30
0.0
  0
SEQEND
  0
POLYLINE
  8
0
 66
1
 10
0.0
 20
0.0
 30
0.0
 70
8
  0
VERTEX
  8
0
 10
21008.82058
 20
6006.69433
 30
0.0
  0
VERTEX
  8
0
 10
21005.29072
 20
6016.5155
 30
0.0
  0
VERTEX
  8
0
 10
20977.25594
 20
6036.48903
 30
0.0
  0
VERTEX
  8
0
 10
20989.57563
 20
5999.48508
 30
0.0
  0
VERTEX
  8
0
 10
21006.99694
 20
5947.7132
 30
0.0
  0
VERTEX
  8
0
 10
21005.15748
 20
5998.60506
 30
0.0
  0
VERTEX
  8
0
 10
21008.82058
 20
6006.69433
 30
0.0
  0
SEQEND
  0
POLYLINE
  8
0
 66
1
 10
0.0
 20
0.0
 30
0.0
 70
8
  0
VERTEX
  8
0
 10
22005.07538
 20
6008.16756
 30
0.0
  0
VERTEX
  8
0
 10
22002.13144
 20
6013.60506
 30
0.0
  0
VERTEX
  8
0
 10
21956.0119
 20
6007.50383
 30
0.0
  0
VERTEX
  8
0
 10
21980.19923
 20
5999.38114
 30
0.0
  0
VERTEX
  8
0
 10
22008.04665
 20
5967.91342
 30
0.0
  0
VERTEX
  8
0
 10
22021.12179
 20
5989.24249
 30
0.0
  0
VERTEX
  8
0
 10
22005.07538
 20
6008.16756
 30
0.0
  0
SEQEND
  0
POLYLINE
  8
0
 66
1
 10
0.0
 20
0.0
 30
0.0
 70
8
  0
VERTEX
  8
0
 10
23006.47277
 20
6007.60157
 30
0.0
  0
VERTEX
  8
0
 10
23002.85913
 20
6006.3857
 30
0.0
  0
VERTEX
  8
0
 10
22984.94537
 20
6020.53793
 30
0.0
  0
VERTEX
  8
0
 10
22988.32359
 20
5998.59003
 30
0.0
  0
VERTEX
  8
0
 10
22994.09985
 20
5989.25005
 30
0.0
  0
VERTEX
  8
0
 10
23036.2343
 20
5983.31006
 30
0.0
  0
VERTEX
  8
0
 10
23006.47277
 20
6007.60157
 30
0.0
  0
SEQEND
  0
POLYLINE
  8
0
 66
1
 10
0.0
 20
0.0
 30
0.0
 70
8
  0
VERTEX
  8
0
 10
24037.31377
 20
6011.86461
 30
0.0
  0
VERTEX
  8
0
 10
23999.62829
 20
6007.38394
 30
0.0
  0
VERTEX
  8
0
 10
23955.55498
 20
6011.56452
 30
0.0
  0
VERTEX
  8
0
 10
23977.3192
 20
5971.83161
 30
0.0
  0
VERTEX
  8
0
 10
23998.88097
 20
5991.1396
 30
0.0
  0
VERTEX
  8
0
 10
24015.52187
 20
5973.80387
 30
0.0
  0
VERTEX
  8
0
 10
24037.31377
 20
6011.86461
 30
0.0
  0
SEQEND
  0
POLYLINE
  8
0
 66
1
 10
0.0
 20
0.0
 30
0.0
 70
8
  0
VERTEX
  8
0
 10
25033.3472
 20
6020.87569
 30
0.0
  0
VERTEX
  8
0
 10
25010.32237
 20
6019.60042
 30
0.0
  0
VERTEX
  8
0
 10
24995.91641
 20
6004.34787
 30
0.0
  0
VERTEX
  8
0
 10
24963.91948
 20
5959.03272
 30
0.0
  0
VERTEX
  8
0
 10
24986.69709
 20
5962.25183
 30
0.0
  0
VERTEX
  8
0
 10
25011.60813
 20
5987.77268
 30
0.0
  0
VERTEX
  8
0
 10
25033.3472
 20
6020.87569
 30
0.0
  0
SEQEND
  0
POLYLINE
  8
0
 66
1
 10
0.0
 20
0.0
 30
0.0
 70
8
  0
VERTEX
  8
0
 10
26017.19906
 20
6005.98804
 30
0.0
  0
VERTEX
  8
0
 10
25979.98355
 20
6046.73261
 30
0.0
  0
VERTEX
  8
0
 10
25993.39194
 20
6002.96886
 30
0.0
  0
VERTEX
  8
0
 10
25987.45814
 20
5991.0712
 30
0.0
  0
VERTEX
  8
0
 10
25991.50583
 20
5973.7095
 30
0.0
  0
VERTEX
  8
0
 10
26032.60673
 20
5963.53036
 30
0.0
  0
VERTEX
  8
0
 10
26017.19906
 20
6005.98804
 30
0.0
  0
SEQEND
  0
POLYLINE
  8
0
 66
1
 10
0.0
 20
0.0
 30
0.0
 70
8
  0
VERTEX
  8
0
 10
27017.39875
 20
6003.94159
 30
0.0
  0
VERTEX
  8
0
 10
26989.89841
 20
6039.66577
 30
0.0
  0
VERTEX
  8
0
 10
26985.42734
 20
6017.45888
 30
0.0
  0
VERTEX
  8
0
 10
26967.70467
 20
5963.53267
 30
0.0
  0
VERTEX
  8
0
 10
26995.96788
 20
5969.1058
 30
0.0
  0
VERTEX
  8
0
 10
27028.30596
 20
5979.98521
 30
0.0
  0
VERTEX
  8
0
 10
27017.39875
 20
6003.94159
 30
0.0
  0
SEQEND
  0
POLYLINE
  8
0
 66
1
 10
0.0
 20
0.0
 30
0.0
 70
8
  0
VERTEX
  8
0
 10
28012.85761
 20
6005.58621
 30
0.0
  0
VERTEX
  8
0
 10
27998.88323
 20
6031.30095
 30
0.0
  0
VERTEX
  8
0
 10
27971.26849
 20
6006.00723
 30
0.0
  0
VERTEX
  8
0
 10
27982.97248
 20
5996.86083
 30
0.0
  0
VERTEX
  8
0
 10
28005.13765
 20
5965.94472
 30
0.0
  0
VERTEX
  8
0
 10
28017.6066
 20
5985.67714
 30
0.0
  0
VERTEX
  8
0
 10
28012.85761
 20
6005.58621
 30
0.0
  0
SEQEND
  0
POLYLINE
  8
0
 66
1
 10
0.0
 20
0.0
 30
0.0
 70
8
  0
VERTEX
  8
0
 10
29021.78029
 20
6002.00686
 30
0.0
  0
VERTEX
  8
0
 10
29002.69018
 20
6023.80253
 30
0.0
  0
VERTEX
  8
0
 10
28959.57898
 20
6007.59681
 30
0.0
  0
VERTEX
  8
0
 10
28986.09733
 20
5993.67268
 30
0.0
  0
VERTEX
  8
0
 10
29009.35293
 20
5974.77297
 30
0.0
  0
VERTEX
  8
0
 10
29029.93978
 20
5996.24666
 30
0.0
  0
VERTEX
  8
0
 10
29021.78029
 20
6002.00686
 30
0.0
  0
SEQEND
  0
POLYLINE
  8
0
 66
1
 10
0.0
 20
0.0
 30
0.0
 70
8
  0
VERTEX
  8
0
 10
30053.63118
 20
6010.70363
 30
0.0
  0
VERTEX
  8
0
 10
29995.02702
 20
6009.29487
 30
0.0
  0
VERTEX
  8
0
 10
29985.03392
 20
6020.35386
 30
0.0
  0
VERTEX
  8
0
 10
29956.9302
 20
5969.92062
 30
0.0
  0
VERTEX
  8
0
 10
29991.22724
 20
5966.61273
 30
0.0
  0
VERTEX
  8
0
 10
30015.51756
 20
5973.34653
 30
0.0
  0
VERTEX
  8
0
 10
30053.63118
 20
6010.70363
 30
0.0
  0
SEQEND
  0
POLYLINE
  8
0
 66
1
 10
0.0
 20
0.0
 30
0.0
 70
8
  0
VERTEX
  8
0
 10
31036.50626
 20
6013.22549
 30
0.0
  0
VERTEX
  8
0
 10
31007.40971
 20
6028.23629
 30
0.0
  0
VERTEX
  8
0
 10
30966.9408
 20
6025.44353
 30
0.0
  0
VERTEX
  8
0
 10
30994.59654
 20
5994.50862
 30
0.0
  0
VERTEX
  8
0
 10
30995.60889
 20
5976.49343
 30
0.0
  0
VERTEX
  8
0
 10
31016.82537
 20
5979.62495
 30
0.0
  0
VERTEX
  8
0
 10
31036.50626
 20
6013.22549
 30
0.0
  0
SEQEND
  0
POLYLINE
  8
0
 66
1
 10
0.0
 20
0.0
 30
0.0
 70
8
  0
VERTEX
  8
0
 10
32023.28091
 20
6001.37863
 30
0.0
  0
VERTEX
  8
0
 10
31997.39663
 20
6006.20221
 30
0.0
  0
VERTEX
  8
0
 10
31975.36472
 20
6017.04951
 30
0.0
  0
VERTEX
  8
0
 10
31992.17221
 20
5987.45858
 30
0.0
  0
VERTEX
  8
0
 10
31999.04397
 20
5992.33953
 30
0.0
  0
VERTEX
  8
0
 10
32041.57667
 20
5986.68146
 30
0.0
  0
VERTEX
  8
0
 10
32023.28091
 20
6001.37863
 30
0.0
  0
SEQEND
  0
POLYLINE
  8
0
 66
1
 10
0.0
 20
0.0
 30
0.0
 70
8
  0
VERTEX
  8
0
 10
33003.18638
 20
6005.0343
 30
0.0
  0
VERTEX
  8
0
 10
32984.99505
 20
6028.37061
 30
0.0
  0
VERTEX
  8
0
 10
32979.55577
 20
6001.78684
 30
0.0
  0
VERTEX
  8
0
 10
32985.35702
 20
5987.72301
 30
0.0
  0
VERTEX
  8
0
 10
33001.86433
 20
5977.47184
 30
0.0
  0
VERTEX
  8
0
 10
33024.95771
 20
5970.73459
 30
0.0
  0
VERTEX
  8
0
 10
33003.18638
 20
6005.0343
 30
0.0
  0
SEQEND
  0
POLYLINE
  8
0
 66
1
 10
0.0
 20
0.0
 30
0.0
 70
8
  0
VERTEX
  8
0
 10
34019.10499
 20
6013.87559
 30
0.0
  0
VERTEX
  8
0
 10
34002.67724
 20
6014.15142
 30
0.0
  0
VERTEX
  8
0
 10
33991.46686
 20
6009.09177
 30
0.0
  0
VERTEX
  8
0
 10
33957.74174
 20
5974.30483
 30
0.0
  0
VERTEX
  8
0
 10
33974.59443
 20
5954.43831
 30
0.0
  0
VERTEX
  8
0
 10
34016.86503
 20
5988.44777
 30
0.0
  0
VERTEX
  8
0
 10
34019.10499
 20
6013.87559
 30
0.0
  0
SEQEND
  0
POLYLINE
  8
0
 66
1
 10
0.0
 20
0.0
 30
0.0
 70
8
  0
VERTEX
  8
0
 10
35040.0177
 20
6006.24887
 30
0.0
  0
VERTEX
  8
0
 10
35004.29822
 20
6019.56821
 30
0.0
  0
VERTEX
  8
0
 10
34983.12536
 20
6003.54057
 30
0.0
  0
VERTEX
  8
0
 10
34965.5713
 20
5981.96626
 30
0.0
  0
VERTEX
  8
0
 10
35001.40293
 20
5986.19423
 30
0.0
  0
VERTEX
  8
0
 10
35036.03586
 20
5966.64771
 30
0.0
  0
VERTEX
  8
0
 10
35040.0177
 20
6006.24887
 30
0.0
  0
SEQEND
  0
POLYLINE
  8
0
 66
1
 10
0.0
 20
0.0
 30
0.0
 70
8
  0
VERTEX
  8
0
 10
36018.50371
 20
6000.90025
 30
0.0
  0
VERTEX
  8
0
 10
36020.59388
 20
6040.16885
 30
0.0
  0
VERTEX
  8
0
 10
35973.79203
 20
6026.45043
 30
0.0
  0
VERTEX
  8
0
 10
35967.84339
 20
5967.01666
 30
0.0
  0
VERTEX
  8
0
 10
35975.68293
 20
5951.65513
 30
0.0
  0
VERTEX
  8
0
 10
36037.12816
 20
5971.07415
 30
0.0
  0
VERTEX
  8
0
 10
36018.50371
 20
6000.90025
 30
0.0
  0
SEQEND
  0
POLYLINE
  8
0
 66
1
 10
0.0
 20
0.0
 30
0.0
 70
8
  0
VERTEX
  8
0
 10
37040.33444
 20
6023.84981
 30
0.0
  0
VERTEX
  8
0
 10
37004.98186
 20
6016.07295
 30
0.0
  0
VERTEX
  8
0
 10
36957.38264
 20
6019.74022
 30
0.0
  0
VERTEX
  8
0
 10
36981.45211
 20
5994.96213
 30
0.0
  0
VERTEX
  8
0
 10
37006.94165
 20
5945.47593
 30
0.0
  0
VERTEX
  8
0
 10
37006.18796
 20
5995.92098
 30
0.0
  0
VERTEX
  8
0
 10
37040.33444
 20
6023.84981
 30
0.0
  0
SEQEND
  0
POLYLINE
  8
0
 66
1
 10
0.0
 20
0.0
 30
0.0
 70
8
  0
VERTEX
  8
0
 10
38026.68311
 20
6007.23394
 30
0.0
  0
VERTEX
  8
0
 10
38000.08504
 20
6006.74594
 30
0.0
  0
VERTEX
  8
0
 10
37975.21037
 20
6006.19607
 30
0.0
  0
VERTEX
  8
0
 10
37977.53922
 20
5969.68711
 30
0.0
  0
VERTEX
  8
0
 10
38004.05334
 20
5953.62218
 30
0.0
  0
VERTEX
  8
0
 10
38013.61355
 20
5985.5615
 30
0.0
  0
VERTEX
  8
0
 10
38026.68311
 20
6007.23394
 30
0.0
  0
SEQEND
  0
POLYLINE
  8
0
 66
1
 10
0.0
 20
0.0
 30
0.0
 70
8
  0
VERTEX
  8
0
 10
39027.51886
 20
6005.9845
 30
0.0
  0
VERTEX
  8
0
 10
39010.16498
 20
6046.9419
 30
0.0
  0
VERTEX
  8
0
 10
38985.0385
 20
6006.00915
 30
0.0
  0
VERTEX
  8
0
 10
38992.2934
 20
5999.00948
 30
0.0
  0
VERTEX
  8
0
 10
39000.74006
 20
5947.23422
 30
0.0
  0
VERTEX
  8
0
 10
39008.21601
 20
5993.11528
 30
0.0
  0
VERTEX
  8
0
 10
39027.51886
 20
6005.9845
 30
0.0
  0
SEQEND
  0
POLYLINE
  8
0
 66
1
 10
0.0
 20
0.0
 30
0.0
 70
8
  0
VERTEX
  8
0
 10
40003.76368
 20
6004.52246
 30
0.0
  0
VERTEX
  8
0
 10
39994.91057
 20
6013.02096
 30
0.0
  0
VERTEX
  8
0
 10
39985.39365
 20
6012.79972
 30
0.0
  0
VERTEX
  8
0
 10
39991.55312
 20
5986.47225
 30
0.0
  0
VERTEX
  8
0
 10
40006.33876
 20
5947.93002
 30
0.0
  0
VERTEX
  8
0
 10
40014.83187
 20
5996.67083
 30
0.0
  0
VERTEX
  8
0
 10
40003.76368
 20
6004.52246
 30
0.0
  0
SEQEND
  0
POLYLINE
  8
0
 66
1
 10
0.0
 20
0.0
 30
0.0
 70
8
  0
VERTEX
  8
0
 10
41023.7221
 20
6036.07759
 30
0.0
  0
VERTEX
  8
0
 10
41011.89313
 20
6026.34658
 30
0.0
  0
VERTEX
  8
0
 10
40946.5808
 20
6009.80871
 30
0.0
  0
VERTEX
  8
0
 10
40990.16042
 20
5993.44048
 30
0.0
  0
VERTEX
  8
0
 10
41000.16271
 20
5968.4126
 30
0.0
  0
VERTEX
  8
0
 10
41049.45086
 20
5984.10959
 30
0.0
  0
VERTEX
  8
0
 10
41023.7221
 20
6036.07759
 30
0.0
  0
SEQEND
  0
POLYLINE
  8
0
 66
1
 10
0.0
 20
0.0
 30
0.0
 70
8
  0
VERTEX
  8
0
 10
42011.78841
 20
6010.26709
 30
0.0
  0
VERTEX
  8
0
 10
42000.46961
 20
6009.94259
 30
0.0
  0
VERTEX
  8
0
 10
41982.34533
 20
6027.87238
 30
0.0
  0
VERTEX
  8
0
 10
41972.5016
 20
5995.15165
 30
0.0
  0
VERTEX
  8
0
 10
42005.03039
 20
5977.06666
 30
0.0
  0
VERTEX
  8
0
 10
42025.47698
 20
5995.87375
 30
0.0
  0
VERTEX
  8
0
 10
42011.78841
 20
6010.26709
 30
0.0
  0
SEQEND
  0
POLYLINE
  8
0
 66
1
 10
0.0
 20
0.0
 30
0.0
 70
8
  0
VERTEX
  8
0
 10
43033.58568
 20
6004.4002
 30
0.0
  0
VERTEX
  8
0
 10
43000.43466
 20
6019.78086
 30
0.0
  0
VERTEX
  8
0
 10
42973.18218
 20
6028.34731
 30
0.0
  0
VERTEX
  8
0
 10
42964.98956
 20
5983.03954
 30
0.0
  0
VERTEX
  8
0
 10
43004.91181
 20
5950.74002
 30
0.0
  0
VERTEX
  8
0
 10
43020.24348
 20
5985.08959
 30
0.0
  0
VERTEX
  8
0
 10
43033.58568
 20
6004.4002
 30
0.0
  0
SEQEND
  0
POLYLINE
  8
0
 66
1
 10
0.0
 20
0.0
 30
0.0
 70
8
  0
VERTEX
  8
0
 10
44005.60325
 20
6001.04783
 30
0.0
  0
VERTEX
  8
0
 10
43987.9651
 20
6051.31247
 30
0.0
  0
VERTEX
  8
0
 10
43958.27609
 20
6015.89322
 30
0.0
  0
VERTEX
  8
0
 10
43994.40029
 20
5997.44329
 30
0.0
  0
VERTEX
  8
0
 10
44001.71032
 20
5983.53158
 30
0.0
  0
VERTEX
  8
0
 10
44029.20457
 20
5999.17804
 30
0.0
  0
VERTEX
  8
0
 10
44005.60325
 20
6001.04783
 30
0.0
  0
SEQEND
  0
POLYLINE
  8
0
 66
1
 10
0.0
 20
0.0
 30
0.0
 70
8
  0
VERTEX
  8
0
 10
45018.92162
 20
6016.00774
 30
0.0
  0
VERTEX
  8
0
 10
45018.12071
 20
6048.72752
 30
0.0
  0
VERTEX
  8
0
 10
44979.03129
 20
6017.90615
 30
0.0
  0
VERTEX
  8
0
 10
44983.56861
 20
5991.36803
 30
0.0
  0
VERTEX
  8
0
 10
44988.52993
 20
5960.89034
 30
0.0
  0
VERTEX
  8
0
 10
45037.34923
 20
5962.72121
 30
0.0
  0
VERTEX
  8
0
 10
45018.92162
 20
6016.00774
 30
0.0
  0
SEQEND
  0
POLYLINE
  8
0
 66
1
 10
0.0
 20
0.0
 30
0.0
 70
8
  0
VERTEX
  8
0
 10
46010.43187
 20
6003.71076
 30
0.0
  0
VERTEX
  8
0
 10
46000.08131
 20
6015.78462
 30
0.0
  0
VERTEX
  8
0
 10
45967.73607
 20
6041.27033
 30
0.0
  0
VERTEX
  8
0
 10
45954.86779
 20
5997.53754
 30
0.0
  0
VERTEX
  8
0
 10
45986.06462
 20
5973.0637
 30
0.0
  0
VERTEX
  8
0
 10
46030.32238
 20
5978.22462
 30
0.0
  0
VERTEX
  8
0
 10
46010.43187
 20
6003.71076
 30
0.0
  0
SEQEND
  0
POLYLINE
  8
0
 66
1
 10
0.0
 20
0.0
 30
0.0
 70
8
  0
VERTEX
  8
0
 10
47035.14207
 20
6037.05471
 30
0.0
  0
VERTEX
  8
0
 10
46996.30153
 20
6028.53354
 30
0.0
  0
VERTEX
  8
0
 10
46951.12883
 20
6004.89769
 30
0.0
  0
VERTEX
  8
0
 10
46965.25555
 20
5982.76682
 30
0.0
  0
VERTEX
  8
0
 10
46992.5447
 20
5967.64775
 30
0.0
  0
VERTEX
  8
0
 10
47052.35567
 20
5983.24378
 30
0.0
  0
VERTEX
  8
0
 10
47035.14207
 20
6037.05471
 30
0.0
  0
SEQEND
  0
POLYLINE
  8
0
 66
1
 10
0.0
 20
0.0
 30
0.0
 70
8
  0
VERTEX
  8
0
 10
48039.8848
 20
6007.26595
 30
0.0
  0
VERTEX
  8
0
 10
47984.92481
 20
6046.87003
 30
0.0
  0
VERTEX
  8
0
 10
47994.56888
 20
6001.95095
 30
0.0
  0
VERTEX
  8
0
 10
47995.7046
 20
5996.33028
 30
0.0
  0
VERTEX
  8
0
 10
48012.53654
 20
5959.17427
 30
0.0
  0
VERTEX
  8
0
 10
48020.19919
 20
5990.8128
 30
0.0
  0
VERTEX
  8
0
 10
48039.8848
 20
6007.26595
 30
0.0
  0
SEQEND
  0
POLYLINE
  8
0
 66
1
 10
0.0
 20
0.0
 30
0.0
 70
8
  0
VERTEX
  8
0
 10
4.40598
 20
6003.07714
 30
0.0
  0
VERTEX
  8
0
 10
14.497720000000001
 20
6047.46276
 30
0.0
  0
VERTEX
  8
0
 10
-14.61852
 20
6001.30579
 30
0.0
  0
VERTEX
  8
0
 10
-38.0488
 20
5976.32143
 30
0.0
  0
VERTEX
  8
0
 10
6.29494
 20
5980.11565
 30
0.0
  0
VERTEX
  8
0
 10
6.33454
 20
5995.36392
 30
0.0
  0
VERTEX
  8
0
 10
4.40598
 20
6003.07714
 30
0.0
  0
SEQEND
  0
POLYLINE
  8
0
 66
1
 10
0.0
 20
0.0
 30
0.0
 70
8
  0
VERTEX
  8
0
 10
1013.19536
 20
7005.93237
 30
0.0
  0
VERTEX
  8
0
 10
987.67815
 20
7033.18792
 30
0.0
  0
VERTEX
  8
0
 10
959.56658
 20
7002.00855
 30
0.0
  0
VERTEX
  8
0
 10
970.04621
 20
6999.0535
 30
0.0
  0
VERTEX
  8
0
 10
981.57988
 20
6949.12755
 30
0.0
  0
VERTEX
  8
0
 10
1033.08848
 20
6984.71123
 30
0.0
  0
VERTEX
  8
0
 10
1013.19536
 20
7005.93237
 30
0.0
  0
SEQEND
  0
POLYLINE
  8
0
 66
1
 10
0.0
 20
0.0
 30
0.0
 70
8
  0
VERTEX
  8
0
 10
2021.33036
 20
7021.33567
 30
0.0
  0
VERTEX
  8
0
 10
1988.32027
 20
7050.14511
 30
0.0
  0
VERTEX
  8
0
 10
1990.01745
 20
7005.58852
 30
0.0
  0
VERTEX
  8
0
 10
1976.69955
 20
6996.60253
 30
0.0
  0
VERTEX
  8
0
 10
2005.95557
 20
6970.83698
 30
0.0
  0
VERTEX
  8
0
 10
2031.22873
 20
6971.32343
 30
0.0
  0
VERTEX
  8
0
 10
2021.33036
 20
7021.33567
 30
0.0
  0
SEQEND
  0
POLYLINE
  8
0
 66
1
 10
0.0
 20
0.0
 30
0.0
 70
8
  0
VERTEX
  8
0
 10
3029.58347
 20
7001.52231
 30
0.0
  0
VERTEX
  8
0
 10
2991.13221
 20
7022.53141
 30
0.0
  0
VERTEX
  8
0
 10
2963.72719
 20
7015.80016
 30
0.0
  0
VERTEX
  8
0
 10
2964.37828
 20
6981.08823
 30
0.0
  0
VERTEX
  8
0
 10
3001.04253
 20
6994.07016
 30
0.0
  0
VERTEX
  8
0
 10
3044.2026299999998
 20
6985.40606
 30
0.0
  0
VERTEX
  8
0
 10
3029.58347
 20
7001.52231
 30
0.0
  0
SEQEND
  0
POLYLINE
  8
0
 66
1
 10
0.0
 20
0.0
 30
0.0
 70
8
  0
VERTEX
  8
0
 10
4018.18214
 20
7002.79782
 30
0.0
  0
VERTEX
  8
0
 10
3993.648
 20
7053.90475
 30
0.0
  0
VERTEX
  8
0
 10
3989.81648
 20
7013.99312
 30
0.0
  0
VERTEX
  8
0
 10
3987.73599
 20
6985.97063
 30
0.0
  0
VERTEX
  8
0
 10
4001.43453
 20
6971.01133
 30
0.0
  0
VERTEX
  8
0
 10
4010.36042
 20
6986.90266
 30
0.0
  0
VERTEX
  8
0
 10
4018.18214
 20
7002.79782
 30
0.0
  0
SEQEND
  0
POLYLINE
  8
0
 66
1
 10
0.0
 20
0.0
 30
0.0
 70
8
  0
VERTEX
  8
0
 10
5015.85805
 20
7005.61492
 30
0.0
  0
VERTEX
  8
0
 10
5004.20949
 20
7041.79402
 30
0.0
  0
VERTEX
  8
0
 10
4956.57349
 20
7014.36467
 30
0.0
  0
VERTEX
  8
0
 10
4964.26753
 20
6959.37869
 30
0.0
  0
VERTEX
  8
0
 10
4984.97201
 20
6970.12332
 30
0.0
  0
VERTEX
  8
0
 10
5035.15495
 20
6977.74751
 30
0.0
  0
VERTEX
  8
0
 10
5015.85805
 20
7005.61492
 30
0.0
  0
SEQEND
  0
POLYLINE
  8
0
 66
1
 10
0.0
 20
0.0
 30
0.0
 70
8
  0
VERTEX
  8
0
 10
6026.26222
 20
7006.406
 30
0.0
  0
VERTEX
  8
0
 10
6012.94717
 20
7052.82063
 30
0.0
  0
VERTEX
  8
0
 10
5952.89363
 20
7021.52199
 30
0.0
  0
VERTEX
  8
0
 10
5948.61697
 20
6989.92733
 30
0.0
  0
VERTEX
  8
0
 10
5998.50341
 20
6993.69614
 30
0.0
  0
VERTEX
  8
0
 10
6018.56517
 20
6999.04588
 30
0.0
  0
VERTEX
  8
0
 10
6026.26222
 20
7006.406
 30
0.0
  0
SEQEND
  0
POLYLINE
  8
0
 66
1
 10
0.0
 20
0.0
 30
0.0
 70
8
  0
VERTEX
  8
0
 10
7050.63337
 20
7017.86299
 30
0.0
  0
VERTEX
  8
0
 10
7012.83891
 20
7044.25613
 30
0.0
  0
VERTEX
  8
0
 10
6981.39858
 20
7002.47003
 30
0.0
  0
VERTEX
  8
0
 10
6987.31521
 20
6988.06078
 30
0.0
  0
VERTEX
  8
0
 10
7004.98435
 20
6989.45833
 30
0.0
  0
VERTEX
  8
0
 10
7042.59311
 20
6974.52198
 30
0.0
  0
VERTEX
  8
0
 10
7050.63337
 20
7017.86299
 30
0.0
  0
SEQEND
  0
POLYLINE
  8
0
 66
1
 10
0.0
 20
0.0
 30
0.0
 70
8
  0
VERTEX
  8
0
 10
8028.77738
 20
7012.51796
 30
0.0
  0
VERTEX
  8
0
 10
8007.53902
 20
7029.0518
 30
0.0
  0
VERTEX
  8
0
 10
7975.55824
 20
7015.37842
 30
0.0
  0
VERTEX
  8
0
 10
7961.84047
 20
6969.89822
 30
0.0
  0
VERTEX
  8
0
 10
7999.40411
 20
6963.78569
 30
0.0
  0
VERTEX
  8
0
 10
8039.35915
 20
6975.36172
 30
0.0
  0
VERTEX
  8
0
 10
8028.77738
 20
7012.51796
 30
0.0
  0
SEQEND
  0
POLYLINE
  8
0
 66
1
 10
0.0
 20
0.0
 30
0.0
 70
8
  0
VERTEX
  8
0
 10
9039.20327
 20
7021.47578
 30
0.0
  0
VERTEX
  8
0
 10
8998.53627
 20
7007.15466
 30
0.0
  0
VERTEX
  8
0
 10
8986.05873
 20
7001.28285
 30
0.0
  0
VERTEX
  8
0
 10
8995.17163
 20
6995.72121
 30
0.0
  0
VERTEX
  8
0
 10
9010.31362
 20
6973.20517
 30
0.0
  0
VERTEX
  8
0
 10
9039.18468
 20
6990.08087
 30
0.0
  0
VERTEX
  8
0
 10
9039.20327
 20
7021.47578
 30
0.0
  0
SEQEND
  0
POLYLINE
  8
0
 66
1
 10
0.0
 20
0.0
 30
0.0
 70
8
  0
VERTEX
  8
0
 10
10024.3223
 20
7014.12097
 30
0.0
  0
VERTEX
  8
0
 10
10016.37614
 20
7045.27818
 30
0.0
  0
VERTEX
  8
0
 10
9970.73768
 20
7013.4767
 30
0.0
  0
VERTEX
  8
0
 10
9986.8047
 20
6997.79897
 30
0.0
  0
VERTEX
  8
0
 10
9997.92387
 20
6991.49875
 30
0.0
  0
VERTEX
  8
0
 10
10019.35676
 20
6972.54154
 30
0.0
  0
VERTEX
  8
0
 10
10024.3223
 20
7014.12097
 30
0.0
  0
SEQEND
  0
POLYLINE
  8
0
 66
1
 10
0.0
 20
0.0
 30
0.0
 70
8
  0
VERTEX
  8
0
 10
11016.41919
 20
7014.19622
 30
0.0
  0
VERTEX
  8
0
 10
11002.55304
 20
7007.66069
 30
0.0
  0
VERTEX
  8
0
 10
10978.91676
 20
7034.32688
 30
0.0
  0
VERTEX
  8
0
 10
10994.51731
 20
6999.20088
 30
0.0
  0
VERTEX
  8
0
 10
10992.90575
 20
6945.64637
 30
0.0
  0
VERTEX
  8
0
 10
11017.85024
 20
6997.3022
 30
0.0
  0
VERTEX
  8
0
 10
11016.41919
 20
7014.19622
 30
0.0
  0
SEQEND
  0
POLYLINE
  8
0
 66
1
 10
0.0
 20
0.0
 30
0.0
 70
8
  0
VERTEX
  8
0
 10
12017.52092
 20
7007.50847
 30
0.0
  0
VERTEX
  8
0
 10
11998.93866
 20
7034.69473
 30
0.0
  0
VERTEX
  8
0
 10
11981.53415
 20
7026.98405
 30
0.0
  0
VERTEX
  8
0
 10
11968.01615
 20
6978.95313
 30
0.0
  0
VERTEX
  8
0
 10
11999.25932
 20
6947.65162
 30
0.0
  0
VERTEX
  8
0
 10
12041.6698
 20
6975.41841
 30
0.0
  0
VERTEX
  8
0
 10
12017.52092
 20
7007.50847
 30
0.0
  0
SEQEND
  0
POLYLINE
  8
0
 66
1
 10
0.0
 20
0.0
 30
0.0
 70
8
  0
VERTEX
  8
0
 10
13016.09334
 20
7003.82458
 30
0.0
  0
VERTEX
  8
0
 10
13002.08954
 20
7014.47116
 30
0.0
  0
VERTEX
  8
0
 10
12977.76767
 20
7030.6923
 30
0.0
  0
VERTEX
  8
0
 10
12969.6227
 20
6997.97993
 30
0.0
  0
VERTEX
  8
0
 10
12995.20655
 20
6989.75403
 30
0.0
  0
VERTEX
  8
0
 10
13042.89237
 20
6997.05702
 30
0.0
  0
VERTEX
  8
0
 10
13016.09334
 20
7003.82458
 30
0.0
  0
SEQEND
  0
POLYLINE
  8
0
 66
1
 10
0.0
 20
0.0
 30
0.0
 70
8
  0
VERTEX
  8
0
 10
14015.19059
 20
7018.72791
 30
0.0
  0
VERTEX
  8
0
 10
13993.17138
 20
7022.01055
 30
0.0
  0
VERTEX
  8
0
 10
13993.38117
 20
7010.78361
 30
0.0
  0
VERTEX
  8
0
 10
13986.49722
 20
6996.21876
 30
0.0
  0
VERTEX
  8
0
 10
13979.59915
 20
6956.12366
 30
0.0
  0
VERTEX
  8
0
 10
14007.5798
 20
6988.08604
 30
0.0
  0
VERTEX
  8
0
 10
14015.19059
 20
7018.72791
 30
0.0
  0
SEQEND
  0
POLYLINE
  8
0
 66
1
 10
0.0
 20
0.0
 30
0.0
 70
8
  0
VERTEX
  8
0
 10
15050.19368
 20
7000.04837
 30
0.0
  0
VERTEX
  8
0
 10
15008.58785
 20
7027.85611
 30
0.0
  0
VERTEX
  8
0
 10
14984.74293
 20
7015.32806
 30
0.0
  0
VERTEX
  8
0
 10
14992.80462
 20
6993.13847
 30
0.0
  0
VERTEX
  8
0
 10
14996.58554
 20
6982.91395
 30
0.0
  0
VERTEX
  8
0
 10
15008.41118
 20
6986.78875
 30
0.0
  0
VERTEX
  8
0
 10
15050.19368
 20
7000.04837
 30
0.0
  0
SEQEND
  0
POLYLINE
  8
0
 66
1
 10
0.0
 20
0.0
 30
0.0
 70
8
  0
VERTEX
  8
0
 10
16030.44251
 20
7013.70224
 30
0.0
  0
VERTEX
  8
0
 10
16004.09795
 20
7012.72811
 30
0.0
  0
VERTEX
  8
0
 10
15960.2729
 20
7027.21236
 30
0.0
  0
VERTEX
  8
0
 10
15980.47386
 20
6998.94875
 30
0.0
  0
VERTEX
  8
0
 10
15993.61735
 20
6968.35243
 30
0.0
  0
VERTEX
  8
0
 10
16029.04021
 20
6981.8122299999995
 30
0.0
  0
VERTEX
  8
0
 10
16030.44251
 20
7013.70224
 30
0.0
  0
SEQEND
  0
POLYLINE
  8
0
 66
1
 10
0.0
 20
0.0
 30
0.0
 70
8
  0
VERTEX
  8
0
 10
17020.26896
 20
7004.84092
 30
0.0
  0
VERTEX
  8
0
 10
17002.53432
 20
7010.31487
 30
0.0
  0
VERTEX
  8
0
 10
16993.42139
 20
7005.95002
 30
0.0
  0
VERTEX
  8
0
 10
16968.55224
 20
6977.55769
 30
0.0
  0
VERTEX
  8
0
 10
17019.96822
 20
6953.4328
 30
0.0
  0
VERTEX
  8
0
 10
17038.13195
 20
6997.25594
 30
0.0
  0
VERTEX
  8
0
 10
17020.26896
 20
7004.84092
 30
0.0
  0
SEQEND
  0
POLYLINE
  8
0
 66
1
 10
0.0
 20
0.0
 30
0.0
 70
8
  0
VERTEX
  8
0
 10
18003.42602
 20
7004.07835
 30
0.0
  0
VERTEX
  8
0
 10
17995.81015
 20
7043.59572
 30
0.0
  0
VERTEX
  8
0
 10
17984.25679
 20
7019.56114
 30
0.0
  0
VERTEX
  8
0
 10
17962.13268
 20
6994.43727
 30
0.0
  0
VERTEX
  8
0
 10
17984.02848
 20
6958.20339
 30
0.0
  0
VERTEX
  8
0
 10
18049.43139
 20
6996.66585
 30
0.0
  0
VERTEX
  8
0
 10
18003.42602
 20
7004.07835
 30
0.0
  0
SEQEND
  0
POLYLINE
  8
0
 66
1
 10
0.0
 20
0.0
 30
0.0
 70
8
  0
VERTEX
  8
0
 10
19021.39409
 20
7007.6036
 30
0.0
  0
VERTEX
  8
0
 10
19014.52787
 20
7050.00665
 30
0.0
  0
VERTEX
  8
0
 10
18971.03527
 20
7032.91694
 30
0.0
  0
VERTEX
  8
0
 10
18978.54166
 20
6993.93259
 30
0.0
  0
VERTEX
  8
0
 10
18992.59331
 20
6976.24884
 30
0.0
  0
VERTEX
  8
0
 10
19028.30478
 20
6998.7691
 30
0.0
  0
VERTEX
  8
0
 10
19021.39409
 20
7007.6036
 30
0.0
  0
SEQEND
  0
POLYLINE
  8
0
 66
1
 10
0.0
 20
0.0
 30
0.0
 70
8
  0
VERTEX
  8
0
 10
20016.78951
 20
7007.36155
 30
0.0
  0
VERTEX
  8
0
 10
19985.67481
 20
7039.45829
 30
0.0
  0
VERTEX
  8
0
 10
19994.13689
 20
7005.24017
 30
0.0
  0
VERTEX
  8
0
 10
19980.4297
 20
6990.15506
 30
0.0
  0
VERTEX
  8
0
 10
20015.4554
 20
6970.17088
 30
0.0
  0
VERTEX
  8
0
 10
20007.54632
 20
6994.71559
 30
0.0
  0
VERTEX
  8
0
 10
20016.78951
 20
7007.36155
 30
0.0
  0
SEQEND
  0
POLYLINE
  8
0
 66
1
 10
0.0
 20
0.0
 30
0.0
 70
8
  0
VERTEX
  8
0
 10
21030.15588
 20
7030.8547
 30
0.0
  0
VERTEX
  8
0
 10
21019.97372
 20
7046.21404
 30
0.0
  0
VERTEX
  8
0
 10
20961.82787
 20
7018.12042
 30
0.0
  0
VERTEX
  8
0
 10
20973.00114
 20
6983.02393
 30
0.0
  0
VERTEX
  8
0
 10
21004.26034
 20
6991.85298
 30
0.0
  0
VERTEX
  8
0
 10
21020.22924
 20
6988.4283
 30
0.0
  0
VERTEX
  8
0
 10
21030.15588
 20
7030.8547
 30
0.0
  0
SEQEND
  0
POLYLINE
  8
0
 66
1
 10
0.0
 20
0.0
 30
0.0
 70
8
  0
VERTEX
  8
0
 10
22022.19072
 20
7034.82577
 30
0.0
  0
VERTEX
  8
0
 10
22005.47504
 20
7027.79358
 30
0.0
  0
VERTEX
  8
0
 10
21982.41286
 20
7027.72305
 30
0.0
  0
VERTEX
  8
0
 10
21976.68443
 20
6974.17234
 30
0.0
  0
VERTEX
  8
0
 10
22002.84791
 20
6969.68088
 30
0.0
  0
VERTEX
  8
0
 10
22039.75957
 20
6974.04396
 30
0.0
  0
VERTEX
  8
0
 10
22022.19072
 20
7034.82577
 30
0.0
  0
SEQEND
  0
POLYLINE
  8
0
 66
1
 10
0.0
 20
0.0
 30
0.0
 70
8
  0
VERTEX
  8
0
 10
23016.67153
 20
7020.31013
 30
0.0
  0
VERTEX
  8
0
 10
23012.55214
 20
7045.37516
 30
0.0
  0
VERTEX
  8
0
 10
22957.87148
 20
7001.31522
 30
0.0
  0
VERTEX
  8
0
 10
22963.35476
 20
6990.67048
 30
0.0
  0
VERTEX
  8
0
 10
23002.4875
 20
6987.54813
 30
0.0
  0
VERTEX
  8
0
 10
23026.44991
 20
6989.65038
 30
0.0
  0
VERTEX
  8
0
 10
23016.67153
 20
7020.31013
 30
0.0
  0
SEQEND
  0
POLYLINE
  8
0
 66
1
 10
0.0
 20
0.0
 30
0.0
 70
8
  0
VERTEX
  8
0
 10
24030.03246
 20
7021.28155
 30
0.0
  0
VERTEX
  8
0
 10
24000.77589
 20
7029.84706
 30
0.0
  0
VERTEX
  8
0
 10
23958.24635
 20
7019.66086
 30
0.0
  0
VERTEX
  8
0
 10
23969.98134
 20
6971.19947
 30
0.0
  0
VERTEX
  8
0
 10
23987.81193
 20
6977.19261
 30
0.0
  0
VERTEX
  8
0
 10
24024.31087
 20
6965.14976
 30
0.0
  0
VERTEX
  8
0
 10
24030.03246
 20
7021.28155
 30
0.0
  0
SEQEND
  0
POLYLINE
  8
0
 66
1
 10
0.0
 20
0.0
 30
0.0
 70
8
  0
VERTEX
  8
0
 10
25033.41579
 20
7005.12182
 30
0.0
  0
VERTEX
  8
0
 10
25005.08147
 20
7012.0793
 30
0.0
  0
VERTEX
  8
0
 10
24993.65449
 20
7004.63253
 30
0.0
  0
VERTEX
  8
0
 10
24982.59926
 20
6992.90711
 30
0.0
  0
VERTEX
  8
0
 10
24996.80647
 20
6988.96314
 30
0.0
  0
VERTEX
  8
0
 10
25026.80716
 20
6966.39931
 30
0.0
  0
VERTEX
  8
0
 10
25033.41579
 20
7005.12182
 30
0.0
  0
SEQEND
  0
POLYLINE
  8
0
 66
1
 10
0.0
 20
0.0
 30
0.0
 70
8
  0
VERTEX
  8
0
 10
26036.20395
 20
7003.95963
 30
0.0
  0
VERTEX
  8
0
 10
26002.96715
 20
7051.14766
 30
0.0
  0
VERTEX
  8
0
 10
25972.79652
 20
7017.68601
 30
0.0
  0
VERTEX
  8
0
 10
25967.10864
 20
6984.33858
 30
0.0
  0
VERTEX
  8
0
 10
25985.28545
 20
6948.01475
 30
0.0
  0
VERTEX
  8
0
 10
26044.57484
 20
6976.09203
 30
0.0
  0
VERTEX
  8
0
 10
26036.20395
 20
7003.95963
 30
0.0
  0
SEQEND
  0
POLYLINE
  8
0
 66
1
 10
0.0
 20
0.0
 30
0.0
 70
8
  0
VERTEX
  8
0
 10
27023.37417
 20
7025.02789
 30
0.0
  0
VERTEX
  8
0
 10
26993.59056
 20
7013.51055
 30
0.0
  0
VERTEX
  8
0
 10
26967.42157
 20
7009.83392
 30
0.0
  0
VERTEX
  8
0
 10
26988.02442
 20
6993.04214
 30
0.0
  0
VERTEX
  8
0
 10
27003.80341
 20
6955.76794
 30
0.0
  0
VERTEX
  8
0
 10
27009.14106
 20
6994.57557
 30
0.0
  0
VERTEX
  8
0
 10
27023.37417
 20
7025.02789
 30
0.0
  0
SEQEND
  0
POLYLINE
  8
0
 66
1
 10
0.0
 20
0.0
 30
0.0
 70
8
  0
VERTEX
  8
0
 10
28032.30851
 20
7034.01712
 30
0.0
  0
VERTEX
  8
0
 10
28009.39553
 20
7022.98128
 30
0.0
  0
VERTEX
  8
0
 10
27949.20425
 20
7008.87552
 30
0.0
  0
VERTEX
  8
0
 10
27992.93203
 20
6995.59953
 30
0.0
  0
VERTEX
  8
0
 10
27998.3678
 20
6991.38164
 30
0.0
  0
VERTEX
  8
0
 10
28022.795
 20
6964.6838
 30
0.0
  0
VERTEX
  8
0
 10
28032.30851
 20
7034.01712
 30
0.0
  0
SEQEND
  0
POLYLINE
  8
0
 66
1
 10
0.0
 20
0.0
 30
0.0
 70
8
  0
VERTEX
  8
0
 10
29050.22787
 20
7017.91508
 30
0.0
  0
VERTEX
  8
0
 10
29002.18335
 20
7005.68114
 30
0.0
  0
VERTEX
  8
0
 10
28955.32063
 20
7022.44028
 30
0.0
  0
VERTEX
  8
0
 10
28984.01607
 20
6991.84329
 30
0.0
  0
VERTEX
  8
0
 10
29001.01916
 20
6983.08735
 30
0.0
  0
VERTEX
  8
0
 10
29017.62349
 20
6988.75668
 30
0.0
  0
VERTEX
  8
0
 10
29050.22787
 20
7017.91508
 30
0.0
  0
SEQEND
  0
POLYLINE
  8
0
 66
1
 10
0.0
 20
0.0
 30
0.0
 70
8
  0
VERTEX
  8
0
 10
30042.46258
 20
7030.13225
 30
0.0
  0
VERTEX
  8
0
 10
29999.50209
 20
7044.53606
 30
0.0
  0
VERTEX
  8
0
 10
29988.59341
 20
7011.23439
 30
0.0
  0
VERTEX
  8
0
 10
29990.77658
 20
6998.71362
 30
0.0
  0
VERTEX
  8
0
 10
30002.03014
 20
6983.05952
 30
0.0
  0
VERTEX
  8
0
 10
30011.18767
 20
6992.73604
 30
0.0
  0
VERTEX
  8
0
 10
30042.46258
 20
7030.13225
 30
0.0
  0
SEQEND
  0
POLYLINE
  8
0
 66
1
 10
0.0
 20
0.0
 30
0.0
 70
8
  0
VERTEX
  8
0
 10
31046.37841
 20
7015.03187
 30
0.0
  0
VERTEX
  8
0
 10
31013.30051
 20
7052.53518
 30
0.0
  0
VERTEX
  8
0
 10
30964.81591
 20
7030.68023
 30
0.0
  0
VERTEX
  8
0
 10
30967.56466
 20
6973.983
 30
0.0
  0
VERTEX
  8
0
 10
31005.76025
 20
6988.98807
 30
0.0
  0
VERTEX
  8
0
 10
31021.47229
 20
6970.59103
 30
0.0
  0
VERTEX
  8
0
 10
31046.37841
 20
7015.03187
 30
0.0
  0
SEQEND
  0
POLYLINE
  8
0
 66
1
 10
0.0
 20
0.0
 30
0.0
 70
8
  0
VERTEX
  8
0
 10
32018.40788
 20
7002.22988
 30
0.0
  0
VERTEX
  8
0
 10
31998.64234
 20
7024.5599
 30
0.0
  0
VERTEX
  8
0
 10
31981.24421
 20
7007.22527
 30
0.0
  0
VERTEX
  8
0
 10
31974.46093
 20
6970.3343
 30
0.0
  0
VERTEX
  8
0
 10
32014.53064
 20
6965.3785
 30
0.0
  0
VERTEX
  8
0
 10
32036.98628
 20
6972.50946
 30
0.0
  0
VERTEX
  8
0
 10
32018.40788
 20
7002.22988
 30
0.0
  0
SEQEND
  0
POLYLINE
  8
0
 66
1
 10
0.0
 20
0.0
 30
0.0
 70
8
  0
VERTEX
  8
0
 10
33034.96868
 20
7012.87931
 30
0.0
  0
VERTEX
  8
0
 10
32983.5892
 20
7042.77527
 30
0.0
  0
VERTEX
  8
0
 10
32984.10746
 20
7022.74998
 30
0.0
  0
VERTEX
  8
0
 10
32958.40663
 20
6974.08296
 30
0.0
  0
VERTEX
  8
0
 10
32987.42521
 20
6970.50337
 30
0.0
  0
VERTEX
  8
0
 10
33038.85342
 20
6992.5454
 30
0.0
  0
VERTEX
  8
0
 10
33034.96868
 20
7012.87931
 30
0.0
  0
SEQEND
  0
POLYLINE
  8
0
 66
1
 10
0.0
 20
0.0
 30
0.0
 70
8
  0
VERTEX
  8
0
 10
34019.21981
 20
7025.85865
 30
0.0
  0
VERTEX
  8
0
 10
34001.82593
 20
7014.06629
 30
0.0
  0
VERTEX
  8
0
 10
33977.07705
 20
7014.53051
 30
0.0
  0
VERTEX
  8
0
 10
33992.09209
 20
6990.20175
 30
0.0
  0
VERTEX
  8
0
 10
34002.67192
 20
6992.67026
 30
0.0
  0
VERTEX
  8
0
 10
34033.8554
 20
6958.94766
 30
0.0
  0
VERTEX
  8
0
 10
34019.21981
 20
7025.85865
 30
0.0
  0
SEQEND
  0
POLYLINE
  8
0
 66
1
 10
0.0
 20
0.0
 30
0.0
 70
8
  0
VERTEX
  8
0
 10
35029.27512
 20
7046.15554
 30
0.0
  0
VERTEX
  8
0
 10
34994.88824
 20
7024.34124
 30
0.0
  0
VERTEX
  8
0
 10
34991.16802
 20
7008.81493
 30
0.0
  0
VERTEX
  8
0
 10
34967.27742
 20
6990.74387
 30
0.0
  0
VERTEX
  8
0
 10
35010.53459
 20
6950.87917
 30
0.0
  0
VERTEX
  8
0
 10
35046.34482
 20
6996.8775
 30
0.0
  0
VERTEX
  8
0
 10
35029.27512
 20
7046.15554
 30
0.0
  0
SEQEND
  0
POLYLINE
  8
0
 66
1
 10
0.0
 20
0.0
 30
0.0
 70
8
  0
VERTEX
  8
0
 10
36022.10724
 20
7026.60189
 30
0.0
  0
VERTEX
  8
0
 10
35996.12413
 20
7012.37826
 30
0.0
  0
VERTEX
  8
0
 10
35978.49584
 20
7013.97452
 30
0.0
  0
VERTEX
  8
0
 10
35974.94363
 20
6987.9919
 30
0.0
  0
VERTEX
  8
0
 10
35989.70103
 20
6967.30331
 30
0.0
  0
VERTEX
  8
0
 10
36016.906
 20
6993.40885
 30
0.0
  0
VERTEX
  8
0
 10
36022.10724
 20
7026.60189
 30
0.0
  0
SEQEND
  0
ENDSEC
  0
EOF
