  0
SECTION
  2
HEADER
  9
$ACADVER
  1
AC1009
  9
$INSBASE
 10
0.0
 20
0.0
 30
0.0
  9
$EXTMIN
 10
0.0
 20
0.0
 30
0.0
  9
$EXTMAX
 10
100.0
 20
100.0
 30
0.0
  9
$UNITMODE
 70
0
  9
$AUNITS
 70
0
  9
$ANGBASE
 50
0.0
  9
$ANGDIR
 70
0
  0
ENDSEC
  0
SECTION
  2
TABLES
  0
TABLE
  2
LTYPE
 70
19
  0
LTYPE
  2
CONTINUOUS
 70
0
  3
Solid
 72
65
 73
0
 40
0.0
  0
LTYPE
  2
CENTER
 70
0
  3
Center ____ _ ____ _ ____ _ ____ _ ____ _ ____
 72
65
 73
4
 40
2.0
 49
1.25
 49
-0.25
 49
0.25
 49
-0.25
  0
LTYPE
  2
CENTERX2
 70
0
  3
Center (2x) ________  __  ________  __  ________
 72
65
 73
4
 40
3.5
 49
2.5
 49
-0.25
 49
0.5
 49
-0.25
  0
LTYPE
  2
CENTER2
 70
0
  3
Center (.5x) ____ _ ____ _ ____ _ ____ _ ____
 72
65
 73
4
 40
1.0
 49
0.625
 49
-0.125
 49
0.125
 49
-0.125
  0
LTYPE
  2
DASHED
 70
0
  3
Dashed __ __ __ __ __ __ __ __ __ __ __ __ __ _
 72
65
 73
2
 40
0.6
 49
0.5
 49
-0.1
  0
LTYPE
  2
DASHEDX2
 70
0
  3
Dashed (2x) ____  ____  ____  ____  ____  ____
 72
65
 73
2
 40
1.2
 49
1.0
 49
-0.2
  0
LTYPE
  2
DASHED2
 70
0
  3
Dashed (.5x) _ _ _ _ _ _ _ _ _ _ _ _ _ _
 72
65
 73
2
 40
0.3
 49
0.25
 49
-0.05
  0
LTYPE
  2
PHANTOM
 70
0
  3
Phantom ______  __  __  ______  __  __  ______
 72
65
 73
6
 40
2.5
 49
1.25
 49
-0.25
 49
0.25
 49
-0.25
 49
0.25
 49
-0.25
  0
LTYPE
  2
PHANTOMX2
 70
0
  3
Phantom (2x)____________    ____    ____    ____________
 72
65
 73
6
 40
4.25
 49
2.5
 49
-0.25
 49
0.5
 49
-0.25
 49
0.5
 49
-0.25
  0
LTYPE
  2
PHANTOM2
 70
0
  3
Phantom (.5x) ___ _ _ ___ _ _ ___ _ _ ___ _ _ ___
 72
65
 73
6
 40
1.25
 49
0.625
 49
-0.125
 49
0.125
 49
-0.125
 49
0.125
 49
-0.125
  0
LTYPE
  2
DASHDOT
 70
0
  3
Dash dot __ . __ . __ . __ . __ . __ . __ . __
 72
65
 73
4
 40
1.4
 49
1.0
 49
-0.2
 49
0.0
 49
-0.2
  0
LTYPE
  2
DASHDOTX2
 70
0
  3
Dash dot (2x) ____  .  ____  .  ____  .  ____
 72
65
 73
4
 40
2.4
 49
2.0
 49
-0.2
 49
0.0
 49
-0.2
  0
LTYPE
  2
DASHDOT2
 70
0
  3
Dash dot (.5x) _ . _ . _ . _ . _ . _ . _ . _
 72
65
 73
4
 40
0.7
 49
0.5
 49
-0.1
 49
0.0
 49
-0.1
  0
LTYPE
  2
DOT
 70
0
  3
Dot .  .  .  .  .  .  .  .  .  .  .  .  .  .  .  .
 72
65
 73
2
 40
0.2
 49
0.0
 49
-0.2
  0
LTYPE
  2
DOTX2
 70
0
  3
Dot (2x) .    .    .    .    .    .    .    . 
 72
65
 73
2
 40
0.4
 49
0.0
 49
-0.4
  0
LTYPE
  2
DOT2
 70
0
  3
Dot (.5) . . . . . . . . . . . . . . . . . . . 
 72
65
 73
2
 40
0.1
 49
0.0
 49
-0.1
  0
LTYPE
  2
DIVIDE
 70
0
  3
Divide __ . . __ . . __ . . __ . . __ . . __
 72
65
 73
6
 40
1.6
 49
1.0
 49
-0.2
 49
0.0
 49
-0.2
 49
0.0
 49
-0.2
  0
LTYPE
  2
DIVIDEX2
 70
0
  3
Divide (2x) ____  . .  ____  . .  ____  . .  ____
 72
65
 73
6
 40
2.6
 49
2.0
 49
-0.2
 49
0.0
 49
-0.2
 49
0.0
 49
-0.2
  0
LTYPE
  2
DIVIDE2
 70
0
  3
Divide(.5x) _ . _ . _ . _ . _ . _ . _ . _
 72
65
 73
6
 40
0.8
 49
0.5
 49
-0.1
 49
0.0
 49
-0.1
 49
0.0
 49
-0.1
  0
ENDTAB
  0
TABLE
  2
LAYER
 70
5
  0
LAYER
  2
DIMENSIONS
 70
0
 62
1
  6
CONTINUOUS
  0
LAYER
  2
TABLEBACKGROUND
 70
0
 62
1
  6
CONTINUOUS
  0
LAYER
  2
TABLECONTENT
 70
0
 62
1
  6
CONTINUOUS
  0
LAYER
  2
TABLEGRID
 70
0
 62
1
  6
CONTINUOUS
  0
LAYER
  2
VIEWPORTS
 70
0
 62
7
  6
CONTINUOUS
  0
ENDTAB
  0
TABLE
  2
STYLE
 70
12
  0
STYLE
  2
STANDARD
 70
0
 40
0.0
 41
1.0
 42
1.0
 50
0.0
 71
0
  3
arial.ttf
  4

  0
STYLE
  2
ARIAL
 70
0
 40
0.0
 41
1.0
 42
1.0
 50
0.0
 71
0
  3
arial.ttf
  4

  0
STYLE
  2
ARIAL_BOLD
 70
0
 40
0.0
 41
1.0
 42
1.0
 50
0.0
 71
0
  3
arialbd.ttf
  4

  0
STYLE
  2
ARIAL_ITALIC
 70
0
 40
0.0
 41
1.0
 42
1.0
 50
0.0
 71
0
  3
ariali.ttf
  4

  0
STYLE
  2
ARIAL_BOLD_ITALIC
 70
0
 40
0.0
 41
1.0
 42
1.0
 50
0.0
 71
0
  3
arialbi.ttf
  4

  0
STYLE
  2
ARIAL_BLACK
 70
0
 40
0.0
 41
1.0
 42
1.0
 50
0.0
 71
0
  3
ariblk.ttf
  4

  0
STYLE
  2
ISOCPEUR
 70
0
 40
0.0
 41
1.0
 42
1.0
 50
0.0
 71
0
  3
isocpeur.ttf
  4

  0
STYLE
  2
ISOCPEUR_ITALIC
 70
0
 40
0.0
 41
1.0
 42
1.0
 50
0.0
 71
0
  3
isocpeui.ttf
  4

  0
STYLE
  2
TIMES
 70
0
 40
0.0
 41
1.0
 42
1.0
 50
0.0
 71
0
  3
times.ttf
  4

  0
STYLE
  2
TIMES_BOLD
 70
0
 40
0.0
 41
1.0
 42
1.0
 50
0.0
 71
0
  3
timesbd.ttf
  4

  0
STYLE
  2
TIMES_ITALIC
 70
0
 40
0.0
 41
1.0
 42
1.0
 50
0.0
 71
0
  3
timesi.ttf
  4

  0
STYLE
  2
TIMES_BOLD_ITALIC
 70
0
 40
0.0
 41
1.0
 42
1.0
 50
0.0
 71
0
  3
timesbi.ttf
  4

  0
ENDTAB
  0
TABLE
  2
VIEW
 70
0
  0
ENDTAB
  0
TABLE
  2
APPID
 70
1
  0
APPID
  2
DXFWRITE
 70
0
  0
ENDTAB
  0
TABLE
  2
VPORT
 70
0
  0
ENDTAB
  0
TABLE
  2
UCS
 70
0
  0
ENDTAB
  0
ENDSEC
  0
SECTION
  2
BLOCKS
  0
ENDSEC
  0
SECTION
  2
ENTITIES
  0
VIEWPORT
  8
VIEWPORTS
 67
1
 10
0.0
 20
0.0
 30
0.0
 40
1.0
 41
1.0
 68
1
 69
1
1001
ACAD
1000
MVIEW
1002
{
1070
16
1010
0.0
1020
0.0
1030
0.0
1010
0.0
1020
0.0
1030
0.0
1040
0.0
1040
1.0
1040
0.0
1040
0.0
1040
50.0
1040
0.0
1040
0.0
1070
0
1070
100
1070
1
1070
3
1070
0
1070
0
1070
0
1070
0
1040
0.0
1040
0.0
1040
0.0
1040
0.1
1040
0.1
1040
0.1
1040
0.1
1070
0
1002
{
1002
}
1002
}
  0
POLYLINE
  8
0
 66
1
 10
0.0
 20
0.0
 30
0.0
 70
8
  0
VERTEX
  8
0
 10
1000.0
 20
1000.0
 30
0.0
  0
VERTEX
  8
0
 10
1020.0
 20
1000.0
 30
0.0
  0
VERTEX
  8
0
 10
1020.0
 20
1030.0
 30
0.0
  0
VERTEX
  8
0
 10
1120.0
 20
1030.0
 30
0.0
  0
VERTEX
  8
0
 10
1120.0
 20
1000.0
 30
0.0
  0
VERTEX
  8
0
 10
1140.0
 20
1000.0
 30
0.0
  0
VERTEX
  8
0
 10
1140.0
 20
1050.0
 30
0.0
  0
VERTEX
  8
0
 10
1000.0
 20
1050.0
 30
0.0
  0
VERTEX
  8
0
 10
1000.0
 20
1000.0
 30
0.0
  0
SEQEND
  0
POLYLINE
  8
0
 66
1
 10
0.0
 20
0.0
 30
0.0
 70
8
  0
VERTEX
  8
0
 10
2000.0
 20
1000.0
 30
0.0
  0
VERTEX
  8
0
 10
2020.0
 20
1000.0
 30
0.0
  0
VERTEX
  8
0
 10
2020.0
 20
1030.0
 30
0.0
  0
VERTEX
  8
0
 10
2120.0
 20
1030.0
 30
0.0
  0
VERTEX
  8
0
 10
2120.0
 20
1000.0
 30
0.0
  0
VERTEX
  8
0
 10
2140.0
 20
1000.0
 30
0.0
  0
VERTEX
  8
0
 10
2140.0
 20
1050.0
 30
0.0
  0
VERTEX
  8
0
 10
2000.0
 20
1050.0
 30
0.0
  0
VERTEX
  8
0
 10
2000.0
 20
1000.0
 30
0.0
  0
SEQEND
  0
POLYLINE
  8
0
 66
1
 10
0.0
 20
0.0
 30
0.0
 70
8
  0
VERTEX
  8
0
 10
3000.0
 20
1000.0
 30
0.0
  0
VERTEX
  8
0
 10
3020.0
 20
1000.0
 30
0.0
  0
VERTEX
  8
0
 10
3020.0
 20
1030.0
 30
0.0
  0
VERTEX
  8
0
 10
3120.0
 20
1030.0
 30
0.0
  0
VERTEX
  8
0
 10
3120.0
 20
1000.0
 30
0.0
  0
VERTEX
  8
0
 10
3140.0
 20
1000.0
 30
0.0
  0
VERTEX
  8
0
 10
3140.0
 20
1050.0
 30
0.0
  0
VERTEX
  8
0
 10
3000.0
 20
1050.0
 30
0.0
  0
VERTEX
  8
0
 10
3000.0
 20
1000.0
 30
0.0
  0
SEQEND
  0
POLYLINE
  8
0
 66
1
 10
0.0
 20
0.0
 30
0.0
 70
8
  0
VERTEX
  8
0
 10
4000.0
 20
1000.0
 30
0.0
  0
VERTEX
  8
0
 10
4020.0
 20
1000.0
 30
0.0
  0
VERTEX
  8
0
 10
4020.0
 20
1030.0
 30
0.0
  0
VERTEX
  8
0
 10
4120.0
 20
1030.0
 30
0.0
  0
VERTEX
  8
0
 10
4120.0
 20
1000.0
 30
0.0
  0
VERTEX
  8
0
 10
4140.0
 20
1000.0
 30
0.0
  0
VERTEX
  8
0
 10
4140.0
 20
1050.0
 30
0.0
  0
VERTEX
  8
0
 10
4000.0
 20
1050.0
 30
0.0
  0
VERTEX
  8
0
 10
4000.0
 20
1000.0
 30
0.0
  0
SEQEND
  0
POLYLINE
  8
0
 66
1
 10
0.0
 20
0.0
 30
0.0
 70
8
  0
VERTEX
  8
0
 10
5000.0
 20
1000.0
 30
0.0
  0
VERTEX
  8
0
 10
5020.0
 20
1000.0
 30
0.0
  0
VERTEX
  8
0
 10
5020.0
 20
1030.0
 30
0.0
  0
VERTEX
  8
0
 10
5120.0
 20
1030.0
 30
0.0
  0
VERTEX
  8
0
 10
5120.0
 20
1000.0
 30
0.0
  0
VERTEX
  8
0
 10
5140.0
 20
1000.0
 30
0.0
  0
VERTEX
  8
0
 10
5140.0
 20
1050.0
 30
0.0
  0
VERTEX
  8
0
 10
5000.0
 20
1050.0
 30
0.0
  0
VERTEX
  8
0
 10
5000.0
 20
1000.0
 30
0.0
  0
SEQEND
  0
POLYLINE
  8
0
 66
1
 10
0.0
 20
0.0
 30
0.0
 70
8
  0
VERTEX
  8
0
 10
6000.0
 20
1000.0
 30
0.0
  0
VERTEX
  8
0
 10
6020.0
 20
1000.0
 30
0.0
  0
VERTEX
  8
0
 10
6020.0
 20
1030.0
 30
0.0
  0
VERTEX
  8
0
 10
6120.0
 20
1030.0
 30
0.0
  0
VERTEX
  8
0
 10
6120.0
 20
1000.0
 30
0.0
  0
VERTEX
  8
0
 10
6140.0
 20
1000.0
 30
0.0
  0
VERTEX
  8
0
 10
6140.0
 20
1050.0
 30
0.0
  0
VERTEX
  8
0
 10
6000.0
 20
1050.0
 30
0.0
  0
VERTEX
  8
0
 10
6000.0
 20
1000.0
 30
0.0
  0
SEQEND
  0
POLYLINE
  8
0
 66
1
 10
0.0
 20
0.0
 30
0.0
 70
8
  0
VERTEX
  8
0
 10
7000.0
 20
1000.0
 30
0.0
  0
VERTEX
  8
0
 10
7020.0
 20
1000.0
 30
0.0
  0
VERTEX
  8
0
 10
7020.0
 20
1030.0
 30
0.0
  0
VERTEX
  8
0
 10
7120.0
 20
1030.0
 30
0.0
  0
VERTEX
  8
0
 10
7120.0
 20
1000.0
 30
0.0
  0
VERTEX
  8
0
 10
7140.0
 20
1000.0
 30
0.0
  0
VERTEX
  8
0
 10
7140.0
 20
1050.0
 30
0.0
  0
VERTEX
  8
0
 10
7000.0
 20
1050.0
 30
0.0
  0
VERTEX
  8
0
 10
7000.0
 20
1000.0
 30
0.0
  0
SEQEND
  0
POLYLINE
  8
0
 66
1
 10
0.0
 20
0.0
 30
0.0
 70
8
  0
VERTEX
  8
0
 10
8000.0
 20
1000.0
 30
0.0
  0
VERTEX
  8
0
 10
8020.0
 20
1000.0
 30
0.0
  0
VERTEX
  8
0
 10
8020.0
 20
1030.0
 30
0.0
  0
VERTEX
  8
0
 10
8120.0
 20
1030.0
 30
0.0
  0
VERTEX
  8
0
 10
8120.0
 20
1000.0
 30
0.0
  0
VERTEX
  8
0
 10
8140.0
 20
1000.0
 30
0.0
  0
VERTEX
  8
0
 10
8140.0
 20
1050.0
 30
0.0
  0
VERTEX
  8
0
 10
8000.0
 20
1050.0
 30
0.0
  0
VERTEX
  8
0
 10
8000.0
 20
1000.0
 30
0.0
  0
SEQEND
  0
POLYLINE
  8
0
 66
1
 10
0.0
 20
0.0
 30
0.0
 70
8
  0
VERTEX
  8
0
 10
9000.0
 20
1000.0
 30
0.0
  0
VERTEX
  8
0
 10
9020.0
 20
1000.0
 30
0.0
  0
VERTEX
  8
0
 10
9020.0
 20
1030.0
 30
0.0
  0
VERTEX
  8
0
 10
9120.0
 20
1030.0
 30
0.0
  0
VERTEX
  8
0
 10
9120.0
 20
1000.0
 30
0.0
  0
VERTEX
  8
0
 10
9140.0
 20
1000.0
 30
0.0
  0
VERTEX
  8
0
 10
9140.0
 20
1050.0
 30
0.0
  0
VERTEX
  8
0
 10
9000.0
 20
1050.0
 30
0.0
  0
VERTEX
  8
0
 10
9000.0
 20
1000.0
 30
0.0
  0
SEQEND
  0
POLYLINE
  8
0
 66
1
 10
0.0
 20
0.0
 30
0.0
 70
8
  0
VERTEX
  8
0
 10
10000.0
 20
1000.0
 30
0.0
  0
VERTEX
  8
0
 10
10020.0
 20
1000.0
 30
0.0
  0
VERTEX
  8
0
 10
10020.0
 20
1030.0
 30
0.0
  0
VERTEX
  8
0
 10
10120.0
 20
1030.0
 30
0.0
  0
VERTEX
  8
0
 10
10120.0
 20
1000.0
 30
0.0
  0
VERTEX
  8
0
 10
10140.0
 20
1000.0
 30
0.0
  0
VERTEX
  8
0
 10
10140.0
 20
1050.0
 30
0.0
  0
VERTEX
  8
0
 10
10000.0
 20
1050.0
 30
0.0
  0
VERTEX
  8
0
 10
10000.0
 20
1000.0
 30
0.0
  0
SEQEND
  0
POLYLINE
  8
0
 66
1
 10
0.0
 20
0.0
 30
0.0
 70
8
  0
VERTEX
  8
0
 10
11000.0
 20
1000.0
 30
0.0
  0
VERTEX
  8
0
 10
11020.0
 20
1000.0
 30
0.0
  0
VERTEX
  8
0
 10
11020.0
 20
1030.0
 30
0.0
  0
VERTEX
  8
0
 10
11120.0
 20
1030.0
 30
0.0
  0
VERTEX
  8
0
 10
11120.0
 20
1000.0
 30
0.0
  0
VERTEX
  8
0
 10
11140.0
 20
1000.0
 30
0.0
  0
VERTEX
  8
0
 10
11140.0
 20
1050.0
 30
0.0
  0
VERTEX
  8
0
 10
11000.0
 20
1050.0
 30
0.0
  0
VERTEX
  8
0
 10
11000.0
 20
1000.0
 30
0.0
  0
SEQEND
  0
POLYLINE
  8
0
 66
1
 10
0.0
 20
0.0
 30
0.0
 70
8
  0
VERTEX
  8
0
 10
12000.0
 20
1000.0
 30
0.0
  0
VERTEX
  8
0
 10
12020.0
 20
1000.0
 30
0.0
  0
VERTEX
  8
0
 10
12020.0
 20
1030.0
 30
0.0
  0
VERTEX
  8
0
 10
12120.0
 20
1030.0
 30
0.0
  0
VERTEX
  8
0
 10
12120.0
 20
1000.0
 30
0.0
  0
VERTEX
  8
0
 10
12140.0
 20
1000.0
 30
0.0
  0
VERTEX
  8
0
 10
12140.0
 20
1050.0
 30
0.0
  0
VERTEX
  8
0
 10
12000.0
 20
1050.0
 30
0.0
  0
VERTEX
  8
0
 10
12000.0
 20
1000.0
 30
0.0
  0
SEQEND
  0
POLYLINE
  8
0
 66
1
 10
0.0
 20
0.0
 30
0.0
 70
8
  0
VERTEX
  8
0
 10
13000.0
 20
1000.0
 30
0.0
  0
VERTEX
  8
0
 10
13020.0
 20
1000.0
 30
0.0
  0
VERTEX
  8
0
 10
13020.0
 20
1030.0
 30
0.0
  0
VERTEX
  8
0
 10
13120.0
 20
1030.0
 30
0.0
  0
VERTEX
  8
0
 10
13120.0
 20
1000.0
 30
0.0
  0
VERTEX
  8
0
 10
13140.0
 20
1000.0
 30
0.0
  0
VERTEX
  8
0
 10
13140.0
 20
1050.0
 30
0.0
  0
VERTEX
  8
0
 10
13000.0
 20
1050.0
 30
0.0
  0
VERTEX
  8
0
 10
13000.0
 20
1000.0
 30
0.0
  0
SEQEND
  0
POLYLINE
  8
0
 66
1
 10
0.0
 20
0.0
 30
0.0
 70
8
  0
VERTEX
  8
0
 10
14000.0
 20
1000.0
 30
0.0
  0
VERTEX
  8
0
 10
14020.0
 20
1000.0
 30
0.0
  0
VERTEX
  8
0
 10
14020.0
 20
1030.0
 30
0.0
  0
VERTEX
  8
0
 10
14120.0
 20
1030.0
 30
0.0
  0
VERTEX
  8
0
 10
14120.0
 20
1000.0
 30
0.0
  0
VERTEX
  8
0
 10
14140.0
 20
1000.0
 30
0.0
  0
VERTEX
  8
0
 10
14140.0
 20
1050.0
 30
0.0
  0
VERTEX
  8
0
 10
14000.0
 20
1050.0
 30
0.0
  0
VERTEX
  8
0
 10
14000.0
 20
1000.0
 30
0.0
  0
SEQEND
  0
POLYLINE
  8
0
 66
1
 10
0.0
 20
0.0
 30
0.0
 70
8
  0
VERTEX
  8
0
 10
15000.0
 20
1000.0
 30
0.0
  0
VERTEX
  8
0
 10
15020.0
 20
1000.0
 30
0.0
  0
VERTEX
  8
0
 10
15020.0
 20
1030.0
 30
0.0
  0
VERTEX
  8
0
 10
15120.0
 20
1030.0
 30
0.0
  0
VERTEX
  8
0
 10
15120.0
 20
1000.0
 30
0.0
  0
VERTEX
  8
0
 10
15140.0
 20
1000.0
 30
0.0
  0
VERTEX
  8
0
 10
15140.0
 20
1050.0
 30
0.0
  0
VERTEX
  8
0
 10
15000.0
 20
1050.0
 30
0.0
  0
VERTEX
  8
0
 10
15000.0
 20
1000.0
 30
0.0
  0
SEQEND
  0
POLYLINE
  8
0
 66
1
 10
0.0
 20
0.0
 30
0.0
 70
8
  0
VERTEX
  8
0
 10
16000.0
 20
1000.0
 30
0.0
  0
VERTEX
  8
0
 10
16060.0
 20
940.0
 30
0.0
  0
VERTEX
  8
0
 10
16120.0
 20
1000.0
 30
0.0
  0
VERTEX
  8
0
 10
16060.0
 20
1060.0
 30
0.0
  0
VERTEX
  8
0
 10
16000.0
 20
1000.0
 30
0.0
  0
SEQEND
  0
POLYLINE
  8
0
 66
1
 10
0.0
 20
0.0
 30
0.0
 70
8
  0
VERTEX
  8
0
 10
17000.0
 20
1000.0
 30
0.0
  0
VERTEX
  8
0
 10
17060.0
 20
940.0
 30
0.0
  0
VERTEX
  8
0
 10
17120.0
 20
1000.0
 30
0.0
  0
VERTEX
  8
0
 10
17060.0
 20
1060.0
 30
0.0
  0
VERTEX
  8
0
 10
17000.0
 20
1000.0
 30
0.0
  0
SEQEND
  0
POLYLINE
  8
0
 66
1
 10
0.0
 20
0.0
 30
0.0
 70
8
  0
VERTEX
  8
0
 10
18000.0
 20
1000.0
 30
0.0
  0
VERTEX
  8
0
 10
18060.0
 20
940.0
 30
0.0
  0
VERTEX
  8
0
 10
18120.0
 20
1000.0
 30
0.0
  0
VERTEX
  8
0
 10
18060.0
 20
1060.0
 30
0.0
  0
VERTEX
  8
0
 10
18000.0
 20
1000.0
 30
0.0
  0
SEQEND
  0
POLYLINE
  8
0
 66
1
 10
0.0
 20
0.0
 30
0.0
 70
8
  0
VERTEX
  8
0
 10
19000.0
 20
1000.0
 30
0.0
  0
VERTEX
  8
0
 10
19060.0
 20
940.0
 30
0.0
  0
VERTEX
  8
0
 10
19120.0
 20
1000.0
 30
0.0
  0
VERTEX
  8
0
 10
19060.0
 20
1060.0
 30
0.0
  0
VERTEX
  8
0
 10
19000.0
 20
1000.0
 30
0.0
  0
SEQEND
  0
POLYLINE
  8
0
 66
1
 10
0.0
 20
0.0
 30
0.0
 70
8
  0
VERTEX
  8
0
 10
20000.0
 20
1000.0
 30
0.0
  0
VERTEX
  8
0
 10
20060.0
 20
940.0
 30
0.0
  0
VERTEX
  8
0
 10
20120.0
 20
1000.0
 30
0.0
  0
VERTEX
  8
0
 10
20060.0
 20
1060.0
 30
0.0
  0
VERTEX
  8
0
 10
20000.0
 20
1000.0
 30
0.0
  0
SEQEND
  0
POLYLINE
  8
0
 66
1
 10
0.0
 20
0.0
 30
0.0
 70
8
  0
VERTEX
  8
0
 10
21000.0
 20
1000.0
 30
0.0
  0
VERTEX
  8
0
 10
21060.0
 20
940.0
 30
0.0
  0
VERTEX
  8
0
 10
21120.0
 20
1000.0
 30
0.0
  0
VERTEX
  8
0
 10
21060.0
 20
1060.0
 30
0.0
  0
VERTEX
  8
0
 10
21000.0
 20
1000.0
 30
0.0
  0
SEQEND
  0
POLYLINE
  8
0
 66
1
 10
0.0
 20
0.0
 30
0.0
 70
8
  0
VERTEX
  8
0
 10
22000.0
 20
1000.0
 30
0.0
  0
VERTEX
  8
0
 10
22060.0
 20
940.0
 30
0.0
  0
VERTEX
  8
0
 10
22120.0
 20
1000.0
 30
0.0
  0
VERTEX
  8
0
 10
22060.0
 20
1060.0
 30
0.0
  0
VERTEX
  8
0
 10
22000.0
 20
1000.0
 30
0.0
  0
SEQEND
  0
POLYLINE
  8
0
 66
1
 10
0.0
 20
0.0
 30
0.0
 70
8
  0
VERTEX
  8
0
 10
23000.0
 20
1000.0
 30
0.0
  0
VERTEX
  8
0
 10
23060.0
 20
1000.0
 30
0.0
  0
VERTEX
  8
0
 10
23060.0
 20
980.0
 30
0.0
  0
VERTEX
  8
0
 10
23070.0
 20
980.0
 30
0.0
  0
VERTEX
  8
0
 10
23110.0
 20
1020.0
 30
0.0
  0
VERTEX
  8
0
 10
23110.0
 20
1040.0
 30
0.0
  0
VERTEX
  8
0
 10
23080.0
 20
1040.0
 30
0.0
  0
VERTEX
  8
0
 10
23080.0
 20
1010.0
 30
0.0
  0
VERTEX
  8
0
 10
23020.0
 20
1010.0
 30
0.0
  0
VERTEX
  8
0
 10
23020.0
 20
1040.0
 30
0.0
  0
VERTEX
  8
0
 10
23000.0
 20
1040.0
 30
0.0
  0
VERTEX
  8
0
 10
23000.0
 20
1000.0
 30
0.0
  0
SEQEND
  0
POLYLINE
  8
0
 66
1
 10
0.0
 20
0.0
 30
0.0
 70
8
  0
VERTEX
  8
0
 10
24000.0
 20
1000.0
 30
0.0
  0
VERTEX
  8
0
 10
24060.0
 20
1000.0
 30
0.0
  0
VERTEX
  8
0
 10
24060.0
 20
980.0
 30
0.0
  0
VERTEX
  8
0
 10
24070.0
 20
980.0
 30
0.0
  0
VERTEX
  8
0
 10
24110.0
 20
1020.0
 30
0.0
  0
VERTEX
  8
0
 10
24110.0
 20
1040.0
 30
0.0
  0
VERTEX
  8
0
 10
24080.0
 20
1040.0
 30
0.0
  0
VERTEX
  8
0
 10
24080.0
 20
1010.0
 30
0.0
  0
VERTEX
  8
0
 10
24020.0
 20
1010.0
 30
0.0
  0
VERTEX
  8
0
 10
24020.0
 20
1040.0
 30
0.0
  0
VERTEX
  8
0
 10
24000.0
 20
1040.0
 30
0.0
  0
VERTEX
  8
0
 10
24000.0
 20
1000.0
 30
0.0
  0
SEQEND
  0
POLYLINE
  8
0
 66
1
 10
0.0
 20
0.0
 30
0.0
 70
8
  0
VERTEX
  8
0
 10
25000.0
 20
1000.0
 30
0.0
  0
VERTEX
  8
0
 10
25060.0
 20
1000.0
 30
0.0
  0
VERTEX
  8
0
 10
25060.0
 20
980.0
 30
0.0
  0
VERTEX
  8
0
 10
25070.0
 20
980.0
 30
0.0
  0
VERTEX
  8
0
 10
25110.0
 20
1020.0
 30
0.0
  0
VERTEX
  8
0
 10
25110.0
 20
1040.0
 30
0.0
  0
VERTEX
  8
0
 10
25080.0
 20
1040.0
 30
0.0
  0
VERTEX
  8
0
 10
25080.0
 20
1010.0
 30
0.0
  0
VERTEX
  8
0
 10
25020.0
 20
1010.0
 30
0.0
  0
VERTEX
  8
0
 10
25020.0
 20
1040.0
 30
0.0
  0
VERTEX
  8
0
 10
25000.0
 20
1040.0
 30
0.0
  0
VERTEX
  8
0
 10
25000.0
 20
1000.0
 30
0.0
  0
SEQEND
  0
POLYLINE
  8
0
 66
1
 10
0.0
 20
0.0
 30
0.0
 70
8
  0
VERTEX
  8
0
 10
26000.0
 20
1000.0
 30
0.0
  0
VERTEX
  8
0
 10
26060.0
 20
1000.0
 30
0.0
  0
VERTEX
  8
0
 10
26060.0
 20
980.0
 30
0.0
  0
VERTEX
  8
0
 10
26070.0
 20
980.0
 30
0.0
  0
VERTEX
  8
0
 10
26110.0
 20
1020.0
 30
0.0
  0
VERTEX
  8
0
 10
26110.0
 20
1040.0
 30
0.0
  0
VERTEX
  8
0
 10
26080.0
 20
1040.0
 30
0.0
  0
VERTEX
  8
0
 10
26080.0
 20
1010.0
 30
0.0
  0
VERTEX
  8
0
 10
26020.0
 20
1010.0
 30
0.0
  0
VERTEX
  8
0
 10
26020.0
 20
1040.0
 30
0.0
  0
VERTEX
  8
0
 10
26000.0
 20
1040.0
 30
0.0
  0
VERTEX
  8
0
 10
26000.0
 20
1000.0
 30
0.0
  0
SEQEND
  0
POLYLINE
  8
0
 66
1
 10
0.0
 20
0.0
 30
0.0
 70
8
  0
VERTEX
  8
0
 10
27000.0
 20
1000.0
 30
0.0
  0
VERTEX
  8
0
 10
27060.0
 20
1000.0
 30
0.0
  0
VERTEX
  8
0
 10
27060.0
 20
980.0
 30
0.0
  0
VERTEX
  8
0
 10
27070.0
 20
980.0
 30
0.0
  0
VERTEX
  8
0
 10
27110.0
 20
1020.0
 30
0.0
  0
VERTEX
  8
0
 10
27110.0
 20
1040.0
 30
0.0
  0
VERTEX
  8
0
 10
27080.0
 20
1040.0
 30
0.0
  0
VERTEX
  8
0
 10
27080.0
 20
1010.0
 30
0.0
  0
VERTEX
  8
0
 10
27020.0
 20
1010.0
 30
0.0
  0
VERTEX
  8
0
 10
27020.0
 20
1040.0
 30
0.0
  0
VERTEX
  8
0
 10
27000.0
 20
1040.0
 30
0.0
  0
VERTEX
  8
0
 10
27000.0
 20
1000.0
 30
0.0
  0
SEQEND
  0
POLYLINE
  8
0
 66
1
 10
0.0
 20
0.0
 30
0.0
 70
8
  0
VERTEX
  8
0
 10
28000.0
 20
1000.0
 30
0.0
  0
VERTEX
  8
0
 10
28060.0
 20
1000.0
 30
0.0
  0
VERTEX
  8
0
 10
28060.0
 20
980.0
 30
0.0
  0
VERTEX
  8
0
 10
28070.0
 20
980.0
 30
0.0
  0
VERTEX
  8
0
 10
28110.0
 20
1020.0
 30
0.0
  0
VERTEX
  8
0
 10
28110.0
 20
1040.0
 30
0.0
  0
VERTEX
  8
0
 10
28080.0
 20
1040.0
 30
0.0
  0
VERTEX
  8
0
 10
28080.0
 20
1010.0
 30
0.0
  0
VERTEX
  8
0
 10
28020.0
 20
1010.0
 30
0.0
  0
VERTEX
  8
0
 10
28020.0
 20
1040.0
 30
0.0
  0
VERTEX
  8
0
 10
28000.0
 20
1040.0
 30
0.0
  0
VERTEX
  8
0
 10
28000.0
 20
1000.0
 30
0.0
  0
SEQEND
  0
POLYLINE
  8
0
 66
1
 10
0.0
 20
0.0
 30
0.0
 70
8
  0
VERTEX
  8
0
 10
29000.0
 20
1000.0
 30
0.0
  0
VERTEX
  8
0
 10
29060.0
 20
1000.0
 30
0.0
  0
VERTEX
  8
0
 10
29060.0
 20
980.0
 30
0.0
  0
VERTEX
  8
0
 10
29070.0
 20
980.0
 30
0.0
  0
VERTEX
  8
0
 10
29110.0
 20
1020.0
 30
0.0
  0
VERTEX
  8
0
 10
29110.0
 20
1040.0
 30
0.0
  0
VERTEX
  8
0
 10
29080.0
 20
1040.0
 30
0.0
  0
VERTEX
  8
0
 10
29080.0
 20
1010.0
 30
0.0
  0
VERTEX
  8
0
 10
29020.0
 20
1010.0
 30
0.0
  0
VERTEX
  8
0
 10
29020.0
 20
1040.0
 30
0.0
  0
VERTEX
  8
0
 10
29000.0
 20
1040.0
 30
0.0
  0
VERTEX
  8
0
 10
29000.0
 20
1000.0
 30
0.0
  0
SEQEND
  0
POLYLINE
  8
0
 66
1
 10
0.0
 20
0.0
 30
0.0
 70
8
  0
VERTEX
  8
0
 10
30000.0
 20
1000.0
 30
0.0
  0
VERTEX
  8
0
 10
30060.0
 20
1000.0
 30
0.0
  0
VERTEX
  8
0
 10
30060.0
 20
980.0
 30
0.0
  0
VERTEX
  8
0
 10
30070.0
 20
980.0
 30
0.0
  0
VERTEX
  8
0
 10
30110.0
 20
1020.0
 30
0.0
  0
VERTEX
  8
0
 10
30110.0
 20
1040.0
 30
0.0
  0
VERTEX
  8
0
 10
30080.0
 20
1040.0
 30
0.0
  0
VERTEX
  8
0
 10
30080.0
 20
1010.0
 30
0.0
  0
VERTEX
  8
0
 10
30020.0
 20
1010.0
 30
0.0
  0
VERTEX
  8
0
 10
30020.0
 20
1040.0
 30
0.0
  0
VERTEX
  8
0
 10
30000.0
 20
1040.0
 30
0.0
  0
VERTEX
  8
0
 10
30000.0
 20
1000.0
 30
0.0
  0
SEQEND
  0
POLYLINE
  8
0
 66
1
 10
0.0
 20
0.0
 30
0.0
 70
8
  0
VERTEX
  8
0
 10
31000.0
 20
1000.0
 30
0.0
  0
VERTEX
  8
0
 10
31060.0
 20
1000.0
 30
0.0
  0
VERTEX
  8
0
 10
31060.0
 20
980.0
 30
0.0
  0
VERTEX
  8
0
 10
31070.0
 20
980.0
 30
0.0
  0
VERTEX
  8
0
 10
31110.0
 20
1020.0
 30
0.0
  0
VERTEX
  8
0
 10
31110.0
 20
1040.0
 30
0.0
  0
VERTEX
  8
0
 10
31080.0
 20
1040.0
 30
0.0
  0
VERTEX
  8
0
 10
31080.0
 20
1010.0
 30
0.0
  0
VERTEX
  8
0
 10
31020.0
 20
1010.0
 30
0.0
  0
VERTEX
  8
0
 10
31020.0
 20
1040.0
 30
0.0
  0
VERTEX
  8
0
 10
31000.0
 20
1040.0
 30
0.0
  0
VERTEX
  8
0
 10
31000.0
 20
1000.0
 30
0.0
  0
SEQEND
  0
POLYLINE
  8
0
 66
1
 10
0.0
 20
0.0
 30
0.0
 70
8
  0
VERTEX
  8
0
 10
32000.0
 20
1000.0
 30
0.0
  0
VERTEX
  8
0
 10
32020.0
 20
1000.0
 30
0.0
  0
VERTEX
  8
0
 10
32020.0
 20
980.0
 30
0.0
  0
VERTEX
  8
0
 10
32040.0
 20
980.0
 30
0.0
  0
VERTEX
  8
0
 10
32040.0
 20
1000.0
 30
0.0
  0
VERTEX
  8
0
 10
32060.0
 20
1000.0
 30
0.0
  0
VERTEX
  8
0
 10
32060.0
 20
1020.0
 30
0.0
  0
VERTEX
  8
0
 10
32040.0
 20
1020.0
 30
0.0
  0
VERTEX
  8
0
 10
32040.0
 20
1040.0
 30
0.0
  0
VERTEX
  8
0
 10
32020.0
 20
1040.0
 30
0.0
  0
VERTEX
  8
0
 10
32020.0
 20
1020.0
 30
0.0
  0
VERTEX
  8
0
 10
32000.0
 20
1020.0
 30
0.0
  0
VERTEX
  8
0
 10
32000.0
 20
1000.0
 30
0.0
  0
SEQEND
  0
POLYLINE
  8
0
 66
1
 10
0.0
 20
0.0
 30
0.0
 70
8
  0
VERTEX
  8
0
 10
33000.0
 20
1000.0
 30
0.0
  0
VERTEX
  8
0
 10
33020.0
 20
1000.0
 30
0.0
  0
VERTEX
  8
0
 10
33020.0
 20
980.0
 30
0.0
  0
VERTEX
  8
0
 10
33040.0
 20
980.0
 30
0.0
  0
VERTEX
  8
0
 10
33040.0
 20
1000.0
 30
0.0
  0
VERTEX
  8
0
 10
33060.0
 20
1000.0
 30
0.0
  0
VERTEX
  8
0
 10
33060.0
 20
1020.0
 30
0.0
  0
VERTEX
  8
0
 10
33040.0
 20
1020.0
 30
0.0
  0
VERTEX
  8
0
 10
33040.0
 20
1040.0
 30
0.0
  0
VERTEX
  8
0
 10
33020.0
 20
1040.0
 30
0.0
  0
VERTEX
  8
0
 10
33020.0
 20
1020.0
 30
0.0
  0
VERTEX
  8
0
 10
33000.0
 20
1020.0
 30
0.0
  0
VERTEX
  8
0
 10
33000.0
 20
1000.0
 30
0.0
  0
SEQEND
  0
POLYLINE
  8
0
 66
1
 10
0.0
 20
0.0
 30
0.0
 70
8
  0
VERTEX
  8
0
 10
34000.0
 20
1000.0
 30
0.0
  0
VERTEX
  8
0
 10
34020.0
 20
1000.0
 30
0.0
  0
VERTEX
  8
0
 10
34020.0
 20
980.0
 30
0.0
  0
VERTEX
  8
0
 10
34040.0
 20
980.0
 30
0.0
  0
VERTEX
  8
0
 10
34040.0
 20
1000.0
 30
0.0
  0
VERTEX
  8
0
 10
34060.0
 20
1000.0
 30
0.0
  0
VERTEX
  8
0
 10
34060.0
 20
1020.0
 30
0.0
  0
VERTEX
  8
0
 10
34040.0
 20
1020.0
 30
0.0
  0
VERTEX
  8
0
 10
34040.0
 20
1040.0
 30
0.0
  0
VERTEX
  8
0
 10
34020.0
 20
1040.0
 30
0.0
  0
VERTEX
  8
0
 10
34020.0
 20
1020.0
 30
0.0
  0
VERTEX
  8
0
 10
34000.0
 20
1020.0
 30
0.0
  0
VERTEX
  8
0
 10
34000.0
 20
1000.0
 30
0.0
  0
SEQEND
  0
POLYLINE
  8
0
 66
1
 10
0.0
 20
0.0
 30
0.0
 70
8
  0
VERTEX
  8
0
 10
35000.0
 20
1000.0
 30
0.0
  0
VERTEX
  8
0
 10
35020.0
 20
1000.0
 30
0.0
  0
VERTEX
  8
0
 10
35020.0
 20
980.0
 30
0.0
  0
VERTEX
  8
0
 10
35040.0
 20
980.0
 30
0.0
  0
VERTEX
  8
0
 10
35040.0
 20
1000.0
 30
0.0
  0
VERTEX
  8
0
 10
35060.0
 20
1000.0
 30
0.0
  0
VERTEX
  8
0
 10
35060.0
 20
1020.0
 30
0.0
  0
VERTEX
  8
0
 10
35040.0
 20
1020.0
 30
0.0
  0
VERTEX
  8
0
 10
35040.0
 20
1040.0
 30
0.0
  0
VERTEX
  8
0
 10
35020.0
 20
1040.0
 30
0.0
  0
VERTEX
  8
0
 10
35020.0
 20
1020.0
 30
0.0
  0
VERTEX
  8
0
 10
35000.0
 20
1020.0
 30
0.0
  0
VERTEX
  8
0
 10
35000.0
 20
1000.0
 30
0.0
  0
SEQEND
  0
POLYLINE
  8
0
 66
1
 10
0.0
 20
0.0
 30
0.0
 70
8
  0
VERTEX
  8
0
 10
36000.0
 20
1000.0
 30
0.0
  0
VERTEX
  8
0
 10
36020.0
 20
1000.0
 30
0.0
  0
VERTEX
  8
0
 10
36020.0
 20
980.0
 30
0.0
  0
VERTEX
  8
0
 10
36040.0
 20
980.0
 30
0.0
  0
VERTEX
  8
0
 10
36040.0
 20
1000.0
 30
0.0
  0
VERTEX
  8
0
 10
36060.0
 20
1000.0
 30
0.0
  0
VERTEX
  8
0
 10
36060.0
 20
1020.0
 30
0.0
  0
VERTEX
  8
0
 10
36040.0
 20
1020.0
 30
0.0
  0
VERTEX
  8
0
 10
36040.0
 20
1040.0
 30
0.0
  0
VERTEX
  8
0
 10
36020.0
 20
1040.0
 30
0.0
  0
VERTEX
  8
0
 10
36020.0
 20
1020.0
 30
0.0
  0
VERTEX
  8
0
 10
36000.0
 20
1020.0
 30
0.0
  0
VERTEX
  8
0
 10
36000.0
 20
1000.0
 30
0.0
  0
SEQEND
  0
POLYLINE
  8
0
 66
1
 10
0.0
 20
0.0
 30
0.0
 70
8
  0
VERTEX
  8
0
 10
37000.0
 20
1000.0
 30
0.0
  0
VERTEX
  8
0
 10
37020.0
 20
1000.0
 30
0.0
  0
VERTEX
  8
0
 10
37020.0
 20
980.0
 30
0.0
  0
VERTEX
  8
0
 10
37040.0
 20
980.0
 30
0.0
  0
VERTEX
  8
0
 10
37040.0
 20
1000.0
 30
0.0
  0
VERTEX
  8
0
 10
37060.0
 20
1000.0
 30
0.0
  0
VERTEX
  8
0
 10
37060.0
 20
1020.0
 30
0.0
  0
VERTEX
  8
0
 10
37040.0
 20
1020.0
 30
0.0
  0
VERTEX
  8
0
 10
37040.0
 20
1040.0
 30
0.0
  0
VERTEX
  8
0
 10
37020.0
 20
1040.0
 30
0.0
  0
VERTEX
  8
0
 10
37020.0
 20
1020.0
 30
0.0
  0
VERTEX
  8
0
 10
37000.0
 20
1020.0
 30
0.0
  0
VERTEX
  8
0
 10
37000.0
 20
1000.0
 30
0.0
  0
SEQEND
  0
POLYLINE
  8
0
 66
1
 10
0.0
 20
0.0
 30
0.0
 70
8
  0
VERTEX
  8
0
 10
38000.0
 20
1000.0
 30
0.0
  0
VERTEX
  8
0
 10
38020.0
 20
1000.0
 30
0.0
  0
VERTEX
  8
0
 10
38020.0
 20
980.0
 30
0.0
  0
VERTEX
  8
0
 10
38040.0
 20
980.0
 30
0.0
  0
VERTEX
  8
0
 10
38040.0
 20
1000.0
 30
0.0
  0
VERTEX
  8
0
 10
38060.0
 20
1000.0
 30
0.0
  0
VERTEX
  8
0
 10
38060.0
 20
1020.0
 30
0.0
  0
VERTEX
  8
0
 10
38040.0
 20
1020.0
 30
0.0
  0
VERTEX
  8
0
 10
38040.0
 20
1040.0
 30
0.0
  0
VERTEX
  8
0
 10
38020.0
 20
1040.0
 30
0.0
  0
VERTEX
  8
0
 10
38020.0
 20
1020.0
 30
0.0
  0
VERTEX
  8
0
 10
38000.0
 20
1020.0
 30
0.0
  0
VERTEX
  8
0
 10
38000.0
 20
1000.0
 30
0.0
  0
SEQEND
  0
POLYLINE
  8
0
 66
1
 10
0.0
 20
0.0
 30
0.0
 70
8
  0
VERTEX
  8
0
 10
39000.0
 20
1000.0
 30
0.0
  0
VERTEX
  8
0
 10
39020.0
 20
1000.0
 30
0.0
  0
VERTEX
  8
0
 10
39020.0
 20
980.0
 30
0.0
  0
VERTEX
  8
0
 10
39040.0
 20
980.0
 30
0.0
  0
VERTEX
  8
0
 10
39040.0
 20
1000.0
 30
0.0
  0
VERTEX
  8
0
 10
39060.0
 20
1000.0
 30
0.0
  0
VERTEX
  8
0
 10
39060.0
 20
1020.0
 30
0.0
  0
VERTEX
  8
0
 10
39040.0
 20
1020.0
 30
0.0
  0
VERTEX
  8
0
 10
39040.0
 20
1040.0
 30
0.0
  0
VERTEX
  8
0
 10
39020.0
 20
1040.0
 30
0.0
  0
VERTEX
  8
0
 10
39020.0
 20
1020.0
 30
0.0
  0
VERTEX
  8
0
 10
39000.0
 20
1020.0
 30
0.0
  0
VERTEX
  8
0
 10
39000.0
 20
1000.0
 30
0.0
  0
SEQEND
  0
POLYLINE
  8
0
 66
1
 10
0.0
 20
0.0
 30
0.0
 70
8
  0
VERTEX
  8
0
 10
40000.0
 20
1000.0
 30
0.0
  0
VERTEX
  8
0
 10
40020.0
 20
1000.0
 30
0.0
  0
VERTEX
  8
0
 10
40020.0
 20
980.0
 30
0.0
  0
VERTEX
  8
0
 10
40040.0
 20
980.0
 30
0.0
  0
VERTEX
  8
0
 10
40040.0
 20
1000.0
 30
0.0
  0
VERTEX
  8
0
 10
40060.0
 20
1000.0
 30
0.0
  0
VERTEX
  8
0
 10
40060.0
 20
1020.0
 30
0.0
  0
VERTEX
  8
0
 10
40040.0
 20
1020.0
 30
0.0
  0
VERTEX
  8
0
 10
40040.0
 20
1040.0
 30
0.0
  0
VERTEX
  8
0
 10
40020.0
 20
1040.0
 30
0.0
  0
VERTEX
  8
0
 10
40020.0
 20
1020.0
 30
0.0
  0
VERTEX
  8
0
 10
40000.0
 20
1020.0
 30
0.0
  0
VERTEX
  8
0
 10
40000.0
 20
1000.0
 30
0.0
  0
SEQEND
  0
POLYLINE
  8
0
 66
1
 10
0.0
 20
0.0
 30
0.0
 70
8
  0
VERTEX
  8
0
 10
41000.0
 20
1000.0
 30
0.0
  0
VERTEX
  8
0
 10
41020.0
 20
1000.0
 30
0.0
  0
VERTEX
  8
0
 10
41020.0
 20
980.0
 30
0.0
  0
VERTEX
  8
0
 10
41040.0
 20
980.0
 30
0.0
  0
VERTEX
  8
0
 10
41040.0
 20
1000.0
 30
0.0
  0
VERTEX
  8
0
 10
41060.0
 20
1000.0
 30
0.0
  0
VERTEX
  8
0
 10
41060.0
 20
1020.0
 30
0.0
  0
VERTEX
  8
0
 10
41040.0
 20
1020.0
 30
0.0
  0
VERTEX
  8
0
 10
41040.0
 20
1040.0
 30
0.0
  0
VERTEX
  8
0
 10
41020.0
 20
1040.0
 30
0.0
  0
VERTEX
  8
0
 10
41020.0
 20
1020.0
 30
0.0
  0
VERTEX
  8
0
 10
41000.0
 20
1020.0
 30
0.0
  0
VERTEX
  8
0
 10
41000.0
 20
1000.0
 30
0.0
  0
SEQEND
  0
POLYLINE
  8
0
 66
1
 10
0.0
 20
0.0
 30
0.0
 70
8
  0
VERTEX
  8
0
 10
42000.0
 20
1000.0
 30
0.0
  0
VERTEX
  8
0
 10
42020.0
 20
1000.0
 30
0.0
  0
VERTEX
  8
0
 10
42020.0
 20
980.0
 30
0.0
  0
VERTEX
  8
0
 10
42040.0
 20
980.0
 30
0.0
  0
VERTEX
  8
0
 10
42040.0
 20
1000.0
 30
0.0
  0
VERTEX
  8
0
 10
42060.0
 20
1000.0
 30
0.0
  0
VERTEX
  8
0
 10
42060.0
 20
1020.0
 30
0.0
  0
VERTEX
  8
0
 10
42040.0
 20
1020.0
 30
0.0
  0
VERTEX
  8
0
 10
42040.0
 20
1040.0
 30
0.0
  0
VERTEX
  8
0
 10
42020.0
 20
1040.0
 30
0.0
  0
VERTEX
  8
0
 10
42020.0
 20
1020.0
 30
0.0
  0
VERTEX
  8
0
 10
42000.0
 20
1020.0
 30
0.0
  0
VERTEX
  8
0
 10
42000.0
 20
1000.0
 30
0.0
  0
SEQEND
  0
POLYLINE
  8
0
 66
1
 10
0.0
 20
0.0
 30
0.0
 70
8
  0
VERTEX
  8
0
 10
43000.0
 20
1000.0
 30
0.0
  0
VERTEX
  8
0
 10
43020.0
 20
1000.0
 30
0.0
  0
VERTEX
  8
0
 10
43020.0
 20
980.0
 30
0.0
  0
VERTEX
  8
0
 10
43040.0
 20
980.0
 30
0.0
  0
VERTEX
  8
0
 10
43040.0
 20
1000.0
 30
0.0
  0
VERTEX
  8
0
 10
43060.0
 20
1000.0
 30
0.0
  0
VERTEX
  8
0
 10
43060.0
 20
1020.0
 30
0.0
  0
VERTEX
  8
0
 10
43040.0
 20
1020.0
 30
0.0
  0
VERTEX
  8
0
 10
43040.0
 20
1040.0
 30
0.0
  0
VERTEX
  8
0
 10
43020.0
 20
1040.0
 30
0.0
  0
VERTEX
  8
0
 10
43020.0
 20
1020.0
 30
0.0
  0
VERTEX
  8
0
 10
43000.0
 20
1020.0
 30
0.0
  0
VERTEX
  8
0
 10
43000.0
 20
1000.0
 30
0.0
  0
SEQEND
  0
ENDSEC
  0
EOF
