  0
SECTION
  2
HEADER
  9
$ACADVER
  1
AC1009
  9
$INSBASE
 10
0.0
 20
0.0
 30
0.0
  9
$EXTMIN
 10
0.0
 20
0.0
 30
0.0
  9
$EXTMAX
 10
100.0
 20
100.0
 30
0.0
  9
$UNITMODE
 70
0
  9
$AUNITS
 70
0
  9
$ANGBASE
 50
0.0
  9
$ANGDIR
 70
0
  0
ENDSEC
  0
SECTION
  2
TABLES
  0
TABLE
  2
LTYPE
 70
19
  0
LTYPE
  2
CONTINUOUS
 70
0
  3
Solid
 72
65
 73
0
 40
0.0
  0
LTYPE
  2
CENTER
 70
0
  3
Center ____ _ ____ _ ____ _ ____ _ ____ _ ____
 72
65
 73
4
 40
2.0
 49
1.25
 49
-0.25
 49
0.25
 49
-0.25
  0
LTYPE
  2
CENTERX2
 70
0
  3
Center (2x) ________  __  ________  __  ________
 72
65
 73
4
 40
3.5
 49
2.5
 49
-0.25
 49
0.5
 49
-0.25
  0
LTYPE
  2
CENTER2
 70
0
  3
Center (.5x) ____ _ ____ _ ____ _ ____ _ ____
 72
65
 73
4
 40
1.0
 49
0.625
 49
-0.125
 49
0.125
 49
-0.125
  0
LTYPE
  2
DASHED
 70
0
  3
Dashed __ __ __ __ __ __ __ __ __ __ __ __ __ _
 72
65
 73
2
 40
0.6
 49
0.5
 49
-0.1
  0
LTYPE
  2
DASHEDX2
 70
0
  3
Dashed (2x) ____  ____  ____  ____  ____  ____
 72
65
 73
2
 40
1.2
 49
1.0
 49
-0.2
  0
LTYPE
  2
DASHED2
 70
0
  3
Dashed (.5x) _ _ _ _ _ _ _ _ _ _ _ _ _ _
 72
65
 73
2
 40
0.3
 49
0.25
 49
-0.05
  0
LTYPE
  2
PHANTOM
 70
0
  3
Phantom ______  __  __  ______  __  __  ______
 72
65
 73
6
 40
2.5
 49
1.25
 49
-0.25
 49
0.25
 49
-0.25
 49
0.25
 49
-0.25
  0
LTYPE
  2
PHANTOMX2
 70
0
  3
Phantom (2x)____________    ____    ____    ____________
 72
65
 73
6
 40
4.25
 49
2.5
 49
-0.25
 49
0.5
 49
-0.25
 49
0.5
 49
-0.25
  0
LTYPE
  2
PHANTOM2
 70
0
  3
Phantom (.5x) ___ _ _ ___ _ _ ___ _ _ ___ _ _ ___
 72
65
 73
6
 40
1.25
 49
0.625
 49
-0.125
 49
0.125
 49
-0.125
 49
0.125
 49
-0.125
  0
LTYPE
  2
DASHDOT
 70
0
  3
Dash dot __ . __ . __ . __ . __ . __ . __ . __
 72
65
 73
4
 40
1.4
 49
1.0
 49
-0.2
 49
0.0
 49
-0.2
  0
LTYPE
  2
DASHDOTX2
 70
0
  3
Dash dot (2x) ____  .  ____  .  ____  .  ____
 72
65
 73
4
 40
2.4
 49
2.0
 49
-0.2
 49
0.0
 49
-0.2
  0
LTYPE
  2
DASHDOT2
 70
0
  3
Dash dot (.5x) _ . _ . _ . _ . _ . _ . _ . _
 72
65
 73
4
 40
0.7
 49
0.5
 49
-0.1
 49
0.0
 49
-0.1
  0
LTYPE
  2
DOT
 70
0
  3
Dot .  .  .  .  .  .  .  .  .  .  .  .  .  .  .  .
 72
65
 73
2
 40
0.2
 49
0.0
 49
-0.2
  0
LTYPE
  2
DOTX2
 70
0
  3
Dot (2x) .    .    .    .    .    .    .    . 
 72
65
 73
2
 40
0.4
 49
0.0
 49
-0.4
  0
LTYPE
  2
DOT2
 70
0
  3
Dot (.5) . . . . . . . . . . . . . . . . . . . 
 72
65
 73
2
 40
0.1
 49
0.0
 49
-0.1
  0
LTYPE
  2
DIVIDE
 70
0
  3
Divide __ . . __ . . __ . . __ . . __ . . __
 72
65
 73
6
 40
1.6
 49
1.0
 49
-0.2
 49
0.0
 49
-0.2
 49
0.0
 49
-0.2
  0
LTYPE
  2
DIVIDEX2
 70
0
  3
Divide (2x) ____  . .  ____  . .  ____  . .  ____
 72
65
 73
6
 40
2.6
 49
2.0
 49
-0.2
 49
0.0
 49
-0.2
 49
0.0
 49
-0.2
  0
LTYPE
  2
DIVIDE2
 70
0
  3
Divide(.5x) _ . _ . _ . _ . _ . _ . _ . _
 72
65
 73
6
 40
0.8
 49
0.5
 49
-0.1
 49
0.0
 49
-0.1
 49
0.0
 49
-0.1
  0
ENDTAB
  0
TABLE
  2
LAYER
 70
5
  0
LAYER
  2
DIMENSIONS
 70
0
 62
1
  6
CONTINUOUS
  0
LAYER
  2
TABLEBACKGROUND
 70
0
 62
1
  6
CONTINUOUS
  0
LAYER
  2
TABLECONTENT
 70
0
 62
1
  6
CONTINUOUS
  0
LAYER
  2
TABLEGRID
 70
0
 62
1
  6
CONTINUOUS
  0
LAYER
  2
VIEWPORTS
 70
0
 62
7
  6
CONTINUOUS
  0
ENDTAB
  0
TABLE
  2
STYLE
 70
12
  0
STYLE
  2
STANDARD
 70
0
 40
0.0
 41
1.0
 42
1.0
 50
0.0
 71
0
  3
arial.ttf
  4

  0
STYLE
  2
ARIAL
 70
0
 40
0.0
 41
1.0
 42
1.0
 50
0.0
 71
0
  3
arial.ttf
  4

  0
STYLE
  2
ARIAL_BOLD
 70
0
 40
0.0
 41
1.0
 42
1.0
 50
0.0
 71
0
  3
arialbd.ttf
  4

  0
STYLE
  2
ARIAL_ITALIC
 70
0
 40
0.0
 41
1.0
 42
1.0
 50
0.0
 71
0
  3
ariali.ttf
  4

  0
STYLE
  2
ARIAL_BOLD_ITALIC
 70
0
 40
0.0
 41
1.0
 42
1.0
 50
0.0
 71
0
  3
arialbi.ttf
  4

  0
STYLE
  2
ARIAL_BLACK
 70
0
 40
0.0
 41
1.0
 42
1.0
 50
0.0
 71
0
  3
ariblk.ttf
  4

  0
STYLE
  2
ISOCPEUR
 70
0
 40
0.0
 41
1.0
 42
1.0
 50
0.0
 71
0
  3
isocpeur.ttf
  4

  0
STYLE
  2
ISOCPEUR_ITALIC
 70
0
 40
0.0
 41
1.0
 42
1.0
 50
0.0
 71
0
  3
isocpeui.ttf
  4

  0
STYLE
  2
TIMES
 70
0
 40
0.0
 41
1.0
 42
1.0
 50
0.0
 71
0
  3
times.ttf
  4

  0
STYLE
  2
TIMES_BOLD
 70
0
 40
0.0
 41
1.0
 42
1.0
 50
0.0
 71
0
  3
timesbd.ttf
  4

  0
STYLE
  2
TIMES_ITALIC
 70
0
 40
0.0
 41
1.0
 42
1.0
 50
0.0
 71
0
  3
timesi.ttf
  4

  0
STYLE
  2
TIMES_BOLD_ITALIC
 70
0
 40
0.0
 41
1.0
 42
1.0
 50
0.0
 71
0
  3
timesbi.ttf
  4

  0
ENDTAB
  0
TABLE
  2
VIEW
 70
0
  0
ENDTAB
  0
TABLE
  2
APPID
 70
1
  0
APPID
  2
DXFWRITE
 70
0
  0
ENDTAB
  0
TABLE
  2
VPORT
 70
0
  0
ENDTAB
  0
TABLE
  2
UCS
 70
0
  0
ENDTAB
  0
ENDSEC
  0
SECTION
  2
BLOCKS
  0
ENDSEC
  0
SECTION
  2
ENTITIES
  0
VIEWPORT
  8
VIEWPORTS
 67
1
 10
0.0
 20
0.0
 30
0.0
 40
1.0
 41
1.0
 68
1
 69
1
1001
ACAD
1000
MVIEW
1002
{
1070
16
1010
0.0
1020
0.0
1030
0.0
1010
0.0
1020
0.0
1030
0.0
1040
0.0
1040
1.0
1040
0.0
1040
0.0
1040
50.0
1040
0.0
1040
0.0
1070
0
1070
100
1070
1
1070
3
1070
0
1070
0
1070
0
1070
0
1040
0.0
1040
0.0
1040
0.0
1040
0.1
1040
0.1
1040
0.1
1040
0.1
1070
0
1002
{
1002
}
1002
}
  0
POLYLINE
  8
0
 66
1
 10
0.0
 20
0.0
 30
0.0
 70
8
  0
VERTEX
  8
0
 10
1000.0
 20
1000.0
 30
0.0
  0
VERTEX
  8
0
 10
999.5
 20
967.9
 30
0.0
  0
VERTEX
  8
0
 10
1000.1
 20
935.8
 30
0.0
  0
VERTEX
  8
0
 10
1015.1
 20
934.0
 30
0.0
  0
VERTEX
  8
0
 10
1025.9
 20
930.9
 30
0.0
  0
VERTEX
  8
0
 10
1042.3
 20
926.2
 30
0.0
  0
VERTEX
  8
0
 10
1054.7
 20
923.0
 30
0.0
  0
VERTEX
  8
0
 10
1068.0
 20
919.9
 30
0.0
  0
VERTEX
  8
0
 10
1085.8
 20
916.3
 30
0.0
  0
VERTEX
  8
0
 10
1098.8
 20
931.8
 30
0.0
  0
VERTEX
  8
0
 10
1107.5
 20
938.0
 30
0.0
  0
VERTEX
  8
0
 10
1121.1
 20
944.7
 30
0.0
  0
VERTEX
  8
0
 10
1131.9
 20
947.3
 30
0.0
  0
VERTEX
  8
0
 10
1148.1
 20
947.4
 30
0.0
  0
VERTEX
  8
0
 10
1159.7
 20
946.0
 30
0.0
  0
VERTEX
  8
0
 10
1173.7
 20
943.6
 30
0.0
  0
VERTEX
  8
0
 10
1171.9
 20
956.0
 30
0.0
  0
VERTEX
  8
0
 10
1170.8
 20
968.3
 30
0.0
  0
VERTEX
  8
0
 10
1171.8
 20
980.6
 30
0.0
  0
VERTEX
  8
0
 10
1173.6
 20
993.0
 30
0.0
  0
VERTEX
  8
0
 10
1159.6
 20
990.5
 30
0.0
  0
VERTEX
  8
0
 10
1148.0
 20
989.1
 30
0.0
  0
VERTEX
  8
0
 10
1131.8
 20
989.1
 30
0.0
  0
VERTEX
  8
0
 10
1121.0
 20
991.7
 30
0.0
  0
VERTEX
  8
0
 10
1107.4
 20
998.3
 30
0.0
  0
VERTEX
  8
0
 10
1098.6
 20
1004.5
 30
0.0
  0
VERTEX
  8
0
 10
1085.6
 20
1019.9
 30
0.0
  0
VERTEX
  8
0
 10
1067.8
 20
1016.2
 30
0.0
  0
VERTEX
  8
0
 10
1054.5
 20
1013.1
 30
0.0
  0
VERTEX
  8
0
 10
1042.1
 20
1009.8
 30
0.0
  0
VERTEX
  8
0
 10
1025.7
 20
1005.0
 30
0.0
  0
VERTEX
  8
0
 10
1014.9
 20
1001.9
 30
0.0
  0
VERTEX
  8
0
 10
1000.0
 20
1000.0
 30
0.0
  0
SEQEND
  0
POLYLINE
  8
0
 66
1
 10
0.0
 20
0.0
 30
0.0
 70
8
  0
VERTEX
  8
0
 10
2000.0
 20
1000.0
 30
0.0
  0
VERTEX
  8
0
 10
1999.5
 20
967.9
 30
0.0
  0
VERTEX
  8
0
 10
2000.1
 20
935.8
 30
0.0
  0
VERTEX
  8
0
 10
2015.1
 20
934.0
 30
0.0
  0
VERTEX
  8
0
 10
2025.9
 20
930.9
 30
0.0
  0
VERTEX
  8
0
 10
2042.3
 20
926.2
 30
0.0
  0
VERTEX
  8
0
 10
2054.7
 20
923.0
 30
0.0
  0
VERTEX
  8
0
 10
2068.0
 20
919.9
 30
0.0
  0
VERTEX
  8
0
 10
2085.8
 20
916.3
 30
0.0
  0
VERTEX
  8
0
 10
2098.8
 20
931.8
 30
0.0
  0
VERTEX
  8
0
 10
2107.5
 20
938.0
 30
0.0
  0
VERTEX
  8
0
 10
2121.1
 20
944.7
 30
0.0
  0
VERTEX
  8
0
 10
2131.9
 20
947.3
 30
0.0
  0
VERTEX
  8
0
 10
2148.1
 20
947.4
 30
0.0
  0
VERTEX
  8
0
 10
2159.7
 20
946.0
 30
0.0
  0
VERTEX
  8
0
 10
2173.7
 20
943.6
 30
0.0
  0
VERTEX
  8
0
 10
2171.9
 20
956.0
 30
0.0
  0
VERTEX
  8
0
 10
2170.8
 20
968.3
 30
0.0
  0
VERTEX
  8
0
 10
2171.8
 20
980.6
 30
0.0
  0
VERTEX
  8
0
 10
2173.6
 20
993.0
 30
0.0
  0
VERTEX
  8
0
 10
2159.6
 20
990.5
 30
0.0
  0
VERTEX
  8
0
 10
2148.0
 20
989.1
 30
0.0
  0
VERTEX
  8
0
 10
2131.8
 20
989.1
 30
0.0
  0
VERTEX
  8
0
 10
2121.0
 20
991.7
 30
0.0
  0
VERTEX
  8
0
 10
2107.4
 20
998.3
 30
0.0
  0
VERTEX
  8
0
 10
2098.6
 20
1004.5
 30
0.0
  0
VERTEX
  8
0
 10
2085.6
 20
1019.9
 30
0.0
  0
VERTEX
  8
0
 10
2067.8
 20
1016.2
 30
0.0
  0
VERTEX
  8
0
 10
2054.5
 20
1013.1
 30
0.0
  0
VERTEX
  8
0
 10
2042.1
 20
1009.8
 30
0.0
  0
VERTEX
  8
0
 10
2025.7
 20
1005.0
 30
0.0
  0
VERTEX
  8
0
 10
2014.9
 20
1001.9
 30
0.0
  0
VERTEX
  8
0
 10
2000.0
 20
1000.0
 30
0.0
  0
SEQEND
  0
POLYLINE
  8
0
 66
1
 10
0.0
 20
0.0
 30
0.0
 70
8
  0
VERTEX
  8
0
 10
3000.0
 20
1000.0
 30
0.0
  0
VERTEX
  8
0
 10
2999.5
 20
967.9
 30
0.0
  0
VERTEX
  8
0
 10
3000.1
 20
935.8
 30
0.0
  0
VERTEX
  8
0
 10
3015.1
 20
934.0
 30
0.0
  0
VERTEX
  8
0
 10
3025.9
 20
930.9
 30
0.0
  0
VERTEX
  8
0
 10
3042.3
 20
926.2
 30
0.0
  0
VERTEX
  8
0
 10
3054.7
 20
923.0
 30
0.0
  0
VERTEX
  8
0
 10
3068.0
 20
919.9
 30
0.0
  0
VERTEX
  8
0
 10
3085.8
 20
916.3
 30
0.0
  0
VERTEX
  8
0
 10
3098.8
 20
931.8
 30
0.0
  0
VERTEX
  8
0
 10
3107.5
 20
938.0
 30
0.0
  0
VERTEX
  8
0
 10
3121.1
 20
944.7
 30
0.0
  0
VERTEX
  8
0
 10
3131.9
 20
947.3
 30
0.0
  0
VERTEX
  8
0
 10
3148.1
 20
947.4
 30
0.0
  0
VERTEX
  8
0
 10
3159.7
 20
946.0
 30
0.0
  0
VERTEX
  8
0
 10
3173.7
 20
943.6
 30
0.0
  0
VERTEX
  8
0
 10
3171.9
 20
956.0
 30
0.0
  0
VERTEX
  8
0
 10
3170.8
 20
968.3
 30
0.0
  0
VERTEX
  8
0
 10
3171.8
 20
980.6
 30
0.0
  0
VERTEX
  8
0
 10
3173.6
 20
993.0
 30
0.0
  0
VERTEX
  8
0
 10
3159.6
 20
990.5
 30
0.0
  0
VERTEX
  8
0
 10
3148.0
 20
989.1
 30
0.0
  0
VERTEX
  8
0
 10
3131.8
 20
989.1
 30
0.0
  0
VERTEX
  8
0
 10
3121.0
 20
991.7
 30
0.0
  0
VERTEX
  8
0
 10
3107.4
 20
998.3
 30
0.0
  0
VERTEX
  8
0
 10
3098.6
 20
1004.5
 30
0.0
  0
VERTEX
  8
0
 10
3085.6
 20
1019.9
 30
0.0
  0
VERTEX
  8
0
 10
3067.8
 20
1016.2
 30
0.0
  0
VERTEX
  8
0
 10
3054.5
 20
1013.1
 30
0.0
  0
VERTEX
  8
0
 10
3042.1
 20
1009.8
 30
0.0
  0
VERTEX
  8
0
 10
3025.7
 20
1005.0
 30
0.0
  0
VERTEX
  8
0
 10
3014.9
 20
1001.9
 30
0.0
  0
VERTEX
  8
0
 10
3000.0
 20
1000.0
 30
0.0
  0
SEQEND
  0
POLYLINE
  8
0
 66
1
 10
0.0
 20
0.0
 30
0.0
 70
8
  0
VERTEX
  8
0
 10
4000.0
 20
1000.0
 30
0.0
  0
VERTEX
  8
0
 10
4000.8
 20
985.2
 30
0.0
  0
VERTEX
  8
0
 10
4002.69623
 20
970.03019
 30
0.0
  0
VERTEX
  8
0
 10
4006.84435
 20
953.75679
 30
0.0
  0
VERTEX
  8
0
 10
4017.9
 20
955.1
 30
0.0
  0
VERTEX
  8
0
 10
4028.8
 20
955.4
 30
0.0
  0
VERTEX
  8
0
 10
4040.1
 20
953.7
 30
0.0
  0
VERTEX
  8
0
 10
4054.8
 20
950.3
 30
0.0
  0
VERTEX
  8
0
 10
4076.40157
 20
945.44383
 30
0.0
  0
VERTEX
  8
0
 10
4080.5
 20
965.0
 30
0.0
  0
VERTEX
  8
0
 10
4088.7
 20
980.4
 30
0.0
  0
VERTEX
  8
0
 10
4075.5
 20
982.4
 30
0.0
  0
VERTEX
  8
0
 10
4065.5
 20
984.5
 30
0.0
  0
VERTEX
  8
0
 10
4052.3
 20
987.9
 30
0.0
  0
VERTEX
  8
0
 10
4027.2
 20
994.8
 30
0.0
  0
VERTEX
  8
0
 10
4011.74533
 20
998.81227
 30
0.0
  0
VERTEX
  8
0
 10
4000.0
 20
1000.0
 30
0.0
  0
SEQEND
  0
POLYLINE
  8
0
 66
1
 10
0.0
 20
0.0
 30
0.0
 70
8
  0
VERTEX
  8
0
 10
5000.0
 20
1000.0
 30
0.0
  0
VERTEX
  8
0
 10
5000.8
 20
985.2
 30
0.0
  0
VERTEX
  8
0
 10
5002.69623
 20
970.03019
 30
0.0
  0
VERTEX
  8
0
 10
5006.84435
 20
953.75679
 30
0.0
  0
VERTEX
  8
0
 10
5017.9
 20
955.1
 30
0.0
  0
VERTEX
  8
0
 10
5028.8
 20
955.4
 30
0.0
  0
VERTEX
  8
0
 10
5040.1
 20
953.7
 30
0.0
  0
VERTEX
  8
0
 10
5054.8
 20
950.3
 30
0.0
  0
VERTEX
  8
0
 10
5076.40157
 20
945.44383
 30
0.0
  0
VERTEX
  8
0
 10
5080.5
 20
965.0
 30
0.0
  0
VERTEX
  8
0
 10
5088.7
 20
980.4
 30
0.0
  0
VERTEX
  8
0
 10
5075.5
 20
982.4
 30
0.0
  0
VERTEX
  8
0
 10
5065.5
 20
984.5
 30
0.0
  0
VERTEX
  8
0
 10
5052.3
 20
987.9
 30
0.0
  0
VERTEX
  8
0
 10
5027.2
 20
994.8
 30
0.0
  0
VERTEX
  8
0
 10
5011.74533
 20
998.81227
 30
0.0
  0
VERTEX
  8
0
 10
5000.0
 20
1000.0
 30
0.0
  0
SEQEND
  0
POLYLINE
  8
0
 66
1
 10
0.0
 20
0.0
 30
0.0
 70
8
  0
VERTEX
  8
0
 10
6000.0
 20
1000.0
 30
0.0
  0
VERTEX
  8
0
 10
6000.8
 20
985.2
 30
0.0
  0
VERTEX
  8
0
 10
6002.69623
 20
970.03019
 30
0.0
  0
VERTEX
  8
0
 10
6006.84435
 20
953.75679
 30
0.0
  0
VERTEX
  8
0
 10
6017.9
 20
955.1
 30
0.0
  0
VERTEX
  8
0
 10
6028.8
 20
955.4
 30
0.0
  0
VERTEX
  8
0
 10
6040.1
 20
953.7
 30
0.0
  0
VERTEX
  8
0
 10
6054.8
 20
950.3
 30
0.0
  0
VERTEX
  8
0
 10
6076.40157
 20
945.44383
 30
0.0
  0
VERTEX
  8
0
 10
6080.5
 20
965.0
 30
0.0
  0
VERTEX
  8
0
 10
6088.7
 20
980.4
 30
0.0
  0
VERTEX
  8
0
 10
6075.5
 20
982.4
 30
0.0
  0
VERTEX
  8
0
 10
6065.5
 20
984.5
 30
0.0
  0
VERTEX
  8
0
 10
6052.3
 20
987.9
 30
0.0
  0
VERTEX
  8
0
 10
6027.2
 20
994.8
 30
0.0
  0
VERTEX
  8
0
 10
6011.74533
 20
998.81227
 30
0.0
  0
VERTEX
  8
0
 10
6000.0
 20
1000.0
 30
0.0
  0
SEQEND
  0
POLYLINE
  8
0
 66
1
 10
0.0
 20
0.0
 30
0.0
 70
8
  0
VERTEX
  8
0
 10
7000.0
 20
1000.0
 30
0.0
  0
VERTEX
  8
0
 10
7000.8
 20
985.2
 30
0.0
  0
VERTEX
  8
0
 10
7002.69623
 20
970.03019
 30
0.0
  0
VERTEX
  8
0
 10
7006.84435
 20
953.75679
 30
0.0
  0
VERTEX
  8
0
 10
7017.9
 20
955.1
 30
0.0
  0
VERTEX
  8
0
 10
7028.8
 20
955.4
 30
0.0
  0
VERTEX
  8
0
 10
7040.1
 20
953.7
 30
0.0
  0
VERTEX
  8
0
 10
7054.8
 20
950.3
 30
0.0
  0
VERTEX
  8
0
 10
7076.40157
 20
945.44383
 30
0.0
  0
VERTEX
  8
0
 10
7080.5
 20
965.0
 30
0.0
  0
VERTEX
  8
0
 10
7088.7
 20
980.4
 30
0.0
  0
VERTEX
  8
0
 10
7075.5
 20
982.4
 30
0.0
  0
VERTEX
  8
0
 10
7065.5
 20
984.5
 30
0.0
  0
VERTEX
  8
0
 10
7052.3
 20
987.9
 30
0.0
  0
VERTEX
  8
0
 10
7027.2
 20
994.8
 30
0.0
  0
VERTEX
  8
0
 10
7011.74533
 20
998.81227
 30
0.0
  0
VERTEX
  8
0
 10
7000.0
 20
1000.0
 30
0.0
  0
SEQEND
  0
POLYLINE
  8
0
 66
1
 10
0.0
 20
0.0
 30
0.0
 70
8
  0
VERTEX
  8
0
 10
8000.0
 20
1000.0
 30
0.0
  0
VERTEX
  8
0
 10
8000.8
 20
985.2
 30
0.0
  0
VERTEX
  8
0
 10
8002.69623
 20
970.03019
 30
0.0
  0
VERTEX
  8
0
 10
8006.84435
 20
953.75679
 30
0.0
  0
VERTEX
  8
0
 10
8017.9
 20
955.1
 30
0.0
  0
VERTEX
  8
0
 10
8028.8
 20
955.4
 30
0.0
  0
VERTEX
  8
0
 10
8040.1
 20
953.7
 30
0.0
  0
VERTEX
  8
0
 10
8054.8
 20
950.3
 30
0.0
  0
VERTEX
  8
0
 10
8076.40157
 20
945.44383
 30
0.0
  0
VERTEX
  8
0
 10
8080.5
 20
965.0
 30
0.0
  0
VERTEX
  8
0
 10
8088.7
 20
980.4
 30
0.0
  0
VERTEX
  8
0
 10
8075.5
 20
982.4
 30
0.0
  0
VERTEX
  8
0
 10
8065.5
 20
984.5
 30
0.0
  0
VERTEX
  8
0
 10
8052.3
 20
987.9
 30
0.0
  0
VERTEX
  8
0
 10
8027.2
 20
994.8
 30
0.0
  0
VERTEX
  8
0
 10
8011.74533
 20
998.81227
 30
0.0
  0
VERTEX
  8
0
 10
8000.0
 20
1000.0
 30
0.0
  0
SEQEND
  0
POLYLINE
  8
0
 66
1
 10
0.0
 20
0.0
 30
0.0
 70
8
  0
VERTEX
  8
0
 10
9000.0
 20
1000.0
 30
0.0
  0
VERTEX
  8
0
 10
9000.8
 20
985.2
 30
0.0
  0
VERTEX
  8
0
 10
9002.69623
 20
970.03019
 30
0.0
  0
VERTEX
  8
0
 10
9006.84435
 20
953.75679
 30
0.0
  0
VERTEX
  8
0
 10
9017.9
 20
955.1
 30
0.0
  0
VERTEX
  8
0
 10
9028.8
 20
955.4
 30
0.0
  0
VERTEX
  8
0
 10
9040.1
 20
953.7
 30
0.0
  0
VERTEX
  8
0
 10
9054.8
 20
950.3
 30
0.0
  0
VERTEX
  8
0
 10
9076.40157
 20
945.44383
 30
0.0
  0
VERTEX
  8
0
 10
9080.5
 20
965.0
 30
0.0
  0
VERTEX
  8
0
 10
9088.7
 20
980.4
 30
0.0
  0
VERTEX
  8
0
 10
9075.5
 20
982.4
 30
0.0
  0
VERTEX
  8
0
 10
9065.5
 20
984.5
 30
0.0
  0
VERTEX
  8
0
 10
9052.3
 20
987.9
 30
0.0
  0
VERTEX
  8
0
 10
9027.2
 20
994.8
 30
0.0
  0
VERTEX
  8
0
 10
9011.74533
 20
998.81227
 30
0.0
  0
VERTEX
  8
0
 10
9000.0
 20
1000.0
 30
0.0
  0
SEQEND
  0
POLYLINE
  8
0
 66
1
 10
0.0
 20
0.0
 30
0.0
 70
8
  0
VERTEX
  8
0
 10
9984.1
 20
981.5
 30
0.0
  0
VERTEX
  8
0
 10
9967.2
 20
977.2
 30
0.0
  0
VERTEX
  8
0
 10
9952.6
 20
973.8
 30
0.0
  0
VERTEX
  8
0
 10
9930.51538
 20
969.24286
 30
0.0
  0
VERTEX
  8
0
 10
9919.33548
 20
964.05219
 30
0.0
  0
VERTEX
  8
0
 10
9946.8
 20
961.6
 30
0.0
  0
VERTEX
  8
0
 10
9959.2
 20
960.0
 30
0.0
  0
VERTEX
  8
0
 10
9978.5
 20
955.7
 30
0.0
  0
VERTEX
  8
0
 10
9992.3
 20
949.9
 30
0.0
  0
VERTEX
  8
0
 10
10013.0
 20
938.0
 30
0.0
  0
VERTEX
  8
0
 10
10026.4
 20
941.1
 30
0.0
  0
VERTEX
  8
0
 10
10047.78718
 20
945.61507
 30
0.0
  0
VERTEX
  8
0
 10
10065.25122
 20
951.49582
 30
0.0
  0
VERTEX
  8
0
 10
10076.6
 20
956.9
 30
0.0
  0
VERTEX
  8
0
 10
10089.3
 20
963.8
 30
0.0
  0
VERTEX
  8
0
 10
10111.5
 20
974.2
 30
0.0
  0
VERTEX
  8
0
 10
10112.5
 20
986.9
 30
0.0
  0
VERTEX
  8
0
 10
10113.3
 20
999.3
 30
0.0
  0
VERTEX
  8
0
 10
10094.0
 20
1002.3
 30
0.0
  0
VERTEX
  8
0
 10
10079.2
 20
1004.5
 30
0.0
  0
VERTEX
  8
0
 10
10068.0
 20
1005.9
 30
0.0
  0
VERTEX
  8
0
 10
10052.4
 20
1007.0
 30
0.0
  0
VERTEX
  8
0
 10
10035.75263
 20
1007.0
 30
0.0
  0
VERTEX
  8
0
 10
10018.1
 20
1004.4
 30
0.0
  0
VERTEX
  8
0
 10
10000.09528
 20
1000.41819
 30
0.0
  0
VERTEX
  8
0
 10
9984.1
 20
981.5
 30
0.0
  0
SEQEND
  0
POLYLINE
  8
0
 66
1
 10
0.0
 20
0.0
 30
0.0
 70
8
  0
VERTEX
  8
0
 10
10984.1
 20
981.5
 30
0.0
  0
VERTEX
  8
0
 10
10967.2
 20
977.2
 30
0.0
  0
VERTEX
  8
0
 10
10952.6
 20
973.8
 30
0.0
  0
VERTEX
  8
0
 10
10930.51538
 20
969.24286
 30
0.0
  0
VERTEX
  8
0
 10
10919.33548
 20
964.05219
 30
0.0
  0
VERTEX
  8
0
 10
10946.8
 20
961.6
 30
0.0
  0
VERTEX
  8
0
 10
10959.2
 20
960.0
 30
0.0
  0
VERTEX
  8
0
 10
10978.5
 20
955.7
 30
0.0
  0
VERTEX
  8
0
 10
10992.3
 20
949.9
 30
0.0
  0
VERTEX
  8
0
 10
11013.0
 20
938.0
 30
0.0
  0
VERTEX
  8
0
 10
11026.4
 20
941.1
 30
0.0
  0
VERTEX
  8
0
 10
11047.78718
 20
945.61507
 30
0.0
  0
VERTEX
  8
0
 10
11065.25122
 20
951.49582
 30
0.0
  0
VERTEX
  8
0
 10
11076.6
 20
956.9
 30
0.0
  0
VERTEX
  8
0
 10
11089.3
 20
963.8
 30
0.0
  0
VERTEX
  8
0
 10
11111.5
 20
974.2
 30
0.0
  0
VERTEX
  8
0
 10
11112.5
 20
986.9
 30
0.0
  0
VERTEX
  8
0
 10
11113.3
 20
999.3
 30
0.0
  0
VERTEX
  8
0
 10
11094.0
 20
1002.3
 30
0.0
  0
VERTEX
  8
0
 10
11079.2
 20
1004.5
 30
0.0
  0
VERTEX
  8
0
 10
11068.0
 20
1005.9
 30
0.0
  0
VERTEX
  8
0
 10
11052.4
 20
1007.0
 30
0.0
  0
VERTEX
  8
0
 10
11035.75263
 20
1007.0
 30
0.0
  0
VERTEX
  8
0
 10
11018.1
 20
1004.4
 30
0.0
  0
VERTEX
  8
0
 10
11000.09528
 20
1000.41819
 30
0.0
  0
VERTEX
  8
0
 10
10984.1
 20
981.5
 30
0.0
  0
SEQEND
  0
POLYLINE
  8
0
 66
1
 10
0.0
 20
0.0
 30
0.0
 70
8
  0
VERTEX
  8
0
 10
11984.1
 20
981.5
 30
0.0
  0
VERTEX
  8
0
 10
11967.2
 20
977.2
 30
0.0
  0
VERTEX
  8
0
 10
11952.6
 20
973.8
 30
0.0
  0
VERTEX
  8
0
 10
11930.51538
 20
969.24286
 30
0.0
  0
VERTEX
  8
0
 10
11919.33548
 20
964.05219
 30
0.0
  0
VERTEX
  8
0
 10
11946.8
 20
961.6
 30
0.0
  0
VERTEX
  8
0
 10
11959.2
 20
960.0
 30
0.0
  0
VERTEX
  8
0
 10
11978.5
 20
955.7
 30
0.0
  0
VERTEX
  8
0
 10
11992.3
 20
949.9
 30
0.0
  0
VERTEX
  8
0
 10
12013.0
 20
938.0
 30
0.0
  0
VERTEX
  8
0
 10
12026.4
 20
941.1
 30
0.0
  0
VERTEX
  8
0
 10
12047.78718
 20
945.61507
 30
0.0
  0
VERTEX
  8
0
 10
12065.25122
 20
951.49582
 30
0.0
  0
VERTEX
  8
0
 10
12076.6
 20
956.9
 30
0.0
  0
VERTEX
  8
0
 10
12089.3
 20
963.8
 30
0.0
  0
VERTEX
  8
0
 10
12111.5
 20
974.2
 30
0.0
  0
VERTEX
  8
0
 10
12112.5
 20
986.9
 30
0.0
  0
VERTEX
  8
0
 10
12113.3
 20
999.3
 30
0.0
  0
VERTEX
  8
0
 10
12094.0
 20
1002.3
 30
0.0
  0
VERTEX
  8
0
 10
12079.2
 20
1004.5
 30
0.0
  0
VERTEX
  8
0
 10
12068.0
 20
1005.9
 30
0.0
  0
VERTEX
  8
0
 10
12052.4
 20
1007.0
 30
0.0
  0
VERTEX
  8
0
 10
12035.75263
 20
1007.0
 30
0.0
  0
VERTEX
  8
0
 10
12018.1
 20
1004.4
 30
0.0
  0
VERTEX
  8
0
 10
12000.09528
 20
1000.41819
 30
0.0
  0
VERTEX
  8
0
 10
11984.1
 20
981.5
 30
0.0
  0
SEQEND
  0
POLYLINE
  8
0
 66
1
 10
0.0
 20
0.0
 30
0.0
 70
8
  0
VERTEX
  8
0
 10
12984.1
 20
981.5
 30
0.0
  0
VERTEX
  8
0
 10
12967.2
 20
977.2
 30
0.0
  0
VERTEX
  8
0
 10
12952.6
 20
973.8
 30
0.0
  0
VERTEX
  8
0
 10
12930.51538
 20
969.24286
 30
0.0
  0
VERTEX
  8
0
 10
12919.33548
 20
964.05219
 30
0.0
  0
VERTEX
  8
0
 10
12946.8
 20
961.6
 30
0.0
  0
VERTEX
  8
0
 10
12959.2
 20
960.0
 30
0.0
  0
VERTEX
  8
0
 10
12978.5
 20
955.7
 30
0.0
  0
VERTEX
  8
0
 10
12992.3
 20
949.9
 30
0.0
  0
VERTEX
  8
0
 10
13013.0
 20
938.0
 30
0.0
  0
VERTEX
  8
0
 10
13026.4
 20
941.1
 30
0.0
  0
VERTEX
  8
0
 10
13047.78718
 20
945.61507
 30
0.0
  0
VERTEX
  8
0
 10
13065.25122
 20
951.49582
 30
0.0
  0
VERTEX
  8
0
 10
13076.6
 20
956.9
 30
0.0
  0
VERTEX
  8
0
 10
13089.3
 20
963.8
 30
0.0
  0
VERTEX
  8
0
 10
13111.5
 20
974.2
 30
0.0
  0
VERTEX
  8
0
 10
13112.5
 20
986.9
 30
0.0
  0
VERTEX
  8
0
 10
13113.3
 20
999.3
 30
0.0
  0
VERTEX
  8
0
 10
13094.0
 20
1002.3
 30
0.0
  0
VERTEX
  8
0
 10
13079.2
 20
1004.5
 30
0.0
  0
VERTEX
  8
0
 10
13068.0
 20
1005.9
 30
0.0
  0
VERTEX
  8
0
 10
13052.4
 20
1007.0
 30
0.0
  0
VERTEX
  8
0
 10
13035.75263
 20
1007.0
 30
0.0
  0
VERTEX
  8
0
 10
13018.1
 20
1004.4
 30
0.0
  0
VERTEX
  8
0
 10
13000.09528
 20
1000.41819
 30
0.0
  0
VERTEX
  8
0
 10
12984.1
 20
981.5
 30
0.0
  0
SEQEND
  0
POLYLINE
  8
0
 66
1
 10
0.0
 20
0.0
 30
0.0
 70
8
  0
VERTEX
  8
0
 10
13984.1
 20
981.5
 30
0.0
  0
VERTEX
  8
0
 10
13967.2
 20
977.2
 30
0.0
  0
VERTEX
  8
0
 10
13952.6
 20
973.8
 30
0.0
  0
VERTEX
  8
0
 10
13930.51538
 20
969.24286
 30
0.0
  0
VERTEX
  8
0
 10
13919.33548
 20
964.05219
 30
0.0
  0
VERTEX
  8
0
 10
13946.8
 20
961.6
 30
0.0
  0
VERTEX
  8
0
 10
13959.2
 20
960.0
 30
0.0
  0
VERTEX
  8
0
 10
13978.5
 20
955.7
 30
0.0
  0
VERTEX
  8
0
 10
13992.3
 20
949.9
 30
0.0
  0
VERTEX
  8
0
 10
14013.0
 20
938.0
 30
0.0
  0
VERTEX
  8
0
 10
14026.4
 20
941.1
 30
0.0
  0
VERTEX
  8
0
 10
14047.78718
 20
945.61507
 30
0.0
  0
VERTEX
  8
0
 10
14065.25122
 20
951.49582
 30
0.0
  0
VERTEX
  8
0
 10
14076.6
 20
956.9
 30
0.0
  0
VERTEX
  8
0
 10
14089.3
 20
963.8
 30
0.0
  0
VERTEX
  8
0
 10
14111.5
 20
974.2
 30
0.0
  0
VERTEX
  8
0
 10
14112.5
 20
986.9
 30
0.0
  0
VERTEX
  8
0
 10
14113.3
 20
999.3
 30
0.0
  0
VERTEX
  8
0
 10
14094.0
 20
1002.3
 30
0.0
  0
VERTEX
  8
0
 10
14079.2
 20
1004.5
 30
0.0
  0
VERTEX
  8
0
 10
14068.0
 20
1005.9
 30
0.0
  0
VERTEX
  8
0
 10
14052.4
 20
1007.0
 30
0.0
  0
VERTEX
  8
0
 10
14035.75263
 20
1007.0
 30
0.0
  0
VERTEX
  8
0
 10
14018.1
 20
1004.4
 30
0.0
  0
VERTEX
  8
0
 10
14000.09528
 20
1000.41819
 30
0.0
  0
VERTEX
  8
0
 10
13984.1
 20
981.5
 30
0.0
  0
SEQEND
  0
POLYLINE
  8
0
 66
1
 10
0.0
 20
0.0
 30
0.0
 70
8
  0
VERTEX
  8
0
 10
14984.1
 20
981.5
 30
0.0
  0
VERTEX
  8
0
 10
14967.2
 20
977.2
 30
0.0
  0
VERTEX
  8
0
 10
14952.6
 20
973.8
 30
0.0
  0
VERTEX
  8
0
 10
14930.51538
 20
969.24286
 30
0.0
  0
VERTEX
  8
0
 10
14919.33548
 20
964.05219
 30
0.0
  0
VERTEX
  8
0
 10
14946.8
 20
961.6
 30
0.0
  0
VERTEX
  8
0
 10
14959.2
 20
960.0
 30
0.0
  0
VERTEX
  8
0
 10
14978.5
 20
955.7
 30
0.0
  0
VERTEX
  8
0
 10
14992.3
 20
949.9
 30
0.0
  0
VERTEX
  8
0
 10
15013.0
 20
938.0
 30
0.0
  0
VERTEX
  8
0
 10
15026.4
 20
941.1
 30
0.0
  0
VERTEX
  8
0
 10
15047.78718
 20
945.61507
 30
0.0
  0
VERTEX
  8
0
 10
15065.25122
 20
951.49582
 30
0.0
  0
VERTEX
  8
0
 10
15076.6
 20
956.9
 30
0.0
  0
VERTEX
  8
0
 10
15089.3
 20
963.8
 30
0.0
  0
VERTEX
  8
0
 10
15111.5
 20
974.2
 30
0.0
  0
VERTEX
  8
0
 10
15112.5
 20
986.9
 30
0.0
  0
VERTEX
  8
0
 10
15113.3
 20
999.3
 30
0.0
  0
VERTEX
  8
0
 10
15094.0
 20
1002.3
 30
0.0
  0
VERTEX
  8
0
 10
15079.2
 20
1004.5
 30
0.0
  0
VERTEX
  8
0
 10
15068.0
 20
1005.9
 30
0.0
  0
VERTEX
  8
0
 10
15052.4
 20
1007.0
 30
0.0
  0
VERTEX
  8
0
 10
15035.75263
 20
1007.0
 30
0.0
  0
VERTEX
  8
0
 10
15018.1
 20
1004.4
 30
0.0
  0
VERTEX
  8
0
 10
15000.09528
 20
1000.41819
 30
0.0
  0
VERTEX
  8
0
 10
14984.1
 20
981.5
 30
0.0
  0
SEQEND
  0
POLYLINE
  8
0
 66
1
 10
0.0
 20
0.0
 30
0.0
 70
8
  0
VERTEX
  8
0
 10
16000.0
 20
1000.0
 30
0.0
  0
VERTEX
  8
0
 10
16000.8
 20
982.8
 30
0.0
  0
VERTEX
  8
0
 10
16030.9
 20
983.4
 30
0.0
  0
VERTEX
  8
0
 10
16048.4
 20
983.5
 30
0.0
  0
VERTEX
  8
0
 10
16061.6
 20
983.3
 30
0.0
  0
VERTEX
  8
0
 10
16071.8
 20
982.8
 30
0.0
  0
VERTEX
  8
0
 10
16087.6
 20
980.6
 30
0.0
  0
VERTEX
  8
0
 10
16103.1
 20
975.2
 30
0.0
  0
VERTEX
  8
0
 10
16135.14549
 20
988.89032
 30
0.0
  0
VERTEX
  8
0
 10
16120.9
 20
994.3
 30
0.0
  0
VERTEX
  8
0
 10
16104.89706
 20
999.31787
 30
0.0
  0
VERTEX
  8
0
 10
16090.9
 20
1001.6
 30
0.0
  0
VERTEX
  8
0
 10
16078.5
 20
1002.6
 30
0.0
  0
VERTEX
  8
0
 10
16066.8
 20
1002.9
 30
0.0
  0
VERTEX
  8
0
 10
16051.1
 20
1002.6
 30
0.0
  0
VERTEX
  8
0
 10
16021.3
 20
1001.4
 30
0.0
  0
VERTEX
  8
0
 10
16000.0
 20
1000.0
 30
0.0
  0
SEQEND
  0
POLYLINE
  8
0
 66
1
 10
0.0
 20
0.0
 30
0.0
 70
8
  0
VERTEX
  8
0
 10
17000.0
 20
1000.0
 30
0.0
  0
VERTEX
  8
0
 10
17000.8
 20
982.8
 30
0.0
  0
VERTEX
  8
0
 10
17030.9
 20
983.4
 30
0.0
  0
VERTEX
  8
0
 10
17048.4
 20
983.5
 30
0.0
  0
VERTEX
  8
0
 10
17061.6
 20
983.3
 30
0.0
  0
VERTEX
  8
0
 10
17071.8
 20
982.8
 30
0.0
  0
VERTEX
  8
0
 10
17087.6
 20
980.6
 30
0.0
  0
VERTEX
  8
0
 10
17103.1
 20
975.2
 30
0.0
  0
VERTEX
  8
0
 10
17135.14549
 20
988.89032
 30
0.0
  0
VERTEX
  8
0
 10
17120.9
 20
994.3
 30
0.0
  0
VERTEX
  8
0
 10
17104.89706
 20
999.31787
 30
0.0
  0
VERTEX
  8
0
 10
17090.9
 20
1001.6
 30
0.0
  0
VERTEX
  8
0
 10
17078.5
 20
1002.6
 30
0.0
  0
VERTEX
  8
0
 10
17066.8
 20
1002.9
 30
0.0
  0
VERTEX
  8
0
 10
17051.1
 20
1002.6
 30
0.0
  0
VERTEX
  8
0
 10
17021.3
 20
1001.4
 30
0.0
  0
VERTEX
  8
0
 10
17000.0
 20
1000.0
 30
0.0
  0
SEQEND
  0
POLYLINE
  8
0
 66
1
 10
0.0
 20
0.0
 30
0.0
 70
8
  0
VERTEX
  8
0
 10
18000.0
 20
1000.0
 30
0.0
  0
VERTEX
  8
0
 10
18000.8
 20
982.8
 30
0.0
  0
VERTEX
  8
0
 10
18030.9
 20
983.4
 30
0.0
  0
VERTEX
  8
0
 10
18048.4
 20
983.5
 30
0.0
  0
VERTEX
  8
0
 10
18061.6
 20
983.3
 30
0.0
  0
VERTEX
  8
0
 10
18071.8
 20
982.8
 30
0.0
  0
VERTEX
  8
0
 10
18087.6
 20
980.6
 30
0.0
  0
VERTEX
  8
0
 10
18103.1
 20
975.2
 30
0.0
  0
VERTEX
  8
0
 10
18135.14549
 20
988.89032
 30
0.0
  0
VERTEX
  8
0
 10
18120.9
 20
994.3
 30
0.0
  0
VERTEX
  8
0
 10
18104.89706
 20
999.31787
 30
0.0
  0
VERTEX
  8
0
 10
18090.9
 20
1001.6
 30
0.0
  0
VERTEX
  8
0
 10
18078.5
 20
1002.6
 30
0.0
  0
VERTEX
  8
0
 10
18066.8
 20
1002.9
 30
0.0
  0
VERTEX
  8
0
 10
18051.1
 20
1002.6
 30
0.0
  0
VERTEX
  8
0
 10
18021.3
 20
1001.4
 30
0.0
  0
VERTEX
  8
0
 10
18000.0
 20
1000.0
 30
0.0
  0
SEQEND
  0
POLYLINE
  8
0
 66
1
 10
0.0
 20
0.0
 30
0.0
 70
8
  0
VERTEX
  8
0
 10
19000.0
 20
1000.0
 30
0.0
  0
VERTEX
  8
0
 10
19000.8
 20
982.8
 30
0.0
  0
VERTEX
  8
0
 10
19030.9
 20
983.4
 30
0.0
  0
VERTEX
  8
0
 10
19048.4
 20
983.5
 30
0.0
  0
VERTEX
  8
0
 10
19061.6
 20
983.3
 30
0.0
  0
VERTEX
  8
0
 10
19071.8
 20
982.8
 30
0.0
  0
VERTEX
  8
0
 10
19087.6
 20
980.6
 30
0.0
  0
VERTEX
  8
0
 10
19103.1
 20
975.2
 30
0.0
  0
VERTEX
  8
0
 10
19135.14549
 20
988.89032
 30
0.0
  0
VERTEX
  8
0
 10
19120.9
 20
994.3
 30
0.0
  0
VERTEX
  8
0
 10
19104.89706
 20
999.31787
 30
0.0
  0
VERTEX
  8
0
 10
19090.9
 20
1001.6
 30
0.0
  0
VERTEX
  8
0
 10
19078.5
 20
1002.6
 30
0.0
  0
VERTEX
  8
0
 10
19066.8
 20
1002.9
 30
0.0
  0
VERTEX
  8
0
 10
19051.1
 20
1002.6
 30
0.0
  0
VERTEX
  8
0
 10
19021.3
 20
1001.4
 30
0.0
  0
VERTEX
  8
0
 10
19000.0
 20
1000.0
 30
0.0
  0
SEQEND
  0
POLYLINE
  8
0
 66
1
 10
0.0
 20
0.0
 30
0.0
 70
8
  0
VERTEX
  8
0
 10
20000.0
 20
1000.0
 30
0.0
  0
VERTEX
  8
0
 10
20000.8
 20
982.8
 30
0.0
  0
VERTEX
  8
0
 10
20030.9
 20
983.4
 30
0.0
  0
VERTEX
  8
0
 10
20048.4
 20
983.5
 30
0.0
  0
VERTEX
  8
0
 10
20061.6
 20
983.3
 30
0.0
  0
VERTEX
  8
0
 10
20071.8
 20
982.8
 30
0.0
  0
VERTEX
  8
0
 10
20087.6
 20
980.6
 30
0.0
  0
VERTEX
  8
0
 10
20103.1
 20
975.2
 30
0.0
  0
VERTEX
  8
0
 10
20135.14549
 20
988.89032
 30
0.0
  0
VERTEX
  8
0
 10
20120.9
 20
994.3
 30
0.0
  0
VERTEX
  8
0
 10
20104.89706
 20
999.31787
 30
0.0
  0
VERTEX
  8
0
 10
20090.9
 20
1001.6
 30
0.0
  0
VERTEX
  8
0
 10
20078.5
 20
1002.6
 30
0.0
  0
VERTEX
  8
0
 10
20066.8
 20
1002.9
 30
0.0
  0
VERTEX
  8
0
 10
20051.1
 20
1002.6
 30
0.0
  0
VERTEX
  8
0
 10
20021.3
 20
1001.4
 30
0.0
  0
VERTEX
  8
0
 10
20000.0
 20
1000.0
 30
0.0
  0
SEQEND
  0
POLYLINE
  8
0
 66
1
 10
0.0
 20
0.0
 30
0.0
 70
8
  0
VERTEX
  8
0
 10
21000.0
 20
1000.0
 30
0.0
  0
VERTEX
  8
0
 10
21000.8
 20
982.8
 30
0.0
  0
VERTEX
  8
0
 10
21030.9
 20
983.4
 30
0.0
  0
VERTEX
  8
0
 10
21048.4
 20
983.5
 30
0.0
  0
VERTEX
  8
0
 10
21061.6
 20
983.3
 30
0.0
  0
VERTEX
  8
0
 10
21071.8
 20
982.8
 30
0.0
  0
VERTEX
  8
0
 10
21087.6
 20
980.6
 30
0.0
  0
VERTEX
  8
0
 10
21103.1
 20
975.2
 30
0.0
  0
VERTEX
  8
0
 10
21135.14549
 20
988.89032
 30
0.0
  0
VERTEX
  8
0
 10
21120.9
 20
994.3
 30
0.0
  0
VERTEX
  8
0
 10
21104.89706
 20
999.31787
 30
0.0
  0
VERTEX
  8
0
 10
21090.9
 20
1001.6
 30
0.0
  0
VERTEX
  8
0
 10
21078.5
 20
1002.6
 30
0.0
  0
VERTEX
  8
0
 10
21066.8
 20
1002.9
 30
0.0
  0
VERTEX
  8
0
 10
21051.1
 20
1002.6
 30
0.0
  0
VERTEX
  8
0
 10
21021.3
 20
1001.4
 30
0.0
  0
VERTEX
  8
0
 10
21000.0
 20
1000.0
 30
0.0
  0
SEQEND
  0
POLYLINE
  8
0
 66
1
 10
0.0
 20
0.0
 30
0.0
 70
8
  0
VERTEX
  8
0
 10
22000.0
 20
1000.0
 30
0.0
  0
VERTEX
  8
0
 10
22003.396
 20
985.7085
 30
0.0
  0
VERTEX
  8
0
 10
22007.7
 20
973.2
 30
0.0
  0
VERTEX
  8
0
 10
22008.9
 20
961.2
 30
0.0
  0
VERTEX
  8
0
 10
21917.4
 20
956.1
 30
0.0
  0
VERTEX
  8
0
 10
21917.6
 20
940.2
 30
0.0
  0
VERTEX
  8
0
 10
22003.9
 20
939.3
 30
0.0
  0
VERTEX
  8
0
 10
22016.9
 20
935.0
 30
0.0
  0
VERTEX
  8
0
 10
22020.9
 20
920.0
 30
0.0
  0
VERTEX
  8
0
 10
22025.1
 20
906.0
 30
0.0
  0
VERTEX
  8
0
 10
22037.1
 20
907.6
 30
0.0
  0
VERTEX
  8
0
 10
22035.4
 20
927.4
 30
0.0
  0
VERTEX
  8
0
 10
22034.8
 20
939.0
 30
0.0
  0
VERTEX
  8
0
 10
22035.0
 20
958.8
 30
0.0
  0
VERTEX
  8
0
 10
22036.0
 20
973.6
 30
0.0
  0
VERTEX
  8
0
 10
22038.2
 20
990.6
 30
0.0
  0
VERTEX
  8
0
 10
22048.86912
 20
1023.21128
 30
0.0
  0
VERTEX
  8
0
 10
22035.2
 20
1005.4
 30
0.0
  0
VERTEX
  8
0
 10
22021.7
 20
1000.0
 30
0.0
  0
VERTEX
  8
0
 10
22000.0
 20
1000.0
 30
0.0
  0
SEQEND
  0
POLYLINE
  8
0
 66
1
 10
0.0
 20
0.0
 30
0.0
 70
8
  0
VERTEX
  8
0
 10
23000.0
 20
1000.0
 30
0.0
  0
VERTEX
  8
0
 10
23003.396
 20
985.7085
 30
0.0
  0
VERTEX
  8
0
 10
23007.7
 20
973.2
 30
0.0
  0
VERTEX
  8
0
 10
23008.9
 20
961.2
 30
0.0
  0
VERTEX
  8
0
 10
22917.4
 20
956.1
 30
0.0
  0
VERTEX
  8
0
 10
22917.6
 20
940.2
 30
0.0
  0
VERTEX
  8
0
 10
23003.9
 20
939.3
 30
0.0
  0
VERTEX
  8
0
 10
23016.9
 20
935.0
 30
0.0
  0
VERTEX
  8
0
 10
23020.9
 20
920.0
 30
0.0
  0
VERTEX
  8
0
 10
23025.1
 20
906.0
 30
0.0
  0
VERTEX
  8
0
 10
23037.1
 20
907.6
 30
0.0
  0
VERTEX
  8
0
 10
23035.4
 20
927.4
 30
0.0
  0
VERTEX
  8
0
 10
23034.8
 20
939.0
 30
0.0
  0
VERTEX
  8
0
 10
23035.0
 20
958.8
 30
0.0
  0
VERTEX
  8
0
 10
23036.0
 20
973.6
 30
0.0
  0
VERTEX
  8
0
 10
23038.2
 20
990.6
 30
0.0
  0
VERTEX
  8
0
 10
23048.86912
 20
1023.21128
 30
0.0
  0
VERTEX
  8
0
 10
23035.2
 20
1005.4
 30
0.0
  0
VERTEX
  8
0
 10
23021.7
 20
1000.0
 30
0.0
  0
VERTEX
  8
0
 10
23000.0
 20
1000.0
 30
0.0
  0
SEQEND
  0
POLYLINE
  8
0
 66
1
 10
0.0
 20
0.0
 30
0.0
 70
8
  0
VERTEX
  8
0
 10
24000.0
 20
1000.0
 30
0.0
  0
VERTEX
  8
0
 10
24003.396
 20
985.7085
 30
0.0
  0
VERTEX
  8
0
 10
24007.7
 20
973.2
 30
0.0
  0
VERTEX
  8
0
 10
24008.9
 20
961.2
 30
0.0
  0
VERTEX
  8
0
 10
23917.4
 20
956.1
 30
0.0
  0
VERTEX
  8
0
 10
23917.6
 20
940.2
 30
0.0
  0
VERTEX
  8
0
 10
24003.9
 20
939.3
 30
0.0
  0
VERTEX
  8
0
 10
24016.9
 20
935.0
 30
0.0
  0
VERTEX
  8
0
 10
24020.9
 20
920.0
 30
0.0
  0
VERTEX
  8
0
 10
24025.1
 20
906.0
 30
0.0
  0
VERTEX
  8
0
 10
24037.1
 20
907.6
 30
0.0
  0
VERTEX
  8
0
 10
24035.4
 20
927.4
 30
0.0
  0
VERTEX
  8
0
 10
24034.8
 20
939.0
 30
0.0
  0
VERTEX
  8
0
 10
24035.0
 20
958.8
 30
0.0
  0
VERTEX
  8
0
 10
24036.0
 20
973.6
 30
0.0
  0
VERTEX
  8
0
 10
24038.2
 20
990.6
 30
0.0
  0
VERTEX
  8
0
 10
24048.86912
 20
1023.21128
 30
0.0
  0
VERTEX
  8
0
 10
24035.2
 20
1005.4
 30
0.0
  0
VERTEX
  8
0
 10
24021.7
 20
1000.0
 30
0.0
  0
VERTEX
  8
0
 10
24000.0
 20
1000.0
 30
0.0
  0
SEQEND
  0
POLYLINE
  8
0
 66
1
 10
0.0
 20
0.0
 30
0.0
 70
8
  0
VERTEX
  8
0
 10
25000.0
 20
1000.0
 30
0.0
  0
VERTEX
  8
0
 10
25003.396
 20
985.7085
 30
0.0
  0
VERTEX
  8
0
 10
25007.7
 20
973.2
 30
0.0
  0
VERTEX
  8
0
 10
25008.9
 20
961.2
 30
0.0
  0
VERTEX
  8
0
 10
24917.4
 20
956.1
 30
0.0
  0
VERTEX
  8
0
 10
24917.6
 20
940.2
 30
0.0
  0
VERTEX
  8
0
 10
25003.9
 20
939.3
 30
0.0
  0
VERTEX
  8
0
 10
25016.9
 20
935.0
 30
0.0
  0
VERTEX
  8
0
 10
25020.9
 20
920.0
 30
0.0
  0
VERTEX
  8
0
 10
25025.1
 20
906.0
 30
0.0
  0
VERTEX
  8
0
 10
25037.1
 20
907.6
 30
0.0
  0
VERTEX
  8
0
 10
25035.4
 20
927.4
 30
0.0
  0
VERTEX
  8
0
 10
25034.8
 20
939.0
 30
0.0
  0
VERTEX
  8
0
 10
25035.0
 20
958.8
 30
0.0
  0
VERTEX
  8
0
 10
25036.0
 20
973.6
 30
0.0
  0
VERTEX
  8
0
 10
25038.2
 20
990.6
 30
0.0
  0
VERTEX
  8
0
 10
25048.86912
 20
1023.21128
 30
0.0
  0
VERTEX
  8
0
 10
25035.2
 20
1005.4
 30
0.0
  0
VERTEX
  8
0
 10
25021.7
 20
1000.0
 30
0.0
  0
VERTEX
  8
0
 10
25000.0
 20
1000.0
 30
0.0
  0
SEQEND
  0
POLYLINE
  8
0
 66
1
 10
0.0
 20
0.0
 30
0.0
 70
8
  0
VERTEX
  8
0
 10
26000.0
 20
1000.0
 30
0.0
  0
VERTEX
  8
0
 10
26003.396
 20
985.7085
 30
0.0
  0
VERTEX
  8
0
 10
26007.7
 20
973.2
 30
0.0
  0
VERTEX
  8
0
 10
26008.9
 20
961.2
 30
0.0
  0
VERTEX
  8
0
 10
25917.4
 20
956.1
 30
0.0
  0
VERTEX
  8
0
 10
25917.6
 20
940.2
 30
0.0
  0
VERTEX
  8
0
 10
26003.9
 20
939.3
 30
0.0
  0
VERTEX
  8
0
 10
26016.9
 20
935.0
 30
0.0
  0
VERTEX
  8
0
 10
26020.9
 20
920.0
 30
0.0
  0
VERTEX
  8
0
 10
26025.1
 20
906.0
 30
0.0
  0
VERTEX
  8
0
 10
26037.1
 20
907.6
 30
0.0
  0
VERTEX
  8
0
 10
26035.4
 20
927.4
 30
0.0
  0
VERTEX
  8
0
 10
26034.8
 20
939.0
 30
0.0
  0
VERTEX
  8
0
 10
26035.0
 20
958.8
 30
0.0
  0
VERTEX
  8
0
 10
26036.0
 20
973.6
 30
0.0
  0
VERTEX
  8
0
 10
26038.2
 20
990.6
 30
0.0
  0
VERTEX
  8
0
 10
26048.86912
 20
1023.21128
 30
0.0
  0
VERTEX
  8
0
 10
26035.2
 20
1005.4
 30
0.0
  0
VERTEX
  8
0
 10
26021.7
 20
1000.0
 30
0.0
  0
VERTEX
  8
0
 10
26000.0
 20
1000.0
 30
0.0
  0
SEQEND
  0
POLYLINE
  8
0
 66
1
 10
0.0
 20
0.0
 30
0.0
 70
8
  0
VERTEX
  8
0
 10
27000.0
 20
1000.0
 30
0.0
  0
VERTEX
  8
0
 10
27003.396
 20
985.7085
 30
0.0
  0
VERTEX
  8
0
 10
27007.7
 20
973.2
 30
0.0
  0
VERTEX
  8
0
 10
27008.9
 20
961.2
 30
0.0
  0
VERTEX
  8
0
 10
26917.4
 20
956.1
 30
0.0
  0
VERTEX
  8
0
 10
26917.6
 20
940.2
 30
0.0
  0
VERTEX
  8
0
 10
27003.9
 20
939.3
 30
0.0
  0
VERTEX
  8
0
 10
27016.9
 20
935.0
 30
0.0
  0
VERTEX
  8
0
 10
27020.9
 20
920.0
 30
0.0
  0
VERTEX
  8
0
 10
27025.1
 20
906.0
 30
0.0
  0
VERTEX
  8
0
 10
27037.1
 20
907.6
 30
0.0
  0
VERTEX
  8
0
 10
27035.4
 20
927.4
 30
0.0
  0
VERTEX
  8
0
 10
27034.8
 20
939.0
 30
0.0
  0
VERTEX
  8
0
 10
27035.0
 20
958.8
 30
0.0
  0
VERTEX
  8
0
 10
27036.0
 20
973.6
 30
0.0
  0
VERTEX
  8
0
 10
27038.2
 20
990.6
 30
0.0
  0
VERTEX
  8
0
 10
27048.86912
 20
1023.21128
 30
0.0
  0
VERTEX
  8
0
 10
27035.2
 20
1005.4
 30
0.0
  0
VERTEX
  8
0
 10
27021.7
 20
1000.0
 30
0.0
  0
VERTEX
  8
0
 10
27000.0
 20
1000.0
 30
0.0
  0
SEQEND
  0
POLYLINE
  8
0
 66
1
 10
0.0
 20
0.0
 30
0.0
 70
8
  0
VERTEX
  8
0
 10
28000.0
 20
999.27778
 30
0.0
  0
VERTEX
  8
0
 10
28012.98
 20
996.39333
 30
0.0
  0
VERTEX
  8
0
 10
28030.68846
 20
1002.29615
 30
0.0
  0
VERTEX
  8
0
 10
28049.5
 20
1011.0
 30
0.0
  0
VERTEX
  8
0
 10
28061.6
 20
1017.2
 30
0.0
  0
VERTEX
  8
0
 10
28073.7
 20
1023.8
 30
0.0
  0
VERTEX
  8
0
 10
28085.5
 20
1029.0
 30
0.0
  0
VERTEX
  8
0
 10
28095.9
 20
1031.3
 30
0.0
  0
VERTEX
  8
0
 10
28107.1
 20
1030.6
 30
0.0
  0
VERTEX
  8
0
 10
28127.5
 20
1025.5
 30
0.0
  0
VERTEX
  8
0
 10
28126.0
 20
1039.4
 30
0.0
  0
VERTEX
  8
0
 10
28125.0
 20
1049.9
 30
0.0
  0
VERTEX
  8
0
 10
28126.0
 20
1060.6
 30
0.0
  0
VERTEX
  8
0
 10
28127.5
 20
1074.5
 30
0.0
  0
VERTEX
  8
0
 10
28107.1
 20
1069.4
 30
0.0
  0
VERTEX
  8
0
 10
28095.9
 20
1068.7
 30
0.0
  0
VERTEX
  8
0
 10
28085.5
 20
1071.0
 30
0.0
  0
VERTEX
  8
0
 10
28073.7
 20
1076.2
 30
0.0
  0
VERTEX
  8
0
 10
28061.6
 20
1082.8
 30
0.0
  0
VERTEX
  8
0
 10
28049.5
 20
1089.0
 30
0.0
  0
VERTEX
  8
0
 10
28030.68846
 20
1097.7038499999999
 30
0.0
  0
VERTEX
  8
0
 10
28012.98
 20
1103.60667
 30
0.0
  0
VERTEX
  8
0
 10
28000.0
 20
1100.72222
 30
0.0
  0
VERTEX
  8
0
 10
28000.0
 20
999.27778
 30
0.0
  0
SEQEND
  0
POLYLINE
  8
0
 66
1
 10
0.0
 20
0.0
 30
0.0
 70
8
  0
VERTEX
  8
0
 10
29000.0
 20
999.27778
 30
0.0
  0
VERTEX
  8
0
 10
29012.98
 20
996.39333
 30
0.0
  0
VERTEX
  8
0
 10
29030.68846
 20
1002.29615
 30
0.0
  0
VERTEX
  8
0
 10
29049.5
 20
1011.0
 30
0.0
  0
VERTEX
  8
0
 10
29061.6
 20
1017.2
 30
0.0
  0
VERTEX
  8
0
 10
29073.7
 20
1023.8
 30
0.0
  0
VERTEX
  8
0
 10
29085.5
 20
1029.0
 30
0.0
  0
VERTEX
  8
0
 10
29095.9
 20
1031.3
 30
0.0
  0
VERTEX
  8
0
 10
29107.1
 20
1030.6
 30
0.0
  0
VERTEX
  8
0
 10
29127.5
 20
1025.5
 30
0.0
  0
VERTEX
  8
0
 10
29126.0
 20
1039.4
 30
0.0
  0
VERTEX
  8
0
 10
29125.0
 20
1049.9
 30
0.0
  0
VERTEX
  8
0
 10
29126.0
 20
1060.6
 30
0.0
  0
VERTEX
  8
0
 10
29127.5
 20
1074.5
 30
0.0
  0
VERTEX
  8
0
 10
29107.1
 20
1069.4
 30
0.0
  0
VERTEX
  8
0
 10
29095.9
 20
1068.7
 30
0.0
  0
VERTEX
  8
0
 10
29085.5
 20
1071.0
 30
0.0
  0
VERTEX
  8
0
 10
29073.7
 20
1076.2
 30
0.0
  0
VERTEX
  8
0
 10
29061.6
 20
1082.8
 30
0.0
  0
VERTEX
  8
0
 10
29049.5
 20
1089.0
 30
0.0
  0
VERTEX
  8
0
 10
29030.68846
 20
1097.7038499999999
 30
0.0
  0
VERTEX
  8
0
 10
29012.98
 20
1103.60667
 30
0.0
  0
VERTEX
  8
0
 10
29000.0
 20
1100.72222
 30
0.0
  0
VERTEX
  8
0
 10
29000.0
 20
999.27778
 30
0.0
  0
SEQEND
  0
POLYLINE
  8
0
 66
1
 10
0.0
 20
0.0
 30
0.0
 70
8
  0
VERTEX
  8
0
 10
30000.0
 20
999.27778
 30
0.0
  0
VERTEX
  8
0
 10
30012.98
 20
996.39333
 30
0.0
  0
VERTEX
  8
0
 10
30030.68846
 20
1002.29615
 30
0.0
  0
VERTEX
  8
0
 10
30049.5
 20
1011.0
 30
0.0
  0
VERTEX
  8
0
 10
30061.6
 20
1017.2
 30
0.0
  0
VERTEX
  8
0
 10
30073.7
 20
1023.8
 30
0.0
  0
VERTEX
  8
0
 10
30085.5
 20
1029.0
 30
0.0
  0
VERTEX
  8
0
 10
30095.9
 20
1031.3
 30
0.0
  0
VERTEX
  8
0
 10
30107.1
 20
1030.6
 30
0.0
  0
VERTEX
  8
0
 10
30127.5
 20
1025.5
 30
0.0
  0
VERTEX
  8
0
 10
30126.0
 20
1039.4
 30
0.0
  0
VERTEX
  8
0
 10
30125.0
 20
1049.9
 30
0.0
  0
VERTEX
  8
0
 10
30126.0
 20
1060.6
 30
0.0
  0
VERTEX
  8
0
 10
30127.5
 20
1074.5
 30
0.0
  0
VERTEX
  8
0
 10
30107.1
 20
1069.4
 30
0.0
  0
VERTEX
  8
0
 10
30095.9
 20
1068.7
 30
0.0
  0
VERTEX
  8
0
 10
30085.5
 20
1071.0
 30
0.0
  0
VERTEX
  8
0
 10
30073.7
 20
1076.2
 30
0.0
  0
VERTEX
  8
0
 10
30061.6
 20
1082.8
 30
0.0
  0
VERTEX
  8
0
 10
30049.5
 20
1089.0
 30
0.0
  0
VERTEX
  8
0
 10
30030.68846
 20
1097.7038499999999
 30
0.0
  0
VERTEX
  8
0
 10
30012.98
 20
1103.60667
 30
0.0
  0
VERTEX
  8
0
 10
30000.0
 20
1100.72222
 30
0.0
  0
VERTEX
  8
0
 10
30000.0
 20
999.27778
 30
0.0
  0
SEQEND
  0
POLYLINE
  8
0
 66
1
 10
0.0
 20
0.0
 30
0.0
 70
8
  0
VERTEX
  8
0
 10
31000.0
 20
1000.0
 30
0.0
  0
VERTEX
  8
0
 10
30999.6
 20
987.7
 30
0.0
  0
VERTEX
  8
0
 10
30999.2
 20
970.9
 30
0.0
  0
VERTEX
  8
0
 10
30998.3
 20
954.6
 30
0.0
  0
VERTEX
  8
0
 10
30996.0
 20
938.0
 30
0.0
  0
VERTEX
  8
0
 10
31011.9
 20
938.1
 30
0.0
  0
VERTEX
  8
0
 10
31024.6
 20
946.2
 30
0.0
  0
VERTEX
  8
0
 10
31035.2
 20
949.9
 30
0.0
  0
VERTEX
  8
0
 10
31049.2
 20
954.2
 30
0.0
  0
VERTEX
  8
0
 10
31064.7
 20
958.4
 30
0.0
  0
VERTEX
  8
0
 10
31076.6
 20
963.1
 30
0.0
  0
VERTEX
  8
0
 10
31091.3
 20
969.8
 30
0.0
  0
VERTEX
  8
0
 10
31106.1
 20
977.6
 30
0.0
  0
VERTEX
  8
0
 10
31104.6
 20
990.0
 30
0.0
  0
VERTEX
  8
0
 10
31103.7
 20
1000.2
 30
0.0
  0
VERTEX
  8
0
 10
31106.1
 20
1022.4
 30
0.0
  0
VERTEX
  8
0
 10
31091.3
 20
1030.2
 30
0.0
  0
VERTEX
  8
0
 10
31076.6
 20
1036.9
 30
0.0
  0
VERTEX
  8
0
 10
31064.7
 20
1041.6
 30
0.0
  0
VERTEX
  8
0
 10
31049.2
 20
1045.8
 30
0.0
  0
VERTEX
  8
0
 10
31035.2
 20
1050.1
 30
0.0
  0
VERTEX
  8
0
 10
31024.6
 20
1053.8
 30
0.0
  0
VERTEX
  8
0
 10
31011.9
 20
1061.9
 30
0.0
  0
VERTEX
  8
0
 10
30996.0
 20
1062.0
 30
0.0
  0
VERTEX
  8
0
 10
30998.3
 20
1045.4
 30
0.0
  0
VERTEX
  8
0
 10
30999.2
 20
1029.1
 30
0.0
  0
VERTEX
  8
0
 10
30999.6
 20
1012.3
 30
0.0
  0
VERTEX
  8
0
 10
31000.0
 20
1000.0
 30
0.0
  0
SEQEND
  0
POLYLINE
  8
0
 66
1
 10
0.0
 20
0.0
 30
0.0
 70
8
  0
VERTEX
  8
0
 10
32000.0
 20
1000.0
 30
0.0
  0
VERTEX
  8
0
 10
31999.6
 20
987.7
 30
0.0
  0
VERTEX
  8
0
 10
31999.2
 20
970.9
 30
0.0
  0
VERTEX
  8
0
 10
31998.3
 20
954.6
 30
0.0
  0
VERTEX
  8
0
 10
31996.0
 20
938.0
 30
0.0
  0
VERTEX
  8
0
 10
32011.9
 20
938.1
 30
0.0
  0
VERTEX
  8
0
 10
32024.6
 20
946.2
 30
0.0
  0
VERTEX
  8
0
 10
32035.2
 20
949.9
 30
0.0
  0
VERTEX
  8
0
 10
32049.2
 20
954.2
 30
0.0
  0
VERTEX
  8
0
 10
32064.7
 20
958.4
 30
0.0
  0
VERTEX
  8
0
 10
32076.6
 20
963.1
 30
0.0
  0
VERTEX
  8
0
 10
32091.3
 20
969.8
 30
0.0
  0
VERTEX
  8
0
 10
32106.1
 20
977.6
 30
0.0
  0
VERTEX
  8
0
 10
32104.6
 20
990.0
 30
0.0
  0
VERTEX
  8
0
 10
32103.7
 20
1000.2
 30
0.0
  0
VERTEX
  8
0
 10
32106.1
 20
1022.4
 30
0.0
  0
VERTEX
  8
0
 10
32091.3
 20
1030.2
 30
0.0
  0
VERTEX
  8
0
 10
32076.6
 20
1036.9
 30
0.0
  0
VERTEX
  8
0
 10
32064.7
 20
1041.6
 30
0.0
  0
VERTEX
  8
0
 10
32049.2
 20
1045.8
 30
0.0
  0
VERTEX
  8
0
 10
32035.2
 20
1050.1
 30
0.0
  0
VERTEX
  8
0
 10
32024.6
 20
1053.8
 30
0.0
  0
VERTEX
  8
0
 10
32011.9
 20
1061.9
 30
0.0
  0
VERTEX
  8
0
 10
31996.0
 20
1062.0
 30
0.0
  0
VERTEX
  8
0
 10
31998.3
 20
1045.4
 30
0.0
  0
VERTEX
  8
0
 10
31999.2
 20
1029.1
 30
0.0
  0
VERTEX
  8
0
 10
31999.6
 20
1012.3
 30
0.0
  0
VERTEX
  8
0
 10
32000.0
 20
1000.0
 30
0.0
  0
SEQEND
  0
POLYLINE
  8
0
 66
1
 10
0.0
 20
0.0
 30
0.0
 70
8
  0
VERTEX
  8
0
 10
33000.0
 20
1000.0
 30
0.0
  0
VERTEX
  8
0
 10
32999.6
 20
987.7
 30
0.0
  0
VERTEX
  8
0
 10
32999.2
 20
970.9
 30
0.0
  0
VERTEX
  8
0
 10
32998.3
 20
954.6
 30
0.0
  0
VERTEX
  8
0
 10
32996.0
 20
938.0
 30
0.0
  0
VERTEX
  8
0
 10
33011.9
 20
938.1
 30
0.0
  0
VERTEX
  8
0
 10
33024.6
 20
946.2
 30
0.0
  0
VERTEX
  8
0
 10
33035.2
 20
949.9
 30
0.0
  0
VERTEX
  8
0
 10
33049.2
 20
954.2
 30
0.0
  0
VERTEX
  8
0
 10
33064.7
 20
958.4
 30
0.0
  0
VERTEX
  8
0
 10
33076.6
 20
963.1
 30
0.0
  0
VERTEX
  8
0
 10
33091.3
 20
969.8
 30
0.0
  0
VERTEX
  8
0
 10
33106.1
 20
977.6
 30
0.0
  0
VERTEX
  8
0
 10
33104.6
 20
990.0
 30
0.0
  0
VERTEX
  8
0
 10
33103.7
 20
1000.2
 30
0.0
  0
VERTEX
  8
0
 10
33106.1
 20
1022.4
 30
0.0
  0
VERTEX
  8
0
 10
33091.3
 20
1030.2
 30
0.0
  0
VERTEX
  8
0
 10
33076.6
 20
1036.9
 30
0.0
  0
VERTEX
  8
0
 10
33064.7
 20
1041.6
 30
0.0
  0
VERTEX
  8
0
 10
33049.2
 20
1045.8
 30
0.0
  0
VERTEX
  8
0
 10
33035.2
 20
1050.1
 30
0.0
  0
VERTEX
  8
0
 10
33024.6
 20
1053.8
 30
0.0
  0
VERTEX
  8
0
 10
33011.9
 20
1061.9
 30
0.0
  0
VERTEX
  8
0
 10
32996.0
 20
1062.0
 30
0.0
  0
VERTEX
  8
0
 10
32998.3
 20
1045.4
 30
0.0
  0
VERTEX
  8
0
 10
32999.2
 20
1029.1
 30
0.0
  0
VERTEX
  8
0
 10
32999.6
 20
1012.3
 30
0.0
  0
VERTEX
  8
0
 10
33000.0
 20
1000.0
 30
0.0
  0
SEQEND
  0
POLYLINE
  8
0
 66
1
 10
0.0
 20
0.0
 30
0.0
 70
8
  0
VERTEX
  8
0
 10
33992.4
 20
991.5
 30
0.0
  0
VERTEX
  8
0
 10
33982.2
 20
980.0
 30
0.0
  0
VERTEX
  8
0
 10
33973.0
 20
969.4
 30
0.0
  0
VERTEX
  8
0
 10
33958.8
 20
962.6
 30
0.0
  0
VERTEX
  8
0
 10
33904.2
 20
961.7
 30
0.0
  0
VERTEX
  8
0
 10
33904.6
 20
945.7
 30
0.0
  0
VERTEX
  8
0
 10
33963.4
 20
944.0
 30
0.0
  0
VERTEX
  8
0
 10
33973.1
 20
934.1
 30
0.0
  0
VERTEX
  8
0
 10
33991.0
 20
929.2
 30
0.0
  0
VERTEX
  8
0
 10
33999.6
 20
946.1
 30
0.0
  0
VERTEX
  8
0
 10
34004.0
 20
955.7
 30
0.0
  0
VERTEX
  8
0
 10
34009.4
 20
968.8
 30
0.0
  0
VERTEX
  8
0
 10
34014.02381
 20
980.96825
 30
0.0
  0
VERTEX
  8
0
 10
34018.9
 20
995.8
 30
0.0
  0
VERTEX
  8
0
 10
34000.45243
 20
1000.50601
 30
0.0
  0
VERTEX
  8
0
 10
33992.4
 20
991.5
 30
0.0
  0
SEQEND
  0
POLYLINE
  8
0
 66
1
 10
0.0
 20
0.0
 30
0.0
 70
8
  0
VERTEX
  8
0
 10
34992.4
 20
991.5
 30
0.0
  0
VERTEX
  8
0
 10
34982.2
 20
980.0
 30
0.0
  0
VERTEX
  8
0
 10
34973.0
 20
969.4
 30
0.0
  0
VERTEX
  8
0
 10
34958.8
 20
962.6
 30
0.0
  0
VERTEX
  8
0
 10
34904.2
 20
961.7
 30
0.0
  0
VERTEX
  8
0
 10
34904.6
 20
945.7
 30
0.0
  0
VERTEX
  8
0
 10
34963.4
 20
944.0
 30
0.0
  0
VERTEX
  8
0
 10
34973.1
 20
934.1
 30
0.0
  0
VERTEX
  8
0
 10
34991.0
 20
929.2
 30
0.0
  0
VERTEX
  8
0
 10
34999.6
 20
946.1
 30
0.0
  0
VERTEX
  8
0
 10
35004.0
 20
955.7
 30
0.0
  0
VERTEX
  8
0
 10
35009.4
 20
968.8
 30
0.0
  0
VERTEX
  8
0
 10
35014.02381
 20
980.96825
 30
0.0
  0
VERTEX
  8
0
 10
35018.9
 20
995.8
 30
0.0
  0
VERTEX
  8
0
 10
35000.45243
 20
1000.50601
 30
0.0
  0
VERTEX
  8
0
 10
34992.4
 20
991.5
 30
0.0
  0
SEQEND
  0
POLYLINE
  8
0
 66
1
 10
0.0
 20
0.0
 30
0.0
 70
8
  0
VERTEX
  8
0
 10
35992.4
 20
991.5
 30
0.0
  0
VERTEX
  8
0
 10
35982.2
 20
980.0
 30
0.0
  0
VERTEX
  8
0
 10
35973.0
 20
969.4
 30
0.0
  0
VERTEX
  8
0
 10
35958.8
 20
962.6
 30
0.0
  0
VERTEX
  8
0
 10
35904.2
 20
961.7
 30
0.0
  0
VERTEX
  8
0
 10
35904.6
 20
945.7
 30
0.0
  0
VERTEX
  8
0
 10
35963.4
 20
944.0
 30
0.0
  0
VERTEX
  8
0
 10
35973.1
 20
934.1
 30
0.0
  0
VERTEX
  8
0
 10
35991.0
 20
929.2
 30
0.0
  0
VERTEX
  8
0
 10
35999.6
 20
946.1
 30
0.0
  0
VERTEX
  8
0
 10
36004.0
 20
955.7
 30
0.0
  0
VERTEX
  8
0
 10
36009.4
 20
968.8
 30
0.0
  0
VERTEX
  8
0
 10
36014.02381
 20
980.96825
 30
0.0
  0
VERTEX
  8
0
 10
36018.9
 20
995.8
 30
0.0
  0
VERTEX
  8
0
 10
36000.45243
 20
1000.50601
 30
0.0
  0
VERTEX
  8
0
 10
35992.4
 20
991.5
 30
0.0
  0
SEQEND
  0
POLYLINE
  8
0
 66
1
 10
0.0
 20
0.0
 30
0.0
 70
8
  0
VERTEX
  8
0
 10
36992.4
 20
991.5
 30
0.0
  0
VERTEX
  8
0
 10
36982.2
 20
980.0
 30
0.0
  0
VERTEX
  8
0
 10
36973.0
 20
969.4
 30
0.0
  0
VERTEX
  8
0
 10
36958.8
 20
962.6
 30
0.0
  0
VERTEX
  8
0
 10
36904.2
 20
961.7
 30
0.0
  0
VERTEX
  8
0
 10
36904.6
 20
945.7
 30
0.0
  0
VERTEX
  8
0
 10
36963.4
 20
944.0
 30
0.0
  0
VERTEX
  8
0
 10
36973.1
 20
934.1
 30
0.0
  0
VERTEX
  8
0
 10
36991.0
 20
929.2
 30
0.0
  0
VERTEX
  8
0
 10
36999.6
 20
946.1
 30
0.0
  0
VERTEX
  8
0
 10
37004.0
 20
955.7
 30
0.0
  0
VERTEX
  8
0
 10
37009.4
 20
968.8
 30
0.0
  0
VERTEX
  8
0
 10
37014.02381
 20
980.96825
 30
0.0
  0
VERTEX
  8
0
 10
37018.9
 20
995.8
 30
0.0
  0
VERTEX
  8
0
 10
37000.45243
 20
1000.50601
 30
0.0
  0
VERTEX
  8
0
 10
36992.4
 20
991.5
 30
0.0
  0
SEQEND
  0
POLYLINE
  8
0
 66
1
 10
0.0
 20
0.0
 30
0.0
 70
8
  0
VERTEX
  8
0
 10
37992.4
 20
991.5
 30
0.0
  0
VERTEX
  8
0
 10
37982.2
 20
980.0
 30
0.0
  0
VERTEX
  8
0
 10
37973.0
 20
969.4
 30
0.0
  0
VERTEX
  8
0
 10
37958.8
 20
962.6
 30
0.0
  0
VERTEX
  8
0
 10
37904.2
 20
961.7
 30
0.0
  0
VERTEX
  8
0
 10
37904.6
 20
945.7
 30
0.0
  0
VERTEX
  8
0
 10
37963.4
 20
944.0
 30
0.0
  0
VERTEX
  8
0
 10
37973.1
 20
934.1
 30
0.0
  0
VERTEX
  8
0
 10
37991.0
 20
929.2
 30
0.0
  0
VERTEX
  8
0
 10
37999.6
 20
946.1
 30
0.0
  0
VERTEX
  8
0
 10
38004.0
 20
955.7
 30
0.0
  0
VERTEX
  8
0
 10
38009.4
 20
968.8
 30
0.0
  0
VERTEX
  8
0
 10
38014.02381
 20
980.96825
 30
0.0
  0
VERTEX
  8
0
 10
38018.9
 20
995.8
 30
0.0
  0
VERTEX
  8
0
 10
38000.45243
 20
1000.50601
 30
0.0
  0
VERTEX
  8
0
 10
37992.4
 20
991.5
 30
0.0
  0
SEQEND
  0
POLYLINE
  8
0
 66
1
 10
0.0
 20
0.0
 30
0.0
 70
8
  0
VERTEX
  8
0
 10
38992.4
 20
991.5
 30
0.0
  0
VERTEX
  8
0
 10
38982.2
 20
980.0
 30
0.0
  0
VERTEX
  8
0
 10
38973.0
 20
969.4
 30
0.0
  0
VERTEX
  8
0
 10
38958.8
 20
962.6
 30
0.0
  0
VERTEX
  8
0
 10
38904.2
 20
961.7
 30
0.0
  0
VERTEX
  8
0
 10
38904.6
 20
945.7
 30
0.0
  0
VERTEX
  8
0
 10
38963.4
 20
944.0
 30
0.0
  0
VERTEX
  8
0
 10
38973.1
 20
934.1
 30
0.0
  0
VERTEX
  8
0
 10
38991.0
 20
929.2
 30
0.0
  0
VERTEX
  8
0
 10
38999.6
 20
946.1
 30
0.0
  0
VERTEX
  8
0
 10
39004.0
 20
955.7
 30
0.0
  0
VERTEX
  8
0
 10
39009.4
 20
968.8
 30
0.0
  0
VERTEX
  8
0
 10
39014.02381
 20
980.96825
 30
0.0
  0
VERTEX
  8
0
 10
39018.9
 20
995.8
 30
0.0
  0
VERTEX
  8
0
 10
39000.45243
 20
1000.50601
 30
0.0
  0
VERTEX
  8
0
 10
38992.4
 20
991.5
 30
0.0
  0
SEQEND
  0
POLYLINE
  8
0
 66
1
 10
0.0
 20
0.0
 30
0.0
 70
8
  0
VERTEX
  8
0
 10
39986.41264
 20
991.95517
 30
0.0
  0
VERTEX
  8
0
 10
39976.19472
 20
979.69366
 30
0.0
  0
VERTEX
  8
0
 10
39975.91218
 20
963.3067
 30
0.0
  0
VERTEX
  8
0
 10
39980.26393
 20
951.41192
 30
0.0
  0
VERTEX
  8
0
 10
39988.56716
 20
937.4382
 30
0.0
  0
VERTEX
  8
0
 10
39996.71149
 20
944.49662
 30
0.0
  0
VERTEX
  8
0
 10
40005.82857
 20
955.5
 30
0.0
  0
VERTEX
  8
0
 10
40011.81429
 20
969.46667
 30
0.0
  0
VERTEX
  8
0
 10
40010.8699
 20
984.89159
 30
0.0
  0
VERTEX
  8
0
 10
40000.71138
 20
1001.33872
 30
0.0
  0
VERTEX
  8
0
 10
39986.41264
 20
991.95517
 30
0.0
  0
SEQEND
  0
POLYLINE
  8
0
 66
1
 10
0.0
 20
0.0
 30
0.0
 70
8
  0
VERTEX
  8
0
 10
40986.41264
 20
991.95517
 30
0.0
  0
VERTEX
  8
0
 10
40976.19472
 20
979.69366
 30
0.0
  0
VERTEX
  8
0
 10
40975.91218
 20
963.3067
 30
0.0
  0
VERTEX
  8
0
 10
40980.26393
 20
951.41192
 30
0.0
  0
VERTEX
  8
0
 10
40988.56716
 20
937.4382
 30
0.0
  0
VERTEX
  8
0
 10
40996.71149
 20
944.49662
 30
0.0
  0
VERTEX
  8
0
 10
41005.82857
 20
955.5
 30
0.0
  0
VERTEX
  8
0
 10
41011.81429
 20
969.46667
 30
0.0
  0
VERTEX
  8
0
 10
41010.8699
 20
984.89159
 30
0.0
  0
VERTEX
  8
0
 10
41000.71138
 20
1001.33872
 30
0.0
  0
VERTEX
  8
0
 10
40986.41264
 20
991.95517
 30
0.0
  0
SEQEND
  0
POLYLINE
  8
0
 66
1
 10
0.0
 20
0.0
 30
0.0
 70
8
  0
VERTEX
  8
0
 10
41986.41264
 20
991.95517
 30
0.0
  0
VERTEX
  8
0
 10
41976.19472
 20
979.69366
 30
0.0
  0
VERTEX
  8
0
 10
41975.91218
 20
963.3067
 30
0.0
  0
VERTEX
  8
0
 10
41980.26393
 20
951.41192
 30
0.0
  0
VERTEX
  8
0
 10
41988.56716
 20
937.4382
 30
0.0
  0
VERTEX
  8
0
 10
41996.71149
 20
944.49662
 30
0.0
  0
VERTEX
  8
0
 10
42005.82857
 20
955.5
 30
0.0
  0
VERTEX
  8
0
 10
42011.81429
 20
969.46667
 30
0.0
  0
VERTEX
  8
0
 10
42010.8699
 20
984.89159
 30
0.0
  0
VERTEX
  8
0
 10
42000.71138
 20
1001.33872
 30
0.0
  0
VERTEX
  8
0
 10
41986.41264
 20
991.95517
 30
0.0
  0
SEQEND
  0
POLYLINE
  8
0
 66
1
 10
0.0
 20
0.0
 30
0.0
 70
8
  0
VERTEX
  8
0
 10
42986.41264
 20
991.95517
 30
0.0
  0
VERTEX
  8
0
 10
42976.19472
 20
979.69366
 30
0.0
  0
VERTEX
  8
0
 10
42975.91218
 20
963.3067
 30
0.0
  0
VERTEX
  8
0
 10
42980.26393
 20
951.41192
 30
0.0
  0
VERTEX
  8
0
 10
42988.56716
 20
937.4382
 30
0.0
  0
VERTEX
  8
0
 10
42996.71149
 20
944.49662
 30
0.0
  0
VERTEX
  8
0
 10
43005.82857
 20
955.5
 30
0.0
  0
VERTEX
  8
0
 10
43011.81429
 20
969.46667
 30
0.0
  0
VERTEX
  8
0
 10
43010.8699
 20
984.89159
 30
0.0
  0
VERTEX
  8
0
 10
43000.71138
 20
1001.33872
 30
0.0
  0
VERTEX
  8
0
 10
42986.41264
 20
991.95517
 30
0.0
  0
SEQEND
  0
POLYLINE
  8
0
 66
1
 10
0.0
 20
0.0
 30
0.0
 70
8
  0
VERTEX
  8
0
 10
43986.41264
 20
991.95517
 30
0.0
  0
VERTEX
  8
0
 10
43976.19472
 20
979.69366
 30
0.0
  0
VERTEX
  8
0
 10
43975.91218
 20
963.3067
 30
0.0
  0
VERTEX
  8
0
 10
43980.26393
 20
951.41192
 30
0.0
  0
VERTEX
  8
0
 10
43988.56716
 20
937.4382
 30
0.0
  0
VERTEX
  8
0
 10
43996.71149
 20
944.49662
 30
0.0
  0
VERTEX
  8
0
 10
44005.82857
 20
955.5
 30
0.0
  0
VERTEX
  8
0
 10
44011.81429
 20
969.46667
 30
0.0
  0
VERTEX
  8
0
 10
44010.8699
 20
984.89159
 30
0.0
  0
VERTEX
  8
0
 10
44000.71138
 20
1001.33872
 30
0.0
  0
VERTEX
  8
0
 10
43986.41264
 20
991.95517
 30
0.0
  0
SEQEND
  0
POLYLINE
  8
0
 66
1
 10
0.0
 20
0.0
 30
0.0
 70
8
  0
VERTEX
  8
0
 10
44986.41264
 20
991.95517
 30
0.0
  0
VERTEX
  8
0
 10
44976.19472
 20
979.69366
 30
0.0
  0
VERTEX
  8
0
 10
44975.91218
 20
963.3067
 30
0.0
  0
VERTEX
  8
0
 10
44980.26393
 20
951.41192
 30
0.0
  0
VERTEX
  8
0
 10
44988.56716
 20
937.4382
 30
0.0
  0
VERTEX
  8
0
 10
44996.71149
 20
944.49662
 30
0.0
  0
VERTEX
  8
0
 10
45005.82857
 20
955.5
 30
0.0
  0
VERTEX
  8
0
 10
45011.81429
 20
969.46667
 30
0.0
  0
VERTEX
  8
0
 10
45010.8699
 20
984.89159
 30
0.0
  0
VERTEX
  8
0
 10
45000.71138
 20
1001.33872
 30
0.0
  0
VERTEX
  8
0
 10
44986.41264
 20
991.95517
 30
0.0
  0
SEQEND
  0
POLYLINE
  8
0
 66
1
 10
0.0
 20
0.0
 30
0.0
 70
8
  0
VERTEX
  8
0
 10
45982.46111
 20
992.75205
 30
0.0
  0
VERTEX
  8
0
 10
45969.6
 20
984.9
 30
0.0
  0
VERTEX
  8
0
 10
45959.3
 20
980.7
 30
0.0
  0
VERTEX
  8
0
 10
45949.0
 20
979.2
 30
0.0
  0
VERTEX
  8
0
 10
45932.7
 20
980.8
 30
0.0
  0
VERTEX
  8
0
 10
45921.0
 20
983.1
 30
0.0
  0
VERTEX
  8
0
 10
45901.0
 20
987.6
 30
0.0
  0
VERTEX
  8
0
 10
45897.1
 20
970.8
 30
0.0
  0
VERTEX
  8
0
 10
45924.0
 20
964.7
 30
0.0
  0
VERTEX
  8
0
 10
45946.9
 20
959.6
 30
0.0
  0
VERTEX
  8
0
 10
45958.7
 20
957.0
 30
0.0
  0
VERTEX
  8
0
 10
45971.2
 20
949.0
 30
0.0
  0
VERTEX
  8
0
 10
45974.8
 20
930.0
 30
0.0
  0
VERTEX
  8
0
 10
45974.8
 20
913.8
 30
0.0
  0
VERTEX
  8
0
 10
45972.6
 20
898.5
 30
0.0
  0
VERTEX
  8
0
 10
45946.7
 20
884.3
 30
0.0
  0
VERTEX
  8
0
 10
45923.8
 20
879.3
 30
0.0
  0
VERTEX
  8
0
 10
45896.9
 20
873.3
 30
0.0
  0
VERTEX
  8
0
 10
45900.7
 20
856.5
 30
0.0
  0
VERTEX
  8
0
 10
45920.7
 20
860.9
 30
0.0
  0
VERTEX
  8
0
 10
45932.5
 20
863.2
 30
0.0
  0
VERTEX
  8
0
 10
45948.8
 20
864.7
 30
0.0
  0
VERTEX
  8
0
 10
45959.1
 20
863.2
 30
0.0
  0
VERTEX
  8
0
 10
45969.3
 20
858.9
 30
0.0
  0
VERTEX
  8
0
 10
45981.95882
 20
851.17146
 30
0.0
  0
VERTEX
  8
0
 10
46000.64217
 20
843.10812
 30
0.0
  0
VERTEX
  8
0
 10
46031.9
 20
850.1
 30
0.0
  0
VERTEX
  8
0
 10
46027.0
 20
871.0
 30
0.0
  0
VERTEX
  8
0
 10
46024.8
 20
885.7
 30
0.0
  0
VERTEX
  8
0
 10
46024.1
 20
907.8
 30
0.0
  0
VERTEX
  8
0
 10
46024.2
 20
921.8
 30
0.0
  0
VERTEX
  8
0
 10
46024.2
 20
935.8
 30
0.0
  0
VERTEX
  8
0
 10
46024.6
 20
950.6
 30
0.0
  0
VERTEX
  8
0
 10
46025.7
 20
964.2
 30
0.0
  0
VERTEX
  8
0
 10
46032.2
 20
993.5
 30
0.0
  0
VERTEX
  8
0
 10
46001.58475
 20
1000.80411
 30
0.0
  0
VERTEX
  8
0
 10
45982.46111
 20
992.75205
 30
0.0
  0
SEQEND
  0
POLYLINE
  8
0
 66
1
 10
0.0
 20
0.0
 30
0.0
 70
8
  0
VERTEX
  8
0
 10
46982.46111
 20
992.75205
 30
0.0
  0
VERTEX
  8
0
 10
46969.6
 20
984.9
 30
0.0
  0
VERTEX
  8
0
 10
46959.3
 20
980.7
 30
0.0
  0
VERTEX
  8
0
 10
46949.0
 20
979.2
 30
0.0
  0
VERTEX
  8
0
 10
46932.7
 20
980.8
 30
0.0
  0
VERTEX
  8
0
 10
46921.0
 20
983.1
 30
0.0
  0
VERTEX
  8
0
 10
46901.0
 20
987.6
 30
0.0
  0
VERTEX
  8
0
 10
46897.1
 20
970.8
 30
0.0
  0
VERTEX
  8
0
 10
46924.0
 20
964.7
 30
0.0
  0
VERTEX
  8
0
 10
46946.9
 20
959.6
 30
0.0
  0
VERTEX
  8
0
 10
46958.7
 20
957.0
 30
0.0
  0
VERTEX
  8
0
 10
46971.2
 20
949.0
 30
0.0
  0
VERTEX
  8
0
 10
46974.8
 20
930.0
 30
0.0
  0
VERTEX
  8
0
 10
46974.8
 20
913.8
 30
0.0
  0
VERTEX
  8
0
 10
46972.6
 20
898.5
 30
0.0
  0
VERTEX
  8
0
 10
46946.7
 20
884.3
 30
0.0
  0
VERTEX
  8
0
 10
46923.8
 20
879.3
 30
0.0
  0
VERTEX
  8
0
 10
46896.9
 20
873.3
 30
0.0
  0
VERTEX
  8
0
 10
46900.7
 20
856.5
 30
0.0
  0
VERTEX
  8
0
 10
46920.7
 20
860.9
 30
0.0
  0
VERTEX
  8
0
 10
46932.5
 20
863.2
 30
0.0
  0
VERTEX
  8
0
 10
46948.8
 20
864.7
 30
0.0
  0
VERTEX
  8
0
 10
46959.1
 20
863.2
 30
0.0
  0
VERTEX
  8
0
 10
46969.3
 20
858.9
 30
0.0
  0
VERTEX
  8
0
 10
46981.95882
 20
851.17146
 30
0.0
  0
VERTEX
  8
0
 10
47000.64217
 20
843.10812
 30
0.0
  0
VERTEX
  8
0
 10
47031.9
 20
850.1
 30
0.0
  0
VERTEX
  8
0
 10
47027.0
 20
871.0
 30
0.0
  0
VERTEX
  8
0
 10
47024.8
 20
885.7
 30
0.0
  0
VERTEX
  8
0
 10
47024.1
 20
907.8
 30
0.0
  0
VERTEX
  8
0
 10
47024.2
 20
921.8
 30
0.0
  0
VERTEX
  8
0
 10
47024.2
 20
935.8
 30
0.0
  0
VERTEX
  8
0
 10
47024.6
 20
950.6
 30
0.0
  0
VERTEX
  8
0
 10
47025.7
 20
964.2
 30
0.0
  0
VERTEX
  8
0
 10
47032.2
 20
993.5
 30
0.0
  0
VERTEX
  8
0
 10
47001.58475
 20
1000.80411
 30
0.0
  0
VERTEX
  8
0
 10
46982.46111
 20
992.75205
 30
0.0
  0
SEQEND
  0
POLYLINE
  8
0
 66
1
 10
0.0
 20
0.0
 30
0.0
 70
8
  0
VERTEX
  8
0
 10
47982.46111
 20
992.75205
 30
0.0
  0
VERTEX
  8
0
 10
47969.6
 20
984.9
 30
0.0
  0
VERTEX
  8
0
 10
47959.3
 20
980.7
 30
0.0
  0
VERTEX
  8
0
 10
47949.0
 20
979.2
 30
0.0
  0
VERTEX
  8
0
 10
47932.7
 20
980.8
 30
0.0
  0
VERTEX
  8
0
 10
47921.0
 20
983.1
 30
0.0
  0
VERTEX
  8
0
 10
47901.0
 20
987.6
 30
0.0
  0
VERTEX
  8
0
 10
47897.1
 20
970.8
 30
0.0
  0
VERTEX
  8
0
 10
47924.0
 20
964.7
 30
0.0
  0
VERTEX
  8
0
 10
47946.9
 20
959.6
 30
0.0
  0
VERTEX
  8
0
 10
47958.7
 20
957.0
 30
0.0
  0
VERTEX
  8
0
 10
47971.2
 20
949.0
 30
0.0
  0
VERTEX
  8
0
 10
47974.8
 20
930.0
 30
0.0
  0
VERTEX
  8
0
 10
47974.8
 20
913.8
 30
0.0
  0
VERTEX
  8
0
 10
47972.6
 20
898.5
 30
0.0
  0
VERTEX
  8
0
 10
47946.7
 20
884.3
 30
0.0
  0
VERTEX
  8
0
 10
47923.8
 20
879.3
 30
0.0
  0
VERTEX
  8
0
 10
47896.9
 20
873.3
 30
0.0
  0
VERTEX
  8
0
 10
47900.7
 20
856.5
 30
0.0
  0
VERTEX
  8
0
 10
47920.7
 20
860.9
 30
0.0
  0
VERTEX
  8
0
 10
47932.5
 20
863.2
 30
0.0
  0
VERTEX
  8
0
 10
47948.8
 20
864.7
 30
0.0
  0
VERTEX
  8
0
 10
47959.1
 20
863.2
 30
0.0
  0
VERTEX
  8
0
 10
47969.3
 20
858.9
 30
0.0
  0
VERTEX
  8
0
 10
47981.95882
 20
851.17146
 30
0.0
  0
VERTEX
  8
0
 10
48000.64217
 20
843.10812
 30
0.0
  0
VERTEX
  8
0
 10
48031.9
 20
850.1
 30
0.0
  0
VERTEX
  8
0
 10
48027.0
 20
871.0
 30
0.0
  0
VERTEX
  8
0
 10
48024.8
 20
885.7
 30
0.0
  0
VERTEX
  8
0
 10
48024.1
 20
907.8
 30
0.0
  0
VERTEX
  8
0
 10
48024.2
 20
921.8
 30
0.0
  0
VERTEX
  8
0
 10
48024.2
 20
935.8
 30
0.0
  0
VERTEX
  8
0
 10
48024.6
 20
950.6
 30
0.0
  0
VERTEX
  8
0
 10
48025.7
 20
964.2
 30
0.0
  0
VERTEX
  8
0
 10
48032.2
 20
993.5
 30
0.0
  0
VERTEX
  8
0
 10
48001.58475
 20
1000.80411
 30
0.0
  0
VERTEX
  8
0
 10
47982.46111
 20
992.75205
 30
0.0
  0
SEQEND
  0
ENDSEC
  0
EOF
