<?xml version="1.0" ?>
<svg width="490" height="1000" viewBox="0 0 490 1000">
	<path d="M 1000,1008.6 L 1096.6,1014.2 L 1198.3,1000 L 1218.5,1023.8 L 1273.4,1021.7 L 1300,1076.7 L 1281.9,1090 L 1281.9,1136 L 1300,1149.3 L 1273.4,1204.3 L 1218.5,1202.2 L 1198.3,1226 L 1096.6,1211.8 L 1000,1217.4 Z" color="black" fill="black" stroke="none" transform="translate(-999.970,-999.971) rotate(0.000,999.970,1008.568)"/>
	<path d="M 2000,1008.6 L 2096.6,1014.2 L 2198.3,1000 L 2218.5,1023.8 L 2273.4,1021.7 L 2300,1076.7 L 2281.9,1090 L 2281.9,1136 L 2300,1149.3 L 2273.4,1204.3 L 2218.5,1202.2 L 2198.3,1226 L 2096.6,1211.8 L 2000,1217.4 Z" color="black" fill="black" stroke="none" transform="translate(-1699.909,-578.534) rotate(180.000,1999.970,1008.568)"/>
	<path d="M 22005.6,1007.3 L 22106.6,1014.3 L 22189.1,1000 L 22218.6,1028.8 L 22257.3,1024.1 L 22267.6,1092.6 L 22259.4,1136.6 L 22000,1136.6 Z" color="black" fill="black" stroke="none" transform="translate(-21991.546,-574.716) rotate(0.000,22005.571,1007.268)"/>
	<path d="M 21005.6,1007.3 L 21106.6,1014.3 L 21189.1,1000 L 21218.6,1028.8 L 21257.3,1024.1 L 21267.6,1092.6 L 21259.4,1136.6 L 21000,1136.6 Z" color="black" fill="black" stroke="none" transform="translate(-20999.969,-438.060) rotate(0.000,21005.571,1007.268)"/>
	<path d="M 5000,1017.3 L 5176.1,1000 L 5218.3,1065 L 5218.3,1101 L 5176.1,1166 L 5000,1148.7 Z" color="black" fill="black" stroke="none" transform="translate(-4999.970,-301.402) rotate(0.000,4999.970,1017.273)"/>
	<path d="M 6000,1017.3 L 6176.1,1000 L 6218.3,1065 L 6218.3,1101 L 6176.1,1166 L 6000,1148.7 Z" color="black" fill="black" stroke="none" transform="translate(-5767.853,-113.588) rotate(270.000,5999.970,1017.273)"/>
	<path d="M 7000,1017.3 L 7176.1,1000 L 7218.3,1065 L 7218.3,1101 L 7176.1,1166 L 7000,1148.7 Z" color="black" fill="black" stroke="none" transform="translate(-6586.582,-558.964) rotate(90.000,6999.970,1017.273)"/>
	<path d="M 8000,1017.3 L 8176.1,1000 L 8218.3,1065 L 8218.3,1101 L 8176.1,1166 L 8000,1148.7 Z" color="black" fill="black" stroke="none" transform="translate(-7689.263,-759.524) rotate(270.000,7999.970,1017.273)"/>
	<path d="M 24000,1000 L 24249.9,1000 L 24270.5,1038.7 L 24262.2,1093.4 L 24214.8,1096.7 L 24192,1115.2 L 24106.1,1105.9 L 24000,1112.5 Z" color="black" fill="black" stroke="none" transform="translate(-23510.170,-330.818) rotate(90.000,23999.970,999.970)"/>
	<path d="M 3000,1000 L 3303.4,1000 L 3303.4,1026.1 L 3000,1026.1 Z" color="black" fill="black" stroke="none" transform="translate(-2514.346,-999.970) rotate(90.000,2999.970,999.970)"/>
	<path d="M 4000,1000 L 4303.4,1000 L 4303.4,1026.1 L 4000,1026.1 Z" color="black" fill="black" stroke="none" transform="translate(-3550.313,-742.222) rotate(90.000,3999.970,999.970)"/>
	<path d="M 17000,1000 L 17093.6,1000 L 17093.6,1065.9 L 17000,1065.9 Z" color="black" fill="black" stroke="none" transform="translate(-16699.909,-742.222) rotate(0.000,16999.970,999.970)"/>
	<path d="M 18000,1000 L 18093.6,1000 L 18093.6,1065.9 L 18000,1065.9 Z" color="black" fill="black" stroke="none" transform="translate(-17699.909,-676.262) rotate(0.000,17999.970,999.970)"/>
	<path d="M 19000,1000 L 19093.6,1000 L 19093.6,1065.9 L 19000,1065.9 Z" color="black" fill="black" stroke="none" transform="translate(-18699.909,-610.302) rotate(0.000,18999.970,999.970)"/>
	<path d="M 20000,1000 L 20093.6,1000 L 20093.6,1065.9 L 20000,1065.9 Z" color="black" fill="black" stroke="none" transform="translate(-19999.970,-143.446) rotate(0.000,19999.970,999.970)"/>
	<path d="M 13000,1000 L 13041.1,1006.5 L 13080,1000 L 13118.9,1006.5 L 13160,1000 L 13150,1036.8 L 13080,1028.6 L 13010,1036.8 Z" color="black" fill="black" stroke="none" transform="translate(-12729.202,-999.963) rotate(0.000,12999.959,999.963)"/>
	<path d="M 14000,1000 L 14041.1,1006.5 L 14080,1000 L 14118.9,1006.5 L 14160,1000 L 14150,1036.8 L 14080,1028.6 L 14010,1036.8 Z" color="black" fill="black" stroke="none" transform="translate(-13513.434,-696.748) rotate(90.000,13999.959,999.963)"/>
	<path d="M 15000,1000 L 15041.1,1006.5 L 15080,1000 L 15118.9,1006.5 L 15160,1000 L 15150,1036.8 L 15080,1028.6 L 15010,1036.8 Z" color="black" fill="black" stroke="none" transform="translate(-14513.434,-536.690) rotate(90.000,14999.959,999.963)"/>
	<path d="M 16000,1000 L 16041.1,1006.5 L 16080,1000 L 16118.9,1006.5 L 16160,1000 L 16150,1036.8 L 16080,1028.6 L 16010,1036.8 Z" color="black" fill="black" stroke="none" transform="translate(-15622.058,-59.914) rotate(180.000,15999.959,999.963)"/>
	<path d="M 11007.4,1000 L 11087,1011.9 L 11166.6,1000 L 11174,1012.5 L 11087,1030.5 L 11000,1012.5 Z" color="black" fill="black" stroke="none" transform="translate(-10794.906,-55.037) rotate(180.000,11007.384,999.967)"/>
	<path d="M 12007.4,1000 L 12087,1011.9 L 12166.6,1000 L 12174,1012.5 L 12087,1030.5 L 12000,1012.5 Z" color="black" fill="black" stroke="none" transform="translate(-11794.916,-36.379) rotate(180.000,12007.384,999.967)"/>
	<path d="M 10007.4,1000 L 10087,1011.9 L 10166.6,1000 L 10174,1012.5 L 10087,1030.5 L 10000,1012.5 Z" color="black" fill="black" stroke="none" transform="translate(-9591.031,-35.863) rotate(180.000,10007.384,999.967)"/>
	<path d="M 9007.4,1000 L 9087,1011.9 L 9166.6,1000 L 9174,1012.5 L 9087,1030.5 L 9000,1012.5 Z" color="black" fill="black" stroke="none" transform="translate(-8794.927,-17.720) rotate(180.000,9007.384,999.967)"/>
</svg>
