<?xml version="1.0" ?>
<svg width="1000.1" height="1000.1" viewBox="0 0 1000.1 1000.1">
	<path d="M 6230,1000 L 6530,1210 L 6530,1700 L 6190,1700 L 6070,1420 L 6000,1230 L 6120,1100 Z" color="black" fill="black" stroke="none" transform="translate(-5999.966,-999.962) rotate(0.000,6229.998,999.962)"/>
	<path d="M 5000,1000 L 5300,1080 L 5670,1190 L 5560,1290 L 5040,1220 Z" color="black" fill="black" stroke="none" transform="translate(-4999.962,-350.562) rotate(0.000,4999.962,999.959)"/>
	<path d="M 9000,1000 L 9440,1090 L 9160,1370 L 9020,1370 Z" color="black" fill="black" stroke="none" transform="translate(-8481.256,-999.963) rotate(0.000,8999.968,999.963)"/>
	<path d="M 3050,1000 L 3300,1000 L 3300,1510 L 3000,1300 Z" color="black" fill="black" stroke="none" transform="translate(-2469.904,-629.903) rotate(0.000,3049.975,999.970)"/>
	<path d="M 8000,1000 L 8080,1020 L 8100,1270 L 8120,1640 L 8000,1640 Z" color="black" fill="black" stroke="none" transform="translate(-7169.844,-781.267) rotate(0.000,7999.970,999.962)"/>
	<path d="M 4000,1000 L 4030,1110 L 4070,1330 L 4080,1380 L 4000,1360 Z" color="black" fill="black" stroke="none" transform="translate(-3999.970,-769.806) rotate(0.000,3999.970,999.853)"/>
</svg>
