<?xml version="1.0" ?>
<svg width="1040" height="800" viewBox="0 0 1040 800">
	<path d="M 22000,1000 L 22290,1000 L 22270,1120 L 22290,1220 L 22250,1260 L 22250,1330 L 22180,1370 L 22160,1350 L 22140,1350 L 22120,1370 L 22040,1340 L 22040,1260 L 22000,1220 L 22020,1120 Z" color="black" fill="black" stroke="none" transform="translate(-21999.965,-999.970) rotate(0.000,21999.965,999.970)"/>
	<path d="M 21000,1000 L 21290,1000 L 21270,1120 L 21290,1220 L 21250,1260 L 21250,1330 L 21180,1370 L 21160,1350 L 21140,1350 L 21120,1370 L 21040,1340 L 21040,1260 L 21000,1220 L 21020,1120 Z" color="black" fill="black" stroke="none" transform="translate(-20433.841,-629.908) rotate(180.000,20999.965,999.970)"/>
	<path d="M 3000,1000 L 3210,1000 L 3210,1220 L 3140,1280 L 3070,1280 L 3000,1220 Z" color="black" fill="black" stroke="none" transform="translate(-2433.854,-999.970) rotate(0.000,2999.970,999.970)"/>
	<path d="M 2000,1000 L 2210,1000 L 2210,1220 L 2140,1280 L 2070,1280 L 2000,1220 Z" color="black" fill="black" stroke="none" transform="translate(-1223.794,-999.970) rotate(0.000,1999.970,999.970)"/>
	<path d="M 4000,1000 L 4210,1000 L 4210,1220 L 4140,1280 L 4070,1280 L 4000,1220 Z" color="black" fill="black" stroke="none" transform="translate(-3373.815,-509.854) rotate(270.000,3999.970,999.970)"/>
	<path d="M 1000,1000 L 1210,1000 L 1210,1220 L 1140,1280 L 1070,1280 L 1000,1220 Z" color="black" fill="black" stroke="none" transform="translate(-943.956,-419.852) rotate(270.000,999.970,999.970)"/>
	<path d="M 9000,1000 L 9330,1000 L 9330,1140 L 9300,1140 L 9260,1170 L 9130,1150 L 9000,1170 Z" color="black" fill="black" stroke="none" transform="translate(-8133.765,-342.868) rotate(180.000,8999.970,999.970)"/>
	<path d="M 10000,1000 L 10330,1000 L 10330,1140 L 10300,1140 L 10260,1170 L 10130,1150 L 10000,1170 Z" color="black" fill="black" stroke="none" transform="translate(-9504.604,-629.908) rotate(90.000,9999.970,999.970)"/>
	<path d="M 24000,1000 L 24330,1000 L 24370,1060 L 24350,1130 L 24280,1130 L 24250,1150 L 24140,1130 L 24000,1150 Z" color="black" fill="black" stroke="none" transform="translate(-23110.031,-230.845) rotate(270.000,23999.970,999.970)"/>
	<path d="M 11000,1000 L 11040,1000 L 11040,1390 L 11000,1390 Z" color="black" fill="black" stroke="none" transform="translate(-10999.970,-659.908) rotate(0.000,10999.970,999.970)"/>
	<path d="M 12000,1000 L 12040,1000 L 12040,1390 L 12000,1390 Z" color="black" fill="black" stroke="none" transform="translate(-11959.910,-259.788) rotate(270.000,11999.970,999.970)"/>
	<path d="M 7000,1050 L 7020,1000 L 7110,1020 L 7190,1000 L 7210,1050 L 7170,1040 L 7110,1060 L 7040,1040 Z" color="black" fill="black" stroke="none" transform="translate(-6959.890,-419.851) rotate(0.000,6999.950,1050.043)"/>
	<path d="M 6000,1050 L 6020,1000 L 6110,1020 L 6190,1000 L 6210,1050 L 6170,1040 L 6110,1060 L 6040,1040 Z" color="black" fill="black" stroke="none" transform="translate(-5959.890,-374.788) rotate(0.000,5999.950,1050.043)"/>
	<path d="M 5000,1050 L 5020,1000 L 5110,1020 L 5190,1000 L 5210,1050 L 5170,1040 L 5110,1060 L 5040,1040 Z" color="black" fill="black" stroke="none" transform="translate(-4425.498,-799.984) rotate(90.000,4999.950,1050.043)"/>
	<path d="M 8000,1050 L 8020,1000 L 8110,1020 L 8190,1000 L 8210,1050 L 8170,1040 L 8110,1060 L 8040,1040 Z" color="black" fill="black" stroke="none" transform="translate(-7010.025,-918.026) rotate(90.000,7999.950,1050.043)"/>
	<path d="M 13000,1000 L 13100,1000 L 13100,1110 L 13000,1110 Z" color="black" fill="black" stroke="none" transform="translate(-12504.604,-342.868) rotate(0.000,12999.970,999.970)"/>
	<path d="M 14000,1000 L 14100,1000 L 14100,1110 L 14000,1110 Z" color="black" fill="black" stroke="none" transform="translate(-13404.544,-342.868) rotate(0.000,13999.970,999.970)"/>
	<path d="M 15000,1000 L 15100,1000 L 15100,1110 L 15000,1110 Z" color="black" fill="black" stroke="none" transform="translate(-14304.484,-342.868) rotate(0.000,14999.970,999.970)"/>
	<path d="M 17020,1200 L 17000,1180 L 17020,1100 L 17000,1020 L 17020,1000 L 17040,1100 L 17020,1200 Z" color="black" fill="black" stroke="none" transform="translate(-16504.640,-829.999) rotate(180.000,17020.018,1200.061)"/>
	<path d="M 18020,1200 L 18000,1180 L 18020,1100 L 18000,1020 L 18020,1000 L 18040,1100 L 18020,1200 Z" color="black" fill="black" stroke="none" transform="translate(-18020.018,-439.833) rotate(90.000,18020.018,1200.061)"/>
	<path d="M 19020,1200 L 19000,1180 L 19020,1100 L 19000,1020 L 19020,1000 L 19040,1100 L 19020,1200 Z" color="black" fill="black" stroke="none" transform="translate(-18819.916,-439.833) rotate(90.000,19020.018,1200.061)"/>
	<path d="M 20020,1200 L 20000,1180 L 20020,1100 L 20000,1020 L 20020,1000 L 20040,1100 L 20020,1200 Z" color="black" fill="black" stroke="none" transform="translate(-19489.499,-425.868) rotate(270.000,20020.018,1200.061)"/>
</svg>
