<?xml version="1.0" ?>
<svg width="900" height="900" viewBox="0 0 900 900">
	<path d="M 16000,1000 L 16217.4695,1000 L 16217.4695,1108.73475 L 16108.73475,1108.73475 L 16108.73475,1217.4695 L 16000,1217.4695 Z" color="black" fill="black" stroke="none" transform="translate(-15999.970,-999.970) rotate(0.000,15999.970,999.970)"/>
	<path d="M 3000,1000 L 3217.4695,1000 L 3217.4695,1108.73475 L 3108.73475,1108.73475 L 3108.73475,1217.4695 L 3000,1217.4695 Z" color="black" fill="black" stroke="none" transform="translate(-2673.646,-782.394) rotate(180.000,2999.970,999.970)"/>
	<path d="M 15000,1000 L 15217.4695,1000 L 15217.4695,1108.73475 L 15108.73475,1108.73475 L 15108.73475,1217.4695 L 15000,1217.4695 Z" color="black" fill="black" stroke="none" transform="translate(-14673.646,-999.970) rotate(0.000,14999.970,999.970)"/>
	<path d="M 14000,1000 L 14217.4695,1000 L 14217.4695,1108.73475 L 14108.73475,1108.73475 L 14108.73475,1217.4695 L 14000,1217.4695 Z" color="black" fill="black" stroke="none" transform="translate(-13347.321,-782.394) rotate(180.000,13999.970,999.970)"/>
	<path d="M 13000,1000 L 13217.4695,1000 L 13217.4695,1108.73475 L 13108.73475,1108.73475 L 13108.73475,1217.4695 L 13000,1217.4695 Z" color="black" fill="black" stroke="none" transform="translate(-12347.321,-999.970) rotate(0.000,12999.970,999.970)"/>
	<path d="M 12000,1000 L 12217.4695,1000 L 12217.4695,1108.73475 L 12108.73475,1108.73475 L 12108.73475,1217.4695 L 12000,1217.4695 Z" color="black" fill="black" stroke="none" transform="translate(-11129.745,-673.646) rotate(180.000,11999.970,999.970)"/>
	<path d="M 11000,1000 L 11217.4695,1000 L 11217.4695,1108.73475 L 11108.73475,1108.73475 L 11108.73475,1217.4695 L 11000,1217.4695 Z" color="black" fill="black" stroke="none" transform="translate(-10999.970,-564.911) rotate(270.000,10999.970,999.970)"/>
	<path d="M 9000,1000 L 9217.4695,1000 L 9217.4695,1108.73475 L 9108.73475,1108.73475 L 9108.73475,1217.4695 L 9000,1217.4695 Z" color="black" fill="black" stroke="none" transform="translate(-8673.646,-564.911) rotate(270.000,8999.970,999.970)"/>
	<path d="M 10000,1000 L 10217.4695,1000 L 10217.4695,1108.73475 L 10108.73475,1108.73475 L 10108.73475,1217.4695 L 10000,1217.4695 Z" color="black" fill="black" stroke="none" transform="translate(-9456.116,-564.851) rotate(270.000,9999.970,999.970)"/>
	<path d="M 2000,1000 L 2217.4695,1000 L 2217.4695,1108.73475 L 2108.73475,1108.73475 L 2108.73475,1217.4695 L 2000,1217.4695 Z" color="black" fill="black" stroke="none" transform="translate(-1782.441,-456.116) rotate(270.000,1999.970,999.970)"/>
	<path d="M 4000,1000 L 4217.4695,1000 L 4217.4695,1108.73475 L 4108.73475,1108.73475 L 4108.73475,1217.4695 L 4000,1217.4695 Z" color="black" fill="black" stroke="none" transform="translate(-3129.792,-456.056) rotate(180.000,3999.970,999.970)"/>
	<path d="M 1000,1000 L 1217.4695,1000 L 1217.4695,1108.73475 L 1108.73475,1108.73475 L 1108.73475,1217.4695 L 1000,1217.4695 Z" color="black" fill="black" stroke="none" transform="translate(-999.970,-564.911) rotate(0.000,999.970,999.970)"/>
	<path d="M 8000,1000 L 8217.4695,1000 L 8217.4695,1108.73475 L 8108.73475,1108.73475 L 8108.73475,1217.4695 L 8000,1217.4695 Z" color="black" fill="black" stroke="none" transform="translate(-7564.911,-347.381) rotate(270.000,7999.970,999.970)"/>
	<path d="M 7000,1000 L 7217.4695,1000 L 7217.4695,1108.73475 L 7108.73475,1108.73475 L 7108.73475,1217.4695 L 7000,1217.4695 Z" color="black" fill="black" stroke="none" transform="translate(-6891.175,-456.116) rotate(0.000,6999.970,999.970)"/>
	<path d="M 6000,1000 L 6217.4695,1000 L 6217.4695,1108.73475 L 6108.73475,1108.73475 L 6108.73475,1217.4695 L 6000,1217.4695 Z" color="black" fill="black" stroke="none" transform="translate(-5347.382,-456.056) rotate(0.000,5999.970,999.970)"/>
	<path d="M 5000,1000 L 5217.4695,1000 L 5217.4695,1108.73475 L 5108.73475,1108.73475 L 5108.73475,1217.4695 L 5000,1217.4695 Z" color="black" fill="black" stroke="none" transform="translate(-4673.646,-347.381) rotate(0.000,4999.970,999.970)"/>
	<path d="M 17000,1000 L 17217.4695,1000 L 17217.4695,1108.73475 L 17108.73475,1108.73475 L 17108.73475,1217.4695 L 17000,1217.4695 Z" color="black" fill="black" stroke="none" transform="translate(-16999.970,-129.792) rotate(270.000,16999.970,999.970)"/>
	<path d="M 18000,1000 L 18217.4695,1000 L 18217.4695,1108.73475 L 18108.73475,1108.73475 L 18108.73475,1217.4695 L 18000,1217.4695 Z" color="black" fill="black" stroke="none" transform="translate(-17129.805,-129.732) rotate(180.000,17999.970,999.970)"/>
</svg>
