<?xml version="1.0" ?>
<svg width="900" height="900" viewBox="0 0 900 900">
	<path d="M 16137.36055,1137.36055 L 16137.36055,1000 L 16000,1000 L 16000,1137.36055 Z" color="black" fill="black" stroke="none" transform="translate(-15999.970,-999.970) rotate(0.000,16137.391,1137.391)"/>
	<path d="M 15137.36055,1137.36055 L 15137.36055,1000 L 15000,1000 L 15000,1137.36055 Z" color="black" fill="black" stroke="none" transform="translate(-14999.970,-862.549) rotate(0.000,15137.391,1137.391)"/>
	<path d="M 14137.36055,1137.36055 L 14137.36055,1000 L 14000,1000 L 14000,1137.36055 Z" color="black" fill="black" stroke="none" transform="translate(-13999.970,-725.129) rotate(0.000,14137.391,1137.391)"/>
	<path d="M 13137.36055,1137.36055 L 13137.36055,1000 L 13000,1000 L 13000,1137.36055 Z" color="black" fill="black" stroke="none" transform="translate(-12999.970,-587.708) rotate(0.000,13137.391,1137.391)"/>
	<path d="M 12137.36055,1137.36055 L 12137.36055,1000 L 12000,1000 L 12000,1137.36055 Z" color="black" fill="black" stroke="none" transform="translate(-11999.970,-450.288) rotate(0.000,12137.391,1137.391)"/>
	<path d="M 9137.36055,1137.36055 L 9137.36055,1000 L 9000,1000 L 9000,1137.36055 Z" color="black" fill="black" stroke="none" transform="translate(-8999.970,-312.867) rotate(0.000,9137.391,1137.391)"/>
	<path d="M 10137.36055,1137.36055 L 10137.36055,1000 L 10000,1000 L 10000,1137.36055 Z" color="black" fill="black" stroke="none" transform="translate(-9862.549,-999.970) rotate(0.000,10137.391,1137.391)"/>
	<path d="M 11137.36055,1137.36055 L 11137.36055,1000 L 11000,1000 L 11000,1137.36055 Z" color="black" fill="black" stroke="none" transform="translate(-10862.549,-862.549) rotate(0.000,11137.391,1137.391)"/>
	<path d="M 3137.36055,1137.36055 L 3137.36055,1000 L 3000,1000 L 3000,1137.36055 Z" color="black" fill="black" stroke="none" transform="translate(-2862.549,-725.129) rotate(0.000,3137.391,1137.391)"/>
	<path d="M 4137.36055,1137.36055 L 4137.36055,1000 L 4000,1000 L 4000,1137.36055 Z" color="black" fill="black" stroke="none" transform="translate(-3862.549,-587.708) rotate(0.000,4137.391,1137.391)"/>
	<path d="M 2137.36055,1137.36055 L 2137.36055,1000 L 2000,1000 L 2000,1137.36055 Z" color="black" fill="black" stroke="none" transform="translate(-1862.549,-450.288) rotate(0.000,2137.391,1137.391)"/>
	<path d="M 8137.36055,1137.36055 L 8137.36055,1000 L 8000,1000 L 8000,1137.36055 Z" color="black" fill="black" stroke="none" transform="translate(-7862.549,-312.867) rotate(0.000,8137.391,1137.391)"/>
	<path d="M 7137.36055,1137.36055 L 7137.36055,1000 L 7000,1000 L 7000,1137.36055 Z" color="black" fill="black" stroke="none" transform="translate(-6725.129,-999.970) rotate(0.000,7137.391,1137.391)"/>
	<path d="M 6137.36055,1137.36055 L 6137.36055,1000 L 6000,1000 L 6000,1137.36055 Z" color="black" fill="black" stroke="none" transform="translate(-5725.129,-862.549) rotate(0.000,6137.391,1137.391)"/>
	<path d="M 5137.36055,1137.36055 L 5137.36055,1000 L 5000,1000 L 5000,1137.36055 Z" color="black" fill="black" stroke="none" transform="translate(-4725.129,-725.129) rotate(0.000,5137.391,1137.391)"/>
	<path d="M 1137.36055,1137.36055 L 1137.36055,1000 L 1000,1000 L 1000,1137.36055 Z" color="black" fill="black" stroke="none" transform="translate(-725.129,-587.708) rotate(0.000,1137.391,1137.391)"/>
	<path d="M 19137.36055,1137.36055 L 19137.36055,1000 L 19000,1000 L 19000,1137.36055 Z" color="black" fill="black" stroke="none" transform="translate(-18725.129,-450.288) rotate(0.000,19137.391,1137.391)"/>
	<path d="M 32137.36055,1137.36055 L 32137.36055,1000 L 32000,1000 L 32000,1137.36055 Z" color="black" fill="black" stroke="none" transform="translate(-31725.129,-312.867) rotate(0.000,32137.391,1137.391)"/>
	<path d="M 31137.36055,1137.36055 L 31137.36055,1000 L 31000,1000 L 31000,1137.36055 Z" color="black" fill="black" stroke="none" transform="translate(-30587.708,-999.970) rotate(0.000,31137.391,1137.391)"/>
	<path d="M 30137.36055,1137.36055 L 30137.36055,1000 L 30000,1000 L 30000,1137.36055 Z" color="black" fill="black" stroke="none" transform="translate(-29587.708,-862.549) rotate(0.000,30137.391,1137.391)"/>
	<path d="M 29137.36055,1137.36055 L 29137.36055,1000 L 29000,1000 L 29000,1137.36055 Z" color="black" fill="black" stroke="none" transform="translate(-28587.708,-725.129) rotate(0.000,29137.391,1137.391)"/>
	<path d="M 28137.36055,1137.36055 L 28137.36055,1000 L 28000,1000 L 28000,1137.36055 Z" color="black" fill="black" stroke="none" transform="translate(-27587.708,-587.708) rotate(0.000,28137.391,1137.391)"/>
	<path d="M 27137.36055,1137.36055 L 27137.36055,1000 L 27000,1000 L 27000,1137.36055 Z" color="black" fill="black" stroke="none" transform="translate(-26587.708,-450.288) rotate(0.000,27137.391,1137.391)"/>
	<path d="M 26137.36055,1137.36055 L 26137.36055,1000 L 26000,1000 L 26000,1137.36055 Z" color="black" fill="black" stroke="none" transform="translate(-25587.708,-312.867) rotate(0.000,26137.391,1137.391)"/>
	<path d="M 25137.36055,1137.36055 L 25137.36055,1000 L 25000,1000 L 25000,1137.36055 Z" color="black" fill="black" stroke="none" transform="translate(-24450.288,-999.970) rotate(0.000,25137.391,1137.391)"/>
	<path d="M 24137.36055,1137.36055 L 24137.36055,1000 L 24000,1000 L 24000,1137.36055 Z" color="black" fill="black" stroke="none" transform="translate(-23450.288,-862.549) rotate(0.000,24137.391,1137.391)"/>
	<path d="M 23137.36055,1137.36055 L 23137.36055,1000 L 23000,1000 L 23000,1137.36055 Z" color="black" fill="black" stroke="none" transform="translate(-22450.288,-725.129) rotate(0.000,23137.391,1137.391)"/>
	<path d="M 22137.36055,1137.36055 L 22137.36055,1000 L 22000,1000 L 22000,1137.36055 Z" color="black" fill="black" stroke="none" transform="translate(-21450.288,-587.708) rotate(0.000,22137.391,1137.391)"/>
	<path d="M 21137.36055,1137.36055 L 21137.36055,1000 L 21000,1000 L 21000,1137.36055 Z" color="black" fill="black" stroke="none" transform="translate(-20450.288,-450.288) rotate(0.000,21137.391,1137.391)"/>
	<path d="M 20137.36055,1137.36055 L 20137.36055,1000 L 20000,1000 L 20000,1137.36055 Z" color="black" fill="black" stroke="none" transform="translate(-19450.288,-312.867) rotate(0.000,20137.391,1137.391)"/>
	<path d="M 18137.36055,1137.36055 L 18137.36055,1000 L 18000,1000 L 18000,1137.36055 Z" color="black" fill="black" stroke="none" transform="translate(-17312.867,-999.970) rotate(0.000,18137.391,1137.391)"/>
	<path d="M 17137.36055,1137.36055 L 17137.36055,1000 L 17000,1000 L 17000,1137.36055 Z" color="black" fill="black" stroke="none" transform="translate(-16312.867,-862.549) rotate(0.000,17137.391,1137.391)"/>
	<path d="M 33137.36055,1137.36055 L 33137.36055,1000 L 33000,1000 L 33000,1137.36055 Z" color="black" fill="black" stroke="none" transform="translate(-32312.867,-725.129) rotate(0.000,33137.391,1137.391)"/>
	<path d="M 34137.36055,1137.36055 L 34137.36055,1000 L 34000,1000 L 34000,1137.36055 Z" color="black" fill="black" stroke="none" transform="translate(-33312.867,-587.708) rotate(0.000,34137.391,1137.391)"/>
	<path d="M 35137.36055,1137.36055 L 35137.36055,1000 L 35000,1000 L 35000,1137.36055 Z" color="black" fill="black" stroke="none" transform="translate(-34312.867,-450.288) rotate(0.000,35137.391,1137.391)"/>
	<path d="M 36137.36055,1137.36055 L 36137.36055,1000 L 36000,1000 L 36000,1137.36055 Z" color="black" fill="black" stroke="none" transform="translate(-35312.867,-312.867) rotate(0.000,36137.391,1137.391)"/>
</svg>
