<?xml version="1.0" ?>
<svg width="900" height="900" viewBox="0 0 900 900">
	<path d="M 9000,2000 L 9147.62377,2000.05125 L 9137.53149,1842.06688 L 8998.26956,1841.64725 L 9000,2000 Z" color="black" fill="black" stroke="none" transform="translate(-8852.299,-1999.979) rotate(180.000,8999.970,2000.030)"/>
	<path d="M 13000,2000 L 12930.51202,1949.87915 L 12853.95575,1949.85258 L 12861.39581,2108.91312 L 12995.05337,2109.31586 L 13000,2000 Z" color="black" fill="black" stroke="none" transform="translate(-12706.256,-1949.834) rotate(0.000,13000.031,1999.985)"/>
	<path d="M 26000,1000 L 25932.66949,995.31539 L 25879.10844,1174.03639 L 25985.15043,1173.17104 L 26000,1000 Z" color="black" fill="black" stroke="none" transform="translate(-25596.019,-995.299) rotate(0.000,26000.032,999.972)"/>
	<path d="M 44000,2000 L 43997.84655,1956.1654 L 43872.25592,1960.20055 L 43879.59245,2114.52949 L 43984.70362,2120.25703 L 44000,2000 Z" color="black" fill="black" stroke="none" transform="translate(-43605.929,-1879.729) rotate(180.000,44000.030,2000.001)"/>
	<path d="M 12000,2000 L 12122.64354,2000.04259 L 12110.27808,1841.29418 L 11992.55994,1840.93946 L 12000,2000 Z" color="black" fill="black" stroke="none" transform="translate(-11363.164,-1999.987) rotate(180.000,11999.971,2000.030)"/>
	<path d="M 29000,1000 L 28896.77376,992.8179 L 28904.26215,1152.91196 L 29011.84246,1152.03405 L 29000,1000 Z" color="black" fill="black" stroke="none" transform="translate(-28259.937,-992.788) rotate(0.000,29000.028,999.972)"/>
	<path d="M 41000,2000 L 40876.91079,2003.95478 L 40878.31096,2132.08507 L 41008.89234,2139.20048 L 41000,2000 Z" color="black" fill="black" stroke="none" transform="translate(-40249.650,-1860.708) rotate(180.000,41000.028,1999.969)"/>
	<path d="M 30000,1000 L 29883.9921,991.9286 L 29895.83456,1143.96265 L 29993.90588,1143.16235 L 30000,1000 Z" color="black" fill="black" stroke="none" transform="translate(-29253.347,-717.569) rotate(180.000,30000.031,999.972)"/>
	<path d="M 13000,1000 L 13126.7932,1014.11358 L 13118.58378,885.60334 L 13000.23392,875.39566 L 13000,1000 Z" color="black" fill="black" stroke="none" transform="translate(-12873.117,-828.987) rotate(180.000,12999.970,1000.027)"/>
	<path d="M 28000,1000 L 27911.03348,993.81004 L 27903.4706,1160.94289 L 28007.4884,1160.09405 L 28000,1000 Z" color="black" fill="black" stroke="none" transform="translate(-27778.175,-835.372) rotate(0.000,28000.029,999.972)"/>
	<path d="M 32000,1000 L 31884.82086,991.98626 L 31886.33109,1130.18797 L 32008.25304,1129.19303 L 32000,1000 Z" color="black" fill="black" stroke="none" transform="translate(-31657.501,-817.069) rotate(0.000,32000.028,999.972)"/>
	<path d="M 28000,2000 L 27863.40462,1990.92649 L 27870.63389,2104.0933 L 28001.21526,2111.20872 L 28000,2000 Z" color="black" fill="black" stroke="none" transform="translate(-27650.695,-1710.477) rotate(180.000,28000.030,1999.972)"/>
	<path d="M 27000,1000 L 27076.90992,1005.35111 L 27091.75949,832.18007 L 27007.56289,832.86715 L 27000,1000 Z" color="black" fill="black" stroke="none" transform="translate(-26400.964,-836.178) rotate(180.000,26999.969,1000.028)"/>
	<path d="M 10000,2000 L 9903.50929,1999.96649 L 9905.23973,2158.31926 L 9993.2494,2158.58445 L 10000,2000 Z" color="black" fill="black" stroke="none" transform="translate(-9304.515,-1839.798) rotate(0.000,10000.031,1999.970)"/>
	<path d="M 10000,1000 L 10140.32799,995.1453 L 10133.10141,902.37012 L 10004.62759,891.28925 L 10000,1000 Z" color="black" fill="black" stroke="none" transform="translate(-9314.080,-613.698) rotate(0.000,9999.969,1000.031)"/>
	<path d="M 42000,2000 L 42101.84765,1996.7277 L 42092.95532,1857.52722 L 42000.27695,1852.47715 L 42000,2000 Z" color="black" fill="black" stroke="none" transform="translate(-41999.970,-1564.694) rotate(0.000,41999.970,2000.031)"/>
	<path d="M 35000,1000 L 34974.84907,893.02186 L 34869.82676,885.7148 L 34875.30805,1001.01754 L 35000,1000 Z" color="black" fill="black" stroke="none" transform="translate(-34771.236,-686.881) rotate(180.000,35000.038,1000.030)"/>
	<path d="M 20000,1000 L 19871.52618,988.91913 L 19879.66981,1093.46739 L 19995.67771,1101.5388 L 20000,1000 Z" color="black" fill="black" stroke="none" transform="translate(-19642.680,-608.060) rotate(180.000,20000.031,999.973)"/>
	<path d="M 32000,2000 L 32126.13875,2008.37892 L 32121.07662,1900.15596 L 32004.80471,1893.82027 L 32000,2000 Z" color="black" fill="black" stroke="none" transform="translate(-31776.937,-1667.937) rotate(180.000,31999.969,2000.028)"/>
	<path d="M 33000,1000 L 32888.18783,992.22052 L 32896.44087,1121.41355 L 32999.77366,1120.57031 L 33000,1000 Z" color="black" fill="black" stroke="none" transform="translate(-32406.944,-662.269) rotate(0.000,33000.030,999.972)"/>
	<path d="M 3000,1000 L 3150.30729,983.62478 L 3144.17152,904.85357 L 3003.84353,909.70828 L 3000,1000 Z" color="black" fill="black" stroke="none" transform="translate(-2173.689,-618.569) rotate(180.000,2999.969,1000.034)"/>
	<path d="M 12000,1000 L 11897.02075,1003.5626 L 11898.28254,1119.02904 L 12008.20943,1128.51024 L 12000,1000 Z" color="black" fill="black" stroke="none" transform="translate(-11634.471,-479.482) rotate(180.000,12000.028,999.969)"/>
	<path d="M 31000,2000 L 31115.8696,2007.69678 L 31107.3172,1897.90062 L 30994.93787,1891.77704 L 31000,2000 Z" color="black" fill="black" stroke="none" transform="translate(-30664.906,-1574.200) rotate(180.000,30999.971,2000.028)"/>
	<path d="M 38000,2000 L 37891.62066,2003.48216 L 37896.50846,2107.97819 L 38008.88779,2114.10177 L 38000,2000 Z" color="black" fill="black" stroke="none" transform="translate(-37889.241,-1453.820) rotate(180.000,38000.028,1999.969)"/>
	<path d="M 8000,2000 L 7928.52022,2027.33369 L 7928.2754,2157.73784 L 8010.09228,2157.98438 L 8000,2000 Z" color="black" fill="black" stroke="none" transform="translate(-7335.421,-1681.214) rotate(0.000,8000.027,1999.957)"/>
	<path d="M 23000,1000 L 23118.34986,1010.20768 L 23111.99438,910.71908 L 23000.18221,902.93961 L 23000,1000 Z" color="black" fill="black" stroke="none" transform="translate(-22413.622,-532.529) rotate(180.000,22999.970,1000.028)"/>
	<path d="M 22000,1000 L 21890.07312,990.5188 L 21891.17634,1091.47486 L 22006.35548,1099.48859 L 22000,1000 Z" color="black" fill="black" stroke="none" transform="translate(-21303.711,-514.497) rotate(0.000,22000.028,999.972)"/>
	<path d="M 43000,2000 L 43073.78508,1997.62933 L 43074.06203,1850.10649 L 42992.66348,1845.67106 L 43000,2000 Z" color="black" fill="black" stroke="none" transform="translate(-42898.071,-1567.968) rotate(180.000,42999.971,2000.031)"/>
	<path d="M 25000,2000 L 24943.03725,1996.21618 L 24900.36181,2109.40039 L 25005.47297,2115.12793 L 25000,2000 Z" color="black" fill="black" stroke="none" transform="translate(-24198.691,-1521.666) rotate(0.000,25000.029,1999.972)"/>
	<path d="M 19000,1000 L 18899.95948,991.3715 L 18904.91739,1097.36617 L 19008.14363,1104.54827 L 19000,1000 Z" color="black" fill="black" stroke="none" transform="translate(-18560.541,-473.118) rotate(0.000,19000.028,999.972)"/>
	<path d="M 37000,2000 L 37107.09798,1996.55901 L 37111.38411,1901.83965 L 36995.11219,1895.50396 L 37000,2000 Z" color="black" fill="black" stroke="none" transform="translate(-36776.580,-1367.997) rotate(0.000,36999.971,2000.031)"/>
	<path d="M 7000,2000 L 6908.58484,2087.25568 L 6910.62327,2130.13557 L 6999.75519,2130.40415 L 7000,2000 Z" color="black" fill="black" stroke="none" transform="translate(-6106.598,-1595.891) rotate(0.000,7000.030,1999.930)"/>
	<path d="M 22000,2000 L 22133.65756,2000.40274 L 22130.01935,1922.62144 L 22003.88059,1914.24252 L 22000,2000 Z" color="black" fill="black" stroke="none" transform="translate(-21552.788,-1358.605) rotate(0.000,21999.969,2000.030)"/>
	<path d="M 39000,2000 L 38905.39805,2003.0395 L 38914.28583,2117.14128 L 38994.82672,2121.52997 L 39000,2000 Z" color="black" fill="black" stroke="none" transform="translate(-38195.876,-1344.094) rotate(180.000,39000.031,1999.969)"/>
	<path d="M 25000,1000 L 25047.23618,1098.27927 L 25109.60268,1103.65838 L 25105.0223,1007.30707 L 25000,1000 Z" color="black" fill="black" stroke="none" transform="translate(-24892.638,-454.059) rotate(0.000,24999.951,999.966)"/>
	<path d="M 27000,2000 L 27085.23551,2005.66187 L 27085.44911,1891.88325 L 26992.77073,1886.83318 L 27000,2000 Z" color="black" fill="black" stroke="none" transform="translate(-26333.666,-1417.538) rotate(180.000,26999.972,2000.028)"/>
	<path d="M 33000,2000 L 33093.15245,2006.18776 L 33097.95716,1900.00804 L 33008.99011,1895.1602 L 33000,2000 Z" color="black" fill="black" stroke="none" transform="translate(-32901.948,-1413.346) rotate(180.000,32999.967,2000.028)"/>
	<path d="M 14000,2000 L 13907.487,1894.22209 L 13902.54038,2003.53796 L 14000,2000 Z" color="black" fill="black" stroke="none" transform="translate(-13809.402,-1308.332) rotate(0.000,14000.064,2000.028)"/>
	<path d="M 26000,2000 L 25912.91488,1994.21527 L 25918.38786,2109.3432 L 25999.7864,2113.77863 L 26000,2000 Z" color="black" fill="black" stroke="none" transform="translate(-25244.589,-1408.638) rotate(0.000,26000.030,1999.972)"/>
	<path d="M 34000,2000 L 33973.57588,1893.91877 L 33915.91018,1890.08825 L 33906.92008,1994.92805 L 34000,2000 Z" color="black" fill="black" stroke="none" transform="translate(-33584.902,-1266.535) rotate(0.000,34000.039,2000.032)"/>
	<path d="M 31000,1000 L 31063.015,1004.38435 L 31069.10912,861.22201 L 30998.48976,861.7983 L 31000,1000 Z" color="black" fill="black" stroke="none" transform="translate(-30742.983,-230.768) rotate(0.000,30999.970,1000.028)"/>
	<path d="M 40000,2000 L 40072.0636,1997.68464 L 40077.23687,1876.15467 L 39998.59983,1871.86972 L 40000,2000 Z" color="black" fill="black" stroke="none" transform="translate(-39508.898,-1358.474) rotate(180.000,39999.970,2000.031)"/>
	<path d="M 18000,1000 L 17920.81667,993.17044 L 17915.99139,1099.8047 L 18004.95791,1105.99467 L 18000,1000 Z" color="black" fill="black" stroke="none" transform="translate(-17423.722,-351.566) rotate(0.000,18000.029,999.972)"/>
	<path d="M 29000,2000 L 28915.47038,1994.38501 L 28916.68565,2105.59373 L 28995.3227,2109.87869 L 29000,2000 Z" color="black" fill="black" stroke="none" transform="translate(-28160.114,-1341.722) rotate(0.000,29000.031,1999.972)"/>
	<path d="M 9000,1000 L 9096.59359,996.6583 L 9092.81394,915.85332 L 8992.77342,907.22482 L 9000,1000 Z" color="black" fill="black" stroke="none" transform="translate(-8992.746,-219.987) rotate(0.000,8999.972,1000.031)"/>
	<path d="M 21000,2000 L 21117.71814,2000.35472 L 21112.23138,1929.91548 L 20996.36178,1922.2187 L 21000,2000 Z" color="black" fill="black" stroke="none" transform="translate(-20896.274,-1227.204) rotate(0.000,20999.971,2000.030)"/>
	<path d="M 11000,2000 L 11039.89267,2000.01385 L 11046.64327,1841.4294 L 10987.63453,1841.25159 L 11000,2000 Z" color="black" fill="black" stroke="none" transform="translate(-10119.955,-1345.314) rotate(180.000,10999.972,2000.030)"/>
	<path d="M 23000,2000 L 23097.13114,2000.29268 L 23101.01173,1914.53521 L 23007.85929,1908.34744 L 23000,2000 Z" color="black" fill="black" stroke="none" transform="translate(-22421.470,-1213.401) rotate(0.000,22999.967,2000.030)"/>
	<path d="M 17000,1000 L 16927.48623,993.74568 L 16918.2648,1101.28317 L 16995.17472,1106.63427 L 17000,1000 Z" color="black" fill="black" stroke="none" transform="translate(-16244.428,-292.476) rotate(0.000,17000.031,999.973)"/>
	<path d="M 30000,2000 L 30067.31119,2004.47123 L 30071.98849,1894.59254 L 29991.4476,1890.20384 L 30000,2000 Z" color="black" fill="black" stroke="none" transform="translate(-29172.409,-1602.083) rotate(0.000,29999.972,2000.028)"/>
	<path d="M 35000,2000 L 34894.97121,2003.37451 L 34899.44985,2082.04341 L 34992.52978,2087.11536 L 35000,2000 Z" color="black" fill="black" stroke="none" transform="translate(-34686.320,-1152.394) rotate(180.000,35000.033,1999.969)"/>
	<path d="M 36000,2000 L 36085.78295,1997.24385 L 36093.25318,1910.12849 L 36004.28613,1905.28064 L 36000,2000 Z" color="black" fill="black" stroke="none" transform="translate(-35420.584,-1245.701) rotate(180.000,35999.969,2000.031)"/>
	<path d="M 34000,1000 L 34067.16246,1004.67292 L 34067.3888,884.10261 L 33994.51871,884.69726 L 34000,1000 Z" color="black" fill="black" stroke="none" transform="translate(-33179.690,-231.693) rotate(180.000,33999.971,1000.028)"/>
	<path d="M 5000,1000 L 5100.32208,1024.69486 L 5099.40122,940.42708 L 4996.42198,943.98969 L 5000,1000 Z" color="black" fill="black" stroke="none" transform="translate(-4996.391,-163.680) rotate(0.000,4999.971,1000.024)"/>
	<path d="M 18000,2000 L 17860.73807,1999.58036 L 17864.06899,2051.72252 L 18000.66436,2060.79604 L 18000,2000 Z" color="black" fill="black" stroke="none" transform="translate(-17895.529,-1166.291) rotate(180.000,18000.030,1999.970)"/>
	<path d="M 16000,1000 L 15923.44805,1102.85287 L 15990.77856,1107.53748 L 16000,1000 Z" color="black" fill="black" stroke="none" transform="translate(-15709.704,-228.317) rotate(0.000,16000.039,999.897)"/>
	<path d="M 2000,1000 L 1907.33235,1034.86912 L 1909.54218,1082.1129 L 2006.13576,1078.77121 L 2000,1000 Z" color="black" fill="black" stroke="none" transform="translate(-1330.976,-213.065) rotate(0.000,2000.027,999.958)"/>
	<path d="M 14000,1000 L 13941.60103,949.25496 L 13941.36711,1073.85929 L 14003.76699,1079.24129 L 14000,1000 Z" color="black" fill="black" stroke="none" transform="translate(-13581.208,-155.179) rotate(180.000,14000.029,999.986)"/>
	<path d="M 1000,2000 L 925.66635,1999.07437 L 852.88229,2046.25831 L 1000.50606,2046.30956 L 1000,2000 Z" color="black" fill="black" stroke="none" transform="translate(-786.688,-1160.691) rotate(0.000,1000.030,1999.970)"/>
	<path d="M 8000,1000 L 7927.83079,1002.49672 L 7924.59632,1073.97542 L 8003.77966,1080.80498 L 8000,1000 Z" color="black" fill="black" stroke="none" transform="translate(-7323.726,-110.376) rotate(180.000,8000.029,999.969)"/>
	<path d="M 6000,1000 L 5894.015,947.53251 L 5897.59303,1003.54281 L 6000,1000 Z" color="black" fill="black" stroke="none" transform="translate(-5608.959,-114.110) rotate(0.000,6000.120,1000.026)"/>
	<path d="M 15000,1000 L 15066.13347,1084.6204 L 15062.36649,1005.37911 L 15000,1000 Z" color="black" fill="black" stroke="none" transform="translate(-14828.480,-354.260) rotate(0.000,14999.934,999.964)"/>
	<path d="M 7000,1000 L 7075.74823,934.77562 L 7003.23447,928.5213 L 7000,1000 Z" color="black" fill="black" stroke="none" transform="translate(-6099.967,-180.296) rotate(180.000,6999.967,1000.068)"/>
	<path d="M 4000,1000 L 4046.93573,1004.23536 L 4050.77926,913.94364 L 3999.07914,915.73222 L 4000,1000 Z" color="black" fill="black" stroke="none" transform="translate(-3257.441,-836.053) rotate(180.000,3999.970,1000.027)"/>
	<path d="M 2000,2000 L 1901.08294,1998.76825 L 1901.589,2045.07781 L 1998.07971,2045.11131 L 2000,2000 Z" color="black" fill="black" stroke="none" transform="translate(-1522.749,-1105.721) rotate(180.000,2000.031,1999.970)"/>
	<path d="M 1000,1000 L 1069.95938,950.2595 L 997.79017,952.75622 L 1000,1000 Z" color="black" fill="black" stroke="none" transform="translate(-175.182,-136.808) rotate(0.000,999.973,1000.056)"/>
	<path d="M 5000,2000 L 4921.65368,1961.70389 L 4923.44373,1999.97342 L 5000,2000 Z" color="black" fill="black" stroke="none" transform="translate(-4775.896,-2000.030) rotate(180.000,5000.130,2000.030)"/>
	<path d="M 40000,1000 L 39901.92868,1000.80031 L 39904.2337,1030.39222 L 39998.83566,1027.35272 L 40000,1000 Z" color="black" fill="black" stroke="none" transform="translate(-39421.391,-103.523) rotate(180.000,40000.031,999.970)"/>
	<path d="M 0,1000 L -111.96801,974.48568 L -110.08738,998.62915 L 0,1000 Z" color="black" fill="black" stroke="none" transform="translate(390.199,-835.968) rotate(180.000,0.147,1000.032)"/>
	<path d="M 15000,2000 L 15032.79698,2000.09883 L 15055.00367,1962.57316 L 14998.04092,1958.78934 L 15000,2000 Z" color="black" fill="black" stroke="none" transform="translate(-14998.009,-1113.055) rotate(0.000,14999.971,2000.030)"/>
	<path d="M 41000,1000 L 40929.38065,1000.57628 L 40928.2163,1027.929 L 41000.2799,1025.61364 L 41000,1000 Z" color="black" fill="black" stroke="none" transform="translate(-40678.039,-239.648) rotate(180.000,41000.030,999.970)"/>
	<path d="M 3000,2000 L 3034.49088,2000.4295 L 3036.41116,1955.31818 L 2996.5185,1955.30433 L 3000,2000 Z" color="black" fill="black" stroke="none" transform="translate(-2109.276,-1863.759) rotate(180.000,2999.972,2000.030)"/>
	<path d="M 44000,1000 L 44072.87009,999.40535 L 44072.90806,979.18061 L 43999.12298,981.55127 L 44000,1000 Z" color="black" fill="black" stroke="none" transform="translate(-43784.996,-100.125) rotate(0.000,43999.971,1000.030)"/>
	<path d="M 6000,2000 L 6030.75855,1957.21894 L 5997.96156,1957.12011 L 6000,2000 Z" color="black" fill="black" stroke="none" transform="translate(-5696.983,-1957.090) rotate(0.000,5999.974,2000.087)"/>
	<path d="M 46000,1000 L 45925.86862,1017.58482 L 46000.20228,1018.51044 L 46000,1000 Z" color="black" fill="black" stroke="none" transform="translate(-45583.191,-155.700) rotate(0.000,46000.030,999.962)"/>
	<path d="M 48000,1000 L 47968.47977,998.10741 L 47967.38974,1023.71397 L 48001.88062,1024.14347 L 48000,1000 Z" color="black" fill="black" stroke="none" transform="translate(-47519.136,-786.416) rotate(180.000,48000.028,999.972)"/>
</svg>
