<?xml version="1.0" ?>
<svg width="900" height="900" viewBox="0 0 900 900">
	<path d="M 11000,2000 L 10989.95847,2007.4349 L 10976.49072,2011.93938 L 10968.78903,2015.17285 L 11026.21362,2069.46562 L 11086.60861,2120.44068 L 11109.52938,2103.00138 L 11111.95447,2089.56772 L 11000,2000 Z" color="black" fill="black" stroke="none" transform="translate(-11000.001,-1853.563) rotate(240.000,11000.001,1999.962)"/>
	<path d="M 41000,3000 L 41027.03577,2991.55267 L 41119.28343,3118.05836 L 41111.27496,3134.21563 L 41084.25838,3130.14163 L 41000,3000 Z" color="black" fill="black" stroke="none" transform="translate(-40945.148,-2836.441) rotate(240.000,40999.953,2999.983)"/>
	<path d="M 33000,4000 L 32945.42989,4047.19666 L 32930.89967,4072.03916 L 32870.52188,4046.50911 L 32858.45385,4019.56932 L 32881.1698,3969.71011 L 32899.71654,3958.75591 L 33000,4000 Z" color="black" fill="black" stroke="none" transform="translate(-33000.056,-3844.124) rotate(240.000,33000.056,3999.991)"/>
	<path d="M 38000,3000 L 37936.66806,3059.09618 L 37920.59767,3098.92313 L 37926.98522,3135.56648 L 37937.67228,3108.1728 L 37979.18433,3072.47689 L 37995.50332,3075.20946 L 38033.97448,3039.04739 L 38000,3000 Z" color="black" fill="black" stroke="none" transform="translate(-37837.441,-2757.728) rotate(120.000,38000.002,2999.957)"/>
	<path d="M 16000,3000 L 15989.69977,2992.88664 L 15981.81434,2982.32164 L 15976.59185,2976.40313 L 15930.50355,3035.22413 L 15888.67507,3095.93977 L 15912.69435,3112.08892 L 15927.80355,3111.62594 L 16000,3000 Z" color="black" fill="black" stroke="none" transform="translate(-15991.311,-2727.233) rotate(240.000,16000.041,2999.992)"/>
	<path d="M 15000,4000 L 14951.44576,4026.07003 L 14977.96418,4073.97833 L 15010.94606,4086.81387 L 15035.16841,4118.22628 L 15047.71523,4117.18694 L 15057.44032,4125.93644 L 15063.69864,4118.93895 L 15055.83325,4095.02629 L 15054.95182,4084.61223 L 15014.20117,4011.87441 L 15000,4000 Z" color="black" fill="black" stroke="none" transform="translate(-14898.411,-3885.285) rotate(240.000,15000.004,3999.964)"/>
	<path d="M 46000,2000 L 46057.68168,2079.18728 L 46007.44801,2111.98839 L 45971.02395,2106.37734 L 45933.55796,2049.6964 L 45936.66824,2032.38587 L 45973.76716,2008.1274 L 45984.73081,2014.887 L 46000,2000 Z" color="black" fill="black" stroke="none" transform="translate(-45889.219,-1636.344) rotate(120.000,45984.727,2014.849)"/>
	<path d="M 45000,1000 L 44926.52029,999.90931 L 44898.35288,1008.9817 L 44871.53654,951.26665 L 44881.47899,923.54904 L 44933.23811,901.19839 L 44954.64724,904.99848 L 45000,1000 Z" color="black" fill="black" stroke="none" transform="translate(-44935.667,-538.000) rotate(120.000,45000.048,1000.030)"/>
	<path d="M 6000,4000 L 5947.09924,4033.856 L 5932.20521,4053.50131 L 5878.79399,4023.62973 L 5869.5563,3998.74848 L 5893.56675,3958.49128 L 5911.2112,3951.38954 L 6000,4000 Z" color="black" fill="black" stroke="none" transform="translate(-6000.059,-3567.951) rotate(240.000,6000.059,3999.998)"/>
	<path d="M 11000,3000 L 10949.19004,3063.79645 L 10939.72943,3103.10073 L 10950.74298,3136.32696 L 10956.9089,3109.34359 L 10990.63336,3070.35683 L 11006.20833,3070.63757 L 11037.03649,3031.63855 L 11000,3000 Z" color="black" fill="black" stroke="none" transform="translate(-10827.038,-2425.875) rotate(120.000,10999.996,2999.957)"/>
	<path d="M 37000,2000 L 36995.98836,2017.17426 L 36992.97995,2030.05431 L 37030.7279,2110.66402 L 37061.51523,2157.77331 L 37076.5115,2131.67922 L 37075.57372,2109.85689 L 37000,2000 Z" color="black" fill="black" stroke="none" transform="translate(-36832.482,-1386.880) rotate(120.000,36999.986,1999.927)"/>
	<path d="M 43000,3000 L 42991.84102,3008.08504 L 42981.14314,3013.32664 L 42974.99596,3016.99788 L 43017.31666,3069.96026 L 43062.10098,3119.38503 L 43080.74565,3100.45018 L 43083.23761,3086.57248 L 43000,3000 Z" color="black" fill="black" stroke="none" transform="translate(-42830.270,-2356.704) rotate(120.000,43000.001,2999.957)"/>
	<path d="M 9000,4000 L 8989.68711,4020.14572 L 8973.30055,4036.9573 L 8966.32929,4028.73349 L 8960.15446,4030.88831 L 8894.99218,3950.57576 L 8930.97303,3918.90446 L 8949.22165,3931.21657 L 9000,4000 Z" color="black" fill="black" stroke="none" transform="translate(-8914.461,-3350.278) rotate(120.000,8966.320,4028.769)"/>
	<path d="M 24000,3000 L 24060.06833,3075.99488 L 24011.51666,3097.73416 L 23975.22597,3088.10059 L 23936.01591,3034.20683 L 23938.45743,3019.65957 L 23974.31288,3003.57517 L 23985.42376,3010.85583 L 24000,3000 Z" color="black" fill="black" stroke="none" transform="translate(-23863.663,-2241.244) rotate(120.000,23985.423,3010.819)"/>
	<path d="M 6000,1000 L 5992.667,1008 L 5982,1014 L 5976,1018 L 6032.667,1056 L 6091.333,1090.666 L 6108,1072 L 6108,1060 L 6000,1000 Z" color="black" fill="black" stroke="none" transform="translate(-5843.522,-629.474) rotate(240.000,5999.994,999.962)"/>
	<path d="M 29000,4000 L 29032.1004,4084.16462 L 28978.34996,4112.86537 L 28946.8269,4104.21351 L 28927.30658,4044.28756 L 28934.50767,4027.19573 L 28974.21243,4005.9654 L 28982.41556,4013.65196 L 29000,4000 Z" color="black" fill="black" stroke="none" transform="translate(-28850.316,-3218.309) rotate(0.000,28982.417,4013.613)"/>
	<path d="M 19000,2000 L 19066.44907,2069.14448 L 19020.67058,2093.07311 L 18983.98454,2086.11789 L 18940.20055,2036.86838 L 18941.21963,2022.75259 L 18975.02422,2005.05256 L 18986.66917,2011.33886 L 19000,2000 Z" color="black" fill="black" stroke="none" transform="translate(-18827.550,-1226.304) rotate(240.000,18986.665,2011.303)"/>
	<path d="M 2000,4000 L 2074.25377,4053.80636 L 2037.01561,4091.75479 L 2002.09185,4094.77396 L 1952.44775,4055.45287 L 1950.63517,4040.36961 L 1978.1274,4012.31535 L 1990.00613,4015.63236 L 2000,4000 Z" color="black" fill="black" stroke="none" transform="translate(-1816.636,-3806.029) rotate(240.000,1989.993,4015.597)"/>
	<path d="M 22000,4000 L 22075.78837,4070.5436 L 22071.0236,4094.06939 L 22064.96599,4109.89192 L 21972.76457,4035.58628 L 21972.73801,4022.69213 L 22000,4000 Z" color="black" fill="black" stroke="none" transform="translate(-21827.651,-3884.110) rotate(240.000,22000.001,3999.960)"/>
	<path d="M 14000,1000 L 14076,1042.666 L 14048,1088.666 L 14016.667,1098 L 13965.334,1066 L 13961.334,1050.666 L 13982,1016.666 L 13993.334,1018 L 14000,1000 Z" color="black" fill="black" stroke="none" transform="translate(-13973.334,-129.648) rotate(240.000,13993.314,1017.967)"/>
	<path d="M 26000,2000 L 26001.31783,2030.95721 L 25995.23759,2064.72936 L 25984.38145,2063.50022 L 25979.8421,2071.98613 L 25876.51535,2057.0053 L 25892.68572,1988.16806 L 25916.14761,1982.03793 L 26000,2000 Z" color="black" fill="black" stroke="none" transform="translate(-25777.387,-1595.479) rotate(240.000,25984.398,2063.532)"/>
	<path d="M 15000,3000 L 14984.02708,3001.74128 L 14972.04802,3003.04731 L 14910.70056,3052.07555 L 14876.94978,3087.03015 L 14903.36196,3090.81212 L 14922.20457,3084.2415 L 15000,3000 Z" color="black" fill="black" stroke="none" transform="translate(-14776.858,-2619.774) rotate(120.000,15000.076,2999.961)"/>
	<path d="M 42000,3000 L 41985.57825,2999.89843 L 41974.76251,2999.82243 L 41920.7134,3053.38046 L 41891.23062,3093.01523 L 41915.28878,3101.67067 L 41932.15852,3096.03577 L 42000,3000 Z" color="black" fill="black" stroke="none" transform="translate(-41766.379,-2515.316) rotate(120.000,42000.058,2999.970)"/>
	<path d="M 4000,3000 L 3999.09418,3023.39522 L 3991.07478,3046.38996 L 3981.00636,3041.82842 L 3976.17472,3046.59371 L 3880.57206,3000.74445 L 3900.45046,2955.14462 L 3922.81688,2958.48841 L 4000,3000 Z" color="black" fill="black" stroke="none" transform="translate(-3755.069,-2454.240) rotate(240.000,3981.013,3041.864)"/>
	<path d="M 5000,3000 L 5062.31613,3016.22166 L 5067.00215,3042.79637 L 5085.1006,3059.23942 L 5072.77327,3091.00881 L 5055.60772,3095.04331 L 5038.90051,3102.55815 L 4980.78426,3082.39932 L 5000,3000 Z" color="black" fill="black" stroke="none" transform="translate(-4798.963,-2099.963) rotate(240.000,4999.978,2999.963)"/>
	<path d="M 48000,1000 L 47974.48352,1012.40226 L 47943.91989,1019.57331 L 47941.01418,1009.94255 L 47932.24209,1009.19711 L 47907.34206,916.33668 L 47971.0095,904.9149 L 47984.66714,922.5248 L 48000,1000 Z" color="black" fill="black" stroke="none" transform="translate(-47696.505,-684.357) rotate(0.000,47940.991,1009.971)"/>
	<path d="M 28000,3000 L 27934.42658,2981.10663 L 27906.8147,2981.76214 L 27898.56114,2924.84335 L 27914.97051,2903.35153 L 27967.25249,2897.22141 L 27985.33239,2905.99885 L 28000,3000 Z" color="black" fill="black" stroke="none" transform="translate(-27678.012,-2207.701) rotate(0.000,28000.037,3000.042)"/>
	<path d="M 21000,4000 L 20992.57418,4006.58407 L 20982.00522,4011.28327 L 20976.03452,4014.46745 L 21029.29196,4049.97117 L 21084.62138,4082.68212 L 21101.51931,4067.29938 L 21102.01541,4056.91484 L 21000,4000 Z" color="black" fill="black" stroke="none" transform="translate(-20763.201,-3878.342) rotate(240.000,20999.996,3999.963)"/>
	<path d="M 41000,1000 L 40986.04823,1094.79881 L 40936.39414,1075.47893 L 40918.24283,1043.20356 L 40930.49124,978.36864 L 40942.84546,970.06975 L 40979.53696,984.31688 L 40981.92093,997.1828 L 41000,1000 Z" color="black" fill="black" stroke="none" transform="translate(-40686.591,-636.866) rotate(0.000,40981.947,997.156)"/>
	<path d="M 4000,1000 L 4018.667,989.334 L 4107.334,1068.667 L 4104,1082 L 4083.334,1083.334 L 4000,1000 Z" color="black" fill="black" stroke="none" transform="translate(-3788.471,-873.578) rotate(0.000,3999.951,999.993)"/>
	<path d="M 24000,4000 L 23955.19325,4077.27754 L 23935.86478,4077.23813 L 23900.01995,4052.59602 L 23933.64154,4002.09268 L 23944.73283,3999.772 L 23970.48015,3977.52496 L 24000,4000 Z" color="black" fill="black" stroke="none" transform="translate(-23722.808,-3435.980) rotate(120.000,24000.039,3999.992)"/>
	<path d="M 20000,2000 L 20050.05364,2065.43009 L 20055.10711,2081.37199 L 20068.02297,2095.18288 L 20055.68935,2104.75608 L 20042.99182,2099.71423 L 20029.61962,2086.25756 L 20023.96749,2083.692 L 19973.96235,2020.2101 L 20000,2000 Z" color="black" fill="black" stroke="none" transform="translate(-19761.618,-1333.419) rotate(240.000,20000.005,1999.958)"/>
	<path d="M 31000,1000 L 31026.20597,1006.61312 L 31062.67683,1146.00741 L 31050.2597,1154.31909 L 31028.33832,1138.29728 L 31000,1000 Z" color="black" fill="black" stroke="none" transform="translate(-30735.240,-999.959) rotate(0.000,30999.961,999.959)"/>
	<path d="M 5000,1000 L 4997.333,1013.334 L 4995.333,1023.334 L 5033.333,1083.334 L 5063.333,1118 L 5075.333,1097.334 L 5073.333,1080.667 L 5000,1000 Z" color="black" fill="black" stroke="none" transform="translate(-4734.757,-223.960) rotate(0.000,4999.982,999.936)"/>
	<path d="M 6000,2000 L 6017.81481,2077.51754 L 6041.05113,2108.08723 L 6071.36551,2118.96983 L 6055.2285,2098.24188 L 6045.84257,2048.76591 L 6054.78901,2036.67525 L 6043.76843,1989.47116 L 6000,2000 Z" color="black" fill="black" stroke="none" transform="translate(-5716.811,-1783.738) rotate(0.000,5999.964,1999.978)"/>
	<path d="M 21000,1000 L 21012,1022 L 21018,1048 L 21007.333,1050 L 21006,1057.334 L 20903.333,1074 L 20894.666,1020 L 20914.666,1009.334 L 21000,1000 Z" color="black" fill="black" stroke="none" transform="translate(-20673.551,-306.156) rotate(120.000,21000.017,999.968)"/>
	<path d="M 16000,2000 L 15926.58759,2041.02985 L 15931.72807,2046.49328 L 15913.08544,2061.19591 L 15937.33655,2069.05735 L 15949.97862,2081.07487 L 16024.94099,2041.47334 L 16000,2000 Z" color="black" fill="black" stroke="none" transform="translate(-15578.830,-1689.570) rotate(120.000,15931.684,2046.490)"/>
	<path d="M 31000,3000 L 31012.35433,3021.10508 L 31018.53004,3046.04661 L 31007.54599,3047.96404 L 31006.17269,3054.99915 L 30900.45443,3070.97563 L 30891.53519,3019.17439 L 30912.13031,3008.94494 L 31000,3000 Z" color="black" fill="black" stroke="none" transform="translate(-30640.870,-2420.164) rotate(120.000,31000.016,2999.968)"/>
	<path d="M 10000,2000 L 9985.37292,2009.90649 L 9974.40327,2017.3361 L 9951.20153,2105.04295 L 9944.65315,2162.65639 L 9974.02805,2154.0881 L 9987.76538,2137.10465 L 10000,2000 Z" color="black" fill="black" stroke="none" transform="translate(-9619.055,-1999.940) rotate(0.000,10000.035,1999.940)"/>
	<path d="M 37000,3000 L 36957.7513,3015.54115 L 36973.93905,3057.698 L 36999.25292,3072.03252 L 37015.40741,3100.47675 L 37025.69346,3101.10371 L 37032.60737,3109.37634 L 37038.45601,3104.40911 L 37034.72996,3083.99815 L 37035.16948,3075.40794 L 37010.19609,3011.34502 L 37000,3000 Z" color="black" fill="black" stroke="none" transform="translate(-36644.606,-2845.942) rotate(0.000,37000.009,2999.965)"/>
	<path d="M 10000,3000 L 9957.92427,3049.31026 L 9985.13739,3075.69763 L 10015.79902,3068.40767 L 10039.81487,3081.91653 L 10051.07565,3074.06241 L 10060.45476,3076.17242 L 10065.63029,3066.69608 L 10056.89796,3050.54488 L 10055.39256,3042.09929 L 10013.63449,3002.30717 L 10000,3000 Z" color="black" fill="black" stroke="none" transform="translate(-9680.424,-2241.316) rotate(240.000,9999.988,2999.968)"/>
	<path d="M 14000,2000 L 14043.23256,2078.45101 L 14033.28744,2095.13469 L 13993.79423,2113.44378 L 13967.76532,2058.42376 L 13971.46449,2047.64545 L 13965.60681,2013.95704 L 14000,2000 Z" color="black" fill="black" stroke="none" transform="translate(-13644.730,-1234.707) rotate(0.000,14000.013,1999.962)"/>
	<path d="M 35000,1000 L 34986.52343,1032.274 L 35065.26851,1069.79632 L 35100.05005,1064.98234 L 35109.49053,1057.32202 L 35100.99164,1042.17082 L 35000,1000 Z" color="black" fill="black" stroke="none" transform="translate(-34637.819,-629.195) rotate(240.000,34999.984,999.961)"/>
	<path d="M 46000,3000 L 45972.4364,3081.87321 L 45954.09473,3085.6931 L 45915.33071,3069.58972 L 45937.46013,3015.2171 L 45947.5322,3010.81362 L 45967.65445,2984.67964 L 46000,3000 Z" color="black" fill="black" stroke="none" transform="translate(-45573.491,-2407.070) rotate(0.000,46000.037,2999.984)"/>
	<path d="M 1000,1000 L 1026,1061.334 L 1052,1084 L 1082.667,1090 L 1064.667,1074.667 L 1050,1035.334 L 1057.334,1024.667 L 1041.334,987.334 L 1000,1000 Z" color="black" fill="black" stroke="none" transform="translate(-612.483,-816.013) rotate(240.000,999.959,999.981)"/>
	<path d="M 5000,2000 L 4990.12406,2055.38873 L 5036.19921,2064.16841 L 5062.90209,2045.72717 L 5096.90499,2045.99171 L 5103.18653,2035.25701 L 5114.31014,2032.9375 L 5113.20213,2023.51392 L 5093.18461,2014.81594 L 5085.87848,2008.98374 L 5015.65284,1996.04633 L 5000,2000 Z" color="black" fill="black" stroke="none" transform="translate(-4543.568,-1616.453) rotate(120.000,4999.974,1999.976)"/>
	<path d="M 32000,3000 L 32021.03576,3054.14663 L 32007.74239,3073.13754 L 32006.96898,3095.76651 L 31982.2866,3105.63709 L 31971.50362,3095.72515 L 31958.90352,3088.18915 L 31942.23675,3034.73181 L 32000,3000 Z" color="black" fill="black" stroke="none" transform="translate(-31568.176,-2258.677) rotate(0.000,32000.015,2999.956)"/>
	<path d="M 18000,3000 L 17963.68887,3006.25998 L 17976.37642,3106.41125 L 18000.84992,3137.7144 L 18013.09819,3142.36855 L 18021.52325,3124.84604 L 18000,3000 Z" color="black" fill="black" stroke="none" transform="translate(-17578.772,-2821.820) rotate(0.000,18000.024,2999.965)"/>
	<path d="M 23000,3000 L 22994.64555,3065.56689 L 22936.88252,3060.31607 L 22917.08104,3045.45121 L 22913.3129,2989.27728 L 22943.16889,2970.74804 L 22953.97125,2979.66541 L 22967.23102,2980.42101 L 22984.4902,2997.75838 L 23000,3000 Z" color="black" fill="black" stroke="none" transform="translate(-22610.092,-2488.730) rotate(240.000,23000.032,2999.974)"/>
	<path d="M 48000,3000 L 47965.34132,3053.59198 L 47973.64057,3059.0848 L 47967.85652,3077.44458 L 47994.39114,3083.49142 L 48013.80221,3095.42654 L 48050.809,3043.24787 L 48000,3000 Z" color="black" fill="black" stroke="none" transform="translate(-47582.436,-2353.890) rotate(0.000,47973.605,3059.097)"/>
	<path d="M 18000,2000 L 17961.68644,2046.4124 L 17922.18709,2014.45282 L 17915.5004,1993.73097 L 17942.21313,1949.91224 L 17973.77349,1950.55192 L 17976.99737,1962.46044 L 17986.30057,1969.46071 L 17989.83047,1990.79689 L 18000,2000 Z" color="black" fill="black" stroke="none" transform="translate(-17503.051,-1838.053) rotate(0.000,18000.041,1999.997)"/>
	<path d="M 1000,4000 L 998.65488,4068.14667 L 941.08259,4067.5622 L 920.55699,4053.87229 L 913.42735,3996.18783 L 941.90102,3974.55614 L 953.14725,3982.85881 L 966.33606,3982.5286 L 984.49115,3998.98429 L 1000,4000 Z" color="black" fill="black" stroke="none" transform="translate(-492.289,-3974.519) rotate(0.000,1000.031,3999.972)"/>
	<path d="M 26000,4000 L 25965.69742,4072.06815 L 25973.73388,4074.35689 L 25967.91803,4096.42701 L 25993.72398,4091.46299 L 26012.52924,4095.84338 L 26049.10692,4024.27264 L 26000,4000 Z" color="black" fill="black" stroke="none" transform="translate(-25544.399,-3608.437) rotate(0.000,25973.697,4074.378)"/>
	<path d="M 33000,1000 L 32989.3589,994.64518 L 32979.23662,984.86543 L 32972.949,979.58519 L 32960.32352,1056.20901 L 32951.69465,1133.88542 L 32976.33951,1145.88574 L 32987.74264,1141.64895 L 33000,1000 Z" color="black" fill="black" stroke="none" transform="translate(-32515.420,-772.059) rotate(0.000,33000.032,999.982)"/>
	<path d="M 43000,2000 L 42931.33839,2033.52933 L 42935.91099,2039.60339 L 42918.35394,2052.4452 L 42940.43142,2063.00384 L 42951.71694,2076.50856 L 43021.76346,2044.58943 L 43000,2000 Z" color="black" fill="black" stroke="none" transform="translate(-42456.735,-1453.298) rotate(120.000,42935.869,2039.597)"/>
	<path d="M 20000,3000 L 20019.10715,3012.11807 L 20052.53234,3012.10684 L 20033.47138,3081.17843 L 20015.73532,3080.73253 L 20013.35544,3093.51844 L 19969.00924,3081.33304 L 20000,3000 Z" color="black" fill="black" stroke="none" transform="translate(-19549.478,-2193.550) rotate(0.000,19999.985,2999.955)"/>
	<path d="M 25000,4000 L 24999.14885,4024.38471 L 25016.39658,4055.73424 L 24945.54953,4074.67854 L 24936.79672,4057.80296 L 24924.27447,4062.38716 L 24912.16899,4014.29029 L 25000,4000 Z" color="black" fill="black" stroke="none" transform="translate(-24423.344,-3290.904) rotate(240.000,24936.782,4057.840)"/>
	<path d="M 18000,1000 L 17975.333,1054.666 L 17972.666,1078.666 L 17920.666,1079.333 L 17903.333,1062.666 L 17904,1016.666 L 17914,1002 L 18000,1000 Z" color="black" fill="black" stroke="none" transform="translate(-17486.547,-433.181) rotate(120.000,18000.047,999.969)"/>
	<path d="M 41000,2000 L 41033.22059,2079.51731 L 41022.05551,2094.55567 L 40982.58112,2108.2637 L 40963.37004,2052.91561 L 40967.98684,2042.93361 L 40965.82484,2010.03027 L 41000,2000 Z" color="black" fill="black" stroke="none" transform="translate(-40481.428,-1832.775) rotate(0.000,41000.017,1999.964)"/>
	<path d="M 22000,1000 L 22046.667,978.667 L 22062.667,993.334 L 22082,994.667 L 22090,1021.334 L 22081.334,1032.667 L 22074.667,1046 L 22028.667,1062.667 L 22000,1000 Z" color="black" fill="black" stroke="none" transform="translate(-21446.272,-719.484) rotate(120.000,21999.960,999.985)"/>
	<path d="M 23000,2000 L 22974.52205,2054.59994 L 22971.07791,2078.86166 L 22921.73514,2077.68645 L 22905.93157,2060.15436 L 22908.31737,2013.49441 L 22918.36045,1998.9666 L 23000,2000 Z" color="black" fill="black" stroke="none" transform="translate(-22478.535,-1251.215) rotate(120.000,23000.047,1999.971)"/>
	<path d="M 3000,4000 L 3088.7573,4012.52304 L 3104.61614,4022.86329 L 3125.24886,4023.10764 L 3122.36337,4045.00165 L 3108.38586,4053.05918 L 3087.64637,4053.62491 L 3081.18713,4056.89933 L 2993.9084,4046.22068 L 3000,4000 Z" color="black" fill="black" stroke="none" transform="translate(-2460.321,-3782.360) rotate(240.000,2999.974,3999.966)"/>
	<path d="M 42000,1000 L 42018.74832,1090.42481 L 42016.62489,1108.86867 L 42022.78458,1129.1363 L 42007.11075,1132.49133 L 41997.38326,1121.08221 L 41990.64364,1100.93872 L 41986.45178,1095.5396 L 41966.9108,1007.08286 L 42000,1000 Z" color="black" fill="black" stroke="none" transform="translate(-41447.987,-999.964) rotate(0.000,42000.023,999.964)"/>
	<path d="M 1000,3000 L 975.32031,3057.03316 L 971.5528,3082.47542 L 926.48769,3080.61878 L 912.49249,3062.00297 L 915.86504,3013.01918 L 925.41474,2997.88511 L 1000,3000 Z" color="black" fill="black" stroke="none" transform="translate(-525.869,-2640.741) rotate(240.000,1000.045,2999.971)"/>
	<path d="M 1000,2000 L 1034.302,2018.99884 L 1048.05025,2015.59031 L 1084.45936,1955.20071 L 1086.27837,1945.0293 L 1056.17714,1934.26713 L 1035.40761,1953.5557 L 1023.14541,1958.25279 L 1000,2000 Z" color="black" fill="black" stroke="none" transform="translate(-461.675,-1448.131) rotate(120.000,999.959,2000.012)"/>
	<path d="M 30000,1000 L 29915.43792,1047.45237 L 29924.29985,1075.24019 L 29941.87425,1084.62753 L 29996.23538,1032.91539 L 30000.05609,1013.44145 L 30000,1000 Z" color="black" fill="black" stroke="none" transform="translate(-29417.944,-246.523) rotate(0.000,30000.030,999.949)"/>
	<path d="M 10000,4000 L 10046.04272,4019.74984 L 10045.8491,4040.96895 L 10057.52967,4055.83587 L 10043.37801,4079.15298 L 10029.46909,4080.3306 L 10015.41419,4084.26942 L 9973.19993,4061.9354 L 10000,4000 Z" color="black" fill="black" stroke="none" transform="translate(-9478.902,-3099.961) rotate(240.000,9999.984,3999.961)"/>
	<path d="M 32000,2000 L 31943.67761,1998.35179 L 31941.25489,2039.91129 L 31963.2041,2061.01445 L 31967.58437,2090.89706 L 31979.09638,2095.05047 L 31982.91736,2104.52118 L 31992.11909,2102.35397 L 31998.01868,2083.67921 L 32002.80959,2076.52629 L 32006.06134,2013.23949 L 32000,2000 Z" color="black" fill="black" stroke="none" transform="translate(-31407.057,-1577.103) rotate(0.000,32000.020,1999.971)"/>
	<path d="M 27000,1000 L 26996.667,1052.667 L 27040,1056 L 27062.667,1036 L 27094,1032.667 L 27098.667,1022 L 27108.667,1018.667 L 27106.667,1010 L 27087.333,1004 L 27080,999.333 L 27014,994.667 L 27000,1000 Z" color="black" fill="black" stroke="none" transform="translate(-26374.820,-743.777) rotate(120.000,26999.971,999.979)"/>
	<path d="M 21000,3000 L 20939.60337,3038.1509 L 20944.28479,3042.75991 L 20929.17986,3056.18886 L 20950.29331,3062.2886 L 20961.72943,3072.38456 L 21023.52572,3035.43211 L 21000,3000 Z" color="black" fill="black" stroke="none" transform="translate(-20340.099,-3022.960) rotate(120.000,20944.241,3042.759)"/>
	<path d="M 45000,3000 L 44979.62908,3019.72838 L 45026.54762,3073.16634 L 45054.09257,3080.81087 L 45063.59526,3078.14477 L 45062.07197,3064.0936 L 45000,3000 Z" color="black" fill="black" stroke="none" transform="translate(-44627.437,-2905.635) rotate(240.000,45000.001,2999.958)"/>
	<path d="M 38000,1000 L 37975.08614,1057.96811 L 37983.41384,1061.25071 L 37980.46963,1079.74358 L 38005.61113,1079.45418 L 38024.9712,1086.27766 L 38052.22308,1029.10645 L 38000,1000 Z" color="black" fill="black" stroke="none" transform="translate(-37433.280,-329.498) rotate(0.000,37983.380,1061.270)"/>
	<path d="M 17000,4000 L 17062.56517,4071.95526 L 17041.18068,4092.35684 L 17009.53914,4055.54658 L 16990.57825,4010.16468 L 17000,4000 Z" color="black" fill="black" stroke="none" transform="translate(-16899.360,-3434.903) rotate(120.000,17000.001,3999.955)"/>
	<path d="M 33000,2000 L 32979.34108,2055.68567 L 32983.04537,2088.172 L 33000.47865,2114.04969 L 32997.68804,2091.77445 L 33012.32448,2057.52136 L 33024.11859,2056.44932 L 33036.57281,2022.4278 L 33000,2000 Z" color="black" fill="black" stroke="none" transform="translate(-32417.700,-1474.027) rotate(0.000,32999.985,1999.955)"/>
	<path d="M 15000,2000 L 15019.98161,2015.16218 L 15054.12001,2024.80157 L 15037.31113,2074.2853 L 15019.17923,2068.81074 L 15017.24077,2078.30224 L 14971.47865,2055.8011 L 15000,2000 Z" color="black" fill="black" stroke="none" transform="translate(-14425.420,-1834.500) rotate(240.000,14999.990,1999.954)"/>
	<path d="M 19000,4000 L 19019.12028,3999.28444 L 19062.23437,4094.37553 L 19054.62555,4103.16164 L 19037.30155,4096.01816 L 19000,4000 Z" color="black" fill="black" stroke="none" transform="translate(-18434.952,-3658.077) rotate(0.000,18999.957,3999.972)"/>
	<path d="M 47000,3000 L 47016.73153,3011.86173 L 47046.70541,3014.25712 L 47027.31862,3072.65961 L 47011.4289,3070.99753 L 47008.87011,3081.89111 L 46969.5081,3068.15504 L 47000,3000 Z" color="black" fill="black" stroke="none" transform="translate(-46406.407,-2247.069) rotate(0.000,46999.988,2999.954)"/>
	<path d="M 16000,4000 L 16002.72992,4072.2673 L 16020.86228,4105.77902 L 16050.50849,4124.52459 L 16037.81238,4101.68382 L 16038.15789,4056.17246 L 16050.06825,4048.52615 L 16048.22459,4004.46589 L 16000,4000 Z" color="black" fill="black" stroke="none" transform="translate(-15408.034,-3410.104) rotate(0.000,15999.969,3999.967)"/>
	<path d="M 24000,2000 L 24029.01267,2024.98278 L 23978.39112,2065.3086 L 23932.86417,2031.03474 L 24000,2000 Z" color="black" fill="black" stroke="none" transform="translate(-23361.935,-1632.402) rotate(120.000,24000.005,1999.965)"/>
	<path d="M 27000,2000 L 27039.6651,2021.2675 L 27035.65716,2040.61643 L 27043.94248,2055.00597 L 27026.45201,2075.28542 L 27013.18154,2075.37954 L 26999.27613,2077.98298 L 26963.67128,2054.62726 L 27000,2000 Z" color="black" fill="black" stroke="none" transform="translate(-26393.951,-1835.184) rotate(0.000,26999.990,1999.961)"/>
	<path d="M 30000,4000 L 30030.98764,4049.67435 L 30030.92255,4062.96277 L 30039.96971,4073.05782 L 30023.54424,4083.58827 L 30011.73021,4081.22778 L 30002.0753,4071.52235 L 29996.92634,4070.18693 L 29965.32399,4022.23095 L 30000,4000 Z" color="black" fill="black" stroke="none" transform="translate(-29414.920,-3474.694) rotate(240.000,30000.009,3999.958)"/>
	<path d="M 13000,3000 L 12934.71036,3062.21051 L 12952.09859,3083.0046 L 12971.86416,3086.12421 L 13007.00912,3028.45083 L 13004.38038,3011.19152 L 13000,3000 Z" color="black" fill="black" stroke="none" transform="translate(-12347.766,-2204.168) rotate(0.000,13000.012,2999.947)"/>
	<path d="M 12000,2000 L 12091.85047,2021.31086 L 12098.58854,2040.41794 L 12100.85103,2054.40834 L 11994.26215,2036.90301 L 11988.4708,2027.48452 L 12000,2000 Z" color="black" fill="black" stroke="none" transform="translate(-11361.774,-1885.365) rotate(240.000,11999.982,1999.965)"/>
	<path d="M 44000,3000 L 44036.61569,3057.02206 L 44026.2362,3076.74836 L 44017.10983,3090.08292 L 43969.23792,3030.31226 L 43972.94289,3019.56289 L 44000,3000 Z" color="black" fill="black" stroke="none" transform="translate(-43359.942,-2633.837) rotate(0.000,44000.008,2999.957)"/>
	<path d="M 0,1000 L 49.51969,1013.15437 L 55.34904,1033.03435 L 70.7053,1045.59562 L 63.81411,1069.05426 L 50.87959,1071.76591 L 38.58839,1077.07846 L -8.01161,1061.06268 L 0,1000 Z" color="black" fill="black" stroke="none" transform="translate(634.995,-406.099) rotate(240.000,-0.025,999.962)"/>
	<path d="M 9000,1000 L 9044.666,1053.333 L 9039.333,1067.333 L 9011.333,1086.666 L 8983.333,1048.666 L 8984.666,1040 L 8975.333,1015.333 L 9000,1000 Z" color="black" fill="black" stroke="none" transform="translate(-8309.071,-248.277) rotate(120.000,9000.006,999.961)"/>
	<path d="M 40000,1000 L 39992.98086,1066.69747 L 39948.91914,1067.42418 L 39934.39502,1054.49442 L 39934.00125,998.22316 L 39957.71928,976.41891 L 39965.60677,984.28767 L 39975.74132,983.66717 L 39988.20606,999.35612 L 40000,1000 Z" color="black" fill="black" stroke="none" transform="translate(-39297.653,-354.491) rotate(0.000,40000.033,999.972)"/>
	<path d="M 27000,3000 L 26991.83716,3012.63092 L 26988.01796,3026.08038 L 26940.98277,3067.69287 L 26937.38109,3049.30236 L 26934.60877,3023.09955 L 26987.11484,2976.31876 L 27000,3000 Z" color="black" fill="black" stroke="none" transform="translate(-26325.250,-2914.984) rotate(120.000,27000.035,3000.001)"/>
	<path d="M 37000,1000 L 37008.65761,1016.56408 L 37031.88779,1031.03305 L 36992.31397,1070.02205 L 36980.15982,1062.03546 L 36973.63233,1069.75019 L 36947.46273,1042.20886 L 37000,1000 Z" color="black" fill="black" stroke="none" transform="translate(-36331.946,-936.181) rotate(120.000,36980.166,1062.075)"/>
	<path d="M 23000,4000 L 22994.89049,4034.1861 L 23074.68596,4050.39198 L 23105.20753,4037.12209 L 23112.08839,4027.45171 L 23101.02412,4015.09923 L 23000,4000 Z" color="black" fill="black" stroke="none" transform="translate(-22333.485,-3650.967) rotate(240.000,22999.975,3999.966)"/>
	<path d="M 18000,4000 L 17944.57846,4070.89074 L 17957.90167,4094.48142 L 17973.83554,4097.97475 L 18004.59871,4032.32204 L 18003.12738,4012.70998 L 18000,4000 Z" color="black" fill="black" stroke="none" transform="translate(-17314.891,-3198.000) rotate(0.000,18000.014,3999.933)"/>
	<path d="M 28000,1000 L 28008.68645,1066.70535 L 28026.65656,1094.91597 L 28052.8304,1107.54877 L 28040.3034,1088.37558 L 28036.5397,1046.03372 L 28045.70467,1037.00718 L 28040.26048,996.36689 L 28000,1000 Z" color="black" fill="black" stroke="none" transform="translate(-27342.500,-818.120) rotate(0.000,27999.966,999.973)"/>
	<path d="M 17000,3000 L 17003.69925,3084.82358 L 16980.79465,3099.16386 L 16963.09738,3107.48389 L 16949.25992,3012.39259 L 16959.6938,3003.308 L 17000,3000 Z" color="black" fill="black" stroke="none" transform="translate(-16282.605,-2658.452) rotate(0.000,17000.029,2999.968)"/>
	<path d="M 13000,1000 L 13010.667,1055.333 L 12966.667,1065.333 L 12948.667,1058 L 12933.333,1012.666 L 12951.333,990 L 12961.333,994.666 L 12971.333,992 L 12988,1002 L 13000,1000 Z" color="black" fill="black" stroke="none" transform="translate(-12275.386,-543.020) rotate(0.000,13000.024,999.966)"/>
	<path d="M 30000,3000 L 30026.71414,3054.26589 L 29993.66996,3078.69127 L 29974.067,3063.45567 L 29953.2022,3028.73811 L 30000,3000 Z" color="black" fill="black" stroke="none" transform="translate(-29297.998,-2435.917) rotate(0.000,30000.012,2999.957)"/>
	<path d="M 42000,2000 L 42024.38392,2003.96429 L 42058.31912,1992.99672 L 42067.3649,2057.54622 L 42049.17243,2062.98444 L 42052.0131,2074.55673 L 42001.97385,2078.80996 L 42000,2000 Z" color="black" fill="black" stroke="none" transform="translate(-41312.449,-1247.683) rotate(0.000,41999.969,1999.965)"/>
	<path d="M 28000,2000 L 28013.91058,2028.31911 L 28025.59849,2030.7636 L 28085.0327,1995.74062 L 28091.96922,1988.21081 L 28076.48504,1968.13452 L 28050.98762,1975.86492 L 28039.64423,1975.02335 L 28000,2000 Z" color="black" fill="black" stroke="none" transform="translate(-27960.461,-1347.190) rotate(120.000,27999.961,1999.989)"/>
	<path d="M 14000,3000 L 14020.61968,3016.52414 L 14011.3162,3154.28488 L 13998.20543,3156.54426 L 13984.01878,3133.47483 L 14000,3000 Z" color="black" fill="black" stroke="none" transform="translate(-13287.925,-2999.943) rotate(0.000,13999.977,2999.943)"/>
	<path d="M 29000,2000 L 29028.23876,2003.37369 L 29049.93076,2010.51494 L 29076.87786,2021.11102 L 29048.76633,2066.25714 L 29014.66687,2048.82175 L 29013.22002,2040.98387 L 28993.71153,2028.86883 L 28990.70404,2014.30743 L 29000,2000 Z" color="black" fill="black" stroke="none" transform="translate(-28285.347,-1766.672) rotate(240.000,28999.985,1999.968)"/>
	<path d="M 19000,3000 L 19010.57862,3080.66147 L 18995.92886,3088.41897 L 18954.61697,3082.90142 L 18950.98706,3028.43796 L 18958.04459,3022.0881 L 18964.72215,2993.68904 L 19000,3000 Z" color="black" fill="black" stroke="none" transform="translate(-18252.863,-2342.257) rotate(0.000,19000.027,2999.974)"/>
	<path d="M 3000,1000 L 2942,1064 L 2959.333,1083.334 L 2978,1085.334 L 3008,1027.334 L 3004.667,1010.667 L 3000,1000 Z" color="black" fill="black" stroke="none" transform="translate(-2251.571,-752.495) rotate(0.000,3000.009,999.946)"/>
	<path d="M 40000,3000 L 39913.22734,2959.44086 L 39889.69109,2976.13663 L 39888.55249,2991.87847 L 39965.45716,3009.89584 L 39986.63845,3005.14505 L 40000,3000 Z" color="black" fill="black" stroke="none" transform="translate(-39283.493,-2668.193) rotate(240.000,40000.077,3000.003)"/>
	<path d="M 28000,4000 L 27951.73744,4013.06285 L 27941.44716,3965.7956 L 27947.27685,3946.14179 L 27986.59293,3928.31359 L 28007.12642,3947.13441 L 28003.36734,3958.06964 L 28006.05166,3968.80127 L 27997.83269,3987.08874 L 28000,4000 Z" color="black" fill="black" stroke="none" transform="translate(-27265.591,-3172.683) rotate(240.000,28000.034,4000.022)"/>
	<path d="M 8000,2000 L 7898.98421,2005.71071 L 7894.2785,2035.77943 L 7906.2873,2052.61178 L 7981.1248,2029.08867 L 7993.77815,2012.60817 L 8000,2000 Z" color="black" fill="black" stroke="none" transform="translate(-7317.369,-1477.065) rotate(240.000,8000.050,1999.967)"/>
	<path d="M 45000,2000 L 44976.02676,2049.73778 L 44940.26506,2036.69977 L 44932.09179,2022.15351 L 44947.22013,1978.24088 L 44972.3481,1968.5952 L 44976.55416,1977.15395 L 44984.90409,1979.79999 L 44990.65785,1995.85769 L 45000,2000 Z" color="black" fill="black" stroke="none" transform="translate(-44207.530,-1884.295) rotate(0.000,45000.040,1999.985)"/>
	<path d="M 19000,1000 L 19030,1011.333 L 19007.333,1078.667 L 18962,1066 L 19000,1000 Z" color="black" fill="black" stroke="none" transform="translate(-18238.229,-728.424) rotate(0.000,18999.987,999.963)"/>
	<path d="M 36000,1000 L 36012.5438,1076.65205 L 36001.38079,1090.76873 L 35968.47783,1102.99888 L 35962.78159,1049.73031 L 35968.0236,1040.29927 L 35971.81976,1008.8337 L 36000,1000 Z" color="black" fill="black" stroke="none" transform="translate(-35230.535,-566.362) rotate(0.000,36000.024,999.961)"/>
	<path d="M 40000,2000 L 39996.35984,2031.15212 L 40074.81785,2044.18662 L 40104.06306,2031.49284 L 40110.39381,2022.56613 L 40099.11801,2011.58206 L 40000,2000 Z" color="black" fill="black" stroke="none" transform="translate(-39228.383,-1285.627) rotate(240.000,39999.974,1999.967)"/>
	<path d="M 13000,2000 L 12971.90048,2003.11816 L 12978.17134,2091.01646 L 12995.87892,2119.80304 L 13005.12277,2124.63434 L 13012.19958,2109.93725 L 13000,2000 Z" color="black" fill="black" stroke="none" transform="translate(-12215.730,-1287.044) rotate(0.000,13000.027,1999.967)"/>
	<path d="M 29000,3000 L 28990.48044,3030.14354 L 28903.11892,3023.00692 L 28911.94968,2978.37566 L 29000,3000 Z" color="black" fill="black" stroke="none" transform="translate(-28253.324,-2644.762) rotate(240.000,29000.038,2999.979)"/>
	<path d="M 7000,1000 L 7077.333,1016.667 L 7083.999,1037.333 L 7086.666,1052.667 L 6997.333,1041.333 L 6992,1031.333 L 7000,1000 Z" color="black" fill="black" stroke="none" transform="translate(-6226.639,-738.986) rotate(240.000,6999.978,999.965)"/>
	<path d="M 32000,1000 L 31990.4473,1011.58127 L 31983.28326,1020.26686 L 31981.74829,1096.07155 L 31987.53051,1143.68082 L 32008.85718,1129.45866 L 32016.37618,1112.4553 L 32000,1000 Z" color="black" fill="black" stroke="none" transform="translate(-31206.855,-502.843) rotate(0.000,32000.020,999.929)"/>
	<path d="M 47000,2000 L 47009.54241,2080.54149 L 47005.72446,2096.59228 L 47009.76045,2114.76882 L 46994.24929,2116.719 L 46985.91011,2106.08997 L 46981.30019,2087.98559 L 46977.75265,2082.98173 L 46967.25421,2004.11704 L 47000,2000 Z" color="black" fill="black" stroke="none" transform="translate(-46200.872,-1999.966) rotate(0.000,47000.026,1999.966)"/>
	<path d="M 39000,1000 L 39063.03692,987.14512 L 39082.06775,1025.65278 L 39070.00629,1033.55459 L 39029.05758,1047.4775 L 39011.7655,1008.28546 L 39002.12056,1009.87809 L 39000,1000 Z" color="black" fill="black" stroke="none" transform="translate(-38169.908,-161.046) rotate(120.000,38999.964,999.977)"/>
	<path d="M 39000,2000 L 39007.97301,2070.52928 L 38988.28016,2084.85207 L 38972.91264,2093.61144 L 38955.30922,2015.53276 L 38964.13968,2006.87486 L 39000,2000 Z" color="black" fill="black" stroke="none" transform="translate(-38174.193,-1700.774) rotate(0.000,39000.026,1999.964)"/>
	<path d="M 35000,2000 L 34922.21058,1961.91708 L 34906.15552,1982.43496 L 34908.09886,2000.06039 L 34973.77635,2013.84375 L 34990.09632,2006.82197 L 35000,2000 Z" color="black" fill="black" stroke="none" transform="translate(-34212.685,-1292.464) rotate(240.000,35000.059,1999.996)"/>
	<path d="M 11000,1000 L 11010,1063.333 L 11017.333,1061.333 L 11024,1078.667 L 11041.333,1064 L 11058,1058.667 L 11050,994.667 L 11000,1000 Z" color="black" fill="black" stroke="none" transform="translate(-10217.430,-863.600) rotate(0.000,10999.965,999.974)"/>
	<path d="M 44000,2000 L 44028.5473,1961.47959 L 44067.56072,1990.27923 L 44066.00083,2002.84029 L 44051.45225,2033.17788 L 44012.98977,2003.00117 L 44008.35356,2008.53805 L 44000,2000 Z" color="black" fill="black" stroke="none" transform="translate(-43173.980,-1506.983) rotate(240.000,43999.961,2000.003)"/>
	<path d="M 34000,1000 L 34062.98678,1022.89966 L 34066.79588,1045.44136 L 34067.7245,1062.01761 L 33994.29659,1044.03503 L 33990.69868,1032.98917 L 34000,1000 Z" color="black" fill="black" stroke="none" transform="translate(-33199.273,-296.537) rotate(240.000,33999.980,999.961)"/>
	<path d="M 17000,1000 L 16994,1010.667 L 16992.667,1021.334 L 16952,1059.334 L 16944.667,1046 L 16936.667,1026.667 L 16982,984 L 17000,1000 Z" color="black" fill="black" stroke="none" transform="translate(-16681.762,-928.691) rotate(120.000,17000.038,999.994)"/>
	<path d="M 27000,4000 L 27047.74334,3968.0966 L 27076.5317,3993.72909 L 27069.24203,4004.36095 L 27040.1177,4029.72117 L 27012.53442,4002.93432 L 27005.10255,4007.50436 L 27000,4000 Z" color="black" fill="black" stroke="none" transform="translate(-26160.200,-3517.765) rotate(120.000,26999.958,3999.992)"/>
	<path d="M 0,3000 L 43.59869,2970.82998 L 71.44832,3000.96681 L 64.99182,3011.54802 L 38.60094,3035.6163 L 11.83962,3004.37188 L 5.03915,3008.49122 L 0,3000 Z" color="black" fill="black" stroke="none" transform="translate(836.446,-2758.251) rotate(120.000,-0.040,2999.991)"/>
	<path d="M 0,2000 L -12.99554,2006.80709 L -22.79863,2016.36006 L -82.29091,2029.25851 L -76.19276,2012.02223 L -65.55053,1988.57997 L 1.0236,1973.90409 L 0,2000 Z" color="black" fill="black" stroke="none" transform="translate(808.768,-1914.056) rotate(120.000,0.029,2000.019)"/>
	<path d="M 8000,4000 L 7961.15355,4037.41824 L 7925.38822,4021.75106 L 7931.38565,4002.51546 L 7954.70758,3975.85419 L 8000,4000 Z" color="black" fill="black" stroke="none" transform="translate(-7193.211,-3448.306) rotate(240.000,8000.051,3999.993)"/>
	<path d="M 48000,2000 L 47990.79442,2020.99162 L 47980.36693,2038.06837 L 47937.13481,2020.92658 L 47945.11969,1996.01784 L 47957.07664,1965.19023 L 47965.65945,1967.23025 L 47996.47659,1998.25501 L 48000,2000 Z" color="black" fill="black" stroke="none" transform="translate(-47175.228,-1623.670) rotate(240.000,48000.039,1999.986)"/>
	<path d="M 38000,2000 L 37990.34745,1999.73567 L 37980.41035,1996.11559 L 37974.36581,1994.43816 L 37976.28536,2053.77413 L 37981.67577,2112.52028 L 38003.96644,2112.84387 L 38012.70271,2105.95638 L 38000,2000 Z" color="black" fill="black" stroke="none" transform="translate(-37139.943,-1905.449) rotate(0.000,38000.027,1999.971)"/>
	<path d="M 11000,4000 L 11021.82584,4018.65009 L 11032.32365,4017.53762 L 11068.27896,3974.57832 L 11071.2111,3966.85865 L 11051.1199,3955.09658 L 11033.01609,3967.79211 L 11023.38992,3970.07518 L 11000,4000 Z" color="black" fill="black" stroke="none" transform="translate(-10141.855,-3712.319) rotate(120.000,10999.959,4000.004)"/>
	<path d="M 25000,3000 L 25000.43817,3077.71471 L 24993.60585,3092.62024 L 24995.98216,3110.35036 L 24976.94771,3110.63047 L 24968.3246,3099.65419 L 24965.24401,3081.93443 L 24961.64217,3076.80559 L 24959.81617,3000.59135 L 25000,3000 Z" color="black" fill="black" stroke="none" transform="translate(-24132.810,-2303.820) rotate(0.000,25000.030,2999.970)"/>
	<path d="M 34000,2000 L 34072.73924,2018.89985 L 34065.68098,2059.34721 L 34028.72793,2049.35119 L 33997.35552,2019.04657 L 34000,2000 Z" color="black" fill="black" stroke="none" transform="translate(-33156.556,-1307.605) rotate(240.000,33999.975,1999.962)"/>
	<path d="M 7000,4000 L 7015.52985,4029.40368 L 6957.82876,4052.72793 L 6931.66141,4010.97114 L 7000,4000 Z" color="black" fill="black" stroke="none" transform="translate(-6145.077,-3099.967) rotate(120.000,7000.016,3999.967)"/>
	<path d="M 9000,2000 L 9022.62557,2008.56812 L 9030.14623,2139.52414 L 9017.31861,2145.92849 L 9000.32337,2129.17044 L 9000,2000 Z" color="black" fill="black" stroke="none" transform="translate(-8152.965,-1573.783) rotate(0.000,8999.970,1999.957)"/>
	<path d="M 10000,1000 L 10020,1002.666 L 10047.334,992 L 10056.667,1048 L 10042,1053.333 L 10044.667,1063.333 L 10004,1068.666 L 10000,1000 Z" color="black" fill="black" stroke="none" transform="translate(-9165.227,-791.595) rotate(0.000,9999.968,999.965)"/>
	<path d="M 44000,1000 L 43989.10462,995.35027 L 43978.55898,994.98112 L 43938.29957,960.72167 L 43950.80745,952.92896 L 43969.13991,944.04448 L 44014.31918,982.21018 L 44000,1000 Z" color="black" fill="black" stroke="none" transform="translate(-43237.112,-995.025) rotate(240.000,44000.009,1000.037)"/>
	<path d="M 12000,3000 L 12018.11379,3097.28181 L 11986.70462,3104.72509 L 11977.77909,3055.14638 L 11985.5024,3004.34298 L 12000,3000 Z" color="black" fill="black" stroke="none" transform="translate(-11124.748,-2999.962) rotate(0.000,12000.023,2999.962)"/>
	<path d="M 26000,3000 L 25979.75781,3012.7083 L 25961.41532,3021.58981 L 25945.5586,2986.05543 L 25967.70282,2969.51909 L 25996.43299,2950.08177 L 26000.51397,2956.01481 L 25998.94582,2996.81768 L 26000,3000 Z" color="black" fill="black" stroke="none" transform="translate(-25956.089,-2594.787) rotate(240.000,26000.036,3000.013)"/>
	<path d="M 36000,2000 L 36020.93374,2007.22243 L 36029.09565,2127.49045 L 36017.33303,2133.75747 L 36001.51163,2118.83537 L 36000,2000 Z" color="black" fill="black" stroke="none" transform="translate(-35133.171,-1336.966) rotate(0.000,35999.969,1999.958)"/>
	<path d="M 20000,1000 L 20035.334,1032 L 20018.667,1060 L 20000,1054.667 L 19974.667,1035.333 L 20000,1000 Z" color="black" fill="black" stroke="none" transform="translate(-19893.427,-632.460) rotate(240.000,19999.995,999.955)"/>
	<path d="M 35000,3000 L 34977.39832,3017.6479 L 34979.87627,3023.18932 L 34967.95327,3032.51943 L 34990.84291,3053.85216 L 35018.60889,3030.20814 L 35000,3000 Z" color="black" fill="black" stroke="none" transform="translate(-34657.214,-2546.289) rotate(240.000,34979.839,3023.180)"/>
	<path d="M 25000,1000 L 25011.333,1024 L 25018,1023.334 L 25024,1036 L 25054,1022 L 25038,992 L 25000,1000 Z" color="black" fill="black" stroke="none" transform="translate(-24443.777,-434.801) rotate(240.000,24999.957,999.978)"/>
	<path d="M 36000,3000 L 35994.93997,3038.13935 L 36030.31449,3051.01275 L 36040.54449,3029.89377 L 36013.27071,2999.99192 L 36000,3000 Z" color="black" fill="black" stroke="none" transform="translate(-35764.665,-2836.409) rotate(0.000,35999.974,2999.970)"/>
	<path d="M 9000,3000 L 9029.4238,3021.68527 L 9059.00375,3001.38545 L 9046.64668,2983.8451 L 9007.02476,2990.11205 L 9000,3000 Z" color="black" fill="black" stroke="none" transform="translate(-8735.048,-2439.430) rotate(120.000,8999.958,3000.007)"/>
	<path d="M 26000,1000 L 26025.333,1024.666 L 26050.666,1001.333 L 26040,981.333 L 26006,988.666 L 26000,1000 Z" color="black" fill="black" stroke="none" transform="translate(-25588.422,-144.027) rotate(120.000,25999.963,1000.006)"/>
	<path d="M 4000,2000 L 3994.86417,2036.73347 L 4028.85947,2049.44128 L 4038.86029,2029.16268 L 4012.78633,2000.10278 L 4000,2000 Z" color="black" fill="black" stroke="none" transform="translate(-3933.480,-1822.375) rotate(240.000,3999.974,1999.970)"/>
	<path d="M 13000,4000 L 12996.2106,4030.54657 L 13001.68793,4032.24296 L 12999.7027,4048.37084 L 13030.08485,4043.89305 L 13033.41056,4005.04163 L 13000,4000 Z" color="black" fill="black" stroke="none" transform="translate(-12192.664,-3159.466) rotate(240.000,12999.974,3999.966)"/>
	<path d="M 14000,4000 L 14007.10692,4032.72521 L 14038.9679,4025.94531 L 14040.93422,4004.25357 L 14010.54126,3993.61425 L 14000,4000 Z" color="black" fill="black" stroke="none" transform="translate(-13711.982,-3675.525) rotate(0.000,13999.966,3999.985)"/>
</svg>
