<?xml version="1.0" ?>
<svg width="900" height="900" viewBox="0 0 900 900">
	<path d="M 7046.068,2043.80815 L 6954.04628,2017.46924 L 6977.52066,1951.48844 L 7024.75039,1986.46748 Z" color="black" fill="black" stroke="none" transform="translate(-7000.394,-2043.853) rotate(240.000,7046.117,2043.853)"/>
	<path d="M 38040.95199,1036.32643 L 37967.77758,1040.52255 L 37951.36965,956.18176 L 38049.33805,999.9968 Z" color="black" fill="black" stroke="none" transform="translate(-37900.949,-956.157) rotate(0.000,38040.976,1036.355)"/>
	<path d="M 9047.40498,1029.02219 L 8956.71224,1041.16803 L 8991.7634,951.1501 L 9018.96637,969.79461 Z" color="black" fill="black" stroke="none" transform="translate(-8827.416,-1024.058) rotate(300.000,9047.450,1029.046)"/>
	<path d="M 15016.287,1012.42866 L 14951.40663,1041.49394 L 14992.35908,956.41439 L 15046.70522,974.17634 Z" color="black" fill="black" stroke="none" transform="translate(-14877.441,-886.126) rotate(60.000,15016.306,1012.453)"/>
	<path d="M 45047.0622,5031.79626 L 44961.78208,5042.87481 L 44971.04996,4950.84003 L 45029.77113,4961.17103 Z" color="black" fill="black" stroke="none" transform="translate(-44866.690,-4930.694) rotate(120.000,45047.099,5031.822)"/>
	<path d="M 5041.68712,6044.25598 L 4959.65914,6040.94267 L 4990.15092,5950.07553 L 5018.84904,5989.29654 Z" color="black" fill="black" stroke="none" transform="translate(-4791.172,-6044.288) rotate(180.000,5041.733,6044.288)"/>
	<path d="M 34033.33691,6027.62392 L 33962.58064,6044.25689 L 33954.45233,5984.37086 L 34001.02499,5950.57385 Z" color="black" fill="black" stroke="none" transform="translate(-33721.694,-5954.675) rotate(120.000,34033.378,6027.645)"/>
	<path d="M 40011.28603,1035.82835 L 39986.77474,1020.88422 L 39955.43419,959.35472 L 40049.02493,957.96413 Z" color="black" fill="black" stroke="none" transform="translate(-39698.867,-962.806) rotate(180.000,40011.299,1035.871)"/>
	<path d="M 11049.09972,5045.49485 L 10962.6796,5012.2615 L 10988.62526,4962.73898 L 11037.29338,4987.09054 Z" color="black" fill="black" stroke="none" transform="translate(-11040.653,-4903.665) rotate(120.000,11049.140,5045.542)"/>
	<path d="M 47026.8509,1022.558 L 46951.39708,1047.83285 L 46999.92366,954.16321 L 47000.48634,959.10364 Z" color="black" fill="black" stroke="none" transform="translate(-46820.601,-913.913) rotate(240.000,47026.891,1022.576)"/>
	<path d="M 41.62721,5004.13145 L -42.40633,5046.25496 L -44.46583,4965.71463 L 5.25995,4964.84583 Z" color="black" fill="black" stroke="none" transform="translate(305.190,-4896.696) rotate(180.000,41.676,5004.140)"/>
	<path d="M 15040.16513,4022.05543 L 14966.8338,4049.81147 L 14973.81287,3954.27526 L 15030.11024,3997.16925 Z" color="black" fill="black" stroke="none" transform="translate(-14635.833,-3994.303) rotate(180.000,15040.204,4022.073)"/>
	<path d="M 40049.91518,5043.65149 L 39989.72384,5005.95595 L 39959.6465,4970.90368 L 40006.05009,4966.24772 Z" color="black" fill="black" stroke="none" transform="translate(-40003.292,-4873.155) rotate(120.000,40050.000,5043.740)"/>
	<path d="M 29049.81084,5001.05811 L 28961.20824,5045.94911 L 28973.83754,4997.11469 L 29022.05732,4967.25769 Z" color="black" fill="black" stroke="none" transform="translate(-28618.100,-4831.778) rotate(120.000,29049.858,5001.068)"/>
	<path d="M 16013.46359,4020.84071 L 15952.30048,4032.25579 L 15963.18897,3958.70464 L 16046.60953,3984.67834 Z" color="black" fill="black" stroke="none" transform="translate(-15467.555,-3934.130) rotate(300.000,16013.479,4020.868)"/>
	<path d="M 4047.56426,3048.70209 L 3992.58952,3026.41554 L 3956.33334,2990.43596 L 4034.95126,2972.83321 Z" color="black" fill="black" stroke="none" transform="translate(-3447.589,-2972.802) rotate(0.000,4047.603,3048.750)"/>
	<path d="M 36008.16877,4049.29538 L 35979.14582,4008.08461 L 35966.46195,3967.0392 L 36040.85172,3956.98887 Z" color="black" fill="black" stroke="none" transform="translate(-35452.054,-3991.205) rotate(180.000,36008.178,4049.360)"/>
	<path d="M 36027.87593,2035.17714 L 35965.86802,2013.73422 L 35986.036,1953.14367 L 36049.24807,1955.76029 Z" color="black" fill="black" stroke="none" transform="translate(-35372.153,-1974.136) rotate(240.000,36027.897,2035.216)"/>
	<path d="M 13045.76708,2009.73418 L 12965.95498,2038.95898 L 12985.0328,1989.6742 L 13009.06551,1953.62843 Z" color="black" fill="black" stroke="none" transform="translate(-12388.127,-1947.046) rotate(60.000,13045.813,2009.749)"/>
	<path d="M 19011.94871,6049.05224 L 18951.63875,6047.24837 L 18986.25242,5986.7169 L 19033.26207,5966.47534 Z" color="black" fill="black" stroke="none" transform="translate(-18355.527,-5984.372) rotate(120.000,19011.972,6049.083)"/>
	<path d="M 47045.10236,5031.53338 L 46974.79084,5047.21575 L 46969.97903,4999.25803 L 47006.5045,4958.0595 Z" color="black" fill="black" stroke="none" transform="translate(-46357.738,-4936.443) rotate(240.000,47045.147,5031.554)"/>
	<path d="M 1006.14424,7040.93184 L 961.78351,7005.1457 L 984.82832,6952.12643 L 1036.90372,6962.3166 Z" color="black" fill="black" stroke="none" transform="translate(-313.746,-7020.436) rotate(120.000,1006.157,7040.981)"/>
	<path d="M 35032.92022,1042.43154 L 34967.79307,1000.8857 L 34971.32408,971.46942 L 35043.25361,954.40279 Z" color="black" fill="black" stroke="none" transform="translate(-34250.739,-873.548) rotate(0.000,35032.944,1042.483)"/>
	<path d="M 44023.296,6012.14678 L 43957.46958,6034.80599 L 43954.15291,5998.21821 L 44033.6838,5951.28447 Z" color="black" fill="black" stroke="none" transform="translate(-43245.777,-5943.782) rotate(120.000,44023.323,6012.169)"/>
	<path d="M 39047.92829,2020.27119 L 38981.6545,2042.04818 L 38960.1073,1971.43724 L 39041.82335,1966.79138 Z" color="black" fill="black" stroke="none" transform="translate(-38260.018,-1900.235) rotate(180.000,39047.961,2020.292)"/>
	<path d="M 2039.72293,6036.35817 L 1956.93882,6034.852 L 1975.80642,5957.29098 L 2034.82346,5963.77238 Z" color="black" fill="black" stroke="none" transform="translate(-1392.905,-5814.740) rotate(0.000,2039.755,6036.389)"/>
	<path d="M 21032.89449,2022.13391 L 20954.04193,2032.73976 L 20990.56558,1951.69638 L 21034.68802,1955.61205 Z" color="black" fill="black" stroke="none" transform="translate(-20664.585,-1872.560) rotate(240.000,21032.924,2022.160)"/>
	<path d="M 43025.12307,3046.57567 L 42985.9723,3024.40955 L 42955.1754,2977.25692 L 43025.68379,2954.22873 Z" color="black" fill="black" stroke="none" transform="translate(-42549.896,-2931.892) rotate(180.000,43025.153,3046.627)"/>
	<path d="M 47026.7961,3045.00933 L 46959.39985,3032.15807 L 46954.36807,2986.84772 L 47021.08665,2955.12109 Z" color="black" fill="black" stroke="none" transform="translate(-46203.569,-3045.046) rotate(180.000,47026.828,3045.046)"/>
	<path d="M 11007.53275,1012.38484 L 10976.5186,1047.20158 L 10953.06026,972.3023 L 11036.58334,969.53413 Z" color="black" fill="black" stroke="none" transform="translate(-10297.490,-834.862) rotate(180.000,11007.556,1012.403)"/>
	<path d="M 17008.3142,5024.03521 L 16952.66288,5004.39011 L 16953.31344,4953.6122 L 17044.70756,4960.41964 Z" color="black" fill="black" stroke="none" transform="translate(-16865.962,-4864.232) rotate(180.000,17008.328,5024.072)"/>
	<path d="M 34047.20095,1004.30289 L 33960.00415,1027.68646 L 33977.57496,966.62332 L 34007.91811,954.18742 Z" color="black" fill="black" stroke="none" transform="translate(-34023.468,-856.649) rotate(240.000,34047.253,1004.320)"/>
	<path d="M 21031.31317,1003.65962 L 20996.37058,1039.6222 L 20966.86767,995.86199 L 21040.13779,952.52791 Z" color="black" fill="black" stroke="none" transform="translate(-20784.574,-841.356) rotate(240.000,21031.341,1003.674)"/>
	<path d="M 43033.09379,4001.15139 L 42957.23944,4028.63479 L 42959.38252,3958.3159 L 43047.73066,3980.31709 Z" color="black" fill="black" stroke="none" transform="translate(-42209.018,-3813.495) rotate(180.000,43033.113,4001.176)"/>
	<path d="M 2043.69262,2006.80401 L 1952.93545,2049.71851 L 1962.32302,1993.22067 L 2015.82784,1980.21187 Z" color="black" fill="black" stroke="none" transform="translate(-1562.486,-1792.428) rotate(180.000,2043.745,2006.812)"/>
	<path d="M 6026.84267,6019.30406 L 5956.10561,6044.67069 L 5956.41014,5973.95192 L 6003.502,5955.7562 Z" color="black" fill="black" stroke="none" transform="translate(-5585.070,-5836.441) rotate(240.000,6026.881,6019.322)"/>
	<path d="M 27017.47412,3045.46373 L 26966.97708,3040.67515 L 26974.42273,2986.90223 L 27034.8192,2953.57476 Z" color="black" fill="black" stroke="none" transform="translate(-26210.667,-2842.625) rotate(240.000,27017.499,3045.496)"/>
	<path d="M 35035.31458,2045.3753 L 34955.38107,2005.59728 L 34962.87073,1968.13162 L 35014.19226,1969.9733 Z" color="black" fill="black" stroke="none" transform="translate(-34837.373,-1860.295) rotate(180.000,35035.362,2045.432)"/>
	<path d="M 17020.26336,1026.65146 L 16960.62498,1007.92512 L 16958.0794,981.06489 L 17038.88618,950.87197 Z" color="black" fill="black" stroke="none" transform="translate(-16729.869,-752.876) rotate(60.000,17020.285,1026.690)"/>
	<path d="M 2049.43133,1045.35111 L 1980.88721,1003.0481 L 1991.69987,964.45473 L 2010.43293,956.35395 Z" color="black" fill="black" stroke="none" transform="translate(-2049.497,-791.466) rotate(120.000,2049.497,1045.427)"/>
	<path d="M 25027.99708,1013.03248 L 24984.92291,1036.31137 L 24960.761,968.74669 L 25038.15858,957.80754 Z" color="black" fill="black" stroke="none" transform="translate(-24367.643,-732.485) rotate(60.000,25028.024,1013.052)"/>
	<path d="M 30039.49411,2032.38904 L 29961.74378,2033.44638 L 29962.3423,1955.63084 L 30033.21213,1981.90316 Z" color="black" fill="black" stroke="none" transform="translate(-29863.082,-1734.566) rotate(0.000,30039.528,2032.419)"/>
	<path d="M 4036.18861,7046.91399 L 3992.94502,7000.9447 L 3972.89896,6961.47 L 4019.70944,6952.29891 Z" color="black" fill="black" stroke="none" transform="translate(-3754.278,-6763.382) rotate(300.000,4036.235,7047.007)"/>
	<path d="M 23027.64245,5033.89976 L 22958.62624,5036.17716 L 22990.56705,4964.10816 L 23013.30834,4950.31926 Z" color="black" fill="black" stroke="none" transform="translate(-22633.492,-4805.804) rotate(240.000,23027.678,5033.929)"/>
	<path d="M 45044.6125,1037.35336 L 44991.74156,1023.79112 L 44950.30244,984.77371 L 45018.18836,974.75776 Z" color="black" fill="black" stroke="none" transform="translate(-44574.742,-753.949) rotate(120.000,45044.664,1037.397)"/>
	<path d="M 10036.65669,2017.09863 L 9969.40857,2044.9243 L 9986.88065,1968.82533 L 10046.2059,1968.14674 Z" color="black" fill="black" stroke="none" transform="translate(-9482.299,-1768.080) rotate(180.000,10036.683,2017.120)"/>
	<path d="M 10001.2965,5022.63859 L 9987.35162,5047.46912 L 9971.3856,4956.34455 L 10035.81506,4986.0174 Z" color="black" fill="black" stroke="none" transform="translate(-9177.320,-4789.543) rotate(120.000,10001.321,5022.656)"/>
	<path d="M 21017.61844,4000.91929 L 20998.57959,4045.89621 L 20960.13241,3957.71187 L 21026.10218,3961.54587 Z" color="black" fill="black" stroke="none" transform="translate(-20259.837,-3734.363) rotate(300.000,21017.647,4000.928)"/>
	<path d="M 16003.21272,1037.04082 L 15993.31283,1033.41257 L 15969.57664,962.06915 L 16046.91651,968.03418 Z" color="black" fill="black" stroke="none" transform="translate(-15594.145,-713.447) rotate(60.000,16003.225,1037.077)"/>
	<path d="M 11019.4857,2048.99458 L 10963.46309,2018.49102 L 10953.40509,1961.34416 L 11004.72255,1981.70686 Z" color="black" fill="black" stroke="none" transform="translate(-10777.464,-1741.056) rotate(120.000,11019.529,2049.052)"/>
	<path d="M 39012.34933,1044.78254 L 38954.16132,1005.92889 L 38976.51031,950.46839 L 39015.54328,990.69091 Z" color="black" fill="black" stroke="none" transform="translate(-39012.376,-752.911) rotate(120.000,39012.376,1044.837)"/>
	<path d="M 12005.75242,6043.40399 L 11950.02333,6001.43144 L 11986.01022,5971.27245 L 12024.25402,5965.51247 Z" color="black" fill="black" stroke="none" transform="translate(-11390.810,-5791.351) rotate(180.000,12005.771,6043.456)"/>
	<path d="M 3030.66003,5034.44484 L 2965.41018,5003.98302 L 2954.4069,4958.77726 L 3025.45776,4988.40123 Z" color="black" fill="black" stroke="none" transform="translate(-2234.479,-4723.593) rotate(120.000,3030.696,5034.495)"/>
	<path d="M 48035.17532,1048.65895 L 47968.11482,1017.81746 L 47985.92196,963.72651 L 48014.04129,973.39889 Z" color="black" fill="black" stroke="none" transform="translate(-47455.632,-741.700) rotate(300.000,48035.222,1048.713)"/>
	<path d="M 29035.11212,4044.96073 L 28972.96785,4049.2544 L 28993.79004,3957.71537 L 29026.88061,3977.08158 Z" color="black" fill="black" stroke="none" transform="translate(-28385.526,-3707.675) rotate(120.000,29035.146,4044.988)"/>
	<path d="M 39008.23552,4020.90558 L 38992.60242,4038.90992 L 38956.48304,3996.36715 L 39034.68939,3966.32796 Z" color="black" fill="black" stroke="none" transform="translate(-38984.826,-3659.447) rotate(60.000,39008.261,4020.922)"/>
	<path d="M 8034.73955,1004.08573 L 7991.6357,1019.97531 L 7951.73221,954.20953 L 8037.89452,963.43624 Z" color="black" fill="black" stroke="none" transform="translate(-7901.465,-690.351) rotate(180.000,8034.768,1004.107)"/>
	<path d="M 24011.65965,4039.80303 L 23958.05533,4036.85785 L 23970.07459,3967.77003 L 24036.53742,3980.48377 Z" color="black" fill="black" stroke="none" transform="translate(-23662.391,-3676.660) rotate(60.000,24011.679,4039.834)"/>
	<path d="M 35037.11778,3027.26732 L 34988.38586,3038.11764 L 34969.90689,2978.95747 L 35014.01261,2955.6274 Z" color="black" fill="black" stroke="none" transform="translate(-34216.132,-2705.575) rotate(300.000,35037.156,3027.289)"/>
	<path d="M 26035.52709,6047.08845 L 25968.7078,6003.36039 L 25985.28126,5992.00307 L 26029.84901,5964.19993 Z" color="black" fill="black" stroke="none" transform="translate(-25135.561,-5758.882) rotate(240.000,26035.561,6047.147)"/>
	<path d="M 38028.73728,3025.63392 L 37982.64606,3034.33044 L 37965.4512,2964.14312 L 38034.64951,2954.28286 Z" color="black" fill="black" stroke="none" transform="translate(-37821.969,-2677.790) rotate(120.000,38028.765,3025.659)"/>
	<path d="M 8023.8769,5044.39844 L 7961.97326,5032.07075 L 7992.0281,4995.30405 L 8044.42047,4977.3546 Z" color="black" fill="black" stroke="none" transform="translate(-7911.610,-4738.089) rotate(240.000,8023.898,5044.433)"/>
	<path d="M 42027.3636,3042.51019 L 41967.5538,3048.01425 L 41953.65763,2995.3388 L 42013.85183,2973.32072 Z" color="black" fill="black" stroke="none" transform="translate(-41419.903,-2655.845) rotate(0.000,42027.399,3042.537)"/>
	<path d="M 32046.05067,5013.31454 L 31953.41701,5015.07364 L 31986.73121,4980.49616 L 32045.92706,4956.18708 Z" color="black" fill="black" stroke="none" transform="translate(-31569.403,-4629.762) rotate(0.000,32046.081,5013.344)"/>
	<path d="M 33022.26605,5047.76041 L 32975.24062,5002.79153 L 32994.15904,4966.49608 L 33035.14259,4956.81485 Z" color="black" fill="black" stroke="none" transform="translate(-32658.120,-4667.350) rotate(300.000,33022.288,5047.822)"/>
	<path d="M 13042.2436,6041.21815 L 12976.81188,6019.88751 L 12983.2031,5984.70748 L 13045.48667,5962.00432 Z" color="black" fill="black" stroke="none" transform="translate(-12427.507,-5637.402) rotate(60.000,13042.272,6041.259)"/>
	<path d="M 28011.64576,3046.86649 L 27982.89248,3044.26995 L 27987.71541,2979.46331 L 28039.89852,2951.54128 Z" color="black" fill="black" stroke="none" transform="translate(-27208.391,-2644.073) rotate(60.000,28011.668,3046.899)"/>
	<path d="M 6027.22311,4002.9604 L 5975.53884,4038.40651 L 5957.34193,3960.7603 L 6021.54767,3985.37939 Z" color="black" fill="black" stroke="none" transform="translate(-5490.521,-3649.517) rotate(300.000,6027.259,4002.972)"/>
	<path d="M 6005.16544,5041.82085 L 5976.45286,5038.03774 L 5975.50445,4952.33035 L 6035.91074,4978.00231 Z" color="black" fill="black" stroke="none" transform="translate(-5323.563,-4625.294) rotate(60.000,6005.183,5041.853)"/>
	<path d="M 33049.2641,2035.94333 L 32997.48033,2012.68995 L 32971.78943,1979.09962 L 33002.87977,1966.45567 Z" color="black" fill="black" stroke="none" transform="translate(-33049.347,-1638.341) rotate(120.000,33049.347,2036.013)"/>
	<path d="M 2032.20044,5046.51967 L 1952.44009,5007.14718 L 1983.40966,4979.14759 L 2031.26623,4994.5421 Z" color="black" fill="black" stroke="none" transform="translate(-1899.852,-4691.875) rotate(180.000,2032.231,5046.568)"/>
	<path d="M 15044.26362,3007.11027 L 14959.60568,3028.06647 L 14975.53154,2989.89388 L 15031.22339,2964.78928 Z" color="black" fill="black" stroke="none" transform="translate(-14796.726,-2576.267) rotate(60.000,15044.302,3007.132)"/>
	<path d="M 40048.6501,3021.96127 L 39955.37584,3038.82593 L 39996.65509,2981.62139 L 40031.56239,2998.98832 Z" color="black" fill="black" stroke="none" transform="translate(-39286.596,-2662.449) rotate(240.000,40048.703,3021.982)"/>
	<path d="M 37035.96099,1047.57371 L 36989.07268,1023.29789 L 36980.77875,950.96292 L 37019.68279,971.81129 Z" color="black" fill="black" stroke="none" transform="translate(-36712.893,-640.873) rotate(120.000,37036.004,1047.630)"/>
	<path d="M 33012.59322,1044.75259 L 32957.93723,1010.62041 L 32957.05831,972.73906 L 33031.09049,988.62369 Z" color="black" fill="black" stroke="none" transform="translate(-32871.159,-628.958) rotate(300.000,33012.610,1044.798)"/>
	<path d="M 12002.22526,3026.10222 L 11967.52156,3031.99804 L 11992.27413,2959.42617 L 12033.58929,2951.40629 Z" color="black" fill="black" stroke="none" transform="translate(-11560.432,-2582.301) rotate(60.000,12002.247,3026.129)"/>
	<path d="M 32046.53092,2002.27868 L 31971.31642,2025.4095 L 31975.3787,1979.65 L 32002.13806,1955.2013 Z" color="black" fill="black" stroke="none" transform="translate(-31221.888,-1599.528) rotate(180.000,32046.586,2002.293)"/>
	<path d="M 23037.13609,6033.16237 L 22950.54262,6002.60514 L 22986.55757,5972.40542 L 23009.88806,5997.38783 Z" color="black" fill="black" stroke="none" transform="translate(-22767.419,-5645.279) rotate(180.000,23037.221,6033.224)"/>
	<path d="M 9011.15508,4001.85973 L 8965.86732,4025.48357 L 8965.66904,3952.25651 L 9037.18378,3984.09588 Z" color="black" fill="black" stroke="none" transform="translate(-8386.009,-3603.477) rotate(180.000,9011.171,4001.886)"/>
	<path d="M 9032.49617,6044.1768 L 8966.76889,6015.68031 L 8983.59657,5981.26985 L 9027.88817,5964.68839 Z" color="black" fill="black" stroke="none" transform="translate(-8436.694,-5656.459) rotate(240.000,9032.529,6044.224)"/>
	<path d="M 15037.28763,2039.30481 L 14979.39415,2020.15976 L 14978.78609,1960.68537 L 15044.53378,1959.98409 Z" color="black" fill="black" stroke="none" transform="translate(-14767.298,-1592.639) rotate(300.000,15037.314,2039.345)"/>
	<path d="M 29040.51215,2001.62911 L 28987.0677,2016.66413 L 28952.19459,1957.70256 L 29038.87437,1960.52087 Z" color="black" fill="black" stroke="none" transform="translate(-28941.853,-1563.060) rotate(180.000,29040.543,2001.652)"/>
	<path d="M 46045.44837,6022.8751 L 45963.72736,6012.16454 L 45982.91354,5959.24015 L 46020.626,5992.2378 Z" color="black" fill="black" stroke="none" transform="translate(-46021.642,-5626.796) rotate(240.000,46045.519,6022.915)"/>
	<path d="M 19007.1825,3007.81954 L 18963.05112,3043.13765 L 18993.0484,2969.63102 L 19033.70442,2994.20628 Z" color="black" fill="black" stroke="none" transform="translate(-18711.611,-2568.768) rotate(240.000,19007.199,3007.845)"/>
	<path d="M 44024.04964,4047.87132 L 43999.79818,4024.47135 L 43965.44024,3959.39446 L 44008.10967,3975.57298 Z" color="black" fill="black" stroke="none" transform="translate(-43703.629,-3599.168) rotate(120.000,44024.100,4047.962)"/>
	<path d="M 43019.30687,6035.62695 L 42980.83174,6004.26772 L 42993.94811,5984.3776 L 43046.56402,5956.74474 Z" color="black" fill="black" stroke="none" transform="translate(-42177.543,-5951.797) rotate(120.000,43019.321,6035.677)"/>
	<path d="M 44024.55391,1011.86886 L 43991.83019,1035.09451 L 43955.28485,960.64815 L 44024.90662,988.36943 Z" color="black" fill="black" stroke="none" transform="translate(-43482.192,-566.175) rotate(300.000,44024.584,1011.885)"/>
	<path d="M 17034.66853,2021.06245 L 16969.98645,2049.02829 L 16976.68926,1993.23228 L 17027.8555,1968.96941 Z" color="black" fill="black" stroke="none" transform="translate(-16322.270,-1606.826) rotate(240.000,17034.701,2021.081)"/>
	<path d="M 45019.79213,6024.50926 L 44982.44042,6003.32099 L 44971.85984,5957.34949 L 45048.73116,5998.45983 Z" color="black" fill="black" stroke="none" transform="translate(-44372.713,-5541.088) rotate(0.000,45019.796,6024.546)"/>
	<path d="M 25007.97369,6024.25477 L 24978.6073,6019.13806 L 24950.59541,5959.98366 L 25030.80015,5965.71478 Z" color="black" fill="black" stroke="none" transform="translate(-24133.234,-5561.060) rotate(300.000,25007.993,6024.289)"/>
	<path d="M 38023.25334,5045.71986 L 37990.71603,5018.22137 L 37957.46562,4978.03834 L 38021.8429,4968.23659 Z" color="black" fill="black" stroke="none" transform="translate(-37640.170,-4571.718) rotate(120.000,38023.285,5045.786)"/>
	<path d="M 31045.01439,3030.6451 L 30977.59953,3046.79547 L 30997.68367,2983.66316 L 31043.41838,2971.16576 Z" color="black" fill="black" stroke="none" transform="translate(-30277.353,-2573.754) rotate(240.000,31045.045,3030.669)"/>
	<path d="M 36024.40709,1041.68787 L 35970.53821,1023.03568 L 35957.15223,982.07191 L 36042.63577,998.30145 Z" color="black" fill="black" stroke="none" transform="translate(-35685.222,-580.795) rotate(180.000,36024.424,1041.725)"/>
	<path d="M 27020.23553,2007.33389 L 26989.51798,2048.35928 L 26955.8377,1992.65339 L 27037.30843,1985.98675 Z" color="black" fill="black" stroke="none" transform="translate(-26973.170,-1523.777) rotate(180.000,27020.259,2007.352)"/>
	<path d="M 45026.99752,3018.08658 L 44989.48881,3044.55694 L 44973.66452,2977.43736 L 45030.25215,2955.05442 Z" color="black" fill="black" stroke="none" transform="translate(-44359.314,-2494.324) rotate(60.000,45027.027,3018.103)"/>
	<path d="M 14031.91817,6011.91553 L 13977.3784,6038.15078 L 13991.41509,5980.94372 L 14036.57865,5952.7612 Z" color="black" fill="black" stroke="none" transform="translate(-13766.442,-5544.216) rotate(240.000,14031.947,6011.935)"/>
	<path d="M 14015.39032,3046.04266 L 13981.30353,3042.564 L 13995.20992,2998.09914 L 14033.56136,2950.94544 Z" color="black" fill="black" stroke="none" transform="translate(-13856.061,-2564.407) rotate(240.000,14015.415,3046.075)"/>
	<path d="M 31007.39914,6009.92819 L 30982.53265,6043.37197 L 30972.30195,5965.20929 L 31035.86896,5990.12255 Z" color="black" fill="black" stroke="none" transform="translate(-30433.126,-5544.298) rotate(240.000,31007.420,6009.950)"/>
	<path d="M 18045.97059,2028.59457 L 17975.41737,2025.31267 L 17999.1084,1958.36735 L 18005.92309,1994.18338 Z" color="black" fill="black" stroke="none" transform="translate(-17887.143,-1493.065) rotate(120.000,18046.056,2028.629)"/>
	<path d="M 38030.66922,6033.72312 L 37974.44361,6038.02358 L 37955.27185,5984.86764 L 38036.90225,5977.51446 Z" color="black" fill="black" stroke="none" transform="translate(-37136.921,-5495.353) rotate(0.000,38030.696,6033.751)"/>
	<path d="M 22043.36249,1015.56364 L 21952.68604,1012.82821 L 21957.13265,961.28248 L 22018.88709,992.68702 Z" color="black" fill="black" stroke="none" transform="translate(-21493.793,-481.126) rotate(0.000,22043.441,1015.596)"/>
	<path d="M 34037.6546,5039.74538 L 33973.92843,5022.35165 L 33984.40261,4964.51665 L 34024.54382,4962.47707 Z" color="black" fill="black" stroke="none" transform="translate(-33420.863,-4570.200) rotate(240.000,34037.692,5039.787)"/>
	<path d="M 3028.27913,6013.66556 L 2985.42064,6015.72529 L 2959.70589,5959.09423 L 3045.9209,5990.02352 Z" color="black" fill="black" stroke="none" transform="translate(-2959.660,-5464.844) rotate(0.000,3028.295,6013.695)"/>
	<path d="M 32.79657,1048.83357 L -25.14839,1016.58526 L -14.73669,964.98932 L 4.17108,994.60769 Z" color="black" fill="black" stroke="none" transform="translate(176.754,-498.683) rotate(120.000,32.870,1048.909)"/>
	<path d="M 28026.47232,6015.09686 L 27961.59471,6007.43345 L 27960.63486,5991.8218 L 28044.01683,5956.74944 Z" color="black" fill="black" stroke="none" transform="translate(-27316.454,-5458.112) rotate(0.000,28026.494,6015.130)"/>
	<path d="M 32028.26865,1007.49158 L 31969.01655,1048.45041 L 31980.75239,966.39343 L 32009.97412,980.3629 Z" color="black" fill="black" stroke="none" transform="translate(-31618.553,-447.034) rotate(120.000,32028.310,1007.499)"/>
	<path d="M 22034.43026,3034.053 L 21954.11702,3035.21327 L 21976.60494,2974.68352 L 22024.8296,2989.42495 Z" color="black" fill="black" stroke="none" transform="translate(-21653.282,-2469.828) rotate(0.000,22034.467,3034.082)"/>
	<path d="M 46031.19553,2037.84953 L 45970.45816,2031.40207 L 45991.20506,1969.37127 L 46004.23274,1958.59949 Z" color="black" fill="black" stroke="none" transform="translate(-45211.608,-1535.437) rotate(240.000,46031.239,2037.884)"/>
	<path d="M 11006.94959,4031.96363 L 10958.40368,4016.23161 L 10968.5749,3960.35673 L 11025.47684,3983.70159 Z" color="black" fill="black" stroke="none" transform="translate(-10893.464,-3446.091) rotate(60.000,11006.967,4032.001)"/>
	<path d="M 41045.8948,3014.32767 L 40955.2775,3043.68983 L 40989.58244,2990.81963 L 41020.28579,2992.75012 Z" color="black" fill="black" stroke="none" transform="translate(-40573.520,-2454.853) rotate(180.000,41045.955,3014.340)"/>
	<path d="M 19001.19485,1024.76664 L 18972.56731,1028.98991 L 18987.04414,971.62015 L 19044.31279,962.5902 Z" color="black" fill="black" stroke="none" transform="translate(-18404.940,-448.672) rotate(60.000,19001.212,1024.794)"/>
	<path d="M 1000.46012,3034.98315 L 978.02417,3020.238 L 993.71501,2997.20284 L 1034.4017,2950.77197 Z" color="black" fill="black" stroke="none" transform="translate(-1000.474,-2459.051) rotate(60.000,1000.474,3035.028)"/>
	<path d="M 3044.50323,4047.86574 L 2955.80118,4042.82401 L 2988.85668,3994.28447 L 3034.6175,3998.47878 Z" color="black" fill="black" stroke="none" transform="translate(-2884.024,-3500.464) rotate(180.000,3044.540,4047.898)"/>
	<path d="M 6034.87526,2024.77721 L 5995.40928,2000.45271 L 5965.35173,1974.58925 L 6041.51635,1962.56112 Z" color="black" fill="black" stroke="none" transform="translate(-5318.008,-1490.597) rotate(180.000,6034.900,2024.828)"/>
	<path d="M 21032.13521,3003.75136 L 20955.31811,3011.21717 L 20950.27452,2953.92009 L 21006.43196,2977.70205 Z" color="black" fill="black" stroke="none" transform="translate(-20570.512,-2406.124) rotate(0.000,21032.201,3003.775)"/>
	<path d="M 5038.07927,3011.4008 L 4955.90883,3008.668 L 4969.36547,2954.48554 L 5035.84636,2967.84759 Z" color="black" fill="black" stroke="none" transform="translate(-4721.593,-2399.699) rotate(0.000,5038.111,3011.432)"/>
	<path d="M 38023.09261,4035.78826 L 37985.06112,4015.23521 L 37970.51946,3995.23656 L 38040.10652,3968.62982 Z" color="black" fill="black" stroke="none" transform="translate(-37476.930,-3427.308) rotate(60.000,38023.112,4035.833)"/>
	<path d="M 20034.01974,4030.4937 L 19998.62561,4018.00766 L 19961.94529,3976.46184 L 20032.49624,3965.74 Z" color="black" fill="black" stroke="none" transform="translate(-19216.980,-3448.766) rotate(120.000,20034.051,4030.536)"/>
	<path d="M 37019.84101,6000.05017 L 36960.83215,6037.01665 L 36990.73083,5983.29954 L 37047.46066,5983.80183 Z" color="black" fill="black" stroke="none" transform="translate(-36972.467,-5410.113) rotate(180.000,37019.857,6000.076)"/>
	<path d="M 14004.9626,5025.73736 L 13981.15774,5048.30038 L 13993.36924,4982.55526 L 14038.56739,4967.52769 Z" color="black" fill="black" stroke="none" transform="translate(-13885.277,-4414.153) rotate(60.000,14004.986,5025.756)"/>
	<path d="M 42045.25619,6013.87904 L 41975.6959,6024.40905 L 41989.27741,5957.74785 L 42003.68145,5994.63421 Z" color="black" fill="black" stroke="none" transform="translate(-41753.919,-5918.302) rotate(300.000,42045.359,6013.894)"/>
	<path d="M 25010.27122,2018.39687 L 24981.83226,2038.78466 L 24952.14435,1958.93844 L 25004.24913,1959.2949 Z" color="black" fill="black" stroke="none" transform="translate(-24479.111,-1422.447) rotate(300.000,25010.303,2018.411)"/>
	<path d="M 4048.59148,1005.71604 L 3968.39729,1008.97733 L 3986.94954,963.56204 L 4009.92854,951.12471 Z" color="black" fill="black" stroke="none" transform="translate(-3656.263,-386.435) rotate(0.000,4048.648,1005.744)"/>
	<path d="M 39021.54917,6013.12947 L 38996.82415,6037.42319 L 38982.69437,5988.40817 L 39047.03907,5965.74728 Z" color="black" fill="black" stroke="none" transform="translate(-38362.636,-5431.829) rotate(240.000,39021.573,6013.148)"/>
	<path d="M 26041.0447,5012.58652 L 25961.56034,5000.16786 L 25985.99451,4997.50839 L 26028.89717,4954.78987 Z" color="black" fill="black" stroke="none" transform="translate(-25224.304,-4388.285) rotate(0.000,26041.083,5012.623)"/>
	<path d="M 8046.13815,3025.77275 L 7982.04085,3000.73194 L 7987.43629,2954.15584 L 8026.67826,2973.22996 Z" color="black" fill="black" stroke="none" transform="translate(-7490.843,-2392.054) rotate(120.000,8046.189,3025.825)"/>
	<path d="M 11002.41177,6038.48549 L 10980.47957,6024.26773 L 10956.80481,5978.11748 L 11032.67049,5995.50123 Z" color="black" fill="black" stroke="none" transform="translate(-10277.813,-5411.034) rotate(300.000,11002.420,6038.526)"/>
	<path d="M 42027.43402,5018.70343 L 41952.4139,5023.91462 L 41980.66175,4990.3838 L 42035.71017,4968.96964 Z" color="black" fill="black" stroke="none" transform="translate(-41798.809,-4375.908) rotate(0.000,42027.460,5018.732)"/>
	<path d="M 47022.07268,6037.01105 L 46959.17056,6016.28544 L 46994.73062,5964.41657 L 47012.12065,5971.95791 Z" color="black" fill="black" stroke="none" transform="translate(-46934.792,-5438.931) rotate(240.000,47022.110,6037.055)"/>
	<path d="M 10011.17783,3024.70073 L 9975.80147,3041.1935 L 9956.9463,2964.9435 L 10016.74954,2971.44477 Z" color="black" fill="black" stroke="none" transform="translate(-9128.708,-2399.429) rotate(300.000,10011.206,3024.721)"/>
	<path d="M 30020.3528,3046.3938 L 29982.8631,3018.79614 L 29980.3618,2951.5138 L 30028.35945,2961.6227 Z" color="black" fill="black" stroke="none" transform="translate(-29522.476,-2396.209) rotate(300.000,30020.378,3046.449)"/>
	<path d="M 34029.53425,3037.57724 L 33965.4344,3004.73896 L 33965.08371,2967.06752 L 34018.82242,2982.16146 Z" color="black" fill="black" stroke="none" transform="translate(-33811.422,-2388.025) rotate(120.000,34029.575,3037.632)"/>
	<path d="M 26030.86082,2022.59634 L 25961.71902,2014.473 L 25971.63091,1957.69137 L 26008.73209,1986.81431 Z" color="black" fill="black" stroke="none" transform="translate(-25850.933,-1411.032) rotate(300.000,26030.919,2022.633)"/>
	<path d="M 19005.25226,5012.70885 L 18968.22167,5003.6501 L 18977.78466,4997.53792 L 19045.66504,4955.4824 Z" color="black" fill="black" stroke="none" transform="translate(-18975.858,-4373.036) rotate(300.000,19005.265,5012.743)"/>
	<path d="M 8020.87805,4049.45875 L 7973.07536,4003.04934 L 7965.76632,3983.01837 L 8032.54984,3993.05961 Z" color="black" fill="black" stroke="none" transform="translate(-7240.707,-3399.361) rotate(300.000,8020.896,4049.518)"/>
	<path d="M 37032.90107,5035.35857 L 36991.1076,5049.25431 L 36994.56442,4967.74564 L 37045.455,4980.27906 Z" color="black" fill="black" stroke="none" transform="translate(-36681.919,-4348.924) rotate(60.000,37032.927,5035.382)"/>
	<path d="M 23000.76304,4038.76845 L 22991.19734,4021.10851 L 22980.17825,3959.98717 L 23036.09865,3982.26229 Z" color="black" fill="black" stroke="none" transform="translate(-22516.144,-3413.593) rotate(120.000,23000.761,4038.828)"/>
	<path d="M 9010.99036,2029.07888 L 8975.48168,2016.49267 L 8951.02325,1969.4982 L 9013.70937,1959.0885 Z" color="black" fill="black" stroke="none" transform="translate(-8317.440,-1364.504) rotate(300.000,9011.019,2029.121)"/>
	<path d="M 47012.69999,4007.8619 L 46985.62243,4036.34259 L 46968.0461,3960.77265 L 47026.0541,3983.44135 Z" color="black" fill="black" stroke="none" transform="translate(-46717.501,-3316.925) rotate(60.000,47012.724,4007.880)"/>
	<path d="M 5035.40119,5011.68654 L 4954.74664,5000.37558 L 4956.75951,4980.88773 L 5011.55037,4957.64125 Z" color="black" fill="black" stroke="none" transform="translate(-4208.793,-4317.027) rotate(0.000,5035.450,5011.724)"/>
	<path d="M 21019.19129,5017.31803 L 20951.45185,5015.12593 L 20979.14027,4958.01943 L 21024.86693,4996.84868 Z" color="black" fill="black" stroke="none" transform="translate(-20410.642,-4321.980) rotate(0.000,21019.214,5017.349)"/>
	<path d="M 8006.9443,6039.21874 L 7959.13217,6008.83512 L 7999.44969,5975.20492 L 8026.81894,5985.4503 Z" color="black" fill="black" stroke="none" transform="translate(-7788.548,-5395.730) rotate(240.000,8006.960,6039.264)"/>
	<path d="M 24026.44008,6000.33057 L 23995.26248,6042.8107 L 23970.35604,5970.66576 L 24010.50116,5965.8687 Z" color="black" fill="black" stroke="none" transform="translate(-23198.098,-5301.726) rotate(120.000,24026.475,6000.334)"/>
	<path d="M 4014.84079,5026.85116 L 3989.35247,5033.92307 L 3951.90905,4983.90583 L 4038.12727,4994.88946 Z" color="black" fill="black" stroke="none" transform="translate(-3937.283,-4328.682) rotate(0.000,4014.859,5026.877)"/>
	<path d="M 23046.45008,3004.68749 L 22991.48257,3020.43846 L 22984.52044,2995.75056 L 23037.50945,2950.83013 Z" color="black" fill="black" stroke="none" transform="translate(-22621.214,-2351.598) rotate(240.000,23046.484,3004.709)"/>
	<path d="M 6000.1894,1023.95851 L 5964.34152,1018.03983 L 5987.84901,972.37569 L 6047.87058,976.17401 Z" color="black" fill="black" stroke="none" transform="translate(-5887.728,-360.767) rotate(180.000,6000.200,1023.991)"/>
	<path d="M 5004.00886,7022.55285 L 4960.02654,7037.37108 L 4970.13068,6960.03694 L 5015.47028,6968.0385 Z" color="black" fill="black" stroke="none" transform="translate(-4303.073,-6299.828) rotate(60.000,5004.035,7022.576)"/>
	<path d="M 25031.57074,5044.12047 L 24966.15048,5038.60483 L 24984.20626,4998.98192 L 25044.93251,4990.08027 Z" color="black" fill="black" stroke="none" transform="translate(-24546.971,-4316.398) rotate(60.000,25031.594,5044.153)"/>
	<path d="M 4030.58768,2017.36546 L 3987.56408,2015.16278 L 3975.51929,1977.55711 L 4046.23064,1957.27817 Z" color="black" fill="black" stroke="none" transform="translate(-3758.563,-1320.803) rotate(300.000,4030.611,2017.397)"/>
	<path d="M 9018.89674,5037.62981 L 8969.57009,5021.46971 L 8970.65372,4951.60954 L 9007.07538,4972.91781 Z" color="black" fill="black" stroke="none" transform="translate(-8720.809,-4325.022) rotate(120.000,9018.935,5037.674)"/>
	<path d="M 26039.88602,3040.08135 L 25980.03448,3048.42308 L 25986.59718,2977.66061 L 26036.98905,2996.15902 Z" color="black" fill="black" stroke="none" transform="translate(-25914.263,-2314.910) rotate(120.000,26039.918,3040.107)"/>
	<path d="M 34001.34637,2036.8287 L 33966.62266,2044.59985 L 33980.29076,1995.95774 L 34024.64801,1971.82416 Z" color="black" fill="black" stroke="none" transform="translate(-33977.249,-1294.719) rotate(60.000,34001.369,2036.854)"/>
	<path d="M 37021.26147,3008.96144 L 36972.89567,3033.72952 L 36998.46561,2999.52495 L 37046.26202,2976.49473 Z" color="black" fill="black" stroke="none" transform="translate(-36612.513,-2854.559) rotate(240.000,37021.281,3008.985)"/>
	<path d="M 13014.73086,1040.01622 L 12996.64716,1011.5746 L 12981.77545,951.35877 L 13028.97523,980.79732 Z" color="black" fill="black" stroke="none" transform="translate(-12490.099,-344.909) rotate(120.000,13014.743,1040.092)"/>
	<path d="M 28040.35488,4005.7094 L 27991.80114,4027.77306 L 27967.35311,3978.27085 L 28048.56407,3976.27456 Z" color="black" fill="black" stroke="none" transform="translate(-27423.968,-3293.866) rotate(180.000,28040.380,4005.731)"/>
	<path d="M 29015.86972,6010.3863 L 28983.75557,6021.96296 L 28952.51744,5963.86179 L 29024.24689,5986.73194 Z" color="black" fill="black" stroke="none" transform="translate(-28225.729,-5304.013) rotate(300.000,29015.893,6010.410)"/>
	<path d="M 16018.41517,6033.87575 L 15966.53851,6042.03869 L 15968.1719,5962.1608 L 16001.78876,5980.99694 Z" color="black" fill="black" stroke="none" transform="translate(-15234.481,-5293.471) rotate(120.000,16018.454,6033.900)"/>
	<path d="M 41033.92865,1001.71433 L 40957.40661,1032.97821 L 40957.22296,978.99871 L 41009.03083,986.2065 Z" color="black" fill="black" stroke="none" transform="translate(-40638.292,-268.871) rotate(180.000,41033.994,1001.720)"/>
	<path d="M 3004.38105,3005.02959 L 2992.28444,3049.99938 L 2957.75075,2998.7176 L 3030.05661,2992.76681 Z" color="black" fill="black" stroke="none" transform="translate(-2910.480,-2796.602) rotate(120.000,3004.406,3005.051)"/>
	<path d="M 23042.11364,2037.33366 L 22965.5587,2000.63387 L 22992.60246,1994.79185 L 23016.86353,1983.41082 Z" color="black" fill="black" stroke="none" transform="translate(-22298.645,-1887.003) rotate(180.000,23042.176,2037.397)"/>
	<path d="M 42039.45589,4000.86413 L 41998.82277,4044.76685 L 41990.37102,3961.01475 L 42026.25703,3973.67153 Z" color="black" fill="black" stroke="none" transform="translate(-41751.882,-3243.714) rotate(120.000,42039.492,4000.869)"/>
	<path d="M 37028.29124,4005.65595 L 36963.70576,4019.53855 L 36991.4332,3967.39168 L 37042.1847,3979.01543 Z" color="black" fill="black" stroke="none" transform="translate(-36480.728,-3288.724) rotate(240.000,37028.311,4005.682)"/>
	<path d="M 21016.79245,6002.40248 L 20976.69024,6037.80397 L 20999.33794,5981.8725 L 21049.38729,5989.5981 Z" color="black" fill="black" stroke="none" transform="translate(-20924.374,-5258.965) rotate(180.000,21016.808,6002.428)"/>
	<path d="M 13007.45568,3029.08688 L 12970.81281,3025.27215 L 12999.38493,2997.5502 L 13031.07753,2962.28753 Z" color="black" fill="black" stroke="none" transform="translate(-12869.878,-2262.536) rotate(60.000,13007.476,3029.119)"/>
	<path d="M 2031.98424,3041.43264 L 1986.80215,3025.82874 L 1985.17613,2962.5276 L 2036.02574,2989.83175 Z" color="black" fill="black" stroke="none" transform="translate(-1608.174,-2289.305) rotate(300.000,2032.011,3041.474)"/>
	<path d="M 32000.48344,4031.37694 L 31966.79474,4041.75058 L 31955.10637,3996.74042 L 32025.6172,3985.10563 Z" color="black" fill="black" stroke="none" transform="translate(-31756.913,-3297.069) rotate(180.000,32000.504,4031.402)"/>
	<path d="M 4041.36728,4000.89331 L 3991.84141,4004.6827 L 3966.6281,3951.50417 L 4013.24537,3995.53862 Z" color="black" fill="black" stroke="none" transform="translate(-3563.755,-4000.891) rotate(240.000,4041.518,4000.891)"/>
	<path d="M 3009.09762,1010.60426 L 2960.9574,1039.21621 L 2991.30745,985.08126 L 3033.99575,988.79055 Z" color="black" fill="black" stroke="none" transform="translate(-2977.721,-266.020) rotate(240.000,3009.115,1010.629)"/>
	<path d="M 28004.10356,2016.84422 L 27964.80621,2041.44634 L 27957.99128,1955.95344 L 28003.37178,1977.54005 Z" color="black" fill="black" stroke="none" transform="translate(-27137.836,-1230.661) rotate(60.000,28004.134,2016.861)"/>
	<path d="M 25036.16421,3029.18942 L 24992.01326,3046.63407 L 24993.77644,2957.5247 L 25028.76429,2999.10373 Z" color="black" fill="black" stroke="none" transform="translate(-24351.169,-2259.938) rotate(120.000,25036.200,3029.208)"/>
	<path d="M 15005.12519,5015.63534 L 14990.86611,5042.73925 L 14962.42326,4985.73487 L 15031.07728,4988.54624 Z" color="black" fill="black" stroke="none" transform="translate(-14530.893,-4261.900) rotate(180.000,15005.150,5015.653)"/>
	<path d="M 7049.3937,4008.6505 L 6959.00885,4007.49992 L 6977.8576,3965.63495 L 7019.68375,3981.43495 Z" color="black" fill="black" stroke="none" transform="translate(-6480.276,-3267.829) rotate(180.000,7049.472,4008.681)"/>
	<path d="M 34001.51405,4018.31194 L 33981.64395,4002.00244 L 33985.01534,3959.13991 L 34046.99521,3985.38819 Z" color="black" fill="black" stroke="none" transform="translate(-33214.572,-3217.129) rotate(0.000,34001.513,4018.350)"/>
	<path d="M 13005.08587,4031.20423 L 12950.57493,4013.61546 L 12950.95211,3972.62099 L 13016.50733,3978.79224 Z" color="black" fill="black" stroke="none" transform="translate(-12713.571,-3273.806) rotate(180.000,13005.108,4031.243)"/>
	<path d="M 40006.61148,2047.73213 L 39994.95073,2000.94515 L 39957.59909,1990.22851 L 40002.03084,1969.49686 Z" color="black" fill="black" stroke="none" transform="translate(-40006.650,-1313.871) rotate(180.000,40006.650,2047.878)"/>
	<path d="M 33041.41898,3003.86672 L 32959.8245,3009.89549 L 32975.79956,2962.96735 L 33039.23752,2980.09015 Z" color="black" fill="black" stroke="none" transform="translate(-32993.906,-2229.434) rotate(180.000,33041.452,3003.894)"/>
	<path d="M 17025.22105,3007.56042 L 16951.98484,3008.09419 L 16983.17737,2964.74588 L 17033.39723,2961.35449 Z" color="black" fill="black" stroke="none" transform="translate(-16895.715,-2240.949) rotate(180.000,17025.246,3007.590)"/>
	<path d="M 14021.6294,2026.57137 L 13956.60357,2029.75409 L 13969.55167,1981.29855 L 14034.83069,1984.316 Z" color="black" fill="black" stroke="none" transform="translate(-13500.171,-1257.229) rotate(180.000,14021.652,2026.600)"/>
	<path d="M 15012.41807,6049.67707 L 14952.09105,6039.12787 L 14987.84953,5986.93717 L 15011.45913,5998.61347 Z" color="black" fill="black" stroke="none" transform="translate(-14580.992,-5292.557) rotate(240.000,15012.449,6049.713)"/>
	<path d="M 20041.46789,5025.07118 L 19964.02871,5026.2783 L 19984.55257,4977.72383 L 20027.84826,4995.7651 Z" color="black" fill="black" stroke="none" transform="translate(-19374.195,-4285.212) rotate(240.000,20041.515,5025.100)"/>
	<path d="M 1024.59687,1023.27453 L 970.37083,1012.33148 L 997.09545,953.97043 L 1008.10156,957.11029 Z" color="black" fill="black" stroke="none" transform="translate(-192.162,-255.060) rotate(240.000,1024.637,1023.313)"/>
	<path d="M 41040.82609,5024.20127 L 40969.537,5014.80725 L 40966.84871,4973.46412 L 41016.80151,4977.09687 Z" color="black" fill="black" stroke="none" transform="translate(-40349.917,-4249.469) rotate(180.000,41040.879,5024.238)"/>
	<path d="M 31042.72904,1005.49929 L 30974.22122,1020.67183 L 30998.1134,966.24197 L 31016.00073,992.96971 Z" color="black" fill="black" stroke="none" transform="translate(-30840.223,-242.125) rotate(240.000,31042.822,1005.510)"/>
	<path d="M 10012.58927,4036.91717 L 9972.63733,4005.79151 L 9996.86801,3950.91023 L 10015.77155,3950.49876 Z" color="black" fill="black" stroke="none" transform="translate(-9362.281,-3258.089) rotate(240.000,10012.617,4036.977)"/>
	<path d="M 44016.46446,5025.47778 L 43980.24668,5047.52247 L 43974.66265,4977.24474 L 44014.68214,4958.51085 Z" color="black" fill="black" stroke="none" transform="translate(-43554.561,-4171.214) rotate(60.000,44016.495,5025.494)"/>
	<path d="M 24020.36198,5039.85478 L 23989.86288,5025.98397 L 23979.52202,4957.67827 L 24024.7061,4980.85728 Z" color="black" fill="black" stroke="none" transform="translate(-24006.027,-4225.258) rotate(120.000,24020.389,5039.900)"/>
	<path d="M 27029.4571,6023.09774 L 26951.68179,6010.22682 L 26955.69835,5983.68504 L 27022.58004,5975.39448 Z" color="black" fill="black" stroke="none" transform="translate(-26780.956,-5218.465) rotate(180.000,27029.493,6023.134)"/>
	<path d="M 22008.40986,5049.73442 L 21993.72622,5010.39686 L 21983.59176,4976.7129 L 22028.22071,4966.67966 Z" color="black" fill="black" stroke="none" transform="translate(-21651.004,-4282.761) rotate(180.000,22008.416,5049.837)"/>
	<path d="M 48019.88471,4035.45406 L 47957.73799,4008.12208 L 47959.39147,3987.71521 L 48015.30649,3975.80893 Z" color="black" fill="black" stroke="none" transform="translate(-47191.588,-3198.754) rotate(120.000,48019.918,4035.502)"/>
	<path d="M 17.22174,6001.46593 L -43.88418,6009.23401 L -43.62751,5991.59526 L 38.35781,5964.47896 Z" color="black" fill="black" stroke="none" transform="translate(90.458,-5184.018) rotate(180.000,17.240,6001.494)"/>
	<path d="M 13020.4334,5027.0329 L 12968.33655,5033.01948 L 12959.98752,4989.95462 L 13044.88454,4994.14965 Z" color="black" fill="black" stroke="none" transform="translate(-12849.481,-4202.859) rotate(180.000,13020.450,5027.061)"/>
	<path d="M 6014.57067,3026.36721 L 5972.10329,3022.38242 L 5959.36117,2986.64526 L 6031.51959,2976.05007 Z" color="black" fill="black" stroke="none" transform="translate(-5345.546,-2215.250) rotate(180.000,6014.592,3026.399)"/>
	<path d="M 18006.87651,4035.111 L 17979.86026,4006.40242 L 17999.90308,3993.68306 L 18024.52117,3954.58122 Z" color="black" fill="black" stroke="none" transform="translate(-17357.782,-3975.334) rotate(300.000,18006.894,4035.173)"/>
	<path d="M 30016.61088,6047.81416 L 29976.53373,6049.33985 L 29995.82553,5959.7441 L 30006.06171,5960.34374 Z" color="black" fill="black" stroke="none" transform="translate(-29488.724,-5235.251) rotate(240.000,30016.645,6047.843)"/>
	<path d="M 9018.94932,3018.41455 L 8997.79751,3005.7693 L 8957.22107,2971.25658 L 9033.19761,2979.73622 Z" color="black" fill="black" stroke="none" transform="translate(-9004.693,-2202.140) rotate(180.000,9018.965,3018.459)"/>
	<path d="M 46010.49541,3002.73421 L 45988.84689,3026.28169 L 45966.18759,2974.80112 L 46035.71602,2991.26594 Z" color="black" fill="black" stroke="none" transform="translate(-45619.133,-2191.456) rotate(240.000,46010.513,3002.759)"/>
	<path d="M 2007.12848,7046.58276 L 1997.08254,7029.36931 L 1957.2999,6978.54852 L 2001.16263,6975.13905 Z" color="black" fill="black" stroke="none" transform="translate(-1462.117,-6206.893) rotate(120.000,2007.169,7046.712)"/>
	<path d="M 16004.90756,5004.13386 L 15955.48826,5019.37595 L 15981.6766,4972.00048 L 16014.60126,4959.49657 Z" color="black" fill="black" stroke="none" transform="translate(-15241.148,-4178.672) rotate(240.000,16004.933,5004.157)"/>
	<path d="M 18042.6439,6014.96487 L 17984.52814,6019.56578 L 17969.05872,5974.81005 L 18036.9538,5971.51146 Z" color="black" fill="black" stroke="none" transform="translate(-17765.054,-5165.305) rotate(180.000,18042.678,6014.992)"/>
	<path d="M 43011.47131,2031.58076 L 42963.44679,2005.25953 L 42965.96682,1973.67078 L 43010.26698,1958.02084 Z" color="black" fill="black" stroke="none" transform="translate(-42138.816,-1170.249) rotate(300.000,43011.502,2031.632)"/>
	<path d="M 12046.81559,4002.3294 L 11966.90438,4008.19834 L 11994.99266,3988.77225 L 12030.00942,3964.15712 Z" color="black" fill="black" stroke="none" transform="translate(-11892.169,-3126.561) rotate(0.000,12046.860,4002.356)"/>
	<path d="M 1007.04526,2037.57118 L 975.04324,2015.12278 L 967.8599,1974.49 L 1023.56885,1994.3445 Z" color="black" fill="black" stroke="none" transform="translate(-591.292,-1209.964) rotate(180.000,1007.060,2037.618)"/>
	<path d="M 1036.37567,4020.78632 L 996.44318,4018.63782 L 966.30183,3971.06866 L 1007.56,3992.77274 Z" color="black" fill="black" stroke="none" transform="translate(-767.797,-3170.020) rotate(300.000,1036.454,4020.821)"/>
	<path d="M 43016.40053,1003.9786 L 42981.53355,1042.26428 L 42977.27267,998.07735 L 43034.34589,981.44829 Z" color="black" fill="black" stroke="none" transform="translate(-42254.904,-577.933) rotate(240.000,43016.423,1003.998)"/>
	<path d="M 12039.98866,1021.77054 L 11955.66073,1002.29165 L 11986.25009,983.85104 L 12046.63588,986.64075 Z" color="black" fill="black" stroke="none" transform="translate(-11508.413,-169.504) rotate(180.000,12040.012,1021.807)"/>
	<path d="M 20041.30917,6022.73449 L 19960.78353,6026.47166 L 19960.42998,5991.67354 L 20045.51318,5986.07717 Z" color="black" fill="black" stroke="none" transform="translate(-19305.590,-5130.513) rotate(0.000,20041.336,6022.763)"/>
	<path d="M 24025.25869,1031.81579 L 23967.47062,1003.51822 L 23970.4447,972.48046 L 24000.2312,984.85772 Z" color="black" fill="black" stroke="none" transform="translate(-23376.114,-212.186) rotate(240.000,24025.329,1031.884)"/>
	<path d="M 27013.2631,4019.67823 L 26974.23948,4043.02722 L 26994.3673,3993.95092 L 27022.88552,3972.7239 Z" color="black" fill="black" stroke="none" transform="translate(-26619.152,-3990.408) rotate(60.000,27013.290,4019.697)"/>
	<path d="M 39020.9362,5026.70993 L 38954.41251,5020.06327 L 38965.75836,4999.77102 L 39034.84181,4984.73952 Z" color="black" fill="black" stroke="none" transform="translate(-39007.050,-4169.409) rotate(180.000,39020.957,5026.742)"/>
	<path d="M 46039.02711,1042.10998 L 45995.28307,1003.47638 L 45998.63931,978.99024 L 46006.69261,965.8362 Z" color="black" fill="black" stroke="none" transform="translate(-45924.199,-153.075) rotate(120.000,46039.106,1042.220)"/>
	<path d="M 26024.58331,4005.571 L 25971.24303,4042.99936 L 25982.24502,3980.43619 L 26018.06629,3990.85656 Z" color="black" fill="black" stroke="none" transform="translate(-25670.432,-3155.580) rotate(240.000,26024.621,4005.581)"/>
	<path d="M 7034.73826,6019.98636 L 6961.04387,6021.12221 L 6995.01121,5990.00297 L 7029.03709,5977.13289 Z" color="black" fill="black" stroke="none" transform="translate(-6508.324,-5121.293) rotate(0.000,7034.772,6020.016)"/>
	<path d="M 19011.46567,2006.63883 L 18966.19123,2045.54599 L 18995.05777,1983.88913 L 19001.12833,1975.02613 Z" color="black" fill="black" stroke="none" transform="translate(-18235.117,-1462.732) rotate(60.000,19011.500,2006.649)"/>
	<path d="M 38015.91055,2042.11127 L 37999.14889,2024.13347 L 37977.57463,1968.25239 L 38020.37787,1989.17897 Z" color="black" fill="black" stroke="none" transform="translate(-37196.446,-1150.595) rotate(300.000,38015.935,2042.181)"/>
	<path d="M 19000.46081,4025.24159 L 18985.02258,4012.633 L 18970.54134,3984.95323 L 19040.30868,3991.91087 Z" color="black" fill="black" stroke="none" transform="translate(-18204.938,-3716.618) rotate(0.000,19000.461,4025.281)"/>
	<path d="M 26015.14634,1012.67816 L 25994.9196,1030.99261 L 25999.00738,990.62712 L 26028.46196,952.96958 Z" color="black" fill="black" stroke="none" transform="translate(-25782.214,-985.977) rotate(120.000,26015.174,1012.694)"/>
	<path d="M 47036.24313,2032.37325 L 46974.83972,2026.05251 L 46994.87306,1990.89155 L 47005.75581,1992.82558 Z" color="black" fill="black" stroke="none" transform="translate(-46392.896,-1861.543) rotate(180.000,47036.310,2032.410)"/>
	<path d="M 18013.26342,1005.63841 L 17973.06326,1025.87664 L 17969.11271,988.76483 L 18032.30535,985.6313 Z" color="black" fill="black" stroke="none" transform="translate(-17157.481,-129.660) rotate(180.000,18013.282,1005.663)"/>
	<path d="M 41037.65249,2006.72212 L 40961.31733,2008.34824 L 40996.6422,1988.0717 L 41006.01307,1975.8771 Z" color="black" fill="black" stroke="none" transform="translate(-40765.990,-1855.230) rotate(180.000,41037.725,2006.751)"/>
	<path d="M 3008.97609,7038.13848 L 2965.48616,7000.49233 L 2954.77589,6995.36523 L 3002.00507,6992.90625 Z" color="black" fill="black" stroke="none" transform="translate(-2461.828,-6507.567) rotate(0.000,3009.018,7038.215)"/>
	<path d="M 24.26033,3005.4644 L -45.57644,3027.838 L -5.52879,2996.42315 L 1.82367,2992.90653 Z" color="black" fill="black" stroke="none" transform="translate(-18.914,-2417.746) rotate(180.000,24.335,3005.472)"/>
	<path d="M 48022.17205,6023.48013 L 47996.49313,6011.50834 L 47961.17215,5999.28592 L 48002.03216,5984.89386 Z" color="black" fill="black" stroke="none" transform="translate(-47970.665,-5917.534) rotate(300.000,48022.240,6023.545)"/>
	<path d="M 8003.3032,2002.85079 L 7988.2258,2007.17918 L 7999.14944,1996.84711 L 8033.39301,1955.76675 Z" color="black" fill="black" stroke="none" transform="translate(-7973.150,-1998.536) rotate(180.000,8003.322,2002.876)"/>
	<path d="M 23003.22692,1019.98659 L 22971.39616,1005.58391 L 22996.60694,976.60216 L 23006.89363,955.50916 Z" color="black" fill="black" stroke="none" transform="translate(-22999.811,-730.123) rotate(60.000,23003.254,1020.032)"/>
	<path d="M 45042.97923,4001.08602 L 44986.80416,4007.27258 L 44979.64618,3971.2817 L 45009.66387,3993.73788 Z" color="black" fill="black" stroke="none" transform="translate(-44593.388,-3417.043) rotate(120.000,45043.129,4001.088)"/>
	<path d="M 48030.76499,3001.61229 L 47966.28949,3009.85353 L 47979.16577,2989.41818 L 48009.40395,2976.37036 Z" color="black" fill="black" stroke="none" transform="translate(-47810.863,-2221.220) rotate(180.000,48030.824,3001.635)"/>
	<path d="M 10033.27533,6005.32303 L 9973.09506,6002.90294 L 9966.43464,5973.38567 L 10006.1345,5996.07733 Z" color="black" fill="black" stroke="none" transform="translate(-9978.439,-6005.342) rotate(180.000,10033.424,6005.342)"/>
	<path d="M 7005.23223,3026.41955 L 6963.04477,3001.1566 L 6987.4398,2986.21024 L 7009.87873,2996.72432 Z" color="black" fill="black" stroke="none" transform="translate(-7005.255,-2311.125) rotate(60.000,7005.255,3026.468)"/>
	<path d="M 16005.22594,3010.76357 L 15981.23365,3022.61567 L 15998.04212,2998.47742 L 16040.54148,2991.11626 Z" color="black" fill="black" stroke="none" transform="translate(-15883.087,-2895.613) rotate(240.000,16005.240,3010.790)"/>
	<path d="M 45007.92776,2021.93224 L 44972.95316,2014.32058 L 44989.10133,1997.77988 L 45015.70426,1978.39722 Z" color="black" fill="black" stroke="none" transform="translate(-44804.568,-1269.216) rotate(0.000,45007.952,2021.968)"/>
	<path d="M 48025.62226,5021.91178 L 47977.12239,5010.05374 L 47982.14673,4983.89462 L 48005.2049,4997.06 Z" color="black" fill="black" stroke="none" transform="translate(-47627.311,-4807.454) rotate(300.000,48025.703,5021.962)"/>
	<path d="M 12001.51952,2017.28172 L 11985.64204,2002.29874 L 11974.2514,1987.95883 L 12003.32015,1954.42062 Z" color="black" fill="black" stroke="none" transform="translate(-11426.089,-1207.221) rotate(60.000,12001.548,2017.349)"/>
	<path d="M 48002.28768,2005.50547 L 47997.302,2005.43261 L 47998.78451,1974.94317 L 48036.40302,1960.51943 Z" color="black" fill="black" stroke="none" transform="translate(-47801.853,-1772.096) rotate(240.000,48002.302,2005.536)"/>
	<path d="M 14006.85689,1034.35115 L 13996.59467,1032.97328 L 13996.16745,970.42543 L 14023.23229,986.95241 Z" color="black" fill="black" stroke="none" transform="translate(-13117.617,-390.103) rotate(180.000,14006.877,1034.384)"/>
	<path d="M 42001.80774,1038.45515 L 41988.57377,1008.0943 L 41986.70919,980.42603 L 42014.22756,985.32809 Z" color="black" fill="black" stroke="none" transform="translate(-41416.074,-441.207) rotate(240.000,42001.816,1038.550)"/>
	<path d="M 46003.30655,5008.49139 L 45997.81172,5048.9839 L 45982.65596,4985.73402 L 46003.52488,4978.8995 Z" color="black" fill="black" stroke="none" transform="translate(-45613.648,-4298.903) rotate(120.000,46003.337,5008.494)"/>
	<path d="M 16046.65696,2013.61819 L 15997.97814,2011.3731 L 15998.65619,1985.27827 L 16011.14045,1993.29656 Z" color="black" fill="black" stroke="none" transform="translate(-15996.010,-1563.408) rotate(60.000,16046.780,2013.654)"/>
	<path d="M 44044.12888,3001.11875 L 43960.96588,3001.99672 L 43980.86979,2998.31987 L 44028.1258,2990.75287 Z" color="black" fill="black" stroke="none" transform="translate(-43565.841,-3000.269) rotate(180.000,44044.229,3001.148)"/>
	<path d="M 25002.59476,4038.8153 L 24993.29743,4044.07538 L 24996.99808,3976.75543 L 25000.30769,3980.44412 Z" color="black" fill="black" stroke="none" transform="translate(-24946.767,-3280.510) rotate(60.000,25002.625,4038.832)"/>
</svg>
