<?xml version="1.0" ?>
<svg width="900" height="900" viewBox="0 0 900 900">
	<path d="M 47000,4000 L 47004.6423,4135.77023 L 47134.60923,4132.28895 L 47155.49696,4073.10705 L 47155.49696,4035.97389 L 47133.44996,4016.24543 L 47096.31506,4016.24543 L 47083.55092,3997.67972 L 47054.5396,3977.95126 L 47025.53002,3977.95126 L 47000,4000 Z" color="black" fill="black" stroke="none" transform="translate(-46999.970,-3977.921) rotate(0.000,46999.970,3999.987)"/>
	<path d="M 5000,1000 L 4998.25935,1058.02089 L 4975.63099,1071.36641 L 4945.4604,1074.26632 L 4925.15231,1087.03221 L 4920.51,1113.7215 L 4881.05657,1114.30113 L 4881.05657,1067.30374 L 4881.05657,1002.89992 L 4909.48651,997.67798 L 4904.84421,961.70583 L 4964.91384,959.39947 L 4969.82941,997.67798 L 5000,1000 Z" color="black" fill="black" stroke="none" transform="translate(-4871.168,-750.159) rotate(270.000,4909.453,997.654)"/>
	<path d="M 3000,3000 L 2981.43255,3022.04874 L 2983.75283,3071.94604 L 2998.83899,3083.55092 L 3067.30374,3071.94604 L 3146.2141,3078.90861 L 3162.45953,3041.77546 L 3128.80766,3005.80156 L 3093.99478,2990.71715 L 3000,3000 Z" color="black" fill="black" stroke="none" transform="translate(-2850.396,-2767.577) rotate(270.000,2999.985,2999.971)"/>
	<path d="M 36000,2000 L 36044.09573,1993.6188 L 36076.58834,2029.59095 L 36058.02089,2055.12098 L 36048.73804,2079.49 L 35885.11749,2073.68843 L 35888.59878,1992.45779 L 36000,2000 Z" color="black" fill="black" stroke="none" transform="translate(-35880.572,-1718.918) rotate(0.000,35999.999,1999.970)"/>
	<path d="M 43000,5000 L 43022.62837,4993.61706 L 43025.52828,4984.3342 L 43049.89731,4991.87642 L 43050.47868,5005.22193 L 43070.78503,5020.88773 L 43075.42733,5071.94604 L 43082.96954,5099.21671 L 43073.10705,5104.43865 L 43070.20539,5117.20278 L 43003.48129,5118.94343 L 42994.1967,5102.11837 L 42997.09834,5080.06963 L 42980.27154,5082.3899 L 42977.37163,5068.46476 L 42996.51871,5059.1819 L 43000,5000 Z" color="black" fill="black" stroke="none" transform="translate(-42820.724,-4641.108) rotate(270.000,42997.063,5080.105)"/>
	<path d="M 20000,5000 L 19993.03743,5118.36379 L 20004.64056,5132.28895 L 20059.1819,5135.77023 L 20071.94604,5110.24195 L 20073.10705,5084.71193 L 20063.82245,5071.94778 L 20058.02089,5053.38033 L 20080.06963,5040.61619 L 20091.67276,5020.88773 L 20070.78503,5002.32202 L 20000,5000 Z" color="black" fill="black" stroke="none" transform="translate(-19999.972,-4491.049) rotate(270.000,19999.972,4999.969)"/>
	<path d="M 12000,5000 L 12006.96257,4984.91384 L 12056.86162,4981.43255 L 12080.06963,4995.3577 L 12098.63708,5012.76415 L 12112.56223,5040.61445 L 12112.56223,5083.55092 L 12017.40644,5087.03221 L 12000,5075.42733 L 12000,5000 Z" color="black" fill="black" stroke="none" transform="translate(-11849.757,-4437.649) rotate(270.000,11999.970,4999.993)"/>
	<path d="M 0,2000 L 8.12184,2053.38033 L 5.80156,2118.36379 L 30.17059,2142.73281 L 62.66318,2140.41253 L 62.66318,2062.66318 L 73.10705,2017.40644 L 60.34116,2016.24543 L 52.21932,1988.39513 L 0,2000 Z" color="black" fill="black" stroke="none" transform="translate(11.636,-1374.905) rotate(270.000,-0.034,1999.977)"/>
	<path d="M 35000,2000 L 35008.12184,2074.26806 L 35012.76415,2100.95735 L 34995.3577,2110.24021 L 34960.54482,2107.91993 L 34916.44908,2076.58834 L 34918.76936,2012.76415 L 34976.79025,1995.3577 L 35000,2000 Z" color="black" fill="black" stroke="none" transform="translate(-34769.014,-1321.484) rotate(90.000,35000.027,1999.975)"/>
	<path d="M 39000,2000 L 38995.35944,2098.63534 L 38912.96779,2100.95735 L 38907.16623,2080.06963 L 38928.05396,2069.62576 L 38928.05396,2053.37859 L 38917.6101,2038.29417 L 38922.25239,2009.28285 L 38918.77111,1984.91384 L 38980.27328,1988.39513 L 39000,2000 Z" color="black" fill="black" stroke="none" transform="translate(-38892.172,-1284.476) rotate(90.000,39000.031,1999.983)"/>
	<path d="M 34000,2000 L 34026.68929,1988.39687 L 34054.5396,1976.792 L 34095.15405,1983.75457 L 34109.0792,2002.32202 L 34112.56049,2048.73804 L 34098.63534,2062.66318 L 34084.71018,2062.66318 L 34073.10705,2055.70061 L 34051.05831,2058.02263 L 34029.00958,2068.46649 L 33997.67798,2054.54134 L 34000,2000 Z" color="black" fill="black" stroke="none" transform="translate(-33773.434,-1246.008) rotate(180.000,33999.971,1999.980)"/>
	<path d="M 27000,2000 L 27000,2014.79548 L 27006.96257,2052.21932 L 27000,2094.8651 L 26926.89295,2095.73543 L 26900.78329,2080.06963 L 26899.04265,2033.94256 L 26908.61619,2014.79548 L 26908.61619,1998.25935 L 27000,2000 Z" color="black" fill="black" stroke="none" transform="translate(-26899.015,-1284.785) rotate(0.000,27000.030,1999.971)"/>
	<path d="M 4000,3000 L 3998.84073,3048.73804 L 3914.1288,3054.5396 L 3888.59878,3076.58834 L 3878.15492,3073.10705 L 3878.15492,2991.87642 L 3945.4604,2993.03743 L 4000,3000 Z" color="black" fill="black" stroke="none" transform="translate(-3884.922,-2169.354) rotate(180.000,4000.031,2999.974)"/>
	<path d="M 19000,2000 L 18983.46388,1986.07484 L 18984.3342,1938.20714 L 19102.698,1926.02263 L 19122.71541,1927.76327 L 19119.23412,1965.18712 L 19100.95735,1992.1671 L 19056.57093,1993.03743 L 19000,2000 Z" color="black" fill="black" stroke="none" transform="translate(-18722.409,-1627.879) rotate(270.000,18999.991,2000.031)"/>
	<path d="M 14000,5000 L 13975.63099,5029.01131 L 13977.953,5074.26806 L 13967.50914,5093.99478 L 13984.91558,5105.59966 L 14044.09747,5107.91993 L 14056.86162,5092.83377 L 14049.89904,5027.8503 L 14000,5000 Z" color="black" fill="black" stroke="none" transform="translate(-13892.010,-4163.836) rotate(90.000,13999.993,4999.962)"/>
	<path d="M 1000,2000 L 989.55613,2016.53612 L 991.29678,2054.83029 L 1007.8329,2053.08965 L 1016.53612,2077.45866 L 1054.83029,2088.77285 L 1070.49608,2066.14447 L 1087.03221,2055.70061 L 1085.29156,2014.79548 L 1071.36641,2000 L 1057.44125,1996.51871 L 1046.99739,1993.03743 L 1000,2000 Z" color="black" fill="black" stroke="none" transform="translate(-791.783,-1993.011) rotate(0.000,999.982,1999.972)"/>
	<path d="M 9000,2000 L 8996.51871,2080.06963 L 8980.85292,2088.77285 L 8933.85553,2053.08965 L 8907.74586,2047.86771 L 8907.74586,1998.25935 L 8945.16971,1990.42646 L 8989.55613,1987.81549 L 9000,2000 Z" color="black" fill="black" stroke="none" transform="translate(-8706.142,-1099.989) rotate(90.000,9000.030,1999.989)"/>
	<path d="M 32000,2000 L 32033.07224,2003.48129 L 32034.81288,2137.51088 L 32053.08965,2139.25152 L 32055.70061,2150.56571 L 32041.77546,2155.78765 L 32026.97999,2156.65797 L 32011.31419,2129.67799 L 32006.96257,2088.77285 L 31996.51871,2073.10705 L 32000,2000 Z" color="black" fill="black" stroke="none" transform="translate(-31771.908,-1908.219) rotate(0.000,31999.972,1999.967)"/>
	<path d="M 16000,5000 L 15901.36292,4996.51871 L 15928.05222,4916.44908 L 15939.65709,4908.3255 L 15973.30897,4924.57093 L 15973.30897,4951.26196 L 15970.98869,4961.70583 L 15998.83899,4974.46998 L 16000,5000 Z" color="black" fill="black" stroke="none" transform="translate(-15703.281,-4558.726) rotate(270.000,15971.023,4961.689)"/>
	<path d="M 33000,2000 L 33002.32028,2100.95735 L 32961.70583,2098.63708 L 32960.54482,2091.6745 L 32939.65709,2091.6745 L 32939.65709,2077.74935 L 32923.41166,2073.10705 L 32914.1288,2064.98347 L 32916.44908,2009.28285 L 32936.1758,2000 L 33000,2000 Z" color="black" fill="black" stroke="none" transform="translate(-32689.956,-1448.140) rotate(0.000,32939.627,2077.772)"/>
	<path d="M 4000,2000 L 4002.61097,2094.8651 L 3993.03743,2113.14186 L 3954.74325,2113.14186 L 3932.11488,2096.60574 L 3926.02263,2056.57093 L 3925.15231,2009.57354 L 3980.85292,2005.22193 L 4000,2000 Z" color="black" fill="black" stroke="none" transform="translate(-3690.865,-1347.296) rotate(0.000,4000.029,1999.961)"/>
	<path d="M 44000,4000 L 44002.32028,4082.3899 L 43988.39513,4095.15405 L 43911.80679,4092.83377 L 43972.1497,3998.83899 L 44000,4000 Z" color="black" fill="black" stroke="none" transform="translate(-43763.147,-3525.471) rotate(270.000,44000.029,3999.971)"/>
	<path d="M 41000,1000 L 41014.79548,977.37163 L 41071.36641,992.1671 L 41073.10705,1013.05483 L 41077.45866,1019.14708 L 41077.45866,1062.66318 L 41050.47868,1082.68059 L 40996.51871,1083.55092 L 41000,1000 Z" color="black" fill="black" stroke="none" transform="translate(-40660.674,-840.571) rotate(180.000,40999.970,999.990)"/>
	<path d="M 8000,3000 L 8000.57964,3049.89731 L 8078.90861,3052.21932 L 8129.96867,3025.52828 L 8119.52481,2988.39513 L 8078.90861,3000 L 8000,3000 Z" color="black" fill="black" stroke="none" transform="translate(-7672.402,-2755.857) rotate(90.000,7999.970,2999.970)"/>
	<path d="M 2000,6000 L 1998.25935,5921.09139 L 1976.21236,5909.48651 L 1962.28721,5914.1288 L 1956.4839,5923.41166 L 1922.83202,5926.31331 L 1919.93037,5945.4604 L 1914.70844,5945.4604 L 1911.80853,5986.65623 L 1922.25239,5996.51871 L 1923.99304,6002.90166 L 2000,6000 Z" color="black" fill="black" stroke="none" transform="translate(-1598.053,-5101.084) rotate(270.000,1919.905,5945.430)"/>
	<path d="M 42000,5000 L 42052.21932,4995.3577 L 42053.37859,5080.06963 L 42041.77546,5140.99217 L 42009.86249,5144.47346 L 42000,5000 Z" color="black" fill="black" stroke="none" transform="translate(-41676.628,-4817.801) rotate(0.000,41999.968,4999.973)"/>
	<path d="M 45000,5000 L 45004.6423,5029.59095 L 44912.96779,5031.3316 L 44906.58485,5022.62837 L 44906.00522,4950.68059 L 44933.85553,4958.22454 L 44968.08877,4969.24804 L 44982.01393,4997.09834 L 45000,5000 Z" color="black" fill="black" stroke="none" transform="translate(-44648.082,-4621.691) rotate(270.000,45000.026,4999.974)"/>
	<path d="M 21000,2000 L 21003.48129,2076.58834 L 21013.92516,2087.90252 L 21071.36641,2080.06963 L 21083.55092,2058.31157 L 21080.93995,1993.90775 L 21000,2000 Z" color="black" fill="black" stroke="none" transform="translate(-20690.793,-1346.886) rotate(0.000,20999.969,1999.972)"/>
	<path d="M 5000,3000 L 5002.32028,3075.42907 L 4987.23412,3106.76066 L 4945.45866,3106.76066 L 4940.8181,2980.27328 L 5000,3000 Z" color="black" fill="black" stroke="none" transform="translate(-4609.776,-2458.826) rotate(0.000,5000.029,2999.978)"/>
	<path d="M 45000,1000 L 45021.75805,1026.97999 L 45042.64578,1032.20191 L 45083.55092,1067.01479 L 45079.19931,981.72324 L 45037.42385,977.37163 L 45000,1000 Z" color="black" fill="black" stroke="none" transform="translate(-44706.391,-977.341) rotate(0.000,44999.955,999.992)"/>
	<path d="M 7000,2000 L 6993.90775,2081.81027 L 7008.70322,2097.47607 L 7026.10966,2098.34639 L 7040.90514,2089.64317 L 7069.62576,2052.21932 L 7069.62576,2028.72063 L 7048.73804,2000.87032 L 7000,2000 Z" color="black" fill="black" stroke="none" transform="translate(-6580.995,-1821.669) rotate(180.000,6999.972,1999.969)"/>
	<path d="M 41000,2000 L 41081.22889,2002.32028 L 41088.19147,2073.10705 L 41008.12184,2080.06963 L 40996.51871,2073.10705 L 41000,2000 Z" color="black" fill="black" stroke="none" transform="translate(-40631.132,-1626.927) rotate(270.000,40999.971,1999.969)"/>
	<path d="M 32000,5000 L 31997.67972,5054.54134 L 32009.28459,5068.46649 L 32102.11837,5069.62576 L 32083.55092,5040.61619 L 32034.81288,5001.16101 L 32000,5000 Z" color="black" fill="black" stroke="none" transform="translate(-31553.755,-4819.835) rotate(90.000,31999.971,4999.969)"/>
	<path d="M 22000,2000 L 22002.61097,2069.62576 L 22030.46127,2079.19931 L 22090.51349,2076.58834 L 22089.64317,1999.12968 L 22000,2000 Z" color="black" fill="black" stroke="none" transform="translate(-21544.779,-1278.180) rotate(90.000,21999.969,1999.970)"/>
	<path d="M 46000,4000 L 46003.48129,4092.83551 L 45940.8181,4092.83551 L 45931.53524,4081.23064 L 45937.33682,4061.50391 L 45935.01653,4032.49261 L 45973.31071,3997.67972 L 46000,4000 Z" color="black" fill="black" stroke="none" transform="translate(-45652.335,-3527.210) rotate(270.000,46000.029,3999.972)"/>
	<path d="M 46000,5000 L 46002.89992,5069.62576 L 45937.91645,5067.88512 L 45922.25065,5056.28025 L 45919.93037,4997.67798 L 45930.37424,4988.97476 L 45987.23412,4987.23412 L 46000,5000 Z" color="black" fill="black" stroke="none" transform="translate(-45552.609,-4102.888) rotate(90.000,46000.029,4999.987)"/>
	<path d="M 38000,4000 L 38005.8033,4052.21932 L 38077.74935,4060.34291 L 38095.15579,4033.65361 L 38088.19321,4003.48129 L 38073.10705,3990.71715 L 38035.97389,3990.71715 L 38000,4000 Z" color="black" fill="black" stroke="none" transform="translate(-37607.931,-3529.021) rotate(270.000,37999.967,3999.977)"/>
	<path d="M 3000,2000 L 3005.22193,2038.29417 L 3020.88773,2046.99739 L 3033.94256,2047.86771 L 3063.53351,2065.27415 L 3084.42123,2062.66318 L 3093.99478,2053.95996 L 3091.38381,2017.40644 L 3079.19931,2013.92516 L 3066.14447,1995.64839 L 3000,2000 Z" color="black" fill="black" stroke="none" transform="translate(-2546.983,-1436.704) rotate(90.000,2999.966,1999.972)"/>
	<path d="M 17000,2000 L 17057.44125,1997.38903 L 17068.75544,1990.42646 L 17059.1819,1931.24456 L 17028.72063,1912.09748 L 16996.51871,1919.06005 L 17000,2000 Z" color="black" fill="black" stroke="none" transform="translate(-16549.509,-2000.031) rotate(180.000,16999.971,2000.031)"/>
	<path d="M 41000,5000 L 40998.84073,5030.17059 L 41026.69103,5028.42994 L 41033.65361,5020.88773 L 41048.1584,5022.62837 L 41053.95996,5029.59095 L 41091.09486,5025.52828 L 41099.21671,5032.49086 L 41110.82159,5033.65187 L 41123.58573,5023.78764 L 41119.52481,4998.83899 L 41103.85901,4983.17319 L 41006.38294,4989.55613 L 41000,5000 Z" color="black" fill="black" stroke="none" transform="translate(-40544.412,-4673.276) rotate(270.000,40999.970,4999.991)"/>
	<path d="M 23000,2000 L 22999.12968,2032.20191 L 23016.53612,2049.60835 L 23117.49348,2049.60835 L 23120.10444,1998.25935 L 23000,2000 Z" color="black" fill="black" stroke="none" transform="translate(-22505.637,-1554.677) rotate(90.000,22999.971,1999.970)"/>
	<path d="M 38000,2000 L 38004.6423,2066.14447 L 37924.57267,2071.94604 L 37918.76936,2061.50218 L 37921.09139,2027.8503 L 37940.8181,2025.52828 L 37944.29939,2000 L 38000,2000 Z" color="black" fill="black" stroke="none" transform="translate(-37492.034,-1845.021) rotate(270.000,37940.792,2025.501)"/>
	<path d="M 14000,2000 L 14000,2056.57093 L 14008.70322,2074.84769 L 14032.20191,2071.36641 L 14072.23673,2075.71802 L 14073.10705,2022.62837 L 14061.79286,1991.29678 L 14000,2000 Z" color="black" fill="black" stroke="none" transform="translate(-13570.199,-1278.184) rotate(270.000,13999.970,1999.974)"/>
	<path d="M 42000,4000 L 41998.83899,4071.94604 L 42008.12358,4085.8712 L 42068.46476,4087.03221 L 42059.1819,4002.32028 L 42000,4000 Z" color="black" fill="black" stroke="none" transform="translate(-41485.759,-3585.771) rotate(180.000,41999.970,3999.969)"/>
	<path d="M 8000,5000 L 7995.3577,5011.60313 L 8003.48129,5060.34116 L 8027.8503,5060.34116 L 8061.50218,5049.89731 L 8080.06963,4998.83899 L 8064.98347,4990.71541 L 8000,5000 Z" color="black" fill="black" stroke="none" transform="translate(-7539.580,-4919.846) rotate(270.000,7999.979,4999.973)"/>
	<path d="M 10000,5000 L 9997.67798,5033.65361 L 10008.12184,5052.21932 L 10034.81288,5069.62576 L 10064.98347,5067.30549 L 10076.58834,5055.70061 L 10071.94604,4995.35944 L 10000,5000 Z" color="black" fill="black" stroke="none" transform="translate(-9541.907,-4359.230) rotate(270.000,9999.972,4999.972)"/>
	<path d="M 40000,4000 L 40026.68929,4026.68929 L 40027.8503,4045.25675 L 40003.48129,4063.8242 L 39962.86684,4066.14447 L 39940.8181,4041.77546 L 39939.65709,4004.6423 L 40000,4000 Z" color="black" fill="black" stroke="none" transform="translate(-39544.560,-3251.218) rotate(270.000,40000.011,3999.969)"/>
	<path d="M 40000,2000 L 39940.8181,1998.84073 L 39932.69451,1915.28982 L 39988.39513,1915.28982 L 40001.15927,1938.49782 L 40000,2000 Z" color="black" fill="black" stroke="none" transform="translate(-39475.997,-1106.138) rotate(0.000,40000.029,2000.031)"/>
	<path d="M 23000,5000 L 23008.12184,5070.78677 L 23012.76415,5077.74935 L 23066.14447,5076.58834 L 23054.5396,5063.8242 L 23074.26632,5000 L 23000,5000 Z" color="black" fill="black" stroke="none" transform="translate(-22922.159,-4642.574) rotate(90.000,22999.966,4999.970)"/>
	<path d="M 17000,5000 L 17026.68929,5000 L 17034.81288,5026.68929 L 17055.70061,5031.3316 L 17053.37859,5083.55092 L 16988.39513,5082.3899 L 17000,5000 Z" color="black" fill="black" stroke="none" transform="translate(-16809.439,-4158.727) rotate(90.000,16999.974,4999.970)"/>
	<path d="M 21000,5000 L 20995.35944,5076.58834 L 20930.37424,5074.26632 L 20930.37424,5062.66318 L 20966.34813,4996.51871 L 21000,5000 Z" color="black" fill="black" stroke="none" transform="translate(-20451.200,-4778.815) rotate(0.000,21000.032,4999.973)"/>
	<path d="M 20000,3000 L 20000,3035.97389 L 20019.72672,3046.41775 L 20037.13316,3067.30549 L 20055.70061,3067.30549 L 20074.26806,3045.25675 L 20078.90861,3026.68929 L 20075.42733,2997.67972 L 20000,3000 Z" color="black" fill="black" stroke="none" transform="translate(-19507.606,-2842.722) rotate(270.000,19999.970,2999.971)"/>
	<path d="M 40000,5000 L 39998.25935,5024.94865 L 40036.55352,5053.37859 L 40070.20539,5031.3316 L 40092.25414,5027.8503 L 40099.79634,5001.74065 L 40000,5000 Z" color="black" fill="black" stroke="none" transform="translate(-39453.706,-4593.541) rotate(90.000,39999.972,4999.970)"/>
	<path d="M 9000,3000 L 9005.80156,2986.07484 L 9033.65187,3000 L 9082.3899,3002.32028 L 9071.94604,3013.92516 L 9051.05831,3026.68929 L 9048.73804,3049.89731 L 8997.67798,3039.45344 L 9000,3000 Z" color="black" fill="black" stroke="none" transform="translate(-8454.112,-2493.624) rotate(90.000,8999.970,2999.993)"/>
	<path d="M 27000,4000 L 26997.67798,4102.11837 L 26947.78068,4100.95735 L 26947.78068,4000 L 27000,4000 Z" color="black" fill="black" stroke="none" transform="translate(-26490.489,-3267.548) rotate(180.000,27000.031,3999.970)"/>
	<path d="M 10000,2000 L 9928.63359,1999.12968 L 9932.11488,1943.42907 L 9953.87293,1945.16971 L 9961.70583,1932.11488 L 9978.24195,1929.50392 L 10003.48129,1962.57615 L 10000,2000 Z" color="black" fill="black" stroke="none" transform="translate(-9429.210,-1781.661) rotate(0.000,10000.027,2000.030)"/>
	<path d="M 3000,4000 L 3005.80156,4018.56745 L 2995.43951,4042.67363 L 2916.44908,4033.65187 L 2885.11749,4027.8503 L 2925.73194,4015.08616 L 2974.46998,4012.76415 L 3000,4000 Z" color="black" fill="black" stroke="none" transform="translate(-2994.207,-3447.681) rotate(180.000,3000.018,3999.957)"/>
	<path d="M 44000,1000 L 44046.99739,999.12968 L 44052.21932,986.07484 L 44068.75544,986.07484 L 44067.01479,937.33682 L 44030.46127,926.02263 L 44013.92516,952.13229 L 44006.96257,979.9826 L 44000,1000 Z" color="black" fill="black" stroke="none" transform="translate(-43486.530,-189.069) rotate(0.000,43999.958,1000.031)"/>
	<path d="M 37000,3000 L 36991.87816,3006.96257 L 36993.03743,3046.41775 L 36997.67972,3062.66318 L 37056.86162,3061.50391 L 37068.46649,3029.01131 L 37068.46649,2996.51871 L 37000,3000 Z" color="black" fill="black" stroke="none" transform="translate(-36422.672,-2694.796) rotate(90.000,36999.988,2999.971)"/>
	<path d="M 18000,3000 L 18052.21932,2995.3577 L 18051.06006,2964.02611 L 18034.81288,2944.29939 L 18029.01131,2914.1288 L 17997.67972,2918.76936 L 17994.19844,2955.90427 L 18000,3000 Z" color="black" fill="black" stroke="none" transform="translate(-17429.687,-3000.032) rotate(180.000,17999.974,3000.032)"/>
	<path d="M 35000,4000 L 35000,4082.3899 L 34954.74325,4084.71193 L 34944.29939,4030.17059 L 34967.50739,3996.51871 L 35000,4000 Z" color="black" fill="black" stroke="none" transform="translate(-34419.295,-3186.170) rotate(0.000,35000.030,3999.973)"/>
	<path d="M 11000,2000 L 10998.25935,2040.90514 L 10948.651,2058.31157 L 10920.80069,2046.99739 L 10922.54134,2014.79548 L 10930.37424,1996.51871 L 11000,2000 Z" color="black" fill="black" stroke="none" transform="translate(-10454.723,-1446.174) rotate(270.000,11000.031,1999.972)"/>
	<path d="M 44000,5000 L 44027.8503,4999.42036 L 44031.3316,4990.71715 L 44087.61358,4986.07484 L 44100.37772,4996.51871 L 44119.52481,4993.6188 L 44138.67189,4997.67972 L 44127.06701,5012.18451 L 44108.50131,5015.08616 L 43999.42036,5018.56745 L 43991.29678,5007.54395 L 44000,5000 Z" color="black" fill="black" stroke="none" transform="translate(-43418.598,-4824.768) rotate(270.000,43999.989,4999.970)"/>
	<path d="M 13000,3000 L 13021.46736,3027.8503 L 13040.03482,3024.36901 L 13043.5161,3013.92516 L 13041.19408,2939.65709 L 13026.10966,2921.08964 L 13019.14708,2919.93037 L 13016.82506,2938.49609 L 13000.57964,2952.42123 L 13000,3000 Z" color="black" fill="black" stroke="none" transform="translate(-12443.665,-2722.095) rotate(0.000,12999.970,3000.010)"/>
	<path d="M 15000,3000 L 14986.07484,2994.77807 L 14984.91558,2969.24804 L 14995.35944,2959.96518 L 15100.95735,2964.60574 L 15098.63708,2999.41862 L 15000,3000 Z" color="black" fill="black" stroke="none" transform="translate(-14453.832,-2611.238) rotate(90.000,14999.995,3000.030)"/>
	<path d="M 48000,4000 L 48002.32028,4067.30374 L 48068.46476,4067.30374 L 48068.46476,4058.02089 L 48047.57702,4045.25675 L 48033.65187,4003.48129 L 48000,4000 Z" color="black" fill="black" stroke="none" transform="translate(-47808.759,-3932.599) rotate(180.000,47999.969,3999.967)"/>
	<path d="M 16000,4000 L 16000,4054.5396 L 15990.71715,4062.66318 L 15973.31071,4059.1819 L 15930.37424,4032.49261 L 15926.89295,4005.80156 L 16000,4000 Z" color="black" fill="black" stroke="none" transform="translate(-15382.814,-3445.433) rotate(90.000,16000.030,3999.968)"/>
	<path d="M 22000,5000 L 21995.3577,5083.55092 L 21976.792,5083.55092 L 21946.61967,5035.97389 L 21947.78068,4998.84073 L 22000,5000 Z" color="black" fill="black" stroke="none" transform="translate(-21384.777,-4366.420) rotate(0.000,22000.032,4999.971)"/>
	<path d="M 18000,5000 L 18029.01131,5033.65361 L 18026.68929,5088.19321 L 17980.27328,5085.87293 L 17977.95126,5003.48129 L 18000,5000 Z" color="black" fill="black" stroke="none" transform="translate(-17390.909,-4606.801) rotate(180.000,18000.012,4999.968)"/>
	<path d="M 46000,3000 L 46023.20975,2974.47172 L 46058.02263,2976.792 L 46067.30549,2984.91558 L 46067.30549,3031.3316 L 46063.8242,3040.61619 L 46002.32202,3035.97389 L 46000,3000 Z" color="black" fill="black" stroke="none" transform="translate(-45378.615,-2167.355) rotate(90.000,45999.969,2999.989)"/>
	<path d="M 0,3000 L 0,3032.49261 L -9.28285,3049.89904 L 6.96257,3059.1819 L 51.05831,3061.50391 L 53.38033,3017.40644 L 41.77546,3011.60487 L 41.77546,2990.71715 L 9.28285,2990.71715 L 0,3000 Z" color="black" fill="black" stroke="none" transform="translate(592.578,-2597.521) rotate(0.000,-0.030,2999.988)"/>
	<path d="M 40000,3000 L 40016.24543,3015.08616 L 40013.92516,3040.61445 L 39997.67972,3048.73804 L 39932.69451,3045.25675 L 39925.73194,3035.97389 L 39958.22454,3000 L 40000,3000 Z" color="black" fill="black" stroke="none" transform="translate(-39404.824,-2983.706) rotate(270.000,40000.012,2999.970)"/>
	<path d="M 9000,5000 L 8995.35944,5006.96257 L 9000,5052.21932 L 9032.49261,5064.98347 L 9062.66318,5051.05831 L 9059.1819,5008.12184 L 9051.06006,5000 L 9000,5000 Z" color="black" fill="black" stroke="none" transform="translate(-8417.286,-4282.812) rotate(0.000,8999.984,4999.970)"/>
	<path d="M 4000,5000 L 4012.76588,5052.21932 L 4054.54134,5049.89731 L 4074.26806,5018.56571 L 4074.26806,5002.32028 L 4047.57877,4994.1967 L 4004.6423,5001.15927 L 4000,5000 Z" color="black" fill="black" stroke="none" transform="translate(-3400.177,-4756.759) rotate(270.000,3999.959,4999.959)"/>
	<path d="M 15000,2000 L 15001.74065,2051.349 L 15013.92516,2059.1819 L 15059.1819,2057.44125 L 15058.31157,2026.97999 L 15068.75544,2019.14708 L 15067.01479,1996.51871 L 15000,2000 Z" color="black" fill="black" stroke="none" transform="translate(-14399.462,-1850.913) rotate(270.000,14999.969,1999.972)"/>
	<path d="M 28000,4000 L 28060.34291,3996.51871 L 28062.66318,4062.66318 L 28002.32028,4063.8242 L 28000,4000 Z" color="black" fill="black" stroke="none" transform="translate(-27398.099,-3444.552) rotate(0.000,27999.969,3999.972)"/>
	<path d="M 11000,5000 L 11003.48129,5015.08616 L 11032.49086,5027.8503 L 11132.28895,5027.8503 L 11132.28895,4996.51871 L 11000,5000 Z" color="black" fill="black" stroke="none" transform="translate(-10341.660,-4770.870) rotate(90.000,10999.963,4999.971)"/>
	<path d="M 7000,5000 L 7001.16101,5070.78677 L 7015.08616,5068.46476 L 7023.20975,5049.89904 L 7055.70061,5031.3316 L 7033.65361,4996.51871 L 7000,5000 Z" color="black" fill="black" stroke="none" transform="translate(-6342.166,-4218.469) rotate(90.000,6999.970,4999.973)"/>
	<path d="M 25000,5000 L 25076.58834,4996.51871 L 25077.74935,5031.3316 L 25068.46649,5045.25675 L 25059.1819,5045.25675 L 25052.21932,5041.77546 L 25041.77546,5048.73804 L 25013.92516,5047.57877 L 24998.84073,5031.3316 L 25000,5000 Z" color="black" fill="black" stroke="none" transform="translate(-24383.777,-4458.298) rotate(270.000,24999.971,4999.971)"/>
	<path d="M 29000,4000 L 29001.16101,4055.70061 L 29070.78677,4052.21932 L 29071.94778,3998.83899 L 29000,4000 Z" color="black" fill="black" stroke="none" transform="translate(-28329.711,-3353.971) rotate(90.000,28999.969,3999.970)"/>
	<path d="M 37000,2000 L 37001.15927,2034.81288 L 37060.34116,2041.77546 L 37069.62576,2025.52828 L 37097.47607,2018.56571 L 37089.35248,2005.80156 L 37000,2000 Z" color="black" fill="black" stroke="none" transform="translate(-36317.271,-1983.405) rotate(90.000,36999.969,1999.968)"/>
	<path d="M 17000,3000 L 16997.67972,3040.61445 L 16987.23585,3053.38033 L 16943.14012,3032.49261 L 16937.33682,3004.6423 L 16952.42298,2988.39513 L 17000,3000 Z" color="black" fill="black" stroke="none" transform="translate(-16737.182,-2777.241) rotate(180.000,17000.031,2999.977)"/>
	<path d="M 31000,5000 L 31010.44387,5041.77546 L 31020.88773,5051.05831 L 31060.34291,5051.05831 L 31073.10705,5029.01131 L 31073.10705,5011.60487 L 31046.41775,4995.3577 L 31000,5000 Z" color="black" fill="black" stroke="none" transform="translate(-30311.126,-4645.287) rotate(90.000,30999.962,4999.974)"/>
	<path d="M 13000,5000 L 13002.32202,5048.73804 L 13020.88773,5052.21932 L 13026.69103,5058.02089 L 13056.86162,5056.86162 L 13062.66318,5033.65187 L 13053.38033,5032.49261 L 13053.38033,5008.12358 L 13026.69103,4994.19844 L 13000,5000 Z" color="black" fill="black" stroke="none" transform="translate(-12298.109,-4117.516) rotate(180.000,12999.969,4999.976)"/>
	<path d="M 18000,2000 L 18057.44125,1990.42646 L 18057.44125,2040.03482 L 18050.47868,2058.31157 L 18017.40644,2060.05222 L 18000,2040.03482 L 18000,2000 Z" color="black" fill="black" stroke="none" transform="translate(-17355.051,-1277.559) rotate(0.000,17999.970,1999.975)"/>
	<path d="M 0,5000 L 0.57964,5034.23325 L -57.44125,5031.91123 L -56.86162,5022.62837 L -73.10705,5014.50479 L -76.58834,4994.77807 L -64.40383,4983.17319 L -45.25675,4991.87642 L 0,5000 Z" color="black" fill="black" stroke="none" transform="translate(719.101,-4876.362) rotate(90.000,-56.893,5022.646)"/>
	<path d="M 3000,6000 L 2953.58225,5997.67972 L 2944.29939,5968.08877 L 2946.61967,5950.10269 L 2960.54482,5951.26196 L 2964.02611,5932.69626 L 2987.81549,5933.27589 L 2995.3577,5958.22454 L 3002.32028,5958.22454 L 3000,6000 Z" color="black" fill="black" stroke="none" transform="translate(-2262.482,-5474.631) rotate(180.000,2960.520,5951.230)"/>
	<path d="M 10000,1000 L 9985.49521,1002.90166 L 9972.1497,994.77807 L 9921.67102,994.77807 L 9919.93037,972.72933 L 9936.1758,969.24804 L 9935.01653,958.22454 L 9998.83899,954.16362 L 10000,1000 Z" color="black" fill="black" stroke="none" transform="translate(-9243.101,-750.153) rotate(90.000,9936.143,969.224)"/>
	<path d="M 36000,5000 L 35998.83899,5047.57702 L 36003.48129,5058.02089 L 36033.65187,5058.60053 L 36048.15666,5044.09573 L 36049.31767,5026.10966 L 36048.73804,5004.06093 L 36037.71279,4982.59356 L 36004.06093,4984.3342 L 36000,5000 Z" color="black" fill="black" stroke="none" transform="translate(-35335.494,-4487.800) rotate(0.000,35999.970,4999.996)"/>
	<path d="M 12000,3000 L 12005.8033,3032.49261 L 12063.8242,3034.81288 L 12064.9852,3008.12358 L 12048.73804,2976.792 L 12006.96257,2987.23585 L 12000,3000 Z" color="black" fill="black" stroke="none" transform="translate(-11316.605,-2652.731) rotate(270.000,11999.969,2999.995)"/>
	<path d="M 30000,2000 L 30031.3316,1993.90775 L 30041.77546,2003.48129 L 30039.16449,2075.71802 L 30012.18451,2082.68059 L 30003.48129,2069.62576 L 30000,2000 Z" color="black" fill="black" stroke="none" transform="translate(-29333.169,-1423.048) rotate(0.000,29999.969,1999.976)"/>
	<path d="M 45000,3000 L 45012.76588,2993.03743 L 45052.21932,2990.71715 L 45063.8242,3002.32028 L 45084.71193,3015.08616 L 45074.26806,3023.208 L 45061.50391,3023.208 L 45061.50391,3033.65187 L 45001.16101,3032.49261 L 44998.84073,3017.40644 L 45000,3000 Z" color="black" fill="black" stroke="none" transform="translate(-44311.720,-2873.540) rotate(270.000,44999.971,2999.982)"/>
	<path d="M 16000,2000 L 15997.38903,2050.47868 L 16065.27416,2052.21932 L 16066.14447,1999.12968 L 16000,2000 Z" color="black" fill="black" stroke="none" transform="translate(-15326.068,-1340.245) rotate(0.000,15999.971,1999.970)"/>
	<path d="M 8000,2000 L 8019.14708,2023.4987 L 8092.25414,2014.79548 L 8109.66057,2007.8329 L 8096.60574,1990.42646 L 8052.21932,2000 L 8000,2000 Z" color="black" fill="black" stroke="none" transform="translate(-7276.145,-1877.154) rotate(90.000,7999.937,1999.970)"/>
	<path d="M 47000,5000 L 47004.6423,5031.3316 L 46974.47172,5040.03482 L 46958.80592,5038.29417 L 46927.47433,5037.13316 L 46930.37424,5015.6658 L 46943.14012,5003.48129 L 46958.80592,4994.77807 L 46990.71715,4993.03743 L 47000,5000 Z" color="black" fill="black" stroke="none" transform="translate(-46302.835,-4655.189) rotate(270.000,47000.028,4999.983)"/>
	<path d="M 24000,5000 L 24000,5034.81288 L 23995.3577,5044.09573 L 23938.49782,5046.41775 L 23922.25065,5025.53002 L 23928.05396,5003.48129 L 24000,5000 Z" color="black" fill="black" stroke="none" transform="translate(-23262.055,-4221.122) rotate(0.000,24000.030,4999.969)"/>
	<path d="M 10000,4000 L 10000,4029.00958 L 10105.59966,4025.52828 L 10124.16536,4010.44387 L 10118.36379,4001.15927 L 10000,4000 Z" color="black" fill="black" stroke="none" transform="translate(-9258.904,-3522.483) rotate(90.000,9999.970,3999.970)"/>
	<path d="M 13000,2000 L 13002.61097,2042.64578 L 12986.94517,2060.05222 L 12960.83551,2060.92254 L 12945.16971,2046.99739 L 12947.78068,2018.27676 L 12964.31679,1998.25935 L 13000,2000 Z" color="black" fill="black" stroke="none" transform="translate(-12297.547,-1116.138) rotate(180.000,13000.028,1999.971)"/>
	<path d="M 36000,3000 L 35990.71715,3009.28459 L 35990.71715,3038.29417 L 36040.61445,3047.57877 L 36061.50218,3040.61619 L 36062.66318,3009.28459 L 36049.89904,2997.67972 L 36000,3000 Z" color="black" fill="black" stroke="none" transform="translate(-35631.259,-2102.322) rotate(180.000,35999.987,2999.971)"/>
	<path d="M 20000,2000 L 19993.90775,2013.92516 L 19994.77807,2027.8503 L 20122.71541,2026.10966 L 20122.71541,2000 L 20000,2000 Z" color="black" fill="black" stroke="none" transform="translate(-19249.937,-1993.867) rotate(90.000,19999.980,1999.970)"/>
	<path d="M 17000,4000 L 17002.32202,4041.77546 L 16967.50914,4060.34291 L 16947.78068,4044.09747 L 16947.78068,3995.35944 L 17000,4000 Z" color="black" fill="black" stroke="none" transform="translate(-16245.330,-3284.266) rotate(0.000,17000.029,3999.972)"/>
	<path d="M 37000,5000 L 37015.6658,5026.10966 L 37020.3081,5036.55352 L 36997.67972,5045.25675 L 36967.50739,5041.19582 L 36955.90427,5019.72672 L 36956.4839,4990.71715 L 37000,5000 Z" color="black" fill="black" stroke="none" transform="translate(-36285.930,-4385.169) rotate(270.000,37000.019,4999.973)"/>
	<path d="M 13000,4000 L 12982.59356,4020.88773 L 12865.39077,4022.04874 L 12856.10618,4004.6423 L 12864.22977,3997.67972 L 13000,4000 Z" color="black" fill="black" stroke="none" transform="translate(-12265.151,-3871.104) rotate(270.000,13000.063,3999.971)"/>
	<path d="M 29000,1000 L 29030.46127,1000 L 29038.29417,993.03743 L 29037.42385,944.29939 L 28975.63099,949.52132 L 28979.9826,963.44648 L 29003.48129,962.57615 L 29000,1000 Z" color="black" fill="black" stroke="none" transform="translate(-28273.717,-529.367) rotate(0.000,28999.967,1000.030)"/>
	<path d="M 33000,4000 L 32989.55613,4081.23064 L 32968.6684,4081.23064 L 32968.6684,4048.73804 L 32962.86684,4049.89904 L 32958.22454,4002.32028 L 33000,4000 Z" color="black" fill="black" stroke="none" transform="translate(-32236.426,-3728.450) rotate(0.000,32968.638,4048.775)"/>
	<path d="M 1000,3000 L 997.67972,3069.62576 L 1041.77546,3041.77546 L 1044.09573,2996.51871 L 1000,3000 Z" color="black" fill="black" stroke="none" transform="translate(-221.041,-2586.267) rotate(180.000,999.971,2999.972)"/>
	<path d="M 39000,5000 L 38991.29678,5013.92516 L 38998.83899,5017.40644 L 39003.48129,5030.75022 L 39075.42733,5023.208 L 39076.58834,4991.87642 L 39044.67711,4994.1967 L 39037.13316,4999.41862 L 39029.59095,4997.09834 L 39000,5000 Z" color="black" fill="black" stroke="none" transform="translate(-38228.148,-4521.580) rotate(90.000,38999.982,4999.972)"/>
	<path d="M 1000,6000 L 997.67972,6044.67711 L 1008.12358,6053.95996 L 1041.77546,6053.95996 L 1051.05831,6034.23325 L 1047.57702,6009.86423 L 1033.65187,5993.03743 L 1018.56745,5991.87816 L 1014.50479,5998.84073 L 1000,6000 Z" color="black" fill="black" stroke="none" transform="translate(-259.966,-5225.391) rotate(0.000,999.971,5999.972)"/>
	<path d="M 5000,5000 L 4996.51871,5039.45518 L 5023.208,5055.70061 L 5045.25675,5049.89904 L 5055.70061,5031.3316 L 5053.38033,5001.16101 L 5000,5000 Z" color="black" fill="black" stroke="none" transform="translate(-4260.796,-4285.643) rotate(270.000,4999.973,4999.969)"/>
	<path d="M 3000,1000 L 2997.09834,1026.10966 L 2920.51,1026.69103 L 2901.36292,1013.92516 L 2900.20366,1001.74065 L 2937.33682,1002.90166 L 2970.98869,1002.32202 L 2980.27328,994.19844 L 2994.77807,994.19844 L 3000,1000 Z" color="black" fill="black" stroke="none" transform="translate(-2244.166,-999.990) rotate(270.000,3000.031,999.990)"/>
	<path d="M 15000,5000 L 15006.96257,5023.20975 L 14995.35944,5044.09747 L 14943.14012,5044.09747 L 14937.33682,5023.20975 L 14947.78068,4997.67972 L 15000,5000 Z" color="black" fill="black" stroke="none" transform="translate(-14242.696,-4162.686) rotate(270.000,15000.023,4999.971)"/>
	<path d="M 40000,1000 L 40002.61097,1038.29417 L 39994.77807,1045.25675 L 39949.52132,1040.90514 L 39935.59617,1040.03482 L 39935.59617,1011.31419 L 39943.42907,997.38903 L 40000,1000 Z" color="black" fill="black" stroke="none" transform="translate(-39241.467,-900.204) rotate(270.000,40000.028,999.971)"/>
	<path d="M 26000,5000 L 25997.67972,5026.68929 L 25977.953,5037.13316 L 25958.22454,5039.45344 L 25931.53524,5029.00958 L 25921.09139,5018.56571 L 25925.73368,4998.83899 L 26000,5000 Z" color="black" fill="black" stroke="none" transform="translate(-25242.109,-4836.789) rotate(270.000,26000.033,4999.971)"/>
	<path d="M 9000,4000 L 8986.07484,4017.40644 L 9012.76588,4032.49261 L 9084.71193,4026.69103 L 9075.42907,4001.16101 L 9000,4000 Z" color="black" fill="black" stroke="none" transform="translate(-8204.194,-3745.699) rotate(90.000,8999.986,3999.970)"/>
	<path d="M 43000,1000 L 43000,1051.349 L 43031.3316,1054.83029 L 43043.5161,1047.86771 L 43054.83029,996.51871 L 43000,1000 Z" color="black" fill="black" stroke="none" transform="translate(-42199.017,-444.943) rotate(90.000,42999.970,999.972)"/>
	<path d="M 34000,3000 L 34002.32202,3048.73804 L 33994.19844,3056.86162 L 33946.62141,3054.5396 L 33946.62141,3013.92516 L 34000,3000 Z" color="black" fill="black" stroke="none" transform="translate(-33189.572,-2288.184) rotate(0.000,34000.028,2999.962)"/>
	<path d="M 38000,3000 L 38009.28285,3027.8503 L 38027.8503,3027.8503 L 38037.13316,3035.97389 L 38053.38033,3032.49261 L 38080.06963,3022.04874 L 38078.90861,2996.51871 L 38000,3000 Z" color="black" fill="black" stroke="none" transform="translate(-37192.477,-2614.880) rotate(90.000,37999.959,2999.972)"/>
	<path d="M 47000,2000 L 46997.67972,2044.09573 L 47035.97389,2051.05831 L 47055.70061,2039.45344 L 47059.1819,2016.24543 L 47041.77546,2002.32028 L 47000,2000 Z" color="black" fill="black" stroke="none" transform="translate(-46185.213,-1337.724) rotate(180.000,46999.972,1999.968)"/>
	<path d="M 3000,5000 L 3047.57877,5000 L 3048.73804,5029.01131 L 3030.17232,5047.57702 L 3000,5056.86162 L 2994.19844,5047.57702 L 3000,5000 Z" color="black" fill="black" stroke="none" transform="translate(-2173.724,-4529.755) rotate(90.000,2999.973,4999.970)"/>
	<path d="M 11000,3000 L 11000.58138,3061.50218 L 10956.4839,3062.66318 L 10951.84334,3017.40644 L 10975.05135,3017.40644 L 10973.89034,3000 L 11000,3000 Z" color="black" fill="black" stroke="none" transform="translate(-10171.502,-2682.439) rotate(0.000,10975.019,3017.376)"/>
	<path d="M 28000,5000 L 28003.48129,5030.17232 L 27935.01653,5032.49261 L 27929.21323,5001.16101 L 27962.86684,4998.84073 L 27973.31071,4991.87816 L 28000,5000 Z" color="black" fill="black" stroke="none" transform="translate(-27209.674,-4996.504) rotate(270.000,28000.028,4999.977)"/>
	<path d="M 30000,1000 L 29994.77807,1034.81288 L 30031.3316,1040.90514 L 30052.21932,1021.75805 L 30057.44125,1006.96257 L 30048.73804,993.90775 L 30024.36901,1002.61097 L 30000,1000 Z" color="black" fill="black" stroke="none" transform="translate(-29208.870,-174.085) rotate(270.000,29999.975,999.967)"/>
	<path d="M 34000,5000 L 34041.19582,5004.06266 L 34054.54134,5023.78938 L 34042.93647,5042.93647 L 33997.10008,5042.35684 L 33988.9765,5029.01131 L 33986.07484,5012.76588 L 34000,5000 Z" color="black" fill="black" stroke="none" transform="translate(-33208.107,-4749.957) rotate(270.000,33999.990,4999.969)"/>
	<path d="M 4000,4000 L 4074.26632,4000 L 4080.06963,4016.24543 L 4073.10705,4033.65187 L 4000,4033.65187 L 3993.03743,4020.88773 L 4000,4000 Z" color="black" fill="black" stroke="none" transform="translate(-3163.556,-3882.881) rotate(90.000,3999.978,3999.970)"/>
	<path d="M 1000,5000 L 1056.82506,4996.65274 L 1062.66318,5017.40644 L 1035.97215,5042.93473 L 1000,5033.65187 L 1000,5000 Z" color="black" fill="black" stroke="none" transform="translate(-159.471,-4337.741) rotate(90.000,999.970,4999.972)"/>
	<path d="M 29000,2000 L 29006.96257,2046.99739 L 29049.60835,2053.08965 L 29047.86771,2011.31419 L 29033.07224,2010.44387 L 29018.27676,1994.77807 L 29000,2000 Z" color="black" fill="black" stroke="none" transform="translate(-28203.691,-1476.433) rotate(0.000,28999.966,1999.978)"/>
	<path d="M 22000,3000 L 22001.15927,3034.81288 L 22073.10705,3035.97389 L 22078.90861,3000 L 22000,3000 Z" color="black" fill="black" stroke="none" transform="translate(-21153.518,-2621.482) rotate(90.000,21999.969,2999.970)"/>
	<path d="M 11000,1000 L 11043.5161,1000 L 11041.19582,983.75457 L 11038.87554,944.88077 L 11013.92516,941.39947 L 10995.93907,953.00261 L 11001.74065,973.31071 L 10995.35944,982.01393 L 11000,1000 Z" color="black" fill="black" stroke="none" transform="translate(-10156.474,-168.922) rotate(180.000,10999.977,1000.030)"/>
	<path d="M 25000,2000 L 25046.99739,1993.90775 L 25055.70061,2025.23934 L 25047.86771,2034.81288 L 25034.81288,2036.55352 L 25023.4987,2044.38643 L 25004.35161,2039.16449 L 25000,2000 Z" color="black" fill="black" stroke="none" transform="translate(-24160.183,-1739.917) rotate(90.000,24999.967,1999.974)"/>
	<path d="M 23000,3000 L 23004.64056,3031.3316 L 22988.39513,3038.29417 L 22938.49609,3033.65187 L 22959.38381,2996.51871 L 23000,3000 Z" color="black" fill="black" stroke="none" transform="translate(-22184.828,-2267.677) rotate(270.000,23000.026,2999.972)"/>
	<path d="M 33000,3000 L 33016.24543,2984.91384 L 33041.77546,2984.91384 L 33058.02089,3017.40644 L 33049.89731,3032.49261 L 33002.32028,3032.49261 L 33000,3000 Z" color="black" fill="black" stroke="none" transform="translate(-32170.725,-2885.291) rotate(270.000,32999.969,2999.988)"/>
	<path d="M 34000,4000 L 34035.97389,3998.83899 L 34049.89904,4012.76415 L 34048.73804,4042.93647 L 33998.83899,4045.25675 L 33994.19844,4037.13316 L 33990.71715,4009.28285 L 34000,4000 Z" color="black" fill="black" stroke="none" transform="translate(-33139.182,-3414.681) rotate(90.000,33999.987,3999.970)"/>
	<path d="M 5000,6000 L 5001.32811,6000.22628 L 5024.73281,6004.17581 L 5030.83377,5991.32811 L 5039.5074,5993.8973 L 5043.68321,6017.66579 L 5042.07659,6036.61793 L 5027.62402,6053.96344 L 5009.31419,6052.35684 L 5000,6024.09051 L 5000,6000 Z" color="black" fill="black" stroke="none" transform="translate(-4173.723,-5545.760) rotate(0.000,4999.970,5999.964)"/>
	<path d="M 2000,2000 L 2014.79548,2003.48129 L 2023.4987,2013.92516 L 2019.14708,2021.75805 L 1939.94778,2024.36901 L 1926.89295,2011.31419 L 1951.26196,2005.22193 L 1961.70583,1996.51871 L 2000,2000 Z" color="black" fill="black" stroke="none" transform="translate(-1160.105,-1863.512) rotate(270.000,2000.005,1999.970)"/>
	<path d="M 41000,3000 L 41002.32202,3038.29417 L 41061.50391,3040.61445 L 41066.14447,3010.44387 L 41000,3000 Z" color="black" fill="black" stroke="none" transform="translate(-40130.260,-2691.151) rotate(90.000,40999.968,2999.965)"/>
	<path d="M 31000,2000 L 31032.20191,2002.61097 L 31034.81288,2018.27676 L 31040.03482,2024.36901 L 31039.16449,2046.12707 L 31029.59095,2067.01479 L 31000.87032,2064.40383 L 31000,2000 Z" color="black" fill="black" stroke="none" transform="translate(-30125.568,-1723.135) rotate(180.000,30999.970,1999.967)"/>
	<path d="M 48000,2000 L 47990.71541,2034.81288 L 48015.08442,2044.09747 L 48042.93473,2034.81288 L 48051.05831,2003.48129 L 48039.45344,2003.48129 L 48000,2000 Z" color="black" fill="black" stroke="none" transform="translate(-47134.414,-1990.686) rotate(90.000,47999.978,1999.968)"/>
	<path d="M 31000,4000 L 31001.16101,4093.99478 L 30975.63099,4095.15579 L 30973.31071,4000 L 31000,4000 Z" color="black" fill="black" stroke="none" transform="translate(-30127.833,-3364.739) rotate(0.000,31000.030,3999.970)"/>
	<path d="M 2000,5000 L 2000,5035.97389 L 2027.8503,5054.54134 L 2046.41602,5054.54134 L 2047.57702,5010.44387 L 2000,5000 Z" color="black" fill="black" stroke="none" transform="translate(-1161.851,-4208.471) rotate(0.000,1999.970,4999.963)"/>
	<path d="M 27000,5000 L 27000,5034.81288 L 27071.94778,5031.3316 L 27051.06006,4998.83899 L 27000,5000 Z" color="black" fill="black" stroke="none" transform="translate(-26118.814,-4624.958) rotate(90.000,26999.970,4999.971)"/>
	<path d="M 41000,4000 L 41013.92516,4016.24543 L 41018.56571,4033.65187 L 40953.58225,4032.49261 L 40943.13838,4025.53002 L 40943.13838,4000 L 41000,4000 Z" color="black" fill="black" stroke="none" transform="translate(-40154.256,-3484.747) rotate(270.000,41000.014,3999.970)"/>
	<path d="M 28000,2000 L 27995.64839,2026.10966 L 28045.25675,2024.36901 L 28050.47868,2020.0174 L 28049.60835,2001.74065 L 28044.38643,1979.9826 L 28000,2000 Z" color="black" fill="black" stroke="none" transform="translate(-27125.876,-1152.533) rotate(90.000,27999.973,1999.979)"/>
	<path d="M 30000,5000 L 30006.96257,5019.72846 L 29968.6684,5030.17232 L 29946.62141,5013.92516 L 29953.58398,5000 L 29967.50914,4988.39687 L 30000,5000 Z" color="black" fill="black" stroke="none" transform="translate(-29136.857,-4267.108) rotate(270.000,30000.024,4999.977)"/>
	<path d="M 2000,3000 L 1997.67798,3022.04874 L 1912.96779,3022.04874 L 1915.28807,2994.19844 L 2000,3000 Z" color="black" fill="black" stroke="none" transform="translate(-1132.456,-2999.972) rotate(270.000,2000.033,2999.972)"/>
	<path d="M 19000,1000 L 19031.3316,1028.43168 L 19058.60053,1029.59095 L 19071.94604,1016.82681 L 19058.02089,997.67972 L 19025.52828,998.25935 L 19000,1000 Z" color="black" fill="black" stroke="none" transform="translate(-18847.698,-435.319) rotate(0.000,18999.928,999.975)"/>
	<path d="M 18000,1000 L 17998.25935,1007.54221 L 17979.6919,1015.08442 L 17982.01218,1025.52828 L 18001.74065,1035.97215 L 18017.98607,1023.78764 L 18039.45344,1023.208 L 18042.93473,1014.50479 L 18043.5161,1005.22193 L 18024.36901,1004.06093 L 18000,1000 Z" color="black" fill="black" stroke="none" transform="translate(-17554.706,-917.095) rotate(0.000,17999.977,999.966)"/>
	<path d="M 26000,1000 L 25995.64839,1043.5161 L 26009.57354,1051.349 L 26021.75805,1048.73804 L 26027.8503,1020.0174 L 26036.55352,1011.31419 L 26035.68321,996.51871 L 26000,1000 Z" color="black" fill="black" stroke="none" transform="translate(-25105.048,-720.661) rotate(90.000,25999.973,999.973)"/>
	<path d="M 19000,4000 L 19008.12358,4032.49086 L 19060.34291,4027.8503 L 19060.34291,4011.60313 L 19053.38033,3995.3577 L 19000,4000 Z" color="black" fill="black" stroke="none" transform="translate(-18107.524,-3433.126) rotate(90.000,18999.962,3999.973)"/>
	<path d="M 18000,4000 L 18004.64056,4023.208 L 18019.72672,4038.29417 L 18051.05831,4039.45518 L 18046.41602,3996.51871 L 18000,4000 Z" color="black" fill="black" stroke="none" transform="translate(-17711.838,-3195.592) rotate(180.000,17999.964,3999.973)"/>
	<path d="M 0,1000 L 7.8329,1026.10966 L 52.21932,1026.97999 L 56.57093,1014.79548 L 52.21932,988.68581 L 0,1000 Z" color="black" fill="black" stroke="none" transform="translate(872.035,-835.147) rotate(270.000,-0.038,999.978)"/>
	<path d="M 35000,3000 L 34998.84073,3025.52828 L 35023.20975,3030.17059 L 35054.54134,3025.52828 L 35061.50391,3004.64056 L 35020.88773,2996.51871 L 35000,3000 Z" color="black" fill="black" stroke="none" transform="translate(-34604.247,-2281.174) rotate(270.000,34999.971,2999.974)"/>
	<path d="M 20000,4000 L 20006.96257,4019.72672 L 19994.1967,4024.36901 L 19937.33682,4026.68929 L 19938.49609,3996.51871 L 20000,4000 Z" color="black" fill="black" stroke="none" transform="translate(-19127.809,-3567.356) rotate(270.000,20000.022,3999.971)"/>
	<path d="M 6000,2000 L 6020.0174,2032.20191 L 6057.44125,2032.20191 L 6064.40383,2032.20191 L 6061.79286,2004.35161 L 6000,2000 Z" color="black" fill="black" stroke="none" transform="translate(-5367.798,-1764.678) rotate(90.000,5999.944,1999.966)"/>
	<path d="M 43000,4000 L 42993.03743,4009.28285 L 43003.48129,4024.36901 L 43061.50218,4020.88773 L 43063.82245,4002.32028 L 43054.5396,3995.3577 L 43000,4000 Z" color="black" fill="black" stroke="none" transform="translate(-42880.576,-3781.364) rotate(270.000,42999.984,3999.971)"/>
	<path d="M 39000,1000 L 39000.87032,1028.72063 L 39009.57354,1033.07224 L 39031.3316,1030.46127 L 39053.95996,1015.6658 L 39053.08965,997.38903 L 39000,1000 Z" color="black" fill="black" stroke="none" transform="translate(-38103.268,-835.895) rotate(90.000,38999.969,999.971)"/>
	<path d="M 33000,5000 L 32997.67798,5012.76415 L 33024.94865,5038.29417 L 33034.23151,5037.71453 L 33041.19408,5032.49261 L 33040.61445,4995.3577 L 33000,5000 Z" color="black" fill="black" stroke="none" transform="translate(-32842.115,-4745.599) rotate(0.000,32999.974,4999.973)"/>
	<path d="M 4000,1000 L 4001.16101,1012.76415 L 4034.23325,1017.40644 L 4049.31941,1017.40644 L 4069.04613,1009.28285 L 4067.88512,992.45779 L 4002.90166,990.71715 L 4000,1000 Z" color="black" fill="black" stroke="none" transform="translate(-3865.411,-446.983) rotate(180.000,3999.970,999.997)"/>
	<path d="M 8000,4000 L 7998.83899,4046.41602 L 7969.82941,4046.41602 L 7960.54482,4034.81288 L 7960.54482,4010.44387 L 8000,4000 Z" color="black" fill="black" stroke="none" transform="translate(-7318.090,-3953.476) rotate(180.000,8000.031,3999.961)"/>
	<path d="M 24000,3000 L 24000,3025.52828 L 24052.21932,3027.8503 L 24056.86162,3013.92516 L 24039.45518,2996.51871 L 24000,3000 Z" color="black" fill="black" stroke="none" transform="translate(-23105.802,-2684.054) rotate(90.000,23999.970,2999.973)"/>
	<path d="M 8000,1000 L 8062.08355,998.25935 L 8060.92254,1011.60487 L 8050.47868,1026.10966 L 8025.53002,1026.10966 L 8000,1000 Z" color="black" fill="black" stroke="none" transform="translate(-7660.076,-611.618) rotate(270.000,7999.931,999.972)"/>
	<path d="M 12000,1000 L 12002.89992,1023.208 L 12064.98347,1025.53002 L 12067.30374,1004.06093 L 12031.3316,1000.57964 L 12000,1000 Z" color="black" fill="black" stroke="none" transform="translate(-11101.500,-374.918) rotate(90.000,11999.966,999.969)"/>
	<path d="M 42000,3000 L 42001.16101,3044.09573 L 42017.40644,3041.77546 L 42029.01131,3033.65187 L 42023.20975,2990.71715 L 42000,3000 Z" color="black" fill="black" stroke="none" transform="translate(-41565.532,-2458.841) rotate(90.000,41999.969,2999.980)"/>
	<path d="M 45000,2000 L 44997.67972,2030.17059 L 45000,2044.09573 L 45026.68929,2042.93647 L 45030.17059,2003.48129 L 45000,2000 Z" color="black" fill="black" stroke="none" transform="translate(-44553.021,-1558.262) rotate(270.000,44999.972,1999.967)"/>
	<path d="M 32000,1000 L 32001.74065,1015.6658 L 32050.47868,1020.0174 L 32047.86771,993.90775 L 32040.90514,1000 L 32000,1000 Z" color="black" fill="black" stroke="none" transform="translate(-31688.338,-257.766) rotate(0.000,31999.966,999.970)"/>
	<path d="M 43000,3000 L 43000,3033.65361 L 43024.36901,3033.65361 L 43037.1349,3019.72846 L 43027.8503,3003.48129 L 43000,3000 Z" color="black" fill="black" stroke="none" transform="translate(-42879.445,-2999.966) rotate(90.000,42999.970,2999.966)"/>
	<path d="M 30000,3000 L 30004.6423,3009.28285 L 29995.3577,3015.08442 L 29926.89295,3013.92516 L 29924.57267,3000 L 30000,3000 Z" color="black" fill="black" stroke="none" transform="translate(-29687.977,-2437.940) rotate(270.000,30000.019,2999.970)"/>
	<path d="M 47000,1000 L 47000.87032,1020.88773 L 47056.57093,1020.0174 L 47055.70061,1003.48129 L 47000,1000 Z" color="black" fill="black" stroke="none" transform="translate(-46105.406,-782.439) rotate(90.000,46999.969,999.968)"/>
	<path d="M 11000,4000 L 11007.10705,4023.06179 L 11051.20452,4023.06179 L 11048.8825,4004.49609 L 11000,4000 Z" color="black" fill="black" stroke="none" transform="translate(-10389.142,-3380.791) rotate(0.000,10999.958,3999.966)"/>
	<path d="M 14000,1000 L 13999.42036,1019.14708 L 13959.96518,1025.52828 L 13957.06527,1010.44387 L 13969.82941,1000.57964 L 13985.49521,998.25935 L 14000,1000 Z" color="black" fill="black" stroke="none" transform="translate(-13565.391,-736.075) rotate(0.000,14000.031,999.973)"/>
	<path d="M 1000,4000 L 997.67972,4022.04874 L 1042.79026,4025.24108 L 1039.45518,4012.76588 L 1039.45518,4003.48129 L 1000,4000 Z" color="black" fill="black" stroke="none" transform="translate(-760.769,-3473.474) rotate(0.000,999.973,3999.968)"/>
	<path d="M 26000,2000 L 25998.25935,2029.59095 L 26020.0174,2036.55352 L 26027.8503,2033.07224 L 26027.8503,1998.25935 L 26000,2000 Z" color="black" fill="black" stroke="none" transform="translate(-25998.228,-1814.197) rotate(270.000,25999.972,1999.972)"/>
	<path d="M 38000,5000 L 38024.94865,5000 L 38025.52828,5013.34377 L 38019.14708,5030.17059 L 38006.3812,5027.26893 L 37988.39513,5016.82506 L 37988.39513,5000.57964 L 38000,5000 Z" color="black" fill="black" stroke="none" transform="translate(-37376.391,-4851.695) rotate(0.000,37999.999,4999.970)"/>
	<path d="M 29000,3000 L 28996.51871,3026.69103 L 28961.70583,3022.04874 L 28965.18712,3005.8033 L 28979.11227,2997.67972 L 29000,3000 Z" color="black" fill="black" stroke="none" transform="translate(-28458.850,-2596.028) rotate(90.000,29000.034,2999.974)"/>
	<path d="M 48000,1000 L 48000.87032,1016.53612 L 47946.91035,1014.79548 L 47946.04004,996.51871 L 48000,1000 Z" color="black" fill="black" stroke="none" transform="translate(-47118.030,-503.783) rotate(270.000,48000.029,999.972)"/>
	<path d="M 15000,1000 L 14975.63099,1008.70322 L 14978.53264,1017.98607 L 14995.35944,1020.88773 L 15019.72846,1023.78764 L 15021.46911,1012.76415 L 15015.08616,1002.32028 L 15000,1000 Z" color="black" fill="black" stroke="none" transform="translate(-14683.270,-925.368) rotate(180.000,14999.997,999.969)"/>
	<path d="M 23000,4000 L 23003.48129,4019.72672 L 22991.87816,4035.97215 L 22975.63099,4026.68929 L 22973.31071,4016.24543 L 22976.792,4002.32028 L 23000,4000 Z" color="black" fill="black" stroke="none" transform="translate(-22816.347,-3647.423) rotate(180.000,23000.025,3999.967)"/>
	<path d="M 22000,1000 L 21996.51871,1022.04874 L 22002.90166,1028.43168 L 22019.14708,1026.69103 L 22030.17232,1017.40644 L 22025.53002,1010.44387 L 22024.36901,1004.6423 L 22011.60487,998.25935 L 22000,1000 Z" color="black" fill="black" stroke="none" transform="translate(-21691.121,-627.755) rotate(0.000,21999.974,999.974)"/>
	<path d="M 31000,1000 L 30997.38903,1007.8329 L 31016.53612,1017.40644 L 31023.4987,1025.23934 L 31033.94256,1008.70322 L 31034.81288,998.25935 L 31000,1000 Z" color="black" fill="black" stroke="none" transform="translate(-30655.657,-893.153) rotate(270.000,30999.978,999.971)"/>
	<path d="M 24000,4000 L 24004.6423,4027.8503 L 23972.1497,4027.8503 L 23970.99042,4017.40644 L 23975.63099,4000 L 24000,4000 Z" color="black" fill="black" stroke="none" transform="translate(-23798.594,-3127.880) rotate(0.000,24000.025,3999.970)"/>
	<path d="M 16000,1000 L 16000,1019.72672 L 15977.953,1021.46736 L 15961.70583,1016.24543 L 15961.1262,998.83899 L 16000,1000 Z" color="black" fill="black" stroke="none" transform="translate(-16000.030,-727.869) rotate(180.000,16000.030,999.971)"/>
	<path d="M 44000,3000 L 43996.51871,3015.08442 L 44035.97389,3016.24543 L 44039.45518,3006.96257 L 44029.01131,3004.64056 L 44030.17232,2996.51871 L 44000,3000 Z" color="black" fill="black" stroke="none" transform="translate(-43848.679,-2558.042) rotate(90.000,43999.976,2999.973)"/>
	<path d="M 7000,4000 L 7000,4016.24543 L 6959.38381,4019.72672 L 6957.06353,4001.16101 L 7000,4000 Z" color="black" fill="black" stroke="none" transform="translate(-6293.469,-3767.404) rotate(270.000,7000.030,3999.969)"/>
	<path d="M 21000,1000 L 21012.18451,1029.59095 L 20990.71541,1026.68929 L 20984.3342,1018.56745 L 20984.3342,1005.22193 L 20992.45605,999.42036 L 21000,1000 Z" color="black" fill="black" stroke="none" transform="translate(-20892.565,-626.006) rotate(90.000,21000.021,999.972)"/>
	<path d="M 20000,1000 L 19997.67972,1026.69103 L 19969.82941,1024.95039 L 19970.40905,999.42036 L 20000,1000 Z" color="black" fill="black" stroke="none" transform="translate(-19513.840,-704.239) rotate(270.000,20000.033,999.971)"/>
	<path d="M 12000,4000 L 11996.51871,4022.04874 L 11970.98869,4022.04874 L 11969.82941,3996.51871 L 12000,4000 Z" color="black" fill="black" stroke="none" transform="translate(-11779.413,-3158.546) rotate(0.000,12000.035,3999.974)"/>
	<path d="M 17000,1000 L 16996.51871,1023.78938 L 16979.69365,1023.20975 L 16970.40905,1006.38294 L 16983.17494,998.25935 L 17000,1000 Z" color="black" fill="black" stroke="none" transform="translate(-16417.556,-199.368) rotate(270.000,17000.034,999.973)"/>
	<path d="M 46000,1000 L 45994.77807,1018.27676 L 45967.79809,1015.6658 L 45969.53873,995.64839 L 46000,1000 Z" color="black" fill="black" stroke="none" transform="translate(-45407.867,-967.704) rotate(90.000,46000.038,999.975)"/>
	<path d="M 2000,4000 L 1998.83899,4023.208 L 1972.1497,4020.88773 L 1973.30897,3998.83899 L 2000,4000 Z" color="black" fill="black" stroke="none" transform="translate(-1183.786,-3365.980) rotate(270.000,2000.031,3999.971)"/>
	<path d="M 4000,6000 L 4022.047,6000 L 4026.68929,6016.24717 L 4017.40644,6024.95039 L 4002.32028,6021.46911 L 4000,6000 Z" color="black" fill="black" stroke="none" transform="translate(-3429.385,-5873.309) rotate(90.000,3999.967,5999.970)"/>
	<path d="M 47000,3000 L 46998.84073,3027.8503 L 47008.12358,3033.65361 L 47015.08616,3026.69103 L 47015.08616,2995.35944 L 47000,3000 Z" color="black" fill="black" stroke="none" transform="translate(-46357.710,-2984.832) rotate(270.000,46999.971,2999.978)"/>
	<path d="M 22000,4000 L 21998.83899,4024.36901 L 22022.047,4024.36901 L 22023.208,4000 L 22000,4000 Z" color="black" fill="black" stroke="none" transform="translate(-21125.605,-3307.553) rotate(0.000,21999.971,3999.970)"/>
	<path d="M 13000,1000 L 12991.87816,1007.54395 L 12991.29678,1018.56745 L 13017.40644,1019.72846 L 13020.88773,1004.6423 L 13000,1000 Z" color="black" fill="black" stroke="none" transform="translate(-12944.492,-359.129) rotate(180.000,12999.991,999.967)"/>
	<path d="M 28000,3000 L 28002.97302,3016.51697 L 27975.63099,3014.50653 L 27975.63099,2998.25935 L 28000,3000 Z" color="black" fill="black" stroke="none" transform="translate(-27857.540,-2978.539) rotate(0.000,28000.025,2999.972)"/>
	<path d="M 34000,1000 L 34000,1006.09225 L 34031.3316,1008.70322 L 34032.20191,1002.61097 L 34020.88773,1000.87032 L 34020.0174,994.77807 L 34006.96257,993.90775 L 34000,1000 Z" color="black" fill="black" stroke="none" transform="translate(-33835.729,-935.421) rotate(90.000,33999.970,999.986)"/>
	<path d="M 33000,1000 L 32999.12968,1021.75805 L 33013.92516,1026.10966 L 33014.79548,1001.74065 L 33000,1000 Z" color="black" fill="black" stroke="none" transform="translate(-32640.615,-836.998) rotate(90.000,32999.971,999.966)"/>
	<path d="M 6000,3000 L 6000,3018.56745 L 5983.75457,3016.24717 L 5986.07484,2997.67972 L 6000,3000 Z" color="black" fill="black" stroke="none" transform="translate(-5948.637,-2570.655) rotate(270.000,6000.030,2999.975)"/>
	<path d="M 28000,1000 L 28000,1011.31419 L 27981.72324,1012.18451 L 27982.59356,996.51871 L 28000,1000 Z" color="black" fill="black" stroke="none" transform="translate(-27715.477,-987.749) rotate(180.000,28000.030,999.975)"/>
</svg>
