<?xml version="1.0" ?>
<svg width="900" height="900" viewBox="0 0 900 900">
	<path d="M 28026.10293,5001.52698 L 28022.21207,5043.51222 L 27946.84033,5013.71196 L 27985.07143,4991.90693 L 27993.2815,4948.65627 L 28035.68451,4996.2299 Z" color="black" fill="black" stroke="none" transform="translate(-28016.555,-4959.552) rotate(180.000,28026.131,5001.546)"/>
	<path d="M 26036.20395,7003.95963 L 26002.96715,7051.14766 L 25972.79652,7017.68601 L 25967.10864,6984.33858 L 25985.28545,6948.01475 L 26044.57484,6976.09203 Z" color="black" fill="black" stroke="none" transform="translate(-25959.553,-6956.754) rotate(180.000,26036.231,7003.973)"/>
	<path d="M 14043.53559,6006.97478 L 13980.71403,6050.76558 L 13969.59379,6002.53534 L 13960.52168,5985.1283 L 13981.22516,5956.75941 L 14014.92339,5990.42955 Z" color="black" fill="black" stroke="none" transform="translate(-13982.728,-5942.528) rotate(270.000,14043.591,6006.972)"/>
	<path d="M 47037.67161,5022.44192 L 47025.50852,5045.60153 L 46972.4333,5009.87978 L 46957.6498,4982.1534 L 46982.69319,4951.11034 L 47030.92678,4956.67719 Z" color="black" fill="black" stroke="none" transform="translate(-46973.289,-4815.024) rotate(90.000,47037.702,5022.448)"/>
	<path d="M 35029.27512,7046.15554 L 34994.88824,7024.34124 L 34991.16802,7008.81493 L 34967.27742,6990.74387 L 35010.53459,6950.87917 L 35046.34482,6996.8775 Z" color="black" fill="black" stroke="none" transform="translate(-34858.626,-6870.002) rotate(0.000,35029.291,7046.201)"/>
	<path d="M 18003.42602,7004.07835 L 17995.81015,7043.59572 L 17984.25679,7019.56114 L 17962.13268,6994.43727 L 17984.02848,6958.20339 L 18049.43139,6996.66585 Z" color="black" fill="black" stroke="none" transform="translate(-17866.031,-6804.606) rotate(180.000,18003.452,7004.105)"/>
	<path d="M 3036.22084,6032.71059 L 2974.47978,6047.02368 L 2994.35731,6003.00564 L 2975.26926,5960.3949 L 2988.48224,5950.90083 L 3051.50344,5997.41606 Z" color="black" fill="black" stroke="none" transform="translate(-2974.432,-5775.685) rotate(0.000,3036.242,6032.736)"/>
	<path d="M 1026.83876,6002.41782 L 1001.87241,6048.89699 L 967.22104,6031.05031 L 969.92722,5984.47427 L 980.50965,5948.95531 L 1041.25404,5996.41693 Z" color="black" fill="black" stroke="none" transform="translate(-922.881,-5777.208) rotate(270.000,1026.860,6002.441)"/>
	<path d="M 30048.99781,1008.41493 L 30001.49098,1044.32677 L 29970.10177,1000.70818 L 29984.18044,994.86997 L 29992.63449,950.93729 L 30036.59968,978.68637 Z" color="black" fill="black" stroke="none" transform="translate(-29908.477,-972.492) rotate(180.000,30049.034,1008.425)"/>
	<path d="M 32004.0206,1003.09903 L 32007.93107,1050.21432 L 31996.01297,1003.76875 L 31966.32595,968.81452 L 31990.66812,960.92351 L 32047.10685,974.3051 Z" color="black" fill="black" stroke="none" transform="translate(-31822.357,-758.640) rotate(180.000,32004.052,1003.114)"/>
	<path d="M 41.073,5034.99414 L 6.53637,5016.80566 L -29.75893,5046.19547 L -19.71934,4986.10415 L 12.46333,4946.50649 L 27.12042,4994.43175 Z" color="black" fill="black" stroke="none" transform="translate(199.996,-4918.340) rotate(180.000,6.540,5016.841)"/>
	<path d="M 47035.14207,6037.05471 L 46996.30153,6028.53354 L 46951.12883,6004.89769 L 46965.25555,5982.76682 L 46992.5447,5967.64775 L 47052.35567,5983.24378 Z" color="black" fill="black" stroke="none" transform="translate(-46780.008,-5851.804) rotate(270.000,47035.162,6037.090)"/>
	<path d="M 41023.7221,6036.07759 L 41011.89313,6026.34658 L 40946.5808,6009.80871 L 40990.16042,5993.44048 L 41000.16271,5968.4126 L 41049.45086,5984.10959 Z" color="black" fill="black" stroke="none" transform="translate(-40739.893,-6005.265) rotate(270.000,41023.732,6036.125)"/>
	<path d="M 37022.0625,2010.96755 L 36977.21092,2048.38834 L 36981.96158,2028.06186 L 36959.05483,1985.67928 L 37018.11385,1953.38103 L 37032.04426,1984.38786 Z" color="black" fill="black" stroke="none" transform="translate(-36783.311,-1887.297) rotate(180.000,37022.088,2010.986)"/>
	<path d="M 36040.94712,5013.16258 L 36008.40494,5037.45428 L 35958.60122,5010.9129 L 35985.07731,4981.61593 L 36018.3277,4953.72808 L 36004.87864,4995.86145 Z" color="black" fill="black" stroke="none" transform="translate(-35735.575,-4741.593) rotate(0.000,36004.915,4995.846)"/>
	<path d="M 18047.96983,6018.43913 L 18023.37826,6047.22994 L 17980.937,6029.39745 L 17991.62274,5995.79435 L 17999.50471,5945.26247 L 18035.73244,5959.37888 Z" color="black" fill="black" stroke="none" transform="translate(-17710.234,-5774.524) rotate(0.000,18048.002,6018.447)"/>
	<path d="M 48028.84461,2013.37837 L 47980.49426,2046.04844 L 47958.24479,2018.32693 L 47962.86242,1998.76639 L 48008.59923,1950.10365 L 48012.05821,1986.43147 Z" color="black" fill="black" stroke="none" transform="translate(-47759.809,-1950.881) rotate(180.000,48028.885,2013.387)"/>
	<path d="M 15044.74969,1018.34111 L 15007.4934,1019.14974 L 14970.89208,1043.46814 L 14983.66092,992.86701 L 15003.13278,952.23527 L 15026.05875,964.89781 Z" color="black" fill="black" stroke="none" transform="translate(-14752.239,-895.932) rotate(180.000,15044.792,1018.370)"/>
	<path d="M 37007.50975,3006.85126 L 37003.30088,3046.70434 L 36972.30149,3006.90883 L 36957.38127,2994.00914 L 36987.64413,2973.21717 L 37036.27576,2961.81413 Z" color="black" fill="black" stroke="none" transform="translate(-36669.770,-2762.938) rotate(180.000,37007.539,3006.861)"/>
	<path d="M 14042.57903,4029.95829 L 13989.96987,4035.40284 L 13975.89433,4035.87067 L 13952.85539,3991.6703 L 13984.36682,3969.8635 L 14054.12009,3997.92186 Z" color="black" fill="black" stroke="none" transform="translate(-13646.662,-3895.704) rotate(270.000,14042.601,4029.986)"/>
	<path d="M 31046.37841,7015.03187 L 31013.30051,7052.53518 L 30964.81591,7030.68023 L 30967.56466,6973.983 L 31005.76025,6988.98807 L 31021.47229,6970.59103 Z" color="black" fill="black" stroke="none" transform="translate(-30662.043,-6933.661) rotate(270.000,31005.751,6988.952)"/>
	<path d="M 37040.33444,6023.84981 L 37004.98186,6016.07295 L 36957.38264,6019.74022 L 36981.45211,5994.96213 L 37006.94165,5945.47593 L 37006.18796,5995.92098 Z" color="black" fill="black" stroke="none" transform="translate(-36604.353,-5833.319) rotate(270.000,37040.451,6023.906)"/>
	<path d="M 26031.45522,1043.43713 L 26019.07787,1044.93613 L 25954.06109,1029.02137 L 25997.38191,995.73647 L 25996.49396,983.00861 L 26032.65026,962.41993 Z" color="black" fill="black" stroke="none" transform="translate(-25593.735,-907.188) rotate(0.000,26031.485,1043.464)"/>
	<path d="M 5015.85805,7005.61492 L 5004.20949,7041.79402 L 4956.57349,7014.36467 L 4964.26753,6959.37869 L 4984.97201,6970.12332 L 5035.15495,6977.74751 Z" color="black" fill="black" stroke="none" transform="translate(-4585.417,-6846.735) rotate(180.000,5015.885,7005.628)"/>
	<path d="M 40013.22714,1012.3836 L 40005.14743,1035.80658 L 39948.99036,1004.47891 L 39974.2215,973.6631 L 39989.87419,977.70611 L 40042.30695,966.45097 Z" color="black" fill="black" stroke="none" transform="translate(-39559.608,-753.586) rotate(90.000,40013.254,1012.397)"/>
	<path d="M 12017.52092,7007.50847 L 11998.93866,7034.69473 L 11981.53415,7026.98405 L 11968.01615,6978.95313 L 11999.25932,6947.65162 L 12041.6698,6975.41841 Z" color="black" fill="black" stroke="none" transform="translate(-11586.140,-6957.976) rotate(90.000,12017.545,7007.526)"/>
	<path d="M 40024.16466,3023.36658 L 40013.02832,3046.87874 L 39971.945,3029.64433 L 39986.3377,2986.8212 L 40013.09359,2947.50869 L 40035.85025,2964.44034 Z" color="black" fill="black" stroke="none" transform="translate(-39527.761,-2905.812) rotate(0.000,40024.193,3023.376)"/>
	<path d="M 4034.48522,2028.11575 L 4005.62048,2036.96418 L 3957.79895,2009.49584 L 3965.16149,1983.73955 L 3984.90587,1960.10205 L 4039.88749,1970.90872 Z" color="black" fill="black" stroke="none" transform="translate(-3485.348,-1867.431) rotate(270.000,4034.513,2028.139)"/>
	<path d="M 25016.86522,4008.72791 L 25003.83721,4033.50856 L 24977.64919,4018.8743 L 24962.45477,3987.76808 L 25018.97003,3956.73228 L 25044.60865,3987.90928 Z" color="black" fill="black" stroke="none" transform="translate(-24506.633,-3953.953) rotate(90.000,25016.889,4008.748)"/>
	<path d="M 47024.31525,4022.51752 L 47012.85088,4045.88492 L 46958.74204,4034.42119 L 46995.63198,3995.13234 L 46995.02338,3949.79769 L 47017.60257,3978.38587 Z" color="black" fill="black" stroke="none" transform="translate(-46446.488,-3881.563) rotate(0.000,47024.346,4022.522)"/>
	<path d="M 9010.2454,4001.98317 L 9005.50577,4036.84528 L 8950.28266,4008.5961 L 8977.76487,3989.19612 L 8997.9183,3971.82345 L 9046.85254,3980.57468 Z" color="black" fill="black" stroke="none" transform="translate(-8455.708,-3744.395) rotate(0.000,9010.273,4002.002)"/>
	<path d="M 20043.21333,4017.67188 L 20014.70487,4047.00977 L 19960.08802,4021.51344 L 19957.64055,3982.21218 L 20005.51336,3986.21239 L 20054.48067,3993.0319 Z" color="black" fill="black" stroke="none" transform="translate(-19462.131,-3786.123) rotate(90.000,20043.238,4017.689)"/>
	<path d="M 35030.86999,3017.85165 L 35011.07974,3037.85676 L 34970.80566,3026.74031 L 34992.35586,2995.28176 L 34984.84034,2951.73151 L 35043.44322,2984.21304 Z" color="black" fill="black" stroke="none" transform="translate(-34416.793,-2951.680) rotate(0.000,35030.896,3017.868)"/>
	<path d="M 38005.96355,5002.18596 L 37994.08191,5043.73253 L 37967.51367,5022.10553 L 37995.59107,4993.98462 L 37995.9373,4966.17923 L 38047.56109,4993.92408 Z" color="black" fill="black" stroke="none" transform="translate(-37400.496,-4758.329) rotate(180.000,38005.987,5002.212)"/>
	<path d="M 1013.19536,7005.93237 L 987.67815,7033.18792 L 959.56658,7002.00855 L 970.04621,6999.0535 L 981.57988,6949.12755 L 1033.08848,6984.71123 Z" color="black" fill="black" stroke="none" transform="translate(-420.181,-6917.274) rotate(180.000,1013.217,7005.953)"/>
	<path d="M 11010.59049,3015.12436 L 11005.33748,3025.28347 L 10957.95325,3031.76964 L 10978.8183,2969.35152 L 10982.51589,2962.02015 L 11046.28501,2999.02112 Z" color="black" fill="black" stroke="none" transform="translate(-10345.628,-2843.747) rotate(270.000,11010.612,3015.147)"/>
	<path d="M 36018.50371,6000.90025 L 36020.59388,6040.16885 L 35973.79203,6026.45043 L 35967.84339,5967.01666 L 35975.68293,5951.65513 L 36037.12816,5971.07415 Z" color="black" fill="black" stroke="none" transform="translate(-35342.851,-5951.623) rotate(0.000,36018.534,6000.908)"/>
	<path d="M 21033.77273,4034.9339 L 21002.74693,4030.92633 L 20995.01626,4006.88813 L 20951.79622,3989.93278 L 21002.95447,3960.37172 L 21020.95133,3986.3853 Z" color="black" fill="black" stroke="none" transform="translate(-20420.614,-3736.642) rotate(90.000,21033.813,4034.969)"/>
	<path d="M 6033.465,1041.44336 L 5983.81816,1048.14375 L 5972.5893,1032.99385 L 5977.75529,964.8899 L 5993.05126,948.05775 L 6030.99384,985.9682 Z" color="black" fill="black" stroke="none" transform="translate(-5381.729,-949.389) rotate(180.000,6033.496,1041.469)"/>
	<path d="M 36031.65491,3042.62177 L 36010.40547,3018.34912 L 35957.4009,3006.72891 L 35990.66263,2996.12231 L 35988.61299,2961.23672 L 36016.43219,2997.09763 Z" color="black" fill="black" stroke="none" transform="translate(-35291.645,-2777.547) rotate(0.000,35990.631,2996.101)"/>
	<path d="M 35051.80015,5003.85026 L 35006.05191,5028.71933 L 34960.79378,5027.91575 L 34979.45812,4988.79899 L 35007.16738,4963.89902 L 35038.29886,4999.20564 Z" color="black" fill="black" stroke="none" transform="translate(-34336.214,-4999.275) rotate(270.000,35051.874,5003.844)"/>
	<path d="M 9009.50862,3003.36319 L 9003.13957,3036.06784 L 8951.7491,3025.17815 L 8983.62025,2991.15471 L 8980.78639,2949.48256 L 9019.46898,2974.12802 Z" color="black" fill="black" stroke="none" transform="translate(-8257.285,-2842.075) rotate(0.000,9009.538,3003.371)"/>
	<path d="M 39023.64349,3003.46984 L 38998.54422,3042.60495 L 38981.47218,3030.19931 L 38976.35553,2988.10107 L 38991.06716,2966.83569 L 39053.26128,2996.28828 Z" color="black" fill="black" stroke="none" transform="translate(-38281.322,-2908.440) rotate(180.000,39023.662,3003.496)"/>
	<path d="M 27008.66655,1013.78861 L 26986.30251,1038.46209 L 26982.86997,1006.2227 L 26974.13191,999.08631 L 27017.16384,953.50085 L 27042.58903,983.57846 Z" color="black" fill="black" stroke="none" transform="translate(-26253.029,-828.492) rotate(180.000,27008.688,1013.810)"/>
	<path d="M 33034.96868,7012.87931 L 32983.5892,7042.77527 L 32984.10746,7022.74998 L 32958.40663,6974.08296 L 32987.42521,6970.50337 L 33038.85342,6992.5454 Z" color="black" fill="black" stroke="none" transform="translate(-32271.642,-6716.153) rotate(90.000,33034.996,7012.898)"/>
	<path d="M 3045.35124,2012.37276 L 3008.80023,2048.25061 L 2991.64464,2000.52415 L 2982.31643,1978.99191 L 3012.4469,1956.22294 L 3006.44824,1998.46207 Z" color="black" fill="black" stroke="none" transform="translate(-2213.029,-1948.581) rotate(180.000,3006.481,1998.442)"/>
	<path d="M 28032.30851,7034.01712 L 28009.39553,7022.98128 L 27949.20425,7008.87552 L 27992.93203,6995.59953 L 27998.3678,6991.38164 L 28022.795,6964.6838 Z" color="black" fill="black" stroke="none" transform="translate(-27204.361,-6900.852) rotate(270.000,28032.346,7034.068)"/>
	<path d="M 29021.12386,3031.70047 L 29000.72559,3006.10844 L 28959.33041,3025.04107 L 28981.42991,2971.95626 L 28977.35566,2960.39964 L 29039.96403,2975.8695 Z" color="black" fill="black" stroke="none" transform="translate(-28181.535,-2748.887) rotate(90.000,29000.717,3006.145)"/>
	<path d="M 11038.25696,5022.46479 L 11002.56443,5008.23005 L 10987.84516,5013.97695 L 10957.05862,4992.36758 L 10981.30638,4955.09956 L 11041.20148,4982.8639 Z" color="black" fill="black" stroke="none" transform="translate(-10173.560,-4966.247) rotate(270.000,11038.284,5022.508)"/>
	<path d="M 12036.0414,5002.45484 L 12011.3691,5030.12148 L 11964.97969,5039.5095 L 11969.13746,4980.40153 L 11993.56806,4959.85288 L 12015.88737,4973.0989 Z" color="black" fill="black" stroke="none" transform="translate(-11228.047,-4808.334) rotate(180.000,12036.079,5002.457)"/>
	<path d="M 18033.70583,4029.39484 L 17990.87334,4040.3386 L 17957.0374,4021.54279 L 17961.71591,3988.93151 L 17993.53402,3971.53149 L 18035.76274,3968.42188 Z" color="black" fill="black" stroke="none" transform="translate(-17343.794,-3703.178) rotate(90.000,18033.735,4029.418)"/>
	<path d="M 9008.63444,2000.15137 L 9001.12753,2042.42172 L 8958.72996,2027.35549 L 8982.40773,1986.51942 L 8997.8309,1979.20226 L 9031.99053,1965.41564 Z" color="black" fill="black" stroke="none" transform="translate(-8589.405,-1728.692) rotate(270.000,9008.663,2000.163)"/>
	<path d="M 25037.64145,1016.15313 L 24997.00784,1052.48849 L 24984.40229,1003.2235 L 24979.25887,980.74963 L 25003.38035,976.0158 L 25052.82,988.59593 Z" color="black" fill="black" stroke="none" transform="translate(-24450.112,-746.524) rotate(270.000,25037.665,1016.172)"/>
	<path d="M 42025.8544,4024.57324 L 42002.34177,4038.65225 L 41974.83945,4017.33895 L 41958.53972,3988.50767 L 41978.00385,3955.40114 L 42019.36783,3994.50461 Z" color="black" fill="black" stroke="none" transform="translate(-41636.418,-3754.652) rotate(270.000,42025.888,4024.588)"/>
	<path d="M 13034.96758,2017.34526 L 12998.86282,2031.30857 L 12988.00993,2009.45087 L 12953.04593,1998.46483 L 13016.23605,1963.05237 L 13012.09558,1984.00907 Z" color="black" fill="black" stroke="none" transform="translate(-13035.014,-1740.395) rotate(180.000,13035.014,2017.360)"/>
	<path d="M 24035.70162,5003.00642 L 23987.11098,5023.2818 L 23951.57527,5020.80888 L 23966.98993,4956.98981 L 24004.23238,4970.07881 L 24025.93904,4978.95354 Z" color="black" fill="black" stroke="none" transform="translate(-23828.394,-4683.659) rotate(0.000,24035.741,5003.023)"/>
	<path d="M 42005.88719,5002.80455 L 41996.8643,5044.55368 L 41959.0819,5029.21947 L 41992.3425,4993.11974 L 42000.35439,4962.62929 L 42026.42026,4982.50552 Z" color="black" fill="black" stroke="none" transform="translate(-41759.982,-4711.556) rotate(270.000,42005.915,5002.820)"/>
	<path d="M 30038.10784,3010.61917 L 30016.654,3042.45597 L 29989.3917,3007.70243 L 29975.57165,2983.59252 L 29984.69925,2954.5259 L 30003.69559,2995.16449 Z" color="black" fill="black" stroke="none" transform="translate(-29530.844,-2739.860) rotate(270.000,30038.153,3010.606)"/>
	<path d="M 24027.66472,1019.20236 L 24001.64842,1033.49004 L 23952.39979,1007.914 L 23952.8127,981.73974 L 24010.20728,972.42123 L 24024.74377,960.4083 Z" color="black" fill="black" stroke="none" transform="translate(-23242.776,-721.371) rotate(180.000,24027.696,1019.220)"/>
	<path d="M 44046.51737,2020.64983 L 44007.06639,2017.98958 L 43955.98044,2023.12152 L 43968.80838,1962.61307 L 44002.22203,1984.74341 L 44014.15625,1999.17305 Z" color="black" fill="black" stroke="none" transform="translate(-43566.730,-1667.164) rotate(0.000,44046.628,2020.687)"/>
	<path d="M 11036.7167,4026.62374 L 11007.39574,4033.28456 L 10989.67568,4003.93865 L 10966.89211,3979.86032 L 10991.9052,3954.89452 L 11024.49737,3984.10683 Z" color="black" fill="black" stroke="none" transform="translate(-10987.684,-3673.985) rotate(90.000,11036.754,4026.646)"/>
	<path d="M 39015.35723,1004.45502 L 38989.31329,1032.35993 L 38971.73338,1008.50465 L 38979.82623,992.58693 L 39005.73381,946.32866 L 39035.23798,995.67998 Z" color="black" fill="black" stroke="none" transform="translate(-38345.183,-696.672) rotate(270.000,39015.375,1004.480)"/>
	<path d="M 17042.80603,4024.78936 L 16997.17039,4039.18334 L 16993.88551,4008.23891 L 16963.938,3982.33961 L 16985.53476,3970.06937 L 17022.66681,3974.90217 Z" color="black" fill="black" stroke="none" transform="translate(-16540.692,-3703.976) rotate(180.000,17042.846,4024.808)"/>
	<path d="M 8017.3667,2027.91459 L 7984.81758,2037.19807 L 7962.88046,2012.38757 L 7983.13128,1991.85033 L 7991.80307,1982.89902 L 8037.95609,1964.66709 Z" color="black" fill="black" stroke="none" transform="translate(-7729.649,-1672.281) rotate(90.000,8017.390,2027.939)"/>
	<path d="M 39022.10879,2019.07531 L 39017.36924,2038.27602 L 38958.12227,2014.25534 L 38980.60325,1984.37096 L 38995.31941,1965.78441 L 39033.11186,1973.23386 Z" color="black" fill="black" stroke="none" transform="translate(-38811.508,-1655.628) rotate(90.000,39022.138,2019.082)"/>
	<path d="M 39047.18835,5023.28931 L 39002.32343,5025.51166 L 38991.55164,5008.32561 L 38974.0657,4988.73649 L 38984.30368,4951.3488 L 39005.5447,4991.91272 Z" color="black" fill="black" stroke="none" transform="translate(-38273.985,-4724.672) rotate(270.000,39047.273,5023.315)"/>
	<path d="M 20031.86342,2028.99217 L 19997.73451,2016.24357 L 19963.98419,2033.35873 L 19988.29818,1992.93731 L 20001.81411,1964.41168 L 20042.08006,1972.05399 Z" color="black" fill="black" stroke="none" transform="translate(-19420.258,-1646.460) rotate(90.000,20031.887,2029.033)"/>
	<path d="M 38032.71101,2014.84233 L 37988.19772,2044.22227 L 37991.45394,2001.68064 L 37965.03549,1997.20971 L 38002.16497,1993.09456 L 38031.18809,1964.96655 Z" color="black" fill="black" stroke="none" transform="translate(-37874.452,-1653.068) rotate(90.000,37991.422,2001.706)"/>
	<path d="M 11039.4479,6011.73322 L 11004.45596,6021.63212 L 10956.52262,6024.81108 L 10994.2645,5996.13611 L 11005.4652,5960.03668 L 11019.47987,5985.20959 Z" color="black" fill="black" stroke="none" transform="translate(-11026.404,-5620.140) rotate(90.000,11039.498,6011.750)"/>
	<path d="M 34032.47975,2030.98098 L 34019.38504,2040.70072 L 33980.70292,2015.83983 L 33968.33318,1956.974 L 34002.86838,1981.82209 L 34026.74163,1994.31427 Z" color="black" fill="black" stroke="none" transform="translate(-33246.704,-1631.430) rotate(90.000,34032.512,2030.994)"/>
	<path d="M 8031.74797,1041.10721 L 8014.99469,1029.05683 L 7969.9743,1028.76858 L 7966.47762,988.4208 L 8019.03461,959.23649 L 8019.18033,981.32443 Z" color="black" fill="black" stroke="none" transform="translate(-7519.216,-694.523) rotate(270.000,8031.793,1041.177)"/>
	<path d="M 1037.26252,2037.48632 L 1010.30038,2044.89509 L 991.72439,2004.13048 L 970.57502,1965.02677 L 987.91376,1966.23728 L 1019.70304,1980.6778 Z" color="black" fill="black" stroke="none" transform="translate(-686.641,-1699.441) rotate(180.000,1037.300,2037.507)"/>
	<path d="M 43033.58568,6004.4002 L 43000.43466,6019.78086 L 42973.18218,6028.34731 L 42964.98956,5983.03954 L 43004.91181,5950.74002 L 43020.24348,5985.08959 Z" color="black" fill="black" stroke="none" transform="translate(-42954.024,-5651.149) rotate(270.000,43033.631,6004.412)"/>
	<path d="M 17027.52956,5003.07215 L 16997.79723,5037.02746 L 16966.15138,5006.67998 L 16965.23248,4998.34393 L 17021.65151,4954.66278 L 17029.69388,4954.49534 Z" color="black" fill="black" stroke="none" transform="translate(-16854.726,-4660.649) rotate(270.000,17027.559,5003.084)"/>
	<path d="M 25023.93714,5029.02827 L 24997.5525,5040.69297 L 24964.63871,5031.88247 L 24965.11112,4997.07485 L 24994.14257,4980.48482 L 25037.24724,4967.69501 Z" color="black" fill="black" stroke="none" transform="translate(-24701.947,-4662.233) rotate(270.000,25023.963,5029.050)"/>
	<path d="M 14005.56195,5008.39198 L 13999.84281,5014.2442 L 13949.87217,5018.92551 L 13960.3149,4996.64675 L 13989.3416,4949.53158 L 14026.11092,4986.20339 Z" color="black" fill="black" stroke="none" transform="translate(-13403.969,-4593.116) rotate(0.000,14005.584,5008.413)"/>
	<path d="M 41046.43933,5010.84897 L 41003.64393,5032.86824 L 40968.00319,5012.52523 L 40974.14249,4973.27495 L 41002.15114,4984.93641 L 41035.85787,4966.47317 Z" color="black" fill="black" stroke="none" transform="translate(-40268.292,-4610.361) rotate(0.000,41046.474,5010.865)"/>
	<path d="M 5049.98514,3021.45137 L 5001.92178,3013.51455 L 4962.49455,3026.61818 L 4993.44303,2989.3579 L 5000.83887,2972.87056 L 5021.78327,2967.21134 Z" color="black" fill="black" stroke="none" transform="translate(-4794.818,-2599.804) rotate(0.000,5050.039,3021.491)"/>
	<path d="M 30053.63118,6010.70363 L 29995.02702,6009.29487 L 29985.03392,6020.35386 L 29956.9302,5969.92062 L 29991.22724,5966.61273 L 30015.51756,5973.34653 Z" color="black" fill="black" stroke="none" transform="translate(-29181.281,-5678.985) rotate(270.000,30053.707,6010.735)"/>
	<path d="M 34004.60447,5003.42936 L 34008.78487,5030.41683 L 33963.47625,5026.85319 L 33958.94084,4968.80908 L 33999.77788,4990.28134 L 34042.9416,4971.38504 Z" color="black" fill="black" stroke="none" transform="translate(-33148.718,-4957.714) rotate(90.000,34004.637,5003.442)"/>
	<path d="M 37031.7346,5041.11412 L 37003.71206,5033.90099 L 36989.4751,5015.96138 L 36969.85435,4967.98051 L 37009.34073,4957.57654 L 37013.91876,4978.2435 Z" color="black" fill="black" stroke="none" transform="translate(-36410.539,-4596.961) rotate(90.000,37031.778,5041.156)"/>
	<path d="M 16016.12218,3018.87312 L 15989.49788,3043.77054 L 15962.65796,3017.16597 L 15982.09011,2985.99146 L 16003.77994,2983.77484 L 16035.795,2973.05506 Z" color="black" fill="black" stroke="none" transform="translate(-15510.973,-2621.977) rotate(180.000,16016.147,3018.891)"/>
	<path d="M 46020.08253,3018.36753 L 45999.86867,3007.46093 L 45962.21395,3033.75145 L 45955.60274,2978.07111 L 46002.31932,2953.59003 L 46017.24691,2975.36627 Z" color="black" fill="black" stroke="none" transform="translate(-45191.600,-2621.674) rotate(270.000,46020.116,3018.420)"/>
	<path d="M 19044.66772,4007.50674 L 19011.95517,4044.3217 L 18964.2019,4036.21371 L 18988.86608,3989.98347 L 18998.09697,3994.69674 L 19040.98402,3980.08007 Z" color="black" fill="black" stroke="none" transform="translate(-18957.859,-3574.969) rotate(180.000,19044.699,4007.516)"/>
	<path d="M 46010.43187,6003.71076 L 46000.08131,6015.78462 L 45967.73607,6041.27033 L 45954.86779,5997.53754 L 45986.06462,5973.0637 L 46030.32238,5978.22462 Z" color="black" fill="black" stroke="none" transform="translate(-45979.767,-5598.388) rotate(270.000,46010.455,6003.730)"/>
	<path d="M 45018.92162,6016.00774 L 45018.12071,6048.72752 L 44979.03129,6017.90615 L 44983.56861,5991.36803 L 44988.52993,5960.89034 L 45037.34923,5962.72121 Z" color="black" fill="black" stroke="none" transform="translate(-44685.519,-5612.460) rotate(180.000,45018.951,6016.013)"/>
	<path d="M 47028.62888,1024.827 L 46989.6698,1025.09056 L 46969.44252,1040.77947 L 46968.01243,979.97288 L 46999.86521,985.56622 L 47051.6809,986.94779 Z" color="black" fill="black" stroke="none" transform="translate(-46640.059,-614.082) rotate(180.000,47028.646,1024.857)"/>
	<path d="M 23046.37394,5028.85331 L 23008.52984,5040.22766 L 22987.03715,5014.71792 L 22986.55684,4993.78331 L 23007.05544,4955.26218 L 23013.83859,4995.31707 Z" color="black" fill="black" stroke="none" transform="translate(-22770.292,-4627.473) rotate(270.000,23046.430,5028.868)"/>
	<path d="M 15011.98402,2006.83256 L 14999.53864,2035.62575 L 14994.56664,2007.46472 L 14954.4135,1991.3468 L 14983.74721,1962.09429 L 15023.24794,1970.73751 Z" color="black" fill="black" stroke="none" transform="translate(-14317.204,-1540.967) rotate(90.000,15012.012,2006.843)"/>
	<path d="M 8028.77738,7012.51796 L 8007.53902,7029.0518 L 7975.55824,7015.37842 L 7961.84047,6969.89822 L 7999.40411,6963.78569 L 8039.35915,6975.36172 Z" color="black" fill="black" stroke="none" transform="translate(-7463.397,-6573.970) rotate(180.000,8028.804,7012.536)"/>
	<path d="M 30027.41202,4037.32452 L 30006.50793,4026.96013 L 29966.22013,4028.53096 L 29968.56685,3998.44345 L 29998.06016,3955.47222 L 30012.84852,3996.46303 Z" color="black" fill="black" stroke="none" transform="translate(-29817.673,-3611.315) rotate(270.000,30027.465,4037.384)"/>
	<path d="M 1008.07752,5007.67772 L 988.52565,5044.47553 L 973.14931,5033.86305 L 994.17597,4991.69242 L 990.98136,4981.95671 L 1047.78462,4977.36718 Z" color="black" fill="black" stroke="none" transform="translate(-558.850,-4552.011) rotate(180.000,1008.101,5007.698)"/>
	<path d="M 3037.84171,5016.26367 L 2977.00874,5046.54528 L 2993.13208,5009.90728 L 2994.6851,4997.33706 L 3009.47577,4969.32938 L 3041.86415,4988.073 Z" color="black" fill="black" stroke="none" transform="translate(-2148.355,-4557.168) rotate(0.000,3037.869,5016.284)"/>
	<path d="M 25010.49516,2007.19719 L 25000.14227,2045.5736 L 24980.28358,2033.17222 L 24946.47449,1997.29716 L 25001.44706,1987.62865 L 25032.84727,1990.89109 Z" color="black" fill="black" stroke="none" transform="translate(-24136.987,-1857.899) rotate(90.000,25010.521,2007.215)"/>
	<path d="M 47021.08759,3011.85461 L 47009.882,3020.01101 L 46965.63461,3041.0661 L 46989.54017,2982.80566 L 46990.0635,2976.12551 L 47031.59928,2965.23421 Z" color="black" fill="black" stroke="none" transform="translate(-46505.011,-2559.208) rotate(180.000,47021.114,3011.872)"/>
	<path d="M 33015.51243,3009.5677 L 33012.19005,3049.68154 L 32985.8738,3009.0085 L 32958.93161,2989.80166 L 33001.39169,2992.12566 L 33033.00915,2982.22168 Z" color="black" fill="black" stroke="none" transform="translate(-32948.954,-2541.251) rotate(180.000,33015.542,3009.578)"/>
	<path d="M 31032.05707,2044.35338 L 30989.77118,2050.04526 L 30990.34701,2006.12452 L 30976.32919,1986.40328 L 30999.51755,1960.57269 L 31026.37305,1971.19724 Z" color="black" fill="black" stroke="none" transform="translate(-30809.378,-1541.051) rotate(90.000,31032.089,2044.379)"/>
	<path d="M 24021.08296,3009.65607 L 24009.20304,3024.66693 L 23993.04005,3002.59186 L 23962.75179,2969.95119 L 24004.11417,2987.4904 L 24053.58982,2991.27536 Z" color="black" fill="black" stroke="none" transform="translate(-23494.197,-2923.262) rotate(270.000,24021.103,3009.679)"/>
	<path d="M 11033.13775,2033.89301 L 11005.08825,2013.86747 L 10996.07225,2005.83143 L 10965.56279,1991.36569 L 10983.39976,1960.71047 L 11009.99101,1993.86911 Z" color="black" fill="black" stroke="none" transform="translate(-10301.505,-1609.982) rotate(180.000,11033.233,2033.998)"/>
	<path d="M 10034.47833,2040.15779 L 9995.96564,2024.94708 L 9985.69088,2018.44618 L 9973.91192,1960.84718 L 9981.71054,1959.00182 L 10017.34394,1971.26594 Z" color="black" fill="black" stroke="none" transform="translate(-9634.207,-1590.568) rotate(270.000,10034.522,2040.207)"/>
	<path d="M 2028.79253,3037.05846 L 1995.5176,3011.96815 L 1971.5968,3030.30021 L 1992.60311,2999.12527 L 2009.31727,2951.3815 L 2027.85401,2955.06738 Z" color="black" fill="black" stroke="none" transform="translate(-1352.615,-2544.718) rotate(90.000,1995.518,3012.006)"/>
	<path d="M 6054.16869,2003.21643 L 5993.18439,2040.37206 L 5996.06106,2006.40548 L 5987.15921,1987.83248 L 6005.41572,1967.23399 L 6025.68627,1996.67662 Z" color="black" fill="black" stroke="none" transform="translate(-5311.137,-1558.479) rotate(270.000,6054.247,2003.204)"/>
	<path d="M 35028.69897,2010.55171 L 34993.15065,2016.75159 L 34972.09243,2028.4031 L 34953.10626,1978.89236 L 35004.88904,1984.08842 L 35051.80373,1997.44941 Z" color="black" fill="black" stroke="none" transform="translate(-34591.495,-1524.037) rotate(180.000,35028.709,2010.580)"/>
	<path d="M 6026.26222,7006.406 L 6012.94717,7052.82063 L 5952.89363,7021.52199 L 5948.61697,6989.92733 L 5998.50341,6993.69614 L 6018.56517,6999.04588 Z" color="black" fill="black" stroke="none" transform="translate(-5909.423,-6496.112) rotate(180.000,6026.296,7006.397)"/>
	<path d="M 40022.26744,4005.36875 L 39994.47904,4044.65839 L 39983.16008,4021.88911 L 39954.00574,3973.846 L 39995.96967,3990.79203 L 40012.11886,3979.42588 Z" color="black" fill="black" stroke="none" transform="translate(-39164.291,-3477.941) rotate(90.000,40022.301,4005.373)"/>
	<path d="M 7050.63337,7017.86299 L 7012.83891,7044.25613 L 6981.39858,7002.47003 L 6987.31521,6988.06078 L 7004.98435,6989.45833 L 7042.59311,6974.52198 Z" color="black" fill="black" stroke="none" transform="translate(-6504.618,-6470.894) rotate(90.000,7050.666,7017.877)"/>
	<path d="M 19046.70005,2007.18313 L 18999.87169,2006.28108 L 18965.32605,2005.16556 L 18988.00335,1997.60598 L 19010.24802,1948.4444 L 19047.44111,1974.83542 Z" color="black" fill="black" stroke="none" transform="translate(-19046.729,-1493.381) rotate(90.000,19046.729,2007.214)"/>
	<path d="M 48039.8848,6007.26595 L 47984.92481,6046.87003 L 47994.56888,6001.95095 L 47995.7046,5996.33028 L 48012.53654,5959.17427 L 48020.19919,5990.8128 Z" color="black" fill="black" stroke="none" transform="translate(-47977.997,-5515.569) rotate(270.000,48039.934,6007.268)"/>
	<path d="M 44005.60325,6001.04783 L 43987.9651,6051.31247 L 43958.27609,6015.89322 L 43994.40029,5997.44329 L 44001.71032,5983.53158 L 44029.20457,5999.17804 Z" color="black" fill="black" stroke="none" transform="translate(-43795.834,-5502.281) rotate(270.000,44005.625,6001.076)"/>
	<path d="M 42025.50568,2022.08313 L 41987.56633,2027.99716 L 41984.89852,2016.48162 L 41963.35068,1985.72728 L 42010.8384,1961.96532 L 42035.98691,1980.65503 Z" color="black" fill="black" stroke="none" transform="translate(-41657.513,-1479.501) rotate(90.000,42025.530,2022.110)"/>
	<path d="M 10019.5406,4017.05437 L 10006.58887,4031.01784 L 9949.42184,4000.97123 L 9984.40074,3980.3829 L 9987.95568,3962.65243 L 10003.14893,3995.82549 Z" color="black" fill="black" stroke="none" transform="translate(-9731.453,-3464.981) rotate(90.000,10019.580,4017.056)"/>
	<path d="M 2026.82066,6042.50419 L 2020.92863,6046.01998 L 1981.83536,6015.35532 L 1994.57582,5995.59217 L 2007.62702,5971.35492 L 2045.82325,5984.41798 Z" color="black" fill="black" stroke="none" transform="translate(-1259.555,-5509.683) rotate(90.000,2026.846,6042.524)"/>
	<path d="M 48026.23358,4006.68801 L 47997.73566,4041.94998 L 47961.9329,4025.51929 L 47981.15514,3990.10347 L 47995.52046,3990.75912 L 48027.97678,3970.60078 Z" color="black" fill="black" stroke="none" transform="translate(-47406.063,-3450.650) rotate(90.000,48026.263,4006.699)"/>
	<path d="M 46021.75613,4018.09238 L 45992.08666,4015.21154 L 45961.86416,4028.36897 L 45965.15829,3980.74974 L 45991.8007,3949.81834 L 46003.78435,3994.37227 Z" color="black" fill="black" stroke="none" transform="translate(-45316.939,-3522.278) rotate(270.000,46021.821,4018.129)"/>
	<path d="M 22049.61219,3005.29195 L 22000.24739,3008.25587 L 21975.26241,3018.04064 L 21980.83184,2994.67388 L 22012.96567,2954.94775 L 22023.33452,2978.35902 Z" color="black" fill="black" stroke="none" transform="translate(-21262.603,-2451.626) rotate(0.000,22049.679,3005.318)"/>
	<path d="M 7014.46973,5009.50519 L 7025.6131,5044.57666 L 6980.98536,5016.49512 L 6970.42273,4959.91547 L 7001.48104,4959.78391 L 7004.23818,4994.09795 Z" color="black" fill="black" stroke="none" transform="translate(-6526.039,-4483.494) rotate(270.000,7014.497,5009.492)"/>
	<path d="M 36019.40618,1022.19263 L 35997.96673,1027.36746 L 35950.86104,1014.48933 L 35952.27908,999.70483 L 35999.69648,959.23959 L 36017.05226,984.40071 Z" color="black" fill="black" stroke="none" transform="translate(-35649.593,-445.175) rotate(0.000,36019.438,1022.216)"/>
	<path d="M 17023.32141,1023.34351 L 16993.89553,1016.96779 L 16985.1097,1013.46731 L 16960.08887,989.33553 L 16982.00276,959.58727 L 17033.26442,985.58539 Z" color="black" fill="black" stroke="none" transform="translate(-16913.442,-508.161) rotate(180.000,17023.343,1023.379)"/>
	<path d="M 24030.03246,7021.28155 L 24000.77589,7029.84706 L 23958.24635,7019.66086 L 23969.98134,6971.19947 L 23987.81193,6977.19261 L 24024.31087,6965.14976 Z" color="black" fill="black" stroke="none" transform="translate(-23134.691,-6448.118) rotate(0.000,24030.065,7021.303)"/>
	<path d="M 15005.40613,6006.06489 L 14986.76598,6038.39097 L 14960.70768,6007.9435 L 14991.06356,5993.21421 L 14994.80768,5980.91838 L 15041.3942,5992.90637 Z" color="black" fill="black" stroke="none" transform="translate(-14767.103,-5454.698) rotate(180.000,15005.427,6006.089)"/>
	<path d="M 40040.37606,2011.98668 L 39987.72488,2029.84128 L 39984.46921,2005.90118 L 39965.20884,1974.53031 L 39984.7517,1968.39279 L 40019.23208,1982.44037 Z" color="black" fill="black" stroke="none" transform="translate(-39965.181,-1445.204) rotate(0.000,40040.424,2012.002)"/>
	<path d="M 27016.45372,5022.10434 L 27008.25766,5019.43162 L 26958.79247,5026.32995 L 26955.29656,4970.83066 L 26986.16613,4950.8558 L 27011.81566,4980.45612 Z" color="black" fill="black" stroke="none" transform="translate(-26416.145,-4482.146) rotate(270.000,27016.489,5022.147)"/>
	<path d="M 27017.39875,6003.94159 L 26989.89841,6039.66577 L 26985.42734,6017.45888 L 26967.70467,5963.53267 L 26995.96788,5969.1058 L 27028.30596,5979.98521 Z" color="black" fill="black" stroke="none" transform="translate(-26853.827,-5441.676) rotate(180.000,27017.425,6003.957)"/>
	<path d="M 7020.50403,4001.95898 L 7008.17288,4039.6498 L 6976.07095,4017.32738 L 6967.97607,3972.0238 L 6997.05852,3982.01459 L 7036.07538,3979.9026 Z" color="black" fill="black" stroke="none" transform="translate(-6924.517,-3444.153) rotate(270.000,7020.531,4001.973)"/>
	<path d="M 23051.50841,1008.47487 L 22996.20744,1008.49472 L 22958.03629,1016.23802 L 22979.01982,974.93536 L 23003.81881,972.84213 L 23019.79136,967.12034 Z" color="black" fill="black" stroke="none" transform="translate(-22725.645,-406.998) rotate(0.000,23051.569,1008.505)"/>
	<path d="M 10034.02341,5007.98113 L 10001.44363,5008.60611 L 9953.27338,5015.47701 L 9989.39434,4990.21638 L 9987.73755,4961.68748 L 10038.54195,4998.23949 Z" color="black" fill="black" stroke="none" transform="translate(-9619.518,-4413.161) rotate(0.000,10034.043,5008.011)"/>
	<path d="M 18027.26313,2024.99113 L 18014.34961,2044.15971 L 17989.51806,2014.87583 L 17969.3365,1996.81235 L 17992.92948,1981.47991 L 18042.46592,1999.25821 Z" color="black" fill="black" stroke="none" transform="translate(-17537.986,-1431.021) rotate(90.000,18027.289,2025.007)"/>
	<path d="M 8028.28648,3022.94914 L 8015.50731,3041.86341 L 7982.12549,3024.68481 L 7979.26847,2995.11885 L 8004.88629,2948.41532 L 8006.98223,2997.77096 Z" color="black" fill="black" stroke="none" transform="translate(-7352.152,-2469.809) rotate(270.000,8028.324,3022.947)"/>
	<path d="M 43019.37677,4011.04907 L 42997.12195,4016.3403 L 42966.52293,4039.84157 L 42966.88112,3978.9307 L 42998.33369,3970.03143 L 43031.92089,3974.13232 Z" color="black" fill="black" stroke="none" transform="translate(-42272.091,-3438.645) rotate(180.000,43019.400,4011.074)"/>
	<path d="M 11004.66809,1006.75705 L 10994.35281,1041.6598 L 10990.55559,1006.88427 L 10967.22996,979.95881 L 11010.03856,966.02882 L 11027.22151,966.8029 Z" color="black" fill="black" stroke="none" transform="translate(-10579.407,-430.987) rotate(180.000,11004.696,1006.769)"/>
	<path d="M 32041.2654,4008.52155 L 32017.27645,4034.02779 L 31952.27895,4026.23562 L 31992.39504,3999.94823 L 31992.3785,3983.20607 L 32032.14913,3994.62967 Z" color="black" fill="black" stroke="none" transform="translate(-31168.240,-3754.850) rotate(270.000,32041.303,4008.525)"/>
	<path d="M 34033.10761,4023.37374 L 33988.95325,4050.90359 L 33967.17281,4015.47574 L 33992.56783,3996.17131 L 34008.95687,3982.4329 L 34008.70804,3990.35168 Z" color="black" fill="black" stroke="none" transform="translate(-33296.095,-3410.890) rotate(0.000,34033.151,4023.382)"/>
	<path d="M 22.14914,3012.355 L 5.7861,3044.48002 L -13.95981,3005.85284 L -19.04914,2975.56361 L 4.39899,2974.90465 L 45.82551,2988.19454 Z" color="black" fill="black" stroke="none" transform="translate(9.967,-2397.011) rotate(90.000,22.174,3012.373)"/>
	<path d="M 2018.1456,2017.53766 L 2002.87183,2011.9949 L 1991.15484,2012.70653 L 1949.81935,1981.85845 L 2009.82549,1951.82957 L 2012.11592,1997.62442 Z" color="black" fill="black" stroke="none" transform="translate(-1918.984,-1378.411) rotate(90.000,2018.192,2017.586)"/>
	<path d="M 2016.11082,4000.0934 L 2010.77602,4049.16893 L 1969.63509,4026.49405 L 1983.41215,3995.22965 L 2014.36624,3953.00332 L 2015.97603,3987.36081 Z" color="black" fill="black" stroke="none" transform="translate(-1518.786,-3365.714) rotate(90.000,2016.141,4000.095)"/>
	<path d="M 14043.03629,3001.25932 L 13988.32085,3026.0389 L 13963.45835,3008.40692 L 13974.71169,2969.96919 L 14000.31602,2977.38377 L 14005.72752,2998.50551 Z" color="black" fill="black" stroke="none" transform="translate(-13164.071,-2402.109) rotate(0.000,14005.751,2998.477)"/>
	<path d="M 20050.12838,1009.49049 L 20008.18591,1017.06175 L 19976.42437,1006.51008 L 19971.97224,981.14909 L 19979.20181,960.48838 L 20005.38878,996.96667 Z" color="black" fill="black" stroke="none" transform="translate(-19450.902,-388.063) rotate(0.000,20050.262,1009.497)"/>
	<path d="M 22043.6116,2026.70466 L 21999.14687,2030.76093 L 21981.81944,2014.02105 L 21994.67535,1997.87793 L 21991.91689,1984.40682 L 22030.46238,1959.29162 Z" color="black" fill="black" stroke="none" transform="translate(-21441.511,-1374.874) rotate(90.000,22043.647,2026.732)"/>
	<path d="M 7016.66953,3005.6133 L 6980.0558,3036.8684 L 6979.98642,3025.43225 L 6991.46347,2993.39816 L 7002.65874,2992.31492 L 7040.91686,2964.62327 Z" color="black" fill="black" stroke="none" transform="translate(-6837.103,-2403.453) rotate(270.000,7016.693,3005.633)"/>
	<path d="M 1029.18585,1004.91538 L 990.04729,1026.46494 L 965.38556,1001.00982 L 989.69432,986.0654 L 998.97551,992.16212 L 1028.23694,957.49479 Z" color="black" fill="black" stroke="none" transform="translate(-133.944,-376.336) rotate(0.000,998.970,992.122)"/>
	<path d="M 48024.85501,5008.19815 L 47992.54505,5014.49634 L 47979.755,5000.3917 L 47983.88912,4983.57031 L 48022.29474,4951.08082 L 48048.84314,4986.89896 Z" color="black" fill="black" stroke="none" transform="translate(-47665.740,-4406.631) rotate(180.000,48024.869,5008.226)"/>
	<path d="M 26017.19906,6005.98804 L 25979.98355,6046.73261 L 25993.39194,6002.96886 L 25987.45814,5991.0712 L 25991.50583,5973.7095 L 26032.60673,5963.53036 Z" color="black" fill="black" stroke="none" transform="translate(-25797.707,-5367.354) rotate(90.000,26017.225,6006.004)"/>
	<path d="M 7014.99054,2019.64255 L 7003.59042,2008.29888 L 6971.5274,2008.2653 L 6973.71678,1979.75577 L 6990.75773,1960.75912 L 7045.81457,1979.05492 Z" color="black" fill="black" stroke="none" transform="translate(-6722.607,-1418.169) rotate(180.000,7014.994,2019.688)"/>
	<path d="M 20021.00713,5008.58766 L 19996.51707,5032.43857 L 19970.55286,5023.87642 L 19966.40533,4991.05466 L 20001.87272,4953.17534 L 20018.04759,4988.15329 Z" color="black" fill="black" stroke="none" transform="translate(-19220.402,-4401.401) rotate(270.000,20021.039,5008.598)"/>
	<path d="M 2021.33036,7021.33567 L 1988.32027,7050.14511 L 1990.01745,7005.58852 L 1976.69955,6996.60253 L 2005.95557,6970.83698 L 2031.22873,6971.32343 Z" color="black" fill="black" stroke="none" transform="translate(-1569.595,-6391.614) rotate(270.000,2021.358,7021.352)"/>
	<path d="M 1014.61103,4014.79518 L 1002.991,4005.22219 L 963.76435,4034.35452 L 985.09991,3999.23474 L 1003.29101,3954.07306 L 1017.46813,3997.96279 Z" color="black" fill="black" stroke="none" transform="translate(-973.789,-3356.784) rotate(90.000,1002.990,4005.260)"/>
	<path d="M 21030.15588,7030.8547 L 21019.97372,7046.21404 L 20961.82787,7018.12042 L 20973.00114,6983.02393 L 21004.26034,6991.85298 L 21020.22924,6988.4283 Z" color="black" fill="black" stroke="none" transform="translate(-20324.268,-6389.941) rotate(180.000,21030.188,7030.860)"/>
	<path d="M 25033.3472,6020.87569 L 25010.32237,6019.60042 L 24995.91641,6004.34787 L 24963.91948,5959.03272 L 24986.69709,5962.25183 L 25011.60813,5987.77268 Z" color="black" fill="black" stroke="none" transform="translate(-24901.822,-5337.718) rotate(0.000,25033.405,6020.909)"/>
	<path d="M 33037.6572,1003.24285 L 33021.58413,1049.31712 L 32981.30913,1023.65537 L 32984.56053,984.91536 L 32999.81019,980.26422 L 33029.66114,973.14723 Z" color="black" fill="black" stroke="none" transform="translate(-32887.287,-371.677) rotate(270.000,33037.689,1003.244)"/>
	<path d="M 4033.88877,5008.21101 L 4004.91316,5044.69382 L 3986.7602,5015.61219 L 3963.58036,4993.69425 L 4000.80824,4983.67784 L 4031.92667,4993.01874 Z" color="black" fill="black" stroke="none" transform="translate(-3513.515,-4345.302) rotate(180.000,4033.920,5008.220)"/>
	<path d="M 6020.43106,4018.05571 L 5981.12806,4049.26977 L 5971.33235,4007.98666 L 5994.6762,3994.31095 L 6000.14464,3989.16 L 6032.06141,3978.67824 Z" color="black" fill="black" stroke="none" transform="translate(-5341.397,-3334.857) rotate(90.000,6020.457,4018.073)"/>
	<path d="M 5027.58667,1002.0376 L 4994.38214,1038.42512 L 4985.19923,1005.09843 L 4946.44038,995.48256 L 4995.08064,986.57908 L 5019.3687,985.70494 Z" color="black" fill="black" stroke="none" transform="translate(-4845.930,-331.128) rotate(180.000,5027.623,1002.043)"/>
	<path d="M 2036.14879,5031.12178 L 2012.99279,5023.04058 L 1993.87865,5000.71211 L 1970.27499,4997.15402 L 1993.51758,4987.61818 L 2026.77803,4966.17892 Z" color="black" fill="black" stroke="none" transform="translate(-1733.923,-4340.726) rotate(90.000,2036.186,5031.166)"/>
	<path d="M 32024.6383,5015.05748 L 32005.95992,5037.24591 L 31990.7592,5014.86807 L 31974.53136,4986.57194 L 32009.93845,4951.90258 L 32014.36986,4996.78429 Z" color="black" fill="black" stroke="none" transform="translate(-31383.874,-4370.745) rotate(270.000,32024.675,5015.061)"/>
	<path d="M 32023.81809,3028.25401 L 32015.42795,3041.4492 L 31969.63377,3006.49995 L 31979.12768,2994.60359 L 31994.85237,2975.65353 L 32034.50952,2978.89019 Z" color="black" fill="black" stroke="none" transform="translate(-31203.036,-2385.384) rotate(180.000,32023.846,3028.266)"/>
	<path d="M 39027.51886,6005.9845 L 39010.16498,6046.9419 L 38985.0385,6006.00915 L 38992.2934,5999.00948 L 39000.74006,5947.23422 L 39008.21601,5993.11528 Z" color="black" fill="black" stroke="none" transform="translate(-38968.451,-5350.294) rotate(270.000,39027.556,6005.973)"/>
	<path d="M 19021.39409,7007.6036 L 19014.52787,7050.00665 L 18971.03527,7032.91694 L 18978.54166,6993.93259 L 18992.59331,6976.24884 L 19028.30478,6998.7691 Z" color="black" fill="black" stroke="none" transform="translate(-18619.655,-6299.449) rotate(90.000,19021.422,7007.616)"/>
	<path d="M 5023.24943,2015.59155 L 5000.00766,2026.14014 L 4977.54562,2013.46363 L 4964.52559,1984.19614 L 4976.22394,1954.282 L 5007.22227,1999.09561 Z" color="black" fill="black" stroke="none" transform="translate(-4730.825,-1363.155) rotate(270.000,5023.301,2015.601)"/>
	<path d="M 48020.4648,1017.56571 L 48019.24637,1034.364 L 47992.06109,1009.89907 L 47980.22007,997.87021 L 47991.737,953.61663 L 48032.22685,972.54878 Z" color="black" fill="black" stroke="none" transform="translate(-47584.119,-315.391) rotate(90.000,48020.495,1017.571)"/>
	<path d="M 43025.71388,1033.57142 L 42986.88484,1042.31914 L 42974.48945,1002.20712 L 42975.82332,993.03571 L 42987.84944,976.77215 L 43030.45941,967.81288 Z" color="black" fill="black" stroke="none" transform="translate(-42394.712,-305.947) rotate(90.000,43025.742,1033.596)"/>
	<path d="M 16030.44251,7013.70224 L 16004.09795,7012.72811 L 15960.2729,7027.21236 L 15980.47386,6998.94875 L 15993.61735,6968.35243 L 16029.04021,6981.81223 Z" color="black" fill="black" stroke="none" transform="translate(-15521.351,-6284.457) rotate(90.000,16030.474,7013.733)"/>
	<path d="M 34020.36946,3030.33663 L 34007.33003,3018.54539 L 33973.14477,3022.87451 L 33992.08373,2996.37467 L 34004.46537,2963.06854 L 34030.60192,2958.55366 Z" color="black" fill="black" stroke="none" transform="translate(-33929.912,-2308.697) rotate(90.000,34020.391,3030.397)"/>
	<path d="M 39003.77258,4003.66289 L 38992.42989,4018.5286 L 38953.68925,4005.07493 L 38981.77437,3993.92216 L 38981.53662,3966.40205 L 39032.60994,3999.04518 Z" color="black" fill="black" stroke="none" transform="translate(-38249.668,-3286.397) rotate(0.000,38981.744,3993.902)"/>
	<path d="M 9016.32081,1011.08776 L 9005.75179,1044.64725 L 8994.84702,1006.57393 L 8987.40304,989.2281 L 8989.8257,979.12267 L 9050.04763,980.69673 Z" color="black" fill="black" stroke="none" transform="translate(-8260.824,-979.092) rotate(0.000,9016.347,1011.105)"/>
	<path d="M 22022.19072,7034.82577 L 22005.47504,7027.79358 L 21982.41286,7027.72305 L 21976.68443,6974.17234 L 22002.84791,6969.68088 L 22039.75957,6974.04396 Z" color="black" fill="black" stroke="none" transform="translate(-21956.994,-6334.104) rotate(270.000,22022.210,7034.867)"/>
	<path d="M 35034.66736,4035.05463 L 35007.71791,4019.86861 L 34973.18754,4006.46143 L 34970.81342,3995.03711 L 35011.75911,3970.80701 L 35019.85138,3996.86852 Z" color="black" fill="black" stroke="none" transform="translate(-34858.531,-3355.583) rotate(180.000,35034.726,4035.122)"/>
	<path d="M 22010.16821,4006.26687 L 22009.82019,4043.11451 L 21957.36926,4016.92565 L 21991.50675,3989.07868 L 22000.8886,3994.52129 L 22022.31615,3980.25826 Z" color="black" fill="black" stroke="none" transform="translate(-21655.071,-3299.180) rotate(0.000,22000.888,3994.486)"/>
	<path d="M 29019.54014,4030.16552 L 28986.88265,4027.19133 L 28969.7082,4029.02633 L 28967.75676,3990.95259 L 29002.72415,3983.27165 L 29050.64872,3981.12273 Z" color="black" fill="black" stroke="none" transform="translate(-28456.573,-3336.898) rotate(180.000,29019.556,4030.197)"/>
	<path d="M 26046.6726,5020.91505 L 25997.37201,5005.06911 L 25995.85369,5006.97521 L 25976.48249,4997.26849 L 26000.28233,4963.80282 L 26004.46546,4993.79877 Z" color="black" fill="black" stroke="none" transform="translate(-25918.293,-4274.830) rotate(0.000,25997.383,5005.104)"/>
	<path d="M 22015.70437,1018.47482 L 22011.5886,1036.82624 L 21985.22393,1002.4273 L 21979.1449,986.88315 L 22002.04858,982.52646 L 22034.19955,963.86538 Z" color="black" fill="black" stroke="none" transform="translate(-21225.230,-328.011) rotate(180.000,22015.733,1018.483)"/>
	<path d="M 46041.11472,2026.89287 L 46002.00099,2005.78231 L 45961.17187,2020.7697 L 45993.48309,1997.45364 L 45992.70504,1976.9989 L 46006.62414,1999.13699 Z" color="black" fill="black" stroke="none" transform="translate(-46041.249,-1900.103) rotate(180.000,46041.249,2026.962)"/>
	<path d="M 15031.70278,5029.82698 L 14990.97136,5041.22751 L 14957.96416,5034.18551 L 14983.46733,4997.72035 L 14994.47747,4988.13322 L 15008.74789,4987.13034 Z" color="black" fill="black" stroke="none" transform="translate(-14133.639,-4302.171) rotate(0.000,15031.747,5029.846)"/>
	<path d="M 7014.12493,6005.49863 L 6996.48799,6008.01407 L 6978.67951,6011.69766 L 6959.50007,5965.19345 L 6997.44115,5995.50841 L 7045.12836,5997.88587 Z" color="black" fill="black" stroke="none" transform="translate(-6601.236,-5264.723) rotate(0.000,7014.131,6005.528)"/>
	<path d="M 5016.20243,4023.11192 L 5003.12984,4014.46009 L 4987.45912,4012.25644 L 4963.74986,3984.60188 L 5020.92192,3953.43343 L 5018.12267,3997.35594 Z" color="black" fill="black" stroke="none" transform="translate(-4763.588,-3273.149) rotate(90.000,5016.229,4023.165)"/>
	<path d="M 48014.09547,3016.11306 L 47993.78646,3027.59623 L 47978.14804,3025.02213 L 47971.68067,2974.18403 L 47991.93947,2968.36841 L 48038.88854,2999.06539 Z" color="black" fill="black" stroke="none" transform="translate(-47543.294,-2296.219) rotate(180.000,48014.111,3016.139)"/>
	<path d="M 23016.67153,7020.31013 L 23012.55214,7045.37516 L 22957.87148,7001.31522 L 22963.35476,6990.67048 L 23002.4875,6987.54813 L 23026.44991,6989.65038 Z" color="black" fill="black" stroke="none" transform="translate(-22321.161,-6280.008) rotate(180.000,23016.701,7020.317)"/>
	<path d="M 12039.8838,1024.71488 L 11999.77675,1023.93407 L 11959.76994,1017.53679 L 11947.31452,987.58694 L 12002.57975,981.9197 L 12007.77475,992.73852 Z" color="black" fill="black" stroke="none" transform="translate(-11927.928,-295.029) rotate(180.000,12039.958,1024.746)"/>
	<path d="M 5007.96273,6013.21346 L 4980.18482,6037.52919 L 4959.48721,6030.97747 L 4976.86554,5979.34771 L 5001.2711,5989.55739 L 5027.52508,5996.96857 Z" color="black" fill="black" stroke="none" transform="translate(-4358.589,-5257.001) rotate(0.000,5007.982,6013.236)"/>
	<path d="M 17020.26896,7004.84092 L 17002.53432,7010.31487 L 16993.42139,7005.95002 L 16968.55224,6977.55769 L 17019.96822,6953.4328 L 17038.13195,6997.25594 Z" color="black" fill="black" stroke="none" transform="translate(-16199.301,-6230.090) rotate(0.000,17020.279,7004.869)"/>
	<path d="M 17007.59461,3000.04812 L 17005.28211,3043.49575 L 16989.96807,3006.02581 L 16951.24728,2994.38172 L 17000.54888,2992.01692 L 17027.87644,2995.45466 Z" color="black" fill="black" stroke="none" transform="translate(-16950.898,-2233.728) rotate(180.000,17007.623,3000.072)"/>
	<path d="M 15019.39969,4011.0864 L 14991.64072,4017.35801 L 14992.24734,4003.5454 L 14973.90255,3999.60117 L 14980.96837,3953.65301 L 15035.92044,3993.33592 Z" color="black" fill="black" stroke="none" transform="translate(-14748.558,-3232.716) rotate(270.000,14992.216,4003.569)"/>
	<path d="M 8022.3325,5032.67027 L 7997.46147,5022.91097 L 7983.22345,5007.18352 L 7984.80268,4980.56927 L 7994.85289,4971.43022 L 8047.72297,4988.55951 Z" color="black" fill="black" stroke="none" transform="translate(-7648.269,-4275.722) rotate(270.000,8022.346,5032.708)"/>
	<path d="M 35040.0177,6006.24887 L 35004.29822,6019.56821 L 34983.12536,6003.54057 L 34965.5713,5981.96626 L 35001.40293,5986.19423 L 35036.03586,5966.64771 Z" color="black" fill="black" stroke="none" transform="translate(-34666.212,-5251.661) rotate(180.000,35040.050,6006.269)"/>
	<path d="M 40028.15458,5003.77946 L 39996.33029,5030.34524 L 39974.94461,5020.31516 L 39955.25205,4986.59402 L 40000.05321,4994.64493 L 40029.85787,4978.06929 Z" color="black" fill="black" stroke="none" transform="translate(-39523.142,-4235.032) rotate(180.000,40028.184,5003.794)"/>
	<path d="M 10024.3223,7014.12097 L 10016.37614,7045.27818 L 9970.73768,7013.4767 L 9986.8047,6997.79897 L 9997.92387,6991.49875 L 10019.35676,6972.54154 Z" color="black" fill="black" stroke="none" transform="translate(-9166.294,-6221.759) rotate(90.000,10024.353,7014.123)"/>
	<path d="M 27023.37417,7025.02789 L 26993.59056,7013.51055 L 26967.42157,7009.83392 L 26988.02442,6993.04214 L 27003.80341,6955.76794 L 27009.14106,6994.57557 Z" color="black" fill="black" stroke="none" transform="translate(-26330.893,-6225.031) rotate(0.000,27023.433,7025.083)"/>
	<path d="M 23041.96733,2022.83788 L 22989.23258,2031.97938 L 22962.2934,2006.10487 L 22981.03965,1983.30378 L 22997.12528,1984.07963 L 23026.6252,1986.83822 Z" color="black" fill="black" stroke="none" transform="translate(-22312.800,-1249.466) rotate(180.000,23042.010,2022.861)"/>
	<path d="M 13024.50685,6015.19796 L 13006.83042,6017.48674 L 12973.24399,6000.98298 L 12955.09403,5999.49849 L 12981.05347,5963.94941 L 13027.47214,5985.2447 Z" color="black" fill="black" stroke="none" transform="translate(-12714.301,-5205.135) rotate(0.000,13024.534,6015.225)"/>
	<path d="M 47030.51248,2007.13454 L 46999.51301,2027.55834 L 46966.8952,2012.11553 L 46956.63068,1975.22777 L 47003.26,1984.8514 L 47005.00305,1994.10191 Z" color="black" fill="black" stroke="none" transform="translate(-46933.726,-1224.275) rotate(180.000,47030.572,2007.131)"/>
	<path d="M 36018.32129,4009.99379 L 36003.81176,4014.90666 L 35983.82135,4013.76871 L 35985.08704,3977.53658 L 35997.88481,3947.56009 L 36041.11838,3998.7229 Z" color="black" fill="black" stroke="none" transform="translate(-35983.802,-3202.225) rotate(0.000,36018.333,4010.022)"/>
	<path d="M 21014.91494,5019.77624 L 21005.09611,5018.50599 L 20982.60974,5002.55403 L 20964.38229,4999.46306 L 21002.56589,4961.20439 L 21030.0087,4992.47232 Z" color="black" fill="black" stroke="none" transform="translate(-20574.080,-4222.275) rotate(90.000,21014.931,5019.809)"/>
	<path d="M 28019.96987,4025.21021 L 28017.64649,4034.40976 L 27991.21302,4001.49886 L 27954.60643,3985.54924 L 27994.94351,3975.67552 L 28005.08875,3996.17754 Z" color="black" fill="black" stroke="none" transform="translate(-27404.329,-3656.622) rotate(0.000,28020.002,4025.207)"/>
	<path d="M 29030.86526,5029.83232 L 28994.08356,5026.78894 L 28969.12891,5037.11876 L 28982.60925,4980.55253 L 29012.38046,4975.16859 L 29020.4439,4986.64755 Z" color="black" fill="black" stroke="none" transform="translate(-28452.844,-4199.603) rotate(90.000,29030.904,5029.866)"/>
	<path d="M 34021.01706,1030.6214 L 33985.3634,1026.76995 L 33972.47568,1007.65447 L 33989.44819,998.51712 L 33990.43957,952.25517 L 34009.47032,992.95389 Z" color="black" fill="black" stroke="none" transform="translate(-33851.695,-202.365) rotate(90.000,34021.059,1030.656)"/>
	<path d="M 34019.21981,7025.85865 L 34001.82593,7014.06629 L 33977.07705,7014.53051 L 33992.09209,6990.20175 L 34002.67192,6992.67026 L 34033.8554,6958.94766 Z" color="black" fill="black" stroke="none" transform="translate(-33915.976,-6239.773) rotate(270.000,34019.240,7025.908)"/>
	<path d="M 43008.12117,3006.04699 L 43005.85542,3019.78715 L 42991.73408,3011.4648 L 42952.43366,2995.94056 L 43016.30979,2960.67101 L 43015.35818,2988.36936 Z" color="black" fill="black" stroke="none" transform="translate(-42603.218,-2185.834) rotate(0.000,43008.150,3006.055)"/>
	<path d="M 10034.14734,3027.78655 L 9986.80597,3024.02216 L 9982.69276,3009.63277 L 9985.26463,2979.75182 L 10004.35249,2955.04509 L 10014.86994,2977.39733 Z" color="black" fill="black" stroke="none" transform="translate(-9489.896,-2247.879) rotate(270.000,10034.192,3027.820)"/>
	<path d="M 4.40598,6003.07714 L 14.49772,6047.46276 L -14.61852,6001.30579 L -38.0488,5976.32143 L 6.29494,5980.11565 L 6.33454,5995.36392 Z" color="black" fill="black" stroke="none" transform="translate(304.327,-5992.961) rotate(270.000,4.437,6003.077)"/>
	<path d="M 38016.27709,3016.20426 L 37995.70766,3031.15897 L 37977.13783,3027.82609 L 37985.85253,2998.62748 L 38011.01166,2973.30509 L 38041.29778,2972.89468 Z" color="black" fill="black" stroke="none" transform="translate(-37280.792,-2219.275) rotate(270.000,38016.300,3016.225)"/>
	<path d="M 29050.22787,7017.91508 L 29002.18335,7005.68114 L 28955.32063,7022.44028 L 28984.01607,6991.84329 L 29001.01916,6983.08735 L 29017.62349,6988.75668 Z" color="black" fill="black" stroke="none" transform="translate(-28748.671,-6187.718) rotate(0.000,29050.339,7017.974)"/>
	<path d="M 19018.20579,5002.05053 L 19004.47984,5009.67714 L 18955.12348,5020.02059 L 18987.66563,4995.55096 L 18998.72242,4969.04025 L 19028.24568,4980.67226 Z" color="black" fill="black" stroke="none" transform="translate(-18185.151,-4189.862) rotate(0.000,19018.229,5002.072)"/>
	<path d="M 32018.40788,7002.22988 L 31998.64234,7024.5599 L 31981.24421,7007.22527 L 31974.46093,6970.3343 L 32014.53064,6965.3785 L 32036.98628,6972.50946 Z" color="black" fill="black" stroke="none" transform="translate(-31570.433,-6200.246) rotate(270.000,32018.432,7002.248)"/>
	<path d="M 20010.00934,3005.0474 L 19985.96629,3045.15408 L 19976.42725,3021.46389 L 19984.11982,2977.03791 L 19994.07127,2985.84024 L 20026.19184,2970.93956 Z" color="black" fill="black" stroke="none" transform="translate(-19880.600,-2160.605) rotate(270.000,19994.076,2985.805)"/>
	<path d="M 42041.66567,3017.03218 L 41993.17084,3013.4062 L 41969.4087,3039.40355 L 41989.84241,2996.18509 L 42002.66398,2990.40018 L 42028.56251,2988.6436 Z" color="black" fill="black" stroke="none" transform="translate(-41352.128,-2194.794) rotate(0.000,42041.714,3017.066)"/>
	<path d="M 45031.25775,3007.13554 L 45004.14302,3012.32001 L 44989.50084,3014.34651 L 44975.388,2993.40687 L 45006.74975,2948.71975 L 45014.95491,2978.08277 Z" color="black" fill="black" stroke="none" transform="translate(-44141.289,-2218.622) rotate(270.000,45031.304,3007.157)"/>
	<path d="M 28023.34989,2019.18578 L 27996.62189,2012.09763 L 27947.08795,2003.30491 L 27987.23209,1997.09512 L 27989.60012,1980.81486 L 28032.56603,1976.33889 Z" color="black" fill="black" stroke="none" transform="translate(-27640.592,-1165.812) rotate(180.000,27987.206,1997.069)"/>
	<path d="M 34019.10499,6013.87559 L 34002.67724,6014.15142 L 33991.46686,6009.09177 L 33957.74174,5974.30483 L 33974.59443,5954.43831 L 34016.86503,5988.44777 Z" color="black" fill="black" stroke="none" transform="translate(-33923.864,-5154.615) rotate(0.000,34019.138,6013.905)"/>
	<path d="M 44013.09022,3019.30354 L 44013.852,3029.95147 L 43980.47066,3001.67764 L 43973.72987,2962.84569 L 44005.1498,2987.72207 L 44028.25702,2993.32284 Z" color="black" fill="black" stroke="none" transform="translate(-43435.061,-2189.048) rotate(270.000,44013.121,3019.311)"/>
	<path d="M 1040.87517,3006.41608 L 1009.43893,3023.99669 L 993.2663,3005.27981 L 978.27241,2990.69093 L 982.29996,2965.58696 L 1028.45375,2981.51434 Z" color="black" fill="black" stroke="none" transform="translate(-240.872,-2175.749) rotate(180.000,1040.915,3006.428)"/>
	<path d="M 27036.45528,3034.48691 L 27000.97926,3011.48572 L 26959.5794,3022.24531 L 26994.70803,2994.51835 L 26999.472,2993.45202 L 27011.19242,2987.09948 Z" color="black" fill="black" stroke="none" transform="translate(-26848.653,-2211.961) rotate(180.000,27036.536,3034.575)"/>
	<path d="M 12006.06666,3002.67128 L 12015.4303,3037.35314 L 11985.59665,3024.83274 L 11965.86527,2995.53397 L 11999.77925,2988.12554 L 12039.86057,2995.5248 Z" color="black" fill="black" stroke="none" transform="translate(-11527.523,-2150.424) rotate(180.000,12006.104,3002.694)"/>
	<path d="M 33031.33561,4014.77441 L 33004.43225,4034.04695 L 32984.50568,4000.46056 L 32973.42224,3971.27925 L 33001.4336,3987.10576 L 33027.56935,3990.21365 Z" color="black" fill="black" stroke="none" transform="translate(-33030.238,-3185.511) rotate(180.000,33031.368,4014.788)"/>
	<path d="M 19006.46788,6004.6679 L 19016.2366,6046.8839 L 18990.96807,6000.26874 L 18985.19894,5984.76017 L 18993.03107,5980.47187 L 19027.43774,5961.38959 Z" color="black" fill="black" stroke="none" transform="translate(-18873.379,-5155.715) rotate(270.000,19006.499,6004.671)"/>
	<path d="M 38010.55767,4001.25384 L 38010.87284,4020.56595 L 37968.04527,4012.23186 L 37992.07344,3998.33814 L 37992.36281,3981.56486 L 38041.99095,3971.73643 Z" color="black" fill="black" stroke="none" transform="translate(-37369.231,-3163.289) rotate(180.000,38010.588,4001.267)"/>
	<path d="M 16006.57898,1005.21157 L 16012.38126,1025.55664 L 15989.23168,1005.04992 L 15958.24734,973.42822 L 15984.9956,973.72346 L 16027.30259,975.30241 Z" color="black" fill="black" stroke="none" transform="translate(-15740.144,-164.986) rotate(180.000,16006.612,1005.217)"/>
	<path d="M 31036.50626,6013.22549 L 31007.40971,6028.23629 L 30966.9408,6025.44353 L 30994.59654,5994.50862 L 30995.60889,5976.49343 L 31016.82537,5979.62495 Z" color="black" fill="black" stroke="none" transform="translate(-30305.728,-5158.911) rotate(0.000,31036.548,6013.238)"/>
	<path d="M 12024.05083,4021.76058 L 11997.26909,4023.54559 L 11960.94531,4035.21405 L 11979.96854,3979.14824 L 11989.12236,3978.22783 L 12014.32231,3997.08371 Z" color="black" fill="black" stroke="none" transform="translate(-11228.712,-3155.061) rotate(0.000,12024.094,4021.788)"/>
	<path d="M 6041.89542,6011.1897 L 6000.93027,6017.21939 L 5974.88992,6009.96096 L 5991.92191,5991.29366 L 6003.0259,5963.81899 L 6034.71359,5967.2679 Z" color="black" fill="black" stroke="none" transform="translate(-5636.170,-5135.668) rotate(0.000,6041.930,6011.215)"/>
	<path d="M 8005.28952,6004.48549 L 8004.15997,6016.92066 L 7966.83701,6006.87018 L 7964.02547,5978.34567 L 7986.65805,5946.95787 L 8015.10493,5987.32674 Z" color="black" fill="black" stroke="none" transform="translate(-7814.643,-5154.433) rotate(270.000,8005.319,6004.495)"/>
	<path d="M 45049.21464,2014.62729 L 45000.20178,2009.65909 L 44981.29301,2002.33239 L 44971.73271,1985.69835 L 45000.16134,1969.87737 L 45051.29409,1994.61792 Z" color="black" fill="black" stroke="none" transform="translate(-44421.166,-1117.235) rotate(0.000,45049.241,2014.660)"/>
	<path d="M 30022.48379,2010.11141 L 30001.93046,2017.78401 L 29971.78616,2011.44524 L 29969.43579,1997.63394 L 30019.99944,1952.24746 L 30017.10106,1981.8123 Z" color="black" fill="black" stroke="none" transform="translate(-29605.081,-1113.380) rotate(90.000,30022.518,2010.131)"/>
	<path d="M 11016.41919,7014.19622 L 11002.55304,7007.66069 L 10978.91676,7034.32688 L 10994.51731,6999.20088 L 10992.90575,6945.64637 L 11017.85024,6997.3022 Z" color="black" fill="black" stroke="none" transform="translate(-10975.808,-6126.084) rotate(90.000,11002.561,7007.697)"/>
	<path d="M 3032.53296,4033.42436 L 2996.97091,4006.73377 L 2994.16106,4003.25369 L 2993.39897,3999.60728 L 2996.20297,3945.32084 L 3005.64182,3997.79307 Z" color="black" fill="black" stroke="none" transform="translate(-2707.570,-3994.248) rotate(90.000,3032.646,4033.524)"/>
	<path d="M 4009.0225,4002.03001 L 4005.94113,4050.33746 L 3981.96302,4014.85068 L 3970.4829,3994.82222 L 4003.88995,3960.64957 L 4007.77661,3997.4093 Z" color="black" fill="black" stroke="none" transform="translate(-3202.355,-3107.311) rotate(90.000,4009.053,4002.027)"/>
	<path d="M 32036.8468,2035.90854 L 31995.44895,2008.55192 L 31987.56318,2005.29591 L 31974.58884,1998.82187 L 31991.94234,1981.17218 L 32008.20666,1995.7335 Z" color="black" fill="black" stroke="none" transform="translate(-31672.838,-1202.648) rotate(270.000,32036.957,2036.011)"/>
	<path d="M 17012.76232,2006.20572 L 17003.79665,2035.4141 L 16990.85995,2011.94765 L 16956.48537,1997.49046 L 17001.00384,1994.63295 L 17039.96091,1998.66674 Z" color="black" fill="black" stroke="none" transform="translate(-16922.995,-1129.109) rotate(180.000,17012.786,2006.230)"/>
	<path d="M 4007.87539,6000.18449 L 3985.66515,6040.74868 L 3995.13555,6005.86255 L 3971.65077,5964.90651 L 4001.12072,5965.08256 L 4015.80868,5981.26057 Z" color="black" fill="black" stroke="none" transform="translate(-3145.883,-5114.514) rotate(90.000,4007.902,6000.198)"/>
	<path d="M 37008.5872,4003.22968 L 36983.64988,4042.19918 L 36990.17182,4005.07625 L 36966.32462,3970.67168 L 37002.64676,3987.88665 L 37009.92201,3988.84632 Z" color="black" fill="black" stroke="none" transform="translate(-36511.193,-3109.186) rotate(90.000,37008.616,4003.240)"/>
	<path d="M 13016.09334,7003.82458 L 13002.08954,7014.47116 L 12977.76767,7030.6923 L 12969.6227,6997.97993 L 12995.20655,6989.75403 L 13042.89237,6997.05702 Z" color="black" fill="black" stroke="none" transform="translate(-12328.130,-6120.327) rotate(180.000,13016.107,7003.852)"/>
	<path d="M 21008.82058,6006.69433 L 21005.29072,6016.5155 L 20977.25594,6036.48903 L 20989.57563,5999.48508 L 21006.99694,5947.7132 L 21005.15748,5998.60506 Z" color="black" fill="black" stroke="none" transform="translate(-20114.550,-5783.279) rotate(0.000,21008.853,6006.693)"/>
	<path d="M 46037.41277,5005.47512 L 46003.68843,5007.08367 L 45955.21244,5024.27341 L 45975.64068,4998.18767 L 45999.89813,4993.8101 L 46007.74437,4991.36674 Z" color="black" fill="black" stroke="none" transform="translate(-45770.368,-4125.154) rotate(0.000,46037.534,5005.499)"/>
	<path d="M 42011.78841,6010.26709 L 42000.46961,6009.94259 L 41982.34533,6027.87238 L 41972.5016,5995.15165 L 42005.03039,5977.06666 L 42025.47698,5995.87375 Z" color="black" fill="black" stroke="none" transform="translate(-41602.088,-5618.570) rotate(90.000,42011.801,6010.297)"/>
	<path d="M 23003.69387,3005.36546 L 23005.14809,3022.7364 L 22983.24478,3016.27168 L 22993.92891,2996.51057 L 22994.8356,2980.69416 L 23029.63954,2965.00507 Z" color="black" fill="black" stroke="none" transform="translate(-22732.675,-2809.946) rotate(0.000,23003.725,3005.373)"/>
	<path d="M 27.11353,4034.43453 L 1.87011,4005.39939 L -6.95457,4001.04179 L -19.80568,3996.53709 L 5.84959,3978.56199 L 6.14649,3997.99278 Z" color="black" fill="black" stroke="none" transform="translate(360.930,-4020.147) rotate(180.000,27.213,4034.548)"/>
	<path d="M 31003.03531,4004.77973 L 30995.56266,4022.69783 L 30945.83034,4004.86066 L 30985.35697,3995.22506 L 30995.99112,3991.23555 L 31014.83212,3984.74187 Z" color="black" fill="black" stroke="none" transform="translate(-30572.781,-3480.418) rotate(180.000,31003.062,4004.793)"/>
	<path d="M 33003.18638,6005.0343 L 32984.99505,6028.37061 L 32979.55577,6001.78684 L 32985.35702,5987.72301 L 33001.86433,5977.47184 L 33024.95771,5970.73459 Z" color="black" fill="black" stroke="none" transform="translate(-32304.854,-5640.832) rotate(0.000,33003.211,6005.052)"/>
	<path d="M 28021.95638,3000.53243 L 27990.30088,3023.04527 L 27984.45286,3017.65824 L 27996.48902,2996.36395 L 28000.7629,2955.55066 L 28005.13224,2997.16307 Z" color="black" fill="black" stroke="none" transform="translate(-27516.942,-2345.239) rotate(90.000,28005.160,2997.138)"/>
	<path d="M 16008.921,6008.93153 L 16008.25925,6017.17899 L 15992.78555,6002.82407 L 15955.52573,5998.51908 L 16003.80734,5973.79329 L 16009.62792,5994.46097 Z" color="black" fill="black" stroke="none" transform="translate(-15901.241,-5521.649) rotate(270.000,16008.951,6008.933)"/>
	<path d="M 12025.95061,2041.52294 L 12013.4017,2025.89459 L 11987.35229,2013.31108 L 11995.26237,1996.39543 L 12001.21962,1994.77258 L 12011.26907,1984.6063 Z" color="black" fill="black" stroke="none" transform="translate(-11492.472,-1611.231) rotate(270.000,12026.014,2041.650)"/>
	<path d="M 44005.16999,1003.67629 L 43990.7858,1017.43689 L 43986.38628,1008.67067 L 43988.41006,998.37404 L 44001.98585,960.38121 L 44023.92184,989.65607 Z" color="black" fill="black" stroke="none" transform="translate(-43986.356,-895.465) rotate(0.000,44005.189,1003.699)"/>
	<path d="M 15.26504,2020.84192 L -0.77443,2015.56256 L -8.57264,2011.57512 L -28.552,1997.89291 L -13.66834,1974.12832 L 6.49568,1991.79575 Z" color="black" fill="black" stroke="none" transform="translate(28.586,-1835.247) rotate(0.000,15.310,2020.888)"/>
	<path d="M 46009.34007,1003.40751 L 46003.13656,1020.87655 L 45994.74732,1003.15686 L 45979.99959,977.67476 L 45999.34284,982.42937 L 46026.75388,998.69983 Z" color="black" fill="black" stroke="none" transform="translate(-45533.341,-715.984) rotate(270.000,46009.363,1003.432)"/>
	<path d="M 32023.28091,6001.37863 L 31997.39663,6006.20221 L 31975.36472,6017.04951 L 31992.17221,5987.45858 L 31999.04397,5992.33953 L 32041.57667,5986.68146 Z" color="black" fill="black" stroke="none" transform="translate(-31335.280,-5117.909) rotate(0.000,32023.294,6001.407)"/>
	<path d="M 40003.76368,6004.52246 L 39994.91057,6013.02096 L 39985.39365,6012.79972 L 39991.55312,5986.47225 L 40006.33876,5947.93002 L 40014.83187,5996.67083 Z" color="black" fill="black" stroke="none" transform="translate(-39817.923,-5818.750) rotate(0.000,40003.783,6004.546)"/>
	<path d="M 23006.47277,6007.60157 L 23002.85913,6006.3857 L 22984.94537,6020.53793 L 22988.32359,5998.59003 L 22994.09985,5989.25005 L 23036.2343,5983.31006 Z" color="black" fill="black" stroke="none" transform="translate(-22462.527,-5986.071) rotate(90.000,23006.479,6007.635)"/>
	<path d="M 26034.08114,3005.23289 L 25997.32297,3009.38926 L 25955.40654,3006.78392 L 25963.73156,2997.28139 L 26002.51037,2987.00473 L 26024.30172,2991.02643 Z" color="black" fill="black" stroke="none" transform="translate(-25139.704,-2995.250) rotate(270.000,26034.134,3005.257)"/>
	<path d="M 10004.76648,1007.43603 L 9988.76483,1032.69819 L 9982.2266,1021.93556 L 9988.74812,985.88935 L 10009.03402,980.72507 L 10015.16493,991.41029 Z" color="black" fill="black" stroke="none" transform="translate(-9581.653,-843.169) rotate(0.000,10004.792,1007.452)"/>
	<path d="M 21045.16091,1015.44518 L 21003.8828,1009.75494 L 20972.48937,1013.80213 L 20974.63312,996.05484 L 21000.78681,993.1585 L 21038.71081,998.08741 Z" color="black" fill="black" stroke="none" transform="translate(-20709.623,-137.925) rotate(180.000,21045.207,1015.482)"/>
	<path d="M 10015.27381,6000.28047 L 10000.10327,6005.46948 L 9986.58017,6014.07382 L 9991.55621,5998.69881 L 10016.18451,5966.64309 L 10011.91906,5997.38017 Z" color="black" fill="black" stroke="none" transform="translate(-9427.387,-5855.212) rotate(90.000,10015.333,6000.292)"/>
	<path d="M 29020.97208,2019.97122 L 28996.61243,2008.87006 L 28982.0071,2022.86252 L 28983.51776,1988.09715 L 29002.06755,1987.99422 L 29007.68576,1989.7399 Z" color="black" fill="black" stroke="none" transform="translate(-28180.017,-1994.877) rotate(180.000,28996.618,2008.906)"/>
	<path d="M 17010.26414,6003.4195 L 17006.5669,6011.96459 L 16991.80844,6005.47383 L 16981.05896,5979.96921 L 17001.03758,5989.5489 L 17007.03924,5994.85043 Z" color="black" fill="black" stroke="none" transform="translate(-16850.462,-6003.420) rotate(270.000,17010.296,6003.420)"/>
	<path d="M 16005.33372,2004.96605 L 15997.00099,2010.0683 L 15993.8295,2004.60263 L 15990.66005,1995.35192 L 15998.08022,1994.08842 L 16027.05709,1986.9108 Z" color="black" fill="black" stroke="none" transform="translate(-15924.772,-1986.881) rotate(0.000,16005.351,2004.991)"/>
</svg>
