<?xml version="1.0" ?>
<svg width="400" height="550" viewBox="0 0 400 550">
	<path d="M 22000,1000 L 22060,940 L 22120,1000 L 22060,1060 Z" color="black" fill="black" stroke="none" transform="translate(-21999.958,-939.967) rotate(0.000,21999.958,1000.000)"/>
	<path d="M 21000,1000 L 21060,940 L 21120,1000 L 21060,1060 Z" color="black" fill="black" stroke="none" transform="translate(-20879.892,-819.940) rotate(180.000,20999.958,1000.000)"/>
	<path d="M 20000,1000 L 20060,940 L 20120,1000 L 20060,1060 Z" color="black" fill="black" stroke="none" transform="translate(-19999.958,-699.912) rotate(0.000,19999.958,1000.000)"/>
	<path d="M 19000,1000 L 19060,940 L 19120,1000 L 19060,1060 Z" color="black" fill="black" stroke="none" transform="translate(-18879.892,-579.884) rotate(180.000,18999.958,1000.000)"/>
	<path d="M 18000,1000 L 18060,940 L 18120,1000 L 18060,1060 Z" color="black" fill="black" stroke="none" transform="translate(-17939.906,-879.934) rotate(0.000,17999.958,1000.000)"/>
	<path d="M 17000,1000 L 17060,940 L 17120,1000 L 17060,1060 Z" color="black" fill="black" stroke="none" transform="translate(-16939.906,-639.879) rotate(0.000,16999.958,1000.000)"/>
	<path d="M 16000,1000 L 16060,940 L 16120,1000 L 16060,1060 Z" color="black" fill="black" stroke="none" transform="translate(-15939.867,-759.907) rotate(0.000,15999.958,1000.000)"/>
	<path d="M 9000,1000 L 9020,1000 L 9020,1030 L 9120,1030 L 9120,1000 L 9140,1000 L 9140,1050 L 9000,1050 Z" color="black" fill="black" stroke="none" transform="translate(-8999.970,-549.821) rotate(0.000,8999.970,999.970)"/>
	<path d="M 10000,1000 L 10020,1000 L 10020,1030 L 10120,1030 L 10120,1000 L 10140,1000 L 10140,1050 L 10000,1050 Z" color="black" fill="black" stroke="none" transform="translate(-9889.858,-999.970) rotate(0.000,9999.970,999.970)"/>
	<path d="M 11000,1000 L 11020,1000 L 11020,1030 L 11120,1030 L 11120,1000 L 11140,1000 L 11140,1050 L 11000,1050 Z" color="black" fill="black" stroke="none" transform="translate(-10859.910,-599.772) rotate(0.000,10999.970,999.970)"/>
	<path d="M 12000,1000 L 12020,1000 L 12020,1030 L 12120,1030 L 12120,1000 L 12140,1000 L 12140,1050 L 12000,1050 Z" color="black" fill="black" stroke="none" transform="translate(-11859.910,-549.712) rotate(0.000,11999.970,999.970)"/>
	<path d="M 13000,1000 L 13020,1000 L 13020,1030 L 13120,1030 L 13120,1000 L 13140,1000 L 13140,1050 L 13000,1050 Z" color="black" fill="black" stroke="none" transform="translate(-12854.798,-844.940) rotate(0.000,12999.970,999.970)"/>
	<path d="M 14000,1000 L 14020,1000 L 14020,1030 L 14120,1030 L 14120,1000 L 14140,1000 L 14140,1050 L 14000,1050 Z" color="black" fill="black" stroke="none" transform="translate(-13854.798,-724.874) rotate(0.000,13999.970,999.970)"/>
	<path d="M 15000,1000 L 15020,1000 L 15020,1030 L 15120,1030 L 15120,1000 L 15140,1000 L 15140,1050 L 15000,1050 Z" color="black" fill="black" stroke="none" transform="translate(-14699.790,-569.772) rotate(180.000,14999.970,999.970)"/>
	<path d="M 3000,1000 L 3020,1000 L 3020,1030 L 3120,1030 L 3120,1000 L 3140,1000 L 3140,1050 L 3000,1050 Z" color="black" fill="black" stroke="none" transform="translate(-2839.779,-949.910) rotate(0.000,2999.970,999.970)"/>
	<path d="M 2000,1000 L 2020,1000 L 2020,1030 L 2120,1030 L 2120,1000 L 2140,1000 L 2140,1050 L 2000,1050 Z" color="black" fill="black" stroke="none" transform="translate(-1694.678,-814.940) rotate(180.000,1999.970,999.970)"/>
	<path d="M 4000,1000 L 4020,1000 L 4020,1030 L 4120,1030 L 4120,1000 L 4140,1000 L 4140,1050 L 4000,1050 Z" color="black" fill="black" stroke="none" transform="translate(-3694.678,-694.874) rotate(180.000,3999.970,999.970)"/>
	<path d="M 1000,1000 L 1020,1000 L 1020,1030 L 1120,1030 L 1120,1000 L 1140,1000 L 1140,1050 L 1000,1050 Z" color="black" fill="black" stroke="none" transform="translate(-819.853,-674.814) rotate(0.000,999.970,999.970)"/>
	<path d="M 7000,1000 L 7020,1000 L 7020,1030 L 7120,1030 L 7120,1000 L 7140,1000 L 7140,1050 L 7000,1050 Z" color="black" fill="black" stroke="none" transform="translate(-6609.738,-949.910) rotate(180.000,6999.970,999.970)"/>
	<path d="M 30000,1000 L 30060,1000 L 30060,980 L 30070,980 L 30110,1020 L 30110,1040 L 30080,1040 L 30080,1010 L 30020,1010 L 30020,1040 L 30000,1040 Z" color="black" fill="black" stroke="none" transform="translate(-29774.738,-794.880) rotate(0.000,29999.970,999.970)"/>
	<path d="M 31000,1000 L 31060,1000 L 31060,980 L 31070,980 L 31110,1020 L 31110,1040 L 31080,1040 L 31080,1010 L 31020,1010 L 31020,1040 L 31000,1040 Z" color="black" fill="black" stroke="none" transform="translate(-30719.850,-569.772) rotate(0.000,30999.970,999.970)"/>
	<path d="M 29000,1000 L 29060,1000 L 29060,980 L 29070,980 L 29110,1020 L 29110,1040 L 29080,1040 L 29080,1010 L 29020,1010 L 29020,1040 L 29000,1040 Z" color="black" fill="black" stroke="none" transform="translate(-28719.850,-519.688) rotate(0.000,28999.970,999.970)"/>
	<path d="M 43000,1000 L 43020,1000 L 43020,980 L 43040,980 L 43040,1000 L 43060,1000 L 43060,1020 L 43040,1020 L 43040,1040 L 43020,1040 L 43020,1020 L 43000,1020 Z" color="black" fill="black" stroke="none" transform="translate(-42699.719,-959.910) rotate(0.000,42999.970,999.970)"/>
	<path d="M 42000,1000 L 42020,1000 L 42020,980 L 42040,980 L 42040,1000 L 42060,1000 L 42060,1020 L 42040,1020 L 42040,1040 L 42020,1040 L 42020,1020 L 42000,1020 Z" color="black" fill="black" stroke="none" transform="translate(-41714.678,-899.850) rotate(0.000,41999.970,999.970)"/>
	<path d="M 41000,1000 L 41020,1000 L 41020,980 L 41040,980 L 41040,1000 L 41060,1000 L 41060,1020 L 41040,1020 L 41040,1040 L 41020,1040 L 41020,1020 L 41000,1020 Z" color="black" fill="black" stroke="none" transform="translate(-40694.618,-859.790) rotate(0.000,40999.970,999.970)"/>
	<path d="M 40000,1000 L 40020,1000 L 40020,980 L 40040,980 L 40040,1000 L 40060,1000 L 40060,1020 L 40040,1020 L 40040,1040 L 40020,1040 L 40020,1020 L 40000,1020 Z" color="black" fill="black" stroke="none" transform="translate(-39674.558,-819.730) rotate(0.000,39999.970,999.970)"/>
	<path d="M 39000,1000 L 39020,1000 L 39020,980 L 39040,980 L 39040,1000 L 39060,1000 L 39060,1020 L 39040,1020 L 39040,1040 L 39020,1040 L 39020,1020 L 39000,1020 Z" color="black" fill="black" stroke="none" transform="translate(-38684.678,-754.820) rotate(0.000,38999.970,999.970)"/>
	<path d="M 38000,1000 L 38020,1000 L 38020,980 L 38040,980 L 38040,1000 L 38060,1000 L 38060,1020 L 38040,1020 L 38040,1040 L 38020,1040 L 38020,1020 L 38000,1020 Z" color="black" fill="black" stroke="none" transform="translate(-37679.793,-694.760) rotate(0.000,37999.970,999.970)"/>
	<path d="M 37000,1000 L 37020,1000 L 37020,980 L 37040,980 L 37040,1000 L 37060,1000 L 37060,1020 L 37040,1020 L 37040,1040 L 37020,1040 L 37020,1020 L 37000,1020 Z" color="black" fill="black" stroke="none" transform="translate(-36679.793,-634.700) rotate(0.000,36999.970,999.970)"/>
</svg>
