<?xml version="1.0" ?>
<svg width="575.2" height="600" viewBox="0 0 575.2 600">
	<path d="M 47982.46111,992.75205 L 47969.6,984.9 L 47959.3,980.7 L 47949,979.2 L 47932.7,980.8 L 47921,983.1 L 47901,987.6 L 47897.1,970.8 L 47924,964.7 L 47946.9,959.6 L 47958.7,957 L 47971.2,949 L 47974.8,930 L 47974.8,913.8 L 47972.6,898.5 L 47946.7,884.3 L 47923.8,879.3 L 47896.9,873.3 L 47900.7,856.5 L 47920.7,860.9 L 47932.5,863.2 L 47948.8,864.7 L 47959.1,863.2 L 47969.3,858.9 L 47981.95882,851.17146 L 48000.64217,843.10812 L 48031.9,850.1 L 48027,871 L 48024.8,885.7 L 48024.1,907.8 L 48024.2,921.8 L 48024.2,935.8 L 48024.6,950.6 L 48025.7,964.2 L 48032.2,993.5 L 48001.58475,1000.80411 Z" color="black" fill="black" stroke="none" transform="translate(-47932.674,-984.725) rotate(180.000,47982.447,992.779)"/>
	<path d="M 46982.46111,992.75205 L 46969.6,984.9 L 46959.3,980.7 L 46949,979.2 L 46932.7,980.8 L 46921,983.1 L 46901,987.6 L 46897.1,970.8 L 46924,964.7 L 46946.9,959.6 L 46958.7,957 L 46971.2,949 L 46974.8,930 L 46974.8,913.8 L 46972.6,898.5 L 46946.7,884.3 L 46923.8,879.3 L 46896.9,873.3 L 46900.7,856.5 L 46920.7,860.9 L 46932.5,863.2 L 46948.8,864.7 L 46959.1,863.2 L 46969.3,858.9 L 46981.95882,851.17146 L 47000.64217,843.10812 L 47031.9,850.1 L 47027,871 L 47024.8,885.7 L 47024.1,907.8 L 47024.2,921.8 L 47024.2,935.8 L 47024.6,950.6 L 47025.7,964.2 L 47032.2,993.5 L 47001.58475,1000.80411 Z" color="black" fill="black" stroke="none" transform="translate(-46838.923,-805.075) rotate(0.000,46982.447,992.779)"/>
	<path d="M 45982.46111,992.75205 L 45969.6,984.9 L 45959.3,980.7 L 45949,979.2 L 45932.7,980.8 L 45921,983.1 L 45901,987.6 L 45897.1,970.8 L 45924,964.7 L 45946.9,959.6 L 45958.7,957 L 45971.2,949 L 45974.8,930 L 45974.8,913.8 L 45972.6,898.5 L 45946.7,884.3 L 45923.8,879.3 L 45896.9,873.3 L 45900.7,856.5 L 45920.7,860.9 L 45932.5,863.2 L 45948.8,864.7 L 45959.1,863.2 L 45969.3,858.9 L 45981.95882,851.17146 L 46000.64217,843.10812 L 46031.9,850.1 L 46027,871 L 46024.8,885.7 L 46024.1,907.8 L 46024.2,921.8 L 46024.2,935.8 L 46024.6,950.6 L 46025.7,964.2 L 46032.2,993.5 L 46001.58475,1000.80411 Z" color="black" fill="black" stroke="none" transform="translate(-45711.764,-843.078) rotate(0.000,45982.447,992.779)"/>
	<path d="M 3000,1000 L 2999.5,967.9 L 3000.1,935.8 L 3015.1,934 L 3025.9,930.9 L 3042.3,926.2 L 3054.7,923 L 3068,919.9 L 3085.8,916.3 L 3098.8,931.8 L 3107.5,938 L 3121.1,944.7 L 3131.9,947.3 L 3148.1,947.4 L 3159.7,946 L 3173.7,943.6 L 3171.9,956 L 3170.8,968.3 L 3171.8,980.6 L 3173.6,993 L 3159.6,990.5 L 3148,989.1 L 3131.8,989.1 L 3121,991.7 L 3107.4,998.3 L 3098.6,1004.5 L 3085.6,1019.9 L 3067.8,1016.2 L 3054.5,1013.1 L 3042.1,1009.8 L 3025.7,1005 L 3014.9,1001.9 Z" color="black" fill="black" stroke="none" transform="translate(-2695.333,-815.166) rotate(180.000,2999.970,1000.026)"/>
	<path d="M 2000,1000 L 1999.5,967.9 L 2000.1,935.8 L 2015.1,934 L 2025.9,930.9 L 2042.3,926.2 L 2054.7,923 L 2068,919.9 L 2085.8,916.3 L 2098.8,931.8 L 2107.5,938 L 2121.1,944.7 L 2131.9,947.3 L 2148.1,947.4 L 2159.7,946 L 2173.7,943.6 L 2171.9,956 L 2170.8,968.3 L 2171.8,980.6 L 2173.6,993 L 2159.6,990.5 L 2148,989.1 L 2131.8,989.1 L 2121,991.7 L 2107.4,998.3 L 2098.6,1004.5 L 2085.6,1019.9 L 2067.8,1016.2 L 2054.5,1013.1 L 2042.1,1009.8 L 2025.7,1005 L 2014.9,1001.9 Z" color="black" fill="black" stroke="none" transform="translate(-1999.470,-705.582) rotate(0.000,1999.970,1000.026)"/>
	<path d="M 1000,1000 L 999.5,967.9 L 1000.1,935.8 L 1015.1,934 L 1025.9,930.9 L 1042.3,926.2 L 1054.7,923 L 1068,919.9 L 1085.8,916.3 L 1098.8,931.8 L 1107.5,938 L 1121.1,944.7 L 1131.9,947.3 L 1148.1,947.4 L 1159.7,946 L 1173.7,943.6 L 1171.9,956 L 1170.8,968.3 L 1171.8,980.6 L 1173.6,993 L 1159.6,990.5 L 1148,989.1 L 1131.8,989.1 L 1121,991.7 L 1107.4,998.3 L 1098.6,1004.5 L 1085.6,1019.9 L 1067.8,1016.2 L 1054.5,1013.1 L 1042.1,1009.8 L 1025.7,1005 L 1014.9,1001.9 Z" color="black" fill="black" stroke="none" transform="translate(-715.439,-715.695) rotate(180.000,999.970,1000.026)"/>
	<path d="M 27000,1000 L 27003.396,985.7085 L 27007.7,973.2 L 27008.9,961.2 L 26917.4,956.1 L 26917.6,940.2 L 27003.9,939.3 L 27016.9,935 L 27020.9,920 L 27025.1,906 L 27037.1,907.6 L 27035.4,927.4 L 27034.8,939 L 27035,958.8 L 27036,973.6 L 27038.2,990.6 L 27048.86912,1023.21128 L 27035.2,1005.4 L 27021.7,1000 Z" color="black" fill="black" stroke="none" transform="translate(-26951.005,-682.942) rotate(180.000,26999.962,1000.030)"/>
	<path d="M 26000,1000 L 26003.396,985.7085 L 26007.7,973.2 L 26008.9,961.2 L 25917.4,956.1 L 25917.6,940.2 L 26003.9,939.3 L 26016.9,935 L 26020.9,920 L 26025.1,906 L 26037.1,907.6 L 26035.4,927.4 L 26034.8,939 L 26035,958.8 L 26036,973.6 L 26038.2,990.6 L 26048.86912,1023.21128 L 26035.2,1005.4 L 26021.7,1000 Z" color="black" fill="black" stroke="none" transform="translate(-25736.312,-571.908) rotate(0.000,25999.962,1000.030)"/>
	<path d="M 25000,1000 L 25003.396,985.7085 L 25007.7,973.2 L 25008.9,961.2 L 24917.4,956.1 L 24917.6,940.2 L 25003.9,939.3 L 25016.9,935 L 25020.9,920 L 25025.1,906 L 25037.1,907.6 L 25035.4,927.4 L 25034.8,939 L 25035,958.8 L 25036,973.6 L 25038.2,990.6 L 25048.86912,1023.21128 L 25035.2,1005.4 L 25021.7,1000 Z" color="black" fill="black" stroke="none" transform="translate(-24816.857,-639.533) rotate(180.000,24999.962,1000.030)"/>
	<path d="M 24000,1000 L 24003.396,985.7085 L 24007.7,973.2 L 24008.9,961.2 L 23917.4,956.1 L 23917.6,940.2 L 24003.9,939.3 L 24016.9,935 L 24020.9,920 L 24025.1,906 L 24037.1,907.6 L 24035.4,927.4 L 24034.8,939 L 24035,958.8 L 24036,973.6 L 24038.2,990.6 L 24048.86912,1023.21128 L 24035.2,1005.4 L 24021.7,1000 Z" color="black" fill="black" stroke="none" transform="translate(-23891.944,-534.979) rotate(0.000,23999.962,1000.030)"/>
	<path d="M 23000,1000 L 23003.396,985.7085 L 23007.7,973.2 L 23008.9,961.2 L 22917.4,956.1 L 22917.6,940.2 L 23003.9,939.3 L 23016.9,935 L 23020.9,920 L 23025.1,906 L 23037.1,907.6 L 23035.4,927.4 L 23034.8,939 L 23035,958.8 L 23036,973.6 L 23038.2,990.6 L 23048.86912,1023.21128 L 23035.2,1005.4 L 23021.7,1000 Z" color="black" fill="black" stroke="none" transform="translate(-22951.005,-577.569) rotate(180.000,22999.962,1000.030)"/>
	<path d="M 22000,1000 L 22003.396,985.7085 L 22007.7,973.2 L 22008.9,961.2 L 21917.4,956.1 L 21917.6,940.2 L 22003.9,939.3 L 22016.9,935 L 22020.9,920 L 22025.1,906 L 22037.1,907.6 L 22035.4,927.4 L 22034.8,939 L 22035,958.8 L 22036,973.6 L 22038.2,990.6 L 22048.86912,1023.21128 L 22035.2,1005.4 L 22021.7,1000 Z" color="black" fill="black" stroke="none" transform="translate(-21771.841,-555.533) rotate(180.000,21999.962,1000.030)"/>
	<path d="M 30000,999.27778 L 30012.98,996.39333 L 30030.68846,1002.29615 L 30049.5,1011 L 30061.6,1017.2 L 30073.7,1023.8 L 30085.5,1029 L 30095.9,1031.3 L 30107.1,1030.6 L 30127.5,1025.5 L 30126,1039.4 L 30125,1049.9 L 30126,1060.6 L 30127.5,1074.5 L 30107.1,1069.4 L 30095.9,1068.7 L 30085.5,1071 L 30073.7,1076.2 L 30061.6,1082.8 L 30049.5,1089 L 30030.68846,1097.70385 L 30012.98,1103.60667 L 30000,1100.72222 Z" color="black" fill="black" stroke="none" transform="translate(-29846.577,-414.096) rotate(180.000,29999.970,999.254)"/>
	<path d="M 29000,999.27778 L 29012.98,996.39333 L 29030.68846,1002.29615 L 29049.5,1011 L 29061.6,1017.2 L 29073.7,1023.8 L 29085.5,1029 L 29095.9,1031.3 L 29107.1,1030.6 L 29127.5,1025.5 L 29126,1039.4 L 29125,1049.9 L 29126,1060.6 L 29127.5,1074.5 L 29107.1,1069.4 L 29095.9,1068.7 L 29085.5,1071 L 29073.7,1076.2 L 29061.6,1082.8 L 29049.5,1089 L 29030.68846,1097.70385 L 29012.98,1103.60667 L 29000,1100.72222 Z" color="black" fill="black" stroke="none" transform="translate(-28646.371,-402.144) rotate(180.000,28999.970,999.254)"/>
	<path d="M 28000,999.27778 L 28012.98,996.39333 L 28030.68846,1002.29615 L 28049.5,1011 L 28061.6,1017.2 L 28073.7,1023.8 L 28085.5,1029 L 28095.9,1031.3 L 28107.1,1030.6 L 28127.5,1025.5 L 28126,1039.4 L 28125,1049.9 L 28126,1060.6 L 28127.5,1074.5 L 28107.1,1069.4 L 28095.9,1068.7 L 28085.5,1071 L 28073.7,1076.2 L 28061.6,1082.8 L 28049.5,1089 L 28030.68846,1097.70385 L 28012.98,1103.60667 L 28000,1100.72222 Z" color="black" fill="black" stroke="none" transform="translate(-27587.726,-637.961) rotate(180.000,27999.970,999.254)"/>
	<path d="M 33000,1000 L 32999.6,987.7 L 32999.2,970.9 L 32998.3,954.6 L 32996,938 L 33011.9,938.1 L 33024.6,946.2 L 33035.2,949.9 L 33049.2,954.2 L 33064.7,958.4 L 33076.6,963.1 L 33091.3,969.8 L 33106.1,977.6 L 33104.6,990 L 33103.7,1000.2 L 33106.1,1022.4 L 33091.3,1030.2 L 33076.6,1036.9 L 33064.7,1041.6 L 33049.2,1045.8 L 33035.2,1050.1 L 33024.6,1053.8 L 33011.9,1061.9 L 32996,1062 L 32998.3,1045.4 L 32999.2,1029.1 L 32999.6,1012.3 Z" color="black" fill="black" stroke="none" transform="translate(-32694.366,-783.027) rotate(0.000,32999.970,1000.000)"/>
	<path d="M 32000,1000 L 31999.6,987.7 L 31999.2,970.9 L 31998.3,954.6 L 31996,938 L 32011.9,938.1 L 32024.6,946.2 L 32035.2,949.9 L 32049.2,954.2 L 32064.7,958.4 L 32076.6,963.1 L 32091.3,969.8 L 32106.1,977.6 L 32104.6,990 L 32103.7,1000.2 L 32106.1,1022.4 L 32091.3,1030.2 L 32076.6,1036.9 L 32064.7,1041.6 L 32049.2,1045.8 L 32035.2,1050.1 L 32024.6,1053.8 L 32011.9,1061.9 L 31996,1062 L 31998.3,1045.4 L 31999.2,1029.1 L 31999.6,1012.3 Z" color="black" fill="black" stroke="none" transform="translate(-31686.659,-573.709) rotate(0.000,31999.970,1000.000)"/>
	<path d="M 31000,1000 L 30999.6,987.7 L 30999.2,970.9 L 30998.3,954.6 L 30996,938 L 31011.9,938.1 L 31024.6,946.2 L 31035.2,949.9 L 31049.2,954.2 L 31064.7,958.4 L 31076.6,963.1 L 31091.3,969.8 L 31106.1,977.6 L 31104.6,990 L 31103.7,1000.2 L 31106.1,1022.4 L 31091.3,1030.2 L 31076.6,1036.9 L 31064.7,1041.6 L 31049.2,1045.8 L 31035.2,1050.1 L 31024.6,1053.8 L 31011.9,1061.9 L 30996,1062 L 30998.3,1045.4 L 30999.2,1029.1 L 30999.6,1012.3 Z" color="black" fill="black" stroke="none" transform="translate(-30581.146,-922.315) rotate(180.000,30999.970,1000.000)"/>
	<path d="M 13984.1,981.5 L 13967.2,977.2 L 13952.6,973.8 L 13930.51538,969.24286 L 13919.33548,964.05219 L 13946.8,961.6 L 13959.2,960 L 13978.5,955.7 L 13992.3,949.9 L 14013,938 L 14026.4,941.1 L 14047.78718,945.61507 L 14065.25122,951.49582 L 14076.6,956.9 L 14089.3,963.8 L 14111.5,974.2 L 14112.5,986.9 L 14113.3,999.3 L 14094,1002.3 L 14079.2,1004.5 L 14068,1005.9 L 14052.4,1007 L 14035.75263,1007 L 14018.1,1004.4 L 14000.09528,1000.41819 Z" color="black" fill="black" stroke="none" transform="translate(-13592.183,-477.013) rotate(0.000,13984.083,981.527)"/>
	<path d="M 9984.1,981.5 L 9967.2,977.2 L 9952.6,973.8 L 9930.51538,969.24286 L 9919.33548,964.05219 L 9946.8,961.6 L 9959.2,960 L 9978.5,955.7 L 9992.3,949.9 L 10013,938 L 10026.4,941.1 L 10047.78718,945.61507 L 10065.25122,951.49582 L 10076.6,956.9 L 10089.3,963.8 L 10111.5,974.2 L 10112.5,986.9 L 10113.3,999.3 L 10094,1002.3 L 10079.2,1004.5 L 10068,1005.9 L 10052.4,1007 L 10035.75263,1007 L 10018.1,1004.4 L 10000.09528,1000.41819 Z" color="black" fill="black" stroke="none" transform="translate(-9584.597,-801.476) rotate(0.000,9984.083,981.527)"/>
	<path d="M 10984.1,981.5 L 10967.2,977.2 L 10952.6,973.8 L 10930.51538,969.24286 L 10919.33548,964.05219 L 10946.8,961.6 L 10959.2,960 L 10978.5,955.7 L 10992.3,949.9 L 11013,938 L 11026.4,941.1 L 11047.78718,945.61507 L 11065.25122,951.49582 L 11076.6,956.9 L 11089.3,963.8 L 11111.5,974.2 L 11112.5,986.9 L 11113.3,999.3 L 11094,1002.3 L 11079.2,1004.5 L 11068,1005.9 L 11052.4,1007 L 11035.75263,1007 L 11018.1,1004.4 L 11000.09528,1000.41819 Z" color="black" fill="black" stroke="none" transform="translate(-10574.623,-590.857) rotate(0.000,10984.083,981.527)"/>
	<path d="M 11984.1,981.5 L 11967.2,977.2 L 11952.6,973.8 L 11930.51538,969.24286 L 11919.33548,964.05219 L 11946.8,961.6 L 11959.2,960 L 11978.5,955.7 L 11992.3,949.9 L 12013,938 L 12026.4,941.1 L 12047.78718,945.61507 L 12065.25122,951.49582 L 12076.6,956.9 L 12089.3,963.8 L 12111.5,974.2 L 12112.5,986.9 L 12113.3,999.3 L 12094,1002.3 L 12079.2,1004.5 L 12068,1005.9 L 12052.4,1007 L 12035.75263,1007 L 12018.1,1004.4 L 12000.09528,1000.41819 Z" color="black" fill="black" stroke="none" transform="translate(-11565.678,-407.959) rotate(0.000,11984.083,981.527)"/>
	<path d="M 38992.4,991.5 L 38982.2,980 L 38973,969.4 L 38958.8,962.6 L 38904.2,961.7 L 38904.6,945.7 L 38963.4,944 L 38973.1,934.1 L 38991,929.2 L 38999.6,946.1 L 39004,955.7 L 39009.4,968.8 L 39014.02381,980.96825 L 39018.9,995.8 L 39000.45243,1000.50601 Z" color="black" fill="black" stroke="none" transform="translate(-38546.599,-982.502) rotate(180.000,38992.378,991.520)"/>
	<path d="M 37992.4,991.5 L 37982.2,980 L 37973,969.4 L 37958.8,962.6 L 37904.2,961.7 L 37904.6,945.7 L 37963.4,944 L 37973.1,934.1 L 37991,929.2 L 37999.6,946.1 L 38004,955.7 L 38009.4,968.8 L 38014.02381,980.96825 L 38018.9,995.8 L 38000.45243,1000.50601 Z" color="black" fill="black" stroke="none" transform="translate(-37546.598,-921.686) rotate(180.000,37992.378,991.520)"/>
	<path d="M 36992.4,991.5 L 36982.2,980 L 36973,969.4 L 36958.8,962.6 L 36904.2,961.7 L 36904.6,945.7 L 36963.4,944 L 36973.1,934.1 L 36991,929.2 L 36999.6,946.1 L 37004,955.7 L 37009.4,968.8 L 37014.02381,980.96825 L 37018.9,995.8 L 37000.45243,1000.50601 Z" color="black" fill="black" stroke="none" transform="translate(-36555.512,-780.588) rotate(180.000,36992.378,991.520)"/>
	<path d="M 35992.4,991.5 L 35982.2,980 L 35973,969.4 L 35958.8,962.6 L 35904.2,961.7 L 35904.6,945.7 L 35963.4,944 L 35973.1,934.1 L 35991,929.2 L 35999.6,946.1 L 36004,955.7 L 36009.4,968.8 L 36014.02381,980.96825 L 36018.9,995.8 L 36000.45243,1000.50601 Z" color="black" fill="black" stroke="none" transform="translate(-35553.574,-717.592) rotate(180.000,35992.378,991.520)"/>
	<path d="M 34992.4,991.5 L 34982.2,980 L 34973,969.4 L 34958.8,962.6 L 34904.2,961.7 L 34904.6,945.7 L 34963.4,944 L 34973.1,934.1 L 34991,929.2 L 34999.6,946.1 L 35004,955.7 L 35009.4,968.8 L 35014.02381,980.96825 L 35018.9,995.8 L 35000.45243,1000.50601 Z" color="black" fill="black" stroke="none" transform="translate(-34484.995,-515.717) rotate(0.000,34992.378,991.520)"/>
	<path d="M 33992.4,991.5 L 33982.2,980 L 33973,969.4 L 33958.8,962.6 L 33904.2,961.7 L 33904.6,945.7 L 33963.4,944 L 33973.1,934.1 L 33991,929.2 L 33999.6,946.1 L 34004,955.7 L 34009.4,968.8 L 34014.02381,980.96825 L 34018.9,995.8 L 34000.45243,1000.50601 Z" color="black" fill="black" stroke="none" transform="translate(-33454.715,-612.053) rotate(0.000,33992.378,991.520)"/>
	<path d="M 7000,1000 L 7000.8,985.2 L 7002.69623,970.03019 L 7006.84435,953.75679 L 7017.9,955.1 L 7028.8,955.4 L 7040.1,953.7 L 7054.8,950.3 L 7076.40157,945.44383 L 7080.5,965 L 7088.7,980.4 L 7075.5,982.4 L 7065.5,984.5 L 7052.3,987.9 L 7027.2,994.8 L 7011.74533,998.81227 Z" color="black" fill="black" stroke="none" transform="translate(-6436.640,-751.602) rotate(180.000,6999.968,1000.033)"/>
	<path d="M 16000,1000 L 16000.8,982.8 L 16030.9,983.4 L 16048.4,983.5 L 16061.6,983.3 L 16071.8,982.8 L 16087.6,980.6 L 16103.1,975.2 L 16135.14549,988.89032 L 16120.9,994.3 L 16104.89706,999.31787 L 16090.9,1001.6 L 16078.5,1002.6 L 16066.8,1002.9 L 16051.1,1002.6 L 16021.3,1001.4 Z" color="black" fill="black" stroke="none" transform="translate(-15999.969,-800.337) rotate(0.000,15999.969,1000.028)"/>
	<path d="M 17000,1000 L 17000.8,982.8 L 17030.9,983.4 L 17048.4,983.5 L 17061.6,983.3 L 17071.8,982.8 L 17087.6,980.6 L 17103.1,975.2 L 17135.14549,988.89032 L 17120.9,994.3 L 17104.89706,999.31787 L 17090.9,1001.6 L 17078.5,1002.6 L 17066.8,1002.9 L 17051.1,1002.6 L 17021.3,1001.4 Z" color="black" fill="black" stroke="none" transform="translate(-16846.802,-409.990) rotate(0.000,16999.969,1000.028)"/>
	<path d="M 39986.41264,991.95517 L 39976.19472,979.69366 L 39975.91218,963.3067 L 39980.26393,951.41192 L 39988.56716,937.4382 L 39996.71149,944.49662 L 40005.82857,955.5 L 40011.81429,969.46667 L 40010.8699,984.89159 L 40000.71138,1001.33872 Z" color="black" fill="black" stroke="none" transform="translate(-39770.166,-948.589) rotate(180.000,39986.392,991.978)"/>
	<path d="M 40986.41264,991.95517 L 40976.19472,979.69366 L 40975.91218,963.3067 L 40980.26393,951.41192 L 40988.56716,937.4382 L 40996.71149,944.49662 L 41005.82857,955.5 L 41011.81429,969.46667 L 41010.8699,984.89159 L 41000.71138,1001.33872 Z" color="black" fill="black" stroke="none" transform="translate(-40734.410,-939.078) rotate(180.000,40986.392,991.978)"/>
	<path d="M 41986.41264,991.95517 L 41976.19472,979.69366 L 41975.91218,963.3067 L 41980.26393,951.41192 L 41988.56716,937.4382 L 41996.71149,944.49662 L 42005.82857,955.5 L 42011.81429,969.46667 L 42010.8699,984.89159 L 42000.71138,1001.33872 Z" color="black" fill="black" stroke="none" transform="translate(-41435.722,-932.193) rotate(180.000,41986.392,991.978)"/>
	<path d="M 42986.41264,991.95517 L 42976.19472,979.69366 L 42975.91218,963.3067 L 42980.26393,951.41192 L 42988.56716,937.4382 L 42996.71149,944.49662 L 43005.82857,955.5 L 43011.81429,969.46667 L 43010.8699,984.89159 L 43000.71138,1001.33872 Z" color="black" fill="black" stroke="none" transform="translate(-42805.645,-541.668) rotate(180.000,42986.392,991.978)"/>
	<path d="M 43986.41264,991.95517 L 43976.19472,979.69366 L 43975.91218,963.3067 L 43980.26393,951.41192 L 43988.56716,937.4382 L 43996.71149,944.49662 L 44005.82857,955.5 L 44011.81429,969.46667 L 44010.8699,984.89159 L 44000.71138,1001.33872 Z" color="black" fill="black" stroke="none" transform="translate(-43448.978,-866.596) rotate(180.000,43986.392,991.978)"/>
	<path d="M 44986.41264,991.95517 L 44976.19472,979.69366 L 44975.91218,963.3067 L 44980.26393,951.41192 L 44988.56716,937.4382 L 44996.71149,944.49662 L 45005.82857,955.5 L 45011.81429,969.46667 L 45010.8699,984.89159 L 45000.71138,1001.33872 Z" color="black" fill="black" stroke="none" transform="translate(-44733.312,-561.950) rotate(180.000,44986.392,991.978)"/>
</svg>
